%TF.GenerationSoftware,KiCad,Pcbnew,9.0.4*%
%TF.CreationDate,2026-01-29T10:59:48+09:00*%
%TF.ProjectId,ansikPlate21,616e7369-6b50-46c6-9174-6532312e6b69,rev?*%
%TF.SameCoordinates,Original*%
%TF.FileFunction,Legend,Top*%
%TF.FilePolarity,Positive*%
%FSLAX46Y46*%
G04 Gerber Fmt 4.6, Leading zero omitted, Abs format (unit mm)*
G04 Created by KiCad (PCBNEW 9.0.4) date 2026-01-29 10:59:48*
%MOMM*%
%LPD*%
G01*
G04 APERTURE LIST*
%ADD10C,0.100000*%
G04 APERTURE END LIST*
D10*
X63035712Y-110707419D02*
X63035712Y-110040752D01*
X63035712Y-110231228D02*
X63083331Y-110135990D01*
X63083331Y-110135990D02*
X63130950Y-110088371D01*
X63130950Y-110088371D02*
X63226188Y-110040752D01*
X63226188Y-110040752D02*
X63321426Y-110040752D01*
X64035712Y-110659800D02*
X63940474Y-110707419D01*
X63940474Y-110707419D02*
X63749998Y-110707419D01*
X63749998Y-110707419D02*
X63654760Y-110659800D01*
X63654760Y-110659800D02*
X63607141Y-110564561D01*
X63607141Y-110564561D02*
X63607141Y-110183609D01*
X63607141Y-110183609D02*
X63654760Y-110088371D01*
X63654760Y-110088371D02*
X63749998Y-110040752D01*
X63749998Y-110040752D02*
X63940474Y-110040752D01*
X63940474Y-110040752D02*
X64035712Y-110088371D01*
X64035712Y-110088371D02*
X64083331Y-110183609D01*
X64083331Y-110183609D02*
X64083331Y-110278847D01*
X64083331Y-110278847D02*
X63607141Y-110374085D01*
X64464284Y-110659800D02*
X64559522Y-110707419D01*
X64559522Y-110707419D02*
X64749998Y-110707419D01*
X64749998Y-110707419D02*
X64845236Y-110659800D01*
X64845236Y-110659800D02*
X64892855Y-110564561D01*
X64892855Y-110564561D02*
X64892855Y-110516942D01*
X64892855Y-110516942D02*
X64845236Y-110421704D01*
X64845236Y-110421704D02*
X64749998Y-110374085D01*
X64749998Y-110374085D02*
X64607141Y-110374085D01*
X64607141Y-110374085D02*
X64511903Y-110326466D01*
X64511903Y-110326466D02*
X64464284Y-110231228D01*
X64464284Y-110231228D02*
X64464284Y-110183609D01*
X64464284Y-110183609D02*
X64511903Y-110088371D01*
X64511903Y-110088371D02*
X64607141Y-110040752D01*
X64607141Y-110040752D02*
X64749998Y-110040752D01*
X64749998Y-110040752D02*
X64845236Y-110088371D01*
X65178570Y-110040752D02*
X65559522Y-110040752D01*
X65321427Y-109707419D02*
X65321427Y-110564561D01*
X65321427Y-110564561D02*
X65369046Y-110659800D01*
X65369046Y-110659800D02*
X65464284Y-110707419D01*
X65464284Y-110707419D02*
X65559522Y-110707419D01*
X65892856Y-110612180D02*
X65940475Y-110659800D01*
X65940475Y-110659800D02*
X65892856Y-110707419D01*
X65892856Y-110707419D02*
X65845237Y-110659800D01*
X65845237Y-110659800D02*
X65892856Y-110612180D01*
X65892856Y-110612180D02*
X65892856Y-110707419D01*
X67559522Y-110707419D02*
X67559522Y-109707419D01*
X67559522Y-110659800D02*
X67464284Y-110707419D01*
X67464284Y-110707419D02*
X67273808Y-110707419D01*
X67273808Y-110707419D02*
X67178570Y-110659800D01*
X67178570Y-110659800D02*
X67130951Y-110612180D01*
X67130951Y-110612180D02*
X67083332Y-110516942D01*
X67083332Y-110516942D02*
X67083332Y-110231228D01*
X67083332Y-110231228D02*
X67130951Y-110135990D01*
X67130951Y-110135990D02*
X67178570Y-110088371D01*
X67178570Y-110088371D02*
X67273808Y-110040752D01*
X67273808Y-110040752D02*
X67464284Y-110040752D01*
X67464284Y-110040752D02*
X67559522Y-110088371D01*
X68178570Y-110707419D02*
X68083332Y-110659800D01*
X68083332Y-110659800D02*
X68035713Y-110612180D01*
X68035713Y-110612180D02*
X67988094Y-110516942D01*
X67988094Y-110516942D02*
X67988094Y-110231228D01*
X67988094Y-110231228D02*
X68035713Y-110135990D01*
X68035713Y-110135990D02*
X68083332Y-110088371D01*
X68083332Y-110088371D02*
X68178570Y-110040752D01*
X68178570Y-110040752D02*
X68321427Y-110040752D01*
X68321427Y-110040752D02*
X68416665Y-110088371D01*
X68416665Y-110088371D02*
X68464284Y-110135990D01*
X68464284Y-110135990D02*
X68511903Y-110231228D01*
X68511903Y-110231228D02*
X68511903Y-110516942D01*
X68511903Y-110516942D02*
X68464284Y-110612180D01*
X68464284Y-110612180D02*
X68416665Y-110659800D01*
X68416665Y-110659800D02*
X68321427Y-110707419D01*
X68321427Y-110707419D02*
X68178570Y-110707419D01*
X68940475Y-110040752D02*
X68940475Y-110707419D01*
X68940475Y-110135990D02*
X68988094Y-110088371D01*
X68988094Y-110088371D02*
X69083332Y-110040752D01*
X69083332Y-110040752D02*
X69226189Y-110040752D01*
X69226189Y-110040752D02*
X69321427Y-110088371D01*
X69321427Y-110088371D02*
X69369046Y-110183609D01*
X69369046Y-110183609D02*
X69369046Y-110707419D01*
X69892856Y-109707419D02*
X69797618Y-109897895D01*
X70178570Y-110040752D02*
X70559522Y-110040752D01*
X70321427Y-109707419D02*
X70321427Y-110564561D01*
X70321427Y-110564561D02*
X70369046Y-110659800D01*
X70369046Y-110659800D02*
X70464284Y-110707419D01*
X70464284Y-110707419D02*
X70559522Y-110707419D01*
X71511904Y-110040752D02*
X71892856Y-110040752D01*
X71654761Y-109707419D02*
X71654761Y-110564561D01*
X71654761Y-110564561D02*
X71702380Y-110659800D01*
X71702380Y-110659800D02*
X71797618Y-110707419D01*
X71797618Y-110707419D02*
X71892856Y-110707419D01*
X72226190Y-110707419D02*
X72226190Y-109707419D01*
X72654761Y-110707419D02*
X72654761Y-110183609D01*
X72654761Y-110183609D02*
X72607142Y-110088371D01*
X72607142Y-110088371D02*
X72511904Y-110040752D01*
X72511904Y-110040752D02*
X72369047Y-110040752D01*
X72369047Y-110040752D02*
X72273809Y-110088371D01*
X72273809Y-110088371D02*
X72226190Y-110135990D01*
X73130952Y-110707419D02*
X73130952Y-110040752D01*
X73130952Y-109707419D02*
X73083333Y-109755038D01*
X73083333Y-109755038D02*
X73130952Y-109802657D01*
X73130952Y-109802657D02*
X73178571Y-109755038D01*
X73178571Y-109755038D02*
X73130952Y-109707419D01*
X73130952Y-109707419D02*
X73130952Y-109802657D01*
X73607142Y-110040752D02*
X73607142Y-110707419D01*
X73607142Y-110135990D02*
X73654761Y-110088371D01*
X73654761Y-110088371D02*
X73749999Y-110040752D01*
X73749999Y-110040752D02*
X73892856Y-110040752D01*
X73892856Y-110040752D02*
X73988094Y-110088371D01*
X73988094Y-110088371D02*
X74035713Y-110183609D01*
X74035713Y-110183609D02*
X74035713Y-110707419D01*
X74511904Y-110707419D02*
X74511904Y-109707419D01*
X74607142Y-110326466D02*
X74892856Y-110707419D01*
X74892856Y-110040752D02*
X74511904Y-110421704D01*
X76511904Y-110707419D02*
X76511904Y-110183609D01*
X76511904Y-110183609D02*
X76464285Y-110088371D01*
X76464285Y-110088371D02*
X76369047Y-110040752D01*
X76369047Y-110040752D02*
X76178571Y-110040752D01*
X76178571Y-110040752D02*
X76083333Y-110088371D01*
X76511904Y-110659800D02*
X76416666Y-110707419D01*
X76416666Y-110707419D02*
X76178571Y-110707419D01*
X76178571Y-110707419D02*
X76083333Y-110659800D01*
X76083333Y-110659800D02*
X76035714Y-110564561D01*
X76035714Y-110564561D02*
X76035714Y-110469323D01*
X76035714Y-110469323D02*
X76083333Y-110374085D01*
X76083333Y-110374085D02*
X76178571Y-110326466D01*
X76178571Y-110326466D02*
X76416666Y-110326466D01*
X76416666Y-110326466D02*
X76511904Y-110278847D01*
X76988095Y-110707419D02*
X76988095Y-109707419D01*
X76988095Y-110088371D02*
X77083333Y-110040752D01*
X77083333Y-110040752D02*
X77273809Y-110040752D01*
X77273809Y-110040752D02*
X77369047Y-110088371D01*
X77369047Y-110088371D02*
X77416666Y-110135990D01*
X77416666Y-110135990D02*
X77464285Y-110231228D01*
X77464285Y-110231228D02*
X77464285Y-110516942D01*
X77464285Y-110516942D02*
X77416666Y-110612180D01*
X77416666Y-110612180D02*
X77369047Y-110659800D01*
X77369047Y-110659800D02*
X77273809Y-110707419D01*
X77273809Y-110707419D02*
X77083333Y-110707419D01*
X77083333Y-110707419D02*
X76988095Y-110659800D01*
X78035714Y-110707419D02*
X77940476Y-110659800D01*
X77940476Y-110659800D02*
X77892857Y-110612180D01*
X77892857Y-110612180D02*
X77845238Y-110516942D01*
X77845238Y-110516942D02*
X77845238Y-110231228D01*
X77845238Y-110231228D02*
X77892857Y-110135990D01*
X77892857Y-110135990D02*
X77940476Y-110088371D01*
X77940476Y-110088371D02*
X78035714Y-110040752D01*
X78035714Y-110040752D02*
X78178571Y-110040752D01*
X78178571Y-110040752D02*
X78273809Y-110088371D01*
X78273809Y-110088371D02*
X78321428Y-110135990D01*
X78321428Y-110135990D02*
X78369047Y-110231228D01*
X78369047Y-110231228D02*
X78369047Y-110516942D01*
X78369047Y-110516942D02*
X78321428Y-110612180D01*
X78321428Y-110612180D02*
X78273809Y-110659800D01*
X78273809Y-110659800D02*
X78178571Y-110707419D01*
X78178571Y-110707419D02*
X78035714Y-110707419D01*
X79226190Y-110040752D02*
X79226190Y-110707419D01*
X78797619Y-110040752D02*
X78797619Y-110564561D01*
X78797619Y-110564561D02*
X78845238Y-110659800D01*
X78845238Y-110659800D02*
X78940476Y-110707419D01*
X78940476Y-110707419D02*
X79083333Y-110707419D01*
X79083333Y-110707419D02*
X79178571Y-110659800D01*
X79178571Y-110659800D02*
X79226190Y-110612180D01*
X79559524Y-110040752D02*
X79940476Y-110040752D01*
X79702381Y-109707419D02*
X79702381Y-110564561D01*
X79702381Y-110564561D02*
X79750000Y-110659800D01*
X79750000Y-110659800D02*
X79845238Y-110707419D01*
X79845238Y-110707419D02*
X79940476Y-110707419D01*
X81464286Y-110659800D02*
X81369048Y-110707419D01*
X81369048Y-110707419D02*
X81178572Y-110707419D01*
X81178572Y-110707419D02*
X81083334Y-110659800D01*
X81083334Y-110659800D02*
X81035715Y-110612180D01*
X81035715Y-110612180D02*
X80988096Y-110516942D01*
X80988096Y-110516942D02*
X80988096Y-110231228D01*
X80988096Y-110231228D02*
X81035715Y-110135990D01*
X81035715Y-110135990D02*
X81083334Y-110088371D01*
X81083334Y-110088371D02*
X81178572Y-110040752D01*
X81178572Y-110040752D02*
X81369048Y-110040752D01*
X81369048Y-110040752D02*
X81464286Y-110088371D01*
X82035715Y-110707419D02*
X81940477Y-110659800D01*
X81940477Y-110659800D02*
X81892858Y-110612180D01*
X81892858Y-110612180D02*
X81845239Y-110516942D01*
X81845239Y-110516942D02*
X81845239Y-110231228D01*
X81845239Y-110231228D02*
X81892858Y-110135990D01*
X81892858Y-110135990D02*
X81940477Y-110088371D01*
X81940477Y-110088371D02*
X82035715Y-110040752D01*
X82035715Y-110040752D02*
X82178572Y-110040752D01*
X82178572Y-110040752D02*
X82273810Y-110088371D01*
X82273810Y-110088371D02*
X82321429Y-110135990D01*
X82321429Y-110135990D02*
X82369048Y-110231228D01*
X82369048Y-110231228D02*
X82369048Y-110516942D01*
X82369048Y-110516942D02*
X82321429Y-110612180D01*
X82321429Y-110612180D02*
X82273810Y-110659800D01*
X82273810Y-110659800D02*
X82178572Y-110707419D01*
X82178572Y-110707419D02*
X82035715Y-110707419D01*
X82797620Y-110040752D02*
X82797620Y-110707419D01*
X82797620Y-110135990D02*
X82845239Y-110088371D01*
X82845239Y-110088371D02*
X82940477Y-110040752D01*
X82940477Y-110040752D02*
X83083334Y-110040752D01*
X83083334Y-110040752D02*
X83178572Y-110088371D01*
X83178572Y-110088371D02*
X83226191Y-110183609D01*
X83226191Y-110183609D02*
X83226191Y-110707419D01*
X83654763Y-110659800D02*
X83750001Y-110707419D01*
X83750001Y-110707419D02*
X83940477Y-110707419D01*
X83940477Y-110707419D02*
X84035715Y-110659800D01*
X84035715Y-110659800D02*
X84083334Y-110564561D01*
X84083334Y-110564561D02*
X84083334Y-110516942D01*
X84083334Y-110516942D02*
X84035715Y-110421704D01*
X84035715Y-110421704D02*
X83940477Y-110374085D01*
X83940477Y-110374085D02*
X83797620Y-110374085D01*
X83797620Y-110374085D02*
X83702382Y-110326466D01*
X83702382Y-110326466D02*
X83654763Y-110231228D01*
X83654763Y-110231228D02*
X83654763Y-110183609D01*
X83654763Y-110183609D02*
X83702382Y-110088371D01*
X83702382Y-110088371D02*
X83797620Y-110040752D01*
X83797620Y-110040752D02*
X83940477Y-110040752D01*
X83940477Y-110040752D02*
X84035715Y-110088371D01*
X84892858Y-110659800D02*
X84797620Y-110707419D01*
X84797620Y-110707419D02*
X84607144Y-110707419D01*
X84607144Y-110707419D02*
X84511906Y-110659800D01*
X84511906Y-110659800D02*
X84464287Y-110564561D01*
X84464287Y-110564561D02*
X84464287Y-110183609D01*
X84464287Y-110183609D02*
X84511906Y-110088371D01*
X84511906Y-110088371D02*
X84607144Y-110040752D01*
X84607144Y-110040752D02*
X84797620Y-110040752D01*
X84797620Y-110040752D02*
X84892858Y-110088371D01*
X84892858Y-110088371D02*
X84940477Y-110183609D01*
X84940477Y-110183609D02*
X84940477Y-110278847D01*
X84940477Y-110278847D02*
X84464287Y-110374085D01*
X85797620Y-110040752D02*
X85797620Y-111040752D01*
X85797620Y-110659800D02*
X85702382Y-110707419D01*
X85702382Y-110707419D02*
X85511906Y-110707419D01*
X85511906Y-110707419D02*
X85416668Y-110659800D01*
X85416668Y-110659800D02*
X85369049Y-110612180D01*
X85369049Y-110612180D02*
X85321430Y-110516942D01*
X85321430Y-110516942D02*
X85321430Y-110231228D01*
X85321430Y-110231228D02*
X85369049Y-110135990D01*
X85369049Y-110135990D02*
X85416668Y-110088371D01*
X85416668Y-110088371D02*
X85511906Y-110040752D01*
X85511906Y-110040752D02*
X85702382Y-110040752D01*
X85702382Y-110040752D02*
X85797620Y-110088371D01*
X86702382Y-110040752D02*
X86702382Y-110707419D01*
X86273811Y-110040752D02*
X86273811Y-110564561D01*
X86273811Y-110564561D02*
X86321430Y-110659800D01*
X86321430Y-110659800D02*
X86416668Y-110707419D01*
X86416668Y-110707419D02*
X86559525Y-110707419D01*
X86559525Y-110707419D02*
X86654763Y-110659800D01*
X86654763Y-110659800D02*
X86702382Y-110612180D01*
X87559525Y-110659800D02*
X87464287Y-110707419D01*
X87464287Y-110707419D02*
X87273811Y-110707419D01*
X87273811Y-110707419D02*
X87178573Y-110659800D01*
X87178573Y-110659800D02*
X87130954Y-110564561D01*
X87130954Y-110564561D02*
X87130954Y-110183609D01*
X87130954Y-110183609D02*
X87178573Y-110088371D01*
X87178573Y-110088371D02*
X87273811Y-110040752D01*
X87273811Y-110040752D02*
X87464287Y-110040752D01*
X87464287Y-110040752D02*
X87559525Y-110088371D01*
X87559525Y-110088371D02*
X87607144Y-110183609D01*
X87607144Y-110183609D02*
X87607144Y-110278847D01*
X87607144Y-110278847D02*
X87130954Y-110374085D01*
X88035716Y-110040752D02*
X88035716Y-110707419D01*
X88035716Y-110135990D02*
X88083335Y-110088371D01*
X88083335Y-110088371D02*
X88178573Y-110040752D01*
X88178573Y-110040752D02*
X88321430Y-110040752D01*
X88321430Y-110040752D02*
X88416668Y-110088371D01*
X88416668Y-110088371D02*
X88464287Y-110183609D01*
X88464287Y-110183609D02*
X88464287Y-110707419D01*
X89369049Y-110659800D02*
X89273811Y-110707419D01*
X89273811Y-110707419D02*
X89083335Y-110707419D01*
X89083335Y-110707419D02*
X88988097Y-110659800D01*
X88988097Y-110659800D02*
X88940478Y-110612180D01*
X88940478Y-110612180D02*
X88892859Y-110516942D01*
X88892859Y-110516942D02*
X88892859Y-110231228D01*
X88892859Y-110231228D02*
X88940478Y-110135990D01*
X88940478Y-110135990D02*
X88988097Y-110088371D01*
X88988097Y-110088371D02*
X89083335Y-110040752D01*
X89083335Y-110040752D02*
X89273811Y-110040752D01*
X89273811Y-110040752D02*
X89369049Y-110088371D01*
X90178573Y-110659800D02*
X90083335Y-110707419D01*
X90083335Y-110707419D02*
X89892859Y-110707419D01*
X89892859Y-110707419D02*
X89797621Y-110659800D01*
X89797621Y-110659800D02*
X89750002Y-110564561D01*
X89750002Y-110564561D02*
X89750002Y-110183609D01*
X89750002Y-110183609D02*
X89797621Y-110088371D01*
X89797621Y-110088371D02*
X89892859Y-110040752D01*
X89892859Y-110040752D02*
X90083335Y-110040752D01*
X90083335Y-110040752D02*
X90178573Y-110088371D01*
X90178573Y-110088371D02*
X90226192Y-110183609D01*
X90226192Y-110183609D02*
X90226192Y-110278847D01*
X90226192Y-110278847D02*
X89750002Y-110374085D01*
X90607145Y-110659800D02*
X90702383Y-110707419D01*
X90702383Y-110707419D02*
X90892859Y-110707419D01*
X90892859Y-110707419D02*
X90988097Y-110659800D01*
X90988097Y-110659800D02*
X91035716Y-110564561D01*
X91035716Y-110564561D02*
X91035716Y-110516942D01*
X91035716Y-110516942D02*
X90988097Y-110421704D01*
X90988097Y-110421704D02*
X90892859Y-110374085D01*
X90892859Y-110374085D02*
X90750002Y-110374085D01*
X90750002Y-110374085D02*
X90654764Y-110326466D01*
X90654764Y-110326466D02*
X90607145Y-110231228D01*
X90607145Y-110231228D02*
X90607145Y-110183609D01*
X90607145Y-110183609D02*
X90654764Y-110088371D01*
X90654764Y-110088371D02*
X90750002Y-110040752D01*
X90750002Y-110040752D02*
X90892859Y-110040752D01*
X90892859Y-110040752D02*
X90988097Y-110088371D01*
X91464288Y-110612180D02*
X91511907Y-110659800D01*
X91511907Y-110659800D02*
X91464288Y-110707419D01*
X91464288Y-110707419D02*
X91416669Y-110659800D01*
X91416669Y-110659800D02*
X91464288Y-110612180D01*
X91464288Y-110612180D02*
X91464288Y-110707419D01*
%LPC*%
X93137524Y-110000000D02*
X92887524Y-110250000D01*
X93137524Y-110500000D01*
X92887524Y-110750000D01*
X92637524Y-110500000D01*
X92387524Y-110750000D01*
X92137524Y-110500000D01*
X92387524Y-110250000D01*
X92137524Y-110000000D01*
X92387524Y-109750000D01*
X92637524Y-110000000D01*
X92887524Y-109750000D01*
X93137524Y-110000000D01*
G36*
X93137524Y-110000000D02*
G01*
X92887524Y-110250000D01*
X93137524Y-110500000D01*
X92887524Y-110750000D01*
X92637524Y-110500000D01*
X92387524Y-110750000D01*
X92137524Y-110500000D01*
X92387524Y-110250000D01*
X92137524Y-110000000D01*
X92387524Y-109750000D01*
X92637524Y-110000000D01*
X92887524Y-109750000D01*
X93137524Y-110000000D01*
G37*
X97637524Y-110000000D02*
X97387524Y-110250000D01*
X97637524Y-110500000D01*
X97387524Y-110750000D01*
X97137524Y-110500000D01*
X96887524Y-110750000D01*
X96637524Y-110500000D01*
X96887524Y-110250000D01*
X96637524Y-110000000D01*
X96887524Y-109750000D01*
X97137524Y-110000000D01*
X97387524Y-109750000D01*
X97637524Y-110000000D01*
G36*
X97637524Y-110000000D02*
G01*
X97387524Y-110250000D01*
X97637524Y-110500000D01*
X97387524Y-110750000D01*
X97137524Y-110500000D01*
X96887524Y-110750000D01*
X96637524Y-110500000D01*
X96887524Y-110250000D01*
X96637524Y-110000000D01*
X96887524Y-109750000D01*
X97137524Y-110000000D01*
X97387524Y-109750000D01*
X97637524Y-110000000D01*
G37*
X94637524Y-110000000D02*
X94387524Y-110250000D01*
X94637524Y-110500000D01*
X94387524Y-110750000D01*
X94137524Y-110500000D01*
X93887524Y-110750000D01*
X93637524Y-110500000D01*
X93887524Y-110250000D01*
X93637524Y-110000000D01*
X93887524Y-109750000D01*
X94137524Y-110000000D01*
X94387524Y-109750000D01*
X94637524Y-110000000D01*
G36*
X94637524Y-110000000D02*
G01*
X94387524Y-110250000D01*
X94637524Y-110500000D01*
X94387524Y-110750000D01*
X94137524Y-110500000D01*
X93887524Y-110750000D01*
X93637524Y-110500000D01*
X93887524Y-110250000D01*
X93637524Y-110000000D01*
X93887524Y-109750000D01*
X94137524Y-110000000D01*
X94387524Y-109750000D01*
X94637524Y-110000000D01*
G37*
X96137524Y-110000000D02*
X95887524Y-110250000D01*
X96137524Y-110500000D01*
X95887524Y-110750000D01*
X95637524Y-110500000D01*
X95387524Y-110750000D01*
X95137524Y-110500000D01*
X95387524Y-110250000D01*
X95137524Y-110000000D01*
X95387524Y-109750000D01*
X95637524Y-110000000D01*
X95887524Y-109750000D01*
X96137524Y-110000000D01*
G36*
X96137524Y-110000000D02*
G01*
X95887524Y-110250000D01*
X96137524Y-110500000D01*
X95887524Y-110750000D01*
X95637524Y-110500000D01*
X95387524Y-110750000D01*
X95137524Y-110500000D01*
X95387524Y-110250000D01*
X95137524Y-110000000D01*
X95387524Y-109750000D01*
X95637524Y-110000000D01*
X95887524Y-109750000D01*
X96137524Y-110000000D01*
G37*
%LPD*%
M02*
