%TF.GenerationSoftware,KiCad,Pcbnew,9.0.4*%
%TF.CreationDate,2026-01-29T10:59:48+09:00*%
%TF.ProjectId,ansikPlate21,616e7369-6b50-46c6-9174-6532312e6b69,rev?*%
%TF.SameCoordinates,Original*%
%TF.FileFunction,Soldermask,Bot*%
%TF.FilePolarity,Negative*%
%FSLAX46Y46*%
G04 Gerber Fmt 4.6, Leading zero omitted, Abs format (unit mm)*
G04 Created by KiCad (PCBNEW 9.0.4) date 2026-01-29 10:59:48*
%MOMM*%
%LPD*%
G01*
G04 APERTURE LIST*
%ADD10C,0.100000*%
G04 APERTURE END LIST*
D10*
X93137524Y-110000000D02*
X92887524Y-110250000D01*
X93137524Y-110500000D01*
X92887524Y-110750000D01*
X92637524Y-110500000D01*
X92387524Y-110750000D01*
X92137524Y-110500000D01*
X92387524Y-110250000D01*
X92137524Y-110000000D01*
X92387524Y-109750000D01*
X92637524Y-110000000D01*
X92887524Y-109750000D01*
X93137524Y-110000000D01*
G36*
X93137524Y-110000000D02*
G01*
X92887524Y-110250000D01*
X93137524Y-110500000D01*
X92887524Y-110750000D01*
X92637524Y-110500000D01*
X92387524Y-110750000D01*
X92137524Y-110500000D01*
X92387524Y-110250000D01*
X92137524Y-110000000D01*
X92387524Y-109750000D01*
X92637524Y-110000000D01*
X92887524Y-109750000D01*
X93137524Y-110000000D01*
G37*
X94637524Y-110000000D02*
X94387524Y-110250000D01*
X94637524Y-110500000D01*
X94387524Y-110750000D01*
X94137524Y-110500000D01*
X93887524Y-110750000D01*
X93637524Y-110500000D01*
X93887524Y-110250000D01*
X93637524Y-110000000D01*
X93887524Y-109750000D01*
X94137524Y-110000000D01*
X94387524Y-109750000D01*
X94637524Y-110000000D01*
G36*
X94637524Y-110000000D02*
G01*
X94387524Y-110250000D01*
X94637524Y-110500000D01*
X94387524Y-110750000D01*
X94137524Y-110500000D01*
X93887524Y-110750000D01*
X93637524Y-110500000D01*
X93887524Y-110250000D01*
X93637524Y-110000000D01*
X93887524Y-109750000D01*
X94137524Y-110000000D01*
X94387524Y-109750000D01*
X94637524Y-110000000D01*
G37*
X97637524Y-110000000D02*
X97387524Y-110250000D01*
X97637524Y-110500000D01*
X97387524Y-110750000D01*
X97137524Y-110500000D01*
X96887524Y-110750000D01*
X96637524Y-110500000D01*
X96887524Y-110250000D01*
X96637524Y-110000000D01*
X96887524Y-109750000D01*
X97137524Y-110000000D01*
X97387524Y-109750000D01*
X97637524Y-110000000D01*
G36*
X97637524Y-110000000D02*
G01*
X97387524Y-110250000D01*
X97637524Y-110500000D01*
X97387524Y-110750000D01*
X97137524Y-110500000D01*
X96887524Y-110750000D01*
X96637524Y-110500000D01*
X96887524Y-110250000D01*
X96637524Y-110000000D01*
X96887524Y-109750000D01*
X97137524Y-110000000D01*
X97387524Y-109750000D01*
X97637524Y-110000000D01*
G37*
X96137524Y-110000000D02*
X95887524Y-110250000D01*
X96137524Y-110500000D01*
X95887524Y-110750000D01*
X95637524Y-110500000D01*
X95387524Y-110750000D01*
X95137524Y-110500000D01*
X95387524Y-110250000D01*
X95137524Y-110000000D01*
X95387524Y-109750000D01*
X95637524Y-110000000D01*
X95887524Y-109750000D01*
X96137524Y-110000000D01*
G36*
X96137524Y-110000000D02*
G01*
X95887524Y-110250000D01*
X96137524Y-110500000D01*
X95887524Y-110750000D01*
X95637524Y-110500000D01*
X95387524Y-110750000D01*
X95137524Y-110500000D01*
X95387524Y-110250000D01*
X95137524Y-110000000D01*
X95387524Y-109750000D01*
X95637524Y-110000000D01*
X95887524Y-109750000D01*
X96137524Y-110000000D01*
G37*
M02*
