%TF.GenerationSoftware,KiCad,Pcbnew,9.0.4*%
%TF.CreationDate,2026-01-29T08:09:26+09:00*%
%TF.ProjectId,ansik,616e7369-6b2e-46b6-9963-61645f706362,rev?*%
%TF.SameCoordinates,Original*%
%TF.FileFunction,Soldermask,Bot*%
%TF.FilePolarity,Negative*%
%FSLAX46Y46*%
G04 Gerber Fmt 4.6, Leading zero omitted, Abs format (unit mm)*
G04 Created by KiCad (PCBNEW 9.0.4) date 2026-01-29 08:09:26*
%MOMM*%
%LPD*%
G01*
G04 APERTURE LIST*
G04 Aperture macros list*
%AMRoundRect*
0 Rectangle with rounded corners*
0 $1 Rounding radius*
0 $2 $3 $4 $5 $6 $7 $8 $9 X,Y pos of 4 corners*
0 Add a 4 corners polygon primitive as box body*
4,1,4,$2,$3,$4,$5,$6,$7,$8,$9,$2,$3,0*
0 Add four circle primitives for the rounded corners*
1,1,$1+$1,$2,$3*
1,1,$1+$1,$4,$5*
1,1,$1+$1,$6,$7*
1,1,$1+$1,$8,$9*
0 Add four rect primitives between the rounded corners*
20,1,$1+$1,$2,$3,$4,$5,0*
20,1,$1+$1,$4,$5,$6,$7,0*
20,1,$1+$1,$6,$7,$8,$9,0*
20,1,$1+$1,$8,$9,$2,$3,0*%
%AMFreePoly0*
4,1,6,1.000000,0.000000,0.500000,-0.750000,-0.500000,-0.750000,-0.500000,0.750000,0.500000,0.750000,1.000000,0.000000,1.000000,0.000000,$1*%
%AMFreePoly1*
4,1,6,0.500000,-0.750000,-0.650000,-0.750000,-0.150000,0.000000,-0.650000,0.750000,0.500000,0.750000,0.500000,-0.750000,0.500000,-0.750000,$1*%
%AMFreePoly2*
4,1,6,0.600000,0.200000,0.000000,-0.400000,-0.600000,0.200000,-0.600000,0.400000,0.600000,0.400000,0.600000,0.200000,0.600000,0.200000,$1*%
%AMFreePoly3*
4,1,6,0.600000,-0.250000,-0.600000,-0.250000,-0.600000,1.000000,0.000000,0.400000,0.600000,1.000000,0.600000,-0.250000,0.600000,-0.250000,$1*%
G04 Aperture macros list end*
%ADD10C,0.200000*%
%ADD11C,1.701800*%
%ADD12C,3.000000*%
%ADD13C,4.000000*%
%ADD14R,2.500000X2.500000*%
%ADD15R,1.397000X1.397000*%
%ADD16R,0.940000X1.400000*%
%ADD17C,1.397000*%
%ADD18R,2.000000X2.000000*%
%ADD19C,0.800000*%
%ADD20O,1.600000X2.000000*%
%ADD21C,2.000000*%
%ADD22C,0.850000*%
%ADD23RoundRect,0.200000X0.450000X-0.200000X0.450000X0.200000X-0.450000X0.200000X-0.450000X-0.200000X0*%
%ADD24O,1.300000X0.800000*%
%ADD25RoundRect,0.200000X-0.450000X0.200000X-0.450000X-0.200000X0.450000X-0.200000X0.450000X0.200000X0*%
%ADD26FreePoly0,180.000000*%
%ADD27FreePoly1,180.000000*%
%ADD28FreePoly0,0.000000*%
%ADD29FreePoly1,0.000000*%
%ADD30R,1.700000X1.000000*%
%ADD31C,1.600000*%
%ADD32FreePoly2,0.000000*%
%ADD33FreePoly2,180.000000*%
%ADD34R,1.600000X1.600000*%
%ADD35FreePoly3,0.000000*%
%ADD36FreePoly3,180.000000*%
%ADD37RoundRect,0.150000X-0.150000X-0.500000X0.150000X-0.500000X0.150000X0.500000X-0.150000X0.500000X0*%
%ADD38RoundRect,0.175000X-0.350000X-0.175000X0.350000X-0.175000X0.350000X0.175000X-0.350000X0.175000X0*%
G04 APERTURE END LIST*
%TO.C,JP3*%
G36*
X157475000Y-41500000D02*
G01*
X155025000Y-41500000D01*
X155025000Y-43000000D01*
X157475000Y-43000000D01*
X157475000Y-41500000D01*
G37*
%TO.C,JP5*%
G36*
X155025000Y-46500000D02*
G01*
X157475000Y-46500000D01*
X157475000Y-45000000D01*
X155025000Y-45000000D01*
X155025000Y-46500000D01*
G37*
D10*
%TO.C,U1*%
X78288000Y-44096000D02*
X77272000Y-44096000D01*
X77272000Y-43080000D01*
X78288000Y-43080000D01*
X78288000Y-44096000D01*
G36*
X78288000Y-44096000D02*
G01*
X77272000Y-44096000D01*
X77272000Y-43080000D01*
X78288000Y-43080000D01*
X78288000Y-44096000D01*
G37*
X78288000Y-32920000D02*
X77272000Y-32920000D01*
X77272000Y-31904000D01*
X78288000Y-31904000D01*
X78288000Y-32920000D01*
G36*
X78288000Y-32920000D02*
G01*
X77272000Y-32920000D01*
X77272000Y-31904000D01*
X78288000Y-31904000D01*
X78288000Y-32920000D01*
G37*
X80828000Y-44096000D02*
X79812000Y-44096000D01*
X79812000Y-43080000D01*
X80828000Y-43080000D01*
X80828000Y-44096000D01*
G36*
X80828000Y-44096000D02*
G01*
X79812000Y-44096000D01*
X79812000Y-43080000D01*
X80828000Y-43080000D01*
X80828000Y-44096000D01*
G37*
X80828000Y-32920000D02*
X79812000Y-32920000D01*
X79812000Y-31904000D01*
X80828000Y-31904000D01*
X80828000Y-32920000D01*
G36*
X80828000Y-32920000D02*
G01*
X79812000Y-32920000D01*
X79812000Y-31904000D01*
X80828000Y-31904000D01*
X80828000Y-32920000D01*
G37*
X83368000Y-44096000D02*
X82352000Y-44096000D01*
X82352000Y-43080000D01*
X83368000Y-43080000D01*
X83368000Y-44096000D01*
G36*
X83368000Y-44096000D02*
G01*
X82352000Y-44096000D01*
X82352000Y-43080000D01*
X83368000Y-43080000D01*
X83368000Y-44096000D01*
G37*
X83368000Y-32920000D02*
X82352000Y-32920000D01*
X82352000Y-31904000D01*
X83368000Y-31904000D01*
X83368000Y-32920000D01*
G36*
X83368000Y-32920000D02*
G01*
X82352000Y-32920000D01*
X82352000Y-31904000D01*
X83368000Y-31904000D01*
X83368000Y-32920000D01*
G37*
X85908000Y-44096000D02*
X84892000Y-44096000D01*
X84892000Y-43080000D01*
X85908000Y-43080000D01*
X85908000Y-44096000D01*
G36*
X85908000Y-44096000D02*
G01*
X84892000Y-44096000D01*
X84892000Y-43080000D01*
X85908000Y-43080000D01*
X85908000Y-44096000D01*
G37*
X85908000Y-32920000D02*
X84892000Y-32920000D01*
X84892000Y-31904000D01*
X85908000Y-31904000D01*
X85908000Y-32920000D01*
G36*
X85908000Y-32920000D02*
G01*
X84892000Y-32920000D01*
X84892000Y-31904000D01*
X85908000Y-31904000D01*
X85908000Y-32920000D01*
G37*
X88448000Y-44096000D02*
X87432000Y-44096000D01*
X87432000Y-43080000D01*
X88448000Y-43080000D01*
X88448000Y-44096000D01*
G36*
X88448000Y-44096000D02*
G01*
X87432000Y-44096000D01*
X87432000Y-43080000D01*
X88448000Y-43080000D01*
X88448000Y-44096000D01*
G37*
X88448000Y-32920000D02*
X87432000Y-32920000D01*
X87432000Y-31904000D01*
X88448000Y-31904000D01*
X88448000Y-32920000D01*
G36*
X88448000Y-32920000D02*
G01*
X87432000Y-32920000D01*
X87432000Y-31904000D01*
X88448000Y-31904000D01*
X88448000Y-32920000D01*
G37*
X90988000Y-44096000D02*
X89972000Y-44096000D01*
X89972000Y-43080000D01*
X90988000Y-43080000D01*
X90988000Y-44096000D01*
G36*
X90988000Y-44096000D02*
G01*
X89972000Y-44096000D01*
X89972000Y-43080000D01*
X90988000Y-43080000D01*
X90988000Y-44096000D01*
G37*
X90988000Y-32920000D02*
X89972000Y-32920000D01*
X89972000Y-31904000D01*
X90988000Y-31904000D01*
X90988000Y-32920000D01*
G36*
X90988000Y-32920000D02*
G01*
X89972000Y-32920000D01*
X89972000Y-31904000D01*
X90988000Y-31904000D01*
X90988000Y-32920000D01*
G37*
X93528000Y-44096000D02*
X92512000Y-44096000D01*
X92512000Y-43080000D01*
X93528000Y-43080000D01*
X93528000Y-44096000D01*
G36*
X93528000Y-44096000D02*
G01*
X92512000Y-44096000D01*
X92512000Y-43080000D01*
X93528000Y-43080000D01*
X93528000Y-44096000D01*
G37*
X93528000Y-32920000D02*
X92512000Y-32920000D01*
X92512000Y-31904000D01*
X93528000Y-31904000D01*
X93528000Y-32920000D01*
G36*
X93528000Y-32920000D02*
G01*
X92512000Y-32920000D01*
X92512000Y-31904000D01*
X93528000Y-31904000D01*
X93528000Y-32920000D01*
G37*
X96068000Y-44096000D02*
X95052000Y-44096000D01*
X95052000Y-43080000D01*
X96068000Y-43080000D01*
X96068000Y-44096000D01*
G36*
X96068000Y-44096000D02*
G01*
X95052000Y-44096000D01*
X95052000Y-43080000D01*
X96068000Y-43080000D01*
X96068000Y-44096000D01*
G37*
X96068000Y-32920000D02*
X95052000Y-32920000D01*
X95052000Y-31904000D01*
X96068000Y-31904000D01*
X96068000Y-32920000D01*
G36*
X96068000Y-32920000D02*
G01*
X95052000Y-32920000D01*
X95052000Y-31904000D01*
X96068000Y-31904000D01*
X96068000Y-32920000D01*
G37*
X98608000Y-44096000D02*
X97592000Y-44096000D01*
X97592000Y-43080000D01*
X98608000Y-43080000D01*
X98608000Y-44096000D01*
G36*
X98608000Y-44096000D02*
G01*
X97592000Y-44096000D01*
X97592000Y-43080000D01*
X98608000Y-43080000D01*
X98608000Y-44096000D01*
G37*
X98608000Y-32920000D02*
X97592000Y-32920000D01*
X97592000Y-31904000D01*
X98608000Y-31904000D01*
X98608000Y-32920000D01*
G36*
X98608000Y-32920000D02*
G01*
X97592000Y-32920000D01*
X97592000Y-31904000D01*
X98608000Y-31904000D01*
X98608000Y-32920000D01*
G37*
X101148000Y-44096000D02*
X100132000Y-44096000D01*
X100132000Y-43080000D01*
X101148000Y-43080000D01*
X101148000Y-44096000D01*
G36*
X101148000Y-44096000D02*
G01*
X100132000Y-44096000D01*
X100132000Y-43080000D01*
X101148000Y-43080000D01*
X101148000Y-44096000D01*
G37*
X101148000Y-32920000D02*
X100132000Y-32920000D01*
X100132000Y-31904000D01*
X101148000Y-31904000D01*
X101148000Y-32920000D01*
G36*
X101148000Y-32920000D02*
G01*
X100132000Y-32920000D01*
X100132000Y-31904000D01*
X101148000Y-31904000D01*
X101148000Y-32920000D01*
G37*
X103688000Y-44096000D02*
X102672000Y-44096000D01*
X102672000Y-43080000D01*
X103688000Y-43080000D01*
X103688000Y-44096000D01*
G36*
X103688000Y-44096000D02*
G01*
X102672000Y-44096000D01*
X102672000Y-43080000D01*
X103688000Y-43080000D01*
X103688000Y-44096000D01*
G37*
X103688000Y-32920000D02*
X102672000Y-32920000D01*
X102672000Y-31904000D01*
X103688000Y-31904000D01*
X103688000Y-32920000D01*
G36*
X103688000Y-32920000D02*
G01*
X102672000Y-32920000D01*
X102672000Y-31904000D01*
X103688000Y-31904000D01*
X103688000Y-32920000D01*
G37*
X106228000Y-44096000D02*
X105212000Y-44096000D01*
X105212000Y-43080000D01*
X106228000Y-43080000D01*
X106228000Y-44096000D01*
G36*
X106228000Y-44096000D02*
G01*
X105212000Y-44096000D01*
X105212000Y-43080000D01*
X106228000Y-43080000D01*
X106228000Y-44096000D01*
G37*
X106228000Y-32920000D02*
X105212000Y-32920000D01*
X105212000Y-31904000D01*
X106228000Y-31904000D01*
X106228000Y-32920000D01*
G36*
X106228000Y-32920000D02*
G01*
X105212000Y-32920000D01*
X105212000Y-31904000D01*
X106228000Y-31904000D01*
X106228000Y-32920000D01*
G37*
%TO.C,JP1*%
G36*
X157475000Y-39000000D02*
G01*
X155025000Y-39000000D01*
X155025000Y-40500000D01*
X157475000Y-40500000D01*
X157475000Y-39000000D01*
G37*
%TD*%
D11*
%TO.C,SW18*%
X74875000Y-109920000D03*
D12*
X77415000Y-111190000D03*
X79955000Y-112460000D03*
D13*
X74875000Y-115000000D03*
D12*
X79955000Y-117540000D03*
X77415000Y-118810000D03*
D11*
X74875000Y-120080000D03*
D14*
X77415000Y-107915000D03*
X79955000Y-120842000D03*
%TD*%
D11*
%TO.C,SW11*%
X152920000Y-77000000D03*
D12*
X154190000Y-74460000D03*
X155460000Y-71920000D03*
D13*
X158000000Y-77000000D03*
D12*
X160540000Y-71920000D03*
X161810000Y-74460000D03*
D11*
X163080000Y-77000000D03*
D14*
X150915000Y-74460000D03*
X163842000Y-71920000D03*
%TD*%
D11*
%TO.C,SW6*%
X167500000Y-63080000D03*
D12*
X164960000Y-61810000D03*
X162420000Y-60540000D03*
D13*
X167500000Y-58000000D03*
D12*
X162420000Y-55460000D03*
X164960000Y-54190000D03*
D11*
X167500000Y-52920000D03*
D14*
X164960000Y-65085000D03*
X162420000Y-52158000D03*
%TD*%
D11*
%TO.C,SW15*%
X124420000Y-96000000D03*
D12*
X125690000Y-93460000D03*
X126960000Y-90920000D03*
D13*
X129500000Y-96000000D03*
D12*
X132040000Y-90920000D03*
X133310000Y-93460000D03*
D11*
X134580000Y-96000000D03*
D14*
X122415000Y-93460000D03*
X135342000Y-90920000D03*
%TD*%
D11*
%TO.C,SW7*%
X76920000Y-77000000D03*
D12*
X78190000Y-74460000D03*
X79460000Y-71920000D03*
D13*
X82000000Y-77000000D03*
D12*
X84540000Y-71920000D03*
X85810000Y-74460000D03*
D11*
X87080000Y-77000000D03*
D14*
X74915000Y-74460000D03*
X87842000Y-71920000D03*
%TD*%
D11*
%TO.C,SW13*%
X86420000Y-96000000D03*
D12*
X87690000Y-93460000D03*
X88960000Y-90920000D03*
D13*
X91500000Y-96000000D03*
D12*
X94040000Y-90920000D03*
X95310000Y-93460000D03*
D11*
X96580000Y-96000000D03*
D14*
X84415000Y-93460000D03*
X97342000Y-90920000D03*
%TD*%
D11*
%TO.C,SW10*%
X133920000Y-77000000D03*
D12*
X135190000Y-74460000D03*
X136460000Y-71920000D03*
D13*
X139000000Y-77000000D03*
D12*
X141540000Y-71920000D03*
X142810000Y-74460000D03*
D11*
X144080000Y-77000000D03*
D14*
X131915000Y-74460000D03*
X144842000Y-71920000D03*
%TD*%
D11*
%TO.C,SW12*%
X72500000Y-90920000D03*
D12*
X75040000Y-92190000D03*
X77580000Y-93460000D03*
D13*
X72500000Y-96000000D03*
D12*
X77580000Y-98540000D03*
X75040000Y-99810000D03*
D11*
X72500000Y-101080000D03*
D14*
X75040000Y-88915000D03*
X77580000Y-101842000D03*
%TD*%
D11*
%TO.C,SW19*%
X119670000Y-115000000D03*
D12*
X120940000Y-112460000D03*
X122210000Y-109920000D03*
D13*
X124750000Y-115000000D03*
D12*
X127290000Y-109920000D03*
X128560000Y-112460000D03*
D11*
X129830000Y-115000000D03*
D14*
X117665000Y-112460000D03*
X130592000Y-109920000D03*
%TD*%
D11*
%TO.C,SW1*%
X72500000Y-52920000D03*
D12*
X75040000Y-54190000D03*
X77580000Y-55460000D03*
D13*
X72500000Y-58000000D03*
D12*
X77580000Y-60540000D03*
X75040000Y-61810000D03*
D11*
X72500000Y-63080000D03*
D14*
X75040000Y-50915000D03*
X77580000Y-63842000D03*
%TD*%
D11*
%TO.C,SW17*%
X167500000Y-101080000D03*
D12*
X164960000Y-99810000D03*
X162420000Y-98540000D03*
D13*
X167500000Y-96000000D03*
D12*
X162420000Y-93460000D03*
X164960000Y-92190000D03*
D11*
X167500000Y-90920000D03*
D14*
X164960000Y-103085000D03*
X162420000Y-90158000D03*
%TD*%
D11*
%TO.C,SW16*%
X143420000Y-96000000D03*
D12*
X144690000Y-93460000D03*
X145960000Y-90920000D03*
D13*
X148500000Y-96000000D03*
D12*
X151040000Y-90920000D03*
X152310000Y-93460000D03*
D11*
X153580000Y-96000000D03*
D14*
X141415000Y-93460000D03*
X154342000Y-90920000D03*
%TD*%
D11*
%TO.C,SW4*%
X124420000Y-58000000D03*
D12*
X125690000Y-55460000D03*
X126960000Y-52920000D03*
D13*
X129500000Y-58000000D03*
D12*
X132040000Y-52920000D03*
X133310000Y-55460000D03*
D11*
X134580000Y-58000000D03*
D14*
X122415000Y-55460000D03*
X135342000Y-52920000D03*
%TD*%
D11*
%TO.C,SW2*%
X86420000Y-58000000D03*
D12*
X87690000Y-55460000D03*
X88960000Y-52920000D03*
D13*
X91500000Y-58000000D03*
D12*
X94040000Y-52920000D03*
X95310000Y-55460000D03*
D11*
X96580000Y-58000000D03*
D14*
X84415000Y-55460000D03*
X97342000Y-52920000D03*
%TD*%
D11*
%TO.C,SW5*%
X143420000Y-58000000D03*
D12*
X144690000Y-55460000D03*
X145960000Y-52920000D03*
D13*
X148500000Y-58000000D03*
D12*
X151040000Y-52920000D03*
X152310000Y-55460000D03*
D11*
X153580000Y-58000000D03*
D14*
X141415000Y-55460000D03*
X154342000Y-52920000D03*
%TD*%
D11*
%TO.C,SW20*%
X155625000Y-120080000D03*
D12*
X153085000Y-118810000D03*
X150545000Y-117540000D03*
D13*
X155625000Y-115000000D03*
D12*
X150545000Y-112460000D03*
X153085000Y-111190000D03*
D11*
X155625000Y-109920000D03*
D14*
X153085000Y-122085000D03*
X150545000Y-109158000D03*
%TD*%
D11*
%TO.C,SW20*%
X143750000Y-120080000D03*
D12*
X141210000Y-118810000D03*
X138670000Y-117540000D03*
D13*
X143750000Y-115000000D03*
D12*
X138670000Y-112460000D03*
X141210000Y-111190000D03*
D11*
X143750000Y-109920000D03*
D14*
X141210000Y-122085000D03*
X138670000Y-109158000D03*
%TD*%
D11*
%TO.C,SW14*%
X105420000Y-96000000D03*
D12*
X106690000Y-93460000D03*
X107960000Y-90920000D03*
D13*
X110500000Y-96000000D03*
D12*
X113040000Y-90920000D03*
X114310000Y-93460000D03*
D11*
X115580000Y-96000000D03*
D14*
X103415000Y-93460000D03*
X116342000Y-90920000D03*
%TD*%
D11*
%TO.C,SW9*%
X114920000Y-77000000D03*
D12*
X116190000Y-74460000D03*
X117460000Y-71920000D03*
D13*
X120000000Y-77000000D03*
D12*
X122540000Y-71920000D03*
X123810000Y-74460000D03*
D11*
X125080000Y-77000000D03*
D14*
X112915000Y-74460000D03*
X125842000Y-71920000D03*
%TD*%
D11*
%TO.C,SW21*%
X165125000Y-120080000D03*
D12*
X162585000Y-118810000D03*
X160045000Y-117540000D03*
D13*
X165125000Y-115000000D03*
D12*
X160045000Y-112460000D03*
X162585000Y-111190000D03*
D11*
X165125000Y-109920000D03*
D14*
X162585000Y-122085000D03*
X160045000Y-109158000D03*
%TD*%
D11*
%TO.C,SW8*%
X95920000Y-77000000D03*
D12*
X97190000Y-74460000D03*
X98460000Y-71920000D03*
D13*
X101000000Y-77000000D03*
D12*
X103540000Y-71920000D03*
X104810000Y-74460000D03*
D11*
X106080000Y-77000000D03*
D14*
X93915000Y-74460000D03*
X106842000Y-71920000D03*
%TD*%
D11*
%TO.C,SW3*%
X105420000Y-58000000D03*
D12*
X106690000Y-55460000D03*
X107960000Y-52920000D03*
D13*
X110500000Y-58000000D03*
D12*
X113040000Y-52920000D03*
X114310000Y-55460000D03*
D11*
X115580000Y-58000000D03*
D14*
X103415000Y-55460000D03*
X116342000Y-52920000D03*
%TD*%
D15*
%TO.C,D15*%
X96750000Y-122620000D03*
D16*
X96750000Y-120585000D03*
X96750000Y-117035000D03*
D17*
X96750000Y-115000000D03*
%TD*%
D15*
%TO.C,D4*%
X95500000Y-112560000D03*
D16*
X95500000Y-110525000D03*
X95500000Y-106975000D03*
D17*
X95500000Y-104940000D03*
%TD*%
D15*
%TO.C,D18*%
X104250000Y-122620000D03*
D16*
X104250000Y-120585000D03*
X104250000Y-117035000D03*
D17*
X104250000Y-115000000D03*
%TD*%
D15*
%TO.C,D8*%
X105500000Y-112560000D03*
D16*
X105500000Y-110525000D03*
X105500000Y-106975000D03*
D17*
X105500000Y-104940000D03*
%TD*%
D15*
%TO.C,D10*%
X110500000Y-112560000D03*
D16*
X110500000Y-110525000D03*
X110500000Y-106975000D03*
D17*
X110500000Y-104940000D03*
%TD*%
D15*
%TO.C,D2*%
X90500000Y-112560000D03*
D16*
X90500000Y-110525000D03*
X90500000Y-106975000D03*
D17*
X90500000Y-104940000D03*
%TD*%
D15*
%TO.C,D20*%
X109250000Y-122620000D03*
D16*
X109250000Y-120585000D03*
X109250000Y-117035000D03*
D17*
X109250000Y-115000000D03*
%TD*%
D18*
%TO.C,B+1*%
X110000000Y-46000000D03*
%TD*%
D15*
%TO.C,D3*%
X93000000Y-112560000D03*
D16*
X93000000Y-110525000D03*
X93000000Y-106975000D03*
D17*
X93000000Y-104940000D03*
%TD*%
D15*
%TO.C,D21*%
X111750000Y-122620000D03*
D16*
X111750000Y-120585000D03*
X111750000Y-117035000D03*
D17*
X111750000Y-115000000D03*
%TD*%
D19*
%TO.C,J1*%
X166000000Y-29100000D03*
X166000000Y-36100000D03*
D20*
X168300000Y-33700000D03*
X168300000Y-30700000D03*
X163700000Y-38800000D03*
X168300000Y-37700000D03*
%TD*%
D15*
%TO.C,D13*%
X91750000Y-122620000D03*
D16*
X91750000Y-120585000D03*
X91750000Y-117035000D03*
D17*
X91750000Y-115000000D03*
%TD*%
D15*
%TO.C,D12*%
X89250000Y-122620000D03*
D16*
X89250000Y-120585000D03*
X89250000Y-117035000D03*
D17*
X89250000Y-115000000D03*
%TD*%
D21*
%TO.C,B-1*%
X113000000Y-46000000D03*
%TD*%
D15*
%TO.C,D11*%
X113000000Y-112560000D03*
D16*
X113000000Y-110525000D03*
X113000000Y-106975000D03*
D17*
X113000000Y-104940000D03*
%TD*%
D15*
%TO.C,D16*%
X99250000Y-122620000D03*
D16*
X99250000Y-120585000D03*
X99250000Y-117035000D03*
D17*
X99250000Y-115000000D03*
%TD*%
D15*
%TO.C,D1*%
X88000000Y-112560000D03*
D16*
X88000000Y-110525000D03*
X88000000Y-106975000D03*
D17*
X88000000Y-104940000D03*
%TD*%
D15*
%TO.C,D6*%
X100500000Y-112560000D03*
D16*
X100500000Y-110525000D03*
X100500000Y-106975000D03*
D17*
X100500000Y-104940000D03*
%TD*%
D22*
%TO.C,SW22*%
X114500000Y-29250000D03*
X111500000Y-29250000D03*
%TD*%
D15*
%TO.C,D14*%
X94250000Y-122620000D03*
D16*
X94250000Y-120585000D03*
X94250000Y-117035000D03*
D17*
X94250000Y-115000000D03*
%TD*%
D15*
%TO.C,D7*%
X103000000Y-112560000D03*
D16*
X103000000Y-110525000D03*
X103000000Y-106975000D03*
D17*
X103000000Y-104940000D03*
%TD*%
D15*
%TO.C,D9*%
X108000000Y-112560000D03*
D16*
X108000000Y-110525000D03*
X108000000Y-106975000D03*
D17*
X108000000Y-104940000D03*
%TD*%
D15*
%TO.C,D5*%
X98000000Y-112560000D03*
D16*
X98000000Y-110525000D03*
X98000000Y-106975000D03*
D17*
X98000000Y-104940000D03*
%TD*%
D15*
%TO.C,D19*%
X106750000Y-122620000D03*
D16*
X106750000Y-120585000D03*
X106750000Y-117035000D03*
D17*
X106750000Y-115000000D03*
%TD*%
D23*
%TO.C,J3*%
X109640000Y-36875000D03*
D24*
X109640000Y-35625000D03*
%TD*%
D15*
%TO.C,D17*%
X101750000Y-122620000D03*
D16*
X101750000Y-120585000D03*
X101750000Y-117035000D03*
D17*
X101750000Y-115000000D03*
%TD*%
D25*
%TO.C,J3*%
X109640000Y-40625000D03*
D24*
X109640000Y-41875000D03*
%TD*%
D19*
%TO.C,J2*%
X166000000Y-36100000D03*
X166000000Y-29100000D03*
D20*
X163700000Y-33700000D03*
X163700000Y-30700000D03*
X168300000Y-38800000D03*
X163700000Y-37700000D03*
%TD*%
D26*
%TO.C,JP3*%
X156975000Y-42250000D03*
D27*
X155525000Y-42250000D03*
%TD*%
D28*
%TO.C,JP5*%
X155525000Y-45750000D03*
D29*
X156975000Y-45750000D03*
%TD*%
D18*
%TO.C,B+1*%
X110000000Y-46000000D03*
%TD*%
D30*
%TO.C,SW23*%
X153100000Y-34400000D03*
X159400000Y-34400000D03*
X153100000Y-30600000D03*
X159400000Y-30600000D03*
%TD*%
D31*
%TO.C,U1*%
X77780000Y-30380000D03*
D32*
X77780000Y-32158000D03*
D33*
X77780000Y-43842000D03*
D31*
X77780000Y-45620000D03*
D34*
X77780000Y-45620000D03*
D31*
X80320000Y-30380000D03*
D32*
X80320000Y-32158000D03*
D33*
X80320000Y-43842000D03*
D31*
X80320000Y-45620000D03*
X82860000Y-30380000D03*
D32*
X82860000Y-32158000D03*
D33*
X82860000Y-43842000D03*
D31*
X82860000Y-45620000D03*
X85400000Y-30380000D03*
D32*
X85400000Y-32158000D03*
D33*
X85400000Y-43842000D03*
D31*
X85400000Y-45620000D03*
X87940000Y-30380000D03*
D32*
X87940000Y-32158000D03*
D33*
X87940000Y-43842000D03*
D31*
X87940000Y-45620000D03*
X90480000Y-30380000D03*
D32*
X90480000Y-32158000D03*
D33*
X90480000Y-43842000D03*
D31*
X90480000Y-45620000D03*
X93020000Y-30380000D03*
D32*
X93020000Y-32158000D03*
D33*
X93020000Y-43842000D03*
D31*
X93020000Y-45620000D03*
X95560000Y-30380000D03*
D32*
X95560000Y-32158000D03*
D33*
X95560000Y-43842000D03*
D31*
X95560000Y-45620000D03*
X98100000Y-30380000D03*
D32*
X98100000Y-32158000D03*
D33*
X98100000Y-43842000D03*
D31*
X98100000Y-45620000D03*
X100640000Y-30380000D03*
D32*
X100640000Y-32158000D03*
D33*
X100640000Y-43842000D03*
D31*
X100640000Y-45620000D03*
X103180000Y-30380000D03*
D32*
X103180000Y-32158000D03*
D33*
X103180000Y-43842000D03*
D31*
X103180000Y-45620000D03*
X105720000Y-30380000D03*
D32*
X105720000Y-32158000D03*
D33*
X105720000Y-43842000D03*
D31*
X105720000Y-45620000D03*
D35*
X77780000Y-33174000D03*
X80320000Y-33174000D03*
X82860000Y-33174000D03*
X85400000Y-33174000D03*
X87940000Y-33174000D03*
X90480000Y-33174000D03*
X93020000Y-33174000D03*
X95560000Y-33174000D03*
X98100000Y-33174000D03*
X100640000Y-33174000D03*
X103180000Y-33174000D03*
X105720000Y-33174000D03*
D36*
X105720000Y-42826000D03*
X103180000Y-42826000D03*
X100640000Y-42826000D03*
X98100000Y-42826000D03*
X95560000Y-42826000D03*
X93020000Y-42826000D03*
X90480000Y-42826000D03*
X87940000Y-42826000D03*
X85400000Y-42826000D03*
X82860000Y-42826000D03*
X80320000Y-42826000D03*
X77780000Y-42826000D03*
%TD*%
D22*
%TO.C,SW22*%
X111500000Y-29250000D03*
X114500000Y-29250000D03*
D37*
X110750000Y-31200000D03*
X113750000Y-31200000D03*
X115250000Y-31200000D03*
D38*
X109325000Y-28150000D03*
X109325000Y-30350000D03*
X116675000Y-28150000D03*
X116675000Y-30350000D03*
%TD*%
D21*
%TO.C,B-1*%
X113000000Y-46000000D03*
%TD*%
D26*
%TO.C,JP1*%
X156975000Y-39750000D03*
D27*
X155525000Y-39750000D03*
%TD*%
M02*
