%TF.GenerationSoftware,KiCad,Pcbnew,9.0.4*%
%TF.CreationDate,2026-01-31T15:19:58+09:00*%
%TF.ProjectId,ansicSolder,616e7369-6353-46f6-9c64-65722e6b6963,rev?*%
%TF.SameCoordinates,Original*%
%TF.FileFunction,Legend,Top*%
%TF.FilePolarity,Positive*%
%FSLAX46Y46*%
G04 Gerber Fmt 4.6, Leading zero omitted, Abs format (unit mm)*
G04 Created by KiCad (PCBNEW 9.0.4) date 2026-01-31 15:19:58*
%MOMM*%
%LPD*%
G01*
G04 APERTURE LIST*
G04 Aperture macros list*
%AMRoundRect*
0 Rectangle with rounded corners*
0 $1 Rounding radius*
0 $2 $3 $4 $5 $6 $7 $8 $9 X,Y pos of 4 corners*
0 Add a 4 corners polygon primitive as box body*
4,1,4,$2,$3,$4,$5,$6,$7,$8,$9,$2,$3,0*
0 Add four circle primitives for the rounded corners*
1,1,$1+$1,$2,$3*
1,1,$1+$1,$4,$5*
1,1,$1+$1,$6,$7*
1,1,$1+$1,$8,$9*
0 Add four rect primitives between the rounded corners*
20,1,$1+$1,$2,$3,$4,$5,0*
20,1,$1+$1,$4,$5,$6,$7,0*
20,1,$1+$1,$6,$7,$8,$9,0*
20,1,$1+$1,$8,$9,$2,$3,0*%
%AMFreePoly0*
4,1,6,1.000000,0.000000,0.500000,-0.750000,-0.500000,-0.750000,-0.500000,0.750000,0.500000,0.750000,1.000000,0.000000,1.000000,0.000000,$1*%
%AMFreePoly1*
4,1,6,0.500000,-0.750000,-0.650000,-0.750000,-0.150000,0.000000,-0.650000,0.750000,0.500000,0.750000,0.500000,-0.750000,0.500000,-0.750000,$1*%
%AMFreePoly2*
4,1,6,0.600000,0.200000,0.000000,-0.400000,-0.600000,0.200000,-0.600000,0.400000,0.600000,0.400000,0.600000,0.200000,0.600000,0.200000,$1*%
%AMFreePoly3*
4,1,6,0.600000,-0.250000,-0.600000,-0.250000,-0.600000,1.000000,0.000000,0.400000,0.600000,1.000000,0.600000,-0.250000,0.600000,-0.250000,$1*%
G04 Aperture macros list end*
%ADD10C,0.100000*%
%ADD11C,0.200000*%
%ADD12C,0.300000*%
%ADD13C,0.150000*%
%ADD14C,0.000000*%
%ADD15C,0.120000*%
%ADD16C,1.700000*%
%ADD17C,4.000000*%
%ADD18C,3.000000*%
%ADD19R,1.397000X1.397000*%
%ADD20R,0.940000X1.400000*%
%ADD21C,1.397000*%
%ADD22FreePoly0,0.000000*%
%ADD23FreePoly1,0.000000*%
%ADD24R,1.700000X1.000000*%
%ADD25FreePoly0,180.000000*%
%ADD26FreePoly1,180.000000*%
%ADD27R,2.000000X2.000000*%
%ADD28C,0.800000*%
%ADD29O,1.600000X2.000000*%
%ADD30C,2.000000*%
%ADD31C,0.850000*%
%ADD32RoundRect,0.150000X0.150000X0.500000X-0.150000X0.500000X-0.150000X-0.500000X0.150000X-0.500000X0*%
%ADD33RoundRect,0.175000X0.350000X0.175000X-0.350000X0.175000X-0.350000X-0.175000X0.350000X-0.175000X0*%
%ADD34RoundRect,0.200000X0.450000X-0.200000X0.450000X0.200000X-0.450000X0.200000X-0.450000X-0.200000X0*%
%ADD35O,1.300000X0.800000*%
%ADD36RoundRect,0.200000X-0.450000X0.200000X-0.450000X-0.200000X0.450000X-0.200000X0.450000X0.200000X0*%
%ADD37C,1.600000*%
%ADD38R,1.600000X1.600000*%
%ADD39FreePoly2,0.000000*%
%ADD40FreePoly2,180.000000*%
%ADD41FreePoly3,180.000000*%
%ADD42FreePoly3,0.000000*%
G04 APERTURE END LIST*
D10*
X78250000Y-82750000D02*
X78000000Y-83000000D01*
X78250000Y-83250000D01*
X78000000Y-83500000D01*
X77750000Y-83250000D01*
X77500000Y-83500000D01*
X77250000Y-83250000D01*
X77500000Y-83000000D01*
X77250000Y-82750000D01*
X77500000Y-82500000D01*
X77750000Y-82750000D01*
X78000000Y-82500000D01*
X78250000Y-82750000D01*
G36*
X78250000Y-82750000D02*
G01*
X78000000Y-83000000D01*
X78250000Y-83250000D01*
X78000000Y-83500000D01*
X77750000Y-83250000D01*
X77500000Y-83500000D01*
X77250000Y-83250000D01*
X77500000Y-83000000D01*
X77250000Y-82750000D01*
X77500000Y-82500000D01*
X77750000Y-82750000D01*
X78000000Y-82500000D01*
X78250000Y-82750000D01*
G37*
X76750000Y-81250000D02*
X76500000Y-81500000D01*
X76750000Y-81750000D01*
X76500000Y-82000000D01*
X76250000Y-81750000D01*
X76000000Y-82000000D01*
X75750000Y-81750000D01*
X76000000Y-81500000D01*
X75750000Y-81250000D01*
X76000000Y-81000000D01*
X76250000Y-81250000D01*
X76500000Y-81000000D01*
X76750000Y-81250000D01*
G36*
X76750000Y-81250000D02*
G01*
X76500000Y-81500000D01*
X76750000Y-81750000D01*
X76500000Y-82000000D01*
X76250000Y-81750000D01*
X76000000Y-82000000D01*
X75750000Y-81750000D01*
X76000000Y-81500000D01*
X75750000Y-81250000D01*
X76000000Y-81000000D01*
X76250000Y-81250000D01*
X76500000Y-81000000D01*
X76750000Y-81250000D01*
G37*
X76750000Y-82750000D02*
X76500000Y-83000000D01*
X76750000Y-83250000D01*
X76500000Y-83500000D01*
X76250000Y-83250000D01*
X76000000Y-83500000D01*
X75750000Y-83250000D01*
X76000000Y-83000000D01*
X75750000Y-82750000D01*
X76000000Y-82500000D01*
X76250000Y-82750000D01*
X76500000Y-82500000D01*
X76750000Y-82750000D01*
G36*
X76750000Y-82750000D02*
G01*
X76500000Y-83000000D01*
X76750000Y-83250000D01*
X76500000Y-83500000D01*
X76250000Y-83250000D01*
X76000000Y-83500000D01*
X75750000Y-83250000D01*
X76000000Y-83000000D01*
X75750000Y-82750000D01*
X76000000Y-82500000D01*
X76250000Y-82750000D01*
X76500000Y-82500000D01*
X76750000Y-82750000D01*
G37*
X75250000Y-81250000D02*
X75000000Y-81500000D01*
X75250000Y-81750000D01*
X75000000Y-82000000D01*
X74750000Y-81750000D01*
X74500000Y-82000000D01*
X74250000Y-81750000D01*
X74500000Y-81500000D01*
X74250000Y-81250000D01*
X74500000Y-81000000D01*
X74750000Y-81250000D01*
X75000000Y-81000000D01*
X75250000Y-81250000D01*
G36*
X75250000Y-81250000D02*
G01*
X75000000Y-81500000D01*
X75250000Y-81750000D01*
X75000000Y-82000000D01*
X74750000Y-81750000D01*
X74500000Y-82000000D01*
X74250000Y-81750000D01*
X74500000Y-81500000D01*
X74250000Y-81250000D01*
X74500000Y-81000000D01*
X74750000Y-81250000D01*
X75000000Y-81000000D01*
X75250000Y-81250000D01*
G37*
X75250000Y-82750000D02*
X75000000Y-83000000D01*
X75250000Y-83250000D01*
X75000000Y-83500000D01*
X74750000Y-83250000D01*
X74500000Y-83500000D01*
X74250000Y-83250000D01*
X74500000Y-83000000D01*
X74250000Y-82750000D01*
X74500000Y-82500000D01*
X74750000Y-82750000D01*
X75000000Y-82500000D01*
X75250000Y-82750000D01*
G36*
X75250000Y-82750000D02*
G01*
X75000000Y-83000000D01*
X75250000Y-83250000D01*
X75000000Y-83500000D01*
X74750000Y-83250000D01*
X74500000Y-83500000D01*
X74250000Y-83250000D01*
X74500000Y-83000000D01*
X74250000Y-82750000D01*
X74500000Y-82500000D01*
X74750000Y-82750000D01*
X75000000Y-82500000D01*
X75250000Y-82750000D01*
G37*
X74250000Y-84000000D02*
X94500000Y-84000000D01*
X75250000Y-79750000D02*
X75000000Y-80000000D01*
X75250000Y-80250000D01*
X75000000Y-80500000D01*
X74750000Y-80250000D01*
X74500000Y-80500000D01*
X74250000Y-80250000D01*
X74500000Y-80000000D01*
X74250000Y-79750000D01*
X74500000Y-79500000D01*
X74750000Y-79750000D01*
X75000000Y-79500000D01*
X75250000Y-79750000D01*
G36*
X75250000Y-79750000D02*
G01*
X75000000Y-80000000D01*
X75250000Y-80250000D01*
X75000000Y-80500000D01*
X74750000Y-80250000D01*
X74500000Y-80500000D01*
X74250000Y-80250000D01*
X74500000Y-80000000D01*
X74250000Y-79750000D01*
X74500000Y-79500000D01*
X74750000Y-79750000D01*
X75000000Y-79500000D01*
X75250000Y-79750000D01*
G37*
X79750000Y-82750000D02*
X79500000Y-83000000D01*
X79750000Y-83250000D01*
X79500000Y-83500000D01*
X79250000Y-83250000D01*
X79000000Y-83500000D01*
X78750000Y-83250000D01*
X79000000Y-83000000D01*
X78750000Y-82750000D01*
X79000000Y-82500000D01*
X79250000Y-82750000D01*
X79500000Y-82500000D01*
X79750000Y-82750000D01*
G36*
X79750000Y-82750000D02*
G01*
X79500000Y-83000000D01*
X79750000Y-83250000D01*
X79500000Y-83500000D01*
X79250000Y-83250000D01*
X79000000Y-83500000D01*
X78750000Y-83250000D01*
X79000000Y-83000000D01*
X78750000Y-82750000D01*
X79000000Y-82500000D01*
X79250000Y-82750000D01*
X79500000Y-82500000D01*
X79750000Y-82750000D01*
G37*
D11*
X79309522Y-47928409D02*
X78976189Y-47928409D01*
X78976189Y-48452219D02*
X78976189Y-47452219D01*
X78976189Y-47452219D02*
X79452379Y-47452219D01*
X79785713Y-48166504D02*
X80261903Y-48166504D01*
X79690475Y-48452219D02*
X80023808Y-47452219D01*
X80023808Y-47452219D02*
X80357141Y-48452219D01*
X81261903Y-48356980D02*
X81214284Y-48404600D01*
X81214284Y-48404600D02*
X81071427Y-48452219D01*
X81071427Y-48452219D02*
X80976189Y-48452219D01*
X80976189Y-48452219D02*
X80833332Y-48404600D01*
X80833332Y-48404600D02*
X80738094Y-48309361D01*
X80738094Y-48309361D02*
X80690475Y-48214123D01*
X80690475Y-48214123D02*
X80642856Y-48023647D01*
X80642856Y-48023647D02*
X80642856Y-47880790D01*
X80642856Y-47880790D02*
X80690475Y-47690314D01*
X80690475Y-47690314D02*
X80738094Y-47595076D01*
X80738094Y-47595076D02*
X80833332Y-47499838D01*
X80833332Y-47499838D02*
X80976189Y-47452219D01*
X80976189Y-47452219D02*
X81071427Y-47452219D01*
X81071427Y-47452219D02*
X81214284Y-47499838D01*
X81214284Y-47499838D02*
X81261903Y-47547457D01*
X81690475Y-47928409D02*
X82023808Y-47928409D01*
X82166665Y-48452219D02*
X81690475Y-48452219D01*
X81690475Y-48452219D02*
X81690475Y-47452219D01*
X81690475Y-47452219D02*
X82166665Y-47452219D01*
X83357142Y-48452219D02*
X83357142Y-47452219D01*
X83357142Y-47452219D02*
X83595237Y-47452219D01*
X83595237Y-47452219D02*
X83738094Y-47499838D01*
X83738094Y-47499838D02*
X83833332Y-47595076D01*
X83833332Y-47595076D02*
X83880951Y-47690314D01*
X83880951Y-47690314D02*
X83928570Y-47880790D01*
X83928570Y-47880790D02*
X83928570Y-48023647D01*
X83928570Y-48023647D02*
X83880951Y-48214123D01*
X83880951Y-48214123D02*
X83833332Y-48309361D01*
X83833332Y-48309361D02*
X83738094Y-48404600D01*
X83738094Y-48404600D02*
X83595237Y-48452219D01*
X83595237Y-48452219D02*
X83357142Y-48452219D01*
X84547618Y-47452219D02*
X84738094Y-47452219D01*
X84738094Y-47452219D02*
X84833332Y-47499838D01*
X84833332Y-47499838D02*
X84928570Y-47595076D01*
X84928570Y-47595076D02*
X84976189Y-47785552D01*
X84976189Y-47785552D02*
X84976189Y-48118885D01*
X84976189Y-48118885D02*
X84928570Y-48309361D01*
X84928570Y-48309361D02*
X84833332Y-48404600D01*
X84833332Y-48404600D02*
X84738094Y-48452219D01*
X84738094Y-48452219D02*
X84547618Y-48452219D01*
X84547618Y-48452219D02*
X84452380Y-48404600D01*
X84452380Y-48404600D02*
X84357142Y-48309361D01*
X84357142Y-48309361D02*
X84309523Y-48118885D01*
X84309523Y-48118885D02*
X84309523Y-47785552D01*
X84309523Y-47785552D02*
X84357142Y-47595076D01*
X84357142Y-47595076D02*
X84452380Y-47499838D01*
X84452380Y-47499838D02*
X84547618Y-47452219D01*
X85309523Y-47452219D02*
X85547618Y-48452219D01*
X85547618Y-48452219D02*
X85738094Y-47737933D01*
X85738094Y-47737933D02*
X85928570Y-48452219D01*
X85928570Y-48452219D02*
X86166666Y-47452219D01*
X86547618Y-48452219D02*
X86547618Y-47452219D01*
X86547618Y-47452219D02*
X87119046Y-48452219D01*
X87119046Y-48452219D02*
X87119046Y-47452219D01*
X88357142Y-48452219D02*
X88357142Y-47785552D01*
X88357142Y-47880790D02*
X88404761Y-47833171D01*
X88404761Y-47833171D02*
X88499999Y-47785552D01*
X88499999Y-47785552D02*
X88642856Y-47785552D01*
X88642856Y-47785552D02*
X88738094Y-47833171D01*
X88738094Y-47833171D02*
X88785713Y-47928409D01*
X88785713Y-47928409D02*
X88785713Y-48452219D01*
X88785713Y-47928409D02*
X88833332Y-47833171D01*
X88833332Y-47833171D02*
X88928570Y-47785552D01*
X88928570Y-47785552D02*
X89071427Y-47785552D01*
X89071427Y-47785552D02*
X89166666Y-47833171D01*
X89166666Y-47833171D02*
X89214285Y-47928409D01*
X89214285Y-47928409D02*
X89214285Y-48452219D01*
X89833332Y-48452219D02*
X89738094Y-48404600D01*
X89738094Y-48404600D02*
X89690475Y-48356980D01*
X89690475Y-48356980D02*
X89642856Y-48261742D01*
X89642856Y-48261742D02*
X89642856Y-47976028D01*
X89642856Y-47976028D02*
X89690475Y-47880790D01*
X89690475Y-47880790D02*
X89738094Y-47833171D01*
X89738094Y-47833171D02*
X89833332Y-47785552D01*
X89833332Y-47785552D02*
X89976189Y-47785552D01*
X89976189Y-47785552D02*
X90071427Y-47833171D01*
X90071427Y-47833171D02*
X90119046Y-47880790D01*
X90119046Y-47880790D02*
X90166665Y-47976028D01*
X90166665Y-47976028D02*
X90166665Y-48261742D01*
X90166665Y-48261742D02*
X90119046Y-48356980D01*
X90119046Y-48356980D02*
X90071427Y-48404600D01*
X90071427Y-48404600D02*
X89976189Y-48452219D01*
X89976189Y-48452219D02*
X89833332Y-48452219D01*
X91023808Y-48452219D02*
X91023808Y-47452219D01*
X91023808Y-48404600D02*
X90928570Y-48452219D01*
X90928570Y-48452219D02*
X90738094Y-48452219D01*
X90738094Y-48452219D02*
X90642856Y-48404600D01*
X90642856Y-48404600D02*
X90595237Y-48356980D01*
X90595237Y-48356980D02*
X90547618Y-48261742D01*
X90547618Y-48261742D02*
X90547618Y-47976028D01*
X90547618Y-47976028D02*
X90595237Y-47880790D01*
X90595237Y-47880790D02*
X90642856Y-47833171D01*
X90642856Y-47833171D02*
X90738094Y-47785552D01*
X90738094Y-47785552D02*
X90928570Y-47785552D01*
X90928570Y-47785552D02*
X91023808Y-47833171D01*
X91928570Y-47785552D02*
X91928570Y-48452219D01*
X91499999Y-47785552D02*
X91499999Y-48309361D01*
X91499999Y-48309361D02*
X91547618Y-48404600D01*
X91547618Y-48404600D02*
X91642856Y-48452219D01*
X91642856Y-48452219D02*
X91785713Y-48452219D01*
X91785713Y-48452219D02*
X91880951Y-48404600D01*
X91880951Y-48404600D02*
X91928570Y-48356980D01*
X92547618Y-48452219D02*
X92452380Y-48404600D01*
X92452380Y-48404600D02*
X92404761Y-48309361D01*
X92404761Y-48309361D02*
X92404761Y-47452219D01*
X93309523Y-48404600D02*
X93214285Y-48452219D01*
X93214285Y-48452219D02*
X93023809Y-48452219D01*
X93023809Y-48452219D02*
X92928571Y-48404600D01*
X92928571Y-48404600D02*
X92880952Y-48309361D01*
X92880952Y-48309361D02*
X92880952Y-47928409D01*
X92880952Y-47928409D02*
X92928571Y-47833171D01*
X92928571Y-47833171D02*
X93023809Y-47785552D01*
X93023809Y-47785552D02*
X93214285Y-47785552D01*
X93214285Y-47785552D02*
X93309523Y-47833171D01*
X93309523Y-47833171D02*
X93357142Y-47928409D01*
X93357142Y-47928409D02*
X93357142Y-48023647D01*
X93357142Y-48023647D02*
X92880952Y-48118885D01*
X94976190Y-48404600D02*
X94880952Y-48452219D01*
X94880952Y-48452219D02*
X94690476Y-48452219D01*
X94690476Y-48452219D02*
X94595238Y-48404600D01*
X94595238Y-48404600D02*
X94547619Y-48356980D01*
X94547619Y-48356980D02*
X94500000Y-48261742D01*
X94500000Y-48261742D02*
X94500000Y-47976028D01*
X94500000Y-47976028D02*
X94547619Y-47880790D01*
X94547619Y-47880790D02*
X94595238Y-47833171D01*
X94595238Y-47833171D02*
X94690476Y-47785552D01*
X94690476Y-47785552D02*
X94880952Y-47785552D01*
X94880952Y-47785552D02*
X94976190Y-47833171D01*
X95547619Y-48452219D02*
X95452381Y-48404600D01*
X95452381Y-48404600D02*
X95404762Y-48356980D01*
X95404762Y-48356980D02*
X95357143Y-48261742D01*
X95357143Y-48261742D02*
X95357143Y-47976028D01*
X95357143Y-47976028D02*
X95404762Y-47880790D01*
X95404762Y-47880790D02*
X95452381Y-47833171D01*
X95452381Y-47833171D02*
X95547619Y-47785552D01*
X95547619Y-47785552D02*
X95690476Y-47785552D01*
X95690476Y-47785552D02*
X95785714Y-47833171D01*
X95785714Y-47833171D02*
X95833333Y-47880790D01*
X95833333Y-47880790D02*
X95880952Y-47976028D01*
X95880952Y-47976028D02*
X95880952Y-48261742D01*
X95880952Y-48261742D02*
X95833333Y-48356980D01*
X95833333Y-48356980D02*
X95785714Y-48404600D01*
X95785714Y-48404600D02*
X95690476Y-48452219D01*
X95690476Y-48452219D02*
X95547619Y-48452219D01*
X96309524Y-48452219D02*
X96309524Y-47785552D01*
X96309524Y-47880790D02*
X96357143Y-47833171D01*
X96357143Y-47833171D02*
X96452381Y-47785552D01*
X96452381Y-47785552D02*
X96595238Y-47785552D01*
X96595238Y-47785552D02*
X96690476Y-47833171D01*
X96690476Y-47833171D02*
X96738095Y-47928409D01*
X96738095Y-47928409D02*
X96738095Y-48452219D01*
X96738095Y-47928409D02*
X96785714Y-47833171D01*
X96785714Y-47833171D02*
X96880952Y-47785552D01*
X96880952Y-47785552D02*
X97023809Y-47785552D01*
X97023809Y-47785552D02*
X97119048Y-47833171D01*
X97119048Y-47833171D02*
X97166667Y-47928409D01*
X97166667Y-47928409D02*
X97166667Y-48452219D01*
X97642857Y-47785552D02*
X97642857Y-48785552D01*
X97642857Y-47833171D02*
X97738095Y-47785552D01*
X97738095Y-47785552D02*
X97928571Y-47785552D01*
X97928571Y-47785552D02*
X98023809Y-47833171D01*
X98023809Y-47833171D02*
X98071428Y-47880790D01*
X98071428Y-47880790D02*
X98119047Y-47976028D01*
X98119047Y-47976028D02*
X98119047Y-48261742D01*
X98119047Y-48261742D02*
X98071428Y-48356980D01*
X98071428Y-48356980D02*
X98023809Y-48404600D01*
X98023809Y-48404600D02*
X97928571Y-48452219D01*
X97928571Y-48452219D02*
X97738095Y-48452219D01*
X97738095Y-48452219D02*
X97642857Y-48404600D01*
X98690476Y-48452219D02*
X98595238Y-48404600D01*
X98595238Y-48404600D02*
X98547619Y-48356980D01*
X98547619Y-48356980D02*
X98500000Y-48261742D01*
X98500000Y-48261742D02*
X98500000Y-47976028D01*
X98500000Y-47976028D02*
X98547619Y-47880790D01*
X98547619Y-47880790D02*
X98595238Y-47833171D01*
X98595238Y-47833171D02*
X98690476Y-47785552D01*
X98690476Y-47785552D02*
X98833333Y-47785552D01*
X98833333Y-47785552D02*
X98928571Y-47833171D01*
X98928571Y-47833171D02*
X98976190Y-47880790D01*
X98976190Y-47880790D02*
X99023809Y-47976028D01*
X99023809Y-47976028D02*
X99023809Y-48261742D01*
X99023809Y-48261742D02*
X98976190Y-48356980D01*
X98976190Y-48356980D02*
X98928571Y-48404600D01*
X98928571Y-48404600D02*
X98833333Y-48452219D01*
X98833333Y-48452219D02*
X98690476Y-48452219D01*
X99452381Y-47785552D02*
X99452381Y-48452219D01*
X99452381Y-47880790D02*
X99500000Y-47833171D01*
X99500000Y-47833171D02*
X99595238Y-47785552D01*
X99595238Y-47785552D02*
X99738095Y-47785552D01*
X99738095Y-47785552D02*
X99833333Y-47833171D01*
X99833333Y-47833171D02*
X99880952Y-47928409D01*
X99880952Y-47928409D02*
X99880952Y-48452219D01*
X100738095Y-48404600D02*
X100642857Y-48452219D01*
X100642857Y-48452219D02*
X100452381Y-48452219D01*
X100452381Y-48452219D02*
X100357143Y-48404600D01*
X100357143Y-48404600D02*
X100309524Y-48309361D01*
X100309524Y-48309361D02*
X100309524Y-47928409D01*
X100309524Y-47928409D02*
X100357143Y-47833171D01*
X100357143Y-47833171D02*
X100452381Y-47785552D01*
X100452381Y-47785552D02*
X100642857Y-47785552D01*
X100642857Y-47785552D02*
X100738095Y-47833171D01*
X100738095Y-47833171D02*
X100785714Y-47928409D01*
X100785714Y-47928409D02*
X100785714Y-48023647D01*
X100785714Y-48023647D02*
X100309524Y-48118885D01*
X101214286Y-47785552D02*
X101214286Y-48452219D01*
X101214286Y-47880790D02*
X101261905Y-47833171D01*
X101261905Y-47833171D02*
X101357143Y-47785552D01*
X101357143Y-47785552D02*
X101500000Y-47785552D01*
X101500000Y-47785552D02*
X101595238Y-47833171D01*
X101595238Y-47833171D02*
X101642857Y-47928409D01*
X101642857Y-47928409D02*
X101642857Y-48452219D01*
X101976191Y-47785552D02*
X102357143Y-47785552D01*
X102119048Y-47452219D02*
X102119048Y-48309361D01*
X102119048Y-48309361D02*
X102166667Y-48404600D01*
X102166667Y-48404600D02*
X102261905Y-48452219D01*
X102261905Y-48452219D02*
X102357143Y-48452219D01*
X103404763Y-48404600D02*
X103500001Y-48452219D01*
X103500001Y-48452219D02*
X103690477Y-48452219D01*
X103690477Y-48452219D02*
X103785715Y-48404600D01*
X103785715Y-48404600D02*
X103833334Y-48309361D01*
X103833334Y-48309361D02*
X103833334Y-48261742D01*
X103833334Y-48261742D02*
X103785715Y-48166504D01*
X103785715Y-48166504D02*
X103690477Y-48118885D01*
X103690477Y-48118885D02*
X103547620Y-48118885D01*
X103547620Y-48118885D02*
X103452382Y-48071266D01*
X103452382Y-48071266D02*
X103404763Y-47976028D01*
X103404763Y-47976028D02*
X103404763Y-47928409D01*
X103404763Y-47928409D02*
X103452382Y-47833171D01*
X103452382Y-47833171D02*
X103547620Y-47785552D01*
X103547620Y-47785552D02*
X103690477Y-47785552D01*
X103690477Y-47785552D02*
X103785715Y-47833171D01*
X104261906Y-48452219D02*
X104261906Y-47785552D01*
X104261906Y-47452219D02*
X104214287Y-47499838D01*
X104214287Y-47499838D02*
X104261906Y-47547457D01*
X104261906Y-47547457D02*
X104309525Y-47499838D01*
X104309525Y-47499838D02*
X104261906Y-47452219D01*
X104261906Y-47452219D02*
X104261906Y-47547457D01*
X105166667Y-48452219D02*
X105166667Y-47452219D01*
X105166667Y-48404600D02*
X105071429Y-48452219D01*
X105071429Y-48452219D02*
X104880953Y-48452219D01*
X104880953Y-48452219D02*
X104785715Y-48404600D01*
X104785715Y-48404600D02*
X104738096Y-48356980D01*
X104738096Y-48356980D02*
X104690477Y-48261742D01*
X104690477Y-48261742D02*
X104690477Y-47976028D01*
X104690477Y-47976028D02*
X104738096Y-47880790D01*
X104738096Y-47880790D02*
X104785715Y-47833171D01*
X104785715Y-47833171D02*
X104880953Y-47785552D01*
X104880953Y-47785552D02*
X105071429Y-47785552D01*
X105071429Y-47785552D02*
X105166667Y-47833171D01*
X106023810Y-48404600D02*
X105928572Y-48452219D01*
X105928572Y-48452219D02*
X105738096Y-48452219D01*
X105738096Y-48452219D02*
X105642858Y-48404600D01*
X105642858Y-48404600D02*
X105595239Y-48309361D01*
X105595239Y-48309361D02*
X105595239Y-47928409D01*
X105595239Y-47928409D02*
X105642858Y-47833171D01*
X105642858Y-47833171D02*
X105738096Y-47785552D01*
X105738096Y-47785552D02*
X105928572Y-47785552D01*
X105928572Y-47785552D02*
X106023810Y-47833171D01*
X106023810Y-47833171D02*
X106071429Y-47928409D01*
X106071429Y-47928409D02*
X106071429Y-48023647D01*
X106071429Y-48023647D02*
X105595239Y-48118885D01*
D12*
X108071428Y-36893100D02*
X106928571Y-36893100D01*
X107499999Y-36321671D02*
X107499999Y-37464528D01*
X109428571Y-48356900D02*
X110571429Y-48356900D01*
X110000000Y-48928328D02*
X110000000Y-47785471D01*
D11*
X97559523Y-36647247D02*
X97559523Y-37361532D01*
X97559523Y-37361532D02*
X97511904Y-37504389D01*
X97511904Y-37504389D02*
X97416666Y-37599628D01*
X97416666Y-37599628D02*
X97273809Y-37647247D01*
X97273809Y-37647247D02*
X97178571Y-37647247D01*
X98035714Y-36647247D02*
X98035714Y-37456770D01*
X98035714Y-37456770D02*
X98083333Y-37552008D01*
X98083333Y-37552008D02*
X98130952Y-37599628D01*
X98130952Y-37599628D02*
X98226190Y-37647247D01*
X98226190Y-37647247D02*
X98416666Y-37647247D01*
X98416666Y-37647247D02*
X98511904Y-37599628D01*
X98511904Y-37599628D02*
X98559523Y-37552008D01*
X98559523Y-37552008D02*
X98607142Y-37456770D01*
X98607142Y-37456770D02*
X98607142Y-36647247D01*
X99083333Y-37647247D02*
X99083333Y-36647247D01*
X99083333Y-36647247D02*
X99416666Y-37361532D01*
X99416666Y-37361532D02*
X99749999Y-36647247D01*
X99749999Y-36647247D02*
X99749999Y-37647247D01*
X100226190Y-37647247D02*
X100226190Y-36647247D01*
X100226190Y-36647247D02*
X100607142Y-36647247D01*
X100607142Y-36647247D02*
X100702380Y-36694866D01*
X100702380Y-36694866D02*
X100749999Y-36742485D01*
X100749999Y-36742485D02*
X100797618Y-36837723D01*
X100797618Y-36837723D02*
X100797618Y-36980580D01*
X100797618Y-36980580D02*
X100749999Y-37075818D01*
X100749999Y-37075818D02*
X100702380Y-37123437D01*
X100702380Y-37123437D02*
X100607142Y-37171056D01*
X100607142Y-37171056D02*
X100226190Y-37171056D01*
X101892857Y-36980580D02*
X102083333Y-37647247D01*
X102083333Y-37647247D02*
X102273809Y-37171056D01*
X102273809Y-37171056D02*
X102464285Y-37647247D01*
X102464285Y-37647247D02*
X102654761Y-36980580D01*
X103035714Y-37647247D02*
X103035714Y-36647247D01*
X103464285Y-37647247D02*
X103464285Y-37123437D01*
X103464285Y-37123437D02*
X103416666Y-37028199D01*
X103416666Y-37028199D02*
X103321428Y-36980580D01*
X103321428Y-36980580D02*
X103178571Y-36980580D01*
X103178571Y-36980580D02*
X103083333Y-37028199D01*
X103083333Y-37028199D02*
X103035714Y-37075818D01*
X104321428Y-37599628D02*
X104226190Y-37647247D01*
X104226190Y-37647247D02*
X104035714Y-37647247D01*
X104035714Y-37647247D02*
X103940476Y-37599628D01*
X103940476Y-37599628D02*
X103892857Y-37504389D01*
X103892857Y-37504389D02*
X103892857Y-37123437D01*
X103892857Y-37123437D02*
X103940476Y-37028199D01*
X103940476Y-37028199D02*
X104035714Y-36980580D01*
X104035714Y-36980580D02*
X104226190Y-36980580D01*
X104226190Y-36980580D02*
X104321428Y-37028199D01*
X104321428Y-37028199D02*
X104369047Y-37123437D01*
X104369047Y-37123437D02*
X104369047Y-37218675D01*
X104369047Y-37218675D02*
X103892857Y-37313913D01*
X104797619Y-36980580D02*
X104797619Y-37647247D01*
X104797619Y-37075818D02*
X104845238Y-37028199D01*
X104845238Y-37028199D02*
X104940476Y-36980580D01*
X104940476Y-36980580D02*
X105083333Y-36980580D01*
X105083333Y-36980580D02*
X105178571Y-37028199D01*
X105178571Y-37028199D02*
X105226190Y-37123437D01*
X105226190Y-37123437D02*
X105226190Y-37647247D01*
X97845238Y-38733381D02*
X97988095Y-38781000D01*
X97988095Y-38781000D02*
X98035714Y-38828619D01*
X98035714Y-38828619D02*
X98083333Y-38923857D01*
X98083333Y-38923857D02*
X98083333Y-39066714D01*
X98083333Y-39066714D02*
X98035714Y-39161952D01*
X98035714Y-39161952D02*
X97988095Y-39209572D01*
X97988095Y-39209572D02*
X97892857Y-39257191D01*
X97892857Y-39257191D02*
X97511905Y-39257191D01*
X97511905Y-39257191D02*
X97511905Y-38257191D01*
X97511905Y-38257191D02*
X97845238Y-38257191D01*
X97845238Y-38257191D02*
X97940476Y-38304810D01*
X97940476Y-38304810D02*
X97988095Y-38352429D01*
X97988095Y-38352429D02*
X98035714Y-38447667D01*
X98035714Y-38447667D02*
X98035714Y-38542905D01*
X98035714Y-38542905D02*
X97988095Y-38638143D01*
X97988095Y-38638143D02*
X97940476Y-38685762D01*
X97940476Y-38685762D02*
X97845238Y-38733381D01*
X97845238Y-38733381D02*
X97511905Y-38733381D01*
X98464286Y-38971476D02*
X98940476Y-38971476D01*
X98369048Y-39257191D02*
X98702381Y-38257191D01*
X98702381Y-38257191D02*
X99035714Y-39257191D01*
X99940476Y-39161952D02*
X99892857Y-39209572D01*
X99892857Y-39209572D02*
X99750000Y-39257191D01*
X99750000Y-39257191D02*
X99654762Y-39257191D01*
X99654762Y-39257191D02*
X99511905Y-39209572D01*
X99511905Y-39209572D02*
X99416667Y-39114333D01*
X99416667Y-39114333D02*
X99369048Y-39019095D01*
X99369048Y-39019095D02*
X99321429Y-38828619D01*
X99321429Y-38828619D02*
X99321429Y-38685762D01*
X99321429Y-38685762D02*
X99369048Y-38495286D01*
X99369048Y-38495286D02*
X99416667Y-38400048D01*
X99416667Y-38400048D02*
X99511905Y-38304810D01*
X99511905Y-38304810D02*
X99654762Y-38257191D01*
X99654762Y-38257191D02*
X99750000Y-38257191D01*
X99750000Y-38257191D02*
X99892857Y-38304810D01*
X99892857Y-38304810D02*
X99940476Y-38352429D01*
X100369048Y-39257191D02*
X100369048Y-38257191D01*
X100940476Y-39257191D02*
X100511905Y-38685762D01*
X100940476Y-38257191D02*
X100369048Y-38828619D01*
X102083334Y-39209572D02*
X102226191Y-39257191D01*
X102226191Y-39257191D02*
X102464286Y-39257191D01*
X102464286Y-39257191D02*
X102559524Y-39209572D01*
X102559524Y-39209572D02*
X102607143Y-39161952D01*
X102607143Y-39161952D02*
X102654762Y-39066714D01*
X102654762Y-39066714D02*
X102654762Y-38971476D01*
X102654762Y-38971476D02*
X102607143Y-38876238D01*
X102607143Y-38876238D02*
X102559524Y-38828619D01*
X102559524Y-38828619D02*
X102464286Y-38781000D01*
X102464286Y-38781000D02*
X102273810Y-38733381D01*
X102273810Y-38733381D02*
X102178572Y-38685762D01*
X102178572Y-38685762D02*
X102130953Y-38638143D01*
X102130953Y-38638143D02*
X102083334Y-38542905D01*
X102083334Y-38542905D02*
X102083334Y-38447667D01*
X102083334Y-38447667D02*
X102130953Y-38352429D01*
X102130953Y-38352429D02*
X102178572Y-38304810D01*
X102178572Y-38304810D02*
X102273810Y-38257191D01*
X102273810Y-38257191D02*
X102511905Y-38257191D01*
X102511905Y-38257191D02*
X102654762Y-38304810D01*
X103083334Y-39257191D02*
X103083334Y-38257191D01*
X103559524Y-39257191D02*
X103559524Y-38257191D01*
X103559524Y-38257191D02*
X103797619Y-38257191D01*
X103797619Y-38257191D02*
X103940476Y-38304810D01*
X103940476Y-38304810D02*
X104035714Y-38400048D01*
X104035714Y-38400048D02*
X104083333Y-38495286D01*
X104083333Y-38495286D02*
X104130952Y-38685762D01*
X104130952Y-38685762D02*
X104130952Y-38828619D01*
X104130952Y-38828619D02*
X104083333Y-39019095D01*
X104083333Y-39019095D02*
X104035714Y-39114333D01*
X104035714Y-39114333D02*
X103940476Y-39209572D01*
X103940476Y-39209572D02*
X103797619Y-39257191D01*
X103797619Y-39257191D02*
X103559524Y-39257191D01*
X104559524Y-38733381D02*
X104892857Y-38733381D01*
X105035714Y-39257191D02*
X104559524Y-39257191D01*
X104559524Y-39257191D02*
X104559524Y-38257191D01*
X104559524Y-38257191D02*
X105035714Y-38257191D01*
D12*
X108071428Y-35643100D02*
X106928571Y-35643100D01*
D10*
G36*
X80492589Y-38566908D02*
G01*
X78439412Y-38566908D01*
X79464302Y-36307335D01*
X80492589Y-38566908D01*
G37*
G36*
X95231709Y-40382531D02*
G01*
X77078026Y-40382531D01*
X77078026Y-39910000D01*
X77522470Y-39910000D01*
X77830216Y-39910000D01*
X78330291Y-38807487D01*
X80602071Y-38807487D01*
X81103803Y-39910000D01*
X81411549Y-39910000D01*
X82124006Y-39910000D01*
X82409526Y-39910000D01*
X82409526Y-36509259D01*
X85078856Y-39910000D01*
X85313817Y-39910000D01*
X85313817Y-39406371D01*
X86283461Y-39406371D01*
X86436710Y-39547272D01*
X86634460Y-39675430D01*
X86884787Y-39789832D01*
X87147705Y-39871772D01*
X87422152Y-39921324D01*
X87710328Y-39938087D01*
X88033318Y-39920163D01*
X88087400Y-39910000D01*
X90088276Y-39910000D01*
X90373796Y-39910000D01*
X90373796Y-37951416D01*
X91362491Y-37951416D01*
X91379843Y-38235545D01*
X91430540Y-38498492D01*
X91513433Y-38743251D01*
X91628481Y-38974648D01*
X91769986Y-39183874D01*
X91938904Y-39372909D01*
X92131488Y-39537693D01*
X92346159Y-39676463D01*
X92585171Y-39789832D01*
X92837147Y-39871362D01*
X93105807Y-39921109D01*
X93393859Y-39938087D01*
X93667424Y-39922474D01*
X93925000Y-39876561D01*
X94168842Y-39801067D01*
X94399329Y-39693585D01*
X94604611Y-39556779D01*
X94787265Y-39389518D01*
X94608235Y-39204870D01*
X94431341Y-39359242D01*
X94246193Y-39478656D01*
X94051361Y-39565861D01*
X93739466Y-39647391D01*
X93405094Y-39675038D01*
X93157701Y-39660332D01*
X92926184Y-39617176D01*
X92708269Y-39546322D01*
X92501729Y-39447921D01*
X92315846Y-39326904D01*
X92148709Y-39182644D01*
X92002226Y-39017378D01*
X91879405Y-38835070D01*
X91779414Y-38634075D01*
X91707123Y-38421635D01*
X91663052Y-38194900D01*
X91648011Y-37951416D01*
X91663052Y-37707932D01*
X91707123Y-37481198D01*
X91779414Y-37268757D01*
X91879426Y-37067616D01*
X92002251Y-36885314D01*
X92148709Y-36720188D01*
X92315846Y-36575928D01*
X92501729Y-36454911D01*
X92708269Y-36356510D01*
X92926184Y-36285656D01*
X93157701Y-36242500D01*
X93405094Y-36227794D01*
X93739466Y-36255441D01*
X94051361Y-36336971D01*
X94246511Y-36423631D01*
X94431670Y-36541270D01*
X94608235Y-36692344D01*
X94787265Y-36507697D01*
X94604515Y-36340685D01*
X94399248Y-36204879D01*
X94168842Y-36099078D01*
X93925112Y-36025092D01*
X93667519Y-35980063D01*
X93393859Y-35964745D01*
X93105824Y-35981762D01*
X92838176Y-36031544D01*
X92588102Y-36113000D01*
X92350727Y-36226001D01*
X92135903Y-36364733D01*
X91941591Y-36529923D01*
X91771050Y-36719126D01*
X91628683Y-36928354D01*
X91513433Y-37159581D01*
X91430540Y-37404340D01*
X91379843Y-37667287D01*
X91362491Y-37951416D01*
X90373796Y-37951416D01*
X90373796Y-35992833D01*
X90088276Y-35992833D01*
X90088276Y-39910000D01*
X88087400Y-39910000D01*
X88295734Y-39870850D01*
X88507781Y-39795450D01*
X88703281Y-39685482D01*
X88855046Y-39558738D01*
X88969400Y-39414919D01*
X89053889Y-39251046D01*
X89103841Y-39081276D01*
X89120586Y-38902742D01*
X89104190Y-38705288D01*
X89058418Y-38543442D01*
X88986253Y-38410348D01*
X88832038Y-38240648D01*
X88633566Y-38108220D01*
X88408082Y-38007617D01*
X88158025Y-37926259D01*
X87637544Y-37794612D01*
X87381455Y-37724778D01*
X87156141Y-37643670D01*
X86956090Y-37536247D01*
X86806385Y-37403091D01*
X86735415Y-37295353D01*
X86690902Y-37163196D01*
X86674983Y-37000090D01*
X86704580Y-36791541D01*
X86792463Y-36605638D01*
X86881312Y-36499619D01*
X87000725Y-36405398D01*
X87156385Y-36323049D01*
X87323960Y-36266604D01*
X87528634Y-36229853D01*
X87777495Y-36216559D01*
X88041678Y-36236337D01*
X88323133Y-36297892D01*
X88596200Y-36400458D01*
X88851919Y-36546775D01*
X88958165Y-36317187D01*
X88717352Y-36174700D01*
X88418144Y-36060000D01*
X88099311Y-35988463D01*
X87777495Y-35964745D01*
X87458528Y-35982988D01*
X87198817Y-36033255D01*
X86988346Y-36110314D01*
X86794778Y-36221654D01*
X86645871Y-36348400D01*
X86535031Y-36490844D01*
X86454255Y-36652582D01*
X86406014Y-36823230D01*
X86389707Y-37005708D01*
X86405822Y-37207205D01*
X86450690Y-37371846D01*
X86521110Y-37506650D01*
X86673337Y-37678426D01*
X86870865Y-37811465D01*
X87097282Y-37911709D01*
X87352268Y-37993426D01*
X87872505Y-38124829D01*
X88123652Y-38194509D01*
X88348290Y-38276015D01*
X88548972Y-38383184D01*
X88700733Y-38516594D01*
X88773394Y-38624550D01*
X88818838Y-38756706D01*
X88835066Y-38919595D01*
X88821573Y-39057507D01*
X88781680Y-39185355D01*
X88714655Y-39305743D01*
X88624402Y-39409704D01*
X88503262Y-39502098D01*
X88345359Y-39582714D01*
X88176143Y-39637255D01*
X87965350Y-39673169D01*
X87704710Y-39686273D01*
X87446379Y-39670194D01*
X87199923Y-39622589D01*
X86963189Y-39543635D01*
X86736995Y-39436011D01*
X86555368Y-39319083D01*
X86411933Y-39193635D01*
X86283461Y-39406371D01*
X85313817Y-39406371D01*
X85313817Y-35992833D01*
X85028542Y-35992833D01*
X85028542Y-39393256D01*
X82364585Y-35992833D01*
X82124006Y-35992833D01*
X82124006Y-39910000D01*
X81411549Y-39910000D01*
X79609770Y-35992833D01*
X79324250Y-35992833D01*
X78140252Y-38566908D01*
X77522470Y-39910000D01*
X77078026Y-39910000D01*
X77078026Y-35520301D01*
X95231709Y-35520301D01*
X95231709Y-40382531D01*
G37*
D11*
X158714286Y-45342275D02*
X158714286Y-44342275D01*
X158714286Y-44342275D02*
X158952381Y-44342275D01*
X158952381Y-44342275D02*
X159095238Y-44389894D01*
X159095238Y-44389894D02*
X159190476Y-44485132D01*
X159190476Y-44485132D02*
X159238095Y-44580370D01*
X159238095Y-44580370D02*
X159285714Y-44770846D01*
X159285714Y-44770846D02*
X159285714Y-44913703D01*
X159285714Y-44913703D02*
X159238095Y-45104179D01*
X159238095Y-45104179D02*
X159190476Y-45199417D01*
X159190476Y-45199417D02*
X159095238Y-45294656D01*
X159095238Y-45294656D02*
X158952381Y-45342275D01*
X158952381Y-45342275D02*
X158714286Y-45342275D01*
X159904762Y-44342275D02*
X160095238Y-44342275D01*
X160095238Y-44342275D02*
X160190476Y-44389894D01*
X160190476Y-44389894D02*
X160285714Y-44485132D01*
X160285714Y-44485132D02*
X160333333Y-44675608D01*
X160333333Y-44675608D02*
X160333333Y-45008941D01*
X160333333Y-45008941D02*
X160285714Y-45199417D01*
X160285714Y-45199417D02*
X160190476Y-45294656D01*
X160190476Y-45294656D02*
X160095238Y-45342275D01*
X160095238Y-45342275D02*
X159904762Y-45342275D01*
X159904762Y-45342275D02*
X159809524Y-45294656D01*
X159809524Y-45294656D02*
X159714286Y-45199417D01*
X159714286Y-45199417D02*
X159666667Y-45008941D01*
X159666667Y-45008941D02*
X159666667Y-44675608D01*
X159666667Y-44675608D02*
X159714286Y-44485132D01*
X159714286Y-44485132D02*
X159809524Y-44389894D01*
X159809524Y-44389894D02*
X159904762Y-44342275D01*
X160761905Y-45342275D02*
X160761905Y-44342275D01*
X160761905Y-44342275D02*
X161333333Y-45342275D01*
X161333333Y-45342275D02*
X161333333Y-44342275D01*
X161857143Y-44342275D02*
X161761905Y-44532751D01*
X162142857Y-44342275D02*
X162714285Y-44342275D01*
X162428571Y-45342275D02*
X162428571Y-44342275D01*
X164095238Y-44342275D02*
X164095238Y-45056560D01*
X164095238Y-45056560D02*
X164047619Y-45199417D01*
X164047619Y-45199417D02*
X163952381Y-45294656D01*
X163952381Y-45294656D02*
X163809524Y-45342275D01*
X163809524Y-45342275D02*
X163714286Y-45342275D01*
X164571429Y-44342275D02*
X164571429Y-45151798D01*
X164571429Y-45151798D02*
X164619048Y-45247036D01*
X164619048Y-45247036D02*
X164666667Y-45294656D01*
X164666667Y-45294656D02*
X164761905Y-45342275D01*
X164761905Y-45342275D02*
X164952381Y-45342275D01*
X164952381Y-45342275D02*
X165047619Y-45294656D01*
X165047619Y-45294656D02*
X165095238Y-45247036D01*
X165095238Y-45247036D02*
X165142857Y-45151798D01*
X165142857Y-45151798D02*
X165142857Y-44342275D01*
X165619048Y-45342275D02*
X165619048Y-44342275D01*
X165619048Y-44342275D02*
X165952381Y-45056560D01*
X165952381Y-45056560D02*
X166285714Y-44342275D01*
X166285714Y-44342275D02*
X166285714Y-45342275D01*
X166761905Y-45342275D02*
X166761905Y-44342275D01*
X166761905Y-44342275D02*
X167142857Y-44342275D01*
X167142857Y-44342275D02*
X167238095Y-44389894D01*
X167238095Y-44389894D02*
X167285714Y-44437513D01*
X167285714Y-44437513D02*
X167333333Y-44532751D01*
X167333333Y-44532751D02*
X167333333Y-44675608D01*
X167333333Y-44675608D02*
X167285714Y-44770846D01*
X167285714Y-44770846D02*
X167238095Y-44818465D01*
X167238095Y-44818465D02*
X167142857Y-44866084D01*
X167142857Y-44866084D02*
X166761905Y-44866084D01*
X159928571Y-45952219D02*
X159928571Y-46666504D01*
X159928571Y-46666504D02*
X159880952Y-46809361D01*
X159880952Y-46809361D02*
X159785714Y-46904600D01*
X159785714Y-46904600D02*
X159642857Y-46952219D01*
X159642857Y-46952219D02*
X159547619Y-46952219D01*
X160404762Y-46952219D02*
X160404762Y-45952219D01*
X160404762Y-45952219D02*
X160785714Y-45952219D01*
X160785714Y-45952219D02*
X160880952Y-45999838D01*
X160880952Y-45999838D02*
X160928571Y-46047457D01*
X160928571Y-46047457D02*
X160976190Y-46142695D01*
X160976190Y-46142695D02*
X160976190Y-46285552D01*
X160976190Y-46285552D02*
X160928571Y-46380790D01*
X160928571Y-46380790D02*
X160880952Y-46428409D01*
X160880952Y-46428409D02*
X160785714Y-46476028D01*
X160785714Y-46476028D02*
X160404762Y-46476028D01*
X161833333Y-45952219D02*
X161642857Y-45952219D01*
X161642857Y-45952219D02*
X161547619Y-45999838D01*
X161547619Y-45999838D02*
X161500000Y-46047457D01*
X161500000Y-46047457D02*
X161404762Y-46190314D01*
X161404762Y-46190314D02*
X161357143Y-46380790D01*
X161357143Y-46380790D02*
X161357143Y-46761742D01*
X161357143Y-46761742D02*
X161404762Y-46856980D01*
X161404762Y-46856980D02*
X161452381Y-46904600D01*
X161452381Y-46904600D02*
X161547619Y-46952219D01*
X161547619Y-46952219D02*
X161738095Y-46952219D01*
X161738095Y-46952219D02*
X161833333Y-46904600D01*
X161833333Y-46904600D02*
X161880952Y-46856980D01*
X161880952Y-46856980D02*
X161928571Y-46761742D01*
X161928571Y-46761742D02*
X161928571Y-46523647D01*
X161928571Y-46523647D02*
X161880952Y-46428409D01*
X161880952Y-46428409D02*
X161833333Y-46380790D01*
X161833333Y-46380790D02*
X161738095Y-46333171D01*
X161738095Y-46333171D02*
X161547619Y-46333171D01*
X161547619Y-46333171D02*
X161452381Y-46380790D01*
X161452381Y-46380790D02*
X161404762Y-46428409D01*
X161404762Y-46428409D02*
X161357143Y-46523647D01*
X163023810Y-46285552D02*
X163214286Y-46952219D01*
X163214286Y-46952219D02*
X163404762Y-46476028D01*
X163404762Y-46476028D02*
X163595238Y-46952219D01*
X163595238Y-46952219D02*
X163785714Y-46285552D01*
X164166667Y-46952219D02*
X164166667Y-45952219D01*
X164595238Y-46952219D02*
X164595238Y-46428409D01*
X164595238Y-46428409D02*
X164547619Y-46333171D01*
X164547619Y-46333171D02*
X164452381Y-46285552D01*
X164452381Y-46285552D02*
X164309524Y-46285552D01*
X164309524Y-46285552D02*
X164214286Y-46333171D01*
X164214286Y-46333171D02*
X164166667Y-46380790D01*
X165452381Y-46904600D02*
X165357143Y-46952219D01*
X165357143Y-46952219D02*
X165166667Y-46952219D01*
X165166667Y-46952219D02*
X165071429Y-46904600D01*
X165071429Y-46904600D02*
X165023810Y-46809361D01*
X165023810Y-46809361D02*
X165023810Y-46428409D01*
X165023810Y-46428409D02*
X165071429Y-46333171D01*
X165071429Y-46333171D02*
X165166667Y-46285552D01*
X165166667Y-46285552D02*
X165357143Y-46285552D01*
X165357143Y-46285552D02*
X165452381Y-46333171D01*
X165452381Y-46333171D02*
X165500000Y-46428409D01*
X165500000Y-46428409D02*
X165500000Y-46523647D01*
X165500000Y-46523647D02*
X165023810Y-46618885D01*
X165928572Y-46285552D02*
X165928572Y-46952219D01*
X165928572Y-46380790D02*
X165976191Y-46333171D01*
X165976191Y-46333171D02*
X166071429Y-46285552D01*
X166071429Y-46285552D02*
X166214286Y-46285552D01*
X166214286Y-46285552D02*
X166309524Y-46333171D01*
X166309524Y-46333171D02*
X166357143Y-46428409D01*
X166357143Y-46428409D02*
X166357143Y-46952219D01*
X157023810Y-47562163D02*
X157261905Y-48562163D01*
X157261905Y-48562163D02*
X157452381Y-47847877D01*
X157452381Y-47847877D02*
X157642857Y-48562163D01*
X157642857Y-48562163D02*
X157880953Y-47562163D01*
X158261905Y-48562163D02*
X158261905Y-47562163D01*
X159309523Y-48562163D02*
X158976190Y-48085972D01*
X158738095Y-48562163D02*
X158738095Y-47562163D01*
X158738095Y-47562163D02*
X159119047Y-47562163D01*
X159119047Y-47562163D02*
X159214285Y-47609782D01*
X159214285Y-47609782D02*
X159261904Y-47657401D01*
X159261904Y-47657401D02*
X159309523Y-47752639D01*
X159309523Y-47752639D02*
X159309523Y-47895496D01*
X159309523Y-47895496D02*
X159261904Y-47990734D01*
X159261904Y-47990734D02*
X159214285Y-48038353D01*
X159214285Y-48038353D02*
X159119047Y-48085972D01*
X159119047Y-48085972D02*
X158738095Y-48085972D01*
X159738095Y-48038353D02*
X160071428Y-48038353D01*
X160214285Y-48562163D02*
X159738095Y-48562163D01*
X159738095Y-48562163D02*
X159738095Y-47562163D01*
X159738095Y-47562163D02*
X160214285Y-47562163D01*
X161119047Y-48562163D02*
X160642857Y-48562163D01*
X160642857Y-48562163D02*
X160642857Y-47562163D01*
X161452381Y-48038353D02*
X161785714Y-48038353D01*
X161928571Y-48562163D02*
X161452381Y-48562163D01*
X161452381Y-48562163D02*
X161452381Y-47562163D01*
X161452381Y-47562163D02*
X161928571Y-47562163D01*
X162309524Y-48514544D02*
X162452381Y-48562163D01*
X162452381Y-48562163D02*
X162690476Y-48562163D01*
X162690476Y-48562163D02*
X162785714Y-48514544D01*
X162785714Y-48514544D02*
X162833333Y-48466924D01*
X162833333Y-48466924D02*
X162880952Y-48371686D01*
X162880952Y-48371686D02*
X162880952Y-48276448D01*
X162880952Y-48276448D02*
X162833333Y-48181210D01*
X162833333Y-48181210D02*
X162785714Y-48133591D01*
X162785714Y-48133591D02*
X162690476Y-48085972D01*
X162690476Y-48085972D02*
X162500000Y-48038353D01*
X162500000Y-48038353D02*
X162404762Y-47990734D01*
X162404762Y-47990734D02*
X162357143Y-47943115D01*
X162357143Y-47943115D02*
X162309524Y-47847877D01*
X162309524Y-47847877D02*
X162309524Y-47752639D01*
X162309524Y-47752639D02*
X162357143Y-47657401D01*
X162357143Y-47657401D02*
X162404762Y-47609782D01*
X162404762Y-47609782D02*
X162500000Y-47562163D01*
X162500000Y-47562163D02*
X162738095Y-47562163D01*
X162738095Y-47562163D02*
X162880952Y-47609782D01*
X163261905Y-48514544D02*
X163404762Y-48562163D01*
X163404762Y-48562163D02*
X163642857Y-48562163D01*
X163642857Y-48562163D02*
X163738095Y-48514544D01*
X163738095Y-48514544D02*
X163785714Y-48466924D01*
X163785714Y-48466924D02*
X163833333Y-48371686D01*
X163833333Y-48371686D02*
X163833333Y-48276448D01*
X163833333Y-48276448D02*
X163785714Y-48181210D01*
X163785714Y-48181210D02*
X163738095Y-48133591D01*
X163738095Y-48133591D02*
X163642857Y-48085972D01*
X163642857Y-48085972D02*
X163452381Y-48038353D01*
X163452381Y-48038353D02*
X163357143Y-47990734D01*
X163357143Y-47990734D02*
X163309524Y-47943115D01*
X163309524Y-47943115D02*
X163261905Y-47847877D01*
X163261905Y-47847877D02*
X163261905Y-47752639D01*
X163261905Y-47752639D02*
X163309524Y-47657401D01*
X163309524Y-47657401D02*
X163357143Y-47609782D01*
X163357143Y-47609782D02*
X163452381Y-47562163D01*
X163452381Y-47562163D02*
X163690476Y-47562163D01*
X163690476Y-47562163D02*
X163833333Y-47609782D01*
X165357143Y-48038353D02*
X165500000Y-48085972D01*
X165500000Y-48085972D02*
X165547619Y-48133591D01*
X165547619Y-48133591D02*
X165595238Y-48228829D01*
X165595238Y-48228829D02*
X165595238Y-48371686D01*
X165595238Y-48371686D02*
X165547619Y-48466924D01*
X165547619Y-48466924D02*
X165500000Y-48514544D01*
X165500000Y-48514544D02*
X165404762Y-48562163D01*
X165404762Y-48562163D02*
X165023810Y-48562163D01*
X165023810Y-48562163D02*
X165023810Y-47562163D01*
X165023810Y-47562163D02*
X165357143Y-47562163D01*
X165357143Y-47562163D02*
X165452381Y-47609782D01*
X165452381Y-47609782D02*
X165500000Y-47657401D01*
X165500000Y-47657401D02*
X165547619Y-47752639D01*
X165547619Y-47752639D02*
X165547619Y-47847877D01*
X165547619Y-47847877D02*
X165500000Y-47943115D01*
X165500000Y-47943115D02*
X165452381Y-47990734D01*
X165452381Y-47990734D02*
X165357143Y-48038353D01*
X165357143Y-48038353D02*
X165023810Y-48038353D01*
X166023810Y-47562163D02*
X166023810Y-48371686D01*
X166023810Y-48371686D02*
X166071429Y-48466924D01*
X166071429Y-48466924D02*
X166119048Y-48514544D01*
X166119048Y-48514544D02*
X166214286Y-48562163D01*
X166214286Y-48562163D02*
X166404762Y-48562163D01*
X166404762Y-48562163D02*
X166500000Y-48514544D01*
X166500000Y-48514544D02*
X166547619Y-48466924D01*
X166547619Y-48466924D02*
X166595238Y-48371686D01*
X166595238Y-48371686D02*
X166595238Y-47562163D01*
X167071429Y-48562163D02*
X167071429Y-47562163D01*
X168023809Y-48562163D02*
X167547619Y-48562163D01*
X167547619Y-48562163D02*
X167547619Y-47562163D01*
X168357143Y-48562163D02*
X168357143Y-47562163D01*
X168357143Y-47562163D02*
X168595238Y-47562163D01*
X168595238Y-47562163D02*
X168738095Y-47609782D01*
X168738095Y-47609782D02*
X168833333Y-47705020D01*
X168833333Y-47705020D02*
X168880952Y-47800258D01*
X168880952Y-47800258D02*
X168928571Y-47990734D01*
X168928571Y-47990734D02*
X168928571Y-48133591D01*
X168928571Y-48133591D02*
X168880952Y-48324067D01*
X168880952Y-48324067D02*
X168833333Y-48419305D01*
X168833333Y-48419305D02*
X168738095Y-48514544D01*
X168738095Y-48514544D02*
X168595238Y-48562163D01*
X168595238Y-48562163D02*
X168357143Y-48562163D01*
D12*
X112428571Y-48356900D02*
X113571429Y-48356900D01*
D10*
G36*
X99103140Y-103960000D02*
G01*
X117291905Y-64788332D01*
X118410537Y-64788332D01*
X136596859Y-103960000D01*
X135309699Y-103960000D01*
X117570341Y-65682260D01*
X118129658Y-65682260D01*
X100390300Y-103960000D01*
X99103140Y-103960000D01*
G37*
G36*
X105091974Y-92153300D02*
G01*
X105651290Y-91088401D01*
X129994975Y-91088401D01*
X130554291Y-92153300D01*
X105091974Y-92153300D01*
G37*
G36*
X144534752Y-103960000D02*
G01*
X144534752Y-64788332D01*
X145487299Y-64788332D01*
X174811095Y-102672840D01*
X174195603Y-102672840D01*
X174195603Y-64788332D01*
X175314235Y-64788332D01*
X175314235Y-103960000D01*
X174361688Y-103960000D01*
X145040334Y-66075491D01*
X145655826Y-66075491D01*
X145655826Y-103960000D01*
X144534752Y-103960000D01*
G37*
X74285712Y-85707419D02*
X74285712Y-85040752D01*
X74285712Y-85231228D02*
X74333331Y-85135990D01*
X74333331Y-85135990D02*
X74380950Y-85088371D01*
X74380950Y-85088371D02*
X74476188Y-85040752D01*
X74476188Y-85040752D02*
X74571426Y-85040752D01*
X75285712Y-85659800D02*
X75190474Y-85707419D01*
X75190474Y-85707419D02*
X74999998Y-85707419D01*
X74999998Y-85707419D02*
X74904760Y-85659800D01*
X74904760Y-85659800D02*
X74857141Y-85564561D01*
X74857141Y-85564561D02*
X74857141Y-85183609D01*
X74857141Y-85183609D02*
X74904760Y-85088371D01*
X74904760Y-85088371D02*
X74999998Y-85040752D01*
X74999998Y-85040752D02*
X75190474Y-85040752D01*
X75190474Y-85040752D02*
X75285712Y-85088371D01*
X75285712Y-85088371D02*
X75333331Y-85183609D01*
X75333331Y-85183609D02*
X75333331Y-85278847D01*
X75333331Y-85278847D02*
X74857141Y-85374085D01*
X75714284Y-85659800D02*
X75809522Y-85707419D01*
X75809522Y-85707419D02*
X75999998Y-85707419D01*
X75999998Y-85707419D02*
X76095236Y-85659800D01*
X76095236Y-85659800D02*
X76142855Y-85564561D01*
X76142855Y-85564561D02*
X76142855Y-85516942D01*
X76142855Y-85516942D02*
X76095236Y-85421704D01*
X76095236Y-85421704D02*
X75999998Y-85374085D01*
X75999998Y-85374085D02*
X75857141Y-85374085D01*
X75857141Y-85374085D02*
X75761903Y-85326466D01*
X75761903Y-85326466D02*
X75714284Y-85231228D01*
X75714284Y-85231228D02*
X75714284Y-85183609D01*
X75714284Y-85183609D02*
X75761903Y-85088371D01*
X75761903Y-85088371D02*
X75857141Y-85040752D01*
X75857141Y-85040752D02*
X75999998Y-85040752D01*
X75999998Y-85040752D02*
X76095236Y-85088371D01*
X76428570Y-85040752D02*
X76809522Y-85040752D01*
X76571427Y-84707419D02*
X76571427Y-85564561D01*
X76571427Y-85564561D02*
X76619046Y-85659800D01*
X76619046Y-85659800D02*
X76714284Y-85707419D01*
X76714284Y-85707419D02*
X76809522Y-85707419D01*
X77142856Y-85612180D02*
X77190475Y-85659800D01*
X77190475Y-85659800D02*
X77142856Y-85707419D01*
X77142856Y-85707419D02*
X77095237Y-85659800D01*
X77095237Y-85659800D02*
X77142856Y-85612180D01*
X77142856Y-85612180D02*
X77142856Y-85707419D01*
X78809522Y-85707419D02*
X78809522Y-84707419D01*
X78809522Y-85659800D02*
X78714284Y-85707419D01*
X78714284Y-85707419D02*
X78523808Y-85707419D01*
X78523808Y-85707419D02*
X78428570Y-85659800D01*
X78428570Y-85659800D02*
X78380951Y-85612180D01*
X78380951Y-85612180D02*
X78333332Y-85516942D01*
X78333332Y-85516942D02*
X78333332Y-85231228D01*
X78333332Y-85231228D02*
X78380951Y-85135990D01*
X78380951Y-85135990D02*
X78428570Y-85088371D01*
X78428570Y-85088371D02*
X78523808Y-85040752D01*
X78523808Y-85040752D02*
X78714284Y-85040752D01*
X78714284Y-85040752D02*
X78809522Y-85088371D01*
X79428570Y-85707419D02*
X79333332Y-85659800D01*
X79333332Y-85659800D02*
X79285713Y-85612180D01*
X79285713Y-85612180D02*
X79238094Y-85516942D01*
X79238094Y-85516942D02*
X79238094Y-85231228D01*
X79238094Y-85231228D02*
X79285713Y-85135990D01*
X79285713Y-85135990D02*
X79333332Y-85088371D01*
X79333332Y-85088371D02*
X79428570Y-85040752D01*
X79428570Y-85040752D02*
X79571427Y-85040752D01*
X79571427Y-85040752D02*
X79666665Y-85088371D01*
X79666665Y-85088371D02*
X79714284Y-85135990D01*
X79714284Y-85135990D02*
X79761903Y-85231228D01*
X79761903Y-85231228D02*
X79761903Y-85516942D01*
X79761903Y-85516942D02*
X79714284Y-85612180D01*
X79714284Y-85612180D02*
X79666665Y-85659800D01*
X79666665Y-85659800D02*
X79571427Y-85707419D01*
X79571427Y-85707419D02*
X79428570Y-85707419D01*
X80190475Y-85040752D02*
X80190475Y-85707419D01*
X80190475Y-85135990D02*
X80238094Y-85088371D01*
X80238094Y-85088371D02*
X80333332Y-85040752D01*
X80333332Y-85040752D02*
X80476189Y-85040752D01*
X80476189Y-85040752D02*
X80571427Y-85088371D01*
X80571427Y-85088371D02*
X80619046Y-85183609D01*
X80619046Y-85183609D02*
X80619046Y-85707419D01*
X81142856Y-84707419D02*
X81047618Y-84897895D01*
X81428570Y-85040752D02*
X81809522Y-85040752D01*
X81571427Y-84707419D02*
X81571427Y-85564561D01*
X81571427Y-85564561D02*
X81619046Y-85659800D01*
X81619046Y-85659800D02*
X81714284Y-85707419D01*
X81714284Y-85707419D02*
X81809522Y-85707419D01*
X82761904Y-85040752D02*
X83142856Y-85040752D01*
X82904761Y-84707419D02*
X82904761Y-85564561D01*
X82904761Y-85564561D02*
X82952380Y-85659800D01*
X82952380Y-85659800D02*
X83047618Y-85707419D01*
X83047618Y-85707419D02*
X83142856Y-85707419D01*
X83476190Y-85707419D02*
X83476190Y-84707419D01*
X83904761Y-85707419D02*
X83904761Y-85183609D01*
X83904761Y-85183609D02*
X83857142Y-85088371D01*
X83857142Y-85088371D02*
X83761904Y-85040752D01*
X83761904Y-85040752D02*
X83619047Y-85040752D01*
X83619047Y-85040752D02*
X83523809Y-85088371D01*
X83523809Y-85088371D02*
X83476190Y-85135990D01*
X84380952Y-85707419D02*
X84380952Y-85040752D01*
X84380952Y-84707419D02*
X84333333Y-84755038D01*
X84333333Y-84755038D02*
X84380952Y-84802657D01*
X84380952Y-84802657D02*
X84428571Y-84755038D01*
X84428571Y-84755038D02*
X84380952Y-84707419D01*
X84380952Y-84707419D02*
X84380952Y-84802657D01*
X84857142Y-85040752D02*
X84857142Y-85707419D01*
X84857142Y-85135990D02*
X84904761Y-85088371D01*
X84904761Y-85088371D02*
X84999999Y-85040752D01*
X84999999Y-85040752D02*
X85142856Y-85040752D01*
X85142856Y-85040752D02*
X85238094Y-85088371D01*
X85238094Y-85088371D02*
X85285713Y-85183609D01*
X85285713Y-85183609D02*
X85285713Y-85707419D01*
X85761904Y-85707419D02*
X85761904Y-84707419D01*
X85857142Y-85326466D02*
X86142856Y-85707419D01*
X86142856Y-85040752D02*
X85761904Y-85421704D01*
X87761904Y-85707419D02*
X87761904Y-85183609D01*
X87761904Y-85183609D02*
X87714285Y-85088371D01*
X87714285Y-85088371D02*
X87619047Y-85040752D01*
X87619047Y-85040752D02*
X87428571Y-85040752D01*
X87428571Y-85040752D02*
X87333333Y-85088371D01*
X87761904Y-85659800D02*
X87666666Y-85707419D01*
X87666666Y-85707419D02*
X87428571Y-85707419D01*
X87428571Y-85707419D02*
X87333333Y-85659800D01*
X87333333Y-85659800D02*
X87285714Y-85564561D01*
X87285714Y-85564561D02*
X87285714Y-85469323D01*
X87285714Y-85469323D02*
X87333333Y-85374085D01*
X87333333Y-85374085D02*
X87428571Y-85326466D01*
X87428571Y-85326466D02*
X87666666Y-85326466D01*
X87666666Y-85326466D02*
X87761904Y-85278847D01*
X88238095Y-85707419D02*
X88238095Y-84707419D01*
X88238095Y-85088371D02*
X88333333Y-85040752D01*
X88333333Y-85040752D02*
X88523809Y-85040752D01*
X88523809Y-85040752D02*
X88619047Y-85088371D01*
X88619047Y-85088371D02*
X88666666Y-85135990D01*
X88666666Y-85135990D02*
X88714285Y-85231228D01*
X88714285Y-85231228D02*
X88714285Y-85516942D01*
X88714285Y-85516942D02*
X88666666Y-85612180D01*
X88666666Y-85612180D02*
X88619047Y-85659800D01*
X88619047Y-85659800D02*
X88523809Y-85707419D01*
X88523809Y-85707419D02*
X88333333Y-85707419D01*
X88333333Y-85707419D02*
X88238095Y-85659800D01*
X89285714Y-85707419D02*
X89190476Y-85659800D01*
X89190476Y-85659800D02*
X89142857Y-85612180D01*
X89142857Y-85612180D02*
X89095238Y-85516942D01*
X89095238Y-85516942D02*
X89095238Y-85231228D01*
X89095238Y-85231228D02*
X89142857Y-85135990D01*
X89142857Y-85135990D02*
X89190476Y-85088371D01*
X89190476Y-85088371D02*
X89285714Y-85040752D01*
X89285714Y-85040752D02*
X89428571Y-85040752D01*
X89428571Y-85040752D02*
X89523809Y-85088371D01*
X89523809Y-85088371D02*
X89571428Y-85135990D01*
X89571428Y-85135990D02*
X89619047Y-85231228D01*
X89619047Y-85231228D02*
X89619047Y-85516942D01*
X89619047Y-85516942D02*
X89571428Y-85612180D01*
X89571428Y-85612180D02*
X89523809Y-85659800D01*
X89523809Y-85659800D02*
X89428571Y-85707419D01*
X89428571Y-85707419D02*
X89285714Y-85707419D01*
X90476190Y-85040752D02*
X90476190Y-85707419D01*
X90047619Y-85040752D02*
X90047619Y-85564561D01*
X90047619Y-85564561D02*
X90095238Y-85659800D01*
X90095238Y-85659800D02*
X90190476Y-85707419D01*
X90190476Y-85707419D02*
X90333333Y-85707419D01*
X90333333Y-85707419D02*
X90428571Y-85659800D01*
X90428571Y-85659800D02*
X90476190Y-85612180D01*
X90809524Y-85040752D02*
X91190476Y-85040752D01*
X90952381Y-84707419D02*
X90952381Y-85564561D01*
X90952381Y-85564561D02*
X91000000Y-85659800D01*
X91000000Y-85659800D02*
X91095238Y-85707419D01*
X91095238Y-85707419D02*
X91190476Y-85707419D01*
X92714286Y-85659800D02*
X92619048Y-85707419D01*
X92619048Y-85707419D02*
X92428572Y-85707419D01*
X92428572Y-85707419D02*
X92333334Y-85659800D01*
X92333334Y-85659800D02*
X92285715Y-85612180D01*
X92285715Y-85612180D02*
X92238096Y-85516942D01*
X92238096Y-85516942D02*
X92238096Y-85231228D01*
X92238096Y-85231228D02*
X92285715Y-85135990D01*
X92285715Y-85135990D02*
X92333334Y-85088371D01*
X92333334Y-85088371D02*
X92428572Y-85040752D01*
X92428572Y-85040752D02*
X92619048Y-85040752D01*
X92619048Y-85040752D02*
X92714286Y-85088371D01*
X93285715Y-85707419D02*
X93190477Y-85659800D01*
X93190477Y-85659800D02*
X93142858Y-85612180D01*
X93142858Y-85612180D02*
X93095239Y-85516942D01*
X93095239Y-85516942D02*
X93095239Y-85231228D01*
X93095239Y-85231228D02*
X93142858Y-85135990D01*
X93142858Y-85135990D02*
X93190477Y-85088371D01*
X93190477Y-85088371D02*
X93285715Y-85040752D01*
X93285715Y-85040752D02*
X93428572Y-85040752D01*
X93428572Y-85040752D02*
X93523810Y-85088371D01*
X93523810Y-85088371D02*
X93571429Y-85135990D01*
X93571429Y-85135990D02*
X93619048Y-85231228D01*
X93619048Y-85231228D02*
X93619048Y-85516942D01*
X93619048Y-85516942D02*
X93571429Y-85612180D01*
X93571429Y-85612180D02*
X93523810Y-85659800D01*
X93523810Y-85659800D02*
X93428572Y-85707419D01*
X93428572Y-85707419D02*
X93285715Y-85707419D01*
X94047620Y-85040752D02*
X94047620Y-85707419D01*
X94047620Y-85135990D02*
X94095239Y-85088371D01*
X94095239Y-85088371D02*
X94190477Y-85040752D01*
X94190477Y-85040752D02*
X94333334Y-85040752D01*
X94333334Y-85040752D02*
X94428572Y-85088371D01*
X94428572Y-85088371D02*
X94476191Y-85183609D01*
X94476191Y-85183609D02*
X94476191Y-85707419D01*
X94904763Y-85659800D02*
X95000001Y-85707419D01*
X95000001Y-85707419D02*
X95190477Y-85707419D01*
X95190477Y-85707419D02*
X95285715Y-85659800D01*
X95285715Y-85659800D02*
X95333334Y-85564561D01*
X95333334Y-85564561D02*
X95333334Y-85516942D01*
X95333334Y-85516942D02*
X95285715Y-85421704D01*
X95285715Y-85421704D02*
X95190477Y-85374085D01*
X95190477Y-85374085D02*
X95047620Y-85374085D01*
X95047620Y-85374085D02*
X94952382Y-85326466D01*
X94952382Y-85326466D02*
X94904763Y-85231228D01*
X94904763Y-85231228D02*
X94904763Y-85183609D01*
X94904763Y-85183609D02*
X94952382Y-85088371D01*
X94952382Y-85088371D02*
X95047620Y-85040752D01*
X95047620Y-85040752D02*
X95190477Y-85040752D01*
X95190477Y-85040752D02*
X95285715Y-85088371D01*
X96142858Y-85659800D02*
X96047620Y-85707419D01*
X96047620Y-85707419D02*
X95857144Y-85707419D01*
X95857144Y-85707419D02*
X95761906Y-85659800D01*
X95761906Y-85659800D02*
X95714287Y-85564561D01*
X95714287Y-85564561D02*
X95714287Y-85183609D01*
X95714287Y-85183609D02*
X95761906Y-85088371D01*
X95761906Y-85088371D02*
X95857144Y-85040752D01*
X95857144Y-85040752D02*
X96047620Y-85040752D01*
X96047620Y-85040752D02*
X96142858Y-85088371D01*
X96142858Y-85088371D02*
X96190477Y-85183609D01*
X96190477Y-85183609D02*
X96190477Y-85278847D01*
X96190477Y-85278847D02*
X95714287Y-85374085D01*
X97047620Y-85040752D02*
X97047620Y-86040752D01*
X97047620Y-85659800D02*
X96952382Y-85707419D01*
X96952382Y-85707419D02*
X96761906Y-85707419D01*
X96761906Y-85707419D02*
X96666668Y-85659800D01*
X96666668Y-85659800D02*
X96619049Y-85612180D01*
X96619049Y-85612180D02*
X96571430Y-85516942D01*
X96571430Y-85516942D02*
X96571430Y-85231228D01*
X96571430Y-85231228D02*
X96619049Y-85135990D01*
X96619049Y-85135990D02*
X96666668Y-85088371D01*
X96666668Y-85088371D02*
X96761906Y-85040752D01*
X96761906Y-85040752D02*
X96952382Y-85040752D01*
X96952382Y-85040752D02*
X97047620Y-85088371D01*
X97952382Y-85040752D02*
X97952382Y-85707419D01*
X97523811Y-85040752D02*
X97523811Y-85564561D01*
X97523811Y-85564561D02*
X97571430Y-85659800D01*
X97571430Y-85659800D02*
X97666668Y-85707419D01*
X97666668Y-85707419D02*
X97809525Y-85707419D01*
X97809525Y-85707419D02*
X97904763Y-85659800D01*
X97904763Y-85659800D02*
X97952382Y-85612180D01*
X98809525Y-85659800D02*
X98714287Y-85707419D01*
X98714287Y-85707419D02*
X98523811Y-85707419D01*
X98523811Y-85707419D02*
X98428573Y-85659800D01*
X98428573Y-85659800D02*
X98380954Y-85564561D01*
X98380954Y-85564561D02*
X98380954Y-85183609D01*
X98380954Y-85183609D02*
X98428573Y-85088371D01*
X98428573Y-85088371D02*
X98523811Y-85040752D01*
X98523811Y-85040752D02*
X98714287Y-85040752D01*
X98714287Y-85040752D02*
X98809525Y-85088371D01*
X98809525Y-85088371D02*
X98857144Y-85183609D01*
X98857144Y-85183609D02*
X98857144Y-85278847D01*
X98857144Y-85278847D02*
X98380954Y-85374085D01*
X99285716Y-85040752D02*
X99285716Y-85707419D01*
X99285716Y-85135990D02*
X99333335Y-85088371D01*
X99333335Y-85088371D02*
X99428573Y-85040752D01*
X99428573Y-85040752D02*
X99571430Y-85040752D01*
X99571430Y-85040752D02*
X99666668Y-85088371D01*
X99666668Y-85088371D02*
X99714287Y-85183609D01*
X99714287Y-85183609D02*
X99714287Y-85707419D01*
X100619049Y-85659800D02*
X100523811Y-85707419D01*
X100523811Y-85707419D02*
X100333335Y-85707419D01*
X100333335Y-85707419D02*
X100238097Y-85659800D01*
X100238097Y-85659800D02*
X100190478Y-85612180D01*
X100190478Y-85612180D02*
X100142859Y-85516942D01*
X100142859Y-85516942D02*
X100142859Y-85231228D01*
X100142859Y-85231228D02*
X100190478Y-85135990D01*
X100190478Y-85135990D02*
X100238097Y-85088371D01*
X100238097Y-85088371D02*
X100333335Y-85040752D01*
X100333335Y-85040752D02*
X100523811Y-85040752D01*
X100523811Y-85040752D02*
X100619049Y-85088371D01*
X101428573Y-85659800D02*
X101333335Y-85707419D01*
X101333335Y-85707419D02*
X101142859Y-85707419D01*
X101142859Y-85707419D02*
X101047621Y-85659800D01*
X101047621Y-85659800D02*
X101000002Y-85564561D01*
X101000002Y-85564561D02*
X101000002Y-85183609D01*
X101000002Y-85183609D02*
X101047621Y-85088371D01*
X101047621Y-85088371D02*
X101142859Y-85040752D01*
X101142859Y-85040752D02*
X101333335Y-85040752D01*
X101333335Y-85040752D02*
X101428573Y-85088371D01*
X101428573Y-85088371D02*
X101476192Y-85183609D01*
X101476192Y-85183609D02*
X101476192Y-85278847D01*
X101476192Y-85278847D02*
X101000002Y-85374085D01*
X101857145Y-85659800D02*
X101952383Y-85707419D01*
X101952383Y-85707419D02*
X102142859Y-85707419D01*
X102142859Y-85707419D02*
X102238097Y-85659800D01*
X102238097Y-85659800D02*
X102285716Y-85564561D01*
X102285716Y-85564561D02*
X102285716Y-85516942D01*
X102285716Y-85516942D02*
X102238097Y-85421704D01*
X102238097Y-85421704D02*
X102142859Y-85374085D01*
X102142859Y-85374085D02*
X102000002Y-85374085D01*
X102000002Y-85374085D02*
X101904764Y-85326466D01*
X101904764Y-85326466D02*
X101857145Y-85231228D01*
X101857145Y-85231228D02*
X101857145Y-85183609D01*
X101857145Y-85183609D02*
X101904764Y-85088371D01*
X101904764Y-85088371D02*
X102000002Y-85040752D01*
X102000002Y-85040752D02*
X102142859Y-85040752D01*
X102142859Y-85040752D02*
X102238097Y-85088371D01*
X102714288Y-85612180D02*
X102761907Y-85659800D01*
X102761907Y-85659800D02*
X102714288Y-85707419D01*
X102714288Y-85707419D02*
X102666669Y-85659800D01*
X102666669Y-85659800D02*
X102714288Y-85612180D01*
X102714288Y-85612180D02*
X102714288Y-85707419D01*
D11*
X159309523Y-40397247D02*
X159309523Y-41111532D01*
X159309523Y-41111532D02*
X159261904Y-41254389D01*
X159261904Y-41254389D02*
X159166666Y-41349628D01*
X159166666Y-41349628D02*
X159023809Y-41397247D01*
X159023809Y-41397247D02*
X158928571Y-41397247D01*
X159785714Y-40397247D02*
X159785714Y-41206770D01*
X159785714Y-41206770D02*
X159833333Y-41302008D01*
X159833333Y-41302008D02*
X159880952Y-41349628D01*
X159880952Y-41349628D02*
X159976190Y-41397247D01*
X159976190Y-41397247D02*
X160166666Y-41397247D01*
X160166666Y-41397247D02*
X160261904Y-41349628D01*
X160261904Y-41349628D02*
X160309523Y-41302008D01*
X160309523Y-41302008D02*
X160357142Y-41206770D01*
X160357142Y-41206770D02*
X160357142Y-40397247D01*
X160833333Y-41397247D02*
X160833333Y-40397247D01*
X160833333Y-40397247D02*
X161166666Y-41111532D01*
X161166666Y-41111532D02*
X161499999Y-40397247D01*
X161499999Y-40397247D02*
X161499999Y-41397247D01*
X161976190Y-41397247D02*
X161976190Y-40397247D01*
X161976190Y-40397247D02*
X162357142Y-40397247D01*
X162357142Y-40397247D02*
X162452380Y-40444866D01*
X162452380Y-40444866D02*
X162499999Y-40492485D01*
X162499999Y-40492485D02*
X162547618Y-40587723D01*
X162547618Y-40587723D02*
X162547618Y-40730580D01*
X162547618Y-40730580D02*
X162499999Y-40825818D01*
X162499999Y-40825818D02*
X162452380Y-40873437D01*
X162452380Y-40873437D02*
X162357142Y-40921056D01*
X162357142Y-40921056D02*
X161976190Y-40921056D01*
X163642857Y-40730580D02*
X163833333Y-41397247D01*
X163833333Y-41397247D02*
X164023809Y-40921056D01*
X164023809Y-40921056D02*
X164214285Y-41397247D01*
X164214285Y-41397247D02*
X164404761Y-40730580D01*
X164785714Y-41397247D02*
X164785714Y-40397247D01*
X165214285Y-41397247D02*
X165214285Y-40873437D01*
X165214285Y-40873437D02*
X165166666Y-40778199D01*
X165166666Y-40778199D02*
X165071428Y-40730580D01*
X165071428Y-40730580D02*
X164928571Y-40730580D01*
X164928571Y-40730580D02*
X164833333Y-40778199D01*
X164833333Y-40778199D02*
X164785714Y-40825818D01*
X166071428Y-41349628D02*
X165976190Y-41397247D01*
X165976190Y-41397247D02*
X165785714Y-41397247D01*
X165785714Y-41397247D02*
X165690476Y-41349628D01*
X165690476Y-41349628D02*
X165642857Y-41254389D01*
X165642857Y-41254389D02*
X165642857Y-40873437D01*
X165642857Y-40873437D02*
X165690476Y-40778199D01*
X165690476Y-40778199D02*
X165785714Y-40730580D01*
X165785714Y-40730580D02*
X165976190Y-40730580D01*
X165976190Y-40730580D02*
X166071428Y-40778199D01*
X166071428Y-40778199D02*
X166119047Y-40873437D01*
X166119047Y-40873437D02*
X166119047Y-40968675D01*
X166119047Y-40968675D02*
X165642857Y-41063913D01*
X166547619Y-40730580D02*
X166547619Y-41397247D01*
X166547619Y-40825818D02*
X166595238Y-40778199D01*
X166595238Y-40778199D02*
X166690476Y-40730580D01*
X166690476Y-40730580D02*
X166833333Y-40730580D01*
X166833333Y-40730580D02*
X166928571Y-40778199D01*
X166928571Y-40778199D02*
X166976190Y-40873437D01*
X166976190Y-40873437D02*
X166976190Y-41397247D01*
X159595238Y-42483381D02*
X159738095Y-42531000D01*
X159738095Y-42531000D02*
X159785714Y-42578619D01*
X159785714Y-42578619D02*
X159833333Y-42673857D01*
X159833333Y-42673857D02*
X159833333Y-42816714D01*
X159833333Y-42816714D02*
X159785714Y-42911952D01*
X159785714Y-42911952D02*
X159738095Y-42959572D01*
X159738095Y-42959572D02*
X159642857Y-43007191D01*
X159642857Y-43007191D02*
X159261905Y-43007191D01*
X159261905Y-43007191D02*
X159261905Y-42007191D01*
X159261905Y-42007191D02*
X159595238Y-42007191D01*
X159595238Y-42007191D02*
X159690476Y-42054810D01*
X159690476Y-42054810D02*
X159738095Y-42102429D01*
X159738095Y-42102429D02*
X159785714Y-42197667D01*
X159785714Y-42197667D02*
X159785714Y-42292905D01*
X159785714Y-42292905D02*
X159738095Y-42388143D01*
X159738095Y-42388143D02*
X159690476Y-42435762D01*
X159690476Y-42435762D02*
X159595238Y-42483381D01*
X159595238Y-42483381D02*
X159261905Y-42483381D01*
X160214286Y-42721476D02*
X160690476Y-42721476D01*
X160119048Y-43007191D02*
X160452381Y-42007191D01*
X160452381Y-42007191D02*
X160785714Y-43007191D01*
X161690476Y-42911952D02*
X161642857Y-42959572D01*
X161642857Y-42959572D02*
X161500000Y-43007191D01*
X161500000Y-43007191D02*
X161404762Y-43007191D01*
X161404762Y-43007191D02*
X161261905Y-42959572D01*
X161261905Y-42959572D02*
X161166667Y-42864333D01*
X161166667Y-42864333D02*
X161119048Y-42769095D01*
X161119048Y-42769095D02*
X161071429Y-42578619D01*
X161071429Y-42578619D02*
X161071429Y-42435762D01*
X161071429Y-42435762D02*
X161119048Y-42245286D01*
X161119048Y-42245286D02*
X161166667Y-42150048D01*
X161166667Y-42150048D02*
X161261905Y-42054810D01*
X161261905Y-42054810D02*
X161404762Y-42007191D01*
X161404762Y-42007191D02*
X161500000Y-42007191D01*
X161500000Y-42007191D02*
X161642857Y-42054810D01*
X161642857Y-42054810D02*
X161690476Y-42102429D01*
X162119048Y-43007191D02*
X162119048Y-42007191D01*
X162690476Y-43007191D02*
X162261905Y-42435762D01*
X162690476Y-42007191D02*
X162119048Y-42578619D01*
X163833334Y-42959572D02*
X163976191Y-43007191D01*
X163976191Y-43007191D02*
X164214286Y-43007191D01*
X164214286Y-43007191D02*
X164309524Y-42959572D01*
X164309524Y-42959572D02*
X164357143Y-42911952D01*
X164357143Y-42911952D02*
X164404762Y-42816714D01*
X164404762Y-42816714D02*
X164404762Y-42721476D01*
X164404762Y-42721476D02*
X164357143Y-42626238D01*
X164357143Y-42626238D02*
X164309524Y-42578619D01*
X164309524Y-42578619D02*
X164214286Y-42531000D01*
X164214286Y-42531000D02*
X164023810Y-42483381D01*
X164023810Y-42483381D02*
X163928572Y-42435762D01*
X163928572Y-42435762D02*
X163880953Y-42388143D01*
X163880953Y-42388143D02*
X163833334Y-42292905D01*
X163833334Y-42292905D02*
X163833334Y-42197667D01*
X163833334Y-42197667D02*
X163880953Y-42102429D01*
X163880953Y-42102429D02*
X163928572Y-42054810D01*
X163928572Y-42054810D02*
X164023810Y-42007191D01*
X164023810Y-42007191D02*
X164261905Y-42007191D01*
X164261905Y-42007191D02*
X164404762Y-42054810D01*
X164833334Y-43007191D02*
X164833334Y-42007191D01*
X165309524Y-43007191D02*
X165309524Y-42007191D01*
X165309524Y-42007191D02*
X165547619Y-42007191D01*
X165547619Y-42007191D02*
X165690476Y-42054810D01*
X165690476Y-42054810D02*
X165785714Y-42150048D01*
X165785714Y-42150048D02*
X165833333Y-42245286D01*
X165833333Y-42245286D02*
X165880952Y-42435762D01*
X165880952Y-42435762D02*
X165880952Y-42578619D01*
X165880952Y-42578619D02*
X165833333Y-42769095D01*
X165833333Y-42769095D02*
X165785714Y-42864333D01*
X165785714Y-42864333D02*
X165690476Y-42959572D01*
X165690476Y-42959572D02*
X165547619Y-43007191D01*
X165547619Y-43007191D02*
X165309524Y-43007191D01*
X166309524Y-42483381D02*
X166642857Y-42483381D01*
X166785714Y-43007191D02*
X166309524Y-43007191D01*
X166309524Y-43007191D02*
X166309524Y-42007191D01*
X166309524Y-42007191D02*
X166785714Y-42007191D01*
D13*
X151916666Y-45204819D02*
X151916666Y-45919104D01*
X151916666Y-45919104D02*
X151869047Y-46061961D01*
X151869047Y-46061961D02*
X151773809Y-46157200D01*
X151773809Y-46157200D02*
X151630952Y-46204819D01*
X151630952Y-46204819D02*
X151535714Y-46204819D01*
X152392857Y-46204819D02*
X152392857Y-45204819D01*
X152392857Y-45204819D02*
X152773809Y-45204819D01*
X152773809Y-45204819D02*
X152869047Y-45252438D01*
X152869047Y-45252438D02*
X152916666Y-45300057D01*
X152916666Y-45300057D02*
X152964285Y-45395295D01*
X152964285Y-45395295D02*
X152964285Y-45538152D01*
X152964285Y-45538152D02*
X152916666Y-45633390D01*
X152916666Y-45633390D02*
X152869047Y-45681009D01*
X152869047Y-45681009D02*
X152773809Y-45728628D01*
X152773809Y-45728628D02*
X152392857Y-45728628D01*
X153821428Y-45204819D02*
X153630952Y-45204819D01*
X153630952Y-45204819D02*
X153535714Y-45252438D01*
X153535714Y-45252438D02*
X153488095Y-45300057D01*
X153488095Y-45300057D02*
X153392857Y-45442914D01*
X153392857Y-45442914D02*
X153345238Y-45633390D01*
X153345238Y-45633390D02*
X153345238Y-46014342D01*
X153345238Y-46014342D02*
X153392857Y-46109580D01*
X153392857Y-46109580D02*
X153440476Y-46157200D01*
X153440476Y-46157200D02*
X153535714Y-46204819D01*
X153535714Y-46204819D02*
X153726190Y-46204819D01*
X153726190Y-46204819D02*
X153821428Y-46157200D01*
X153821428Y-46157200D02*
X153869047Y-46109580D01*
X153869047Y-46109580D02*
X153916666Y-46014342D01*
X153916666Y-46014342D02*
X153916666Y-45776247D01*
X153916666Y-45776247D02*
X153869047Y-45681009D01*
X153869047Y-45681009D02*
X153821428Y-45633390D01*
X153821428Y-45633390D02*
X153726190Y-45585771D01*
X153726190Y-45585771D02*
X153535714Y-45585771D01*
X153535714Y-45585771D02*
X153440476Y-45633390D01*
X153440476Y-45633390D02*
X153392857Y-45681009D01*
X153392857Y-45681009D02*
X153345238Y-45776247D01*
X151916666Y-41704819D02*
X151916666Y-42419104D01*
X151916666Y-42419104D02*
X151869047Y-42561961D01*
X151869047Y-42561961D02*
X151773809Y-42657200D01*
X151773809Y-42657200D02*
X151630952Y-42704819D01*
X151630952Y-42704819D02*
X151535714Y-42704819D01*
X152392857Y-42704819D02*
X152392857Y-41704819D01*
X152392857Y-41704819D02*
X152773809Y-41704819D01*
X152773809Y-41704819D02*
X152869047Y-41752438D01*
X152869047Y-41752438D02*
X152916666Y-41800057D01*
X152916666Y-41800057D02*
X152964285Y-41895295D01*
X152964285Y-41895295D02*
X152964285Y-42038152D01*
X152964285Y-42038152D02*
X152916666Y-42133390D01*
X152916666Y-42133390D02*
X152869047Y-42181009D01*
X152869047Y-42181009D02*
X152773809Y-42228628D01*
X152773809Y-42228628D02*
X152392857Y-42228628D01*
X153821428Y-42038152D02*
X153821428Y-42704819D01*
X153583333Y-41657200D02*
X153345238Y-42371485D01*
X153345238Y-42371485D02*
X153964285Y-42371485D01*
X151916666Y-39204819D02*
X151916666Y-39919104D01*
X151916666Y-39919104D02*
X151869047Y-40061961D01*
X151869047Y-40061961D02*
X151773809Y-40157200D01*
X151773809Y-40157200D02*
X151630952Y-40204819D01*
X151630952Y-40204819D02*
X151535714Y-40204819D01*
X152392857Y-40204819D02*
X152392857Y-39204819D01*
X152392857Y-39204819D02*
X152773809Y-39204819D01*
X152773809Y-39204819D02*
X152869047Y-39252438D01*
X152869047Y-39252438D02*
X152916666Y-39300057D01*
X152916666Y-39300057D02*
X152964285Y-39395295D01*
X152964285Y-39395295D02*
X152964285Y-39538152D01*
X152964285Y-39538152D02*
X152916666Y-39633390D01*
X152916666Y-39633390D02*
X152869047Y-39681009D01*
X152869047Y-39681009D02*
X152773809Y-39728628D01*
X152773809Y-39728628D02*
X152392857Y-39728628D01*
X153345238Y-39300057D02*
X153392857Y-39252438D01*
X153392857Y-39252438D02*
X153488095Y-39204819D01*
X153488095Y-39204819D02*
X153726190Y-39204819D01*
X153726190Y-39204819D02*
X153821428Y-39252438D01*
X153821428Y-39252438D02*
X153869047Y-39300057D01*
X153869047Y-39300057D02*
X153916666Y-39395295D01*
X153916666Y-39395295D02*
X153916666Y-39490533D01*
X153916666Y-39490533D02*
X153869047Y-39633390D01*
X153869047Y-39633390D02*
X153297619Y-40204819D01*
X153297619Y-40204819D02*
X153916666Y-40204819D01*
%TO.C,D15*%
X96250000Y-118310000D02*
X96750000Y-119210000D01*
X96750000Y-119210000D02*
X97250000Y-118310000D01*
X97250000Y-118310000D02*
X96250000Y-118310000D01*
X97250000Y-119310000D02*
X96250000Y-119310000D01*
G36*
X95949450Y-122008439D02*
G01*
X97549699Y-122008439D01*
X97549699Y-121445868D01*
X95949450Y-121445868D01*
X95949450Y-122008439D01*
G37*
D14*
G36*
X97550709Y-122011338D02*
G01*
X96098569Y-122011338D01*
X95949708Y-122011338D01*
X95949708Y-121863026D01*
X96098569Y-121863026D01*
X97399232Y-121863026D01*
X97399232Y-115759781D01*
X96098569Y-115759781D01*
X96098569Y-121863026D01*
X95949708Y-121863026D01*
X95949708Y-115611470D01*
X97550709Y-115611470D01*
X97550709Y-122011338D01*
G37*
D13*
%TO.C,D4*%
X95000000Y-108250000D02*
X95500000Y-109150000D01*
X95500000Y-109150000D02*
X96000000Y-108250000D01*
X96000000Y-108250000D02*
X95000000Y-108250000D01*
X96000000Y-109250000D02*
X95000000Y-109250000D01*
G36*
X94699450Y-111948439D02*
G01*
X96299699Y-111948439D01*
X96299699Y-111385868D01*
X94699450Y-111385868D01*
X94699450Y-111948439D01*
G37*
D14*
G36*
X96300709Y-111951338D02*
G01*
X94848569Y-111951338D01*
X94699708Y-111951338D01*
X94699708Y-111803026D01*
X94848569Y-111803026D01*
X96149232Y-111803026D01*
X96149232Y-105699781D01*
X94848569Y-105699781D01*
X94848569Y-111803026D01*
X94699708Y-111803026D01*
X94699708Y-105551470D01*
X96300709Y-105551470D01*
X96300709Y-111951338D01*
G37*
D13*
%TO.C,D18*%
X103750000Y-118310000D02*
X104250000Y-119210000D01*
X104250000Y-119210000D02*
X104750000Y-118310000D01*
X104750000Y-118310000D02*
X103750000Y-118310000D01*
X104750000Y-119310000D02*
X103750000Y-119310000D01*
G36*
X103449450Y-122008439D02*
G01*
X105049699Y-122008439D01*
X105049699Y-121445868D01*
X103449450Y-121445868D01*
X103449450Y-122008439D01*
G37*
D14*
G36*
X105050709Y-122011338D02*
G01*
X103598569Y-122011338D01*
X103449708Y-122011338D01*
X103449708Y-121863026D01*
X103598569Y-121863026D01*
X104899232Y-121863026D01*
X104899232Y-115759781D01*
X103598569Y-115759781D01*
X103598569Y-121863026D01*
X103449708Y-121863026D01*
X103449708Y-115611470D01*
X105050709Y-115611470D01*
X105050709Y-122011338D01*
G37*
D13*
%TO.C,D8*%
X105000000Y-108250000D02*
X105500000Y-109150000D01*
X105500000Y-109150000D02*
X106000000Y-108250000D01*
X106000000Y-108250000D02*
X105000000Y-108250000D01*
X106000000Y-109250000D02*
X105000000Y-109250000D01*
G36*
X104699450Y-111948439D02*
G01*
X106299699Y-111948439D01*
X106299699Y-111385868D01*
X104699450Y-111385868D01*
X104699450Y-111948439D01*
G37*
D14*
G36*
X106300709Y-111951338D02*
G01*
X104848569Y-111951338D01*
X104699708Y-111951338D01*
X104699708Y-111803026D01*
X104848569Y-111803026D01*
X106149232Y-111803026D01*
X106149232Y-105699781D01*
X104848569Y-105699781D01*
X104848569Y-111803026D01*
X104699708Y-111803026D01*
X104699708Y-105551470D01*
X106300709Y-105551470D01*
X106300709Y-111951338D01*
G37*
D15*
%TO.C,JP6*%
X154850000Y-44750000D02*
X157650000Y-44750000D01*
X154850000Y-46750000D02*
X154850000Y-44750000D01*
X157650000Y-44750000D02*
X157650000Y-46750000D01*
X157650000Y-46750000D02*
X154850000Y-46750000D01*
D13*
%TO.C,D10*%
X110000000Y-108250000D02*
X110500000Y-109150000D01*
X110500000Y-109150000D02*
X111000000Y-108250000D01*
X111000000Y-108250000D02*
X110000000Y-108250000D01*
X111000000Y-109250000D02*
X110000000Y-109250000D01*
G36*
X109699450Y-111948439D02*
G01*
X111299699Y-111948439D01*
X111299699Y-111385868D01*
X109699450Y-111385868D01*
X109699450Y-111948439D01*
G37*
D14*
G36*
X111300709Y-111951338D02*
G01*
X109848569Y-111951338D01*
X109699708Y-111951338D01*
X109699708Y-111803026D01*
X109848569Y-111803026D01*
X111149232Y-111803026D01*
X111149232Y-105699781D01*
X109848569Y-105699781D01*
X109848569Y-111803026D01*
X109699708Y-111803026D01*
X109699708Y-105551470D01*
X111300709Y-105551470D01*
X111300709Y-111951338D01*
G37*
D15*
%TO.C,SW23*%
X153500000Y-33500000D02*
X153500000Y-31500000D01*
X154550000Y-30200000D02*
X155000000Y-29750000D01*
X154550000Y-34800000D02*
X155000000Y-35250000D01*
X157500000Y-29750000D02*
X155000000Y-29750000D01*
X157500000Y-35250000D02*
X155000000Y-35250000D01*
X157950000Y-30200000D02*
X157500000Y-29750000D01*
X157950000Y-34800000D02*
X157500000Y-35250000D01*
X159000000Y-33500000D02*
X159000000Y-31500000D01*
D13*
%TO.C,D2*%
X90000000Y-108250000D02*
X90500000Y-109150000D01*
X90500000Y-109150000D02*
X91000000Y-108250000D01*
X91000000Y-108250000D02*
X90000000Y-108250000D01*
X91000000Y-109250000D02*
X90000000Y-109250000D01*
G36*
X89699450Y-111948439D02*
G01*
X91299699Y-111948439D01*
X91299699Y-111385868D01*
X89699450Y-111385868D01*
X89699450Y-111948439D01*
G37*
D14*
G36*
X91300709Y-111951338D02*
G01*
X89848569Y-111951338D01*
X89699708Y-111951338D01*
X89699708Y-111803026D01*
X89848569Y-111803026D01*
X91149232Y-111803026D01*
X91149232Y-105699781D01*
X89848569Y-105699781D01*
X89848569Y-111803026D01*
X89699708Y-111803026D01*
X89699708Y-105551470D01*
X91300709Y-105551470D01*
X91300709Y-111951338D01*
G37*
D15*
%TO.C,JP4*%
X154850000Y-41250000D02*
X157650000Y-41250000D01*
X154850000Y-43250000D02*
X154850000Y-41250000D01*
X157650000Y-41250000D02*
X157650000Y-43250000D01*
X157650000Y-43250000D02*
X154850000Y-43250000D01*
%TO.C,JP2*%
X154850000Y-38750000D02*
X157650000Y-38750000D01*
X154850000Y-40750000D02*
X154850000Y-38750000D01*
X157650000Y-38750000D02*
X157650000Y-40750000D01*
X157650000Y-40750000D02*
X154850000Y-40750000D01*
D13*
%TO.C,D20*%
X108750000Y-118310000D02*
X109250000Y-119210000D01*
X109250000Y-119210000D02*
X109750000Y-118310000D01*
X109750000Y-118310000D02*
X108750000Y-118310000D01*
X109750000Y-119310000D02*
X108750000Y-119310000D01*
G36*
X108449450Y-122008439D02*
G01*
X110049699Y-122008439D01*
X110049699Y-121445868D01*
X108449450Y-121445868D01*
X108449450Y-122008439D01*
G37*
D14*
G36*
X110050709Y-122011338D02*
G01*
X108598569Y-122011338D01*
X108449708Y-122011338D01*
X108449708Y-121863026D01*
X108598569Y-121863026D01*
X109899232Y-121863026D01*
X109899232Y-115759781D01*
X108598569Y-115759781D01*
X108598569Y-121863026D01*
X108449708Y-121863026D01*
X108449708Y-115611470D01*
X110050709Y-115611470D01*
X110050709Y-122011338D01*
G37*
D15*
%TO.C,B+1*%
X108800000Y-44800000D02*
X111200000Y-44800000D01*
X108800000Y-47200000D02*
X108800000Y-44800000D01*
X111200000Y-44800000D02*
X111200000Y-47200000D01*
X111200000Y-47200000D02*
X108800000Y-47200000D01*
D13*
%TO.C,D3*%
X92500000Y-108250000D02*
X93000000Y-109150000D01*
X93000000Y-109150000D02*
X93500000Y-108250000D01*
X93500000Y-108250000D02*
X92500000Y-108250000D01*
X93500000Y-109250000D02*
X92500000Y-109250000D01*
G36*
X92199450Y-111948439D02*
G01*
X93799699Y-111948439D01*
X93799699Y-111385868D01*
X92199450Y-111385868D01*
X92199450Y-111948439D01*
G37*
D14*
G36*
X93800709Y-111951338D02*
G01*
X92348569Y-111951338D01*
X92199708Y-111951338D01*
X92199708Y-111803026D01*
X92348569Y-111803026D01*
X93649232Y-111803026D01*
X93649232Y-105699781D01*
X92348569Y-105699781D01*
X92348569Y-111803026D01*
X92199708Y-111803026D01*
X92199708Y-105551470D01*
X93800709Y-105551470D01*
X93800709Y-111951338D01*
G37*
D13*
%TO.C,D21*%
X111250000Y-118310000D02*
X111750000Y-119210000D01*
X111750000Y-119210000D02*
X112250000Y-118310000D01*
X112250000Y-118310000D02*
X111250000Y-118310000D01*
X112250000Y-119310000D02*
X111250000Y-119310000D01*
G36*
X110949450Y-122008439D02*
G01*
X112549699Y-122008439D01*
X112549699Y-121445868D01*
X110949450Y-121445868D01*
X110949450Y-122008439D01*
G37*
D14*
G36*
X112550709Y-122011338D02*
G01*
X111098569Y-122011338D01*
X110949708Y-122011338D01*
X110949708Y-121863026D01*
X111098569Y-121863026D01*
X112399232Y-121863026D01*
X112399232Y-115759781D01*
X111098569Y-115759781D01*
X111098569Y-121863026D01*
X110949708Y-121863026D01*
X110949708Y-115611470D01*
X112550709Y-115611470D01*
X112550709Y-122011338D01*
G37*
D13*
%TO.C,J1*%
X162950000Y-27500000D02*
X162950000Y-39600000D01*
X163200000Y-27500000D02*
X163200000Y-25500000D01*
X168800000Y-25500000D02*
X163200000Y-25500000D01*
X168800000Y-27500000D02*
X168800000Y-25500000D01*
X169050000Y-27500000D02*
X162950000Y-27500000D01*
X169050000Y-27500000D02*
X169050000Y-39600000D01*
X169050000Y-39600000D02*
X162950000Y-39600000D01*
%TO.C,D13*%
X91250000Y-118310000D02*
X91750000Y-119210000D01*
X91750000Y-119210000D02*
X92250000Y-118310000D01*
X92250000Y-118310000D02*
X91250000Y-118310000D01*
X92250000Y-119310000D02*
X91250000Y-119310000D01*
G36*
X90949450Y-122008439D02*
G01*
X92549699Y-122008439D01*
X92549699Y-121445868D01*
X90949450Y-121445868D01*
X90949450Y-122008439D01*
G37*
D14*
G36*
X92550709Y-122011338D02*
G01*
X91098569Y-122011338D01*
X90949708Y-122011338D01*
X90949708Y-121863026D01*
X91098569Y-121863026D01*
X92399232Y-121863026D01*
X92399232Y-115759781D01*
X91098569Y-115759781D01*
X91098569Y-121863026D01*
X90949708Y-121863026D01*
X90949708Y-115611470D01*
X92550709Y-115611470D01*
X92550709Y-122011338D01*
G37*
D13*
%TO.C,D12*%
X88750000Y-118310000D02*
X89250000Y-119210000D01*
X89250000Y-119210000D02*
X89750000Y-118310000D01*
X89750000Y-118310000D02*
X88750000Y-118310000D01*
X89750000Y-119310000D02*
X88750000Y-119310000D01*
G36*
X88449450Y-122008439D02*
G01*
X90049699Y-122008439D01*
X90049699Y-121445868D01*
X88449450Y-121445868D01*
X88449450Y-122008439D01*
G37*
D14*
G36*
X90050709Y-122011338D02*
G01*
X88598569Y-122011338D01*
X88449708Y-122011338D01*
X88449708Y-121863026D01*
X88598569Y-121863026D01*
X89899232Y-121863026D01*
X89899232Y-115759781D01*
X88598569Y-115759781D01*
X88598569Y-121863026D01*
X88449708Y-121863026D01*
X88449708Y-115611470D01*
X90050709Y-115611470D01*
X90050709Y-122011338D01*
G37*
D15*
%TO.C,B-1*%
X114200000Y-46000000D02*
G75*
G02*
X111800000Y-46000000I-1200000J0D01*
G01*
X111800000Y-46000000D02*
G75*
G02*
X114200000Y-46000000I1200000J0D01*
G01*
D13*
%TO.C,D11*%
X112500000Y-108250000D02*
X113000000Y-109150000D01*
X113000000Y-109150000D02*
X113500000Y-108250000D01*
X113500000Y-108250000D02*
X112500000Y-108250000D01*
X113500000Y-109250000D02*
X112500000Y-109250000D01*
G36*
X112199450Y-111948439D02*
G01*
X113799699Y-111948439D01*
X113799699Y-111385868D01*
X112199450Y-111385868D01*
X112199450Y-111948439D01*
G37*
D14*
G36*
X113800709Y-111951338D02*
G01*
X112348569Y-111951338D01*
X112199708Y-111951338D01*
X112199708Y-111803026D01*
X112348569Y-111803026D01*
X113649232Y-111803026D01*
X113649232Y-105699781D01*
X112348569Y-105699781D01*
X112348569Y-111803026D01*
X112199708Y-111803026D01*
X112199708Y-105551470D01*
X113800709Y-105551470D01*
X113800709Y-111951338D01*
G37*
D13*
%TO.C,D16*%
X98750000Y-118310000D02*
X99250000Y-119210000D01*
X99250000Y-119210000D02*
X99750000Y-118310000D01*
X99750000Y-118310000D02*
X98750000Y-118310000D01*
X99750000Y-119310000D02*
X98750000Y-119310000D01*
G36*
X98449450Y-122008439D02*
G01*
X100049699Y-122008439D01*
X100049699Y-121445868D01*
X98449450Y-121445868D01*
X98449450Y-122008439D01*
G37*
D14*
G36*
X100050709Y-122011338D02*
G01*
X98598569Y-122011338D01*
X98449708Y-122011338D01*
X98449708Y-121863026D01*
X98598569Y-121863026D01*
X99899232Y-121863026D01*
X99899232Y-115759781D01*
X98598569Y-115759781D01*
X98598569Y-121863026D01*
X98449708Y-121863026D01*
X98449708Y-115611470D01*
X100050709Y-115611470D01*
X100050709Y-122011338D01*
G37*
D13*
%TO.C,D1*%
X87500000Y-108250000D02*
X88000000Y-109150000D01*
X88000000Y-109150000D02*
X88500000Y-108250000D01*
X88500000Y-108250000D02*
X87500000Y-108250000D01*
X88500000Y-109250000D02*
X87500000Y-109250000D01*
G36*
X87199450Y-111948439D02*
G01*
X88799699Y-111948439D01*
X88799699Y-111385868D01*
X87199450Y-111385868D01*
X87199450Y-111948439D01*
G37*
D14*
G36*
X88800709Y-111951338D02*
G01*
X87348569Y-111951338D01*
X87199708Y-111951338D01*
X87199708Y-111803026D01*
X87348569Y-111803026D01*
X88649232Y-111803026D01*
X88649232Y-105699781D01*
X87348569Y-105699781D01*
X87348569Y-111803026D01*
X87199708Y-111803026D01*
X87199708Y-105551470D01*
X88800709Y-105551470D01*
X88800709Y-111951338D01*
G37*
D13*
%TO.C,D6*%
X100000000Y-108250000D02*
X100500000Y-109150000D01*
X100500000Y-109150000D02*
X101000000Y-108250000D01*
X101000000Y-108250000D02*
X100000000Y-108250000D01*
X101000000Y-109250000D02*
X100000000Y-109250000D01*
G36*
X99699450Y-111948439D02*
G01*
X101299699Y-111948439D01*
X101299699Y-111385868D01*
X99699450Y-111385868D01*
X99699450Y-111948439D01*
G37*
D14*
G36*
X101300709Y-111951338D02*
G01*
X99848569Y-111951338D01*
X99699708Y-111951338D01*
X99699708Y-111803026D01*
X99848569Y-111803026D01*
X101149232Y-111803026D01*
X101149232Y-105699781D01*
X99848569Y-105699781D01*
X99848569Y-111803026D01*
X99699708Y-111803026D01*
X99699708Y-105551470D01*
X101300709Y-105551470D01*
X101300709Y-111951338D01*
G37*
D15*
%TO.C,SW22*%
X109550000Y-29650000D02*
X109550000Y-28850000D01*
X111600000Y-30750000D02*
X111400000Y-30750000D01*
X114600000Y-30750000D02*
X112900000Y-30750000D01*
X116450000Y-29650000D02*
X116450000Y-28850000D01*
D13*
%TO.C,D14*%
X93750000Y-118310000D02*
X94250000Y-119210000D01*
X94250000Y-119210000D02*
X94750000Y-118310000D01*
X94750000Y-118310000D02*
X93750000Y-118310000D01*
X94750000Y-119310000D02*
X93750000Y-119310000D01*
G36*
X93449450Y-122008439D02*
G01*
X95049699Y-122008439D01*
X95049699Y-121445868D01*
X93449450Y-121445868D01*
X93449450Y-122008439D01*
G37*
D14*
G36*
X95050709Y-122011338D02*
G01*
X93598569Y-122011338D01*
X93449708Y-122011338D01*
X93449708Y-121863026D01*
X93598569Y-121863026D01*
X94899232Y-121863026D01*
X94899232Y-115759781D01*
X93598569Y-115759781D01*
X93598569Y-121863026D01*
X93449708Y-121863026D01*
X93449708Y-115611470D01*
X95050709Y-115611470D01*
X95050709Y-122011338D01*
G37*
D13*
%TO.C,D7*%
X102500000Y-108250000D02*
X103000000Y-109150000D01*
X103000000Y-109150000D02*
X103500000Y-108250000D01*
X103500000Y-108250000D02*
X102500000Y-108250000D01*
X103500000Y-109250000D02*
X102500000Y-109250000D01*
G36*
X102199450Y-111948439D02*
G01*
X103799699Y-111948439D01*
X103799699Y-111385868D01*
X102199450Y-111385868D01*
X102199450Y-111948439D01*
G37*
D14*
G36*
X103800709Y-111951338D02*
G01*
X102348569Y-111951338D01*
X102199708Y-111951338D01*
X102199708Y-111803026D01*
X102348569Y-111803026D01*
X103649232Y-111803026D01*
X103649232Y-105699781D01*
X102348569Y-105699781D01*
X102348569Y-111803026D01*
X102199708Y-111803026D01*
X102199708Y-105551470D01*
X103800709Y-105551470D01*
X103800709Y-111951338D01*
G37*
D13*
%TO.C,D9*%
X107500000Y-108250000D02*
X108000000Y-109150000D01*
X108000000Y-109150000D02*
X108500000Y-108250000D01*
X108500000Y-108250000D02*
X107500000Y-108250000D01*
X108500000Y-109250000D02*
X107500000Y-109250000D01*
G36*
X107199450Y-111948439D02*
G01*
X108799699Y-111948439D01*
X108799699Y-111385868D01*
X107199450Y-111385868D01*
X107199450Y-111948439D01*
G37*
D14*
G36*
X108800709Y-111951338D02*
G01*
X107348569Y-111951338D01*
X107199708Y-111951338D01*
X107199708Y-111803026D01*
X107348569Y-111803026D01*
X108649232Y-111803026D01*
X108649232Y-105699781D01*
X107348569Y-105699781D01*
X107348569Y-111803026D01*
X107199708Y-111803026D01*
X107199708Y-105551470D01*
X108800709Y-105551470D01*
X108800709Y-111951338D01*
G37*
D13*
%TO.C,D5*%
X97500000Y-108250000D02*
X98000000Y-109150000D01*
X98000000Y-109150000D02*
X98500000Y-108250000D01*
X98500000Y-108250000D02*
X97500000Y-108250000D01*
X98500000Y-109250000D02*
X97500000Y-109250000D01*
G36*
X97199450Y-111948439D02*
G01*
X98799699Y-111948439D01*
X98799699Y-111385868D01*
X97199450Y-111385868D01*
X97199450Y-111948439D01*
G37*
D14*
G36*
X98800709Y-111951338D02*
G01*
X97348569Y-111951338D01*
X97199708Y-111951338D01*
X97199708Y-111803026D01*
X97348569Y-111803026D01*
X98649232Y-111803026D01*
X98649232Y-105699781D01*
X97348569Y-105699781D01*
X97348569Y-111803026D01*
X97199708Y-111803026D01*
X97199708Y-105551470D01*
X98800709Y-105551470D01*
X98800709Y-111951338D01*
G37*
D13*
%TO.C,D19*%
X106250000Y-118310000D02*
X106750000Y-119210000D01*
X106750000Y-119210000D02*
X107250000Y-118310000D01*
X107250000Y-118310000D02*
X106250000Y-118310000D01*
X107250000Y-119310000D02*
X106250000Y-119310000D01*
G36*
X105949450Y-122008439D02*
G01*
X107549699Y-122008439D01*
X107549699Y-121445868D01*
X105949450Y-121445868D01*
X105949450Y-122008439D01*
G37*
D14*
G36*
X107550709Y-122011338D02*
G01*
X106098569Y-122011338D01*
X105949708Y-122011338D01*
X105949708Y-121863026D01*
X106098569Y-121863026D01*
X107399232Y-121863026D01*
X107399232Y-115759781D01*
X106098569Y-115759781D01*
X106098569Y-121863026D01*
X105949708Y-121863026D01*
X105949708Y-115611470D01*
X107550709Y-115611470D01*
X107550709Y-122011338D01*
G37*
D15*
%TO.C,J3*%
X108190000Y-37125000D02*
X108190000Y-37625000D01*
X108480000Y-34015000D02*
X114200000Y-34015000D01*
X108480000Y-35085000D02*
X108480000Y-34015000D01*
X108480000Y-37415000D02*
X108480000Y-38485000D01*
X108480000Y-38485000D02*
X114200000Y-38485000D01*
X108490000Y-37125000D02*
X108190000Y-37125000D01*
X108780000Y-35085000D02*
X108480000Y-35085000D01*
X108780000Y-36250000D02*
X108780000Y-35085000D01*
X108780000Y-36250000D02*
X108780000Y-37415000D01*
X108780000Y-37415000D02*
X108480000Y-37415000D01*
X114200000Y-34015000D02*
X114200000Y-36250000D01*
X114200000Y-38485000D02*
X114200000Y-36250000D01*
D13*
%TO.C,D17*%
X101250000Y-118310000D02*
X101750000Y-119210000D01*
X101750000Y-119210000D02*
X102250000Y-118310000D01*
X102250000Y-118310000D02*
X101250000Y-118310000D01*
X102250000Y-119310000D02*
X101250000Y-119310000D01*
G36*
X100949450Y-122008439D02*
G01*
X102549699Y-122008439D01*
X102549699Y-121445868D01*
X100949450Y-121445868D01*
X100949450Y-122008439D01*
G37*
D14*
G36*
X102550709Y-122011338D02*
G01*
X101098569Y-122011338D01*
X100949708Y-122011338D01*
X100949708Y-121863026D01*
X101098569Y-121863026D01*
X102399232Y-121863026D01*
X102399232Y-115759781D01*
X101098569Y-115759781D01*
X101098569Y-121863026D01*
X100949708Y-121863026D01*
X100949708Y-115611470D01*
X102550709Y-115611470D01*
X102550709Y-122011338D01*
G37*
D13*
%TO.C,U1*%
X74000000Y-29000000D02*
X74000000Y-30270000D01*
X74000000Y-29000000D02*
X75270000Y-29000000D01*
X74000000Y-45730000D02*
X74000000Y-47000000D01*
X74000000Y-47000000D02*
X75270000Y-47000000D01*
X105730000Y-29000000D02*
X107000000Y-29000000D01*
X105730000Y-47000000D02*
X107000000Y-47000000D01*
X107000000Y-30270000D02*
X107000000Y-29000000D01*
X107000000Y-45730000D02*
X107000000Y-47000000D01*
%TD*%
%LPC*%
%TO.C,JP6*%
G36*
X155025000Y-45000000D02*
G01*
X157475000Y-45000000D01*
X157475000Y-46500000D01*
X155025000Y-46500000D01*
X155025000Y-45000000D01*
G37*
%TO.C,JP4*%
G36*
X157475000Y-43000000D02*
G01*
X155025000Y-43000000D01*
X155025000Y-41500000D01*
X157475000Y-41500000D01*
X157475000Y-43000000D01*
G37*
%TO.C,JP2*%
G36*
X157475000Y-40500000D02*
G01*
X155025000Y-40500000D01*
X155025000Y-39000000D01*
X157475000Y-39000000D01*
X157475000Y-40500000D01*
G37*
D11*
%TO.C,U1*%
X78288000Y-44096000D02*
X77272000Y-44096000D01*
X77272000Y-43080000D01*
X78288000Y-43080000D01*
X78288000Y-44096000D01*
G36*
X78288000Y-44096000D02*
G01*
X77272000Y-44096000D01*
X77272000Y-43080000D01*
X78288000Y-43080000D01*
X78288000Y-44096000D01*
G37*
X78288000Y-32920000D02*
X77272000Y-32920000D01*
X77272000Y-31904000D01*
X78288000Y-31904000D01*
X78288000Y-32920000D01*
G36*
X78288000Y-32920000D02*
G01*
X77272000Y-32920000D01*
X77272000Y-31904000D01*
X78288000Y-31904000D01*
X78288000Y-32920000D01*
G37*
X80828000Y-44096000D02*
X79812000Y-44096000D01*
X79812000Y-43080000D01*
X80828000Y-43080000D01*
X80828000Y-44096000D01*
G36*
X80828000Y-44096000D02*
G01*
X79812000Y-44096000D01*
X79812000Y-43080000D01*
X80828000Y-43080000D01*
X80828000Y-44096000D01*
G37*
X80828000Y-32920000D02*
X79812000Y-32920000D01*
X79812000Y-31904000D01*
X80828000Y-31904000D01*
X80828000Y-32920000D01*
G36*
X80828000Y-32920000D02*
G01*
X79812000Y-32920000D01*
X79812000Y-31904000D01*
X80828000Y-31904000D01*
X80828000Y-32920000D01*
G37*
X83368000Y-44096000D02*
X82352000Y-44096000D01*
X82352000Y-43080000D01*
X83368000Y-43080000D01*
X83368000Y-44096000D01*
G36*
X83368000Y-44096000D02*
G01*
X82352000Y-44096000D01*
X82352000Y-43080000D01*
X83368000Y-43080000D01*
X83368000Y-44096000D01*
G37*
X83368000Y-32920000D02*
X82352000Y-32920000D01*
X82352000Y-31904000D01*
X83368000Y-31904000D01*
X83368000Y-32920000D01*
G36*
X83368000Y-32920000D02*
G01*
X82352000Y-32920000D01*
X82352000Y-31904000D01*
X83368000Y-31904000D01*
X83368000Y-32920000D01*
G37*
X85908000Y-44096000D02*
X84892000Y-44096000D01*
X84892000Y-43080000D01*
X85908000Y-43080000D01*
X85908000Y-44096000D01*
G36*
X85908000Y-44096000D02*
G01*
X84892000Y-44096000D01*
X84892000Y-43080000D01*
X85908000Y-43080000D01*
X85908000Y-44096000D01*
G37*
X85908000Y-32920000D02*
X84892000Y-32920000D01*
X84892000Y-31904000D01*
X85908000Y-31904000D01*
X85908000Y-32920000D01*
G36*
X85908000Y-32920000D02*
G01*
X84892000Y-32920000D01*
X84892000Y-31904000D01*
X85908000Y-31904000D01*
X85908000Y-32920000D01*
G37*
X88448000Y-44096000D02*
X87432000Y-44096000D01*
X87432000Y-43080000D01*
X88448000Y-43080000D01*
X88448000Y-44096000D01*
G36*
X88448000Y-44096000D02*
G01*
X87432000Y-44096000D01*
X87432000Y-43080000D01*
X88448000Y-43080000D01*
X88448000Y-44096000D01*
G37*
X88448000Y-32920000D02*
X87432000Y-32920000D01*
X87432000Y-31904000D01*
X88448000Y-31904000D01*
X88448000Y-32920000D01*
G36*
X88448000Y-32920000D02*
G01*
X87432000Y-32920000D01*
X87432000Y-31904000D01*
X88448000Y-31904000D01*
X88448000Y-32920000D01*
G37*
X90988000Y-44096000D02*
X89972000Y-44096000D01*
X89972000Y-43080000D01*
X90988000Y-43080000D01*
X90988000Y-44096000D01*
G36*
X90988000Y-44096000D02*
G01*
X89972000Y-44096000D01*
X89972000Y-43080000D01*
X90988000Y-43080000D01*
X90988000Y-44096000D01*
G37*
X90988000Y-32920000D02*
X89972000Y-32920000D01*
X89972000Y-31904000D01*
X90988000Y-31904000D01*
X90988000Y-32920000D01*
G36*
X90988000Y-32920000D02*
G01*
X89972000Y-32920000D01*
X89972000Y-31904000D01*
X90988000Y-31904000D01*
X90988000Y-32920000D01*
G37*
X93528000Y-44096000D02*
X92512000Y-44096000D01*
X92512000Y-43080000D01*
X93528000Y-43080000D01*
X93528000Y-44096000D01*
G36*
X93528000Y-44096000D02*
G01*
X92512000Y-44096000D01*
X92512000Y-43080000D01*
X93528000Y-43080000D01*
X93528000Y-44096000D01*
G37*
X93528000Y-32920000D02*
X92512000Y-32920000D01*
X92512000Y-31904000D01*
X93528000Y-31904000D01*
X93528000Y-32920000D01*
G36*
X93528000Y-32920000D02*
G01*
X92512000Y-32920000D01*
X92512000Y-31904000D01*
X93528000Y-31904000D01*
X93528000Y-32920000D01*
G37*
X96068000Y-44096000D02*
X95052000Y-44096000D01*
X95052000Y-43080000D01*
X96068000Y-43080000D01*
X96068000Y-44096000D01*
G36*
X96068000Y-44096000D02*
G01*
X95052000Y-44096000D01*
X95052000Y-43080000D01*
X96068000Y-43080000D01*
X96068000Y-44096000D01*
G37*
X96068000Y-32920000D02*
X95052000Y-32920000D01*
X95052000Y-31904000D01*
X96068000Y-31904000D01*
X96068000Y-32920000D01*
G36*
X96068000Y-32920000D02*
G01*
X95052000Y-32920000D01*
X95052000Y-31904000D01*
X96068000Y-31904000D01*
X96068000Y-32920000D01*
G37*
X98608000Y-44096000D02*
X97592000Y-44096000D01*
X97592000Y-43080000D01*
X98608000Y-43080000D01*
X98608000Y-44096000D01*
G36*
X98608000Y-44096000D02*
G01*
X97592000Y-44096000D01*
X97592000Y-43080000D01*
X98608000Y-43080000D01*
X98608000Y-44096000D01*
G37*
X98608000Y-32920000D02*
X97592000Y-32920000D01*
X97592000Y-31904000D01*
X98608000Y-31904000D01*
X98608000Y-32920000D01*
G36*
X98608000Y-32920000D02*
G01*
X97592000Y-32920000D01*
X97592000Y-31904000D01*
X98608000Y-31904000D01*
X98608000Y-32920000D01*
G37*
X101148000Y-44096000D02*
X100132000Y-44096000D01*
X100132000Y-43080000D01*
X101148000Y-43080000D01*
X101148000Y-44096000D01*
G36*
X101148000Y-44096000D02*
G01*
X100132000Y-44096000D01*
X100132000Y-43080000D01*
X101148000Y-43080000D01*
X101148000Y-44096000D01*
G37*
X101148000Y-32920000D02*
X100132000Y-32920000D01*
X100132000Y-31904000D01*
X101148000Y-31904000D01*
X101148000Y-32920000D01*
G36*
X101148000Y-32920000D02*
G01*
X100132000Y-32920000D01*
X100132000Y-31904000D01*
X101148000Y-31904000D01*
X101148000Y-32920000D01*
G37*
X103688000Y-44096000D02*
X102672000Y-44096000D01*
X102672000Y-43080000D01*
X103688000Y-43080000D01*
X103688000Y-44096000D01*
G36*
X103688000Y-44096000D02*
G01*
X102672000Y-44096000D01*
X102672000Y-43080000D01*
X103688000Y-43080000D01*
X103688000Y-44096000D01*
G37*
X103688000Y-32920000D02*
X102672000Y-32920000D01*
X102672000Y-31904000D01*
X103688000Y-31904000D01*
X103688000Y-32920000D01*
G36*
X103688000Y-32920000D02*
G01*
X102672000Y-32920000D01*
X102672000Y-31904000D01*
X103688000Y-31904000D01*
X103688000Y-32920000D01*
G37*
X106228000Y-44096000D02*
X105212000Y-44096000D01*
X105212000Y-43080000D01*
X106228000Y-43080000D01*
X106228000Y-44096000D01*
G36*
X106228000Y-44096000D02*
G01*
X105212000Y-44096000D01*
X105212000Y-43080000D01*
X106228000Y-43080000D01*
X106228000Y-44096000D01*
G37*
X106228000Y-32920000D02*
X105212000Y-32920000D01*
X105212000Y-31904000D01*
X106228000Y-31904000D01*
X106228000Y-32920000D01*
G36*
X106228000Y-32920000D02*
G01*
X105212000Y-32920000D01*
X105212000Y-31904000D01*
X106228000Y-31904000D01*
X106228000Y-32920000D01*
G37*
%TD*%
D16*
%TO.C,SW18*%
X74875000Y-109920000D03*
D17*
X74875000Y-115000000D03*
D16*
X74875000Y-120080000D03*
D18*
X79955000Y-112460000D03*
X77415000Y-118810000D03*
%TD*%
D19*
%TO.C,D15*%
X96750000Y-122620000D03*
D20*
X96750000Y-120585000D03*
X96750000Y-117035000D03*
D21*
X96750000Y-115000000D03*
%TD*%
D19*
%TO.C,D4*%
X95500000Y-112560000D03*
D20*
X95500000Y-110525000D03*
X95500000Y-106975000D03*
D21*
X95500000Y-104940000D03*
%TD*%
D19*
%TO.C,D18*%
X104250000Y-122620000D03*
D20*
X104250000Y-120585000D03*
X104250000Y-117035000D03*
D21*
X104250000Y-115000000D03*
%TD*%
D19*
%TO.C,D8*%
X105500000Y-112560000D03*
D20*
X105500000Y-110525000D03*
X105500000Y-106975000D03*
D21*
X105500000Y-104940000D03*
%TD*%
D22*
%TO.C,JP6*%
X155525000Y-45750000D03*
D23*
X156975000Y-45750000D03*
%TD*%
D16*
%TO.C,SW11*%
X152920000Y-77000000D03*
D17*
X158000000Y-77000000D03*
D16*
X163080000Y-77000000D03*
D18*
X155460000Y-71920000D03*
X161810000Y-74460000D03*
%TD*%
D16*
%TO.C,SW6*%
X167500000Y-63080000D03*
D17*
X167500000Y-58000000D03*
D16*
X167500000Y-52920000D03*
D18*
X162420000Y-60540000D03*
X164960000Y-54190000D03*
%TD*%
D16*
%TO.C,SW15*%
X124420000Y-96000000D03*
D17*
X129500000Y-96000000D03*
D16*
X134580000Y-96000000D03*
D18*
X126960000Y-90920000D03*
X133310000Y-93460000D03*
%TD*%
D16*
%TO.C,SW7*%
X76920000Y-77000000D03*
D17*
X82000000Y-77000000D03*
D16*
X87080000Y-77000000D03*
D18*
X79460000Y-71920000D03*
X85810000Y-74460000D03*
%TD*%
D16*
%TO.C,SW13*%
X86420000Y-96000000D03*
D17*
X91500000Y-96000000D03*
D16*
X96580000Y-96000000D03*
D18*
X88960000Y-90920000D03*
X95310000Y-93460000D03*
%TD*%
D19*
%TO.C,D10*%
X110500000Y-112560000D03*
D20*
X110500000Y-110525000D03*
X110500000Y-106975000D03*
D21*
X110500000Y-104940000D03*
%TD*%
D24*
%TO.C,SW23*%
X159400000Y-34400000D03*
X153100000Y-34400000D03*
X159400000Y-30600000D03*
X153100000Y-30600000D03*
%TD*%
D16*
%TO.C,SW10*%
X133920000Y-77000000D03*
D17*
X139000000Y-77000000D03*
D16*
X144080000Y-77000000D03*
D18*
X136460000Y-71920000D03*
X142810000Y-74460000D03*
%TD*%
D16*
%TO.C,SW12*%
X72500000Y-90920000D03*
D17*
X72500000Y-96000000D03*
D16*
X72500000Y-101080000D03*
D18*
X77580000Y-93460000D03*
X75040000Y-99810000D03*
%TD*%
D16*
%TO.C,SW19*%
X119670000Y-115000000D03*
D17*
X124750000Y-115000000D03*
D16*
X129830000Y-115000000D03*
D18*
X122210000Y-109920000D03*
X128560000Y-112460000D03*
%TD*%
D19*
%TO.C,D2*%
X90500000Y-112560000D03*
D20*
X90500000Y-110525000D03*
X90500000Y-106975000D03*
D21*
X90500000Y-104940000D03*
%TD*%
D16*
%TO.C,SW1*%
X72500000Y-52920000D03*
D17*
X72500000Y-58000000D03*
D16*
X72500000Y-63080000D03*
D18*
X77580000Y-55460000D03*
X75040000Y-61810000D03*
%TD*%
D25*
%TO.C,JP4*%
X156975000Y-42250000D03*
D26*
X155525000Y-42250000D03*
%TD*%
D25*
%TO.C,JP2*%
X156975000Y-39750000D03*
D26*
X155525000Y-39750000D03*
%TD*%
D19*
%TO.C,D20*%
X109250000Y-122620000D03*
D20*
X109250000Y-120585000D03*
X109250000Y-117035000D03*
D21*
X109250000Y-115000000D03*
%TD*%
D16*
%TO.C,SW17*%
X167500000Y-101080000D03*
D17*
X167500000Y-96000000D03*
D16*
X167500000Y-90920000D03*
D18*
X162420000Y-98540000D03*
X164960000Y-92190000D03*
%TD*%
D27*
%TO.C,B+1*%
X110000000Y-46000000D03*
%TD*%
D16*
%TO.C,SW16*%
X143420000Y-96000000D03*
D17*
X148500000Y-96000000D03*
D16*
X153580000Y-96000000D03*
D18*
X145960000Y-90920000D03*
X152310000Y-93460000D03*
%TD*%
D16*
%TO.C,SW4*%
X124420000Y-58000000D03*
D17*
X129500000Y-58000000D03*
D16*
X134580000Y-58000000D03*
D18*
X126960000Y-52920000D03*
X133310000Y-55460000D03*
%TD*%
D16*
%TO.C,SW2*%
X86420000Y-58000000D03*
D17*
X91500000Y-58000000D03*
D16*
X96580000Y-58000000D03*
D18*
X88960000Y-52920000D03*
X95310000Y-55460000D03*
%TD*%
D16*
%TO.C,SW5*%
X143420000Y-58000000D03*
D17*
X148500000Y-58000000D03*
D16*
X153580000Y-58000000D03*
D18*
X145960000Y-52920000D03*
X152310000Y-55460000D03*
%TD*%
D19*
%TO.C,D3*%
X93000000Y-112560000D03*
D20*
X93000000Y-110525000D03*
X93000000Y-106975000D03*
D21*
X93000000Y-104940000D03*
%TD*%
D16*
%TO.C,SW21*%
X155625000Y-120080000D03*
D17*
X155625000Y-115000000D03*
D16*
X155625000Y-109920000D03*
D18*
X150545000Y-117540000D03*
X153085000Y-111190000D03*
%TD*%
D19*
%TO.C,D21*%
X111750000Y-122620000D03*
D20*
X111750000Y-120585000D03*
X111750000Y-117035000D03*
D21*
X111750000Y-115000000D03*
%TD*%
D28*
%TO.C,J1*%
X166000000Y-29100000D03*
X166000000Y-36100000D03*
D29*
X168300000Y-33700000D03*
X168300000Y-30700000D03*
X163700000Y-38800000D03*
X168300000Y-37700000D03*
%TD*%
D19*
%TO.C,D13*%
X91750000Y-122620000D03*
D20*
X91750000Y-120585000D03*
X91750000Y-117035000D03*
D21*
X91750000Y-115000000D03*
%TD*%
D19*
%TO.C,D12*%
X89250000Y-122620000D03*
D20*
X89250000Y-120585000D03*
X89250000Y-117035000D03*
D21*
X89250000Y-115000000D03*
%TD*%
D30*
%TO.C,B-1*%
X113000000Y-46000000D03*
%TD*%
D19*
%TO.C,D11*%
X113000000Y-112560000D03*
D20*
X113000000Y-110525000D03*
X113000000Y-106975000D03*
D21*
X113000000Y-104940000D03*
%TD*%
D16*
%TO.C,SW20*%
X143750000Y-120080000D03*
D17*
X143750000Y-115000000D03*
D16*
X143750000Y-109920000D03*
D18*
X138670000Y-117540000D03*
X141210000Y-111190000D03*
%TD*%
D19*
%TO.C,D16*%
X99250000Y-122620000D03*
D20*
X99250000Y-120585000D03*
X99250000Y-117035000D03*
D21*
X99250000Y-115000000D03*
%TD*%
D19*
%TO.C,D1*%
X88000000Y-112560000D03*
D20*
X88000000Y-110525000D03*
X88000000Y-106975000D03*
D21*
X88000000Y-104940000D03*
%TD*%
D16*
%TO.C,SW14*%
X105420000Y-96000000D03*
D17*
X110500000Y-96000000D03*
D16*
X115580000Y-96000000D03*
D18*
X107960000Y-90920000D03*
X114310000Y-93460000D03*
%TD*%
D19*
%TO.C,D6*%
X100500000Y-112560000D03*
D20*
X100500000Y-110525000D03*
X100500000Y-106975000D03*
D21*
X100500000Y-104940000D03*
%TD*%
D16*
%TO.C,SW9*%
X114920000Y-77000000D03*
D17*
X120000000Y-77000000D03*
D16*
X125080000Y-77000000D03*
D18*
X117460000Y-71920000D03*
X123810000Y-74460000D03*
%TD*%
D31*
%TO.C,SW22*%
X114500000Y-29250000D03*
X111500000Y-29250000D03*
D32*
X115250000Y-31200000D03*
X112250000Y-31200000D03*
X110750000Y-31200000D03*
D33*
X116675000Y-30350000D03*
X116675000Y-28150000D03*
X109325000Y-30350000D03*
X109325000Y-28150000D03*
%TD*%
D16*
%TO.C,SW21*%
X165125000Y-120080000D03*
D17*
X165125000Y-115000000D03*
D16*
X165125000Y-109920000D03*
D18*
X160045000Y-117540000D03*
X162585000Y-111190000D03*
%TD*%
D19*
%TO.C,D14*%
X94250000Y-122620000D03*
D20*
X94250000Y-120585000D03*
X94250000Y-117035000D03*
D21*
X94250000Y-115000000D03*
%TD*%
D19*
%TO.C,D7*%
X103000000Y-112560000D03*
D20*
X103000000Y-110525000D03*
X103000000Y-106975000D03*
D21*
X103000000Y-104940000D03*
%TD*%
D19*
%TO.C,D9*%
X108000000Y-112560000D03*
D20*
X108000000Y-110525000D03*
X108000000Y-106975000D03*
D21*
X108000000Y-104940000D03*
%TD*%
D19*
%TO.C,D5*%
X98000000Y-112560000D03*
D20*
X98000000Y-110525000D03*
X98000000Y-106975000D03*
D21*
X98000000Y-104940000D03*
%TD*%
D19*
%TO.C,D19*%
X106750000Y-122620000D03*
D20*
X106750000Y-120585000D03*
X106750000Y-117035000D03*
D21*
X106750000Y-115000000D03*
%TD*%
D16*
%TO.C,SW8*%
X95920000Y-77000000D03*
D17*
X101000000Y-77000000D03*
D16*
X106080000Y-77000000D03*
D18*
X98460000Y-71920000D03*
X104810000Y-74460000D03*
%TD*%
D16*
%TO.C,SW3*%
X105420000Y-58000000D03*
D17*
X110500000Y-58000000D03*
D16*
X115580000Y-58000000D03*
D18*
X107960000Y-52920000D03*
X114310000Y-55460000D03*
%TD*%
D34*
%TO.C,J3*%
X109640000Y-36875000D03*
D35*
X109640000Y-35625000D03*
%TD*%
D19*
%TO.C,D17*%
X101750000Y-122620000D03*
D20*
X101750000Y-120585000D03*
X101750000Y-117035000D03*
D21*
X101750000Y-115000000D03*
%TD*%
D36*
%TO.C,J3*%
X109640000Y-40625000D03*
D35*
X109640000Y-41875000D03*
%TD*%
D28*
%TO.C,J2*%
X166000000Y-36100000D03*
X166000000Y-29100000D03*
D29*
X163700000Y-33700000D03*
X163700000Y-30700000D03*
X168300000Y-38800000D03*
X163700000Y-37700000D03*
%TD*%
D27*
%TO.C,B+1*%
X110000000Y-46000000D03*
%TD*%
D37*
%TO.C,U1*%
X77780000Y-30380000D03*
D38*
X77780000Y-30380000D03*
D39*
X77780000Y-32158000D03*
D40*
X77780000Y-43842000D03*
D37*
X77780000Y-45620000D03*
X80320000Y-30380000D03*
D39*
X80320000Y-32158000D03*
D40*
X80320000Y-43842000D03*
D37*
X80320000Y-45620000D03*
X82860000Y-30380000D03*
D39*
X82860000Y-32158000D03*
D40*
X82860000Y-43842000D03*
D37*
X82860000Y-45620000D03*
X85400000Y-30380000D03*
D39*
X85400000Y-32158000D03*
D40*
X85400000Y-43842000D03*
D37*
X85400000Y-45620000D03*
X87940000Y-30380000D03*
D39*
X87940000Y-32158000D03*
D40*
X87940000Y-43842000D03*
D37*
X87940000Y-45620000D03*
X90480000Y-30380000D03*
D39*
X90480000Y-32158000D03*
D40*
X90480000Y-43842000D03*
D37*
X90480000Y-45620000D03*
X93020000Y-30380000D03*
D39*
X93020000Y-32158000D03*
D40*
X93020000Y-43842000D03*
D37*
X93020000Y-45620000D03*
X95560000Y-30380000D03*
D39*
X95560000Y-32158000D03*
D40*
X95560000Y-43842000D03*
D37*
X95560000Y-45620000D03*
X98100000Y-30380000D03*
D39*
X98100000Y-32158000D03*
D40*
X98100000Y-43842000D03*
D37*
X98100000Y-45620000D03*
X100640000Y-30380000D03*
D39*
X100640000Y-32158000D03*
D40*
X100640000Y-43842000D03*
D37*
X100640000Y-45620000D03*
X103180000Y-30380000D03*
D39*
X103180000Y-32158000D03*
D40*
X103180000Y-43842000D03*
D37*
X103180000Y-45620000D03*
X105720000Y-30380000D03*
D39*
X105720000Y-32158000D03*
D40*
X105720000Y-43842000D03*
D37*
X105720000Y-45620000D03*
D41*
X77780000Y-42826000D03*
X80320000Y-42826000D03*
X82860000Y-42826000D03*
X85400000Y-42826000D03*
X87940000Y-42826000D03*
X90480000Y-42826000D03*
X93020000Y-42826000D03*
X95560000Y-42826000D03*
X98100000Y-42826000D03*
X100640000Y-42826000D03*
X103180000Y-42826000D03*
X105720000Y-42826000D03*
D42*
X105720000Y-33174000D03*
X103180000Y-33174000D03*
X100640000Y-33174000D03*
X98100000Y-33174000D03*
X95560000Y-33174000D03*
X93020000Y-33174000D03*
X90480000Y-33174000D03*
X87940000Y-33174000D03*
X85400000Y-33174000D03*
X82860000Y-33174000D03*
X80320000Y-33174000D03*
X77780000Y-33174000D03*
%TD*%
D31*
%TO.C,SW22*%
X111500000Y-29250000D03*
X114500000Y-29250000D03*
%TD*%
D30*
%TO.C,B-1*%
X113000000Y-46000000D03*
%TD*%
%LPD*%
M02*
