M48
; DRILL file {KiCad 9.0.4} date 2026-01-29T08:09:11+0900
; FORMAT={-:-/ absolute / metric / decimal}
; #@! TF.CreationDate,2026-01-29T08:09:11+09:00
; #@! TF.GenerationSoftware,Kicad,Pcbnew,9.0.4
; #@! TF.FileFunction,NonPlated,1,2,NPTH
FMAT,2
METRIC
; #@! TA.AperFunction,NonPlated,NPTH,ComponentDrill
T1C0.800
; #@! TA.AperFunction,NonPlated,NPTH,ComponentDrill
T2C0.850
; #@! TA.AperFunction,NonPlated,NPTH,ComponentDrill
T3C1.702
; #@! TA.AperFunction,NonPlated,NPTH,ComponentDrill
T4C3.000
; #@! TA.AperFunction,NonPlated,NPTH,ComponentDrill
T5C4.000
%
G90
G05
T1
X166.0Y-29.1
X166.0Y-29.1
X166.0Y-36.1
X166.0Y-36.1
T2
X111.5Y-29.25
X111.5Y-29.25
X114.5Y-29.25
X114.5Y-29.25
T3
X72.5Y-52.92
X72.5Y-63.08
X72.5Y-90.92
X72.5Y-101.08
X74.875Y-109.92
X74.875Y-120.08
X76.92Y-77.0
X86.42Y-58.0
X86.42Y-96.0
X87.08Y-77.0
X95.92Y-77.0
X96.58Y-58.0
X96.58Y-96.0
X105.42Y-58.0
X105.42Y-96.0
X106.08Y-77.0
X114.92Y-77.0
X115.58Y-58.0
X115.58Y-96.0
X119.67Y-115.0
X124.42Y-58.0
X124.42Y-96.0
X125.08Y-77.0
X129.83Y-115.0
X133.92Y-77.0
X134.58Y-58.0
X134.58Y-96.0
X143.42Y-58.0
X143.42Y-96.0
X143.75Y-109.92
X143.75Y-120.08
X144.08Y-77.0
X152.92Y-77.0
X153.58Y-58.0
X153.58Y-96.0
X155.625Y-109.92
X155.625Y-120.08
X163.08Y-77.0
X165.125Y-109.92
X165.125Y-120.08
X167.5Y-52.92
X167.5Y-63.08
X167.5Y-90.92
X167.5Y-101.08
T4
X75.04Y-54.19
X75.04Y-61.81
X75.04Y-92.19
X75.04Y-99.81
X77.415Y-111.19
X77.415Y-118.81
X77.58Y-55.46
X77.58Y-60.54
X77.58Y-93.46
X77.58Y-98.54
X78.19Y-74.46
X79.46Y-71.92
X79.955Y-112.46
X79.955Y-117.54
X84.54Y-71.92
X85.81Y-74.46
X87.69Y-55.46
X87.69Y-93.46
X88.96Y-52.92
X88.96Y-90.92
X94.04Y-52.92
X94.04Y-90.92
X95.31Y-55.46
X95.31Y-93.46
X97.19Y-74.46
X98.46Y-71.92
X103.54Y-71.92
X104.81Y-74.46
X106.69Y-55.46
X106.69Y-93.46
X107.96Y-52.92
X107.96Y-90.92
X113.04Y-52.92
X113.04Y-90.92
X114.31Y-55.46
X114.31Y-93.46
X116.19Y-74.46
X117.46Y-71.92
X120.94Y-112.46
X122.21Y-109.92
X122.54Y-71.92
X123.81Y-74.46
X125.69Y-55.46
X125.69Y-93.46
X126.96Y-52.92
X126.96Y-90.92
X127.29Y-109.92
X128.56Y-112.46
X132.04Y-52.92
X132.04Y-90.92
X133.31Y-55.46
X133.31Y-93.46
X135.19Y-74.46
X136.46Y-71.92
X138.67Y-112.46
X138.67Y-117.54
X141.21Y-111.19
X141.21Y-118.81
X141.54Y-71.92
X142.81Y-74.46
X144.69Y-55.46
X144.69Y-93.46
X145.96Y-52.92
X145.96Y-90.92
X150.545Y-112.46
X150.545Y-117.54
X151.04Y-52.92
X151.04Y-90.92
X152.31Y-55.46
X152.31Y-93.46
X153.085Y-111.19
X153.085Y-118.81
X154.19Y-74.46
X155.46Y-71.92
X160.045Y-112.46
X160.045Y-117.54
X160.54Y-71.92
X161.81Y-74.46
X162.42Y-55.46
X162.42Y-60.54
X162.42Y-93.46
X162.42Y-98.54
X162.585Y-111.19
X162.585Y-118.81
X164.96Y-54.19
X164.96Y-61.81
X164.96Y-92.19
X164.96Y-99.81
T5
X72.5Y-58.0
X72.5Y-96.0
X74.875Y-115.0
X82.0Y-77.0
X91.5Y-58.0
X91.5Y-96.0
X101.0Y-77.0
X110.5Y-58.0
X110.5Y-96.0
X120.0Y-77.0
X124.75Y-115.0
X129.5Y-58.0
X129.5Y-96.0
X139.0Y-77.0
X143.75Y-115.0
X148.5Y-58.0
X148.5Y-96.0
X155.625Y-115.0
X158.0Y-77.0
X165.125Y-115.0
X167.5Y-58.0
X167.5Y-96.0
M30
