M48
; DRILL file {KiCad 9.0.4} date 2026-01-31T06:16:27+0900
; FORMAT={-:-/ absolute / metric / decimal}
; #@! TF.CreationDate,2026-01-31T06:16:27+09:00
; #@! TF.GenerationSoftware,Kicad,Pcbnew,9.0.4
; #@! TF.FileFunction,NonPlated,1,2,NPTH
FMAT,2
METRIC
; #@! TA.AperFunction,NonPlated,NPTH,ComponentDrill
T1C0.800
; #@! TA.AperFunction,NonPlated,NPTH,ComponentDrill
T2C0.850
; #@! TA.AperFunction,NonPlated,NPTH,ComponentDrill
T3C1.700
; #@! TA.AperFunction,NonPlated,NPTH,ComponentDrill
T4C4.000
%
G90
G05
T1
X166.0Y-29.1
X166.0Y-29.1
X166.0Y-36.1
X166.0Y-36.1
T2
X111.5Y-29.25
X111.5Y-29.25
X114.5Y-29.25
X114.5Y-29.25
T3
X72.5Y-52.92
X72.5Y-63.08
X72.5Y-90.92
X72.5Y-101.08
X74.875Y-109.92
X74.875Y-120.08
X76.92Y-77.0
X86.42Y-58.0
X86.42Y-96.0
X87.08Y-77.0
X95.92Y-77.0
X96.58Y-58.0
X96.58Y-96.0
X105.42Y-58.0
X105.42Y-96.0
X106.08Y-77.0
X114.92Y-77.0
X115.58Y-58.0
X115.58Y-96.0
X119.67Y-115.0
X124.42Y-58.0
X124.42Y-96.0
X125.08Y-77.0
X129.83Y-115.0
X133.92Y-77.0
X134.58Y-58.0
X134.58Y-96.0
X143.42Y-58.0
X143.42Y-96.0
X143.75Y-109.92
X143.75Y-120.08
X144.08Y-77.0
X152.92Y-77.0
X153.58Y-58.0
X153.58Y-96.0
X155.625Y-109.92
X155.625Y-120.08
X163.08Y-77.0
X165.125Y-109.92
X165.125Y-120.08
X167.5Y-52.92
X167.5Y-63.08
X167.5Y-90.92
X167.5Y-101.08
T4
X72.5Y-58.0
X72.5Y-96.0
X74.875Y-115.0
X82.0Y-77.0
X91.5Y-58.0
X91.5Y-96.0
X101.0Y-77.0
X110.5Y-58.0
X110.5Y-96.0
X120.0Y-77.0
X124.75Y-115.0
X129.5Y-58.0
X129.5Y-96.0
X139.0Y-77.0
X143.75Y-115.0
X148.5Y-58.0
X148.5Y-96.0
X155.625Y-115.0
X158.0Y-77.0
X165.125Y-115.0
X167.5Y-58.0
X167.5Y-96.0
M30
