%TF.GenerationSoftware,KiCad,Pcbnew,9.0.4*%
%TF.CreationDate,2026-01-29T08:09:26+09:00*%
%TF.ProjectId,ansik,616e7369-6b2e-46b6-9963-61645f706362,rev?*%
%TF.SameCoordinates,Original*%
%TF.FileFunction,Paste,Top*%
%TF.FilePolarity,Positive*%
%FSLAX46Y46*%
G04 Gerber Fmt 4.6, Leading zero omitted, Abs format (unit mm)*
G04 Created by KiCad (PCBNEW 9.0.4) date 2026-01-29 08:09:26*
%MOMM*%
%LPD*%
G01*
G04 APERTURE LIST*
G04 Aperture macros list*
%AMRoundRect*
0 Rectangle with rounded corners*
0 $1 Rounding radius*
0 $2 $3 $4 $5 $6 $7 $8 $9 X,Y pos of 4 corners*
0 Add a 4 corners polygon primitive as box body*
4,1,4,$2,$3,$4,$5,$6,$7,$8,$9,$2,$3,0*
0 Add four circle primitives for the rounded corners*
1,1,$1+$1,$2,$3*
1,1,$1+$1,$4,$5*
1,1,$1+$1,$6,$7*
1,1,$1+$1,$8,$9*
0 Add four rect primitives between the rounded corners*
20,1,$1+$1,$2,$3,$4,$5,0*
20,1,$1+$1,$4,$5,$6,$7,0*
20,1,$1+$1,$6,$7,$8,$9,0*
20,1,$1+$1,$8,$9,$2,$3,0*%
G04 Aperture macros list end*
%ADD10R,2.500000X2.500000*%
%ADD11R,0.940000X1.400000*%
%ADD12R,1.700000X1.000000*%
%ADD13RoundRect,0.150000X0.150000X0.500000X-0.150000X0.500000X-0.150000X-0.500000X0.150000X-0.500000X0*%
%ADD14RoundRect,0.175000X0.350000X0.175000X-0.350000X0.175000X-0.350000X-0.175000X0.350000X-0.175000X0*%
%ADD15C,1.600000*%
%ADD16R,1.600000X1.600000*%
G04 APERTURE END LIST*
D10*
%TO.C,SW18*%
X79955000Y-109158000D03*
X77415000Y-122085000D03*
%TD*%
%TO.C,SW11*%
X152158000Y-71920000D03*
X165085000Y-74460000D03*
%TD*%
%TO.C,SW6*%
X162420000Y-63842000D03*
X164960000Y-50915000D03*
%TD*%
%TO.C,SW15*%
X123658000Y-90920000D03*
X136585000Y-93460000D03*
%TD*%
%TO.C,SW7*%
X76158000Y-71920000D03*
X89085000Y-74460000D03*
%TD*%
%TO.C,SW13*%
X85658000Y-90920000D03*
X98585000Y-93460000D03*
%TD*%
%TO.C,SW10*%
X133158000Y-71920000D03*
X146085000Y-74460000D03*
%TD*%
%TO.C,SW12*%
X77580000Y-90158000D03*
X75040000Y-103085000D03*
%TD*%
%TO.C,SW19*%
X118908000Y-109920000D03*
X131835000Y-112460000D03*
%TD*%
%TO.C,SW1*%
X77580000Y-52158000D03*
X75040000Y-65085000D03*
%TD*%
%TO.C,SW17*%
X162420000Y-101842000D03*
X164960000Y-88915000D03*
%TD*%
%TO.C,SW16*%
X142658000Y-90920000D03*
X155585000Y-93460000D03*
%TD*%
%TO.C,SW4*%
X123658000Y-52920000D03*
X136585000Y-55460000D03*
%TD*%
%TO.C,SW2*%
X85658000Y-52920000D03*
X98585000Y-55460000D03*
%TD*%
%TO.C,SW5*%
X142658000Y-52920000D03*
X155585000Y-55460000D03*
%TD*%
%TO.C,SW20*%
X150545000Y-120842000D03*
X153085000Y-107915000D03*
%TD*%
%TO.C,SW20*%
X138670000Y-120842000D03*
X141210000Y-107915000D03*
%TD*%
%TO.C,SW14*%
X104658000Y-90920000D03*
X117585000Y-93460000D03*
%TD*%
%TO.C,SW9*%
X114158000Y-71920000D03*
X127085000Y-74460000D03*
%TD*%
%TO.C,SW21*%
X160045000Y-120842000D03*
X162585000Y-107915000D03*
%TD*%
%TO.C,SW8*%
X95158000Y-71920000D03*
X108085000Y-74460000D03*
%TD*%
%TO.C,SW3*%
X104658000Y-52920000D03*
X117585000Y-55460000D03*
%TD*%
D11*
%TO.C,D15*%
X96750000Y-120585000D03*
X96750000Y-117035000D03*
%TD*%
%TO.C,D4*%
X95500000Y-110525000D03*
X95500000Y-106975000D03*
%TD*%
%TO.C,D18*%
X104250000Y-120585000D03*
X104250000Y-117035000D03*
%TD*%
%TO.C,D8*%
X105500000Y-110525000D03*
X105500000Y-106975000D03*
%TD*%
%TO.C,D10*%
X110500000Y-110525000D03*
X110500000Y-106975000D03*
%TD*%
D12*
%TO.C,SW23*%
X159400000Y-34400000D03*
X153100000Y-34400000D03*
X159400000Y-30600000D03*
X153100000Y-30600000D03*
%TD*%
D11*
%TO.C,D2*%
X90500000Y-110525000D03*
X90500000Y-106975000D03*
%TD*%
%TO.C,D20*%
X109250000Y-120585000D03*
X109250000Y-117035000D03*
%TD*%
%TO.C,D3*%
X93000000Y-110525000D03*
X93000000Y-106975000D03*
%TD*%
%TO.C,D21*%
X111750000Y-120585000D03*
X111750000Y-117035000D03*
%TD*%
%TO.C,D13*%
X91750000Y-120585000D03*
X91750000Y-117035000D03*
%TD*%
%TO.C,D12*%
X89250000Y-120585000D03*
X89250000Y-117035000D03*
%TD*%
%TO.C,D11*%
X113000000Y-110525000D03*
X113000000Y-106975000D03*
%TD*%
%TO.C,D16*%
X99250000Y-120585000D03*
X99250000Y-117035000D03*
%TD*%
%TO.C,D1*%
X88000000Y-110525000D03*
X88000000Y-106975000D03*
%TD*%
%TO.C,D6*%
X100500000Y-110525000D03*
X100500000Y-106975000D03*
%TD*%
D13*
%TO.C,SW22*%
X115250000Y-31200000D03*
X112250000Y-31200000D03*
X110750000Y-31200000D03*
D14*
X116675000Y-30350000D03*
X116675000Y-28150000D03*
X109325000Y-30350000D03*
X109325000Y-28150000D03*
%TD*%
D11*
%TO.C,D14*%
X94250000Y-120585000D03*
X94250000Y-117035000D03*
%TD*%
%TO.C,D7*%
X103000000Y-110525000D03*
X103000000Y-106975000D03*
%TD*%
%TO.C,D9*%
X108000000Y-110525000D03*
X108000000Y-106975000D03*
%TD*%
%TO.C,D5*%
X98000000Y-110525000D03*
X98000000Y-106975000D03*
%TD*%
%TO.C,D19*%
X106750000Y-120585000D03*
X106750000Y-117035000D03*
%TD*%
%TO.C,D17*%
X101750000Y-120585000D03*
X101750000Y-117035000D03*
%TD*%
D15*
%TO.C,U1*%
X77780000Y-30380000D03*
D16*
X77780000Y-30380000D03*
D15*
X77780000Y-45620000D03*
X80320000Y-30380000D03*
X80320000Y-45620000D03*
X82860000Y-30380000D03*
X82860000Y-45620000D03*
X85400000Y-30380000D03*
X85400000Y-45620000D03*
X87940000Y-30380000D03*
X87940000Y-45620000D03*
X90480000Y-30380000D03*
X90480000Y-45620000D03*
X93020000Y-30380000D03*
X93020000Y-45620000D03*
X95560000Y-30380000D03*
X95560000Y-45620000D03*
X98100000Y-30380000D03*
X98100000Y-45620000D03*
X100640000Y-30380000D03*
X100640000Y-45620000D03*
X103180000Y-30380000D03*
X103180000Y-45620000D03*
X105720000Y-30380000D03*
X105720000Y-45620000D03*
%TD*%
M02*
