%TF.GenerationSoftware,KiCad,Pcbnew,9.0.4*%
%TF.CreationDate,2026-01-29T19:20:30+09:00*%
%TF.ProjectId,ansic,616e7369-632e-46b6-9963-61645f706362,rev?*%
%TF.SameCoordinates,Original*%
%TF.FileFunction,Soldermask,Top*%
%TF.FilePolarity,Negative*%
%FSLAX46Y46*%
G04 Gerber Fmt 4.6, Leading zero omitted, Abs format (unit mm)*
G04 Created by KiCad (PCBNEW 9.0.4) date 2026-01-29 19:20:30*
%MOMM*%
%LPD*%
G01*
G04 APERTURE LIST*
G04 Aperture macros list*
%AMRoundRect*
0 Rectangle with rounded corners*
0 $1 Rounding radius*
0 $2 $3 $4 $5 $6 $7 $8 $9 X,Y pos of 4 corners*
0 Add a 4 corners polygon primitive as box body*
4,1,4,$2,$3,$4,$5,$6,$7,$8,$9,$2,$3,0*
0 Add four circle primitives for the rounded corners*
1,1,$1+$1,$2,$3*
1,1,$1+$1,$4,$5*
1,1,$1+$1,$6,$7*
1,1,$1+$1,$8,$9*
0 Add four rect primitives between the rounded corners*
20,1,$1+$1,$2,$3,$4,$5,0*
20,1,$1+$1,$4,$5,$6,$7,0*
20,1,$1+$1,$6,$7,$8,$9,0*
20,1,$1+$1,$8,$9,$2,$3,0*%
%AMFreePoly0*
4,1,6,0.600000,-0.250000,-0.600000,-0.250000,-0.600000,1.000000,0.000000,0.400000,0.600000,1.000000,0.600000,-0.250000,0.600000,-0.250000,$1*%
%AMFreePoly1*
4,1,6,0.600000,0.200000,0.000000,-0.400000,-0.600000,0.200000,-0.600000,0.400000,0.600000,0.400000,0.600000,0.200000,0.600000,0.200000,$1*%
%AMFreePoly2*
4,1,6,1.000000,0.000000,0.500000,-0.750000,-0.500000,-0.750000,-0.500000,0.750000,0.500000,0.750000,1.000000,0.000000,1.000000,0.000000,$1*%
%AMFreePoly3*
4,1,6,0.500000,-0.750000,-0.650000,-0.750000,-0.150000,0.000000,-0.650000,0.750000,0.500000,0.750000,0.500000,-0.750000,0.500000,-0.750000,$1*%
G04 Aperture macros list end*
%ADD10C,0.200000*%
%ADD11FreePoly0,0.000000*%
%ADD12FreePoly0,180.000000*%
%ADD13C,1.600000*%
%ADD14FreePoly1,180.000000*%
%ADD15FreePoly1,0.000000*%
%ADD16R,1.600000X1.600000*%
%ADD17C,1.701800*%
%ADD18C,3.000000*%
%ADD19C,4.000000*%
%ADD20R,2.500000X2.500000*%
%ADD21R,1.397000X1.397000*%
%ADD22R,0.940000X1.400000*%
%ADD23C,1.397000*%
%ADD24FreePoly2,0.000000*%
%ADD25FreePoly3,0.000000*%
%ADD26R,1.700000X1.000000*%
%ADD27FreePoly2,180.000000*%
%ADD28FreePoly3,180.000000*%
%ADD29R,2.000000X2.000000*%
%ADD30C,0.800000*%
%ADD31O,1.600000X2.000000*%
%ADD32C,2.000000*%
%ADD33C,0.850000*%
%ADD34RoundRect,0.150000X0.150000X0.500000X-0.150000X0.500000X-0.150000X-0.500000X0.150000X-0.500000X0*%
%ADD35RoundRect,0.175000X0.350000X0.175000X-0.350000X0.175000X-0.350000X-0.175000X0.350000X-0.175000X0*%
%ADD36RoundRect,0.200000X0.450000X-0.200000X0.450000X0.200000X-0.450000X0.200000X-0.450000X-0.200000X0*%
%ADD37O,1.300000X0.800000*%
%ADD38RoundRect,0.200000X-0.450000X0.200000X-0.450000X-0.200000X0.450000X-0.200000X0.450000X0.200000X0*%
G04 APERTURE END LIST*
D10*
%TO.C,U1*%
X106228000Y-32920000D02*
X105212000Y-32920000D01*
X105212000Y-31904000D01*
X106228000Y-31904000D01*
X106228000Y-32920000D01*
G36*
X106228000Y-32920000D02*
G01*
X105212000Y-32920000D01*
X105212000Y-31904000D01*
X106228000Y-31904000D01*
X106228000Y-32920000D01*
G37*
X106228000Y-44096000D02*
X105212000Y-44096000D01*
X105212000Y-43080000D01*
X106228000Y-43080000D01*
X106228000Y-44096000D01*
G36*
X106228000Y-44096000D02*
G01*
X105212000Y-44096000D01*
X105212000Y-43080000D01*
X106228000Y-43080000D01*
X106228000Y-44096000D01*
G37*
X103688000Y-32920000D02*
X102672000Y-32920000D01*
X102672000Y-31904000D01*
X103688000Y-31904000D01*
X103688000Y-32920000D01*
G36*
X103688000Y-32920000D02*
G01*
X102672000Y-32920000D01*
X102672000Y-31904000D01*
X103688000Y-31904000D01*
X103688000Y-32920000D01*
G37*
X103688000Y-44096000D02*
X102672000Y-44096000D01*
X102672000Y-43080000D01*
X103688000Y-43080000D01*
X103688000Y-44096000D01*
G36*
X103688000Y-44096000D02*
G01*
X102672000Y-44096000D01*
X102672000Y-43080000D01*
X103688000Y-43080000D01*
X103688000Y-44096000D01*
G37*
X101148000Y-32920000D02*
X100132000Y-32920000D01*
X100132000Y-31904000D01*
X101148000Y-31904000D01*
X101148000Y-32920000D01*
G36*
X101148000Y-32920000D02*
G01*
X100132000Y-32920000D01*
X100132000Y-31904000D01*
X101148000Y-31904000D01*
X101148000Y-32920000D01*
G37*
X101148000Y-44096000D02*
X100132000Y-44096000D01*
X100132000Y-43080000D01*
X101148000Y-43080000D01*
X101148000Y-44096000D01*
G36*
X101148000Y-44096000D02*
G01*
X100132000Y-44096000D01*
X100132000Y-43080000D01*
X101148000Y-43080000D01*
X101148000Y-44096000D01*
G37*
X98608000Y-32920000D02*
X97592000Y-32920000D01*
X97592000Y-31904000D01*
X98608000Y-31904000D01*
X98608000Y-32920000D01*
G36*
X98608000Y-32920000D02*
G01*
X97592000Y-32920000D01*
X97592000Y-31904000D01*
X98608000Y-31904000D01*
X98608000Y-32920000D01*
G37*
X98608000Y-44096000D02*
X97592000Y-44096000D01*
X97592000Y-43080000D01*
X98608000Y-43080000D01*
X98608000Y-44096000D01*
G36*
X98608000Y-44096000D02*
G01*
X97592000Y-44096000D01*
X97592000Y-43080000D01*
X98608000Y-43080000D01*
X98608000Y-44096000D01*
G37*
X96068000Y-32920000D02*
X95052000Y-32920000D01*
X95052000Y-31904000D01*
X96068000Y-31904000D01*
X96068000Y-32920000D01*
G36*
X96068000Y-32920000D02*
G01*
X95052000Y-32920000D01*
X95052000Y-31904000D01*
X96068000Y-31904000D01*
X96068000Y-32920000D01*
G37*
X96068000Y-44096000D02*
X95052000Y-44096000D01*
X95052000Y-43080000D01*
X96068000Y-43080000D01*
X96068000Y-44096000D01*
G36*
X96068000Y-44096000D02*
G01*
X95052000Y-44096000D01*
X95052000Y-43080000D01*
X96068000Y-43080000D01*
X96068000Y-44096000D01*
G37*
X93528000Y-32920000D02*
X92512000Y-32920000D01*
X92512000Y-31904000D01*
X93528000Y-31904000D01*
X93528000Y-32920000D01*
G36*
X93528000Y-32920000D02*
G01*
X92512000Y-32920000D01*
X92512000Y-31904000D01*
X93528000Y-31904000D01*
X93528000Y-32920000D01*
G37*
X93528000Y-44096000D02*
X92512000Y-44096000D01*
X92512000Y-43080000D01*
X93528000Y-43080000D01*
X93528000Y-44096000D01*
G36*
X93528000Y-44096000D02*
G01*
X92512000Y-44096000D01*
X92512000Y-43080000D01*
X93528000Y-43080000D01*
X93528000Y-44096000D01*
G37*
X90988000Y-32920000D02*
X89972000Y-32920000D01*
X89972000Y-31904000D01*
X90988000Y-31904000D01*
X90988000Y-32920000D01*
G36*
X90988000Y-32920000D02*
G01*
X89972000Y-32920000D01*
X89972000Y-31904000D01*
X90988000Y-31904000D01*
X90988000Y-32920000D01*
G37*
X90988000Y-44096000D02*
X89972000Y-44096000D01*
X89972000Y-43080000D01*
X90988000Y-43080000D01*
X90988000Y-44096000D01*
G36*
X90988000Y-44096000D02*
G01*
X89972000Y-44096000D01*
X89972000Y-43080000D01*
X90988000Y-43080000D01*
X90988000Y-44096000D01*
G37*
X88448000Y-32920000D02*
X87432000Y-32920000D01*
X87432000Y-31904000D01*
X88448000Y-31904000D01*
X88448000Y-32920000D01*
G36*
X88448000Y-32920000D02*
G01*
X87432000Y-32920000D01*
X87432000Y-31904000D01*
X88448000Y-31904000D01*
X88448000Y-32920000D01*
G37*
X88448000Y-44096000D02*
X87432000Y-44096000D01*
X87432000Y-43080000D01*
X88448000Y-43080000D01*
X88448000Y-44096000D01*
G36*
X88448000Y-44096000D02*
G01*
X87432000Y-44096000D01*
X87432000Y-43080000D01*
X88448000Y-43080000D01*
X88448000Y-44096000D01*
G37*
X85908000Y-32920000D02*
X84892000Y-32920000D01*
X84892000Y-31904000D01*
X85908000Y-31904000D01*
X85908000Y-32920000D01*
G36*
X85908000Y-32920000D02*
G01*
X84892000Y-32920000D01*
X84892000Y-31904000D01*
X85908000Y-31904000D01*
X85908000Y-32920000D01*
G37*
X85908000Y-44096000D02*
X84892000Y-44096000D01*
X84892000Y-43080000D01*
X85908000Y-43080000D01*
X85908000Y-44096000D01*
G36*
X85908000Y-44096000D02*
G01*
X84892000Y-44096000D01*
X84892000Y-43080000D01*
X85908000Y-43080000D01*
X85908000Y-44096000D01*
G37*
X83368000Y-32920000D02*
X82352000Y-32920000D01*
X82352000Y-31904000D01*
X83368000Y-31904000D01*
X83368000Y-32920000D01*
G36*
X83368000Y-32920000D02*
G01*
X82352000Y-32920000D01*
X82352000Y-31904000D01*
X83368000Y-31904000D01*
X83368000Y-32920000D01*
G37*
X83368000Y-44096000D02*
X82352000Y-44096000D01*
X82352000Y-43080000D01*
X83368000Y-43080000D01*
X83368000Y-44096000D01*
G36*
X83368000Y-44096000D02*
G01*
X82352000Y-44096000D01*
X82352000Y-43080000D01*
X83368000Y-43080000D01*
X83368000Y-44096000D01*
G37*
X80828000Y-32920000D02*
X79812000Y-32920000D01*
X79812000Y-31904000D01*
X80828000Y-31904000D01*
X80828000Y-32920000D01*
G36*
X80828000Y-32920000D02*
G01*
X79812000Y-32920000D01*
X79812000Y-31904000D01*
X80828000Y-31904000D01*
X80828000Y-32920000D01*
G37*
X80828000Y-44096000D02*
X79812000Y-44096000D01*
X79812000Y-43080000D01*
X80828000Y-43080000D01*
X80828000Y-44096000D01*
G36*
X80828000Y-44096000D02*
G01*
X79812000Y-44096000D01*
X79812000Y-43080000D01*
X80828000Y-43080000D01*
X80828000Y-44096000D01*
G37*
X78288000Y-32920000D02*
X77272000Y-32920000D01*
X77272000Y-31904000D01*
X78288000Y-31904000D01*
X78288000Y-32920000D01*
G36*
X78288000Y-32920000D02*
G01*
X77272000Y-32920000D01*
X77272000Y-31904000D01*
X78288000Y-31904000D01*
X78288000Y-32920000D01*
G37*
X78288000Y-44096000D02*
X77272000Y-44096000D01*
X77272000Y-43080000D01*
X78288000Y-43080000D01*
X78288000Y-44096000D01*
G36*
X78288000Y-44096000D02*
G01*
X77272000Y-44096000D01*
X77272000Y-43080000D01*
X78288000Y-43080000D01*
X78288000Y-44096000D01*
G37*
%TO.C,JP6*%
G36*
X155025000Y-45000000D02*
G01*
X157475000Y-45000000D01*
X157475000Y-46500000D01*
X155025000Y-46500000D01*
X155025000Y-45000000D01*
G37*
%TO.C,JP4*%
G36*
X157475000Y-43000000D02*
G01*
X155025000Y-43000000D01*
X155025000Y-41500000D01*
X157475000Y-41500000D01*
X157475000Y-43000000D01*
G37*
%TO.C,JP2*%
G36*
X157475000Y-40500000D02*
G01*
X155025000Y-40500000D01*
X155025000Y-39000000D01*
X157475000Y-39000000D01*
X157475000Y-40500000D01*
G37*
%TD*%
D11*
%TO.C,U1*%
X77780000Y-33174000D03*
X80320000Y-33174000D03*
X82860000Y-33174000D03*
X85400000Y-33174000D03*
X87940000Y-33174000D03*
X90480000Y-33174000D03*
X93020000Y-33174000D03*
X95560000Y-33174000D03*
X98100000Y-33174000D03*
X100640000Y-33174000D03*
X103180000Y-33174000D03*
X105720000Y-33174000D03*
D12*
X105720000Y-42826000D03*
X103180000Y-42826000D03*
X100640000Y-42826000D03*
X98100000Y-42826000D03*
X95560000Y-42826000D03*
X93020000Y-42826000D03*
X90480000Y-42826000D03*
X87940000Y-42826000D03*
X85400000Y-42826000D03*
X82860000Y-42826000D03*
X80320000Y-42826000D03*
X77780000Y-42826000D03*
D13*
X105720000Y-45620000D03*
D14*
X105720000Y-43842000D03*
D15*
X105720000Y-32158000D03*
D13*
X105720000Y-30380000D03*
X103180000Y-45620000D03*
D14*
X103180000Y-43842000D03*
D15*
X103180000Y-32158000D03*
D13*
X103180000Y-30380000D03*
X100640000Y-45620000D03*
D14*
X100640000Y-43842000D03*
D15*
X100640000Y-32158000D03*
D13*
X100640000Y-30380000D03*
X98100000Y-45620000D03*
D14*
X98100000Y-43842000D03*
D15*
X98100000Y-32158000D03*
D13*
X98100000Y-30380000D03*
X95560000Y-45620000D03*
D14*
X95560000Y-43842000D03*
D15*
X95560000Y-32158000D03*
D13*
X95560000Y-30380000D03*
X93020000Y-45620000D03*
D14*
X93020000Y-43842000D03*
D15*
X93020000Y-32158000D03*
D13*
X93020000Y-30380000D03*
X90480000Y-45620000D03*
D14*
X90480000Y-43842000D03*
D15*
X90480000Y-32158000D03*
D13*
X90480000Y-30380000D03*
X87940000Y-45620000D03*
D14*
X87940000Y-43842000D03*
D15*
X87940000Y-32158000D03*
D13*
X87940000Y-30380000D03*
X85400000Y-45620000D03*
D14*
X85400000Y-43842000D03*
D15*
X85400000Y-32158000D03*
D13*
X85400000Y-30380000D03*
X82860000Y-45620000D03*
D14*
X82860000Y-43842000D03*
D15*
X82860000Y-32158000D03*
D13*
X82860000Y-30380000D03*
X80320000Y-45620000D03*
D14*
X80320000Y-43842000D03*
D15*
X80320000Y-32158000D03*
D13*
X80320000Y-30380000D03*
X77780000Y-45620000D03*
D14*
X77780000Y-43842000D03*
D15*
X77780000Y-32158000D03*
D16*
X77780000Y-30380000D03*
D13*
X77780000Y-30380000D03*
%TD*%
D17*
%TO.C,SW18*%
X74875000Y-109920000D03*
D18*
X77415000Y-111190000D03*
X79955000Y-112460000D03*
D19*
X74875000Y-115000000D03*
D18*
X79955000Y-117540000D03*
X77415000Y-118810000D03*
D17*
X74875000Y-120080000D03*
D20*
X79955000Y-109158000D03*
X77415000Y-122085000D03*
%TD*%
D21*
%TO.C,D15*%
X96750000Y-122620000D03*
D22*
X96750000Y-120585000D03*
X96750000Y-117035000D03*
D23*
X96750000Y-115000000D03*
%TD*%
D21*
%TO.C,D4*%
X95500000Y-112560000D03*
D22*
X95500000Y-110525000D03*
X95500000Y-106975000D03*
D23*
X95500000Y-104940000D03*
%TD*%
D21*
%TO.C,D18*%
X104250000Y-122620000D03*
D22*
X104250000Y-120585000D03*
X104250000Y-117035000D03*
D23*
X104250000Y-115000000D03*
%TD*%
D21*
%TO.C,D8*%
X105500000Y-112560000D03*
D22*
X105500000Y-110525000D03*
X105500000Y-106975000D03*
D23*
X105500000Y-104940000D03*
%TD*%
D24*
%TO.C,JP6*%
X155525000Y-45750000D03*
D25*
X156975000Y-45750000D03*
%TD*%
D17*
%TO.C,SW11*%
X152920000Y-77000000D03*
D18*
X154190000Y-74460000D03*
X155460000Y-71920000D03*
D19*
X158000000Y-77000000D03*
D18*
X160540000Y-71920000D03*
X161810000Y-74460000D03*
D17*
X163080000Y-77000000D03*
D20*
X152158000Y-71920000D03*
X165085000Y-74460000D03*
%TD*%
D17*
%TO.C,SW6*%
X167500000Y-63080000D03*
D18*
X164960000Y-61810000D03*
X162420000Y-60540000D03*
D19*
X167500000Y-58000000D03*
D18*
X162420000Y-55460000D03*
X164960000Y-54190000D03*
D17*
X167500000Y-52920000D03*
D20*
X162420000Y-63842000D03*
X164960000Y-50915000D03*
%TD*%
D17*
%TO.C,SW15*%
X124420000Y-96000000D03*
D18*
X125690000Y-93460000D03*
X126960000Y-90920000D03*
D19*
X129500000Y-96000000D03*
D18*
X132040000Y-90920000D03*
X133310000Y-93460000D03*
D17*
X134580000Y-96000000D03*
D20*
X123658000Y-90920000D03*
X136585000Y-93460000D03*
%TD*%
D17*
%TO.C,SW7*%
X76920000Y-77000000D03*
D18*
X78190000Y-74460000D03*
X79460000Y-71920000D03*
D19*
X82000000Y-77000000D03*
D18*
X84540000Y-71920000D03*
X85810000Y-74460000D03*
D17*
X87080000Y-77000000D03*
D20*
X76158000Y-71920000D03*
X89085000Y-74460000D03*
%TD*%
D17*
%TO.C,SW13*%
X86420000Y-96000000D03*
D18*
X87690000Y-93460000D03*
X88960000Y-90920000D03*
D19*
X91500000Y-96000000D03*
D18*
X94040000Y-90920000D03*
X95310000Y-93460000D03*
D17*
X96580000Y-96000000D03*
D20*
X85658000Y-90920000D03*
X98585000Y-93460000D03*
%TD*%
D21*
%TO.C,D10*%
X110500000Y-112560000D03*
D22*
X110500000Y-110525000D03*
X110500000Y-106975000D03*
D23*
X110500000Y-104940000D03*
%TD*%
D26*
%TO.C,SW23*%
X159400000Y-34400000D03*
X153100000Y-34400000D03*
X159400000Y-30600000D03*
X153100000Y-30600000D03*
%TD*%
D17*
%TO.C,SW10*%
X133920000Y-77000000D03*
D18*
X135190000Y-74460000D03*
X136460000Y-71920000D03*
D19*
X139000000Y-77000000D03*
D18*
X141540000Y-71920000D03*
X142810000Y-74460000D03*
D17*
X144080000Y-77000000D03*
D20*
X133158000Y-71920000D03*
X146085000Y-74460000D03*
%TD*%
D17*
%TO.C,SW12*%
X72500000Y-90920000D03*
D18*
X75040000Y-92190000D03*
X77580000Y-93460000D03*
D19*
X72500000Y-96000000D03*
D18*
X77580000Y-98540000D03*
X75040000Y-99810000D03*
D17*
X72500000Y-101080000D03*
D20*
X77580000Y-90158000D03*
X75040000Y-103085000D03*
%TD*%
D17*
%TO.C,SW19*%
X119670000Y-115000000D03*
D18*
X120940000Y-112460000D03*
X122210000Y-109920000D03*
D19*
X124750000Y-115000000D03*
D18*
X127290000Y-109920000D03*
X128560000Y-112460000D03*
D17*
X129830000Y-115000000D03*
D20*
X118908000Y-109920000D03*
X131835000Y-112460000D03*
%TD*%
D21*
%TO.C,D2*%
X90500000Y-112560000D03*
D22*
X90500000Y-110525000D03*
X90500000Y-106975000D03*
D23*
X90500000Y-104940000D03*
%TD*%
D17*
%TO.C,SW1*%
X72500000Y-52920000D03*
D18*
X75040000Y-54190000D03*
X77580000Y-55460000D03*
D19*
X72500000Y-58000000D03*
D18*
X77580000Y-60540000D03*
X75040000Y-61810000D03*
D17*
X72500000Y-63080000D03*
D20*
X77580000Y-52158000D03*
X75040000Y-65085000D03*
%TD*%
D27*
%TO.C,JP4*%
X156975000Y-42250000D03*
D28*
X155525000Y-42250000D03*
%TD*%
D27*
%TO.C,JP2*%
X156975000Y-39750000D03*
D28*
X155525000Y-39750000D03*
%TD*%
D21*
%TO.C,D20*%
X109250000Y-122620000D03*
D22*
X109250000Y-120585000D03*
X109250000Y-117035000D03*
D23*
X109250000Y-115000000D03*
%TD*%
D17*
%TO.C,SW17*%
X167500000Y-101080000D03*
D18*
X164960000Y-99810000D03*
X162420000Y-98540000D03*
D19*
X167500000Y-96000000D03*
D18*
X162420000Y-93460000D03*
X164960000Y-92190000D03*
D17*
X167500000Y-90920000D03*
D20*
X162420000Y-101842000D03*
X164960000Y-88915000D03*
%TD*%
D29*
%TO.C,B+1*%
X110000000Y-46000000D03*
%TD*%
D17*
%TO.C,SW16*%
X143420000Y-96000000D03*
D18*
X144690000Y-93460000D03*
X145960000Y-90920000D03*
D19*
X148500000Y-96000000D03*
D18*
X151040000Y-90920000D03*
X152310000Y-93460000D03*
D17*
X153580000Y-96000000D03*
D20*
X142658000Y-90920000D03*
X155585000Y-93460000D03*
%TD*%
D17*
%TO.C,SW4*%
X124420000Y-58000000D03*
D18*
X125690000Y-55460000D03*
X126960000Y-52920000D03*
D19*
X129500000Y-58000000D03*
D18*
X132040000Y-52920000D03*
X133310000Y-55460000D03*
D17*
X134580000Y-58000000D03*
D20*
X123658000Y-52920000D03*
X136585000Y-55460000D03*
%TD*%
D17*
%TO.C,SW2*%
X86420000Y-58000000D03*
D18*
X87690000Y-55460000D03*
X88960000Y-52920000D03*
D19*
X91500000Y-58000000D03*
D18*
X94040000Y-52920000D03*
X95310000Y-55460000D03*
D17*
X96580000Y-58000000D03*
D20*
X85658000Y-52920000D03*
X98585000Y-55460000D03*
%TD*%
D17*
%TO.C,SW5*%
X143420000Y-58000000D03*
D18*
X144690000Y-55460000D03*
X145960000Y-52920000D03*
D19*
X148500000Y-58000000D03*
D18*
X151040000Y-52920000D03*
X152310000Y-55460000D03*
D17*
X153580000Y-58000000D03*
D20*
X142658000Y-52920000D03*
X155585000Y-55460000D03*
%TD*%
D21*
%TO.C,D3*%
X93000000Y-112560000D03*
D22*
X93000000Y-110525000D03*
X93000000Y-106975000D03*
D23*
X93000000Y-104940000D03*
%TD*%
D17*
%TO.C,SW20*%
X155625000Y-120080000D03*
D18*
X153085000Y-118810000D03*
X150545000Y-117540000D03*
D19*
X155625000Y-115000000D03*
D18*
X150545000Y-112460000D03*
X153085000Y-111190000D03*
D17*
X155625000Y-109920000D03*
D20*
X150545000Y-120842000D03*
X153085000Y-107915000D03*
%TD*%
D21*
%TO.C,D21*%
X111750000Y-122620000D03*
D22*
X111750000Y-120585000D03*
X111750000Y-117035000D03*
D23*
X111750000Y-115000000D03*
%TD*%
D30*
%TO.C,J1*%
X166000000Y-29100000D03*
X166000000Y-36100000D03*
D31*
X168300000Y-33700000D03*
X168300000Y-30700000D03*
X163700000Y-38800000D03*
X168300000Y-37700000D03*
%TD*%
D21*
%TO.C,D13*%
X91750000Y-122620000D03*
D22*
X91750000Y-120585000D03*
X91750000Y-117035000D03*
D23*
X91750000Y-115000000D03*
%TD*%
D21*
%TO.C,D12*%
X89250000Y-122620000D03*
D22*
X89250000Y-120585000D03*
X89250000Y-117035000D03*
D23*
X89250000Y-115000000D03*
%TD*%
D32*
%TO.C,B-1*%
X113000000Y-46000000D03*
%TD*%
D21*
%TO.C,D11*%
X113000000Y-112560000D03*
D22*
X113000000Y-110525000D03*
X113000000Y-106975000D03*
D23*
X113000000Y-104940000D03*
%TD*%
D17*
%TO.C,SW20*%
X143750000Y-120080000D03*
D18*
X141210000Y-118810000D03*
X138670000Y-117540000D03*
D19*
X143750000Y-115000000D03*
D18*
X138670000Y-112460000D03*
X141210000Y-111190000D03*
D17*
X143750000Y-109920000D03*
D20*
X138670000Y-120842000D03*
X141210000Y-107915000D03*
%TD*%
D21*
%TO.C,D16*%
X99250000Y-122620000D03*
D22*
X99250000Y-120585000D03*
X99250000Y-117035000D03*
D23*
X99250000Y-115000000D03*
%TD*%
D21*
%TO.C,D1*%
X88000000Y-112560000D03*
D22*
X88000000Y-110525000D03*
X88000000Y-106975000D03*
D23*
X88000000Y-104940000D03*
%TD*%
D17*
%TO.C,SW14*%
X105420000Y-96000000D03*
D18*
X106690000Y-93460000D03*
X107960000Y-90920000D03*
D19*
X110500000Y-96000000D03*
D18*
X113040000Y-90920000D03*
X114310000Y-93460000D03*
D17*
X115580000Y-96000000D03*
D20*
X104658000Y-90920000D03*
X117585000Y-93460000D03*
%TD*%
D21*
%TO.C,D6*%
X100500000Y-112560000D03*
D22*
X100500000Y-110525000D03*
X100500000Y-106975000D03*
D23*
X100500000Y-104940000D03*
%TD*%
D17*
%TO.C,SW9*%
X114920000Y-77000000D03*
D18*
X116190000Y-74460000D03*
X117460000Y-71920000D03*
D19*
X120000000Y-77000000D03*
D18*
X122540000Y-71920000D03*
X123810000Y-74460000D03*
D17*
X125080000Y-77000000D03*
D20*
X114158000Y-71920000D03*
X127085000Y-74460000D03*
%TD*%
D33*
%TO.C,SW22*%
X114500000Y-29250000D03*
X111500000Y-29250000D03*
D34*
X115250000Y-31200000D03*
X112250000Y-31200000D03*
X110750000Y-31200000D03*
D35*
X116675000Y-30350000D03*
X116675000Y-28150000D03*
X109325000Y-30350000D03*
X109325000Y-28150000D03*
%TD*%
D17*
%TO.C,SW21*%
X165125000Y-120080000D03*
D18*
X162585000Y-118810000D03*
X160045000Y-117540000D03*
D19*
X165125000Y-115000000D03*
D18*
X160045000Y-112460000D03*
X162585000Y-111190000D03*
D17*
X165125000Y-109920000D03*
D20*
X160045000Y-120842000D03*
X162585000Y-107915000D03*
%TD*%
D21*
%TO.C,D14*%
X94250000Y-122620000D03*
D22*
X94250000Y-120585000D03*
X94250000Y-117035000D03*
D23*
X94250000Y-115000000D03*
%TD*%
D21*
%TO.C,D7*%
X103000000Y-112560000D03*
D22*
X103000000Y-110525000D03*
X103000000Y-106975000D03*
D23*
X103000000Y-104940000D03*
%TD*%
D21*
%TO.C,D9*%
X108000000Y-112560000D03*
D22*
X108000000Y-110525000D03*
X108000000Y-106975000D03*
D23*
X108000000Y-104940000D03*
%TD*%
D21*
%TO.C,D5*%
X98000000Y-112560000D03*
D22*
X98000000Y-110525000D03*
X98000000Y-106975000D03*
D23*
X98000000Y-104940000D03*
%TD*%
D21*
%TO.C,D19*%
X106750000Y-122620000D03*
D22*
X106750000Y-120585000D03*
X106750000Y-117035000D03*
D23*
X106750000Y-115000000D03*
%TD*%
D17*
%TO.C,SW8*%
X95920000Y-77000000D03*
D18*
X97190000Y-74460000D03*
X98460000Y-71920000D03*
D19*
X101000000Y-77000000D03*
D18*
X103540000Y-71920000D03*
X104810000Y-74460000D03*
D17*
X106080000Y-77000000D03*
D20*
X95158000Y-71920000D03*
X108085000Y-74460000D03*
%TD*%
D17*
%TO.C,SW3*%
X105420000Y-58000000D03*
D18*
X106690000Y-55460000D03*
X107960000Y-52920000D03*
D19*
X110500000Y-58000000D03*
D18*
X113040000Y-52920000D03*
X114310000Y-55460000D03*
D17*
X115580000Y-58000000D03*
D20*
X104658000Y-52920000D03*
X117585000Y-55460000D03*
%TD*%
D36*
%TO.C,J3*%
X109640000Y-36875000D03*
D37*
X109640000Y-35625000D03*
%TD*%
D21*
%TO.C,D17*%
X101750000Y-122620000D03*
D22*
X101750000Y-120585000D03*
X101750000Y-117035000D03*
D23*
X101750000Y-115000000D03*
%TD*%
D38*
%TO.C,J3*%
X109640000Y-40625000D03*
D37*
X109640000Y-41875000D03*
%TD*%
D30*
%TO.C,J2*%
X166000000Y-36100000D03*
X166000000Y-29100000D03*
D31*
X163700000Y-33700000D03*
X163700000Y-30700000D03*
X168300000Y-38800000D03*
X163700000Y-37700000D03*
%TD*%
D29*
%TO.C,B+1*%
X110000000Y-46000000D03*
%TD*%
D33*
%TO.C,SW22*%
X111500000Y-29250000D03*
X114500000Y-29250000D03*
%TD*%
D32*
%TO.C,B-1*%
X113000000Y-46000000D03*
%TD*%
M02*
