%TF.GenerationSoftware,KiCad,Pcbnew,9.0.4*%
%TF.CreationDate,2026-01-31T15:19:58+09:00*%
%TF.ProjectId,ansicSolder,616e7369-6353-46f6-9c64-65722e6b6963,rev?*%
%TF.SameCoordinates,Original*%
%TF.FileFunction,Paste,Bot*%
%TF.FilePolarity,Positive*%
%FSLAX46Y46*%
G04 Gerber Fmt 4.6, Leading zero omitted, Abs format (unit mm)*
G04 Created by KiCad (PCBNEW 9.0.4) date 2026-01-31 15:19:58*
%MOMM*%
%LPD*%
G01*
G04 APERTURE LIST*
G04 Aperture macros list*
%AMRoundRect*
0 Rectangle with rounded corners*
0 $1 Rounding radius*
0 $2 $3 $4 $5 $6 $7 $8 $9 X,Y pos of 4 corners*
0 Add a 4 corners polygon primitive as box body*
4,1,4,$2,$3,$4,$5,$6,$7,$8,$9,$2,$3,0*
0 Add four circle primitives for the rounded corners*
1,1,$1+$1,$2,$3*
1,1,$1+$1,$4,$5*
1,1,$1+$1,$6,$7*
1,1,$1+$1,$8,$9*
0 Add four rect primitives between the rounded corners*
20,1,$1+$1,$2,$3,$4,$5,0*
20,1,$1+$1,$4,$5,$6,$7,0*
20,1,$1+$1,$6,$7,$8,$9,0*
20,1,$1+$1,$8,$9,$2,$3,0*%
G04 Aperture macros list end*
%ADD10C,3.000000*%
%ADD11R,0.940000X1.400000*%
%ADD12R,1.700000X1.000000*%
%ADD13C,1.600000*%
%ADD14R,1.600000X1.600000*%
%ADD15RoundRect,0.150000X-0.150000X-0.500000X0.150000X-0.500000X0.150000X0.500000X-0.150000X0.500000X0*%
%ADD16RoundRect,0.175000X-0.350000X-0.175000X0.350000X-0.175000X0.350000X0.175000X-0.350000X0.175000X0*%
G04 APERTURE END LIST*
D10*
%TO.C,SW18*%
X77415000Y-111190000D03*
X79955000Y-117540000D03*
%TD*%
D11*
%TO.C,D15*%
X96750000Y-120585000D03*
X96750000Y-117035000D03*
%TD*%
%TO.C,D4*%
X95500000Y-110525000D03*
X95500000Y-106975000D03*
%TD*%
%TO.C,D18*%
X104250000Y-120585000D03*
X104250000Y-117035000D03*
%TD*%
%TO.C,D8*%
X105500000Y-110525000D03*
X105500000Y-106975000D03*
%TD*%
D10*
%TO.C,SW11*%
X154190000Y-74460000D03*
X160540000Y-71920000D03*
%TD*%
%TO.C,SW6*%
X164960000Y-61810000D03*
X162420000Y-55460000D03*
%TD*%
%TO.C,SW15*%
X125690000Y-93460000D03*
X132040000Y-90920000D03*
%TD*%
%TO.C,SW7*%
X78190000Y-74460000D03*
X84540000Y-71920000D03*
%TD*%
%TO.C,SW13*%
X87690000Y-93460000D03*
X94040000Y-90920000D03*
%TD*%
D11*
%TO.C,D10*%
X110500000Y-110525000D03*
X110500000Y-106975000D03*
%TD*%
D10*
%TO.C,SW10*%
X135190000Y-74460000D03*
X141540000Y-71920000D03*
%TD*%
%TO.C,SW12*%
X75040000Y-92190000D03*
X77580000Y-98540000D03*
%TD*%
%TO.C,SW19*%
X120940000Y-112460000D03*
X127290000Y-109920000D03*
%TD*%
D11*
%TO.C,D2*%
X90500000Y-110525000D03*
X90500000Y-106975000D03*
%TD*%
D10*
%TO.C,SW1*%
X75040000Y-54190000D03*
X77580000Y-60540000D03*
%TD*%
D11*
%TO.C,D20*%
X109250000Y-120585000D03*
X109250000Y-117035000D03*
%TD*%
D10*
%TO.C,SW17*%
X164960000Y-99810000D03*
X162420000Y-93460000D03*
%TD*%
%TO.C,SW16*%
X144690000Y-93460000D03*
X151040000Y-90920000D03*
%TD*%
%TO.C,SW4*%
X125690000Y-55460000D03*
X132040000Y-52920000D03*
%TD*%
%TO.C,SW2*%
X87690000Y-55460000D03*
X94040000Y-52920000D03*
%TD*%
%TO.C,SW5*%
X144690000Y-55460000D03*
X151040000Y-52920000D03*
%TD*%
D11*
%TO.C,D3*%
X93000000Y-110525000D03*
X93000000Y-106975000D03*
%TD*%
D10*
%TO.C,SW21*%
X153085000Y-118810000D03*
X150545000Y-112460000D03*
%TD*%
D11*
%TO.C,D21*%
X111750000Y-120585000D03*
X111750000Y-117035000D03*
%TD*%
%TO.C,D13*%
X91750000Y-120585000D03*
X91750000Y-117035000D03*
%TD*%
%TO.C,D12*%
X89250000Y-120585000D03*
X89250000Y-117035000D03*
%TD*%
%TO.C,D11*%
X113000000Y-110525000D03*
X113000000Y-106975000D03*
%TD*%
D10*
%TO.C,SW20*%
X141210000Y-118810000D03*
X138670000Y-112460000D03*
%TD*%
D11*
%TO.C,D16*%
X99250000Y-120585000D03*
X99250000Y-117035000D03*
%TD*%
%TO.C,D1*%
X88000000Y-110525000D03*
X88000000Y-106975000D03*
%TD*%
D10*
%TO.C,SW14*%
X106690000Y-93460000D03*
X113040000Y-90920000D03*
%TD*%
D11*
%TO.C,D6*%
X100500000Y-110525000D03*
X100500000Y-106975000D03*
%TD*%
D10*
%TO.C,SW9*%
X116190000Y-74460000D03*
X122540000Y-71920000D03*
%TD*%
%TO.C,SW21*%
X162585000Y-118810000D03*
X160045000Y-112460000D03*
%TD*%
D11*
%TO.C,D14*%
X94250000Y-120585000D03*
X94250000Y-117035000D03*
%TD*%
%TO.C,D7*%
X103000000Y-110525000D03*
X103000000Y-106975000D03*
%TD*%
%TO.C,D9*%
X108000000Y-110525000D03*
X108000000Y-106975000D03*
%TD*%
%TO.C,D5*%
X98000000Y-110525000D03*
X98000000Y-106975000D03*
%TD*%
%TO.C,D19*%
X106750000Y-120585000D03*
X106750000Y-117035000D03*
%TD*%
D10*
%TO.C,SW8*%
X97190000Y-74460000D03*
X103540000Y-71920000D03*
%TD*%
%TO.C,SW3*%
X106690000Y-55460000D03*
X113040000Y-52920000D03*
%TD*%
D11*
%TO.C,D17*%
X101750000Y-120585000D03*
X101750000Y-117035000D03*
%TD*%
D12*
%TO.C,SW23*%
X153100000Y-34400000D03*
X159400000Y-34400000D03*
X153100000Y-30600000D03*
X159400000Y-30600000D03*
%TD*%
D13*
%TO.C,U1*%
X77780000Y-30380000D03*
X77780000Y-45620000D03*
D14*
X77780000Y-45620000D03*
D13*
X80320000Y-30380000D03*
X80320000Y-45620000D03*
X82860000Y-30380000D03*
X82860000Y-45620000D03*
X85400000Y-30380000D03*
X85400000Y-45620000D03*
X87940000Y-30380000D03*
X87940000Y-45620000D03*
X90480000Y-30380000D03*
X90480000Y-45620000D03*
X93020000Y-30380000D03*
X93020000Y-45620000D03*
X95560000Y-30380000D03*
X95560000Y-45620000D03*
X98100000Y-30380000D03*
X98100000Y-45620000D03*
X100640000Y-30380000D03*
X100640000Y-45620000D03*
X103180000Y-30380000D03*
X103180000Y-45620000D03*
X105720000Y-30380000D03*
X105720000Y-45620000D03*
%TD*%
D15*
%TO.C,SW22*%
X110750000Y-31200000D03*
X113750000Y-31200000D03*
X115250000Y-31200000D03*
D16*
X109325000Y-28150000D03*
X109325000Y-30350000D03*
X116675000Y-28150000D03*
X116675000Y-30350000D03*
%TD*%
M02*
