M48
; DRILL file {KiCad 9.0.4} date 2026-01-29T19:20:22+0900
; FORMAT={-:-/ absolute / metric / decimal}
; #@! TF.CreationDate,2026-01-29T19:20:22+09:00
; #@! TF.GenerationSoftware,Kicad,Pcbnew,9.0.4
; #@! TF.FileFunction,Plated,1,2,PTH
FMAT,2
METRIC
; #@! TA.AperFunction,Plated,PTH,ViaDrill
T1C0.300
; #@! TA.AperFunction,Plated,PTH,ComponentDrill
T2C0.300
; #@! TA.AperFunction,Plated,PTH,ComponentDrill
T3C0.400
; #@! TA.AperFunction,Plated,PTH,ComponentDrill
T4C0.500
; #@! TA.AperFunction,Plated,PTH,ComponentDrill
T5C0.813
; #@! TA.AperFunction,Plated,PTH,ComponentDrill
T6C0.900
; #@! TA.AperFunction,Plated,PTH,ComponentDrill
T7C1.000
; #@! TA.AperFunction,Plated,PTH,ComponentDrill
T8C1.100
%
G90
G05
T1
X71.0Y-49.5
X71.0Y-67.5
X71.0Y-86.5
X71.0Y-105.5
X71.0Y-123.5
X75.0Y-28.5
X75.0Y-48.0
X78.75Y-37.0
X78.75Y-38.0
X82.0Y-80.5
X84.5Y-112.25
X84.5Y-113.25
X84.5Y-114.25
X84.5Y-115.25
X89.25Y-101.0
X91.0Y-36.0
X91.0Y-40.0
X91.5Y-61.5
X91.5Y-86.5
X91.75Y-101.0
X94.25Y-101.0
X96.75Y-101.0
X99.25Y-101.0
X99.5Y-62.5
X100.5Y-62.5
X101.0Y-80.5
X101.5Y-62.5
X101.75Y-101.0
X102.5Y-62.5
X104.25Y-102.5
X105.75Y-47.75
X106.75Y-102.5
X107.75Y-35.5
X107.75Y-36.5
X108.5Y-67.5
X109.25Y-102.5
X109.5Y-67.5
X110.5Y-61.5
X110.5Y-67.5
X110.5Y-86.5
X111.5Y-67.5
X111.75Y-102.5
X112.5Y-67.5
X113.0Y-28.75
X113.0Y-29.75
X113.5Y-67.5
X117.0Y-48.0
X120.0Y-67.5
X120.0Y-81.0
X120.0Y-86.5
X121.0Y-86.5
X122.0Y-86.5
X123.0Y-86.5
X124.0Y-86.5
X125.0Y-123.5
X129.5Y-61.5
X132.5Y-105.5
X139.0Y-80.5
X148.5Y-61.5
X148.5Y-86.5
X151.0Y-28.5
X154.5Y-39.75
X156.25Y-34.4
X158.0Y-45.75
X158.0Y-58.0
X158.0Y-80.5
X169.0Y-28.5
X169.0Y-48.5
X169.0Y-67.5
X169.0Y-86.5
X169.0Y-105.5
X169.0Y-123.5
T2
X76.183Y-52.348
X76.183Y-63.651
X76.183Y-90.349
X76.183Y-101.651
X76.349Y-73.317
X78.558Y-109.349
X78.558Y-120.651
X85.849Y-54.317
X85.849Y-92.317
X87.651Y-73.317
X95.349Y-73.317
X97.151Y-54.317
X97.151Y-92.317
X104.849Y-54.317
X104.849Y-92.317
X106.651Y-73.317
X114.349Y-73.317
X116.151Y-54.317
X116.151Y-92.317
X119.099Y-111.317
X123.849Y-54.317
X123.849Y-92.317
X125.651Y-73.317
X130.401Y-111.317
X133.349Y-73.317
X135.151Y-54.317
X135.151Y-92.317
X140.067Y-109.349
X140.067Y-120.651
X142.849Y-54.317
X142.849Y-92.317
X144.651Y-73.317
X151.942Y-109.349
X151.942Y-120.651
X152.349Y-73.317
X154.151Y-54.317
X154.151Y-92.317
X161.442Y-109.349
X161.442Y-120.651
X163.651Y-73.317
X163.817Y-52.348
X163.817Y-63.651
X163.817Y-90.349
X163.817Y-101.651
T3
X77.78Y-34.19
X77.78Y-41.81
X80.32Y-34.19
X80.32Y-41.81
X82.86Y-34.19
X82.86Y-41.81
X85.4Y-34.19
X85.4Y-41.81
X87.94Y-34.19
X87.94Y-41.81
X90.48Y-34.19
X90.48Y-41.81
X93.02Y-34.19
X93.02Y-41.81
X95.56Y-34.19
X95.56Y-41.81
X98.1Y-34.19
X98.1Y-41.81
X100.64Y-34.19
X100.64Y-41.81
X103.18Y-34.19
X103.18Y-41.81
X105.72Y-34.19
X105.72Y-41.81
T4
X109.64Y-35.625
X109.64Y-36.875
X109.64Y-40.625
X109.64Y-41.875
T5
X88.0Y-104.94
X88.0Y-112.56
X89.25Y-115.0
X89.25Y-122.62
X90.5Y-104.94
X90.5Y-112.56
X91.75Y-115.0
X91.75Y-122.62
X93.0Y-104.94
X93.0Y-112.56
X94.25Y-115.0
X94.25Y-122.62
X95.5Y-104.94
X95.5Y-112.56
X96.75Y-115.0
X96.75Y-122.62
X98.0Y-104.94
X98.0Y-112.56
X99.25Y-115.0
X99.25Y-122.62
X100.5Y-104.94
X100.5Y-112.56
X101.75Y-115.0
X101.75Y-122.62
X103.0Y-104.94
X103.0Y-112.56
X104.25Y-115.0
X104.25Y-122.62
X105.5Y-104.94
X105.5Y-112.56
X106.75Y-115.0
X106.75Y-122.62
X108.0Y-104.94
X108.0Y-112.56
X109.25Y-115.0
X109.25Y-122.62
X110.5Y-104.94
X110.5Y-112.56
X111.75Y-115.0
X111.75Y-122.62
X113.0Y-104.94
X113.0Y-112.56
T7
X110.0Y-46.0
X110.0Y-46.0
X113.0Y-46.0
X113.0Y-46.0
T8
X77.78Y-30.38
X77.78Y-45.62
X80.32Y-30.38
X80.32Y-45.62
X82.86Y-30.38
X82.86Y-45.62
X85.4Y-30.38
X85.4Y-45.62
X87.94Y-30.38
X87.94Y-45.62
X90.48Y-30.38
X90.48Y-45.62
X93.02Y-30.38
X93.02Y-45.62
X95.56Y-30.38
X95.56Y-45.62
X98.1Y-30.38
X98.1Y-45.62
X100.64Y-30.38
X100.64Y-45.62
X103.18Y-30.38
X103.18Y-45.62
X105.72Y-30.38
X105.72Y-45.62
T6
G00X163.7Y-30.9
M15
G01X163.7Y-30.5
M16
G05
G00X163.7Y-33.9
M15
G01X163.7Y-33.5
M16
G05
G00X163.7Y-37.9
M15
G01X163.7Y-37.5
M16
G05
G00X163.7Y-38.6
M15
G01X163.7Y-39.0
M16
G05
G00X168.3Y-30.5
M15
G01X168.3Y-30.9
M16
G05
G00X168.3Y-33.5
M15
G01X168.3Y-33.9
M16
G05
G00X168.3Y-37.5
M15
G01X168.3Y-37.9
M16
G05
G00X168.3Y-39.0
M15
G01X168.3Y-38.6
M16
G05
M30
