%TF.GenerationSoftware,KiCad,Pcbnew,9.0.4*%
%TF.CreationDate,2026-01-29T10:07:03+09:00*%
%TF.ProjectId,ansikBackplate,616e7369-6b42-4616-936b-706c6174652e,rev?*%
%TF.SameCoordinates,Original*%
%TF.FileFunction,Legend,Top*%
%TF.FilePolarity,Positive*%
%FSLAX46Y46*%
G04 Gerber Fmt 4.6, Leading zero omitted, Abs format (unit mm)*
G04 Created by KiCad (PCBNEW 9.0.4) date 2026-01-29 10:07:03*
%MOMM*%
%LPD*%
G01*
G04 APERTURE LIST*
%ADD10C,0.100000*%
G04 APERTURE END LIST*
D10*
X74250000Y-84000000D02*
X94500000Y-84000000D01*
X74285712Y-85707419D02*
X74285712Y-85040752D01*
X74285712Y-85231228D02*
X74333331Y-85135990D01*
X74333331Y-85135990D02*
X74380950Y-85088371D01*
X74380950Y-85088371D02*
X74476188Y-85040752D01*
X74476188Y-85040752D02*
X74571426Y-85040752D01*
X75285712Y-85659800D02*
X75190474Y-85707419D01*
X75190474Y-85707419D02*
X74999998Y-85707419D01*
X74999998Y-85707419D02*
X74904760Y-85659800D01*
X74904760Y-85659800D02*
X74857141Y-85564561D01*
X74857141Y-85564561D02*
X74857141Y-85183609D01*
X74857141Y-85183609D02*
X74904760Y-85088371D01*
X74904760Y-85088371D02*
X74999998Y-85040752D01*
X74999998Y-85040752D02*
X75190474Y-85040752D01*
X75190474Y-85040752D02*
X75285712Y-85088371D01*
X75285712Y-85088371D02*
X75333331Y-85183609D01*
X75333331Y-85183609D02*
X75333331Y-85278847D01*
X75333331Y-85278847D02*
X74857141Y-85374085D01*
X75714284Y-85659800D02*
X75809522Y-85707419D01*
X75809522Y-85707419D02*
X75999998Y-85707419D01*
X75999998Y-85707419D02*
X76095236Y-85659800D01*
X76095236Y-85659800D02*
X76142855Y-85564561D01*
X76142855Y-85564561D02*
X76142855Y-85516942D01*
X76142855Y-85516942D02*
X76095236Y-85421704D01*
X76095236Y-85421704D02*
X75999998Y-85374085D01*
X75999998Y-85374085D02*
X75857141Y-85374085D01*
X75857141Y-85374085D02*
X75761903Y-85326466D01*
X75761903Y-85326466D02*
X75714284Y-85231228D01*
X75714284Y-85231228D02*
X75714284Y-85183609D01*
X75714284Y-85183609D02*
X75761903Y-85088371D01*
X75761903Y-85088371D02*
X75857141Y-85040752D01*
X75857141Y-85040752D02*
X75999998Y-85040752D01*
X75999998Y-85040752D02*
X76095236Y-85088371D01*
X76428570Y-85040752D02*
X76809522Y-85040752D01*
X76571427Y-84707419D02*
X76571427Y-85564561D01*
X76571427Y-85564561D02*
X76619046Y-85659800D01*
X76619046Y-85659800D02*
X76714284Y-85707419D01*
X76714284Y-85707419D02*
X76809522Y-85707419D01*
X77142856Y-85612180D02*
X77190475Y-85659800D01*
X77190475Y-85659800D02*
X77142856Y-85707419D01*
X77142856Y-85707419D02*
X77095237Y-85659800D01*
X77095237Y-85659800D02*
X77142856Y-85612180D01*
X77142856Y-85612180D02*
X77142856Y-85707419D01*
X78809522Y-85707419D02*
X78809522Y-84707419D01*
X78809522Y-85659800D02*
X78714284Y-85707419D01*
X78714284Y-85707419D02*
X78523808Y-85707419D01*
X78523808Y-85707419D02*
X78428570Y-85659800D01*
X78428570Y-85659800D02*
X78380951Y-85612180D01*
X78380951Y-85612180D02*
X78333332Y-85516942D01*
X78333332Y-85516942D02*
X78333332Y-85231228D01*
X78333332Y-85231228D02*
X78380951Y-85135990D01*
X78380951Y-85135990D02*
X78428570Y-85088371D01*
X78428570Y-85088371D02*
X78523808Y-85040752D01*
X78523808Y-85040752D02*
X78714284Y-85040752D01*
X78714284Y-85040752D02*
X78809522Y-85088371D01*
X79428570Y-85707419D02*
X79333332Y-85659800D01*
X79333332Y-85659800D02*
X79285713Y-85612180D01*
X79285713Y-85612180D02*
X79238094Y-85516942D01*
X79238094Y-85516942D02*
X79238094Y-85231228D01*
X79238094Y-85231228D02*
X79285713Y-85135990D01*
X79285713Y-85135990D02*
X79333332Y-85088371D01*
X79333332Y-85088371D02*
X79428570Y-85040752D01*
X79428570Y-85040752D02*
X79571427Y-85040752D01*
X79571427Y-85040752D02*
X79666665Y-85088371D01*
X79666665Y-85088371D02*
X79714284Y-85135990D01*
X79714284Y-85135990D02*
X79761903Y-85231228D01*
X79761903Y-85231228D02*
X79761903Y-85516942D01*
X79761903Y-85516942D02*
X79714284Y-85612180D01*
X79714284Y-85612180D02*
X79666665Y-85659800D01*
X79666665Y-85659800D02*
X79571427Y-85707419D01*
X79571427Y-85707419D02*
X79428570Y-85707419D01*
X80190475Y-85040752D02*
X80190475Y-85707419D01*
X80190475Y-85135990D02*
X80238094Y-85088371D01*
X80238094Y-85088371D02*
X80333332Y-85040752D01*
X80333332Y-85040752D02*
X80476189Y-85040752D01*
X80476189Y-85040752D02*
X80571427Y-85088371D01*
X80571427Y-85088371D02*
X80619046Y-85183609D01*
X80619046Y-85183609D02*
X80619046Y-85707419D01*
X81142856Y-84707419D02*
X81047618Y-84897895D01*
X81428570Y-85040752D02*
X81809522Y-85040752D01*
X81571427Y-84707419D02*
X81571427Y-85564561D01*
X81571427Y-85564561D02*
X81619046Y-85659800D01*
X81619046Y-85659800D02*
X81714284Y-85707419D01*
X81714284Y-85707419D02*
X81809522Y-85707419D01*
X82761904Y-85040752D02*
X83142856Y-85040752D01*
X82904761Y-84707419D02*
X82904761Y-85564561D01*
X82904761Y-85564561D02*
X82952380Y-85659800D01*
X82952380Y-85659800D02*
X83047618Y-85707419D01*
X83047618Y-85707419D02*
X83142856Y-85707419D01*
X83476190Y-85707419D02*
X83476190Y-84707419D01*
X83904761Y-85707419D02*
X83904761Y-85183609D01*
X83904761Y-85183609D02*
X83857142Y-85088371D01*
X83857142Y-85088371D02*
X83761904Y-85040752D01*
X83761904Y-85040752D02*
X83619047Y-85040752D01*
X83619047Y-85040752D02*
X83523809Y-85088371D01*
X83523809Y-85088371D02*
X83476190Y-85135990D01*
X84380952Y-85707419D02*
X84380952Y-85040752D01*
X84380952Y-84707419D02*
X84333333Y-84755038D01*
X84333333Y-84755038D02*
X84380952Y-84802657D01*
X84380952Y-84802657D02*
X84428571Y-84755038D01*
X84428571Y-84755038D02*
X84380952Y-84707419D01*
X84380952Y-84707419D02*
X84380952Y-84802657D01*
X84857142Y-85040752D02*
X84857142Y-85707419D01*
X84857142Y-85135990D02*
X84904761Y-85088371D01*
X84904761Y-85088371D02*
X84999999Y-85040752D01*
X84999999Y-85040752D02*
X85142856Y-85040752D01*
X85142856Y-85040752D02*
X85238094Y-85088371D01*
X85238094Y-85088371D02*
X85285713Y-85183609D01*
X85285713Y-85183609D02*
X85285713Y-85707419D01*
X85761904Y-85707419D02*
X85761904Y-84707419D01*
X85857142Y-85326466D02*
X86142856Y-85707419D01*
X86142856Y-85040752D02*
X85761904Y-85421704D01*
X87761904Y-85707419D02*
X87761904Y-85183609D01*
X87761904Y-85183609D02*
X87714285Y-85088371D01*
X87714285Y-85088371D02*
X87619047Y-85040752D01*
X87619047Y-85040752D02*
X87428571Y-85040752D01*
X87428571Y-85040752D02*
X87333333Y-85088371D01*
X87761904Y-85659800D02*
X87666666Y-85707419D01*
X87666666Y-85707419D02*
X87428571Y-85707419D01*
X87428571Y-85707419D02*
X87333333Y-85659800D01*
X87333333Y-85659800D02*
X87285714Y-85564561D01*
X87285714Y-85564561D02*
X87285714Y-85469323D01*
X87285714Y-85469323D02*
X87333333Y-85374085D01*
X87333333Y-85374085D02*
X87428571Y-85326466D01*
X87428571Y-85326466D02*
X87666666Y-85326466D01*
X87666666Y-85326466D02*
X87761904Y-85278847D01*
X88238095Y-85707419D02*
X88238095Y-84707419D01*
X88238095Y-85088371D02*
X88333333Y-85040752D01*
X88333333Y-85040752D02*
X88523809Y-85040752D01*
X88523809Y-85040752D02*
X88619047Y-85088371D01*
X88619047Y-85088371D02*
X88666666Y-85135990D01*
X88666666Y-85135990D02*
X88714285Y-85231228D01*
X88714285Y-85231228D02*
X88714285Y-85516942D01*
X88714285Y-85516942D02*
X88666666Y-85612180D01*
X88666666Y-85612180D02*
X88619047Y-85659800D01*
X88619047Y-85659800D02*
X88523809Y-85707419D01*
X88523809Y-85707419D02*
X88333333Y-85707419D01*
X88333333Y-85707419D02*
X88238095Y-85659800D01*
X89285714Y-85707419D02*
X89190476Y-85659800D01*
X89190476Y-85659800D02*
X89142857Y-85612180D01*
X89142857Y-85612180D02*
X89095238Y-85516942D01*
X89095238Y-85516942D02*
X89095238Y-85231228D01*
X89095238Y-85231228D02*
X89142857Y-85135990D01*
X89142857Y-85135990D02*
X89190476Y-85088371D01*
X89190476Y-85088371D02*
X89285714Y-85040752D01*
X89285714Y-85040752D02*
X89428571Y-85040752D01*
X89428571Y-85040752D02*
X89523809Y-85088371D01*
X89523809Y-85088371D02*
X89571428Y-85135990D01*
X89571428Y-85135990D02*
X89619047Y-85231228D01*
X89619047Y-85231228D02*
X89619047Y-85516942D01*
X89619047Y-85516942D02*
X89571428Y-85612180D01*
X89571428Y-85612180D02*
X89523809Y-85659800D01*
X89523809Y-85659800D02*
X89428571Y-85707419D01*
X89428571Y-85707419D02*
X89285714Y-85707419D01*
X90476190Y-85040752D02*
X90476190Y-85707419D01*
X90047619Y-85040752D02*
X90047619Y-85564561D01*
X90047619Y-85564561D02*
X90095238Y-85659800D01*
X90095238Y-85659800D02*
X90190476Y-85707419D01*
X90190476Y-85707419D02*
X90333333Y-85707419D01*
X90333333Y-85707419D02*
X90428571Y-85659800D01*
X90428571Y-85659800D02*
X90476190Y-85612180D01*
X90809524Y-85040752D02*
X91190476Y-85040752D01*
X90952381Y-84707419D02*
X90952381Y-85564561D01*
X90952381Y-85564561D02*
X91000000Y-85659800D01*
X91000000Y-85659800D02*
X91095238Y-85707419D01*
X91095238Y-85707419D02*
X91190476Y-85707419D01*
X92714286Y-85659800D02*
X92619048Y-85707419D01*
X92619048Y-85707419D02*
X92428572Y-85707419D01*
X92428572Y-85707419D02*
X92333334Y-85659800D01*
X92333334Y-85659800D02*
X92285715Y-85612180D01*
X92285715Y-85612180D02*
X92238096Y-85516942D01*
X92238096Y-85516942D02*
X92238096Y-85231228D01*
X92238096Y-85231228D02*
X92285715Y-85135990D01*
X92285715Y-85135990D02*
X92333334Y-85088371D01*
X92333334Y-85088371D02*
X92428572Y-85040752D01*
X92428572Y-85040752D02*
X92619048Y-85040752D01*
X92619048Y-85040752D02*
X92714286Y-85088371D01*
X93285715Y-85707419D02*
X93190477Y-85659800D01*
X93190477Y-85659800D02*
X93142858Y-85612180D01*
X93142858Y-85612180D02*
X93095239Y-85516942D01*
X93095239Y-85516942D02*
X93095239Y-85231228D01*
X93095239Y-85231228D02*
X93142858Y-85135990D01*
X93142858Y-85135990D02*
X93190477Y-85088371D01*
X93190477Y-85088371D02*
X93285715Y-85040752D01*
X93285715Y-85040752D02*
X93428572Y-85040752D01*
X93428572Y-85040752D02*
X93523810Y-85088371D01*
X93523810Y-85088371D02*
X93571429Y-85135990D01*
X93571429Y-85135990D02*
X93619048Y-85231228D01*
X93619048Y-85231228D02*
X93619048Y-85516942D01*
X93619048Y-85516942D02*
X93571429Y-85612180D01*
X93571429Y-85612180D02*
X93523810Y-85659800D01*
X93523810Y-85659800D02*
X93428572Y-85707419D01*
X93428572Y-85707419D02*
X93285715Y-85707419D01*
X94047620Y-85040752D02*
X94047620Y-85707419D01*
X94047620Y-85135990D02*
X94095239Y-85088371D01*
X94095239Y-85088371D02*
X94190477Y-85040752D01*
X94190477Y-85040752D02*
X94333334Y-85040752D01*
X94333334Y-85040752D02*
X94428572Y-85088371D01*
X94428572Y-85088371D02*
X94476191Y-85183609D01*
X94476191Y-85183609D02*
X94476191Y-85707419D01*
X94904763Y-85659800D02*
X95000001Y-85707419D01*
X95000001Y-85707419D02*
X95190477Y-85707419D01*
X95190477Y-85707419D02*
X95285715Y-85659800D01*
X95285715Y-85659800D02*
X95333334Y-85564561D01*
X95333334Y-85564561D02*
X95333334Y-85516942D01*
X95333334Y-85516942D02*
X95285715Y-85421704D01*
X95285715Y-85421704D02*
X95190477Y-85374085D01*
X95190477Y-85374085D02*
X95047620Y-85374085D01*
X95047620Y-85374085D02*
X94952382Y-85326466D01*
X94952382Y-85326466D02*
X94904763Y-85231228D01*
X94904763Y-85231228D02*
X94904763Y-85183609D01*
X94904763Y-85183609D02*
X94952382Y-85088371D01*
X94952382Y-85088371D02*
X95047620Y-85040752D01*
X95047620Y-85040752D02*
X95190477Y-85040752D01*
X95190477Y-85040752D02*
X95285715Y-85088371D01*
X96142858Y-85659800D02*
X96047620Y-85707419D01*
X96047620Y-85707419D02*
X95857144Y-85707419D01*
X95857144Y-85707419D02*
X95761906Y-85659800D01*
X95761906Y-85659800D02*
X95714287Y-85564561D01*
X95714287Y-85564561D02*
X95714287Y-85183609D01*
X95714287Y-85183609D02*
X95761906Y-85088371D01*
X95761906Y-85088371D02*
X95857144Y-85040752D01*
X95857144Y-85040752D02*
X96047620Y-85040752D01*
X96047620Y-85040752D02*
X96142858Y-85088371D01*
X96142858Y-85088371D02*
X96190477Y-85183609D01*
X96190477Y-85183609D02*
X96190477Y-85278847D01*
X96190477Y-85278847D02*
X95714287Y-85374085D01*
X97047620Y-85040752D02*
X97047620Y-86040752D01*
X97047620Y-85659800D02*
X96952382Y-85707419D01*
X96952382Y-85707419D02*
X96761906Y-85707419D01*
X96761906Y-85707419D02*
X96666668Y-85659800D01*
X96666668Y-85659800D02*
X96619049Y-85612180D01*
X96619049Y-85612180D02*
X96571430Y-85516942D01*
X96571430Y-85516942D02*
X96571430Y-85231228D01*
X96571430Y-85231228D02*
X96619049Y-85135990D01*
X96619049Y-85135990D02*
X96666668Y-85088371D01*
X96666668Y-85088371D02*
X96761906Y-85040752D01*
X96761906Y-85040752D02*
X96952382Y-85040752D01*
X96952382Y-85040752D02*
X97047620Y-85088371D01*
X97952382Y-85040752D02*
X97952382Y-85707419D01*
X97523811Y-85040752D02*
X97523811Y-85564561D01*
X97523811Y-85564561D02*
X97571430Y-85659800D01*
X97571430Y-85659800D02*
X97666668Y-85707419D01*
X97666668Y-85707419D02*
X97809525Y-85707419D01*
X97809525Y-85707419D02*
X97904763Y-85659800D01*
X97904763Y-85659800D02*
X97952382Y-85612180D01*
X98809525Y-85659800D02*
X98714287Y-85707419D01*
X98714287Y-85707419D02*
X98523811Y-85707419D01*
X98523811Y-85707419D02*
X98428573Y-85659800D01*
X98428573Y-85659800D02*
X98380954Y-85564561D01*
X98380954Y-85564561D02*
X98380954Y-85183609D01*
X98380954Y-85183609D02*
X98428573Y-85088371D01*
X98428573Y-85088371D02*
X98523811Y-85040752D01*
X98523811Y-85040752D02*
X98714287Y-85040752D01*
X98714287Y-85040752D02*
X98809525Y-85088371D01*
X98809525Y-85088371D02*
X98857144Y-85183609D01*
X98857144Y-85183609D02*
X98857144Y-85278847D01*
X98857144Y-85278847D02*
X98380954Y-85374085D01*
X99285716Y-85040752D02*
X99285716Y-85707419D01*
X99285716Y-85135990D02*
X99333335Y-85088371D01*
X99333335Y-85088371D02*
X99428573Y-85040752D01*
X99428573Y-85040752D02*
X99571430Y-85040752D01*
X99571430Y-85040752D02*
X99666668Y-85088371D01*
X99666668Y-85088371D02*
X99714287Y-85183609D01*
X99714287Y-85183609D02*
X99714287Y-85707419D01*
X100619049Y-85659800D02*
X100523811Y-85707419D01*
X100523811Y-85707419D02*
X100333335Y-85707419D01*
X100333335Y-85707419D02*
X100238097Y-85659800D01*
X100238097Y-85659800D02*
X100190478Y-85612180D01*
X100190478Y-85612180D02*
X100142859Y-85516942D01*
X100142859Y-85516942D02*
X100142859Y-85231228D01*
X100142859Y-85231228D02*
X100190478Y-85135990D01*
X100190478Y-85135990D02*
X100238097Y-85088371D01*
X100238097Y-85088371D02*
X100333335Y-85040752D01*
X100333335Y-85040752D02*
X100523811Y-85040752D01*
X100523811Y-85040752D02*
X100619049Y-85088371D01*
X101428573Y-85659800D02*
X101333335Y-85707419D01*
X101333335Y-85707419D02*
X101142859Y-85707419D01*
X101142859Y-85707419D02*
X101047621Y-85659800D01*
X101047621Y-85659800D02*
X101000002Y-85564561D01*
X101000002Y-85564561D02*
X101000002Y-85183609D01*
X101000002Y-85183609D02*
X101047621Y-85088371D01*
X101047621Y-85088371D02*
X101142859Y-85040752D01*
X101142859Y-85040752D02*
X101333335Y-85040752D01*
X101333335Y-85040752D02*
X101428573Y-85088371D01*
X101428573Y-85088371D02*
X101476192Y-85183609D01*
X101476192Y-85183609D02*
X101476192Y-85278847D01*
X101476192Y-85278847D02*
X101000002Y-85374085D01*
X101857145Y-85659800D02*
X101952383Y-85707419D01*
X101952383Y-85707419D02*
X102142859Y-85707419D01*
X102142859Y-85707419D02*
X102238097Y-85659800D01*
X102238097Y-85659800D02*
X102285716Y-85564561D01*
X102285716Y-85564561D02*
X102285716Y-85516942D01*
X102285716Y-85516942D02*
X102238097Y-85421704D01*
X102238097Y-85421704D02*
X102142859Y-85374085D01*
X102142859Y-85374085D02*
X102000002Y-85374085D01*
X102000002Y-85374085D02*
X101904764Y-85326466D01*
X101904764Y-85326466D02*
X101857145Y-85231228D01*
X101857145Y-85231228D02*
X101857145Y-85183609D01*
X101857145Y-85183609D02*
X101904764Y-85088371D01*
X101904764Y-85088371D02*
X102000002Y-85040752D01*
X102000002Y-85040752D02*
X102142859Y-85040752D01*
X102142859Y-85040752D02*
X102238097Y-85088371D01*
X102714288Y-85612180D02*
X102761907Y-85659800D01*
X102761907Y-85659800D02*
X102714288Y-85707419D01*
X102714288Y-85707419D02*
X102666669Y-85659800D01*
X102666669Y-85659800D02*
X102714288Y-85612180D01*
X102714288Y-85612180D02*
X102714288Y-85707419D01*
%LPC*%
G36*
X99003140Y-103950000D02*
G01*
X117191905Y-64778332D01*
X118310537Y-64778332D01*
X136496859Y-103950000D01*
X135209699Y-103950000D01*
X117470341Y-65672260D01*
X118029658Y-65672260D01*
X100290300Y-103950000D01*
X99003140Y-103950000D01*
G37*
G36*
X104991974Y-92143300D02*
G01*
X105551290Y-91078401D01*
X129894975Y-91078401D01*
X130454291Y-92143300D01*
X104991974Y-92143300D01*
G37*
G36*
X144434752Y-103950000D02*
G01*
X144434752Y-64778332D01*
X145387299Y-64778332D01*
X174711095Y-102662840D01*
X174095603Y-102662840D01*
X174095603Y-64778332D01*
X175214235Y-64778332D01*
X175214235Y-103950000D01*
X174261688Y-103950000D01*
X144940334Y-66065491D01*
X145555826Y-66065491D01*
X145555826Y-103950000D01*
X144434752Y-103950000D01*
G37*
X79750000Y-82750000D02*
X79500000Y-83000000D01*
X79750000Y-83250000D01*
X79500000Y-83500000D01*
X79250000Y-83250000D01*
X79000000Y-83500000D01*
X78750000Y-83250000D01*
X79000000Y-83000000D01*
X78750000Y-82750000D01*
X79000000Y-82500000D01*
X79250000Y-82750000D01*
X79500000Y-82500000D01*
X79750000Y-82750000D01*
G36*
X79750000Y-82750000D02*
G01*
X79500000Y-83000000D01*
X79750000Y-83250000D01*
X79500000Y-83500000D01*
X79250000Y-83250000D01*
X79000000Y-83500000D01*
X78750000Y-83250000D01*
X79000000Y-83000000D01*
X78750000Y-82750000D01*
X79000000Y-82500000D01*
X79250000Y-82750000D01*
X79500000Y-82500000D01*
X79750000Y-82750000D01*
G37*
X75250000Y-79750000D02*
X75000000Y-80000000D01*
X75250000Y-80250000D01*
X75000000Y-80500000D01*
X74750000Y-80250000D01*
X74500000Y-80500000D01*
X74250000Y-80250000D01*
X74500000Y-80000000D01*
X74250000Y-79750000D01*
X74500000Y-79500000D01*
X74750000Y-79750000D01*
X75000000Y-79500000D01*
X75250000Y-79750000D01*
G36*
X75250000Y-79750000D02*
G01*
X75000000Y-80000000D01*
X75250000Y-80250000D01*
X75000000Y-80500000D01*
X74750000Y-80250000D01*
X74500000Y-80500000D01*
X74250000Y-80250000D01*
X74500000Y-80000000D01*
X74250000Y-79750000D01*
X74500000Y-79500000D01*
X74750000Y-79750000D01*
X75000000Y-79500000D01*
X75250000Y-79750000D01*
G37*
X76750000Y-82750000D02*
X76500000Y-83000000D01*
X76750000Y-83250000D01*
X76500000Y-83500000D01*
X76250000Y-83250000D01*
X76000000Y-83500000D01*
X75750000Y-83250000D01*
X76000000Y-83000000D01*
X75750000Y-82750000D01*
X76000000Y-82500000D01*
X76250000Y-82750000D01*
X76500000Y-82500000D01*
X76750000Y-82750000D01*
G36*
X76750000Y-82750000D02*
G01*
X76500000Y-83000000D01*
X76750000Y-83250000D01*
X76500000Y-83500000D01*
X76250000Y-83250000D01*
X76000000Y-83500000D01*
X75750000Y-83250000D01*
X76000000Y-83000000D01*
X75750000Y-82750000D01*
X76000000Y-82500000D01*
X76250000Y-82750000D01*
X76500000Y-82500000D01*
X76750000Y-82750000D01*
G37*
X75250000Y-81250000D02*
X75000000Y-81500000D01*
X75250000Y-81750000D01*
X75000000Y-82000000D01*
X74750000Y-81750000D01*
X74500000Y-82000000D01*
X74250000Y-81750000D01*
X74500000Y-81500000D01*
X74250000Y-81250000D01*
X74500000Y-81000000D01*
X74750000Y-81250000D01*
X75000000Y-81000000D01*
X75250000Y-81250000D01*
G36*
X75250000Y-81250000D02*
G01*
X75000000Y-81500000D01*
X75250000Y-81750000D01*
X75000000Y-82000000D01*
X74750000Y-81750000D01*
X74500000Y-82000000D01*
X74250000Y-81750000D01*
X74500000Y-81500000D01*
X74250000Y-81250000D01*
X74500000Y-81000000D01*
X74750000Y-81250000D01*
X75000000Y-81000000D01*
X75250000Y-81250000D01*
G37*
X78250000Y-82750000D02*
X78000000Y-83000000D01*
X78250000Y-83250000D01*
X78000000Y-83500000D01*
X77750000Y-83250000D01*
X77500000Y-83500000D01*
X77250000Y-83250000D01*
X77500000Y-83000000D01*
X77250000Y-82750000D01*
X77500000Y-82500000D01*
X77750000Y-82750000D01*
X78000000Y-82500000D01*
X78250000Y-82750000D01*
G36*
X78250000Y-82750000D02*
G01*
X78000000Y-83000000D01*
X78250000Y-83250000D01*
X78000000Y-83500000D01*
X77750000Y-83250000D01*
X77500000Y-83500000D01*
X77250000Y-83250000D01*
X77500000Y-83000000D01*
X77250000Y-82750000D01*
X77500000Y-82500000D01*
X77750000Y-82750000D01*
X78000000Y-82500000D01*
X78250000Y-82750000D01*
G37*
X75250000Y-82750000D02*
X75000000Y-83000000D01*
X75250000Y-83250000D01*
X75000000Y-83500000D01*
X74750000Y-83250000D01*
X74500000Y-83500000D01*
X74250000Y-83250000D01*
X74500000Y-83000000D01*
X74250000Y-82750000D01*
X74500000Y-82500000D01*
X74750000Y-82750000D01*
X75000000Y-82500000D01*
X75250000Y-82750000D01*
G36*
X75250000Y-82750000D02*
G01*
X75000000Y-83000000D01*
X75250000Y-83250000D01*
X75000000Y-83500000D01*
X74750000Y-83250000D01*
X74500000Y-83500000D01*
X74250000Y-83250000D01*
X74500000Y-83000000D01*
X74250000Y-82750000D01*
X74500000Y-82500000D01*
X74750000Y-82750000D01*
X75000000Y-82500000D01*
X75250000Y-82750000D01*
G37*
X76750000Y-81250000D02*
X76500000Y-81500000D01*
X76750000Y-81750000D01*
X76500000Y-82000000D01*
X76250000Y-81750000D01*
X76000000Y-82000000D01*
X75750000Y-81750000D01*
X76000000Y-81500000D01*
X75750000Y-81250000D01*
X76000000Y-81000000D01*
X76250000Y-81250000D01*
X76500000Y-81000000D01*
X76750000Y-81250000D01*
G36*
X76750000Y-81250000D02*
G01*
X76500000Y-81500000D01*
X76750000Y-81750000D01*
X76500000Y-82000000D01*
X76250000Y-81750000D01*
X76000000Y-82000000D01*
X75750000Y-81750000D01*
X76000000Y-81500000D01*
X75750000Y-81250000D01*
X76000000Y-81000000D01*
X76250000Y-81250000D01*
X76500000Y-81000000D01*
X76750000Y-81250000D01*
G37*
%LPD*%
M02*
