%TF.GenerationSoftware,KiCad,Pcbnew,9.0.4*%
%TF.CreationDate,2026-01-29T10:07:03+09:00*%
%TF.ProjectId,ansikBackplate,616e7369-6b42-4616-936b-706c6174652e,rev?*%
%TF.SameCoordinates,Original*%
%TF.FileFunction,Legend,Bot*%
%TF.FilePolarity,Positive*%
%FSLAX46Y46*%
G04 Gerber Fmt 4.6, Leading zero omitted, Abs format (unit mm)*
G04 Created by KiCad (PCBNEW 9.0.4) date 2026-01-29 10:07:03*
%MOMM*%
%LPD*%
G01*
G04 APERTURE LIST*
%ADD10C,0.100000*%
G04 APERTURE END LIST*
D10*
X94500000Y-84000000D02*
X74250000Y-84000000D01*
X102714287Y-85707419D02*
X102714287Y-85040752D01*
X102714287Y-85231228D02*
X102666668Y-85135990D01*
X102666668Y-85135990D02*
X102619049Y-85088371D01*
X102619049Y-85088371D02*
X102523811Y-85040752D01*
X102523811Y-85040752D02*
X102428573Y-85040752D01*
X101714287Y-85659800D02*
X101809525Y-85707419D01*
X101809525Y-85707419D02*
X102000001Y-85707419D01*
X102000001Y-85707419D02*
X102095239Y-85659800D01*
X102095239Y-85659800D02*
X102142858Y-85564561D01*
X102142858Y-85564561D02*
X102142858Y-85183609D01*
X102142858Y-85183609D02*
X102095239Y-85088371D01*
X102095239Y-85088371D02*
X102000001Y-85040752D01*
X102000001Y-85040752D02*
X101809525Y-85040752D01*
X101809525Y-85040752D02*
X101714287Y-85088371D01*
X101714287Y-85088371D02*
X101666668Y-85183609D01*
X101666668Y-85183609D02*
X101666668Y-85278847D01*
X101666668Y-85278847D02*
X102142858Y-85374085D01*
X101285715Y-85659800D02*
X101190477Y-85707419D01*
X101190477Y-85707419D02*
X101000001Y-85707419D01*
X101000001Y-85707419D02*
X100904763Y-85659800D01*
X100904763Y-85659800D02*
X100857144Y-85564561D01*
X100857144Y-85564561D02*
X100857144Y-85516942D01*
X100857144Y-85516942D02*
X100904763Y-85421704D01*
X100904763Y-85421704D02*
X101000001Y-85374085D01*
X101000001Y-85374085D02*
X101142858Y-85374085D01*
X101142858Y-85374085D02*
X101238096Y-85326466D01*
X101238096Y-85326466D02*
X101285715Y-85231228D01*
X101285715Y-85231228D02*
X101285715Y-85183609D01*
X101285715Y-85183609D02*
X101238096Y-85088371D01*
X101238096Y-85088371D02*
X101142858Y-85040752D01*
X101142858Y-85040752D02*
X101000001Y-85040752D01*
X101000001Y-85040752D02*
X100904763Y-85088371D01*
X100571429Y-85040752D02*
X100190477Y-85040752D01*
X100428572Y-84707419D02*
X100428572Y-85564561D01*
X100428572Y-85564561D02*
X100380953Y-85659800D01*
X100380953Y-85659800D02*
X100285715Y-85707419D01*
X100285715Y-85707419D02*
X100190477Y-85707419D01*
X99857143Y-85612180D02*
X99809524Y-85659800D01*
X99809524Y-85659800D02*
X99857143Y-85707419D01*
X99857143Y-85707419D02*
X99904762Y-85659800D01*
X99904762Y-85659800D02*
X99857143Y-85612180D01*
X99857143Y-85612180D02*
X99857143Y-85707419D01*
X98190477Y-85707419D02*
X98190477Y-84707419D01*
X98190477Y-85659800D02*
X98285715Y-85707419D01*
X98285715Y-85707419D02*
X98476191Y-85707419D01*
X98476191Y-85707419D02*
X98571429Y-85659800D01*
X98571429Y-85659800D02*
X98619048Y-85612180D01*
X98619048Y-85612180D02*
X98666667Y-85516942D01*
X98666667Y-85516942D02*
X98666667Y-85231228D01*
X98666667Y-85231228D02*
X98619048Y-85135990D01*
X98619048Y-85135990D02*
X98571429Y-85088371D01*
X98571429Y-85088371D02*
X98476191Y-85040752D01*
X98476191Y-85040752D02*
X98285715Y-85040752D01*
X98285715Y-85040752D02*
X98190477Y-85088371D01*
X97571429Y-85707419D02*
X97666667Y-85659800D01*
X97666667Y-85659800D02*
X97714286Y-85612180D01*
X97714286Y-85612180D02*
X97761905Y-85516942D01*
X97761905Y-85516942D02*
X97761905Y-85231228D01*
X97761905Y-85231228D02*
X97714286Y-85135990D01*
X97714286Y-85135990D02*
X97666667Y-85088371D01*
X97666667Y-85088371D02*
X97571429Y-85040752D01*
X97571429Y-85040752D02*
X97428572Y-85040752D01*
X97428572Y-85040752D02*
X97333334Y-85088371D01*
X97333334Y-85088371D02*
X97285715Y-85135990D01*
X97285715Y-85135990D02*
X97238096Y-85231228D01*
X97238096Y-85231228D02*
X97238096Y-85516942D01*
X97238096Y-85516942D02*
X97285715Y-85612180D01*
X97285715Y-85612180D02*
X97333334Y-85659800D01*
X97333334Y-85659800D02*
X97428572Y-85707419D01*
X97428572Y-85707419D02*
X97571429Y-85707419D01*
X96809524Y-85040752D02*
X96809524Y-85707419D01*
X96809524Y-85135990D02*
X96761905Y-85088371D01*
X96761905Y-85088371D02*
X96666667Y-85040752D01*
X96666667Y-85040752D02*
X96523810Y-85040752D01*
X96523810Y-85040752D02*
X96428572Y-85088371D01*
X96428572Y-85088371D02*
X96380953Y-85183609D01*
X96380953Y-85183609D02*
X96380953Y-85707419D01*
X95857143Y-84707419D02*
X95952381Y-84897895D01*
X95571429Y-85040752D02*
X95190477Y-85040752D01*
X95428572Y-84707419D02*
X95428572Y-85564561D01*
X95428572Y-85564561D02*
X95380953Y-85659800D01*
X95380953Y-85659800D02*
X95285715Y-85707419D01*
X95285715Y-85707419D02*
X95190477Y-85707419D01*
X94238095Y-85040752D02*
X93857143Y-85040752D01*
X94095238Y-84707419D02*
X94095238Y-85564561D01*
X94095238Y-85564561D02*
X94047619Y-85659800D01*
X94047619Y-85659800D02*
X93952381Y-85707419D01*
X93952381Y-85707419D02*
X93857143Y-85707419D01*
X93523809Y-85707419D02*
X93523809Y-84707419D01*
X93095238Y-85707419D02*
X93095238Y-85183609D01*
X93095238Y-85183609D02*
X93142857Y-85088371D01*
X93142857Y-85088371D02*
X93238095Y-85040752D01*
X93238095Y-85040752D02*
X93380952Y-85040752D01*
X93380952Y-85040752D02*
X93476190Y-85088371D01*
X93476190Y-85088371D02*
X93523809Y-85135990D01*
X92619047Y-85707419D02*
X92619047Y-85040752D01*
X92619047Y-84707419D02*
X92666666Y-84755038D01*
X92666666Y-84755038D02*
X92619047Y-84802657D01*
X92619047Y-84802657D02*
X92571428Y-84755038D01*
X92571428Y-84755038D02*
X92619047Y-84707419D01*
X92619047Y-84707419D02*
X92619047Y-84802657D01*
X92142857Y-85040752D02*
X92142857Y-85707419D01*
X92142857Y-85135990D02*
X92095238Y-85088371D01*
X92095238Y-85088371D02*
X92000000Y-85040752D01*
X92000000Y-85040752D02*
X91857143Y-85040752D01*
X91857143Y-85040752D02*
X91761905Y-85088371D01*
X91761905Y-85088371D02*
X91714286Y-85183609D01*
X91714286Y-85183609D02*
X91714286Y-85707419D01*
X91238095Y-85707419D02*
X91238095Y-84707419D01*
X91142857Y-85326466D02*
X90857143Y-85707419D01*
X90857143Y-85040752D02*
X91238095Y-85421704D01*
X89238095Y-85707419D02*
X89238095Y-85183609D01*
X89238095Y-85183609D02*
X89285714Y-85088371D01*
X89285714Y-85088371D02*
X89380952Y-85040752D01*
X89380952Y-85040752D02*
X89571428Y-85040752D01*
X89571428Y-85040752D02*
X89666666Y-85088371D01*
X89238095Y-85659800D02*
X89333333Y-85707419D01*
X89333333Y-85707419D02*
X89571428Y-85707419D01*
X89571428Y-85707419D02*
X89666666Y-85659800D01*
X89666666Y-85659800D02*
X89714285Y-85564561D01*
X89714285Y-85564561D02*
X89714285Y-85469323D01*
X89714285Y-85469323D02*
X89666666Y-85374085D01*
X89666666Y-85374085D02*
X89571428Y-85326466D01*
X89571428Y-85326466D02*
X89333333Y-85326466D01*
X89333333Y-85326466D02*
X89238095Y-85278847D01*
X88761904Y-85707419D02*
X88761904Y-84707419D01*
X88761904Y-85088371D02*
X88666666Y-85040752D01*
X88666666Y-85040752D02*
X88476190Y-85040752D01*
X88476190Y-85040752D02*
X88380952Y-85088371D01*
X88380952Y-85088371D02*
X88333333Y-85135990D01*
X88333333Y-85135990D02*
X88285714Y-85231228D01*
X88285714Y-85231228D02*
X88285714Y-85516942D01*
X88285714Y-85516942D02*
X88333333Y-85612180D01*
X88333333Y-85612180D02*
X88380952Y-85659800D01*
X88380952Y-85659800D02*
X88476190Y-85707419D01*
X88476190Y-85707419D02*
X88666666Y-85707419D01*
X88666666Y-85707419D02*
X88761904Y-85659800D01*
X87714285Y-85707419D02*
X87809523Y-85659800D01*
X87809523Y-85659800D02*
X87857142Y-85612180D01*
X87857142Y-85612180D02*
X87904761Y-85516942D01*
X87904761Y-85516942D02*
X87904761Y-85231228D01*
X87904761Y-85231228D02*
X87857142Y-85135990D01*
X87857142Y-85135990D02*
X87809523Y-85088371D01*
X87809523Y-85088371D02*
X87714285Y-85040752D01*
X87714285Y-85040752D02*
X87571428Y-85040752D01*
X87571428Y-85040752D02*
X87476190Y-85088371D01*
X87476190Y-85088371D02*
X87428571Y-85135990D01*
X87428571Y-85135990D02*
X87380952Y-85231228D01*
X87380952Y-85231228D02*
X87380952Y-85516942D01*
X87380952Y-85516942D02*
X87428571Y-85612180D01*
X87428571Y-85612180D02*
X87476190Y-85659800D01*
X87476190Y-85659800D02*
X87571428Y-85707419D01*
X87571428Y-85707419D02*
X87714285Y-85707419D01*
X86523809Y-85040752D02*
X86523809Y-85707419D01*
X86952380Y-85040752D02*
X86952380Y-85564561D01*
X86952380Y-85564561D02*
X86904761Y-85659800D01*
X86904761Y-85659800D02*
X86809523Y-85707419D01*
X86809523Y-85707419D02*
X86666666Y-85707419D01*
X86666666Y-85707419D02*
X86571428Y-85659800D01*
X86571428Y-85659800D02*
X86523809Y-85612180D01*
X86190475Y-85040752D02*
X85809523Y-85040752D01*
X86047618Y-84707419D02*
X86047618Y-85564561D01*
X86047618Y-85564561D02*
X85999999Y-85659800D01*
X85999999Y-85659800D02*
X85904761Y-85707419D01*
X85904761Y-85707419D02*
X85809523Y-85707419D01*
X84285713Y-85659800D02*
X84380951Y-85707419D01*
X84380951Y-85707419D02*
X84571427Y-85707419D01*
X84571427Y-85707419D02*
X84666665Y-85659800D01*
X84666665Y-85659800D02*
X84714284Y-85612180D01*
X84714284Y-85612180D02*
X84761903Y-85516942D01*
X84761903Y-85516942D02*
X84761903Y-85231228D01*
X84761903Y-85231228D02*
X84714284Y-85135990D01*
X84714284Y-85135990D02*
X84666665Y-85088371D01*
X84666665Y-85088371D02*
X84571427Y-85040752D01*
X84571427Y-85040752D02*
X84380951Y-85040752D01*
X84380951Y-85040752D02*
X84285713Y-85088371D01*
X83714284Y-85707419D02*
X83809522Y-85659800D01*
X83809522Y-85659800D02*
X83857141Y-85612180D01*
X83857141Y-85612180D02*
X83904760Y-85516942D01*
X83904760Y-85516942D02*
X83904760Y-85231228D01*
X83904760Y-85231228D02*
X83857141Y-85135990D01*
X83857141Y-85135990D02*
X83809522Y-85088371D01*
X83809522Y-85088371D02*
X83714284Y-85040752D01*
X83714284Y-85040752D02*
X83571427Y-85040752D01*
X83571427Y-85040752D02*
X83476189Y-85088371D01*
X83476189Y-85088371D02*
X83428570Y-85135990D01*
X83428570Y-85135990D02*
X83380951Y-85231228D01*
X83380951Y-85231228D02*
X83380951Y-85516942D01*
X83380951Y-85516942D02*
X83428570Y-85612180D01*
X83428570Y-85612180D02*
X83476189Y-85659800D01*
X83476189Y-85659800D02*
X83571427Y-85707419D01*
X83571427Y-85707419D02*
X83714284Y-85707419D01*
X82952379Y-85040752D02*
X82952379Y-85707419D01*
X82952379Y-85135990D02*
X82904760Y-85088371D01*
X82904760Y-85088371D02*
X82809522Y-85040752D01*
X82809522Y-85040752D02*
X82666665Y-85040752D01*
X82666665Y-85040752D02*
X82571427Y-85088371D01*
X82571427Y-85088371D02*
X82523808Y-85183609D01*
X82523808Y-85183609D02*
X82523808Y-85707419D01*
X82095236Y-85659800D02*
X81999998Y-85707419D01*
X81999998Y-85707419D02*
X81809522Y-85707419D01*
X81809522Y-85707419D02*
X81714284Y-85659800D01*
X81714284Y-85659800D02*
X81666665Y-85564561D01*
X81666665Y-85564561D02*
X81666665Y-85516942D01*
X81666665Y-85516942D02*
X81714284Y-85421704D01*
X81714284Y-85421704D02*
X81809522Y-85374085D01*
X81809522Y-85374085D02*
X81952379Y-85374085D01*
X81952379Y-85374085D02*
X82047617Y-85326466D01*
X82047617Y-85326466D02*
X82095236Y-85231228D01*
X82095236Y-85231228D02*
X82095236Y-85183609D01*
X82095236Y-85183609D02*
X82047617Y-85088371D01*
X82047617Y-85088371D02*
X81952379Y-85040752D01*
X81952379Y-85040752D02*
X81809522Y-85040752D01*
X81809522Y-85040752D02*
X81714284Y-85088371D01*
X80857141Y-85659800D02*
X80952379Y-85707419D01*
X80952379Y-85707419D02*
X81142855Y-85707419D01*
X81142855Y-85707419D02*
X81238093Y-85659800D01*
X81238093Y-85659800D02*
X81285712Y-85564561D01*
X81285712Y-85564561D02*
X81285712Y-85183609D01*
X81285712Y-85183609D02*
X81238093Y-85088371D01*
X81238093Y-85088371D02*
X81142855Y-85040752D01*
X81142855Y-85040752D02*
X80952379Y-85040752D01*
X80952379Y-85040752D02*
X80857141Y-85088371D01*
X80857141Y-85088371D02*
X80809522Y-85183609D01*
X80809522Y-85183609D02*
X80809522Y-85278847D01*
X80809522Y-85278847D02*
X81285712Y-85374085D01*
X79952379Y-85040752D02*
X79952379Y-86040752D01*
X79952379Y-85659800D02*
X80047617Y-85707419D01*
X80047617Y-85707419D02*
X80238093Y-85707419D01*
X80238093Y-85707419D02*
X80333331Y-85659800D01*
X80333331Y-85659800D02*
X80380950Y-85612180D01*
X80380950Y-85612180D02*
X80428569Y-85516942D01*
X80428569Y-85516942D02*
X80428569Y-85231228D01*
X80428569Y-85231228D02*
X80380950Y-85135990D01*
X80380950Y-85135990D02*
X80333331Y-85088371D01*
X80333331Y-85088371D02*
X80238093Y-85040752D01*
X80238093Y-85040752D02*
X80047617Y-85040752D01*
X80047617Y-85040752D02*
X79952379Y-85088371D01*
X79047617Y-85040752D02*
X79047617Y-85707419D01*
X79476188Y-85040752D02*
X79476188Y-85564561D01*
X79476188Y-85564561D02*
X79428569Y-85659800D01*
X79428569Y-85659800D02*
X79333331Y-85707419D01*
X79333331Y-85707419D02*
X79190474Y-85707419D01*
X79190474Y-85707419D02*
X79095236Y-85659800D01*
X79095236Y-85659800D02*
X79047617Y-85612180D01*
X78190474Y-85659800D02*
X78285712Y-85707419D01*
X78285712Y-85707419D02*
X78476188Y-85707419D01*
X78476188Y-85707419D02*
X78571426Y-85659800D01*
X78571426Y-85659800D02*
X78619045Y-85564561D01*
X78619045Y-85564561D02*
X78619045Y-85183609D01*
X78619045Y-85183609D02*
X78571426Y-85088371D01*
X78571426Y-85088371D02*
X78476188Y-85040752D01*
X78476188Y-85040752D02*
X78285712Y-85040752D01*
X78285712Y-85040752D02*
X78190474Y-85088371D01*
X78190474Y-85088371D02*
X78142855Y-85183609D01*
X78142855Y-85183609D02*
X78142855Y-85278847D01*
X78142855Y-85278847D02*
X78619045Y-85374085D01*
X77714283Y-85040752D02*
X77714283Y-85707419D01*
X77714283Y-85135990D02*
X77666664Y-85088371D01*
X77666664Y-85088371D02*
X77571426Y-85040752D01*
X77571426Y-85040752D02*
X77428569Y-85040752D01*
X77428569Y-85040752D02*
X77333331Y-85088371D01*
X77333331Y-85088371D02*
X77285712Y-85183609D01*
X77285712Y-85183609D02*
X77285712Y-85707419D01*
X76380950Y-85659800D02*
X76476188Y-85707419D01*
X76476188Y-85707419D02*
X76666664Y-85707419D01*
X76666664Y-85707419D02*
X76761902Y-85659800D01*
X76761902Y-85659800D02*
X76809521Y-85612180D01*
X76809521Y-85612180D02*
X76857140Y-85516942D01*
X76857140Y-85516942D02*
X76857140Y-85231228D01*
X76857140Y-85231228D02*
X76809521Y-85135990D01*
X76809521Y-85135990D02*
X76761902Y-85088371D01*
X76761902Y-85088371D02*
X76666664Y-85040752D01*
X76666664Y-85040752D02*
X76476188Y-85040752D01*
X76476188Y-85040752D02*
X76380950Y-85088371D01*
X75571426Y-85659800D02*
X75666664Y-85707419D01*
X75666664Y-85707419D02*
X75857140Y-85707419D01*
X75857140Y-85707419D02*
X75952378Y-85659800D01*
X75952378Y-85659800D02*
X75999997Y-85564561D01*
X75999997Y-85564561D02*
X75999997Y-85183609D01*
X75999997Y-85183609D02*
X75952378Y-85088371D01*
X75952378Y-85088371D02*
X75857140Y-85040752D01*
X75857140Y-85040752D02*
X75666664Y-85040752D01*
X75666664Y-85040752D02*
X75571426Y-85088371D01*
X75571426Y-85088371D02*
X75523807Y-85183609D01*
X75523807Y-85183609D02*
X75523807Y-85278847D01*
X75523807Y-85278847D02*
X75999997Y-85374085D01*
X75142854Y-85659800D02*
X75047616Y-85707419D01*
X75047616Y-85707419D02*
X74857140Y-85707419D01*
X74857140Y-85707419D02*
X74761902Y-85659800D01*
X74761902Y-85659800D02*
X74714283Y-85564561D01*
X74714283Y-85564561D02*
X74714283Y-85516942D01*
X74714283Y-85516942D02*
X74761902Y-85421704D01*
X74761902Y-85421704D02*
X74857140Y-85374085D01*
X74857140Y-85374085D02*
X74999997Y-85374085D01*
X74999997Y-85374085D02*
X75095235Y-85326466D01*
X75095235Y-85326466D02*
X75142854Y-85231228D01*
X75142854Y-85231228D02*
X75142854Y-85183609D01*
X75142854Y-85183609D02*
X75095235Y-85088371D01*
X75095235Y-85088371D02*
X74999997Y-85040752D01*
X74999997Y-85040752D02*
X74857140Y-85040752D01*
X74857140Y-85040752D02*
X74761902Y-85088371D01*
X74285711Y-85612180D02*
X74238092Y-85659800D01*
X74238092Y-85659800D02*
X74285711Y-85707419D01*
X74285711Y-85707419D02*
X74333330Y-85659800D01*
X74333330Y-85659800D02*
X74285711Y-85612180D01*
X74285711Y-85612180D02*
X74285711Y-85707419D01*
%LPC*%
X79750000Y-82750000D02*
X79500000Y-83000000D01*
X79750000Y-83250000D01*
X79500000Y-83500000D01*
X79250000Y-83250000D01*
X79000000Y-83500000D01*
X78750000Y-83250000D01*
X79000000Y-83000000D01*
X78750000Y-82750000D01*
X79000000Y-82500000D01*
X79250000Y-82750000D01*
X79500000Y-82500000D01*
X79750000Y-82750000D01*
G36*
X79750000Y-82750000D02*
G01*
X79500000Y-83000000D01*
X79750000Y-83250000D01*
X79500000Y-83500000D01*
X79250000Y-83250000D01*
X79000000Y-83500000D01*
X78750000Y-83250000D01*
X79000000Y-83000000D01*
X78750000Y-82750000D01*
X79000000Y-82500000D01*
X79250000Y-82750000D01*
X79500000Y-82500000D01*
X79750000Y-82750000D01*
G37*
X75250000Y-79750000D02*
X75000000Y-80000000D01*
X75250000Y-80250000D01*
X75000000Y-80500000D01*
X74750000Y-80250000D01*
X74500000Y-80500000D01*
X74250000Y-80250000D01*
X74500000Y-80000000D01*
X74250000Y-79750000D01*
X74500000Y-79500000D01*
X74750000Y-79750000D01*
X75000000Y-79500000D01*
X75250000Y-79750000D01*
G36*
X75250000Y-79750000D02*
G01*
X75000000Y-80000000D01*
X75250000Y-80250000D01*
X75000000Y-80500000D01*
X74750000Y-80250000D01*
X74500000Y-80500000D01*
X74250000Y-80250000D01*
X74500000Y-80000000D01*
X74250000Y-79750000D01*
X74500000Y-79500000D01*
X74750000Y-79750000D01*
X75000000Y-79500000D01*
X75250000Y-79750000D01*
G37*
X75250000Y-81250000D02*
X75000000Y-81500000D01*
X75250000Y-81750000D01*
X75000000Y-82000000D01*
X74750000Y-81750000D01*
X74500000Y-82000000D01*
X74250000Y-81750000D01*
X74500000Y-81500000D01*
X74250000Y-81250000D01*
X74500000Y-81000000D01*
X74750000Y-81250000D01*
X75000000Y-81000000D01*
X75250000Y-81250000D01*
G36*
X75250000Y-81250000D02*
G01*
X75000000Y-81500000D01*
X75250000Y-81750000D01*
X75000000Y-82000000D01*
X74750000Y-81750000D01*
X74500000Y-82000000D01*
X74250000Y-81750000D01*
X74500000Y-81500000D01*
X74250000Y-81250000D01*
X74500000Y-81000000D01*
X74750000Y-81250000D01*
X75000000Y-81000000D01*
X75250000Y-81250000D01*
G37*
X78250000Y-82750000D02*
X78000000Y-83000000D01*
X78250000Y-83250000D01*
X78000000Y-83500000D01*
X77750000Y-83250000D01*
X77500000Y-83500000D01*
X77250000Y-83250000D01*
X77500000Y-83000000D01*
X77250000Y-82750000D01*
X77500000Y-82500000D01*
X77750000Y-82750000D01*
X78000000Y-82500000D01*
X78250000Y-82750000D01*
G36*
X78250000Y-82750000D02*
G01*
X78000000Y-83000000D01*
X78250000Y-83250000D01*
X78000000Y-83500000D01*
X77750000Y-83250000D01*
X77500000Y-83500000D01*
X77250000Y-83250000D01*
X77500000Y-83000000D01*
X77250000Y-82750000D01*
X77500000Y-82500000D01*
X77750000Y-82750000D01*
X78000000Y-82500000D01*
X78250000Y-82750000D01*
G37*
X76750000Y-81250000D02*
X76500000Y-81500000D01*
X76750000Y-81750000D01*
X76500000Y-82000000D01*
X76250000Y-81750000D01*
X76000000Y-82000000D01*
X75750000Y-81750000D01*
X76000000Y-81500000D01*
X75750000Y-81250000D01*
X76000000Y-81000000D01*
X76250000Y-81250000D01*
X76500000Y-81000000D01*
X76750000Y-81250000D01*
G36*
X76750000Y-81250000D02*
G01*
X76500000Y-81500000D01*
X76750000Y-81750000D01*
X76500000Y-82000000D01*
X76250000Y-81750000D01*
X76000000Y-82000000D01*
X75750000Y-81750000D01*
X76000000Y-81500000D01*
X75750000Y-81250000D01*
X76000000Y-81000000D01*
X76250000Y-81250000D01*
X76500000Y-81000000D01*
X76750000Y-81250000D01*
G37*
X75250000Y-82750000D02*
X75000000Y-83000000D01*
X75250000Y-83250000D01*
X75000000Y-83500000D01*
X74750000Y-83250000D01*
X74500000Y-83500000D01*
X74250000Y-83250000D01*
X74500000Y-83000000D01*
X74250000Y-82750000D01*
X74500000Y-82500000D01*
X74750000Y-82750000D01*
X75000000Y-82500000D01*
X75250000Y-82750000D01*
G36*
X75250000Y-82750000D02*
G01*
X75000000Y-83000000D01*
X75250000Y-83250000D01*
X75000000Y-83500000D01*
X74750000Y-83250000D01*
X74500000Y-83500000D01*
X74250000Y-83250000D01*
X74500000Y-83000000D01*
X74250000Y-82750000D01*
X74500000Y-82500000D01*
X74750000Y-82750000D01*
X75000000Y-82500000D01*
X75250000Y-82750000D01*
G37*
X76750000Y-82750000D02*
X76500000Y-83000000D01*
X76750000Y-83250000D01*
X76500000Y-83500000D01*
X76250000Y-83250000D01*
X76000000Y-83500000D01*
X75750000Y-83250000D01*
X76000000Y-83000000D01*
X75750000Y-82750000D01*
X76000000Y-82500000D01*
X76250000Y-82750000D01*
X76500000Y-82500000D01*
X76750000Y-82750000D01*
G36*
X76750000Y-82750000D02*
G01*
X76500000Y-83000000D01*
X76750000Y-83250000D01*
X76500000Y-83500000D01*
X76250000Y-83250000D01*
X76000000Y-83500000D01*
X75750000Y-83250000D01*
X76000000Y-83000000D01*
X75750000Y-82750000D01*
X76000000Y-82500000D01*
X76250000Y-82750000D01*
X76500000Y-82500000D01*
X76750000Y-82750000D01*
G37*
G36*
X161738485Y-104118527D02*
G01*
X164541624Y-103941892D01*
X167210474Y-103419284D01*
X169769190Y-102552930D01*
X172188649Y-101353052D01*
X174072216Y-100025206D01*
X175504012Y-98576657D01*
X174719993Y-97851256D01*
X173380681Y-99169083D01*
X171624832Y-100402224D01*
X169375959Y-101544207D01*
X167003265Y-102376178D01*
X164485206Y-102881592D01*
X161794661Y-103053628D01*
X158967156Y-102905473D01*
X156674058Y-102498646D01*
X154826413Y-101878820D01*
X153113508Y-100967027D01*
X151790791Y-99913618D01*
X150798848Y-98718318D01*
X150066522Y-97344173D01*
X149629995Y-95888755D01*
X149482379Y-94324389D01*
X149646173Y-92504159D01*
X150102979Y-91025999D01*
X150825715Y-89820551D01*
X152366988Y-88314941D01*
X154408757Y-87133879D01*
X156712731Y-86249277D01*
X159276517Y-85512107D01*
X164564375Y-84195638D01*
X167146379Y-83409088D01*
X169461444Y-82434647D01*
X171489893Y-81127868D01*
X173042044Y-79440230D01*
X173761606Y-78108500D01*
X174220330Y-76472179D01*
X174385380Y-74457676D01*
X174233252Y-72779545D01*
X173779955Y-71184208D01*
X173015177Y-69646092D01*
X171970173Y-68286307D01*
X170571736Y-67075234D01*
X168760467Y-66009316D01*
X166788010Y-65270042D01*
X164331501Y-64786073D01*
X161289078Y-64609804D01*
X158184794Y-64853395D01*
X155107292Y-65589218D01*
X152228746Y-66758884D01*
X149929344Y-68190404D01*
X150544836Y-69086775D01*
X153016925Y-67578979D01*
X155752093Y-66512456D01*
X158590968Y-65875969D01*
X161235345Y-65672260D01*
X163943387Y-65822187D01*
X166174523Y-66237261D01*
X168005757Y-66876378D01*
X169700172Y-67803951D01*
X171005111Y-68866934D01*
X171979588Y-70066189D01*
X172692647Y-71437839D01*
X173120986Y-72910804D01*
X173266748Y-74513852D01*
X173101786Y-76373967D01*
X172643904Y-77869938D01*
X171923412Y-79076308D01*
X170382722Y-80580111D01*
X168342812Y-81760537D01*
X166033421Y-82644755D01*
X163445743Y-83384752D01*
X158157885Y-84728087D01*
X155598848Y-85534821D01*
X153290125Y-86518387D01*
X151255263Y-87814658D01*
X149707083Y-89456629D01*
X148987511Y-90752344D01*
X148528896Y-92350129D01*
X148363747Y-94324389D01*
X148518816Y-96001138D01*
X148981382Y-97597064D01*
X149763258Y-99138415D01*
X150826871Y-100490664D01*
X152259907Y-101693264D01*
X154127878Y-102748325D01*
X156152217Y-103472792D01*
X158656613Y-103946407D01*
X161738485Y-104118527D01*
G37*
G36*
X137661025Y-103950000D02*
G01*
X137661025Y-64778332D01*
X136539951Y-64778332D01*
X136539951Y-103950000D01*
X137661025Y-103950000D01*
G37*
G36*
X120781402Y-93765073D02*
G01*
X120781402Y-92253210D01*
X94031926Y-64778332D01*
X92522505Y-64778332D01*
X110093335Y-82852302D01*
X110765003Y-83467794D01*
X120781402Y-93765073D01*
G37*
G36*
X121677773Y-103950000D02*
G01*
X121677773Y-64778332D01*
X120556699Y-64778332D01*
X120556699Y-103950000D01*
X121677773Y-103950000D01*
G37*
G36*
X92744766Y-103950000D02*
G01*
X111380495Y-82852302D01*
X110540300Y-82124459D01*
X91235345Y-103950000D01*
X92744766Y-103950000D01*
G37*
%LPD*%
M02*
