%TF.GenerationSoftware,KiCad,Pcbnew,9.0.4*%
%TF.CreationDate,2026-02-04T08:56:54+09:00*%
%TF.ProjectId,ansicBackplate,616e7369-6342-4616-936b-706c6174652e,rev?*%
%TF.SameCoordinates,Original*%
%TF.FileFunction,Legend,Top*%
%TF.FilePolarity,Positive*%
%FSLAX46Y46*%
G04 Gerber Fmt 4.6, Leading zero omitted, Abs format (unit mm)*
G04 Created by KiCad (PCBNEW 9.0.4) date 2026-02-04 08:56:54*
%MOMM*%
%LPD*%
G01*
G04 APERTURE LIST*
%ADD10C,0.100000*%
G04 APERTURE END LIST*
D10*
X73206093Y-82500000D02*
X93456093Y-82500000D01*
X73241805Y-84207419D02*
X73241805Y-83540752D01*
X73241805Y-83731228D02*
X73289424Y-83635990D01*
X73289424Y-83635990D02*
X73337043Y-83588371D01*
X73337043Y-83588371D02*
X73432281Y-83540752D01*
X73432281Y-83540752D02*
X73527519Y-83540752D01*
X74241805Y-84159800D02*
X74146567Y-84207419D01*
X74146567Y-84207419D02*
X73956091Y-84207419D01*
X73956091Y-84207419D02*
X73860853Y-84159800D01*
X73860853Y-84159800D02*
X73813234Y-84064561D01*
X73813234Y-84064561D02*
X73813234Y-83683609D01*
X73813234Y-83683609D02*
X73860853Y-83588371D01*
X73860853Y-83588371D02*
X73956091Y-83540752D01*
X73956091Y-83540752D02*
X74146567Y-83540752D01*
X74146567Y-83540752D02*
X74241805Y-83588371D01*
X74241805Y-83588371D02*
X74289424Y-83683609D01*
X74289424Y-83683609D02*
X74289424Y-83778847D01*
X74289424Y-83778847D02*
X73813234Y-83874085D01*
X74670377Y-84159800D02*
X74765615Y-84207419D01*
X74765615Y-84207419D02*
X74956091Y-84207419D01*
X74956091Y-84207419D02*
X75051329Y-84159800D01*
X75051329Y-84159800D02*
X75098948Y-84064561D01*
X75098948Y-84064561D02*
X75098948Y-84016942D01*
X75098948Y-84016942D02*
X75051329Y-83921704D01*
X75051329Y-83921704D02*
X74956091Y-83874085D01*
X74956091Y-83874085D02*
X74813234Y-83874085D01*
X74813234Y-83874085D02*
X74717996Y-83826466D01*
X74717996Y-83826466D02*
X74670377Y-83731228D01*
X74670377Y-83731228D02*
X74670377Y-83683609D01*
X74670377Y-83683609D02*
X74717996Y-83588371D01*
X74717996Y-83588371D02*
X74813234Y-83540752D01*
X74813234Y-83540752D02*
X74956091Y-83540752D01*
X74956091Y-83540752D02*
X75051329Y-83588371D01*
X75384663Y-83540752D02*
X75765615Y-83540752D01*
X75527520Y-83207419D02*
X75527520Y-84064561D01*
X75527520Y-84064561D02*
X75575139Y-84159800D01*
X75575139Y-84159800D02*
X75670377Y-84207419D01*
X75670377Y-84207419D02*
X75765615Y-84207419D01*
X76098949Y-84112180D02*
X76146568Y-84159800D01*
X76146568Y-84159800D02*
X76098949Y-84207419D01*
X76098949Y-84207419D02*
X76051330Y-84159800D01*
X76051330Y-84159800D02*
X76098949Y-84112180D01*
X76098949Y-84112180D02*
X76098949Y-84207419D01*
X77765615Y-84207419D02*
X77765615Y-83207419D01*
X77765615Y-84159800D02*
X77670377Y-84207419D01*
X77670377Y-84207419D02*
X77479901Y-84207419D01*
X77479901Y-84207419D02*
X77384663Y-84159800D01*
X77384663Y-84159800D02*
X77337044Y-84112180D01*
X77337044Y-84112180D02*
X77289425Y-84016942D01*
X77289425Y-84016942D02*
X77289425Y-83731228D01*
X77289425Y-83731228D02*
X77337044Y-83635990D01*
X77337044Y-83635990D02*
X77384663Y-83588371D01*
X77384663Y-83588371D02*
X77479901Y-83540752D01*
X77479901Y-83540752D02*
X77670377Y-83540752D01*
X77670377Y-83540752D02*
X77765615Y-83588371D01*
X78384663Y-84207419D02*
X78289425Y-84159800D01*
X78289425Y-84159800D02*
X78241806Y-84112180D01*
X78241806Y-84112180D02*
X78194187Y-84016942D01*
X78194187Y-84016942D02*
X78194187Y-83731228D01*
X78194187Y-83731228D02*
X78241806Y-83635990D01*
X78241806Y-83635990D02*
X78289425Y-83588371D01*
X78289425Y-83588371D02*
X78384663Y-83540752D01*
X78384663Y-83540752D02*
X78527520Y-83540752D01*
X78527520Y-83540752D02*
X78622758Y-83588371D01*
X78622758Y-83588371D02*
X78670377Y-83635990D01*
X78670377Y-83635990D02*
X78717996Y-83731228D01*
X78717996Y-83731228D02*
X78717996Y-84016942D01*
X78717996Y-84016942D02*
X78670377Y-84112180D01*
X78670377Y-84112180D02*
X78622758Y-84159800D01*
X78622758Y-84159800D02*
X78527520Y-84207419D01*
X78527520Y-84207419D02*
X78384663Y-84207419D01*
X79146568Y-83540752D02*
X79146568Y-84207419D01*
X79146568Y-83635990D02*
X79194187Y-83588371D01*
X79194187Y-83588371D02*
X79289425Y-83540752D01*
X79289425Y-83540752D02*
X79432282Y-83540752D01*
X79432282Y-83540752D02*
X79527520Y-83588371D01*
X79527520Y-83588371D02*
X79575139Y-83683609D01*
X79575139Y-83683609D02*
X79575139Y-84207419D01*
X80098949Y-83207419D02*
X80003711Y-83397895D01*
X80384663Y-83540752D02*
X80765615Y-83540752D01*
X80527520Y-83207419D02*
X80527520Y-84064561D01*
X80527520Y-84064561D02*
X80575139Y-84159800D01*
X80575139Y-84159800D02*
X80670377Y-84207419D01*
X80670377Y-84207419D02*
X80765615Y-84207419D01*
X81717997Y-83540752D02*
X82098949Y-83540752D01*
X81860854Y-83207419D02*
X81860854Y-84064561D01*
X81860854Y-84064561D02*
X81908473Y-84159800D01*
X81908473Y-84159800D02*
X82003711Y-84207419D01*
X82003711Y-84207419D02*
X82098949Y-84207419D01*
X82432283Y-84207419D02*
X82432283Y-83207419D01*
X82860854Y-84207419D02*
X82860854Y-83683609D01*
X82860854Y-83683609D02*
X82813235Y-83588371D01*
X82813235Y-83588371D02*
X82717997Y-83540752D01*
X82717997Y-83540752D02*
X82575140Y-83540752D01*
X82575140Y-83540752D02*
X82479902Y-83588371D01*
X82479902Y-83588371D02*
X82432283Y-83635990D01*
X83337045Y-84207419D02*
X83337045Y-83540752D01*
X83337045Y-83207419D02*
X83289426Y-83255038D01*
X83289426Y-83255038D02*
X83337045Y-83302657D01*
X83337045Y-83302657D02*
X83384664Y-83255038D01*
X83384664Y-83255038D02*
X83337045Y-83207419D01*
X83337045Y-83207419D02*
X83337045Y-83302657D01*
X83813235Y-83540752D02*
X83813235Y-84207419D01*
X83813235Y-83635990D02*
X83860854Y-83588371D01*
X83860854Y-83588371D02*
X83956092Y-83540752D01*
X83956092Y-83540752D02*
X84098949Y-83540752D01*
X84098949Y-83540752D02*
X84194187Y-83588371D01*
X84194187Y-83588371D02*
X84241806Y-83683609D01*
X84241806Y-83683609D02*
X84241806Y-84207419D01*
X84717997Y-84207419D02*
X84717997Y-83207419D01*
X84813235Y-83826466D02*
X85098949Y-84207419D01*
X85098949Y-83540752D02*
X84717997Y-83921704D01*
X86717997Y-84207419D02*
X86717997Y-83683609D01*
X86717997Y-83683609D02*
X86670378Y-83588371D01*
X86670378Y-83588371D02*
X86575140Y-83540752D01*
X86575140Y-83540752D02*
X86384664Y-83540752D01*
X86384664Y-83540752D02*
X86289426Y-83588371D01*
X86717997Y-84159800D02*
X86622759Y-84207419D01*
X86622759Y-84207419D02*
X86384664Y-84207419D01*
X86384664Y-84207419D02*
X86289426Y-84159800D01*
X86289426Y-84159800D02*
X86241807Y-84064561D01*
X86241807Y-84064561D02*
X86241807Y-83969323D01*
X86241807Y-83969323D02*
X86289426Y-83874085D01*
X86289426Y-83874085D02*
X86384664Y-83826466D01*
X86384664Y-83826466D02*
X86622759Y-83826466D01*
X86622759Y-83826466D02*
X86717997Y-83778847D01*
X87194188Y-84207419D02*
X87194188Y-83207419D01*
X87194188Y-83588371D02*
X87289426Y-83540752D01*
X87289426Y-83540752D02*
X87479902Y-83540752D01*
X87479902Y-83540752D02*
X87575140Y-83588371D01*
X87575140Y-83588371D02*
X87622759Y-83635990D01*
X87622759Y-83635990D02*
X87670378Y-83731228D01*
X87670378Y-83731228D02*
X87670378Y-84016942D01*
X87670378Y-84016942D02*
X87622759Y-84112180D01*
X87622759Y-84112180D02*
X87575140Y-84159800D01*
X87575140Y-84159800D02*
X87479902Y-84207419D01*
X87479902Y-84207419D02*
X87289426Y-84207419D01*
X87289426Y-84207419D02*
X87194188Y-84159800D01*
X88241807Y-84207419D02*
X88146569Y-84159800D01*
X88146569Y-84159800D02*
X88098950Y-84112180D01*
X88098950Y-84112180D02*
X88051331Y-84016942D01*
X88051331Y-84016942D02*
X88051331Y-83731228D01*
X88051331Y-83731228D02*
X88098950Y-83635990D01*
X88098950Y-83635990D02*
X88146569Y-83588371D01*
X88146569Y-83588371D02*
X88241807Y-83540752D01*
X88241807Y-83540752D02*
X88384664Y-83540752D01*
X88384664Y-83540752D02*
X88479902Y-83588371D01*
X88479902Y-83588371D02*
X88527521Y-83635990D01*
X88527521Y-83635990D02*
X88575140Y-83731228D01*
X88575140Y-83731228D02*
X88575140Y-84016942D01*
X88575140Y-84016942D02*
X88527521Y-84112180D01*
X88527521Y-84112180D02*
X88479902Y-84159800D01*
X88479902Y-84159800D02*
X88384664Y-84207419D01*
X88384664Y-84207419D02*
X88241807Y-84207419D01*
X89432283Y-83540752D02*
X89432283Y-84207419D01*
X89003712Y-83540752D02*
X89003712Y-84064561D01*
X89003712Y-84064561D02*
X89051331Y-84159800D01*
X89051331Y-84159800D02*
X89146569Y-84207419D01*
X89146569Y-84207419D02*
X89289426Y-84207419D01*
X89289426Y-84207419D02*
X89384664Y-84159800D01*
X89384664Y-84159800D02*
X89432283Y-84112180D01*
X89765617Y-83540752D02*
X90146569Y-83540752D01*
X89908474Y-83207419D02*
X89908474Y-84064561D01*
X89908474Y-84064561D02*
X89956093Y-84159800D01*
X89956093Y-84159800D02*
X90051331Y-84207419D01*
X90051331Y-84207419D02*
X90146569Y-84207419D01*
X91670379Y-84159800D02*
X91575141Y-84207419D01*
X91575141Y-84207419D02*
X91384665Y-84207419D01*
X91384665Y-84207419D02*
X91289427Y-84159800D01*
X91289427Y-84159800D02*
X91241808Y-84112180D01*
X91241808Y-84112180D02*
X91194189Y-84016942D01*
X91194189Y-84016942D02*
X91194189Y-83731228D01*
X91194189Y-83731228D02*
X91241808Y-83635990D01*
X91241808Y-83635990D02*
X91289427Y-83588371D01*
X91289427Y-83588371D02*
X91384665Y-83540752D01*
X91384665Y-83540752D02*
X91575141Y-83540752D01*
X91575141Y-83540752D02*
X91670379Y-83588371D01*
X92241808Y-84207419D02*
X92146570Y-84159800D01*
X92146570Y-84159800D02*
X92098951Y-84112180D01*
X92098951Y-84112180D02*
X92051332Y-84016942D01*
X92051332Y-84016942D02*
X92051332Y-83731228D01*
X92051332Y-83731228D02*
X92098951Y-83635990D01*
X92098951Y-83635990D02*
X92146570Y-83588371D01*
X92146570Y-83588371D02*
X92241808Y-83540752D01*
X92241808Y-83540752D02*
X92384665Y-83540752D01*
X92384665Y-83540752D02*
X92479903Y-83588371D01*
X92479903Y-83588371D02*
X92527522Y-83635990D01*
X92527522Y-83635990D02*
X92575141Y-83731228D01*
X92575141Y-83731228D02*
X92575141Y-84016942D01*
X92575141Y-84016942D02*
X92527522Y-84112180D01*
X92527522Y-84112180D02*
X92479903Y-84159800D01*
X92479903Y-84159800D02*
X92384665Y-84207419D01*
X92384665Y-84207419D02*
X92241808Y-84207419D01*
X93003713Y-83540752D02*
X93003713Y-84207419D01*
X93003713Y-83635990D02*
X93051332Y-83588371D01*
X93051332Y-83588371D02*
X93146570Y-83540752D01*
X93146570Y-83540752D02*
X93289427Y-83540752D01*
X93289427Y-83540752D02*
X93384665Y-83588371D01*
X93384665Y-83588371D02*
X93432284Y-83683609D01*
X93432284Y-83683609D02*
X93432284Y-84207419D01*
X93860856Y-84159800D02*
X93956094Y-84207419D01*
X93956094Y-84207419D02*
X94146570Y-84207419D01*
X94146570Y-84207419D02*
X94241808Y-84159800D01*
X94241808Y-84159800D02*
X94289427Y-84064561D01*
X94289427Y-84064561D02*
X94289427Y-84016942D01*
X94289427Y-84016942D02*
X94241808Y-83921704D01*
X94241808Y-83921704D02*
X94146570Y-83874085D01*
X94146570Y-83874085D02*
X94003713Y-83874085D01*
X94003713Y-83874085D02*
X93908475Y-83826466D01*
X93908475Y-83826466D02*
X93860856Y-83731228D01*
X93860856Y-83731228D02*
X93860856Y-83683609D01*
X93860856Y-83683609D02*
X93908475Y-83588371D01*
X93908475Y-83588371D02*
X94003713Y-83540752D01*
X94003713Y-83540752D02*
X94146570Y-83540752D01*
X94146570Y-83540752D02*
X94241808Y-83588371D01*
X95098951Y-84159800D02*
X95003713Y-84207419D01*
X95003713Y-84207419D02*
X94813237Y-84207419D01*
X94813237Y-84207419D02*
X94717999Y-84159800D01*
X94717999Y-84159800D02*
X94670380Y-84064561D01*
X94670380Y-84064561D02*
X94670380Y-83683609D01*
X94670380Y-83683609D02*
X94717999Y-83588371D01*
X94717999Y-83588371D02*
X94813237Y-83540752D01*
X94813237Y-83540752D02*
X95003713Y-83540752D01*
X95003713Y-83540752D02*
X95098951Y-83588371D01*
X95098951Y-83588371D02*
X95146570Y-83683609D01*
X95146570Y-83683609D02*
X95146570Y-83778847D01*
X95146570Y-83778847D02*
X94670380Y-83874085D01*
X96003713Y-83540752D02*
X96003713Y-84540752D01*
X96003713Y-84159800D02*
X95908475Y-84207419D01*
X95908475Y-84207419D02*
X95717999Y-84207419D01*
X95717999Y-84207419D02*
X95622761Y-84159800D01*
X95622761Y-84159800D02*
X95575142Y-84112180D01*
X95575142Y-84112180D02*
X95527523Y-84016942D01*
X95527523Y-84016942D02*
X95527523Y-83731228D01*
X95527523Y-83731228D02*
X95575142Y-83635990D01*
X95575142Y-83635990D02*
X95622761Y-83588371D01*
X95622761Y-83588371D02*
X95717999Y-83540752D01*
X95717999Y-83540752D02*
X95908475Y-83540752D01*
X95908475Y-83540752D02*
X96003713Y-83588371D01*
X96908475Y-83540752D02*
X96908475Y-84207419D01*
X96479904Y-83540752D02*
X96479904Y-84064561D01*
X96479904Y-84064561D02*
X96527523Y-84159800D01*
X96527523Y-84159800D02*
X96622761Y-84207419D01*
X96622761Y-84207419D02*
X96765618Y-84207419D01*
X96765618Y-84207419D02*
X96860856Y-84159800D01*
X96860856Y-84159800D02*
X96908475Y-84112180D01*
X97765618Y-84159800D02*
X97670380Y-84207419D01*
X97670380Y-84207419D02*
X97479904Y-84207419D01*
X97479904Y-84207419D02*
X97384666Y-84159800D01*
X97384666Y-84159800D02*
X97337047Y-84064561D01*
X97337047Y-84064561D02*
X97337047Y-83683609D01*
X97337047Y-83683609D02*
X97384666Y-83588371D01*
X97384666Y-83588371D02*
X97479904Y-83540752D01*
X97479904Y-83540752D02*
X97670380Y-83540752D01*
X97670380Y-83540752D02*
X97765618Y-83588371D01*
X97765618Y-83588371D02*
X97813237Y-83683609D01*
X97813237Y-83683609D02*
X97813237Y-83778847D01*
X97813237Y-83778847D02*
X97337047Y-83874085D01*
X98241809Y-83540752D02*
X98241809Y-84207419D01*
X98241809Y-83635990D02*
X98289428Y-83588371D01*
X98289428Y-83588371D02*
X98384666Y-83540752D01*
X98384666Y-83540752D02*
X98527523Y-83540752D01*
X98527523Y-83540752D02*
X98622761Y-83588371D01*
X98622761Y-83588371D02*
X98670380Y-83683609D01*
X98670380Y-83683609D02*
X98670380Y-84207419D01*
X99575142Y-84159800D02*
X99479904Y-84207419D01*
X99479904Y-84207419D02*
X99289428Y-84207419D01*
X99289428Y-84207419D02*
X99194190Y-84159800D01*
X99194190Y-84159800D02*
X99146571Y-84112180D01*
X99146571Y-84112180D02*
X99098952Y-84016942D01*
X99098952Y-84016942D02*
X99098952Y-83731228D01*
X99098952Y-83731228D02*
X99146571Y-83635990D01*
X99146571Y-83635990D02*
X99194190Y-83588371D01*
X99194190Y-83588371D02*
X99289428Y-83540752D01*
X99289428Y-83540752D02*
X99479904Y-83540752D01*
X99479904Y-83540752D02*
X99575142Y-83588371D01*
X100384666Y-84159800D02*
X100289428Y-84207419D01*
X100289428Y-84207419D02*
X100098952Y-84207419D01*
X100098952Y-84207419D02*
X100003714Y-84159800D01*
X100003714Y-84159800D02*
X99956095Y-84064561D01*
X99956095Y-84064561D02*
X99956095Y-83683609D01*
X99956095Y-83683609D02*
X100003714Y-83588371D01*
X100003714Y-83588371D02*
X100098952Y-83540752D01*
X100098952Y-83540752D02*
X100289428Y-83540752D01*
X100289428Y-83540752D02*
X100384666Y-83588371D01*
X100384666Y-83588371D02*
X100432285Y-83683609D01*
X100432285Y-83683609D02*
X100432285Y-83778847D01*
X100432285Y-83778847D02*
X99956095Y-83874085D01*
X100813238Y-84159800D02*
X100908476Y-84207419D01*
X100908476Y-84207419D02*
X101098952Y-84207419D01*
X101098952Y-84207419D02*
X101194190Y-84159800D01*
X101194190Y-84159800D02*
X101241809Y-84064561D01*
X101241809Y-84064561D02*
X101241809Y-84016942D01*
X101241809Y-84016942D02*
X101194190Y-83921704D01*
X101194190Y-83921704D02*
X101098952Y-83874085D01*
X101098952Y-83874085D02*
X100956095Y-83874085D01*
X100956095Y-83874085D02*
X100860857Y-83826466D01*
X100860857Y-83826466D02*
X100813238Y-83731228D01*
X100813238Y-83731228D02*
X100813238Y-83683609D01*
X100813238Y-83683609D02*
X100860857Y-83588371D01*
X100860857Y-83588371D02*
X100956095Y-83540752D01*
X100956095Y-83540752D02*
X101098952Y-83540752D01*
X101098952Y-83540752D02*
X101194190Y-83588371D01*
X101670381Y-84112180D02*
X101718000Y-84159800D01*
X101718000Y-84159800D02*
X101670381Y-84207419D01*
X101670381Y-84207419D02*
X101622762Y-84159800D01*
X101622762Y-84159800D02*
X101670381Y-84112180D01*
X101670381Y-84112180D02*
X101670381Y-84207419D01*
%LPC*%
X78706093Y-81250000D02*
X78456093Y-81500000D01*
X78706093Y-81750000D01*
X78456093Y-82000000D01*
X78206093Y-81750000D01*
X77956093Y-82000000D01*
X77706093Y-81750000D01*
X77956093Y-81500000D01*
X77706093Y-81250000D01*
X77956093Y-81000000D01*
X78206093Y-81250000D01*
X78456093Y-81000000D01*
X78706093Y-81250000D01*
G36*
X78706093Y-81250000D02*
G01*
X78456093Y-81500000D01*
X78706093Y-81750000D01*
X78456093Y-82000000D01*
X78206093Y-81750000D01*
X77956093Y-82000000D01*
X77706093Y-81750000D01*
X77956093Y-81500000D01*
X77706093Y-81250000D01*
X77956093Y-81000000D01*
X78206093Y-81250000D01*
X78456093Y-81000000D01*
X78706093Y-81250000D01*
G37*
X74206093Y-78250000D02*
X73956093Y-78500000D01*
X74206093Y-78750000D01*
X73956093Y-79000000D01*
X73706093Y-78750000D01*
X73456093Y-79000000D01*
X73206093Y-78750000D01*
X73456093Y-78500000D01*
X73206093Y-78250000D01*
X73456093Y-78000000D01*
X73706093Y-78250000D01*
X73956093Y-78000000D01*
X74206093Y-78250000D01*
G36*
X74206093Y-78250000D02*
G01*
X73956093Y-78500000D01*
X74206093Y-78750000D01*
X73956093Y-79000000D01*
X73706093Y-78750000D01*
X73456093Y-79000000D01*
X73206093Y-78750000D01*
X73456093Y-78500000D01*
X73206093Y-78250000D01*
X73456093Y-78000000D01*
X73706093Y-78250000D01*
X73956093Y-78000000D01*
X74206093Y-78250000D01*
G37*
X75706093Y-81250000D02*
X75456093Y-81500000D01*
X75706093Y-81750000D01*
X75456093Y-82000000D01*
X75206093Y-81750000D01*
X74956093Y-82000000D01*
X74706093Y-81750000D01*
X74956093Y-81500000D01*
X74706093Y-81250000D01*
X74956093Y-81000000D01*
X75206093Y-81250000D01*
X75456093Y-81000000D01*
X75706093Y-81250000D01*
G36*
X75706093Y-81250000D02*
G01*
X75456093Y-81500000D01*
X75706093Y-81750000D01*
X75456093Y-82000000D01*
X75206093Y-81750000D01*
X74956093Y-82000000D01*
X74706093Y-81750000D01*
X74956093Y-81500000D01*
X74706093Y-81250000D01*
X74956093Y-81000000D01*
X75206093Y-81250000D01*
X75456093Y-81000000D01*
X75706093Y-81250000D01*
G37*
X74206093Y-79750000D02*
X73956093Y-80000000D01*
X74206093Y-80250000D01*
X73956093Y-80500000D01*
X73706093Y-80250000D01*
X73456093Y-80500000D01*
X73206093Y-80250000D01*
X73456093Y-80000000D01*
X73206093Y-79750000D01*
X73456093Y-79500000D01*
X73706093Y-79750000D01*
X73956093Y-79500000D01*
X74206093Y-79750000D01*
G36*
X74206093Y-79750000D02*
G01*
X73956093Y-80000000D01*
X74206093Y-80250000D01*
X73956093Y-80500000D01*
X73706093Y-80250000D01*
X73456093Y-80500000D01*
X73206093Y-80250000D01*
X73456093Y-80000000D01*
X73206093Y-79750000D01*
X73456093Y-79500000D01*
X73706093Y-79750000D01*
X73956093Y-79500000D01*
X74206093Y-79750000D01*
G37*
X77206093Y-81250000D02*
X76956093Y-81500000D01*
X77206093Y-81750000D01*
X76956093Y-82000000D01*
X76706093Y-81750000D01*
X76456093Y-82000000D01*
X76206093Y-81750000D01*
X76456093Y-81500000D01*
X76206093Y-81250000D01*
X76456093Y-81000000D01*
X76706093Y-81250000D01*
X76956093Y-81000000D01*
X77206093Y-81250000D01*
G36*
X77206093Y-81250000D02*
G01*
X76956093Y-81500000D01*
X77206093Y-81750000D01*
X76956093Y-82000000D01*
X76706093Y-81750000D01*
X76456093Y-82000000D01*
X76206093Y-81750000D01*
X76456093Y-81500000D01*
X76206093Y-81250000D01*
X76456093Y-81000000D01*
X76706093Y-81250000D01*
X76956093Y-81000000D01*
X77206093Y-81250000D01*
G37*
X74206093Y-81250000D02*
X73956093Y-81500000D01*
X74206093Y-81750000D01*
X73956093Y-82000000D01*
X73706093Y-81750000D01*
X73456093Y-82000000D01*
X73206093Y-81750000D01*
X73456093Y-81500000D01*
X73206093Y-81250000D01*
X73456093Y-81000000D01*
X73706093Y-81250000D01*
X73956093Y-81000000D01*
X74206093Y-81250000D01*
G36*
X74206093Y-81250000D02*
G01*
X73956093Y-81500000D01*
X74206093Y-81750000D01*
X73956093Y-82000000D01*
X73706093Y-81750000D01*
X73456093Y-82000000D01*
X73206093Y-81750000D01*
X73456093Y-81500000D01*
X73206093Y-81250000D01*
X73456093Y-81000000D01*
X73706093Y-81250000D01*
X73956093Y-81000000D01*
X74206093Y-81250000D01*
G37*
X75706093Y-79750000D02*
X75456093Y-80000000D01*
X75706093Y-80250000D01*
X75456093Y-80500000D01*
X75206093Y-80250000D01*
X74956093Y-80500000D01*
X74706093Y-80250000D01*
X74956093Y-80000000D01*
X74706093Y-79750000D01*
X74956093Y-79500000D01*
X75206093Y-79750000D01*
X75456093Y-79500000D01*
X75706093Y-79750000D01*
G36*
X75706093Y-79750000D02*
G01*
X75456093Y-80000000D01*
X75706093Y-80250000D01*
X75456093Y-80500000D01*
X75206093Y-80250000D01*
X74956093Y-80500000D01*
X74706093Y-80250000D01*
X74956093Y-80000000D01*
X74706093Y-79750000D01*
X74956093Y-79500000D01*
X75206093Y-79750000D01*
X75456093Y-79500000D01*
X75706093Y-79750000D01*
G37*
G36*
X97959233Y-102450000D02*
G01*
X116147998Y-63278332D01*
X117266630Y-63278332D01*
X135452952Y-102450000D01*
X134165792Y-102450000D01*
X116426434Y-64172260D01*
X116985751Y-64172260D01*
X99246393Y-102450000D01*
X97959233Y-102450000D01*
G37*
G36*
X103948067Y-90643300D02*
G01*
X104507383Y-89578401D01*
X128851068Y-89578401D01*
X129410384Y-90643300D01*
X103948067Y-90643300D01*
G37*
G36*
X143390845Y-102450000D02*
G01*
X143390845Y-63278332D01*
X144343392Y-63278332D01*
X173667188Y-101162840D01*
X173051696Y-101162840D01*
X173051696Y-63278332D01*
X174170328Y-63278332D01*
X174170328Y-102450000D01*
X173217781Y-102450000D01*
X143896427Y-64565491D01*
X144511919Y-64565491D01*
X144511919Y-102450000D01*
X143390845Y-102450000D01*
G37*
%LPD*%
M02*
