%TF.GenerationSoftware,KiCad,Pcbnew,9.0.4*%
%TF.CreationDate,2026-02-03T23:15:48+09:00*%
%TF.ProjectId,ansicBackplateDrain,616e7369-6342-4616-936b-706c61746544,rev?*%
%TF.SameCoordinates,Original*%
%TF.FileFunction,Legend,Top*%
%TF.FilePolarity,Positive*%
%FSLAX46Y46*%
G04 Gerber Fmt 4.6, Leading zero omitted, Abs format (unit mm)*
G04 Created by KiCad (PCBNEW 9.0.4) date 2026-02-03 23:15:48*
%MOMM*%
%LPD*%
G01*
G04 APERTURE LIST*
%ADD10C,0.100000*%
%ADD11C,1.000000*%
G04 APERTURE END LIST*
D10*
X101035716Y-117500000D02*
G75*
G02*
X100035716Y-117500000I-500000J0D01*
G01*
X100035716Y-117500000D02*
X100035756Y-117492254D01*
X100035876Y-117484468D01*
X100036076Y-117476642D01*
X100036357Y-117468775D01*
X100036720Y-117460868D01*
X100037164Y-117452918D01*
X100037690Y-117444927D01*
X100038299Y-117436894D01*
X100038992Y-117428817D01*
X100039768Y-117420698D01*
X100040629Y-117412536D01*
X100041574Y-117404330D01*
X100042605Y-117396079D01*
X100043721Y-117387785D01*
X100044925Y-117379445D01*
X100046215Y-117371060D01*
X100047593Y-117362630D01*
X100049059Y-117354154D01*
X100050614Y-117345632D01*
X100052259Y-117337063D01*
X100053994Y-117328448D01*
X100055820Y-117319786D01*
X100057737Y-117311076D01*
X100059746Y-117302319D01*
X100061848Y-117293514D01*
X100064044Y-117284661D01*
X100066333Y-117275760D01*
X100068718Y-117266810D01*
X100071198Y-117257812D01*
X100073774Y-117248764D01*
X100076447Y-117239668D01*
X100079217Y-117230522D01*
X100082086Y-117221327D01*
X100085054Y-117212082D01*
X100088121Y-117202788D01*
X100091288Y-117193444D01*
X100094557Y-117184050D01*
X100097927Y-117174606D01*
X100101400Y-117165112D01*
X100104976Y-117155569D01*
X100108655Y-117145975D01*
X100112439Y-117136332D01*
X100116328Y-117126638D01*
X100120323Y-117116896D01*
X100124424Y-117107103D01*
X100128632Y-117097261D01*
X100132947Y-117087370D01*
X100137371Y-117077430D01*
X100141904Y-117067441D01*
X100146546Y-117057404D01*
X100151298Y-117047318D01*
X100156160Y-117037185D01*
X100161133Y-117027004D01*
X100166218Y-117016777D01*
X100171414Y-117006503D01*
X100176723Y-116996184D01*
X100182144Y-116985819D01*
X100187678Y-116975410D01*
X100193325Y-116964958D01*
X100199085Y-116954462D01*
X100204960Y-116943925D01*
X100210947Y-116933346D01*
X100217049Y-116922728D01*
X100223264Y-116912071D01*
X100229593Y-116901377D01*
X100236036Y-116890646D01*
X100242592Y-116879881D01*
X100249260Y-116869083D01*
X100256041Y-116858253D01*
X100262934Y-116847394D01*
X100269938Y-116836508D01*
X100277053Y-116825596D01*
X100284277Y-116814662D01*
X100291609Y-116803707D01*
X100299048Y-116792734D01*
X100306592Y-116781747D01*
X100314239Y-116770749D01*
X100321988Y-116759743D01*
X100329836Y-116748733D01*
X100337781Y-116737723D01*
X100345819Y-116726719D01*
X100353947Y-116715724D01*
X100362161Y-116704745D01*
X100370457Y-116693788D01*
X100378830Y-116682859D01*
X100387274Y-116671966D01*
X100395783Y-116661118D01*
X100404349Y-116650322D01*
X100412964Y-116639590D01*
X100421619Y-116628934D01*
X100430301Y-116618367D01*
X100438998Y-116607903D01*
X100447695Y-116597560D01*
X100456374Y-116587358D01*
X100465013Y-116577322D01*
X100473587Y-116567478D01*
X100482063Y-116557862D01*
X100490402Y-116548515D01*
X100498553Y-116539490D01*
X100506450Y-116530857D01*
X100513999Y-116522711D01*
X100521064Y-116515189D01*
X100527426Y-116508512D01*
X100532669Y-116503095D01*
X100535716Y-116500000D01*
X101035716Y-117500000D02*
X101035676Y-117492254D01*
X101035556Y-117484468D01*
X101035356Y-117476642D01*
X101035075Y-117468775D01*
X101034712Y-117460868D01*
X101034268Y-117452918D01*
X101033742Y-117444927D01*
X101033133Y-117436894D01*
X101032440Y-117428817D01*
X101031664Y-117420698D01*
X101030803Y-117412536D01*
X101029858Y-117404330D01*
X101028827Y-117396079D01*
X101027711Y-117387785D01*
X101026507Y-117379445D01*
X101025217Y-117371060D01*
X101023839Y-117362630D01*
X101022373Y-117354154D01*
X101020818Y-117345632D01*
X101019173Y-117337063D01*
X101017438Y-117328448D01*
X101015612Y-117319786D01*
X101013695Y-117311076D01*
X101011686Y-117302319D01*
X101009584Y-117293514D01*
X101007388Y-117284661D01*
X101005099Y-117275760D01*
X101002714Y-117266810D01*
X101000234Y-117257812D01*
X100997658Y-117248764D01*
X100994985Y-117239668D01*
X100992215Y-117230522D01*
X100989346Y-117221327D01*
X100986378Y-117212082D01*
X100983311Y-117202788D01*
X100980144Y-117193444D01*
X100976875Y-117184050D01*
X100973505Y-117174606D01*
X100970032Y-117165112D01*
X100966456Y-117155569D01*
X100962777Y-117145975D01*
X100958993Y-117136332D01*
X100955104Y-117126638D01*
X100951109Y-117116896D01*
X100947008Y-117107103D01*
X100942800Y-117097261D01*
X100938485Y-117087370D01*
X100934061Y-117077430D01*
X100929528Y-117067441D01*
X100924886Y-117057404D01*
X100920134Y-117047318D01*
X100915272Y-117037185D01*
X100910299Y-117027004D01*
X100905214Y-117016777D01*
X100900018Y-117006503D01*
X100894709Y-116996184D01*
X100889288Y-116985819D01*
X100883754Y-116975410D01*
X100878107Y-116964958D01*
X100872347Y-116954462D01*
X100866472Y-116943925D01*
X100860485Y-116933346D01*
X100854383Y-116922728D01*
X100848168Y-116912071D01*
X100841839Y-116901377D01*
X100835396Y-116890646D01*
X100828840Y-116879881D01*
X100822172Y-116869083D01*
X100815391Y-116858253D01*
X100808498Y-116847394D01*
X100801494Y-116836508D01*
X100794379Y-116825596D01*
X100787155Y-116814662D01*
X100779823Y-116803707D01*
X100772384Y-116792734D01*
X100764840Y-116781747D01*
X100757193Y-116770749D01*
X100749444Y-116759743D01*
X100741596Y-116748733D01*
X100733651Y-116737723D01*
X100725613Y-116726719D01*
X100717485Y-116715724D01*
X100709271Y-116704745D01*
X100700975Y-116693788D01*
X100692602Y-116682859D01*
X100684158Y-116671966D01*
X100675649Y-116661118D01*
X100667083Y-116650322D01*
X100658468Y-116639590D01*
X100649813Y-116628934D01*
X100641131Y-116618367D01*
X100632434Y-116607903D01*
X100623737Y-116597560D01*
X100615058Y-116587358D01*
X100606419Y-116577322D01*
X100597845Y-116567478D01*
X100589369Y-116557862D01*
X100581030Y-116548515D01*
X100572879Y-116539490D01*
X100564982Y-116530857D01*
X100557433Y-116522711D01*
X100550368Y-116515189D01*
X100544006Y-116508512D01*
X100538763Y-116503095D01*
X100535716Y-116500000D01*
X90892858Y-117290752D02*
X91083334Y-117957419D01*
X91083334Y-117957419D02*
X91273810Y-117481228D01*
X91273810Y-117481228D02*
X91464286Y-117957419D01*
X91464286Y-117957419D02*
X91654762Y-117290752D01*
X92464286Y-117957419D02*
X92464286Y-117433609D01*
X92464286Y-117433609D02*
X92416667Y-117338371D01*
X92416667Y-117338371D02*
X92321429Y-117290752D01*
X92321429Y-117290752D02*
X92130953Y-117290752D01*
X92130953Y-117290752D02*
X92035715Y-117338371D01*
X92464286Y-117909800D02*
X92369048Y-117957419D01*
X92369048Y-117957419D02*
X92130953Y-117957419D01*
X92130953Y-117957419D02*
X92035715Y-117909800D01*
X92035715Y-117909800D02*
X91988096Y-117814561D01*
X91988096Y-117814561D02*
X91988096Y-117719323D01*
X91988096Y-117719323D02*
X92035715Y-117624085D01*
X92035715Y-117624085D02*
X92130953Y-117576466D01*
X92130953Y-117576466D02*
X92369048Y-117576466D01*
X92369048Y-117576466D02*
X92464286Y-117528847D01*
X92797620Y-117290752D02*
X93178572Y-117290752D01*
X92940477Y-116957419D02*
X92940477Y-117814561D01*
X92940477Y-117814561D02*
X92988096Y-117909800D01*
X92988096Y-117909800D02*
X93083334Y-117957419D01*
X93083334Y-117957419D02*
X93178572Y-117957419D01*
X93892858Y-117909800D02*
X93797620Y-117957419D01*
X93797620Y-117957419D02*
X93607144Y-117957419D01*
X93607144Y-117957419D02*
X93511906Y-117909800D01*
X93511906Y-117909800D02*
X93464287Y-117814561D01*
X93464287Y-117814561D02*
X93464287Y-117433609D01*
X93464287Y-117433609D02*
X93511906Y-117338371D01*
X93511906Y-117338371D02*
X93607144Y-117290752D01*
X93607144Y-117290752D02*
X93797620Y-117290752D01*
X93797620Y-117290752D02*
X93892858Y-117338371D01*
X93892858Y-117338371D02*
X93940477Y-117433609D01*
X93940477Y-117433609D02*
X93940477Y-117528847D01*
X93940477Y-117528847D02*
X93464287Y-117624085D01*
X94369049Y-117957419D02*
X94369049Y-117290752D01*
X94369049Y-117481228D02*
X94416668Y-117385990D01*
X94416668Y-117385990D02*
X94464287Y-117338371D01*
X94464287Y-117338371D02*
X94559525Y-117290752D01*
X94559525Y-117290752D02*
X94654763Y-117290752D01*
X96178573Y-117957419D02*
X96178573Y-116957419D01*
X96178573Y-117909800D02*
X96083335Y-117957419D01*
X96083335Y-117957419D02*
X95892859Y-117957419D01*
X95892859Y-117957419D02*
X95797621Y-117909800D01*
X95797621Y-117909800D02*
X95750002Y-117862180D01*
X95750002Y-117862180D02*
X95702383Y-117766942D01*
X95702383Y-117766942D02*
X95702383Y-117481228D01*
X95702383Y-117481228D02*
X95750002Y-117385990D01*
X95750002Y-117385990D02*
X95797621Y-117338371D01*
X95797621Y-117338371D02*
X95892859Y-117290752D01*
X95892859Y-117290752D02*
X96083335Y-117290752D01*
X96083335Y-117290752D02*
X96178573Y-117338371D01*
X96654764Y-117957419D02*
X96654764Y-117290752D01*
X96654764Y-117481228D02*
X96702383Y-117385990D01*
X96702383Y-117385990D02*
X96750002Y-117338371D01*
X96750002Y-117338371D02*
X96845240Y-117290752D01*
X96845240Y-117290752D02*
X96940478Y-117290752D01*
X97702383Y-117957419D02*
X97702383Y-117433609D01*
X97702383Y-117433609D02*
X97654764Y-117338371D01*
X97654764Y-117338371D02*
X97559526Y-117290752D01*
X97559526Y-117290752D02*
X97369050Y-117290752D01*
X97369050Y-117290752D02*
X97273812Y-117338371D01*
X97702383Y-117909800D02*
X97607145Y-117957419D01*
X97607145Y-117957419D02*
X97369050Y-117957419D01*
X97369050Y-117957419D02*
X97273812Y-117909800D01*
X97273812Y-117909800D02*
X97226193Y-117814561D01*
X97226193Y-117814561D02*
X97226193Y-117719323D01*
X97226193Y-117719323D02*
X97273812Y-117624085D01*
X97273812Y-117624085D02*
X97369050Y-117576466D01*
X97369050Y-117576466D02*
X97607145Y-117576466D01*
X97607145Y-117576466D02*
X97702383Y-117528847D01*
X98178574Y-117957419D02*
X98178574Y-117290752D01*
X98178574Y-116957419D02*
X98130955Y-117005038D01*
X98130955Y-117005038D02*
X98178574Y-117052657D01*
X98178574Y-117052657D02*
X98226193Y-117005038D01*
X98226193Y-117005038D02*
X98178574Y-116957419D01*
X98178574Y-116957419D02*
X98178574Y-117052657D01*
X98654764Y-117290752D02*
X98654764Y-117957419D01*
X98654764Y-117385990D02*
X98702383Y-117338371D01*
X98702383Y-117338371D02*
X98797621Y-117290752D01*
X98797621Y-117290752D02*
X98940478Y-117290752D01*
X98940478Y-117290752D02*
X99035716Y-117338371D01*
X99035716Y-117338371D02*
X99083335Y-117433609D01*
X99083335Y-117433609D02*
X99083335Y-117957419D01*
X136892858Y-117290752D02*
X137083334Y-117957419D01*
X137083334Y-117957419D02*
X137273810Y-117481228D01*
X137273810Y-117481228D02*
X137464286Y-117957419D01*
X137464286Y-117957419D02*
X137654762Y-117290752D01*
X138464286Y-117957419D02*
X138464286Y-117433609D01*
X138464286Y-117433609D02*
X138416667Y-117338371D01*
X138416667Y-117338371D02*
X138321429Y-117290752D01*
X138321429Y-117290752D02*
X138130953Y-117290752D01*
X138130953Y-117290752D02*
X138035715Y-117338371D01*
X138464286Y-117909800D02*
X138369048Y-117957419D01*
X138369048Y-117957419D02*
X138130953Y-117957419D01*
X138130953Y-117957419D02*
X138035715Y-117909800D01*
X138035715Y-117909800D02*
X137988096Y-117814561D01*
X137988096Y-117814561D02*
X137988096Y-117719323D01*
X137988096Y-117719323D02*
X138035715Y-117624085D01*
X138035715Y-117624085D02*
X138130953Y-117576466D01*
X138130953Y-117576466D02*
X138369048Y-117576466D01*
X138369048Y-117576466D02*
X138464286Y-117528847D01*
X138797620Y-117290752D02*
X139178572Y-117290752D01*
X138940477Y-116957419D02*
X138940477Y-117814561D01*
X138940477Y-117814561D02*
X138988096Y-117909800D01*
X138988096Y-117909800D02*
X139083334Y-117957419D01*
X139083334Y-117957419D02*
X139178572Y-117957419D01*
X139892858Y-117909800D02*
X139797620Y-117957419D01*
X139797620Y-117957419D02*
X139607144Y-117957419D01*
X139607144Y-117957419D02*
X139511906Y-117909800D01*
X139511906Y-117909800D02*
X139464287Y-117814561D01*
X139464287Y-117814561D02*
X139464287Y-117433609D01*
X139464287Y-117433609D02*
X139511906Y-117338371D01*
X139511906Y-117338371D02*
X139607144Y-117290752D01*
X139607144Y-117290752D02*
X139797620Y-117290752D01*
X139797620Y-117290752D02*
X139892858Y-117338371D01*
X139892858Y-117338371D02*
X139940477Y-117433609D01*
X139940477Y-117433609D02*
X139940477Y-117528847D01*
X139940477Y-117528847D02*
X139464287Y-117624085D01*
X140369049Y-117957419D02*
X140369049Y-117290752D01*
X140369049Y-117481228D02*
X140416668Y-117385990D01*
X140416668Y-117385990D02*
X140464287Y-117338371D01*
X140464287Y-117338371D02*
X140559525Y-117290752D01*
X140559525Y-117290752D02*
X140654763Y-117290752D01*
X142178573Y-117957419D02*
X142178573Y-116957419D01*
X142178573Y-117909800D02*
X142083335Y-117957419D01*
X142083335Y-117957419D02*
X141892859Y-117957419D01*
X141892859Y-117957419D02*
X141797621Y-117909800D01*
X141797621Y-117909800D02*
X141750002Y-117862180D01*
X141750002Y-117862180D02*
X141702383Y-117766942D01*
X141702383Y-117766942D02*
X141702383Y-117481228D01*
X141702383Y-117481228D02*
X141750002Y-117385990D01*
X141750002Y-117385990D02*
X141797621Y-117338371D01*
X141797621Y-117338371D02*
X141892859Y-117290752D01*
X141892859Y-117290752D02*
X142083335Y-117290752D01*
X142083335Y-117290752D02*
X142178573Y-117338371D01*
X142654764Y-117957419D02*
X142654764Y-117290752D01*
X142654764Y-117481228D02*
X142702383Y-117385990D01*
X142702383Y-117385990D02*
X142750002Y-117338371D01*
X142750002Y-117338371D02*
X142845240Y-117290752D01*
X142845240Y-117290752D02*
X142940478Y-117290752D01*
X143702383Y-117957419D02*
X143702383Y-117433609D01*
X143702383Y-117433609D02*
X143654764Y-117338371D01*
X143654764Y-117338371D02*
X143559526Y-117290752D01*
X143559526Y-117290752D02*
X143369050Y-117290752D01*
X143369050Y-117290752D02*
X143273812Y-117338371D01*
X143702383Y-117909800D02*
X143607145Y-117957419D01*
X143607145Y-117957419D02*
X143369050Y-117957419D01*
X143369050Y-117957419D02*
X143273812Y-117909800D01*
X143273812Y-117909800D02*
X143226193Y-117814561D01*
X143226193Y-117814561D02*
X143226193Y-117719323D01*
X143226193Y-117719323D02*
X143273812Y-117624085D01*
X143273812Y-117624085D02*
X143369050Y-117576466D01*
X143369050Y-117576466D02*
X143607145Y-117576466D01*
X143607145Y-117576466D02*
X143702383Y-117528847D01*
X144178574Y-117957419D02*
X144178574Y-117290752D01*
X144178574Y-116957419D02*
X144130955Y-117005038D01*
X144130955Y-117005038D02*
X144178574Y-117052657D01*
X144178574Y-117052657D02*
X144226193Y-117005038D01*
X144226193Y-117005038D02*
X144178574Y-116957419D01*
X144178574Y-116957419D02*
X144178574Y-117052657D01*
X144654764Y-117290752D02*
X144654764Y-117957419D01*
X144654764Y-117385990D02*
X144702383Y-117338371D01*
X144702383Y-117338371D02*
X144797621Y-117290752D01*
X144797621Y-117290752D02*
X144940478Y-117290752D01*
X144940478Y-117290752D02*
X145035716Y-117338371D01*
X145035716Y-117338371D02*
X145083335Y-117433609D01*
X145083335Y-117433609D02*
X145083335Y-117957419D01*
X147035716Y-117500000D02*
G75*
G02*
X146035716Y-117500000I-500000J0D01*
G01*
X146035716Y-117500000D02*
X146035756Y-117492254D01*
X146035876Y-117484468D01*
X146036076Y-117476642D01*
X146036357Y-117468775D01*
X146036720Y-117460868D01*
X146037164Y-117452918D01*
X146037690Y-117444927D01*
X146038299Y-117436894D01*
X146038992Y-117428817D01*
X146039768Y-117420698D01*
X146040629Y-117412536D01*
X146041574Y-117404330D01*
X146042605Y-117396079D01*
X146043721Y-117387785D01*
X146044925Y-117379445D01*
X146046215Y-117371060D01*
X146047593Y-117362630D01*
X146049059Y-117354154D01*
X146050614Y-117345632D01*
X146052259Y-117337063D01*
X146053994Y-117328448D01*
X146055820Y-117319786D01*
X146057737Y-117311076D01*
X146059746Y-117302319D01*
X146061848Y-117293514D01*
X146064044Y-117284661D01*
X146066333Y-117275760D01*
X146068718Y-117266810D01*
X146071198Y-117257812D01*
X146073774Y-117248764D01*
X146076447Y-117239668D01*
X146079217Y-117230522D01*
X146082086Y-117221327D01*
X146085054Y-117212082D01*
X146088121Y-117202788D01*
X146091288Y-117193444D01*
X146094557Y-117184050D01*
X146097927Y-117174606D01*
X146101400Y-117165112D01*
X146104976Y-117155569D01*
X146108655Y-117145975D01*
X146112439Y-117136332D01*
X146116328Y-117126638D01*
X146120323Y-117116896D01*
X146124424Y-117107103D01*
X146128632Y-117097261D01*
X146132947Y-117087370D01*
X146137371Y-117077430D01*
X146141904Y-117067441D01*
X146146546Y-117057404D01*
X146151298Y-117047318D01*
X146156160Y-117037185D01*
X146161133Y-117027004D01*
X146166218Y-117016777D01*
X146171414Y-117006503D01*
X146176723Y-116996184D01*
X146182144Y-116985819D01*
X146187678Y-116975410D01*
X146193325Y-116964958D01*
X146199085Y-116954462D01*
X146204960Y-116943925D01*
X146210947Y-116933346D01*
X146217049Y-116922728D01*
X146223264Y-116912071D01*
X146229593Y-116901377D01*
X146236036Y-116890646D01*
X146242592Y-116879881D01*
X146249260Y-116869083D01*
X146256041Y-116858253D01*
X146262934Y-116847394D01*
X146269938Y-116836508D01*
X146277053Y-116825596D01*
X146284277Y-116814662D01*
X146291609Y-116803707D01*
X146299048Y-116792734D01*
X146306592Y-116781747D01*
X146314239Y-116770749D01*
X146321988Y-116759743D01*
X146329836Y-116748733D01*
X146337781Y-116737723D01*
X146345819Y-116726719D01*
X146353947Y-116715724D01*
X146362161Y-116704745D01*
X146370457Y-116693788D01*
X146378830Y-116682859D01*
X146387274Y-116671966D01*
X146395783Y-116661118D01*
X146404349Y-116650322D01*
X146412964Y-116639590D01*
X146421619Y-116628934D01*
X146430301Y-116618367D01*
X146438998Y-116607903D01*
X146447695Y-116597560D01*
X146456374Y-116587358D01*
X146465013Y-116577322D01*
X146473587Y-116567478D01*
X146482063Y-116557862D01*
X146490402Y-116548515D01*
X146498553Y-116539490D01*
X146506450Y-116530857D01*
X146513999Y-116522711D01*
X146521064Y-116515189D01*
X146527426Y-116508512D01*
X146532669Y-116503095D01*
X146535716Y-116500000D01*
X147035716Y-117500000D02*
X147035676Y-117492254D01*
X147035556Y-117484468D01*
X147035356Y-117476642D01*
X147035075Y-117468775D01*
X147034712Y-117460868D01*
X147034268Y-117452918D01*
X147033742Y-117444927D01*
X147033133Y-117436894D01*
X147032440Y-117428817D01*
X147031664Y-117420698D01*
X147030803Y-117412536D01*
X147029858Y-117404330D01*
X147028827Y-117396079D01*
X147027711Y-117387785D01*
X147026507Y-117379445D01*
X147025217Y-117371060D01*
X147023839Y-117362630D01*
X147022373Y-117354154D01*
X147020818Y-117345632D01*
X147019173Y-117337063D01*
X147017438Y-117328448D01*
X147015612Y-117319786D01*
X147013695Y-117311076D01*
X147011686Y-117302319D01*
X147009584Y-117293514D01*
X147007388Y-117284661D01*
X147005099Y-117275760D01*
X147002714Y-117266810D01*
X147000234Y-117257812D01*
X146997658Y-117248764D01*
X146994985Y-117239668D01*
X146992215Y-117230522D01*
X146989346Y-117221327D01*
X146986378Y-117212082D01*
X146983311Y-117202788D01*
X146980144Y-117193444D01*
X146976875Y-117184050D01*
X146973505Y-117174606D01*
X146970032Y-117165112D01*
X146966456Y-117155569D01*
X146962777Y-117145975D01*
X146958993Y-117136332D01*
X146955104Y-117126638D01*
X146951109Y-117116896D01*
X146947008Y-117107103D01*
X146942800Y-117097261D01*
X146938485Y-117087370D01*
X146934061Y-117077430D01*
X146929528Y-117067441D01*
X146924886Y-117057404D01*
X146920134Y-117047318D01*
X146915272Y-117037185D01*
X146910299Y-117027004D01*
X146905214Y-117016777D01*
X146900018Y-117006503D01*
X146894709Y-116996184D01*
X146889288Y-116985819D01*
X146883754Y-116975410D01*
X146878107Y-116964958D01*
X146872347Y-116954462D01*
X146866472Y-116943925D01*
X146860485Y-116933346D01*
X146854383Y-116922728D01*
X146848168Y-116912071D01*
X146841839Y-116901377D01*
X146835396Y-116890646D01*
X146828840Y-116879881D01*
X146822172Y-116869083D01*
X146815391Y-116858253D01*
X146808498Y-116847394D01*
X146801494Y-116836508D01*
X146794379Y-116825596D01*
X146787155Y-116814662D01*
X146779823Y-116803707D01*
X146772384Y-116792734D01*
X146764840Y-116781747D01*
X146757193Y-116770749D01*
X146749444Y-116759743D01*
X146741596Y-116748733D01*
X146733651Y-116737723D01*
X146725613Y-116726719D01*
X146717485Y-116715724D01*
X146709271Y-116704745D01*
X146700975Y-116693788D01*
X146692602Y-116682859D01*
X146684158Y-116671966D01*
X146675649Y-116661118D01*
X146667083Y-116650322D01*
X146658468Y-116639590D01*
X146649813Y-116628934D01*
X146641131Y-116618367D01*
X146632434Y-116607903D01*
X146623737Y-116597560D01*
X146615058Y-116587358D01*
X146606419Y-116577322D01*
X146597845Y-116567478D01*
X146589369Y-116557862D01*
X146581030Y-116548515D01*
X146572879Y-116539490D01*
X146564982Y-116530857D01*
X146557433Y-116522711D01*
X146550368Y-116515189D01*
X146544006Y-116508512D01*
X146538763Y-116503095D01*
X146535716Y-116500000D01*
X73206093Y-82500000D02*
X93456093Y-82500000D01*
X73241805Y-84207419D02*
X73241805Y-83540752D01*
X73241805Y-83731228D02*
X73289424Y-83635990D01*
X73289424Y-83635990D02*
X73337043Y-83588371D01*
X73337043Y-83588371D02*
X73432281Y-83540752D01*
X73432281Y-83540752D02*
X73527519Y-83540752D01*
X74241805Y-84159800D02*
X74146567Y-84207419D01*
X74146567Y-84207419D02*
X73956091Y-84207419D01*
X73956091Y-84207419D02*
X73860853Y-84159800D01*
X73860853Y-84159800D02*
X73813234Y-84064561D01*
X73813234Y-84064561D02*
X73813234Y-83683609D01*
X73813234Y-83683609D02*
X73860853Y-83588371D01*
X73860853Y-83588371D02*
X73956091Y-83540752D01*
X73956091Y-83540752D02*
X74146567Y-83540752D01*
X74146567Y-83540752D02*
X74241805Y-83588371D01*
X74241805Y-83588371D02*
X74289424Y-83683609D01*
X74289424Y-83683609D02*
X74289424Y-83778847D01*
X74289424Y-83778847D02*
X73813234Y-83874085D01*
X74670377Y-84159800D02*
X74765615Y-84207419D01*
X74765615Y-84207419D02*
X74956091Y-84207419D01*
X74956091Y-84207419D02*
X75051329Y-84159800D01*
X75051329Y-84159800D02*
X75098948Y-84064561D01*
X75098948Y-84064561D02*
X75098948Y-84016942D01*
X75098948Y-84016942D02*
X75051329Y-83921704D01*
X75051329Y-83921704D02*
X74956091Y-83874085D01*
X74956091Y-83874085D02*
X74813234Y-83874085D01*
X74813234Y-83874085D02*
X74717996Y-83826466D01*
X74717996Y-83826466D02*
X74670377Y-83731228D01*
X74670377Y-83731228D02*
X74670377Y-83683609D01*
X74670377Y-83683609D02*
X74717996Y-83588371D01*
X74717996Y-83588371D02*
X74813234Y-83540752D01*
X74813234Y-83540752D02*
X74956091Y-83540752D01*
X74956091Y-83540752D02*
X75051329Y-83588371D01*
X75384663Y-83540752D02*
X75765615Y-83540752D01*
X75527520Y-83207419D02*
X75527520Y-84064561D01*
X75527520Y-84064561D02*
X75575139Y-84159800D01*
X75575139Y-84159800D02*
X75670377Y-84207419D01*
X75670377Y-84207419D02*
X75765615Y-84207419D01*
X76098949Y-84112180D02*
X76146568Y-84159800D01*
X76146568Y-84159800D02*
X76098949Y-84207419D01*
X76098949Y-84207419D02*
X76051330Y-84159800D01*
X76051330Y-84159800D02*
X76098949Y-84112180D01*
X76098949Y-84112180D02*
X76098949Y-84207419D01*
X77765615Y-84207419D02*
X77765615Y-83207419D01*
X77765615Y-84159800D02*
X77670377Y-84207419D01*
X77670377Y-84207419D02*
X77479901Y-84207419D01*
X77479901Y-84207419D02*
X77384663Y-84159800D01*
X77384663Y-84159800D02*
X77337044Y-84112180D01*
X77337044Y-84112180D02*
X77289425Y-84016942D01*
X77289425Y-84016942D02*
X77289425Y-83731228D01*
X77289425Y-83731228D02*
X77337044Y-83635990D01*
X77337044Y-83635990D02*
X77384663Y-83588371D01*
X77384663Y-83588371D02*
X77479901Y-83540752D01*
X77479901Y-83540752D02*
X77670377Y-83540752D01*
X77670377Y-83540752D02*
X77765615Y-83588371D01*
X78384663Y-84207419D02*
X78289425Y-84159800D01*
X78289425Y-84159800D02*
X78241806Y-84112180D01*
X78241806Y-84112180D02*
X78194187Y-84016942D01*
X78194187Y-84016942D02*
X78194187Y-83731228D01*
X78194187Y-83731228D02*
X78241806Y-83635990D01*
X78241806Y-83635990D02*
X78289425Y-83588371D01*
X78289425Y-83588371D02*
X78384663Y-83540752D01*
X78384663Y-83540752D02*
X78527520Y-83540752D01*
X78527520Y-83540752D02*
X78622758Y-83588371D01*
X78622758Y-83588371D02*
X78670377Y-83635990D01*
X78670377Y-83635990D02*
X78717996Y-83731228D01*
X78717996Y-83731228D02*
X78717996Y-84016942D01*
X78717996Y-84016942D02*
X78670377Y-84112180D01*
X78670377Y-84112180D02*
X78622758Y-84159800D01*
X78622758Y-84159800D02*
X78527520Y-84207419D01*
X78527520Y-84207419D02*
X78384663Y-84207419D01*
X79146568Y-83540752D02*
X79146568Y-84207419D01*
X79146568Y-83635990D02*
X79194187Y-83588371D01*
X79194187Y-83588371D02*
X79289425Y-83540752D01*
X79289425Y-83540752D02*
X79432282Y-83540752D01*
X79432282Y-83540752D02*
X79527520Y-83588371D01*
X79527520Y-83588371D02*
X79575139Y-83683609D01*
X79575139Y-83683609D02*
X79575139Y-84207419D01*
X80098949Y-83207419D02*
X80003711Y-83397895D01*
X80384663Y-83540752D02*
X80765615Y-83540752D01*
X80527520Y-83207419D02*
X80527520Y-84064561D01*
X80527520Y-84064561D02*
X80575139Y-84159800D01*
X80575139Y-84159800D02*
X80670377Y-84207419D01*
X80670377Y-84207419D02*
X80765615Y-84207419D01*
X81717997Y-83540752D02*
X82098949Y-83540752D01*
X81860854Y-83207419D02*
X81860854Y-84064561D01*
X81860854Y-84064561D02*
X81908473Y-84159800D01*
X81908473Y-84159800D02*
X82003711Y-84207419D01*
X82003711Y-84207419D02*
X82098949Y-84207419D01*
X82432283Y-84207419D02*
X82432283Y-83207419D01*
X82860854Y-84207419D02*
X82860854Y-83683609D01*
X82860854Y-83683609D02*
X82813235Y-83588371D01*
X82813235Y-83588371D02*
X82717997Y-83540752D01*
X82717997Y-83540752D02*
X82575140Y-83540752D01*
X82575140Y-83540752D02*
X82479902Y-83588371D01*
X82479902Y-83588371D02*
X82432283Y-83635990D01*
X83337045Y-84207419D02*
X83337045Y-83540752D01*
X83337045Y-83207419D02*
X83289426Y-83255038D01*
X83289426Y-83255038D02*
X83337045Y-83302657D01*
X83337045Y-83302657D02*
X83384664Y-83255038D01*
X83384664Y-83255038D02*
X83337045Y-83207419D01*
X83337045Y-83207419D02*
X83337045Y-83302657D01*
X83813235Y-83540752D02*
X83813235Y-84207419D01*
X83813235Y-83635990D02*
X83860854Y-83588371D01*
X83860854Y-83588371D02*
X83956092Y-83540752D01*
X83956092Y-83540752D02*
X84098949Y-83540752D01*
X84098949Y-83540752D02*
X84194187Y-83588371D01*
X84194187Y-83588371D02*
X84241806Y-83683609D01*
X84241806Y-83683609D02*
X84241806Y-84207419D01*
X84717997Y-84207419D02*
X84717997Y-83207419D01*
X84813235Y-83826466D02*
X85098949Y-84207419D01*
X85098949Y-83540752D02*
X84717997Y-83921704D01*
X86717997Y-84207419D02*
X86717997Y-83683609D01*
X86717997Y-83683609D02*
X86670378Y-83588371D01*
X86670378Y-83588371D02*
X86575140Y-83540752D01*
X86575140Y-83540752D02*
X86384664Y-83540752D01*
X86384664Y-83540752D02*
X86289426Y-83588371D01*
X86717997Y-84159800D02*
X86622759Y-84207419D01*
X86622759Y-84207419D02*
X86384664Y-84207419D01*
X86384664Y-84207419D02*
X86289426Y-84159800D01*
X86289426Y-84159800D02*
X86241807Y-84064561D01*
X86241807Y-84064561D02*
X86241807Y-83969323D01*
X86241807Y-83969323D02*
X86289426Y-83874085D01*
X86289426Y-83874085D02*
X86384664Y-83826466D01*
X86384664Y-83826466D02*
X86622759Y-83826466D01*
X86622759Y-83826466D02*
X86717997Y-83778847D01*
X87194188Y-84207419D02*
X87194188Y-83207419D01*
X87194188Y-83588371D02*
X87289426Y-83540752D01*
X87289426Y-83540752D02*
X87479902Y-83540752D01*
X87479902Y-83540752D02*
X87575140Y-83588371D01*
X87575140Y-83588371D02*
X87622759Y-83635990D01*
X87622759Y-83635990D02*
X87670378Y-83731228D01*
X87670378Y-83731228D02*
X87670378Y-84016942D01*
X87670378Y-84016942D02*
X87622759Y-84112180D01*
X87622759Y-84112180D02*
X87575140Y-84159800D01*
X87575140Y-84159800D02*
X87479902Y-84207419D01*
X87479902Y-84207419D02*
X87289426Y-84207419D01*
X87289426Y-84207419D02*
X87194188Y-84159800D01*
X88241807Y-84207419D02*
X88146569Y-84159800D01*
X88146569Y-84159800D02*
X88098950Y-84112180D01*
X88098950Y-84112180D02*
X88051331Y-84016942D01*
X88051331Y-84016942D02*
X88051331Y-83731228D01*
X88051331Y-83731228D02*
X88098950Y-83635990D01*
X88098950Y-83635990D02*
X88146569Y-83588371D01*
X88146569Y-83588371D02*
X88241807Y-83540752D01*
X88241807Y-83540752D02*
X88384664Y-83540752D01*
X88384664Y-83540752D02*
X88479902Y-83588371D01*
X88479902Y-83588371D02*
X88527521Y-83635990D01*
X88527521Y-83635990D02*
X88575140Y-83731228D01*
X88575140Y-83731228D02*
X88575140Y-84016942D01*
X88575140Y-84016942D02*
X88527521Y-84112180D01*
X88527521Y-84112180D02*
X88479902Y-84159800D01*
X88479902Y-84159800D02*
X88384664Y-84207419D01*
X88384664Y-84207419D02*
X88241807Y-84207419D01*
X89432283Y-83540752D02*
X89432283Y-84207419D01*
X89003712Y-83540752D02*
X89003712Y-84064561D01*
X89003712Y-84064561D02*
X89051331Y-84159800D01*
X89051331Y-84159800D02*
X89146569Y-84207419D01*
X89146569Y-84207419D02*
X89289426Y-84207419D01*
X89289426Y-84207419D02*
X89384664Y-84159800D01*
X89384664Y-84159800D02*
X89432283Y-84112180D01*
X89765617Y-83540752D02*
X90146569Y-83540752D01*
X89908474Y-83207419D02*
X89908474Y-84064561D01*
X89908474Y-84064561D02*
X89956093Y-84159800D01*
X89956093Y-84159800D02*
X90051331Y-84207419D01*
X90051331Y-84207419D02*
X90146569Y-84207419D01*
X91670379Y-84159800D02*
X91575141Y-84207419D01*
X91575141Y-84207419D02*
X91384665Y-84207419D01*
X91384665Y-84207419D02*
X91289427Y-84159800D01*
X91289427Y-84159800D02*
X91241808Y-84112180D01*
X91241808Y-84112180D02*
X91194189Y-84016942D01*
X91194189Y-84016942D02*
X91194189Y-83731228D01*
X91194189Y-83731228D02*
X91241808Y-83635990D01*
X91241808Y-83635990D02*
X91289427Y-83588371D01*
X91289427Y-83588371D02*
X91384665Y-83540752D01*
X91384665Y-83540752D02*
X91575141Y-83540752D01*
X91575141Y-83540752D02*
X91670379Y-83588371D01*
X92241808Y-84207419D02*
X92146570Y-84159800D01*
X92146570Y-84159800D02*
X92098951Y-84112180D01*
X92098951Y-84112180D02*
X92051332Y-84016942D01*
X92051332Y-84016942D02*
X92051332Y-83731228D01*
X92051332Y-83731228D02*
X92098951Y-83635990D01*
X92098951Y-83635990D02*
X92146570Y-83588371D01*
X92146570Y-83588371D02*
X92241808Y-83540752D01*
X92241808Y-83540752D02*
X92384665Y-83540752D01*
X92384665Y-83540752D02*
X92479903Y-83588371D01*
X92479903Y-83588371D02*
X92527522Y-83635990D01*
X92527522Y-83635990D02*
X92575141Y-83731228D01*
X92575141Y-83731228D02*
X92575141Y-84016942D01*
X92575141Y-84016942D02*
X92527522Y-84112180D01*
X92527522Y-84112180D02*
X92479903Y-84159800D01*
X92479903Y-84159800D02*
X92384665Y-84207419D01*
X92384665Y-84207419D02*
X92241808Y-84207419D01*
X93003713Y-83540752D02*
X93003713Y-84207419D01*
X93003713Y-83635990D02*
X93051332Y-83588371D01*
X93051332Y-83588371D02*
X93146570Y-83540752D01*
X93146570Y-83540752D02*
X93289427Y-83540752D01*
X93289427Y-83540752D02*
X93384665Y-83588371D01*
X93384665Y-83588371D02*
X93432284Y-83683609D01*
X93432284Y-83683609D02*
X93432284Y-84207419D01*
X93860856Y-84159800D02*
X93956094Y-84207419D01*
X93956094Y-84207419D02*
X94146570Y-84207419D01*
X94146570Y-84207419D02*
X94241808Y-84159800D01*
X94241808Y-84159800D02*
X94289427Y-84064561D01*
X94289427Y-84064561D02*
X94289427Y-84016942D01*
X94289427Y-84016942D02*
X94241808Y-83921704D01*
X94241808Y-83921704D02*
X94146570Y-83874085D01*
X94146570Y-83874085D02*
X94003713Y-83874085D01*
X94003713Y-83874085D02*
X93908475Y-83826466D01*
X93908475Y-83826466D02*
X93860856Y-83731228D01*
X93860856Y-83731228D02*
X93860856Y-83683609D01*
X93860856Y-83683609D02*
X93908475Y-83588371D01*
X93908475Y-83588371D02*
X94003713Y-83540752D01*
X94003713Y-83540752D02*
X94146570Y-83540752D01*
X94146570Y-83540752D02*
X94241808Y-83588371D01*
X95098951Y-84159800D02*
X95003713Y-84207419D01*
X95003713Y-84207419D02*
X94813237Y-84207419D01*
X94813237Y-84207419D02*
X94717999Y-84159800D01*
X94717999Y-84159800D02*
X94670380Y-84064561D01*
X94670380Y-84064561D02*
X94670380Y-83683609D01*
X94670380Y-83683609D02*
X94717999Y-83588371D01*
X94717999Y-83588371D02*
X94813237Y-83540752D01*
X94813237Y-83540752D02*
X95003713Y-83540752D01*
X95003713Y-83540752D02*
X95098951Y-83588371D01*
X95098951Y-83588371D02*
X95146570Y-83683609D01*
X95146570Y-83683609D02*
X95146570Y-83778847D01*
X95146570Y-83778847D02*
X94670380Y-83874085D01*
X96003713Y-83540752D02*
X96003713Y-84540752D01*
X96003713Y-84159800D02*
X95908475Y-84207419D01*
X95908475Y-84207419D02*
X95717999Y-84207419D01*
X95717999Y-84207419D02*
X95622761Y-84159800D01*
X95622761Y-84159800D02*
X95575142Y-84112180D01*
X95575142Y-84112180D02*
X95527523Y-84016942D01*
X95527523Y-84016942D02*
X95527523Y-83731228D01*
X95527523Y-83731228D02*
X95575142Y-83635990D01*
X95575142Y-83635990D02*
X95622761Y-83588371D01*
X95622761Y-83588371D02*
X95717999Y-83540752D01*
X95717999Y-83540752D02*
X95908475Y-83540752D01*
X95908475Y-83540752D02*
X96003713Y-83588371D01*
X96908475Y-83540752D02*
X96908475Y-84207419D01*
X96479904Y-83540752D02*
X96479904Y-84064561D01*
X96479904Y-84064561D02*
X96527523Y-84159800D01*
X96527523Y-84159800D02*
X96622761Y-84207419D01*
X96622761Y-84207419D02*
X96765618Y-84207419D01*
X96765618Y-84207419D02*
X96860856Y-84159800D01*
X96860856Y-84159800D02*
X96908475Y-84112180D01*
X97765618Y-84159800D02*
X97670380Y-84207419D01*
X97670380Y-84207419D02*
X97479904Y-84207419D01*
X97479904Y-84207419D02*
X97384666Y-84159800D01*
X97384666Y-84159800D02*
X97337047Y-84064561D01*
X97337047Y-84064561D02*
X97337047Y-83683609D01*
X97337047Y-83683609D02*
X97384666Y-83588371D01*
X97384666Y-83588371D02*
X97479904Y-83540752D01*
X97479904Y-83540752D02*
X97670380Y-83540752D01*
X97670380Y-83540752D02*
X97765618Y-83588371D01*
X97765618Y-83588371D02*
X97813237Y-83683609D01*
X97813237Y-83683609D02*
X97813237Y-83778847D01*
X97813237Y-83778847D02*
X97337047Y-83874085D01*
X98241809Y-83540752D02*
X98241809Y-84207419D01*
X98241809Y-83635990D02*
X98289428Y-83588371D01*
X98289428Y-83588371D02*
X98384666Y-83540752D01*
X98384666Y-83540752D02*
X98527523Y-83540752D01*
X98527523Y-83540752D02*
X98622761Y-83588371D01*
X98622761Y-83588371D02*
X98670380Y-83683609D01*
X98670380Y-83683609D02*
X98670380Y-84207419D01*
X99575142Y-84159800D02*
X99479904Y-84207419D01*
X99479904Y-84207419D02*
X99289428Y-84207419D01*
X99289428Y-84207419D02*
X99194190Y-84159800D01*
X99194190Y-84159800D02*
X99146571Y-84112180D01*
X99146571Y-84112180D02*
X99098952Y-84016942D01*
X99098952Y-84016942D02*
X99098952Y-83731228D01*
X99098952Y-83731228D02*
X99146571Y-83635990D01*
X99146571Y-83635990D02*
X99194190Y-83588371D01*
X99194190Y-83588371D02*
X99289428Y-83540752D01*
X99289428Y-83540752D02*
X99479904Y-83540752D01*
X99479904Y-83540752D02*
X99575142Y-83588371D01*
X100384666Y-84159800D02*
X100289428Y-84207419D01*
X100289428Y-84207419D02*
X100098952Y-84207419D01*
X100098952Y-84207419D02*
X100003714Y-84159800D01*
X100003714Y-84159800D02*
X99956095Y-84064561D01*
X99956095Y-84064561D02*
X99956095Y-83683609D01*
X99956095Y-83683609D02*
X100003714Y-83588371D01*
X100003714Y-83588371D02*
X100098952Y-83540752D01*
X100098952Y-83540752D02*
X100289428Y-83540752D01*
X100289428Y-83540752D02*
X100384666Y-83588371D01*
X100384666Y-83588371D02*
X100432285Y-83683609D01*
X100432285Y-83683609D02*
X100432285Y-83778847D01*
X100432285Y-83778847D02*
X99956095Y-83874085D01*
X100813238Y-84159800D02*
X100908476Y-84207419D01*
X100908476Y-84207419D02*
X101098952Y-84207419D01*
X101098952Y-84207419D02*
X101194190Y-84159800D01*
X101194190Y-84159800D02*
X101241809Y-84064561D01*
X101241809Y-84064561D02*
X101241809Y-84016942D01*
X101241809Y-84016942D02*
X101194190Y-83921704D01*
X101194190Y-83921704D02*
X101098952Y-83874085D01*
X101098952Y-83874085D02*
X100956095Y-83874085D01*
X100956095Y-83874085D02*
X100860857Y-83826466D01*
X100860857Y-83826466D02*
X100813238Y-83731228D01*
X100813238Y-83731228D02*
X100813238Y-83683609D01*
X100813238Y-83683609D02*
X100860857Y-83588371D01*
X100860857Y-83588371D02*
X100956095Y-83540752D01*
X100956095Y-83540752D02*
X101098952Y-83540752D01*
X101098952Y-83540752D02*
X101194190Y-83588371D01*
X101670381Y-84112180D02*
X101718000Y-84159800D01*
X101718000Y-84159800D02*
X101670381Y-84207419D01*
X101670381Y-84207419D02*
X101622762Y-84159800D01*
X101622762Y-84159800D02*
X101670381Y-84112180D01*
X101670381Y-84112180D02*
X101670381Y-84207419D01*
%LPC*%
D11*
X100000000Y-119500000D02*
G75*
G02*
X100000000Y-123500000I0J-2000000D01*
G01*
X92000000Y-123500000D02*
G75*
G02*
X92000000Y-119500000I0J2000000D01*
G01*
X100000000Y-123500000D02*
X92000000Y-123500000D01*
X92000000Y-119500000D02*
X100000000Y-119500000D01*
D10*
G36*
X97959233Y-101950000D02*
G01*
X116147998Y-62778332D01*
X117266630Y-62778332D01*
X135452952Y-101950000D01*
X134165792Y-101950000D01*
X116426434Y-63672260D01*
X116985751Y-63672260D01*
X99246393Y-101950000D01*
X97959233Y-101950000D01*
G37*
G36*
X103948067Y-90143300D02*
G01*
X104507383Y-89078401D01*
X128851068Y-89078401D01*
X129410384Y-90143300D01*
X103948067Y-90143300D01*
G37*
G36*
X143390845Y-101950000D02*
G01*
X143390845Y-62778332D01*
X144343392Y-62778332D01*
X173667188Y-100662840D01*
X173051696Y-100662840D01*
X173051696Y-62778332D01*
X174170328Y-62778332D01*
X174170328Y-101950000D01*
X173217781Y-101950000D01*
X143896427Y-64065491D01*
X144511919Y-64065491D01*
X144511919Y-101950000D01*
X143390845Y-101950000D01*
G37*
D11*
X146000000Y-119500000D02*
G75*
G02*
X146000000Y-123500000I0J-2000000D01*
G01*
X146000000Y-123500000D02*
X138000000Y-123500000D01*
X138000000Y-119500000D02*
X146000000Y-119500000D01*
X138000000Y-123500000D02*
G75*
G02*
X138000000Y-119500000I0J2000000D01*
G01*
D10*
X78706093Y-81250000D02*
X78456093Y-81500000D01*
X78706093Y-81750000D01*
X78456093Y-82000000D01*
X78206093Y-81750000D01*
X77956093Y-82000000D01*
X77706093Y-81750000D01*
X77956093Y-81500000D01*
X77706093Y-81250000D01*
X77956093Y-81000000D01*
X78206093Y-81250000D01*
X78456093Y-81000000D01*
X78706093Y-81250000D01*
G36*
X78706093Y-81250000D02*
G01*
X78456093Y-81500000D01*
X78706093Y-81750000D01*
X78456093Y-82000000D01*
X78206093Y-81750000D01*
X77956093Y-82000000D01*
X77706093Y-81750000D01*
X77956093Y-81500000D01*
X77706093Y-81250000D01*
X77956093Y-81000000D01*
X78206093Y-81250000D01*
X78456093Y-81000000D01*
X78706093Y-81250000D01*
G37*
X74206093Y-78250000D02*
X73956093Y-78500000D01*
X74206093Y-78750000D01*
X73956093Y-79000000D01*
X73706093Y-78750000D01*
X73456093Y-79000000D01*
X73206093Y-78750000D01*
X73456093Y-78500000D01*
X73206093Y-78250000D01*
X73456093Y-78000000D01*
X73706093Y-78250000D01*
X73956093Y-78000000D01*
X74206093Y-78250000D01*
G36*
X74206093Y-78250000D02*
G01*
X73956093Y-78500000D01*
X74206093Y-78750000D01*
X73956093Y-79000000D01*
X73706093Y-78750000D01*
X73456093Y-79000000D01*
X73206093Y-78750000D01*
X73456093Y-78500000D01*
X73206093Y-78250000D01*
X73456093Y-78000000D01*
X73706093Y-78250000D01*
X73956093Y-78000000D01*
X74206093Y-78250000D01*
G37*
X75706093Y-81250000D02*
X75456093Y-81500000D01*
X75706093Y-81750000D01*
X75456093Y-82000000D01*
X75206093Y-81750000D01*
X74956093Y-82000000D01*
X74706093Y-81750000D01*
X74956093Y-81500000D01*
X74706093Y-81250000D01*
X74956093Y-81000000D01*
X75206093Y-81250000D01*
X75456093Y-81000000D01*
X75706093Y-81250000D01*
G36*
X75706093Y-81250000D02*
G01*
X75456093Y-81500000D01*
X75706093Y-81750000D01*
X75456093Y-82000000D01*
X75206093Y-81750000D01*
X74956093Y-82000000D01*
X74706093Y-81750000D01*
X74956093Y-81500000D01*
X74706093Y-81250000D01*
X74956093Y-81000000D01*
X75206093Y-81250000D01*
X75456093Y-81000000D01*
X75706093Y-81250000D01*
G37*
X74206093Y-79750000D02*
X73956093Y-80000000D01*
X74206093Y-80250000D01*
X73956093Y-80500000D01*
X73706093Y-80250000D01*
X73456093Y-80500000D01*
X73206093Y-80250000D01*
X73456093Y-80000000D01*
X73206093Y-79750000D01*
X73456093Y-79500000D01*
X73706093Y-79750000D01*
X73956093Y-79500000D01*
X74206093Y-79750000D01*
G36*
X74206093Y-79750000D02*
G01*
X73956093Y-80000000D01*
X74206093Y-80250000D01*
X73956093Y-80500000D01*
X73706093Y-80250000D01*
X73456093Y-80500000D01*
X73206093Y-80250000D01*
X73456093Y-80000000D01*
X73206093Y-79750000D01*
X73456093Y-79500000D01*
X73706093Y-79750000D01*
X73956093Y-79500000D01*
X74206093Y-79750000D01*
G37*
X77206093Y-81250000D02*
X76956093Y-81500000D01*
X77206093Y-81750000D01*
X76956093Y-82000000D01*
X76706093Y-81750000D01*
X76456093Y-82000000D01*
X76206093Y-81750000D01*
X76456093Y-81500000D01*
X76206093Y-81250000D01*
X76456093Y-81000000D01*
X76706093Y-81250000D01*
X76956093Y-81000000D01*
X77206093Y-81250000D01*
G36*
X77206093Y-81250000D02*
G01*
X76956093Y-81500000D01*
X77206093Y-81750000D01*
X76956093Y-82000000D01*
X76706093Y-81750000D01*
X76456093Y-82000000D01*
X76206093Y-81750000D01*
X76456093Y-81500000D01*
X76206093Y-81250000D01*
X76456093Y-81000000D01*
X76706093Y-81250000D01*
X76956093Y-81000000D01*
X77206093Y-81250000D01*
G37*
X74206093Y-81250000D02*
X73956093Y-81500000D01*
X74206093Y-81750000D01*
X73956093Y-82000000D01*
X73706093Y-81750000D01*
X73456093Y-82000000D01*
X73206093Y-81750000D01*
X73456093Y-81500000D01*
X73206093Y-81250000D01*
X73456093Y-81000000D01*
X73706093Y-81250000D01*
X73956093Y-81000000D01*
X74206093Y-81250000D01*
G36*
X74206093Y-81250000D02*
G01*
X73956093Y-81500000D01*
X74206093Y-81750000D01*
X73956093Y-82000000D01*
X73706093Y-81750000D01*
X73456093Y-82000000D01*
X73206093Y-81750000D01*
X73456093Y-81500000D01*
X73206093Y-81250000D01*
X73456093Y-81000000D01*
X73706093Y-81250000D01*
X73956093Y-81000000D01*
X74206093Y-81250000D01*
G37*
X75706093Y-79750000D02*
X75456093Y-80000000D01*
X75706093Y-80250000D01*
X75456093Y-80500000D01*
X75206093Y-80250000D01*
X74956093Y-80500000D01*
X74706093Y-80250000D01*
X74956093Y-80000000D01*
X74706093Y-79750000D01*
X74956093Y-79500000D01*
X75206093Y-79750000D01*
X75456093Y-79500000D01*
X75706093Y-79750000D01*
G36*
X75706093Y-79750000D02*
G01*
X75456093Y-80000000D01*
X75706093Y-80250000D01*
X75456093Y-80500000D01*
X75206093Y-80250000D01*
X74956093Y-80500000D01*
X74706093Y-80250000D01*
X74956093Y-80000000D01*
X74706093Y-79750000D01*
X74956093Y-79500000D01*
X75206093Y-79750000D01*
X75456093Y-79500000D01*
X75706093Y-79750000D01*
G37*
%LPD*%
M02*
