%TF.GenerationSoftware,KiCad,Pcbnew,9.0.4*%
%TF.CreationDate,2026-01-31T17:15:53+09:00*%
%TF.ProjectId,ansicBackplate,616e7369-6342-4616-936b-706c6174652e,rev?*%
%TF.SameCoordinates,Original*%
%TF.FileFunction,Copper,L1,Top*%
%TF.FilePolarity,Positive*%
%FSLAX46Y46*%
G04 Gerber Fmt 4.6, Leading zero omitted, Abs format (unit mm)*
G04 Created by KiCad (PCBNEW 9.0.4) date 2026-01-31 17:15:53*
%MOMM*%
%LPD*%
G01*
G04 APERTURE LIST*
%TA.AperFunction,Conductor*%
%ADD10C,2.000000*%
%TD*%
%TA.AperFunction,NonConductor*%
%ADD11C,0.100000*%
%TD*%
%ADD12C,0.100000*%
G04 APERTURE END LIST*
D10*
%TO.N,GND*%
X85000000Y-36500000D02*
G75*
G02*
X72000000Y-36500000I-6500000J0D01*
G01*
X72000000Y-36500000D02*
G75*
G02*
X85000000Y-36500000I6500000J0D01*
G01*
X75500000Y-116000000D02*
G75*
G02*
X62500000Y-116000000I-6500000J0D01*
G01*
X62500000Y-116000000D02*
G75*
G02*
X75500000Y-116000000I6500000J0D01*
G01*
X175500000Y-116000000D02*
G75*
G02*
X162500000Y-116000000I-6500000J0D01*
G01*
X162500000Y-116000000D02*
G75*
G02*
X175500000Y-116000000I6500000J0D01*
G01*
X175500000Y-36500000D02*
G75*
G02*
X162500000Y-36500000I-6500000J0D01*
G01*
X162500000Y-36500000D02*
G75*
G02*
X175500000Y-36500000I6500000J0D01*
G01*
D11*
X77206093Y-81250000D02*
X76956093Y-81500000D01*
X77206093Y-81750000D01*
X76956093Y-82000000D01*
X76706093Y-81750000D01*
X76456093Y-82000000D01*
X76206093Y-81750000D01*
X76456093Y-81500000D01*
X76206093Y-81250000D01*
X76456093Y-81000000D01*
X76706093Y-81250000D01*
X76956093Y-81000000D01*
X77206093Y-81250000D01*
%TA.AperFunction,NonConductor*%
G36*
X77206093Y-81250000D02*
G01*
X76956093Y-81500000D01*
X77206093Y-81750000D01*
X76956093Y-82000000D01*
X76706093Y-81750000D01*
X76456093Y-82000000D01*
X76206093Y-81750000D01*
X76456093Y-81500000D01*
X76206093Y-81250000D01*
X76456093Y-81000000D01*
X76706093Y-81250000D01*
X76956093Y-81000000D01*
X77206093Y-81250000D01*
G37*
%TD.AperFunction*%
X75706093Y-79750000D02*
X75456093Y-80000000D01*
X75706093Y-80250000D01*
X75456093Y-80500000D01*
X75206093Y-80250000D01*
X74956093Y-80500000D01*
X74706093Y-80250000D01*
X74956093Y-80000000D01*
X74706093Y-79750000D01*
X74956093Y-79500000D01*
X75206093Y-79750000D01*
X75456093Y-79500000D01*
X75706093Y-79750000D01*
%TA.AperFunction,NonConductor*%
G36*
X75706093Y-79750000D02*
G01*
X75456093Y-80000000D01*
X75706093Y-80250000D01*
X75456093Y-80500000D01*
X75206093Y-80250000D01*
X74956093Y-80500000D01*
X74706093Y-80250000D01*
X74956093Y-80000000D01*
X74706093Y-79750000D01*
X74956093Y-79500000D01*
X75206093Y-79750000D01*
X75456093Y-79500000D01*
X75706093Y-79750000D01*
G37*
%TD.AperFunction*%
X75706093Y-81250000D02*
X75456093Y-81500000D01*
X75706093Y-81750000D01*
X75456093Y-82000000D01*
X75206093Y-81750000D01*
X74956093Y-82000000D01*
X74706093Y-81750000D01*
X74956093Y-81500000D01*
X74706093Y-81250000D01*
X74956093Y-81000000D01*
X75206093Y-81250000D01*
X75456093Y-81000000D01*
X75706093Y-81250000D01*
%TA.AperFunction,NonConductor*%
G36*
X75706093Y-81250000D02*
G01*
X75456093Y-81500000D01*
X75706093Y-81750000D01*
X75456093Y-82000000D01*
X75206093Y-81750000D01*
X74956093Y-82000000D01*
X74706093Y-81750000D01*
X74956093Y-81500000D01*
X74706093Y-81250000D01*
X74956093Y-81000000D01*
X75206093Y-81250000D01*
X75456093Y-81000000D01*
X75706093Y-81250000D01*
G37*
%TD.AperFunction*%
X74206093Y-79750000D02*
X73956093Y-80000000D01*
X74206093Y-80250000D01*
X73956093Y-80500000D01*
X73706093Y-80250000D01*
X73456093Y-80500000D01*
X73206093Y-80250000D01*
X73456093Y-80000000D01*
X73206093Y-79750000D01*
X73456093Y-79500000D01*
X73706093Y-79750000D01*
X73956093Y-79500000D01*
X74206093Y-79750000D01*
%TA.AperFunction,NonConductor*%
G36*
X74206093Y-79750000D02*
G01*
X73956093Y-80000000D01*
X74206093Y-80250000D01*
X73956093Y-80500000D01*
X73706093Y-80250000D01*
X73456093Y-80500000D01*
X73206093Y-80250000D01*
X73456093Y-80000000D01*
X73206093Y-79750000D01*
X73456093Y-79500000D01*
X73706093Y-79750000D01*
X73956093Y-79500000D01*
X74206093Y-79750000D01*
G37*
%TD.AperFunction*%
X74206093Y-81250000D02*
X73956093Y-81500000D01*
X74206093Y-81750000D01*
X73956093Y-82000000D01*
X73706093Y-81750000D01*
X73456093Y-82000000D01*
X73206093Y-81750000D01*
X73456093Y-81500000D01*
X73206093Y-81250000D01*
X73456093Y-81000000D01*
X73706093Y-81250000D01*
X73956093Y-81000000D01*
X74206093Y-81250000D01*
%TA.AperFunction,NonConductor*%
G36*
X74206093Y-81250000D02*
G01*
X73956093Y-81500000D01*
X74206093Y-81750000D01*
X73956093Y-82000000D01*
X73706093Y-81750000D01*
X73456093Y-82000000D01*
X73206093Y-81750000D01*
X73456093Y-81500000D01*
X73206093Y-81250000D01*
X73456093Y-81000000D01*
X73706093Y-81250000D01*
X73956093Y-81000000D01*
X74206093Y-81250000D01*
G37*
%TD.AperFunction*%
X74206093Y-78250000D02*
X73956093Y-78500000D01*
X74206093Y-78750000D01*
X73956093Y-79000000D01*
X73706093Y-78750000D01*
X73456093Y-79000000D01*
X73206093Y-78750000D01*
X73456093Y-78500000D01*
X73206093Y-78250000D01*
X73456093Y-78000000D01*
X73706093Y-78250000D01*
X73956093Y-78000000D01*
X74206093Y-78250000D01*
%TA.AperFunction,NonConductor*%
G36*
X74206093Y-78250000D02*
G01*
X73956093Y-78500000D01*
X74206093Y-78750000D01*
X73956093Y-79000000D01*
X73706093Y-78750000D01*
X73456093Y-79000000D01*
X73206093Y-78750000D01*
X73456093Y-78500000D01*
X73206093Y-78250000D01*
X73456093Y-78000000D01*
X73706093Y-78250000D01*
X73956093Y-78000000D01*
X74206093Y-78250000D01*
G37*
%TD.AperFunction*%
X78706093Y-81250000D02*
X78456093Y-81500000D01*
X78706093Y-81750000D01*
X78456093Y-82000000D01*
X78206093Y-81750000D01*
X77956093Y-82000000D01*
X77706093Y-81750000D01*
X77956093Y-81500000D01*
X77706093Y-81250000D01*
X77956093Y-81000000D01*
X78206093Y-81250000D01*
X78456093Y-81000000D01*
X78706093Y-81250000D01*
%TA.AperFunction,NonConductor*%
G36*
X78706093Y-81250000D02*
G01*
X78456093Y-81500000D01*
X78706093Y-81750000D01*
X78456093Y-82000000D01*
X78206093Y-81750000D01*
X77956093Y-82000000D01*
X77706093Y-81750000D01*
X77956093Y-81500000D01*
X77706093Y-81250000D01*
X77956093Y-81000000D01*
X78206093Y-81250000D01*
X78456093Y-81000000D01*
X78706093Y-81250000D01*
G37*
%TD.AperFunction*%
D12*
G36*
X90442589Y-37066908D02*
G01*
X88389412Y-37066908D01*
X89414302Y-34807335D01*
X90442589Y-37066908D01*
G37*
G36*
X105181709Y-38882531D02*
G01*
X87028026Y-38882531D01*
X87028026Y-38410000D01*
X87472470Y-38410000D01*
X87780216Y-38410000D01*
X88280291Y-37307487D01*
X90552071Y-37307487D01*
X91053803Y-38410000D01*
X91361549Y-38410000D01*
X92074006Y-38410000D01*
X92359526Y-38410000D01*
X92359526Y-35009259D01*
X95028856Y-38410000D01*
X95263817Y-38410000D01*
X95263817Y-37906371D01*
X96233461Y-37906371D01*
X96386710Y-38047272D01*
X96584460Y-38175430D01*
X96834787Y-38289832D01*
X97097705Y-38371772D01*
X97372152Y-38421324D01*
X97660328Y-38438087D01*
X97983318Y-38420163D01*
X98037400Y-38410000D01*
X100038276Y-38410000D01*
X100323796Y-38410000D01*
X100323796Y-36451416D01*
X101312491Y-36451416D01*
X101329843Y-36735545D01*
X101380540Y-36998492D01*
X101463433Y-37243251D01*
X101578481Y-37474648D01*
X101719986Y-37683874D01*
X101888904Y-37872909D01*
X102081488Y-38037693D01*
X102296159Y-38176463D01*
X102535171Y-38289832D01*
X102787147Y-38371362D01*
X103055807Y-38421109D01*
X103343859Y-38438087D01*
X103617424Y-38422474D01*
X103875000Y-38376561D01*
X104118842Y-38301067D01*
X104349329Y-38193585D01*
X104554611Y-38056779D01*
X104737265Y-37889518D01*
X104558235Y-37704870D01*
X104381341Y-37859242D01*
X104196193Y-37978656D01*
X104001361Y-38065861D01*
X103689466Y-38147391D01*
X103355094Y-38175038D01*
X103107701Y-38160332D01*
X102876184Y-38117176D01*
X102658269Y-38046322D01*
X102451729Y-37947921D01*
X102265846Y-37826904D01*
X102098709Y-37682644D01*
X101952226Y-37517378D01*
X101829405Y-37335070D01*
X101729414Y-37134075D01*
X101657123Y-36921635D01*
X101613052Y-36694900D01*
X101598011Y-36451416D01*
X101613052Y-36207932D01*
X101657123Y-35981198D01*
X101729414Y-35768757D01*
X101829426Y-35567616D01*
X101952251Y-35385314D01*
X102098709Y-35220188D01*
X102265846Y-35075928D01*
X102451729Y-34954911D01*
X102658269Y-34856510D01*
X102876184Y-34785656D01*
X103107701Y-34742500D01*
X103355094Y-34727794D01*
X103689466Y-34755441D01*
X104001361Y-34836971D01*
X104196511Y-34923631D01*
X104381670Y-35041270D01*
X104558235Y-35192344D01*
X104737265Y-35007697D01*
X104554515Y-34840685D01*
X104349248Y-34704879D01*
X104118842Y-34599078D01*
X103875112Y-34525092D01*
X103617519Y-34480063D01*
X103343859Y-34464745D01*
X103055824Y-34481762D01*
X102788176Y-34531544D01*
X102538102Y-34613000D01*
X102300727Y-34726001D01*
X102085903Y-34864733D01*
X101891591Y-35029923D01*
X101721050Y-35219126D01*
X101578683Y-35428354D01*
X101463433Y-35659581D01*
X101380540Y-35904340D01*
X101329843Y-36167287D01*
X101312491Y-36451416D01*
X100323796Y-36451416D01*
X100323796Y-34492833D01*
X100038276Y-34492833D01*
X100038276Y-38410000D01*
X98037400Y-38410000D01*
X98245734Y-38370850D01*
X98457781Y-38295450D01*
X98653281Y-38185482D01*
X98805046Y-38058738D01*
X98919400Y-37914919D01*
X99003889Y-37751046D01*
X99053841Y-37581276D01*
X99070586Y-37402742D01*
X99054190Y-37205288D01*
X99008418Y-37043442D01*
X98936253Y-36910348D01*
X98782038Y-36740648D01*
X98583566Y-36608220D01*
X98358082Y-36507617D01*
X98108025Y-36426259D01*
X97587544Y-36294612D01*
X97331455Y-36224778D01*
X97106141Y-36143670D01*
X96906090Y-36036247D01*
X96756385Y-35903091D01*
X96685415Y-35795353D01*
X96640902Y-35663196D01*
X96624983Y-35500090D01*
X96654580Y-35291541D01*
X96742463Y-35105638D01*
X96831312Y-34999619D01*
X96950725Y-34905398D01*
X97106385Y-34823049D01*
X97273960Y-34766604D01*
X97478634Y-34729853D01*
X97727495Y-34716559D01*
X97991678Y-34736337D01*
X98273133Y-34797892D01*
X98546200Y-34900458D01*
X98801919Y-35046775D01*
X98908165Y-34817187D01*
X98667352Y-34674700D01*
X98368144Y-34560000D01*
X98049311Y-34488463D01*
X97727495Y-34464745D01*
X97408528Y-34482988D01*
X97148817Y-34533255D01*
X96938346Y-34610314D01*
X96744778Y-34721654D01*
X96595871Y-34848400D01*
X96485031Y-34990844D01*
X96404255Y-35152582D01*
X96356014Y-35323230D01*
X96339707Y-35505708D01*
X96355822Y-35707205D01*
X96400690Y-35871846D01*
X96471110Y-36006650D01*
X96623337Y-36178426D01*
X96820865Y-36311465D01*
X97047282Y-36411709D01*
X97302268Y-36493426D01*
X97822505Y-36624829D01*
X98073652Y-36694509D01*
X98298290Y-36776015D01*
X98498972Y-36883184D01*
X98650733Y-37016594D01*
X98723394Y-37124550D01*
X98768838Y-37256706D01*
X98785066Y-37419595D01*
X98771573Y-37557507D01*
X98731680Y-37685355D01*
X98664655Y-37805743D01*
X98574402Y-37909704D01*
X98453262Y-38002098D01*
X98295359Y-38082714D01*
X98126143Y-38137255D01*
X97915350Y-38173169D01*
X97654710Y-38186273D01*
X97396379Y-38170194D01*
X97149923Y-38122589D01*
X96913189Y-38043635D01*
X96686995Y-37936011D01*
X96505368Y-37819083D01*
X96361933Y-37693635D01*
X96233461Y-37906371D01*
X95263817Y-37906371D01*
X95263817Y-34492833D01*
X94978542Y-34492833D01*
X94978542Y-37893256D01*
X92314585Y-34492833D01*
X92074006Y-34492833D01*
X92074006Y-38410000D01*
X91361549Y-38410000D01*
X89559770Y-34492833D01*
X89274250Y-34492833D01*
X88090252Y-37066908D01*
X87472470Y-38410000D01*
X87028026Y-38410000D01*
X87028026Y-34020301D01*
X105181709Y-34020301D01*
X105181709Y-38882531D01*
G37*
%TD*%
%TA.AperFunction,Conductor*%
%TO.N,GND*%
G36*
X74501038Y-80554550D02*
G01*
X74526097Y-80572756D01*
X74633337Y-80679996D01*
X74640455Y-80693967D01*
X74651543Y-80705055D01*
X74653995Y-80720542D01*
X74661114Y-80734513D01*
X74658661Y-80750000D01*
X74661114Y-80765487D01*
X74653995Y-80779457D01*
X74651543Y-80794945D01*
X74633338Y-80820003D01*
X74526097Y-80927244D01*
X74471580Y-80955021D01*
X74411148Y-80945450D01*
X74386089Y-80927244D01*
X74278849Y-80820004D01*
X74251072Y-80765487D01*
X74260643Y-80705055D01*
X74278849Y-80679996D01*
X74386089Y-80572756D01*
X74440606Y-80544979D01*
X74501038Y-80554550D01*
G37*
%TD.AperFunction*%
%TA.AperFunction,Conductor*%
G36*
X179498730Y-25200531D02*
G01*
X179538738Y-25201544D01*
X179543740Y-25201797D01*
X179579378Y-25204512D01*
X179584347Y-25205017D01*
X179619377Y-25209476D01*
X179624296Y-25210230D01*
X179658708Y-25216385D01*
X179663570Y-25217381D01*
X179697298Y-25225176D01*
X179702059Y-25226401D01*
X179735207Y-25235826D01*
X179739885Y-25237283D01*
X179772321Y-25248271D01*
X179776902Y-25249950D01*
X179808576Y-25262451D01*
X179813044Y-25264342D01*
X179844030Y-25278363D01*
X179848370Y-25280456D01*
X179860712Y-25286783D01*
X179878520Y-25295912D01*
X179882724Y-25298197D01*
X179902104Y-25309346D01*
X179912053Y-25315070D01*
X179912059Y-25315073D01*
X179916127Y-25317545D01*
X179933685Y-25328808D01*
X179944574Y-25335793D01*
X179948510Y-25338453D01*
X179976035Y-25358035D01*
X179979827Y-25360872D01*
X180006363Y-25381731D01*
X180009993Y-25384729D01*
X180035505Y-25406831D01*
X180038998Y-25410006D01*
X180063399Y-25433272D01*
X180066724Y-25436596D01*
X180090015Y-25461023D01*
X180093165Y-25464489D01*
X180104088Y-25477096D01*
X180115263Y-25489995D01*
X180118270Y-25493638D01*
X180139142Y-25520190D01*
X180141966Y-25523965D01*
X180148241Y-25532785D01*
X180161547Y-25551489D01*
X180164199Y-25555413D01*
X180170119Y-25564643D01*
X180182441Y-25583853D01*
X180184919Y-25587929D01*
X180200439Y-25614903D01*
X180201798Y-25617264D01*
X180204078Y-25621459D01*
X180219557Y-25651656D01*
X180221650Y-25655997D01*
X180235647Y-25686931D01*
X180237538Y-25691398D01*
X180250050Y-25723100D01*
X180251730Y-25727683D01*
X180262719Y-25760124D01*
X180264177Y-25764807D01*
X180273590Y-25797911D01*
X180274812Y-25802655D01*
X180282616Y-25836417D01*
X180282622Y-25836444D01*
X180283617Y-25841305D01*
X180289766Y-25875683D01*
X180290521Y-25880614D01*
X180294979Y-25915640D01*
X180295485Y-25920620D01*
X180298199Y-25956246D01*
X180298453Y-25961255D01*
X180299468Y-26001267D01*
X180299500Y-26003778D01*
X180299500Y-126496226D01*
X180299468Y-126498737D01*
X180298453Y-126538747D01*
X180298199Y-126543755D01*
X180295485Y-126579386D01*
X180294979Y-126584366D01*
X180290524Y-126619371D01*
X180289769Y-126624305D01*
X180283614Y-126658712D01*
X180282619Y-126663567D01*
X180274814Y-126697337D01*
X180273590Y-126702091D01*
X180271533Y-126709327D01*
X180264177Y-126735195D01*
X180262719Y-126739878D01*
X180251730Y-126772319D01*
X180250050Y-126776902D01*
X180237538Y-126808604D01*
X180235647Y-126813071D01*
X180221654Y-126843996D01*
X180219558Y-126848344D01*
X180204086Y-126878527D01*
X180201796Y-126882740D01*
X180184919Y-126912072D01*
X180182440Y-126916150D01*
X180164201Y-126944585D01*
X180161540Y-126948521D01*
X180141962Y-126976042D01*
X180139123Y-126979838D01*
X180118289Y-127006341D01*
X180115283Y-127009982D01*
X180093168Y-127035509D01*
X180089992Y-127039003D01*
X180066732Y-127063397D01*
X180063398Y-127066732D01*
X180038989Y-127090004D01*
X180035502Y-127093173D01*
X180009995Y-127115273D01*
X180006349Y-127118283D01*
X179979811Y-127139144D01*
X179976021Y-127141978D01*
X179975115Y-127142624D01*
X179948532Y-127161536D01*
X179944594Y-127164197D01*
X179916130Y-127182455D01*
X179912050Y-127184935D01*
X179882740Y-127201799D01*
X179878525Y-127204090D01*
X179848349Y-127219557D01*
X179844005Y-127221652D01*
X179813072Y-127235649D01*
X179808608Y-127237539D01*
X179776890Y-127250059D01*
X179772304Y-127251739D01*
X179739884Y-127262721D01*
X179735196Y-127264181D01*
X179702083Y-127273596D01*
X179697305Y-127274826D01*
X179663571Y-127282624D01*
X179658701Y-127283622D01*
X179624288Y-127289776D01*
X179619363Y-127290529D01*
X179584351Y-127294986D01*
X179579370Y-127295493D01*
X179543748Y-127298207D01*
X179538736Y-127298461D01*
X179500907Y-127299419D01*
X179498727Y-127299475D01*
X179496222Y-127299507D01*
X130124060Y-127299507D01*
X130065869Y-127280600D01*
X130054056Y-127270510D01*
X129469146Y-126685588D01*
X129469145Y-126685587D01*
X129461042Y-126677484D01*
X129459998Y-126675129D01*
X129432946Y-126649386D01*
X129432118Y-126648558D01*
X129432079Y-126648520D01*
X129428254Y-126644695D01*
X129420250Y-126635648D01*
X129418033Y-126632811D01*
X129393438Y-126611624D01*
X129389808Y-126608337D01*
X129381163Y-126600111D01*
X129374490Y-126593109D01*
X129374217Y-126592793D01*
X129373973Y-126592603D01*
X129366572Y-126586226D01*
X129366277Y-126585945D01*
X129365812Y-126585651D01*
X129357942Y-126580114D01*
X129348573Y-126572817D01*
X129344793Y-126569720D01*
X129336024Y-126562166D01*
X129328997Y-126555486D01*
X129328641Y-126555113D01*
X129328260Y-126554845D01*
X129320587Y-126548867D01*
X129320183Y-126548519D01*
X129319663Y-126548225D01*
X129311495Y-126543061D01*
X129302031Y-126536410D01*
X129298117Y-126533514D01*
X129289196Y-126526565D01*
X129281820Y-126520213D01*
X129281411Y-126519824D01*
X129281410Y-126519823D01*
X129280919Y-126519513D01*
X129272970Y-126513925D01*
X129272472Y-126513537D01*
X129272471Y-126513536D01*
X129272465Y-126513532D01*
X129271887Y-126513242D01*
X129263460Y-126508479D01*
X129253861Y-126502413D01*
X129249875Y-126499754D01*
X129240763Y-126493350D01*
X129233095Y-126487376D01*
X129232617Y-126486964D01*
X129232031Y-126486633D01*
X129223849Y-126481462D01*
X129223244Y-126481037D01*
X129222602Y-126480753D01*
X129213916Y-126476389D01*
X129204283Y-126470941D01*
X129200131Y-126468457D01*
X129190874Y-126462607D01*
X129182885Y-126456989D01*
X129182367Y-126456585D01*
X129182365Y-126456583D01*
X129182361Y-126456581D01*
X129182360Y-126456580D01*
X129181684Y-126456240D01*
X129173264Y-126451478D01*
X129172603Y-126451060D01*
X129171942Y-126450806D01*
X129163040Y-126446866D01*
X129153258Y-126441948D01*
X129148996Y-126439674D01*
X129139562Y-126434339D01*
X129139551Y-126434332D01*
X129131293Y-126429108D01*
X129130744Y-126428721D01*
X129130014Y-126428398D01*
X129121402Y-126424068D01*
X129120661Y-126423649D01*
X129119966Y-126423420D01*
X129110853Y-126419909D01*
X129100958Y-126415525D01*
X129096588Y-126413460D01*
X129086958Y-126408618D01*
X129078457Y-126403804D01*
X129077856Y-126403423D01*
X129077062Y-126403117D01*
X129068259Y-126399217D01*
X129067492Y-126398832D01*
X129067490Y-126398831D01*
X129066806Y-126398643D01*
X129057516Y-126395575D01*
X129054686Y-126394483D01*
X129047459Y-126391693D01*
X129043012Y-126389851D01*
X129033152Y-126385483D01*
X129024412Y-126381082D01*
X129023800Y-126380735D01*
X129022993Y-126380468D01*
X129022993Y-126380467D01*
X129018403Y-126378948D01*
X129013222Y-126376653D01*
X129011322Y-126376606D01*
X129003110Y-126373889D01*
X128992863Y-126370499D01*
X128988317Y-126368871D01*
X128978231Y-126364979D01*
X128969295Y-126361013D01*
X128968662Y-126360694D01*
X128968660Y-126360693D01*
X128963194Y-126359176D01*
X128957933Y-126357146D01*
X128956043Y-126357192D01*
X128947727Y-126354884D01*
X128947724Y-126354882D01*
X128947722Y-126354882D01*
X128937260Y-126351978D01*
X128932645Y-126350575D01*
X128922280Y-126347146D01*
X128913184Y-126343631D01*
X128912542Y-126343345D01*
X128911758Y-126343169D01*
X128911758Y-126343168D01*
X128907041Y-126342104D01*
X128901736Y-126340350D01*
X128899864Y-126340486D01*
X128891467Y-126338594D01*
X128891466Y-126338593D01*
X128891463Y-126338593D01*
X128880780Y-126336184D01*
X128876093Y-126335006D01*
X128865407Y-126332040D01*
X128856186Y-126328987D01*
X128855539Y-126328737D01*
X128854811Y-126328610D01*
X128854811Y-126328609D01*
X128850033Y-126327775D01*
X128844716Y-126326300D01*
X128842871Y-126326525D01*
X128834438Y-126325054D01*
X128834428Y-126325053D01*
X128823472Y-126323141D01*
X128818710Y-126322189D01*
X128807710Y-126319708D01*
X128798383Y-126317119D01*
X128797746Y-126316908D01*
X128797085Y-126316826D01*
X128797085Y-126316825D01*
X128792260Y-126316225D01*
X128786981Y-126315036D01*
X128785177Y-126315346D01*
X128776735Y-126314298D01*
X128776726Y-126314298D01*
X128773425Y-126313888D01*
X128765479Y-126312901D01*
X128760672Y-126312184D01*
X128749286Y-126310198D01*
X128739820Y-126308064D01*
X128739268Y-126307910D01*
X128738720Y-126307870D01*
X128738720Y-126307869D01*
X128733876Y-126307508D01*
X128728629Y-126306594D01*
X128726867Y-126306987D01*
X128718431Y-126306360D01*
X128718430Y-126306359D01*
X128706870Y-126305500D01*
X128702007Y-126305018D01*
X128690222Y-126303554D01*
X128680723Y-126301901D01*
X128680206Y-126301784D01*
X128679812Y-126301775D01*
X128679812Y-126301776D01*
X128674924Y-126301654D01*
X128669758Y-126301013D01*
X128668048Y-126301484D01*
X128659668Y-126301276D01*
X128659667Y-126301275D01*
X128647733Y-126300980D01*
X128642843Y-126300737D01*
X128610480Y-126298329D01*
X128606893Y-126298770D01*
X128594832Y-126299507D01*
X128589519Y-126299507D01*
X128587067Y-126299477D01*
X128586655Y-126299466D01*
X128550883Y-126298580D01*
X128550882Y-126298580D01*
X128548488Y-126298521D01*
X128537021Y-126299507D01*
X109451514Y-126299507D01*
X109449109Y-126298580D01*
X109411715Y-126299507D01*
X109405161Y-126299507D01*
X109393100Y-126298770D01*
X109389513Y-126298329D01*
X109357153Y-126300737D01*
X109352261Y-126300980D01*
X109340316Y-126301276D01*
X109330681Y-126301045D01*
X109330238Y-126301012D01*
X109329923Y-126301052D01*
X109320188Y-126301775D01*
X109319786Y-126301784D01*
X109319252Y-126301905D01*
X109309776Y-126303553D01*
X109297974Y-126305019D01*
X109293112Y-126305501D01*
X109281561Y-126306360D01*
X109271905Y-126306606D01*
X109271367Y-126306593D01*
X109270899Y-126306675D01*
X109261267Y-126307871D01*
X109260725Y-126307911D01*
X109260150Y-126308071D01*
X109250724Y-126310195D01*
X109239319Y-126312185D01*
X109234501Y-126312904D01*
X109223274Y-126314298D01*
X109213598Y-126315020D01*
X109213019Y-126315034D01*
X109212450Y-126315163D01*
X109202903Y-126316828D01*
X109202252Y-126316908D01*
X109201627Y-126317116D01*
X109192291Y-126319708D01*
X109181285Y-126322190D01*
X109176523Y-126323142D01*
X109165565Y-126325054D01*
X109155899Y-126326254D01*
X109155279Y-126326300D01*
X109154620Y-126326483D01*
X109145215Y-126328604D01*
X109144460Y-126328735D01*
X109143832Y-126328979D01*
X109134583Y-126332043D01*
X109123904Y-126335006D01*
X109119213Y-126336185D01*
X109108530Y-126338594D01*
X109098914Y-126340269D01*
X109098268Y-126340348D01*
X109097759Y-126340516D01*
X109097530Y-126340592D01*
X109088257Y-126343165D01*
X109087455Y-126343345D01*
X109086800Y-126343637D01*
X109077721Y-126347145D01*
X109067355Y-126350575D01*
X109062727Y-126351982D01*
X109052273Y-126354883D01*
X109042735Y-126357029D01*
X109042060Y-126357146D01*
X109041293Y-126357442D01*
X109032166Y-126360461D01*
X109031342Y-126360689D01*
X109030675Y-126361026D01*
X109021779Y-126364972D01*
X109011683Y-126368869D01*
X109007128Y-126370501D01*
X108996881Y-126373891D01*
X108987482Y-126376494D01*
X108986774Y-126376652D01*
X108985999Y-126376995D01*
X108986000Y-126376996D01*
X108981577Y-126378955D01*
X108976199Y-126380735D01*
X108974761Y-126381974D01*
X108966860Y-126385475D01*
X108966857Y-126385477D01*
X108957001Y-126389844D01*
X108952537Y-126391693D01*
X108942464Y-126395580D01*
X108933209Y-126398637D01*
X108932502Y-126398832D01*
X108931742Y-126399214D01*
X108931743Y-126399215D01*
X108927428Y-126401384D01*
X108922140Y-126403425D01*
X108920765Y-126404733D01*
X108913040Y-126408617D01*
X108903406Y-126413460D01*
X108899041Y-126415522D01*
X108889125Y-126419915D01*
X108880033Y-126423419D01*
X108879339Y-126423647D01*
X108878587Y-126424073D01*
X108878586Y-126424072D01*
X108874394Y-126426442D01*
X108869250Y-126428723D01*
X108867950Y-126430086D01*
X108860438Y-126434336D01*
X108860434Y-126434339D01*
X108850996Y-126439676D01*
X108846738Y-126441949D01*
X108836965Y-126446863D01*
X108828042Y-126450811D01*
X108827391Y-126451061D01*
X108826700Y-126451498D01*
X108826699Y-126451497D01*
X108822618Y-126454075D01*
X108817633Y-126456583D01*
X108816409Y-126457998D01*
X108809154Y-126462583D01*
X108809141Y-126462593D01*
X108799866Y-126468455D01*
X108795709Y-126470942D01*
X108786074Y-126476391D01*
X108777373Y-126480761D01*
X108776758Y-126481032D01*
X108776322Y-126481338D01*
X108772183Y-126484247D01*
X108767377Y-126486966D01*
X108766231Y-126488430D01*
X108759229Y-126493352D01*
X108759224Y-126493355D01*
X108759222Y-126493355D01*
X108750138Y-126499740D01*
X108746102Y-126502432D01*
X108736543Y-126508473D01*
X108728107Y-126513242D01*
X108727527Y-126513533D01*
X108727001Y-126513943D01*
X108727000Y-126513942D01*
X108723174Y-126516921D01*
X108718587Y-126519822D01*
X108717529Y-126521318D01*
X108710817Y-126526547D01*
X108710816Y-126526549D01*
X108701867Y-126533520D01*
X108697955Y-126536415D01*
X108688506Y-126543056D01*
X108680343Y-126548218D01*
X108679807Y-126548521D01*
X108679406Y-126548865D01*
X108679407Y-126548866D01*
X108675719Y-126552043D01*
X108675712Y-126552049D01*
X108671354Y-126555113D01*
X108670386Y-126556636D01*
X108663987Y-126562149D01*
X108655198Y-126569720D01*
X108651421Y-126572814D01*
X108642035Y-126580125D01*
X108634155Y-126585669D01*
X108633715Y-126585946D01*
X108633430Y-126586219D01*
X108629888Y-126589589D01*
X108625778Y-126592791D01*
X108624902Y-126594332D01*
X108618829Y-126600111D01*
X108618828Y-126600112D01*
X108610186Y-126608335D01*
X108606559Y-126611619D01*
X108581958Y-126632812D01*
X108579732Y-126635660D01*
X108571739Y-126644693D01*
X108567947Y-126648485D01*
X108566190Y-126650198D01*
X108538272Y-126676765D01*
X108530844Y-126685589D01*
X107945937Y-127270510D01*
X107891421Y-127298288D01*
X107875933Y-127299507D01*
X58503773Y-127299507D01*
X58501267Y-127299475D01*
X58498976Y-127299417D01*
X58461259Y-127298461D01*
X58456248Y-127298207D01*
X58420637Y-127295494D01*
X58415655Y-127294987D01*
X58380612Y-127290526D01*
X58375683Y-127289772D01*
X58341305Y-127283623D01*
X58336442Y-127282627D01*
X58302690Y-127274826D01*
X58297910Y-127273595D01*
X58264784Y-127264177D01*
X58260093Y-127262716D01*
X58227688Y-127251738D01*
X58223108Y-127250060D01*
X58191409Y-127237549D01*
X58186941Y-127235658D01*
X58155986Y-127221651D01*
X58151640Y-127219555D01*
X58121485Y-127204098D01*
X58117272Y-127201808D01*
X58087934Y-127184928D01*
X58083853Y-127182447D01*
X58055412Y-127164203D01*
X58051477Y-127161544D01*
X58023979Y-127141982D01*
X58023978Y-127141981D01*
X58020185Y-127139144D01*
X57993638Y-127118276D01*
X57989993Y-127115267D01*
X57964511Y-127093189D01*
X57961022Y-127090018D01*
X57936600Y-127066733D01*
X57933266Y-127063398D01*
X57909984Y-127038980D01*
X57906808Y-127035486D01*
X57884722Y-127009992D01*
X57881718Y-127006353D01*
X57872270Y-126994334D01*
X57860852Y-126979808D01*
X57858057Y-126976072D01*
X57838452Y-126948515D01*
X57835799Y-126944588D01*
X57817551Y-126916137D01*
X57815074Y-126912064D01*
X57812367Y-126907359D01*
X57798186Y-126882714D01*
X57795911Y-126878527D01*
X57780439Y-126848341D01*
X57778353Y-126844014D01*
X57778345Y-126843996D01*
X57764342Y-126813051D01*
X57762464Y-126808613D01*
X57762460Y-126808604D01*
X57749941Y-126776884D01*
X57748261Y-126772300D01*
X57747813Y-126770977D01*
X57737279Y-126739878D01*
X57735825Y-126735207D01*
X57731079Y-126718517D01*
X57726404Y-126702077D01*
X57725176Y-126697306D01*
X57720596Y-126677487D01*
X57717375Y-126663554D01*
X57716388Y-126658734D01*
X57710224Y-126624275D01*
X57709478Y-126619400D01*
X57705016Y-126584345D01*
X57704513Y-126579386D01*
X57704012Y-126572814D01*
X57701798Y-126543747D01*
X57701545Y-126538743D01*
X57700916Y-126513918D01*
X57700593Y-126501139D01*
X57700532Y-126498735D01*
X57700500Y-126496229D01*
X57700500Y-124962697D01*
X58548492Y-124962697D01*
X58549372Y-124997483D01*
X58549372Y-125002488D01*
X58548492Y-125037285D01*
X58551130Y-125071979D01*
X58551383Y-125076984D01*
X58552245Y-125111088D01*
X58552238Y-125111390D01*
X58552302Y-125111753D01*
X58556599Y-125145573D01*
X58557104Y-125150543D01*
X58559617Y-125183583D01*
X58559645Y-125184573D01*
X58559888Y-125185638D01*
X58565702Y-125218200D01*
X58566453Y-125223117D01*
X58566453Y-125223118D01*
X58570515Y-125255076D01*
X58570642Y-125256693D01*
X58571122Y-125258396D01*
X58578342Y-125289684D01*
X58579335Y-125294536D01*
X58584855Y-125325440D01*
X58585141Y-125327652D01*
X58585894Y-125329887D01*
X58594440Y-125359979D01*
X58595664Y-125364739D01*
X58602553Y-125394585D01*
X58602561Y-125394619D01*
X58603048Y-125397316D01*
X58604126Y-125400058D01*
X58613889Y-125428914D01*
X58615341Y-125433582D01*
X58623528Y-125462409D01*
X58624270Y-125465607D01*
X58625692Y-125468754D01*
X58636617Y-125496462D01*
X58638295Y-125501045D01*
X58647697Y-125528831D01*
X58648713Y-125532397D01*
X58650487Y-125535860D01*
X58662515Y-125562466D01*
X58664405Y-125566935D01*
X58674955Y-125593693D01*
X58676282Y-125597614D01*
X58678416Y-125601317D01*
X58691484Y-125626832D01*
X58693577Y-125631177D01*
X58705187Y-125656857D01*
X58705233Y-125656957D01*
X58706881Y-125661144D01*
X58709405Y-125665067D01*
X58723427Y-125689455D01*
X58725717Y-125693670D01*
X58738473Y-125718575D01*
X58740396Y-125722835D01*
X58740570Y-125723137D01*
X58743374Y-125727049D01*
X58758272Y-125750287D01*
X58760740Y-125754349D01*
X58773686Y-125776865D01*
X58777879Y-125784158D01*
X58780028Y-125786876D01*
X58795924Y-125809231D01*
X58798562Y-125813136D01*
X58813010Y-125835672D01*
X58813391Y-125836266D01*
X58815871Y-125840583D01*
X58816128Y-125840944D01*
X58819442Y-125844747D01*
X58836254Y-125866140D01*
X58839090Y-125869933D01*
X58857758Y-125896185D01*
X58857777Y-125896240D01*
X58857891Y-125896372D01*
X58858045Y-125896588D01*
X58858051Y-125896591D01*
X58859085Y-125898044D01*
X58861631Y-125900688D01*
X58879211Y-125920985D01*
X58882208Y-125924618D01*
X58899000Y-125945986D01*
X58899019Y-125946010D01*
X58902064Y-125949887D01*
X58902092Y-125949958D01*
X58902245Y-125950118D01*
X58903412Y-125951604D01*
X58906035Y-125954095D01*
X58918386Y-125967049D01*
X58924674Y-125973644D01*
X58927851Y-125977140D01*
X58945499Y-125997514D01*
X58948512Y-126001366D01*
X58949435Y-126002334D01*
X58953153Y-126005534D01*
X58972595Y-126024070D01*
X58975934Y-126027409D01*
X58976607Y-126028115D01*
X58994523Y-126046907D01*
X58994576Y-126046962D01*
X58994619Y-126047007D01*
X58998068Y-126050629D01*
X58998108Y-126050707D01*
X58998302Y-126050874D01*
X58999689Y-126052331D01*
X59002626Y-126054620D01*
X59022835Y-126072127D01*
X59026327Y-126075301D01*
X59045939Y-126093999D01*
X59045957Y-126094016D01*
X59049597Y-126097488D01*
X59049640Y-126097564D01*
X59049843Y-126097723D01*
X59051241Y-126099057D01*
X59054197Y-126101145D01*
X59075368Y-126117782D01*
X59079015Y-126120791D01*
X59103364Y-126141884D01*
X59103408Y-126141954D01*
X59103612Y-126142099D01*
X59103754Y-126142222D01*
X59103755Y-126142222D01*
X59105005Y-126143305D01*
X59107955Y-126145188D01*
X59130065Y-126160911D01*
X59133861Y-126163750D01*
X59155191Y-126180512D01*
X59155371Y-126180653D01*
X59159289Y-126183732D01*
X59159327Y-126183787D01*
X59159497Y-126183896D01*
X59159576Y-126183958D01*
X59159579Y-126183958D01*
X59161153Y-126185195D01*
X59164293Y-126186970D01*
X59186844Y-126201428D01*
X59190786Y-126204091D01*
X59213196Y-126220028D01*
X59215886Y-126222150D01*
X59217312Y-126222970D01*
X59217313Y-126222971D01*
X59245623Y-126239248D01*
X59249697Y-126241723D01*
X59272990Y-126256657D01*
X59276905Y-126259461D01*
X59277624Y-126259874D01*
X59281906Y-126261779D01*
X59306331Y-126274288D01*
X59310519Y-126276563D01*
X59338808Y-126292830D01*
X59340325Y-126293702D01*
X59343023Y-126294764D01*
X59368808Y-126306421D01*
X59373149Y-126308512D01*
X59402170Y-126323376D01*
X59402171Y-126323376D01*
X59403774Y-126324197D01*
X59406327Y-126325060D01*
X59433092Y-126335613D01*
X59437533Y-126337492D01*
X59451113Y-126343631D01*
X59467189Y-126350899D01*
X59468860Y-126351654D01*
X59471202Y-126352320D01*
X59498931Y-126361703D01*
X59498940Y-126361706D01*
X59503511Y-126363379D01*
X59533764Y-126375308D01*
X59533765Y-126375307D01*
X59535526Y-126376002D01*
X59537597Y-126376481D01*
X59566406Y-126384662D01*
X59571024Y-126386097D01*
X59601802Y-126396513D01*
X59601804Y-126396512D01*
X59603646Y-126397136D01*
X59605427Y-126397457D01*
X59606566Y-126397719D01*
X59635276Y-126404346D01*
X59639985Y-126405557D01*
X59671198Y-126414421D01*
X59671201Y-126414420D01*
X59673131Y-126414968D01*
X59674550Y-126415151D01*
X59705469Y-126420673D01*
X59710293Y-126421660D01*
X59741852Y-126428944D01*
X59741852Y-126428943D01*
X59743869Y-126429409D01*
X59744913Y-126429491D01*
X59776898Y-126433555D01*
X59781776Y-126434300D01*
X59813650Y-126439993D01*
X59813651Y-126439992D01*
X59814358Y-126440119D01*
X59814357Y-126440119D01*
X59815766Y-126440371D01*
X59816439Y-126440390D01*
X59817219Y-126440449D01*
X59817223Y-126440451D01*
X59849472Y-126442903D01*
X59854410Y-126443404D01*
X59886485Y-126447481D01*
X59886485Y-126447480D01*
X59888218Y-126447701D01*
X59888227Y-126447702D01*
X59888729Y-126447765D01*
X59888905Y-126447762D01*
X59890737Y-126447808D01*
X59890739Y-126447809D01*
X59923028Y-126448624D01*
X59928008Y-126448876D01*
X59960237Y-126451328D01*
X59960239Y-126451327D01*
X59962696Y-126451514D01*
X59965196Y-126451450D01*
X59965197Y-126451451D01*
X59997508Y-126450634D01*
X60002492Y-126450634D01*
X60034803Y-126451451D01*
X60034806Y-126451449D01*
X60037314Y-126451513D01*
X60039759Y-126451326D01*
X60039763Y-126451328D01*
X60071990Y-126448876D01*
X60076978Y-126448624D01*
X60090393Y-126448285D01*
X60111098Y-126447763D01*
X60111393Y-126447769D01*
X60111784Y-126447701D01*
X60113515Y-126447481D01*
X60145600Y-126443403D01*
X60150533Y-126442902D01*
X60182777Y-126440451D01*
X60182777Y-126440450D01*
X60183574Y-126440390D01*
X60184586Y-126440361D01*
X60185657Y-126440117D01*
X60218016Y-126434337D01*
X60218196Y-126434304D01*
X60223094Y-126433555D01*
X60255089Y-126429490D01*
X60256705Y-126429364D01*
X60258408Y-126428884D01*
X60259283Y-126428682D01*
X60289713Y-126421658D01*
X60294499Y-126420678D01*
X60325449Y-126415151D01*
X60327656Y-126414866D01*
X60329917Y-126414105D01*
X60338935Y-126411544D01*
X60360004Y-126405561D01*
X60364756Y-126404338D01*
X60394591Y-126397452D01*
X60397325Y-126396960D01*
X60400084Y-126395874D01*
X60428924Y-126386115D01*
X60428939Y-126386110D01*
X60433628Y-126384652D01*
X60462396Y-126376483D01*
X60465608Y-126375738D01*
X60468780Y-126374304D01*
X60496495Y-126363376D01*
X60501027Y-126361717D01*
X60528805Y-126352317D01*
X60532402Y-126351295D01*
X60535875Y-126349513D01*
X60562485Y-126337482D01*
X60566906Y-126335613D01*
X60593654Y-126325067D01*
X60597611Y-126323730D01*
X60601362Y-126321566D01*
X60626871Y-126308500D01*
X60631155Y-126306437D01*
X60656937Y-126294781D01*
X60661142Y-126293128D01*
X60665069Y-126290601D01*
X60689475Y-126276567D01*
X60693695Y-126274275D01*
X60696563Y-126272805D01*
X60718092Y-126261779D01*
X60722370Y-126259876D01*
X60723301Y-126259341D01*
X60727206Y-126256530D01*
X60750319Y-126241711D01*
X60754376Y-126239248D01*
X60782687Y-126222970D01*
X60782687Y-126222968D01*
X60784279Y-126222054D01*
X60787061Y-126219843D01*
X60809232Y-126204076D01*
X60813132Y-126201442D01*
X60836183Y-126186664D01*
X60839287Y-126184886D01*
X60844309Y-126180904D01*
X60844448Y-126180795D01*
X60844501Y-126180775D01*
X60844754Y-126180554D01*
X60866179Y-126163716D01*
X60869930Y-126160913D01*
X60891836Y-126145335D01*
X60891844Y-126145329D01*
X60896003Y-126142690D01*
X60897127Y-126141807D01*
X60900721Y-126138343D01*
X60920996Y-126120780D01*
X60924596Y-126117808D01*
X60945994Y-126100994D01*
X60949906Y-126097927D01*
X60949961Y-126097907D01*
X60950087Y-126097785D01*
X60951623Y-126096582D01*
X60954170Y-126093893D01*
X60973691Y-126075281D01*
X60977153Y-126072136D01*
X60977163Y-126072127D01*
X60997348Y-126054641D01*
X61001540Y-126051378D01*
X61002074Y-126050868D01*
X61005544Y-126046836D01*
X61005581Y-126046798D01*
X61024085Y-126027388D01*
X61027404Y-126024070D01*
X61046812Y-126005565D01*
X61050712Y-126002213D01*
X61051461Y-126001427D01*
X61054619Y-125997375D01*
X61072166Y-125977118D01*
X61075278Y-125973693D01*
X61094055Y-125953997D01*
X61097506Y-125950389D01*
X61097565Y-125950357D01*
X61097687Y-125950199D01*
X61099036Y-125948790D01*
X61101163Y-125945776D01*
X61117816Y-125924585D01*
X61120771Y-125921004D01*
X61138390Y-125900662D01*
X61142123Y-125896783D01*
X61142487Y-125896321D01*
X61145333Y-125891833D01*
X61160931Y-125869899D01*
X61163717Y-125866174D01*
X61180642Y-125844636D01*
X61183768Y-125840680D01*
X61183787Y-125840668D01*
X61183823Y-125840610D01*
X61185138Y-125838947D01*
X61186982Y-125835681D01*
X61201443Y-125813125D01*
X61204086Y-125809212D01*
X61219776Y-125787149D01*
X61222024Y-125784327D01*
X61226317Y-125776860D01*
X61239263Y-125754341D01*
X61241706Y-125750319D01*
X61256499Y-125727246D01*
X61259312Y-125723342D01*
X61259915Y-125722294D01*
X61261818Y-125718006D01*
X61274289Y-125693657D01*
X61276558Y-125689478D01*
X61292827Y-125661184D01*
X61292827Y-125661182D01*
X61293733Y-125659607D01*
X61294806Y-125656870D01*
X61306435Y-125631146D01*
X61308505Y-125626849D01*
X61323372Y-125597824D01*
X61323372Y-125597819D01*
X61324196Y-125596211D01*
X61325059Y-125593653D01*
X61335606Y-125566904D01*
X61337483Y-125562468D01*
X61345819Y-125544030D01*
X61350895Y-125532803D01*
X61350895Y-125532800D01*
X61351654Y-125531122D01*
X61352315Y-125528798D01*
X61361712Y-125501023D01*
X61363370Y-125496490D01*
X61375303Y-125466228D01*
X61375302Y-125466223D01*
X61375996Y-125464464D01*
X61376482Y-125462372D01*
X61384659Y-125433577D01*
X61386099Y-125428945D01*
X61396507Y-125398187D01*
X61396506Y-125398184D01*
X61397126Y-125396353D01*
X61397441Y-125394609D01*
X61404337Y-125364723D01*
X61405556Y-125359988D01*
X61414415Y-125328795D01*
X61414415Y-125328792D01*
X61414962Y-125326865D01*
X61415149Y-125325421D01*
X61420663Y-125294541D01*
X61421649Y-125289713D01*
X61428937Y-125258138D01*
X61428936Y-125258135D01*
X61429403Y-125256113D01*
X61429485Y-125255072D01*
X61433546Y-125223109D01*
X61434297Y-125218195D01*
X61440109Y-125185652D01*
X61440365Y-125184215D01*
X61440384Y-125183559D01*
X61442894Y-125150544D01*
X61443396Y-125145592D01*
X61447474Y-125113507D01*
X61447473Y-125113506D01*
X61447694Y-125111776D01*
X61447759Y-125111258D01*
X61447756Y-125111090D01*
X61448617Y-125076981D01*
X61448869Y-125071982D01*
X61451321Y-125039755D01*
X61451319Y-125039751D01*
X61451506Y-125037306D01*
X61451442Y-125034798D01*
X61451444Y-125034795D01*
X61450627Y-125002478D01*
X61450627Y-124997484D01*
X61450627Y-124997483D01*
X61451444Y-124965189D01*
X61451442Y-124965185D01*
X61451506Y-124962680D01*
X176548491Y-124962680D01*
X176549372Y-124997483D01*
X176549372Y-125002488D01*
X176548491Y-125037297D01*
X176551128Y-125071967D01*
X176551381Y-125076971D01*
X176552244Y-125111106D01*
X176552237Y-125111391D01*
X176552305Y-125111775D01*
X176556598Y-125145560D01*
X176557103Y-125150529D01*
X176559618Y-125183586D01*
X176559646Y-125184574D01*
X176559890Y-125185644D01*
X176565702Y-125218194D01*
X176566453Y-125223117D01*
X176570512Y-125255061D01*
X176570640Y-125256692D01*
X176571118Y-125258386D01*
X176578340Y-125289677D01*
X176579334Y-125294535D01*
X176584851Y-125325428D01*
X176584855Y-125325447D01*
X176585139Y-125327649D01*
X176585899Y-125329904D01*
X176594441Y-125359988D01*
X176595670Y-125364763D01*
X176602559Y-125394609D01*
X176603049Y-125397323D01*
X176604124Y-125400058D01*
X176613891Y-125428924D01*
X176615348Y-125433609D01*
X176623527Y-125462410D01*
X176624269Y-125465608D01*
X176625696Y-125468765D01*
X176636617Y-125496465D01*
X176638294Y-125501045D01*
X176647696Y-125528831D01*
X176648712Y-125532397D01*
X176650486Y-125535860D01*
X176662514Y-125562466D01*
X176664404Y-125566935D01*
X176674954Y-125593693D01*
X176676281Y-125597614D01*
X176678415Y-125601317D01*
X176691483Y-125626832D01*
X176693576Y-125631177D01*
X176705186Y-125656857D01*
X176705232Y-125656957D01*
X176706880Y-125661144D01*
X176709404Y-125665067D01*
X176723426Y-125689455D01*
X176725716Y-125693670D01*
X176738472Y-125718575D01*
X176740395Y-125722835D01*
X176740569Y-125723137D01*
X176743373Y-125727049D01*
X176758271Y-125750287D01*
X176760739Y-125754349D01*
X176773685Y-125776865D01*
X176777878Y-125784158D01*
X176780027Y-125786876D01*
X176795923Y-125809231D01*
X176798561Y-125813136D01*
X176813009Y-125835672D01*
X176813390Y-125836266D01*
X176815870Y-125840583D01*
X176816127Y-125840944D01*
X176819441Y-125844747D01*
X176836253Y-125866140D01*
X176839089Y-125869933D01*
X176857757Y-125896185D01*
X176857776Y-125896240D01*
X176857890Y-125896372D01*
X176858044Y-125896588D01*
X176858050Y-125896591D01*
X176859084Y-125898044D01*
X176861630Y-125900688D01*
X176879210Y-125920985D01*
X176882207Y-125924618D01*
X176898999Y-125945986D01*
X176899018Y-125946010D01*
X176902063Y-125949887D01*
X176902091Y-125949958D01*
X176902244Y-125950118D01*
X176903411Y-125951604D01*
X176906034Y-125954095D01*
X176918385Y-125967049D01*
X176924675Y-125973646D01*
X176927851Y-125977140D01*
X176945460Y-125997468D01*
X176948615Y-126001507D01*
X176949234Y-126002155D01*
X176953109Y-126005494D01*
X176972606Y-126024083D01*
X176975942Y-126027419D01*
X176998062Y-126050620D01*
X176998106Y-126050707D01*
X176998331Y-126050902D01*
X176998520Y-126051100D01*
X176998522Y-126051101D01*
X176999758Y-126052396D01*
X177002678Y-126054667D01*
X177022858Y-126072148D01*
X177026315Y-126075290D01*
X177045956Y-126094016D01*
X177049593Y-126097485D01*
X177049638Y-126097564D01*
X177049850Y-126097730D01*
X177051202Y-126099020D01*
X177054107Y-126101077D01*
X177075367Y-126117783D01*
X177079007Y-126120786D01*
X177103362Y-126141884D01*
X177103406Y-126141954D01*
X177103610Y-126142099D01*
X177103752Y-126142222D01*
X177103753Y-126142222D01*
X177105002Y-126143304D01*
X177107949Y-126145185D01*
X177130081Y-126160924D01*
X177133833Y-126163730D01*
X177159285Y-126183731D01*
X177159323Y-126183785D01*
X177159490Y-126183892D01*
X177159574Y-126183958D01*
X177159577Y-126183958D01*
X177160979Y-126185060D01*
X177163984Y-126186773D01*
X177186873Y-126201447D01*
X177190771Y-126204081D01*
X177212929Y-126219839D01*
X177213266Y-126220079D01*
X177215932Y-126222178D01*
X177217309Y-126222969D01*
X177217310Y-126222971D01*
X177245651Y-126239267D01*
X177249688Y-126241720D01*
X177273242Y-126256821D01*
X177277151Y-126259603D01*
X177277233Y-126259650D01*
X177281500Y-126261572D01*
X177306302Y-126274275D01*
X177306312Y-126274280D01*
X177310516Y-126276563D01*
X177334996Y-126290640D01*
X177340322Y-126293702D01*
X177343034Y-126294769D01*
X177351332Y-126298521D01*
X177368805Y-126306421D01*
X177373150Y-126308514D01*
X177384443Y-126314298D01*
X177402167Y-126323376D01*
X177402168Y-126323376D01*
X177403774Y-126324198D01*
X177406337Y-126325065D01*
X177424031Y-126332041D01*
X177433055Y-126335599D01*
X177437503Y-126337479D01*
X177467184Y-126350899D01*
X177467185Y-126350899D01*
X177468858Y-126351655D01*
X177471210Y-126352324D01*
X177498953Y-126361711D01*
X177503519Y-126363382D01*
X177533763Y-126375308D01*
X177533765Y-126375307D01*
X177535531Y-126376004D01*
X177537602Y-126376484D01*
X177542870Y-126377979D01*
X177566405Y-126384663D01*
X177571043Y-126386105D01*
X177601799Y-126396513D01*
X177601801Y-126396512D01*
X177603643Y-126397136D01*
X177605418Y-126397455D01*
X177635263Y-126404344D01*
X177639996Y-126405561D01*
X177671195Y-126414421D01*
X177671196Y-126414420D01*
X177673123Y-126414968D01*
X177674549Y-126415152D01*
X177705439Y-126420668D01*
X177710289Y-126421660D01*
X177720740Y-126424072D01*
X177741847Y-126428944D01*
X177741848Y-126428943D01*
X177743875Y-126429411D01*
X177744933Y-126429494D01*
X177764370Y-126431963D01*
X177776869Y-126433552D01*
X177781778Y-126434301D01*
X177813646Y-126439993D01*
X177813647Y-126439992D01*
X177814354Y-126440119D01*
X177814353Y-126440119D01*
X177815762Y-126440371D01*
X177816435Y-126440390D01*
X177817215Y-126440449D01*
X177817219Y-126440451D01*
X177849468Y-126442903D01*
X177854402Y-126443404D01*
X177886481Y-126447481D01*
X177886481Y-126447480D01*
X177888215Y-126447701D01*
X177888216Y-126447701D01*
X177888727Y-126447765D01*
X177888902Y-126447762D01*
X177890734Y-126447808D01*
X177890736Y-126447809D01*
X177923025Y-126448624D01*
X177928003Y-126448876D01*
X177960234Y-126451328D01*
X177960236Y-126451327D01*
X177962682Y-126451513D01*
X177965189Y-126451449D01*
X177965193Y-126451451D01*
X177997504Y-126450634D01*
X178002488Y-126450634D01*
X178034799Y-126451451D01*
X178034799Y-126451450D01*
X178037299Y-126451514D01*
X178039756Y-126451327D01*
X178039759Y-126451328D01*
X178071984Y-126448876D01*
X178076970Y-126448624D01*
X178109257Y-126447809D01*
X178109257Y-126447808D01*
X178111103Y-126447762D01*
X178111395Y-126447768D01*
X178111785Y-126447700D01*
X178113510Y-126447480D01*
X178113512Y-126447481D01*
X178145597Y-126443403D01*
X178150526Y-126442903D01*
X178182774Y-126440451D01*
X178182774Y-126440450D01*
X178183571Y-126440390D01*
X178184583Y-126440361D01*
X178185654Y-126440117D01*
X178218013Y-126434337D01*
X178218193Y-126434304D01*
X178223091Y-126433555D01*
X178255086Y-126429490D01*
X178256702Y-126429364D01*
X178258405Y-126428884D01*
X178259280Y-126428682D01*
X178289710Y-126421658D01*
X178294496Y-126420678D01*
X178325446Y-126415151D01*
X178327653Y-126414866D01*
X178329914Y-126414105D01*
X178338932Y-126411544D01*
X178360001Y-126405561D01*
X178364762Y-126404335D01*
X178394586Y-126397453D01*
X178397317Y-126396961D01*
X178400064Y-126395880D01*
X178428970Y-126386098D01*
X178433591Y-126384661D01*
X178462392Y-126376483D01*
X178465606Y-126375738D01*
X178468769Y-126374307D01*
X178496493Y-126363375D01*
X178501026Y-126361717D01*
X178528784Y-126352325D01*
X178532396Y-126351297D01*
X178535882Y-126349509D01*
X178562476Y-126337485D01*
X178566911Y-126335610D01*
X178593673Y-126325058D01*
X178597615Y-126323726D01*
X178601374Y-126321558D01*
X178626854Y-126308507D01*
X178631138Y-126306443D01*
X178656924Y-126294785D01*
X178661134Y-126293131D01*
X178665046Y-126290612D01*
X178689496Y-126276553D01*
X178693664Y-126274289D01*
X178718102Y-126261773D01*
X178722374Y-126259873D01*
X178723260Y-126259364D01*
X178727179Y-126256547D01*
X178750289Y-126241730D01*
X178754374Y-126239248D01*
X178782685Y-126222970D01*
X178782685Y-126222968D01*
X178784277Y-126222054D01*
X178787059Y-126219843D01*
X178809230Y-126204076D01*
X178813130Y-126201442D01*
X178836181Y-126186664D01*
X178839285Y-126184886D01*
X178844307Y-126180904D01*
X178844446Y-126180795D01*
X178844499Y-126180775D01*
X178844752Y-126180554D01*
X178866177Y-126163717D01*
X178869927Y-126160914D01*
X178872513Y-126159074D01*
X178891842Y-126145329D01*
X178894987Y-126143334D01*
X178896494Y-126142021D01*
X178896590Y-126141954D01*
X178896610Y-126141919D01*
X178900300Y-126138706D01*
X178900429Y-126138595D01*
X178900460Y-126138582D01*
X178900604Y-126138443D01*
X178920997Y-126120777D01*
X178924627Y-126117784D01*
X178925690Y-126116948D01*
X178945708Y-126101216D01*
X178948739Y-126099081D01*
X178950182Y-126097701D01*
X178950358Y-126097564D01*
X178950394Y-126097498D01*
X178954038Y-126094016D01*
X178954116Y-126093941D01*
X178954131Y-126093934D01*
X178954197Y-126093863D01*
X178973683Y-126075285D01*
X178977140Y-126072145D01*
X178977151Y-126072136D01*
X178997339Y-126054649D01*
X178997473Y-126054533D01*
X179001495Y-126051389D01*
X179002243Y-126050676D01*
X179005569Y-126046806D01*
X179024082Y-126027388D01*
X179027401Y-126024070D01*
X179046809Y-126005565D01*
X179050709Y-126002213D01*
X179051458Y-126001427D01*
X179054616Y-125997375D01*
X179072163Y-125977118D01*
X179075275Y-125973693D01*
X179094052Y-125953997D01*
X179097503Y-125950389D01*
X179097562Y-125950357D01*
X179097684Y-125950199D01*
X179099033Y-125948790D01*
X179101160Y-125945776D01*
X179117813Y-125924585D01*
X179120768Y-125921004D01*
X179138387Y-125900662D01*
X179142120Y-125896783D01*
X179142484Y-125896321D01*
X179145330Y-125891833D01*
X179160928Y-125869899D01*
X179163714Y-125866174D01*
X179180639Y-125844636D01*
X179183765Y-125840680D01*
X179183784Y-125840668D01*
X179183820Y-125840610D01*
X179185135Y-125838947D01*
X179186979Y-125835681D01*
X179201440Y-125813125D01*
X179204083Y-125809212D01*
X179219773Y-125787149D01*
X179222021Y-125784327D01*
X179226314Y-125776860D01*
X179239260Y-125754341D01*
X179241703Y-125750319D01*
X179256496Y-125727246D01*
X179259309Y-125723342D01*
X179259912Y-125722294D01*
X179261815Y-125718006D01*
X179274286Y-125693657D01*
X179276555Y-125689478D01*
X179292824Y-125661184D01*
X179292824Y-125661182D01*
X179293730Y-125659607D01*
X179294803Y-125656870D01*
X179306432Y-125631146D01*
X179308502Y-125626849D01*
X179323369Y-125597824D01*
X179323369Y-125597819D01*
X179324193Y-125596211D01*
X179325056Y-125593653D01*
X179335603Y-125566904D01*
X179337480Y-125562468D01*
X179345816Y-125544030D01*
X179350892Y-125532803D01*
X179350892Y-125532800D01*
X179351651Y-125531122D01*
X179352312Y-125528798D01*
X179361709Y-125501023D01*
X179363372Y-125496477D01*
X179375300Y-125466228D01*
X179375299Y-125466224D01*
X179375992Y-125464469D01*
X179376472Y-125462399D01*
X179384659Y-125433562D01*
X179386087Y-125428972D01*
X179396504Y-125398187D01*
X179396503Y-125398182D01*
X179397123Y-125396351D01*
X179397441Y-125394593D01*
X179404328Y-125364750D01*
X179405552Y-125359988D01*
X179414412Y-125328792D01*
X179414411Y-125328789D01*
X179414957Y-125326869D01*
X179415142Y-125325440D01*
X179420663Y-125294520D01*
X179421650Y-125289700D01*
X179427946Y-125262422D01*
X179428934Y-125258141D01*
X179428933Y-125258139D01*
X179429400Y-125256118D01*
X179429485Y-125255037D01*
X179433541Y-125223112D01*
X179434291Y-125218202D01*
X179434292Y-125218195D01*
X179439982Y-125186338D01*
X179439981Y-125186337D01*
X179440102Y-125185664D01*
X179440102Y-125185662D01*
X179440361Y-125184208D01*
X179440379Y-125183587D01*
X179440441Y-125182767D01*
X179440442Y-125182766D01*
X179442892Y-125150528D01*
X179443397Y-125145563D01*
X179443397Y-125145560D01*
X179447471Y-125113510D01*
X179447470Y-125113508D01*
X179447693Y-125111759D01*
X179447754Y-125111269D01*
X179447751Y-125111102D01*
X179448613Y-125076980D01*
X179448614Y-125076971D01*
X179448613Y-125076963D01*
X179448866Y-125071979D01*
X179451317Y-125039752D01*
X179451316Y-125039751D01*
X179451503Y-125037302D01*
X179450623Y-125002488D01*
X179450623Y-124997483D01*
X179451440Y-124965189D01*
X179451438Y-124965185D01*
X179451502Y-124962682D01*
X179451315Y-124960235D01*
X179451317Y-124960232D01*
X179448865Y-124927993D01*
X179448613Y-124923018D01*
X179447798Y-124890731D01*
X179447797Y-124890730D01*
X179447751Y-124888884D01*
X179447757Y-124888593D01*
X179447693Y-124888226D01*
X179447470Y-124886475D01*
X179447471Y-124886474D01*
X179443397Y-124854417D01*
X179442892Y-124849444D01*
X179442892Y-124849439D01*
X179440442Y-124817218D01*
X179440441Y-124817217D01*
X179440380Y-124816408D01*
X179440352Y-124815420D01*
X179440104Y-124814333D01*
X179439981Y-124813647D01*
X179439982Y-124813646D01*
X179434284Y-124781746D01*
X179433547Y-124776920D01*
X179429483Y-124744928D01*
X179429354Y-124743291D01*
X179428879Y-124741604D01*
X179421645Y-124710264D01*
X179420661Y-124705451D01*
X179415141Y-124674541D01*
X179414858Y-124672340D01*
X179414094Y-124670073D01*
X179405558Y-124640015D01*
X179404328Y-124635233D01*
X179397443Y-124605401D01*
X179396951Y-124602673D01*
X179395868Y-124599918D01*
X179386107Y-124571070D01*
X179386105Y-124571065D01*
X179386101Y-124571051D01*
X179384649Y-124566383D01*
X179376474Y-124537593D01*
X179375731Y-124534387D01*
X179374301Y-124531222D01*
X179363375Y-124503511D01*
X179361710Y-124498963D01*
X179352310Y-124471180D01*
X179351292Y-124467601D01*
X179349511Y-124464128D01*
X179337470Y-124437493D01*
X179335595Y-124433057D01*
X179325064Y-124406347D01*
X179323729Y-124402397D01*
X179321581Y-124398670D01*
X179308507Y-124373142D01*
X179306425Y-124368820D01*
X179294798Y-124343101D01*
X179293143Y-124338884D01*
X179290597Y-124334928D01*
X179276548Y-124310493D01*
X179274293Y-124306341D01*
X179261774Y-124281897D01*
X179259870Y-124277618D01*
X179259451Y-124276890D01*
X179256655Y-124272984D01*
X179241720Y-124249689D01*
X179239243Y-124245611D01*
X179222150Y-124215881D01*
X179220024Y-124213187D01*
X179204083Y-124190769D01*
X179201438Y-124186853D01*
X179186966Y-124164280D01*
X179185192Y-124161142D01*
X179183955Y-124159568D01*
X179183955Y-124159565D01*
X179183893Y-124159486D01*
X179183784Y-124159316D01*
X179183729Y-124159278D01*
X179163734Y-124133834D01*
X179160899Y-124130042D01*
X179145320Y-124108135D01*
X179143372Y-124105065D01*
X179142073Y-124103568D01*
X179141952Y-124103397D01*
X179141892Y-124103360D01*
X179138551Y-124099508D01*
X179138547Y-124099499D01*
X179138503Y-124099453D01*
X179120794Y-124079008D01*
X179117796Y-124075376D01*
X179101139Y-124054179D01*
X179099054Y-124051228D01*
X179097724Y-124049834D01*
X179097562Y-124049627D01*
X179097485Y-124049583D01*
X179094011Y-124045941D01*
X179094009Y-124045937D01*
X179093993Y-124045922D01*
X179075317Y-124026333D01*
X179072139Y-124022837D01*
X179064626Y-124014164D01*
X179054582Y-124002568D01*
X179052345Y-123999699D01*
X179051102Y-123998513D01*
X179051100Y-123998508D01*
X179050898Y-123998315D01*
X179050708Y-123998096D01*
X179050623Y-123998053D01*
X179027387Y-123975899D01*
X179024072Y-123972583D01*
X179005537Y-123953141D01*
X179003176Y-123950397D01*
X179001894Y-123949285D01*
X179001891Y-123949278D01*
X179001670Y-123949086D01*
X179001476Y-123948883D01*
X179001392Y-123948845D01*
X178977137Y-123927835D01*
X178973642Y-123924658D01*
X178954168Y-123906091D01*
X178951657Y-123903442D01*
X178950359Y-123902421D01*
X178950358Y-123902420D01*
X178950129Y-123902240D01*
X178949958Y-123902077D01*
X178949886Y-123902049D01*
X178929981Y-123886406D01*
X178924626Y-123882198D01*
X178920981Y-123879190D01*
X178904091Y-123864559D01*
X178900557Y-123861498D01*
X178897940Y-123858988D01*
X178896371Y-123857873D01*
X178896246Y-123857764D01*
X178896193Y-123857746D01*
X178892085Y-123854826D01*
X178892082Y-123854823D01*
X178892067Y-123854813D01*
X178869929Y-123839070D01*
X178866132Y-123836230D01*
X178844693Y-123819382D01*
X178842042Y-123817076D01*
X178840501Y-123816088D01*
X178840421Y-123816025D01*
X178840388Y-123816015D01*
X178836428Y-123813476D01*
X178813157Y-123798557D01*
X178809215Y-123795894D01*
X178786763Y-123779928D01*
X178784094Y-123777824D01*
X178774900Y-123772538D01*
X178754369Y-123760732D01*
X178750302Y-123758261D01*
X178739090Y-123751073D01*
X178726976Y-123743307D01*
X178723059Y-123740504D01*
X178722839Y-123740378D01*
X178718589Y-123738459D01*
X178693709Y-123725716D01*
X178693683Y-123725702D01*
X178689487Y-123723424D01*
X178664997Y-123709342D01*
X178659714Y-123706304D01*
X178657024Y-123705243D01*
X178631169Y-123693553D01*
X178626824Y-123691460D01*
X178601343Y-123678409D01*
X178601343Y-123678408D01*
X178596251Y-123675800D01*
X178593735Y-123674948D01*
X178566928Y-123664379D01*
X178562455Y-123662487D01*
X178535876Y-123650470D01*
X178535876Y-123650471D01*
X178535873Y-123650470D01*
X178531153Y-123648336D01*
X178528839Y-123647677D01*
X178501031Y-123638267D01*
X178496450Y-123636590D01*
X178468770Y-123625676D01*
X178468769Y-123625676D01*
X178468766Y-123625675D01*
X178468226Y-123625461D01*
X178464487Y-123623987D01*
X178462416Y-123623507D01*
X178433626Y-123615331D01*
X178428940Y-123613874D01*
X178400072Y-123604106D01*
X178400068Y-123604105D01*
X178396358Y-123602849D01*
X178394593Y-123602531D01*
X178364773Y-123595649D01*
X178359991Y-123594419D01*
X178329901Y-123585873D01*
X178329901Y-123585874D01*
X178326888Y-123585018D01*
X178325446Y-123584832D01*
X178294535Y-123579311D01*
X178289678Y-123578317D01*
X178258391Y-123571096D01*
X178256131Y-123570574D01*
X178255085Y-123570492D01*
X178223126Y-123566431D01*
X178218200Y-123565679D01*
X178185656Y-123559866D01*
X178185656Y-123559867D01*
X178184229Y-123559612D01*
X178183580Y-123559594D01*
X178150535Y-123557080D01*
X178145565Y-123556575D01*
X178111773Y-123552281D01*
X178111772Y-123552281D01*
X178111271Y-123552217D01*
X178111112Y-123552221D01*
X178076975Y-123551358D01*
X178071970Y-123551105D01*
X178037309Y-123548469D01*
X178002494Y-123549348D01*
X177997498Y-123549348D01*
X177962680Y-123548469D01*
X177928023Y-123551105D01*
X177923017Y-123551358D01*
X177888882Y-123552221D01*
X177888600Y-123552214D01*
X177888223Y-123552281D01*
X177854427Y-123556575D01*
X177849460Y-123557080D01*
X177820964Y-123559248D01*
X177817219Y-123559533D01*
X177817218Y-123559533D01*
X177816418Y-123559594D01*
X177815415Y-123559622D01*
X177814360Y-123559863D01*
X177781795Y-123565679D01*
X177776869Y-123566431D01*
X177744926Y-123570490D01*
X177743297Y-123570618D01*
X177741598Y-123571097D01*
X177725564Y-123574797D01*
X177710293Y-123578322D01*
X177705449Y-123579313D01*
X177674541Y-123584833D01*
X177672343Y-123585117D01*
X177670086Y-123585877D01*
X177640018Y-123594415D01*
X177635242Y-123595643D01*
X177605406Y-123602530D01*
X177602681Y-123603021D01*
X177599935Y-123604101D01*
X177571064Y-123613870D01*
X177566378Y-123615327D01*
X177537567Y-123623509D01*
X177534389Y-123624246D01*
X177531227Y-123625675D01*
X177503518Y-123636600D01*
X177498938Y-123638277D01*
X177471168Y-123647674D01*
X177467602Y-123648690D01*
X177464170Y-123650447D01*
X177437528Y-123662492D01*
X177433058Y-123664382D01*
X177406276Y-123674942D01*
X177402395Y-123676256D01*
X177398707Y-123678379D01*
X177376297Y-123689857D01*
X177373169Y-123691460D01*
X177373159Y-123691465D01*
X177368809Y-123693560D01*
X177342912Y-123705268D01*
X177338863Y-123706868D01*
X177335066Y-123709303D01*
X177310518Y-123723418D01*
X177306312Y-123725702D01*
X177281019Y-123738658D01*
X177281015Y-123738660D01*
X177275970Y-123741243D01*
X177273432Y-123743040D01*
X177249695Y-123758257D01*
X177245616Y-123760736D01*
X177216094Y-123777711D01*
X177213539Y-123779709D01*
X177190785Y-123795891D01*
X177186839Y-123798557D01*
X177163567Y-123813476D01*
X177159835Y-123815629D01*
X177158817Y-123816350D01*
X177155467Y-123819252D01*
X177133863Y-123836230D01*
X177130064Y-123839070D01*
X177107716Y-123854962D01*
X177103868Y-123857433D01*
X177102930Y-123858169D01*
X177099561Y-123861391D01*
X177079020Y-123879185D01*
X177075368Y-123882199D01*
X177053929Y-123899046D01*
X177053532Y-123899357D01*
X177050107Y-123902050D01*
X177050035Y-123902079D01*
X177049861Y-123902244D01*
X177049638Y-123902420D01*
X177049633Y-123902428D01*
X177048407Y-123903394D01*
X177045987Y-123905937D01*
X177026345Y-123924665D01*
X177022847Y-123927843D01*
X177002536Y-123945437D01*
X176998821Y-123948339D01*
X176997677Y-123949429D01*
X176994582Y-123953012D01*
X176975944Y-123972561D01*
X176972606Y-123975899D01*
X176953025Y-123994567D01*
X176953026Y-123994568D01*
X176951963Y-123995581D01*
X176949372Y-123998053D01*
X176949288Y-123998096D01*
X176949097Y-123998316D01*
X176948894Y-123998510D01*
X176948892Y-123998513D01*
X176947706Y-123999646D01*
X176945496Y-124002472D01*
X176927852Y-124022841D01*
X176924675Y-124026336D01*
X176905965Y-124045959D01*
X176905966Y-124045960D01*
X176905811Y-124046122D01*
X176902512Y-124049583D01*
X176902434Y-124049628D01*
X176902263Y-124049845D01*
X176902091Y-124050026D01*
X176902088Y-124050032D01*
X176901029Y-124051145D01*
X176899029Y-124053959D01*
X176882208Y-124075364D01*
X176879199Y-124079009D01*
X176861512Y-124099429D01*
X176858318Y-124102759D01*
X176857404Y-124103925D01*
X176854974Y-124107710D01*
X176839095Y-124130041D01*
X176836255Y-124133839D01*
X176819485Y-124155180D01*
X176816264Y-124159279D01*
X176816212Y-124159316D01*
X176816107Y-124159479D01*
X176816040Y-124159565D01*
X176816032Y-124159589D01*
X176815033Y-124160867D01*
X176813421Y-124163669D01*
X176798574Y-124186828D01*
X176795911Y-124190769D01*
X176779769Y-124213469D01*
X176777752Y-124216043D01*
X176760743Y-124245625D01*
X176758264Y-124249705D01*
X176743216Y-124273178D01*
X176740437Y-124277080D01*
X176738520Y-124281314D01*
X176725716Y-124306313D01*
X176723426Y-124310529D01*
X176709360Y-124334993D01*
X176706300Y-124340314D01*
X176705238Y-124343011D01*
X176693565Y-124368829D01*
X176691472Y-124373174D01*
X176678395Y-124398706D01*
X176675817Y-124403738D01*
X176674956Y-124406283D01*
X176664402Y-124433048D01*
X176662515Y-124437511D01*
X176650475Y-124464146D01*
X176650472Y-124464153D01*
X176648356Y-124468831D01*
X176647696Y-124471150D01*
X176638288Y-124498952D01*
X176636616Y-124503522D01*
X176625685Y-124531245D01*
X176625685Y-124531247D01*
X176624006Y-124535503D01*
X176623524Y-124537582D01*
X176615343Y-124566386D01*
X176613888Y-124571065D01*
X176604117Y-124599946D01*
X176604116Y-124599949D01*
X176602876Y-124603612D01*
X176602556Y-124605387D01*
X176595667Y-124635229D01*
X176594439Y-124640004D01*
X176585895Y-124670089D01*
X176585896Y-124670090D01*
X176585039Y-124673106D01*
X176584854Y-124674541D01*
X176579336Y-124705434D01*
X176578343Y-124710285D01*
X176571116Y-124741605D01*
X176571115Y-124741611D01*
X176570596Y-124743859D01*
X176570512Y-124744928D01*
X176566453Y-124776867D01*
X176565702Y-124781787D01*
X176559887Y-124814356D01*
X176559635Y-124815765D01*
X176559617Y-124816408D01*
X176557103Y-124849454D01*
X176556598Y-124854424D01*
X176552303Y-124888218D01*
X176552304Y-124888219D01*
X176552240Y-124888720D01*
X176552244Y-124888889D01*
X176551381Y-124923012D01*
X176551128Y-124928017D01*
X176548491Y-124962680D01*
X61451506Y-124962680D01*
X61451506Y-124962678D01*
X61451319Y-124960232D01*
X61451321Y-124960229D01*
X61448869Y-124928000D01*
X61448617Y-124923020D01*
X61447802Y-124890731D01*
X61447801Y-124890728D01*
X61447755Y-124888897D01*
X61447761Y-124888595D01*
X61447694Y-124888210D01*
X61447474Y-124886477D01*
X61443397Y-124854402D01*
X61442894Y-124849439D01*
X61442169Y-124839910D01*
X61440444Y-124817215D01*
X61440443Y-124817214D01*
X61440384Y-124816430D01*
X61440355Y-124815413D01*
X61440110Y-124814339D01*
X61435452Y-124788258D01*
X61434295Y-124781781D01*
X61433547Y-124776884D01*
X61429485Y-124744912D01*
X61429358Y-124743293D01*
X61428877Y-124741586D01*
X61421657Y-124710302D01*
X61420667Y-124705469D01*
X61415144Y-124674539D01*
X61414860Y-124672338D01*
X61414103Y-124670090D01*
X61405557Y-124639999D01*
X61404337Y-124635258D01*
X61397439Y-124605369D01*
X61396954Y-124602671D01*
X61395870Y-124599915D01*
X61393042Y-124591556D01*
X61386100Y-124571041D01*
X61384648Y-124566366D01*
X61376482Y-124537610D01*
X61375736Y-124534390D01*
X61374305Y-124531226D01*
X61363373Y-124503498D01*
X61361713Y-124498963D01*
X61352313Y-124471180D01*
X61351295Y-124467601D01*
X61349514Y-124464128D01*
X61337473Y-124437493D01*
X61335598Y-124433057D01*
X61325067Y-124406347D01*
X61323732Y-124402397D01*
X61321584Y-124398670D01*
X61308510Y-124373142D01*
X61306428Y-124368820D01*
X61294801Y-124343101D01*
X61293146Y-124338884D01*
X61290600Y-124334928D01*
X61276551Y-124310493D01*
X61274296Y-124306341D01*
X61261777Y-124281897D01*
X61259873Y-124277618D01*
X61259454Y-124276890D01*
X61256658Y-124272984D01*
X61241723Y-124249689D01*
X61239246Y-124245611D01*
X61222153Y-124215881D01*
X61220027Y-124213187D01*
X61204086Y-124190769D01*
X61201441Y-124186853D01*
X61186969Y-124164280D01*
X61185195Y-124161142D01*
X61183958Y-124159568D01*
X61183958Y-124159565D01*
X61183896Y-124159486D01*
X61183787Y-124159316D01*
X61183732Y-124159278D01*
X61163737Y-124133834D01*
X61160902Y-124130042D01*
X61145323Y-124108135D01*
X61143375Y-124105065D01*
X61142076Y-124103568D01*
X61141955Y-124103397D01*
X61141895Y-124103360D01*
X61138554Y-124099508D01*
X61138550Y-124099499D01*
X61138506Y-124099453D01*
X61120797Y-124079008D01*
X61117799Y-124075376D01*
X61101142Y-124054179D01*
X61099057Y-124051228D01*
X61097727Y-124049834D01*
X61097565Y-124049627D01*
X61097488Y-124049583D01*
X61094014Y-124045941D01*
X61094012Y-124045937D01*
X61093996Y-124045922D01*
X61075320Y-124026333D01*
X61072142Y-124022837D01*
X61064629Y-124014164D01*
X61054585Y-124002568D01*
X61052348Y-123999699D01*
X61051105Y-123998513D01*
X61051103Y-123998508D01*
X61050901Y-123998315D01*
X61050711Y-123998096D01*
X61050626Y-123998053D01*
X61027390Y-123975899D01*
X61024075Y-123972583D01*
X61005500Y-123953099D01*
X61002205Y-123949274D01*
X61001477Y-123948580D01*
X60997485Y-123945459D01*
X60977151Y-123927845D01*
X60973662Y-123924673D01*
X60954143Y-123906064D01*
X60954129Y-123906051D01*
X60954009Y-123905937D01*
X60952988Y-123904963D01*
X60950403Y-123902497D01*
X60950360Y-123902420D01*
X60950145Y-123902251D01*
X60948823Y-123900990D01*
X60945932Y-123898940D01*
X60924620Y-123882192D01*
X60920972Y-123879181D01*
X60900676Y-123861600D01*
X60897309Y-123858360D01*
X60895940Y-123857285D01*
X60892076Y-123854818D01*
X60869931Y-123839070D01*
X60866134Y-123836230D01*
X60844695Y-123819382D01*
X60843816Y-123818691D01*
X60840706Y-123816244D01*
X60840673Y-123816197D01*
X60840526Y-123816103D01*
X60839357Y-123815183D01*
X60836597Y-123813583D01*
X60813159Y-123798557D01*
X60809217Y-123795894D01*
X60786765Y-123779928D01*
X60784096Y-123777824D01*
X60774902Y-123772538D01*
X60754371Y-123760732D01*
X60750304Y-123758261D01*
X60741757Y-123752782D01*
X60722807Y-123740633D01*
X60722806Y-123740632D01*
X60722726Y-123740581D01*
X60722721Y-123740575D01*
X60722697Y-123740562D01*
X60721381Y-123739719D01*
X60718589Y-123738458D01*
X60706999Y-123732522D01*
X60693686Y-123725703D01*
X60689490Y-123723424D01*
X60664997Y-123709341D01*
X60664994Y-123709340D01*
X60661193Y-123707154D01*
X60659721Y-123706307D01*
X60657055Y-123705255D01*
X60643280Y-123699027D01*
X60631170Y-123693552D01*
X60626828Y-123691460D01*
X60601344Y-123678408D01*
X60597830Y-123676608D01*
X60596253Y-123675800D01*
X60593718Y-123674942D01*
X60566923Y-123664376D01*
X60562468Y-123662492D01*
X60535864Y-123650465D01*
X60535858Y-123650462D01*
X60531161Y-123648338D01*
X60528833Y-123647675D01*
X60501055Y-123638275D01*
X60496476Y-123636599D01*
X60468774Y-123625676D01*
X60468774Y-123625677D01*
X60464487Y-123623986D01*
X60462415Y-123623506D01*
X60433635Y-123615333D01*
X60428947Y-123613875D01*
X60400077Y-123604105D01*
X60400077Y-123604106D01*
X60396373Y-123602852D01*
X60394599Y-123602533D01*
X60364774Y-123595649D01*
X60359994Y-123594419D01*
X60329904Y-123585873D01*
X60329904Y-123585874D01*
X60326891Y-123585018D01*
X60325449Y-123584832D01*
X60294538Y-123579311D01*
X60289681Y-123578317D01*
X60258394Y-123571096D01*
X60256134Y-123570574D01*
X60255088Y-123570492D01*
X60223129Y-123566431D01*
X60218203Y-123565679D01*
X60185659Y-123559866D01*
X60185659Y-123559867D01*
X60184232Y-123559612D01*
X60183583Y-123559594D01*
X60150538Y-123557080D01*
X60145569Y-123556575D01*
X60111783Y-123552282D01*
X60111783Y-123552281D01*
X60111275Y-123552217D01*
X60111114Y-123552221D01*
X60076979Y-123551358D01*
X60071974Y-123551105D01*
X60037306Y-123548468D01*
X60002499Y-123549348D01*
X59997501Y-123549348D01*
X59962685Y-123548469D01*
X59928024Y-123551105D01*
X59923020Y-123551358D01*
X59888897Y-123552221D01*
X59888605Y-123552214D01*
X59888232Y-123552280D01*
X59854433Y-123556575D01*
X59849464Y-123557080D01*
X59820968Y-123559248D01*
X59817223Y-123559533D01*
X59817222Y-123559533D01*
X59816422Y-123559594D01*
X59815419Y-123559622D01*
X59814364Y-123559863D01*
X59781799Y-123565679D01*
X59776873Y-123566431D01*
X59744908Y-123570493D01*
X59743300Y-123570619D01*
X59741609Y-123571096D01*
X59710304Y-123578320D01*
X59705450Y-123579313D01*
X59674538Y-123584834D01*
X59672349Y-123585117D01*
X59670090Y-123585877D01*
X59661517Y-123588311D01*
X59640022Y-123594415D01*
X59635247Y-123595643D01*
X59605404Y-123602531D01*
X59602682Y-123603022D01*
X59599940Y-123604100D01*
X59571066Y-123613870D01*
X59566381Y-123615327D01*
X59537574Y-123623508D01*
X59534393Y-123624246D01*
X59531236Y-123625672D01*
X59503516Y-123636601D01*
X59498938Y-123638277D01*
X59471166Y-123647675D01*
X59467609Y-123648688D01*
X59464164Y-123650452D01*
X59437532Y-123662492D01*
X59433083Y-123664373D01*
X59418896Y-123669967D01*
X59406281Y-123674942D01*
X59402395Y-123676258D01*
X59398705Y-123678382D01*
X59373162Y-123691464D01*
X59368817Y-123693557D01*
X59342909Y-123705270D01*
X59338865Y-123706868D01*
X59335071Y-123709301D01*
X59310522Y-123723417D01*
X59306312Y-123725704D01*
X59306290Y-123725716D01*
X59281415Y-123738456D01*
X59277149Y-123740382D01*
X59277112Y-123740403D01*
X59273188Y-123743199D01*
X59249702Y-123758256D01*
X59245619Y-123760736D01*
X59216054Y-123777736D01*
X59213479Y-123779753D01*
X59190786Y-123795891D01*
X59186842Y-123798555D01*
X59163830Y-123813308D01*
X59160134Y-123815424D01*
X59158617Y-123816499D01*
X59155295Y-123819389D01*
X59133860Y-123836233D01*
X59130065Y-123839071D01*
X59107835Y-123854878D01*
X59107836Y-123854879D01*
X59107720Y-123854962D01*
X59103811Y-123857742D01*
X59103754Y-123857762D01*
X59103612Y-123857884D01*
X59103408Y-123858030D01*
X59103399Y-123858043D01*
X59102079Y-123858985D01*
X59099562Y-123861392D01*
X59079018Y-123879188D01*
X59075369Y-123882199D01*
X59075368Y-123882200D01*
X59054025Y-123898972D01*
X59050154Y-123901720D01*
X59049290Y-123902468D01*
X59045991Y-123905934D01*
X59026326Y-123924682D01*
X59022834Y-123927856D01*
X59002486Y-123945483D01*
X58998635Y-123948496D01*
X58997826Y-123949267D01*
X58994624Y-123952969D01*
X58991765Y-123955969D01*
X58975934Y-123972574D01*
X58972595Y-123975912D01*
X58953027Y-123994568D01*
X58949483Y-123997629D01*
X58948410Y-123998755D01*
X58945535Y-124002427D01*
X58927853Y-124022841D01*
X58924680Y-124026333D01*
X58905968Y-124045960D01*
X58905918Y-124046012D01*
X58905917Y-124046011D01*
X58904928Y-124047049D01*
X58902513Y-124049583D01*
X58902435Y-124049628D01*
X58902264Y-124049845D01*
X58902092Y-124050026D01*
X58902089Y-124050031D01*
X58901030Y-124051145D01*
X58899030Y-124053959D01*
X58882209Y-124075364D01*
X58879200Y-124079009D01*
X58861513Y-124099429D01*
X58858319Y-124102759D01*
X58857405Y-124103925D01*
X58854975Y-124107710D01*
X58839096Y-124130041D01*
X58836256Y-124133839D01*
X58819486Y-124155180D01*
X58816265Y-124159279D01*
X58816213Y-124159316D01*
X58816108Y-124159479D01*
X58816041Y-124159565D01*
X58816033Y-124159589D01*
X58815034Y-124160867D01*
X58813422Y-124163669D01*
X58798575Y-124186828D01*
X58795912Y-124190769D01*
X58779770Y-124213469D01*
X58777753Y-124216043D01*
X58760744Y-124245625D01*
X58758265Y-124249705D01*
X58743217Y-124273178D01*
X58740438Y-124277080D01*
X58738521Y-124281314D01*
X58725717Y-124306313D01*
X58723427Y-124310529D01*
X58709361Y-124334993D01*
X58706301Y-124340314D01*
X58705239Y-124343011D01*
X58693566Y-124368829D01*
X58691473Y-124373174D01*
X58678396Y-124398706D01*
X58675818Y-124403738D01*
X58674957Y-124406283D01*
X58664403Y-124433048D01*
X58662516Y-124437511D01*
X58650476Y-124464146D01*
X58650473Y-124464153D01*
X58648357Y-124468831D01*
X58647697Y-124471150D01*
X58638289Y-124498952D01*
X58636612Y-124503533D01*
X58625685Y-124531244D01*
X58625686Y-124531245D01*
X58624010Y-124535495D01*
X58623526Y-124537581D01*
X58615343Y-124566393D01*
X58613887Y-124571073D01*
X58604119Y-124599944D01*
X58604118Y-124599949D01*
X58602875Y-124603619D01*
X58602560Y-124605370D01*
X58595673Y-124635208D01*
X58594444Y-124639985D01*
X58585891Y-124670106D01*
X58585888Y-124670116D01*
X58585041Y-124673094D01*
X58584854Y-124674545D01*
X58579334Y-124705451D01*
X58578342Y-124710302D01*
X58571123Y-124741587D01*
X58571122Y-124741591D01*
X58570596Y-124743867D01*
X58570515Y-124744903D01*
X58566453Y-124776863D01*
X58565702Y-124781782D01*
X58559887Y-124814351D01*
X58559885Y-124814359D01*
X58559634Y-124815763D01*
X58559616Y-124816403D01*
X58557103Y-124849444D01*
X58556599Y-124854412D01*
X58552303Y-124888230D01*
X58552302Y-124888229D01*
X58552240Y-124888713D01*
X58552245Y-124888898D01*
X58551383Y-124923000D01*
X58551130Y-124928004D01*
X58548492Y-124962697D01*
X57700500Y-124962697D01*
X57700500Y-116000001D01*
X62500000Y-116000001D01*
X62500000Y-116000002D01*
X62999999Y-118499999D01*
X63000001Y-118500003D01*
X63833332Y-119958332D01*
X64000000Y-120250000D01*
X66500000Y-122000000D01*
X66500005Y-122000001D01*
X68999997Y-122500000D01*
X69000000Y-122500000D01*
X69000003Y-122500000D01*
X70874996Y-122125000D01*
X71500000Y-122000000D01*
X74000000Y-120250000D01*
X75000000Y-118500000D01*
X75500000Y-116000001D01*
X162500000Y-116000001D01*
X162500000Y-116000002D01*
X162999999Y-118499999D01*
X163000001Y-118500003D01*
X163833332Y-119958332D01*
X164000000Y-120250000D01*
X166500000Y-122000000D01*
X166500005Y-122000001D01*
X168999997Y-122500000D01*
X169000000Y-122500000D01*
X169000003Y-122500000D01*
X170874996Y-122125000D01*
X171500000Y-122000000D01*
X174000000Y-120250000D01*
X175000000Y-118500000D01*
X175500000Y-116000000D01*
X175250000Y-114250000D01*
X174250000Y-112000000D01*
X171750000Y-110000000D01*
X171749998Y-109999999D01*
X168999998Y-109499999D01*
X168999997Y-109500000D01*
X166500000Y-109999999D01*
X166499996Y-110000001D01*
X164749998Y-111000001D01*
X163000000Y-113249999D01*
X162500000Y-116000001D01*
X75500000Y-116000001D01*
X75500000Y-116000000D01*
X75250000Y-114250000D01*
X74250000Y-112000000D01*
X71750000Y-110000000D01*
X71749998Y-109999999D01*
X68999998Y-109499999D01*
X68999997Y-109500000D01*
X66500000Y-109999999D01*
X66499996Y-110000001D01*
X64749998Y-111000001D01*
X63000000Y-113249999D01*
X62500000Y-116000001D01*
X57700500Y-116000001D01*
X57700500Y-78293971D01*
X72853323Y-78293971D01*
X72853323Y-78293976D01*
X72886712Y-78406129D01*
X72886717Y-78406139D01*
X72910795Y-78439862D01*
X72929221Y-78498207D01*
X72909833Y-78556239D01*
X72908352Y-78558192D01*
X72900698Y-78568026D01*
X72858159Y-78677045D01*
X72853323Y-78793971D01*
X72853323Y-78793976D01*
X72886712Y-78906129D01*
X72886715Y-78906135D01*
X72954716Y-79001375D01*
X73133337Y-79179997D01*
X73161114Y-79234513D01*
X73151543Y-79294945D01*
X73133337Y-79320003D01*
X72954724Y-79498616D01*
X72954709Y-79498633D01*
X72900698Y-79568025D01*
X72858159Y-79677045D01*
X72853323Y-79793971D01*
X72853323Y-79793976D01*
X72886712Y-79906129D01*
X72886717Y-79906139D01*
X72910795Y-79939862D01*
X72929221Y-79998207D01*
X72909833Y-80056239D01*
X72908352Y-80058192D01*
X72900698Y-80068026D01*
X72858159Y-80177045D01*
X72853323Y-80293971D01*
X72853323Y-80293976D01*
X72886712Y-80406129D01*
X72886715Y-80406135D01*
X72954716Y-80501375D01*
X73133337Y-80679997D01*
X73161114Y-80734513D01*
X73151543Y-80794945D01*
X73133337Y-80820003D01*
X72954724Y-80998616D01*
X72954709Y-80998633D01*
X72900698Y-81068025D01*
X72858159Y-81177045D01*
X72853323Y-81293971D01*
X72853323Y-81293976D01*
X72886712Y-81406129D01*
X72886717Y-81406139D01*
X72910795Y-81439862D01*
X72929221Y-81498207D01*
X72909833Y-81556239D01*
X72908352Y-81558192D01*
X72900698Y-81568026D01*
X72858159Y-81677045D01*
X72853323Y-81793971D01*
X72853323Y-81793976D01*
X72886712Y-81906129D01*
X72886715Y-81906135D01*
X72905165Y-81931975D01*
X72954717Y-82001376D01*
X73204717Y-82251376D01*
X73274118Y-82305394D01*
X73383139Y-82347934D01*
X73500066Y-82352770D01*
X73612227Y-82319378D01*
X73645955Y-82295295D01*
X73704296Y-82276870D01*
X73762329Y-82296257D01*
X73764285Y-82297740D01*
X73774118Y-82305394D01*
X73883139Y-82347934D01*
X74000066Y-82352770D01*
X74000069Y-82352769D01*
X74112222Y-82319380D01*
X74112224Y-82319378D01*
X74112227Y-82319378D01*
X74207469Y-82251376D01*
X74386091Y-82072753D01*
X74440606Y-82044978D01*
X74501038Y-82054549D01*
X74526093Y-82072752D01*
X74704717Y-82251376D01*
X74774118Y-82305394D01*
X74883139Y-82347934D01*
X75000066Y-82352770D01*
X75112227Y-82319378D01*
X75145955Y-82295295D01*
X75204296Y-82276870D01*
X75262329Y-82296257D01*
X75264285Y-82297740D01*
X75274118Y-82305394D01*
X75383139Y-82347934D01*
X75500066Y-82352770D01*
X75500069Y-82352769D01*
X75612222Y-82319380D01*
X75612224Y-82319378D01*
X75612227Y-82319378D01*
X75707469Y-82251376D01*
X75886091Y-82072753D01*
X75940606Y-82044978D01*
X76001038Y-82054549D01*
X76026093Y-82072752D01*
X76204717Y-82251376D01*
X76274118Y-82305394D01*
X76383139Y-82347934D01*
X76500066Y-82352770D01*
X76612227Y-82319378D01*
X76645955Y-82295295D01*
X76704296Y-82276870D01*
X76762329Y-82296257D01*
X76764285Y-82297740D01*
X76774118Y-82305394D01*
X76883139Y-82347934D01*
X77000066Y-82352770D01*
X77000069Y-82352769D01*
X77112222Y-82319380D01*
X77112224Y-82319378D01*
X77112227Y-82319378D01*
X77207469Y-82251376D01*
X77386091Y-82072753D01*
X77440606Y-82044978D01*
X77501038Y-82054549D01*
X77526093Y-82072752D01*
X77704717Y-82251376D01*
X77774118Y-82305394D01*
X77883139Y-82347934D01*
X78000066Y-82352770D01*
X78112227Y-82319378D01*
X78145955Y-82295295D01*
X78204296Y-82276870D01*
X78262329Y-82296257D01*
X78264285Y-82297740D01*
X78274118Y-82305394D01*
X78383139Y-82347934D01*
X78500066Y-82352770D01*
X78500069Y-82352769D01*
X78612222Y-82319380D01*
X78612224Y-82319378D01*
X78612227Y-82319378D01*
X78707469Y-82251376D01*
X78957469Y-82001376D01*
X79011487Y-81931975D01*
X79054027Y-81822954D01*
X79058863Y-81706027D01*
X79025471Y-81593866D01*
X79025469Y-81593863D01*
X79001390Y-81560138D01*
X78982964Y-81501793D01*
X79002352Y-81443760D01*
X79003840Y-81441799D01*
X79005348Y-81439862D01*
X79011487Y-81431975D01*
X79054027Y-81322954D01*
X79058863Y-81206027D01*
X79050235Y-81177045D01*
X79025473Y-81093870D01*
X79025470Y-81093864D01*
X78957471Y-80998627D01*
X78957469Y-80998624D01*
X78707469Y-80748624D01*
X78651493Y-80705055D01*
X78638067Y-80694605D01*
X78529047Y-80652066D01*
X78412121Y-80647230D01*
X78412116Y-80647230D01*
X78299962Y-80680620D01*
X78266230Y-80704704D01*
X78207885Y-80723129D01*
X78149852Y-80703740D01*
X78147895Y-80702255D01*
X78138067Y-80694605D01*
X78029047Y-80652066D01*
X77912121Y-80647230D01*
X77912116Y-80647230D01*
X77799963Y-80680619D01*
X77799957Y-80680622D01*
X77704717Y-80748623D01*
X77526095Y-80927244D01*
X77471578Y-80955021D01*
X77411146Y-80945449D01*
X77386091Y-80927246D01*
X77207469Y-80748624D01*
X77151493Y-80705055D01*
X77138067Y-80694605D01*
X77029047Y-80652066D01*
X76912121Y-80647230D01*
X76912116Y-80647230D01*
X76799962Y-80680620D01*
X76766230Y-80704704D01*
X76707885Y-80723129D01*
X76649852Y-80703740D01*
X76647895Y-80702255D01*
X76638067Y-80694605D01*
X76529047Y-80652066D01*
X76412121Y-80647230D01*
X76412116Y-80647230D01*
X76299963Y-80680619D01*
X76299957Y-80680622D01*
X76204717Y-80748623D01*
X76026096Y-80927244D01*
X76012126Y-80934361D01*
X76001038Y-80945450D01*
X75985550Y-80947902D01*
X75971580Y-80955021D01*
X75956093Y-80952568D01*
X75940606Y-80955021D01*
X75926635Y-80947902D01*
X75911148Y-80945450D01*
X75886089Y-80927244D01*
X75778848Y-80820003D01*
X75751071Y-80765486D01*
X75760642Y-80705054D01*
X75778848Y-80679997D01*
X75957469Y-80501376D01*
X76011487Y-80431975D01*
X76054027Y-80322954D01*
X76058863Y-80206027D01*
X76025471Y-80093866D01*
X76025469Y-80093863D01*
X76001390Y-80060138D01*
X75982964Y-80001793D01*
X76002352Y-79943760D01*
X76003840Y-79941799D01*
X76005348Y-79939862D01*
X76011487Y-79931975D01*
X76054027Y-79822954D01*
X76058863Y-79706027D01*
X76050235Y-79677045D01*
X76025473Y-79593870D01*
X76025470Y-79593864D01*
X75957471Y-79498627D01*
X75957469Y-79498624D01*
X75707469Y-79248624D01*
X75674714Y-79223129D01*
X75638067Y-79194605D01*
X75529047Y-79152066D01*
X75412121Y-79147230D01*
X75412116Y-79147230D01*
X75299962Y-79180620D01*
X75266230Y-79204704D01*
X75207885Y-79223129D01*
X75149852Y-79203740D01*
X75147895Y-79202255D01*
X75138067Y-79194605D01*
X75029047Y-79152066D01*
X74912121Y-79147230D01*
X74912116Y-79147230D01*
X74799963Y-79180619D01*
X74799957Y-79180622D01*
X74704717Y-79248623D01*
X74526096Y-79427244D01*
X74512126Y-79434361D01*
X74501038Y-79445450D01*
X74485550Y-79447902D01*
X74471580Y-79455021D01*
X74456093Y-79452568D01*
X74440606Y-79455021D01*
X74426635Y-79447902D01*
X74411148Y-79445450D01*
X74386089Y-79427244D01*
X74278848Y-79320003D01*
X74251071Y-79265486D01*
X74260642Y-79205054D01*
X74278848Y-79179997D01*
X74457469Y-79001376D01*
X74511487Y-78931975D01*
X74554027Y-78822954D01*
X74558863Y-78706027D01*
X74525471Y-78593866D01*
X74525469Y-78593863D01*
X74501390Y-78560138D01*
X74482964Y-78501793D01*
X74502352Y-78443760D01*
X74503840Y-78441799D01*
X74505348Y-78439862D01*
X74511487Y-78431975D01*
X74554027Y-78322954D01*
X74558863Y-78206027D01*
X74550235Y-78177045D01*
X74525473Y-78093870D01*
X74525470Y-78093864D01*
X74457471Y-77998627D01*
X74457469Y-77998624D01*
X74207469Y-77748624D01*
X74149803Y-77703740D01*
X74138067Y-77694605D01*
X74029047Y-77652066D01*
X73912121Y-77647230D01*
X73912116Y-77647230D01*
X73799962Y-77680620D01*
X73766230Y-77704704D01*
X73707885Y-77723129D01*
X73649852Y-77703740D01*
X73647895Y-77702255D01*
X73638067Y-77694605D01*
X73529047Y-77652066D01*
X73412121Y-77647230D01*
X73412116Y-77647230D01*
X73299963Y-77680619D01*
X73299957Y-77680622D01*
X73204720Y-77748621D01*
X72954716Y-77998625D01*
X72954709Y-77998633D01*
X72900698Y-78068025D01*
X72858159Y-78177045D01*
X72853323Y-78293971D01*
X57700500Y-78293971D01*
X57700500Y-69462680D01*
X58548491Y-69462680D01*
X58549372Y-69497484D01*
X58549372Y-69502490D01*
X58548491Y-69537297D01*
X58551128Y-69571967D01*
X58551381Y-69576971D01*
X58552244Y-69611106D01*
X58552237Y-69611391D01*
X58552305Y-69611775D01*
X58556598Y-69645561D01*
X58557103Y-69650529D01*
X58557103Y-69650530D01*
X58559617Y-69683575D01*
X58559645Y-69684576D01*
X58559887Y-69685635D01*
X58565702Y-69718195D01*
X58566454Y-69723119D01*
X58570515Y-69755075D01*
X58570642Y-69756695D01*
X58571125Y-69758407D01*
X58578340Y-69789674D01*
X58579332Y-69794526D01*
X58584853Y-69825435D01*
X58585139Y-69827645D01*
X58585894Y-69829886D01*
X58594442Y-69859986D01*
X58595671Y-69864764D01*
X58602555Y-69894596D01*
X58603044Y-69897310D01*
X58604128Y-69900063D01*
X58613894Y-69928927D01*
X58615348Y-69933604D01*
X58623528Y-69962409D01*
X58624269Y-69965602D01*
X58625698Y-69968765D01*
X58636615Y-69996454D01*
X58638293Y-70001038D01*
X58647701Y-70028845D01*
X58648712Y-70032396D01*
X58650492Y-70035868D01*
X58662518Y-70062471D01*
X58664401Y-70066923D01*
X58674955Y-70093691D01*
X58676282Y-70097609D01*
X58678418Y-70101317D01*
X58691485Y-70126830D01*
X58693570Y-70131157D01*
X58699684Y-70144682D01*
X58705285Y-70157071D01*
X58706897Y-70161153D01*
X58709362Y-70164990D01*
X58723435Y-70189465D01*
X58725719Y-70193671D01*
X58738569Y-70218759D01*
X58740475Y-70222957D01*
X58743237Y-70226830D01*
X58758268Y-70250276D01*
X58760738Y-70254342D01*
X58777777Y-70283976D01*
X58779822Y-70286583D01*
X58795927Y-70309230D01*
X58798569Y-70313142D01*
X58813536Y-70336489D01*
X58816061Y-70340857D01*
X58819419Y-70344713D01*
X58836252Y-70366132D01*
X58839071Y-70369902D01*
X58854843Y-70392080D01*
X58857560Y-70396334D01*
X58857893Y-70396757D01*
X58861441Y-70400465D01*
X58879213Y-70420982D01*
X58882223Y-70424630D01*
X58898847Y-70445784D01*
X58901606Y-70449688D01*
X58902622Y-70450862D01*
X58906115Y-70454171D01*
X58924672Y-70473634D01*
X58927848Y-70477128D01*
X58935365Y-70485806D01*
X58945473Y-70497475D01*
X58945489Y-70497494D01*
X58948862Y-70501391D01*
X58948898Y-70501471D01*
X58949089Y-70501653D01*
X58950355Y-70503115D01*
X58953115Y-70505492D01*
X58972609Y-70524077D01*
X58975916Y-70527383D01*
X58998066Y-70550616D01*
X58998109Y-70550701D01*
X58998328Y-70550891D01*
X58998521Y-70551093D01*
X58998528Y-70551096D01*
X58999716Y-70552341D01*
X59002580Y-70554575D01*
X59022854Y-70572136D01*
X59026330Y-70575294D01*
X59049594Y-70597474D01*
X59049640Y-70597555D01*
X59049862Y-70597730D01*
X59050041Y-70597900D01*
X59050052Y-70597904D01*
X59051364Y-70599153D01*
X59054336Y-70601245D01*
X59075368Y-70617773D01*
X59079017Y-70620784D01*
X59099466Y-70638498D01*
X59099493Y-70638521D01*
X59103368Y-70641881D01*
X59103410Y-70641947D01*
X59103601Y-70642082D01*
X59105040Y-70643330D01*
X59108035Y-70645236D01*
X59130083Y-70660915D01*
X59133841Y-70663725D01*
X59155601Y-70680825D01*
X59159301Y-70683740D01*
X59159329Y-70683779D01*
X59159444Y-70683852D01*
X59160803Y-70684923D01*
X59163761Y-70686620D01*
X59186855Y-70701425D01*
X59190775Y-70704073D01*
X59213489Y-70720226D01*
X59216060Y-70722240D01*
X59245625Y-70739239D01*
X59249708Y-70741720D01*
X59273188Y-70756773D01*
X59277110Y-70759566D01*
X59277471Y-70759774D01*
X59281748Y-70761686D01*
X59306313Y-70774268D01*
X59310518Y-70776552D01*
X59334926Y-70790586D01*
X59334925Y-70790586D01*
X59340385Y-70793724D01*
X59343133Y-70794802D01*
X59368841Y-70806424D01*
X59373169Y-70808510D01*
X59398673Y-70821573D01*
X59403780Y-70824189D01*
X59406365Y-70825062D01*
X59433061Y-70835588D01*
X59437525Y-70837475D01*
X59467192Y-70850887D01*
X59467193Y-70850887D01*
X59468868Y-70851644D01*
X59471189Y-70852304D01*
X59498950Y-70861697D01*
X59503525Y-70863372D01*
X59507870Y-70865085D01*
X59533764Y-70875295D01*
X59533767Y-70875294D01*
X59535526Y-70875988D01*
X59537612Y-70876472D01*
X59540282Y-70877230D01*
X59566429Y-70884655D01*
X59571025Y-70886084D01*
X59601805Y-70896499D01*
X59601807Y-70896498D01*
X59603654Y-70897123D01*
X59605422Y-70897442D01*
X59618202Y-70900391D01*
X59635242Y-70904324D01*
X59640027Y-70905554D01*
X59671198Y-70914407D01*
X59671199Y-70914406D01*
X59673123Y-70914953D01*
X59674562Y-70915138D01*
X59705490Y-70920662D01*
X59710282Y-70921642D01*
X59741855Y-70928929D01*
X59741856Y-70928928D01*
X59743877Y-70929395D01*
X59744914Y-70929476D01*
X59776904Y-70933540D01*
X59781776Y-70934285D01*
X59813650Y-70939978D01*
X59813651Y-70939977D01*
X59814358Y-70940104D01*
X59814357Y-70940104D01*
X59815766Y-70940356D01*
X59816439Y-70940375D01*
X59817219Y-70940434D01*
X59817223Y-70940436D01*
X59849472Y-70942888D01*
X59854410Y-70943389D01*
X59886485Y-70947466D01*
X59886485Y-70947465D01*
X59888218Y-70947686D01*
X59888227Y-70947687D01*
X59888729Y-70947750D01*
X59888905Y-70947747D01*
X59890737Y-70947793D01*
X59890739Y-70947794D01*
X59923028Y-70948609D01*
X59928008Y-70948861D01*
X59960237Y-70951313D01*
X59960239Y-70951312D01*
X59962696Y-70951499D01*
X59965196Y-70951435D01*
X59965197Y-70951436D01*
X59997508Y-70950619D01*
X60002492Y-70950619D01*
X60034803Y-70951436D01*
X60034806Y-70951434D01*
X60037314Y-70951498D01*
X60039759Y-70951311D01*
X60039763Y-70951313D01*
X60071990Y-70948861D01*
X60076978Y-70948609D01*
X60090393Y-70948270D01*
X60111098Y-70947748D01*
X60111393Y-70947754D01*
X60111784Y-70947686D01*
X60113515Y-70947466D01*
X60145600Y-70943388D01*
X60150533Y-70942887D01*
X60182777Y-70940436D01*
X60182777Y-70940435D01*
X60183574Y-70940375D01*
X60184586Y-70940346D01*
X60185657Y-70940102D01*
X60218195Y-70934290D01*
X60223125Y-70933537D01*
X60226993Y-70933045D01*
X60255079Y-70929477D01*
X60256704Y-70929349D01*
X60258428Y-70928863D01*
X60289693Y-70921647D01*
X60294531Y-70920658D01*
X60325430Y-70915140D01*
X60327656Y-70914852D01*
X60329911Y-70914093D01*
X60329929Y-70914088D01*
X60360022Y-70905540D01*
X60364745Y-70904326D01*
X60394584Y-70897440D01*
X60397320Y-70896948D01*
X60400095Y-70895856D01*
X60400101Y-70895854D01*
X60428948Y-70886092D01*
X60433587Y-70884649D01*
X60462399Y-70876468D01*
X60465608Y-70875725D01*
X60468764Y-70874297D01*
X60496494Y-70863362D01*
X60501027Y-70861703D01*
X60528812Y-70852303D01*
X60532403Y-70851282D01*
X60535900Y-70849488D01*
X60562482Y-70837471D01*
X60566898Y-70835603D01*
X60593654Y-70825054D01*
X60597613Y-70823717D01*
X60601359Y-70821556D01*
X60626873Y-70808487D01*
X60631146Y-70806429D01*
X60656963Y-70794758D01*
X60661141Y-70793115D01*
X60665053Y-70790597D01*
X60689504Y-70776538D01*
X60693682Y-70774270D01*
X60718257Y-70761683D01*
X60722528Y-70759773D01*
X60723138Y-70759422D01*
X60727047Y-70756620D01*
X60750307Y-70741707D01*
X60754317Y-70739270D01*
X60782684Y-70722962D01*
X60782685Y-70722959D01*
X60784160Y-70722112D01*
X60786873Y-70719967D01*
X60809237Y-70704063D01*
X60813116Y-70701442D01*
X60836092Y-70686713D01*
X60839301Y-70684879D01*
X60844363Y-70680854D01*
X60844437Y-70680826D01*
X60844800Y-70680508D01*
X60866186Y-70663702D01*
X60869882Y-70660938D01*
X60891853Y-70645314D01*
X60894990Y-70643325D01*
X60896491Y-70642017D01*
X60896591Y-70641947D01*
X60896613Y-70641910D01*
X60900224Y-70638765D01*
X60900319Y-70638683D01*
X60900354Y-70638668D01*
X60900520Y-70638508D01*
X60921014Y-70620756D01*
X60924611Y-70617788D01*
X60945631Y-70601269D01*
X60948667Y-70599135D01*
X60950149Y-70597720D01*
X60950360Y-70597555D01*
X60950402Y-70597478D01*
X60952936Y-70595060D01*
X60954191Y-70593864D01*
X60954193Y-70593863D01*
X60954200Y-70593854D01*
X60973686Y-70575276D01*
X60977113Y-70572162D01*
X60997354Y-70554628D01*
X61000333Y-70552309D01*
X61001731Y-70550837D01*
X61001891Y-70550701D01*
X61001922Y-70550637D01*
X61005448Y-70546930D01*
X61005465Y-70546920D01*
X61005541Y-70546833D01*
X61016921Y-70534895D01*
X61024090Y-70527375D01*
X61027404Y-70524062D01*
X61046810Y-70505560D01*
X61050711Y-70502207D01*
X61051458Y-70501423D01*
X61054607Y-70497381D01*
X61072166Y-70477110D01*
X61075300Y-70473662D01*
X61095507Y-70452467D01*
X61097485Y-70450395D01*
X61097563Y-70450352D01*
X61097732Y-70450136D01*
X61099139Y-70448662D01*
X61101266Y-70445637D01*
X61117809Y-70424587D01*
X61120771Y-70420997D01*
X61138721Y-70400275D01*
X61141909Y-70396609D01*
X61141955Y-70396582D01*
X61142046Y-70396452D01*
X61143308Y-70395002D01*
X61145264Y-70391927D01*
X61160942Y-70369880D01*
X61163722Y-70366163D01*
X61180693Y-70344568D01*
X61180804Y-70344428D01*
X61184877Y-70339290D01*
X61186652Y-70336192D01*
X61201454Y-70313103D01*
X61204067Y-70309234D01*
X61219976Y-70286863D01*
X61222123Y-70284148D01*
X61222968Y-70282676D01*
X61222970Y-70282676D01*
X61239261Y-70254342D01*
X61241713Y-70250305D01*
X61256632Y-70227034D01*
X61259432Y-70223129D01*
X61259826Y-70222442D01*
X61261734Y-70218164D01*
X61274282Y-70193664D01*
X61276554Y-70189482D01*
X61292827Y-70161182D01*
X61292827Y-70161179D01*
X61293736Y-70159599D01*
X61294811Y-70156857D01*
X61306439Y-70131133D01*
X61308514Y-70126830D01*
X61323372Y-70097822D01*
X61323372Y-70097816D01*
X61324196Y-70096208D01*
X61325061Y-70093647D01*
X61335615Y-70066880D01*
X61337467Y-70062500D01*
X61350895Y-70032800D01*
X61350895Y-70032797D01*
X61351652Y-70031123D01*
X61352312Y-70028801D01*
X61361708Y-70001030D01*
X61363374Y-69996479D01*
X61375303Y-69966228D01*
X61375302Y-69966226D01*
X61375995Y-69964471D01*
X61376482Y-69962371D01*
X61384661Y-69933568D01*
X61386098Y-69928948D01*
X61396507Y-69898187D01*
X61396506Y-69898185D01*
X61397130Y-69896342D01*
X61397448Y-69894576D01*
X61404335Y-69864732D01*
X61405562Y-69859965D01*
X61414095Y-69829920D01*
X61414415Y-69828794D01*
X61414414Y-69828791D01*
X61414961Y-69826865D01*
X61415148Y-69825425D01*
X61420664Y-69794534D01*
X61421658Y-69789675D01*
X61428937Y-69758137D01*
X61428936Y-69758134D01*
X61429403Y-69756111D01*
X61429486Y-69755063D01*
X61429489Y-69755045D01*
X61433546Y-69723112D01*
X61434295Y-69718202D01*
X61439986Y-69686342D01*
X61439985Y-69686339D01*
X61440109Y-69685648D01*
X61440110Y-69685642D01*
X61440365Y-69684214D01*
X61440383Y-69683573D01*
X61440444Y-69682767D01*
X61440445Y-69682766D01*
X61442897Y-69650515D01*
X61443400Y-69645563D01*
X61447474Y-69613507D01*
X61447473Y-69613504D01*
X61447694Y-69611769D01*
X61447694Y-69611766D01*
X61447758Y-69611261D01*
X61447754Y-69611077D01*
X61448615Y-69576990D01*
X61448868Y-69571983D01*
X61448869Y-69571971D01*
X61451320Y-69539752D01*
X61451319Y-69539749D01*
X61451507Y-69537280D01*
X61450627Y-69502491D01*
X61450627Y-69497483D01*
X61451507Y-69462704D01*
X61451505Y-69462680D01*
X176548491Y-69462680D01*
X176549372Y-69497484D01*
X176549372Y-69502490D01*
X176548491Y-69537297D01*
X176551128Y-69571967D01*
X176551381Y-69576971D01*
X176552244Y-69611106D01*
X176552237Y-69611391D01*
X176552305Y-69611775D01*
X176556598Y-69645560D01*
X176557103Y-69650529D01*
X176559618Y-69683586D01*
X176559646Y-69684576D01*
X176559888Y-69685637D01*
X176565701Y-69718189D01*
X176566453Y-69723112D01*
X176570513Y-69755059D01*
X176570641Y-69756695D01*
X176571120Y-69758392D01*
X176571128Y-69758425D01*
X176578339Y-69789673D01*
X176578340Y-69789675D01*
X176579334Y-69794534D01*
X176584850Y-69825423D01*
X176584854Y-69825442D01*
X176585138Y-69827644D01*
X176585899Y-69829901D01*
X176594442Y-69859986D01*
X176595670Y-69864764D01*
X176595671Y-69864766D01*
X176602551Y-69894577D01*
X176603045Y-69897316D01*
X176604129Y-69900071D01*
X176613890Y-69928918D01*
X176615347Y-69933604D01*
X176623527Y-69962409D01*
X176624268Y-69965605D01*
X176625695Y-69968762D01*
X176636613Y-69996452D01*
X176638292Y-70001038D01*
X176647700Y-70028845D01*
X176648711Y-70032396D01*
X176650491Y-70035868D01*
X176662517Y-70062471D01*
X176664400Y-70066923D01*
X176674954Y-70093691D01*
X176676281Y-70097609D01*
X176678417Y-70101317D01*
X176691484Y-70126830D01*
X176693569Y-70131157D01*
X176699683Y-70144682D01*
X176705284Y-70157071D01*
X176706896Y-70161153D01*
X176709361Y-70164990D01*
X176723434Y-70189465D01*
X176725718Y-70193671D01*
X176738568Y-70218759D01*
X176740474Y-70222957D01*
X176743236Y-70226830D01*
X176758267Y-70250276D01*
X176760737Y-70254342D01*
X176777776Y-70283976D01*
X176779821Y-70286583D01*
X176795926Y-70309230D01*
X176798568Y-70313142D01*
X176813535Y-70336489D01*
X176816060Y-70340857D01*
X176819418Y-70344713D01*
X176836251Y-70366132D01*
X176839070Y-70369902D01*
X176854842Y-70392080D01*
X176857559Y-70396334D01*
X176857892Y-70396757D01*
X176861440Y-70400465D01*
X176879212Y-70420982D01*
X176882222Y-70424630D01*
X176898846Y-70445784D01*
X176901605Y-70449688D01*
X176902621Y-70450862D01*
X176906114Y-70454171D01*
X176924671Y-70473634D01*
X176927851Y-70477133D01*
X176945463Y-70497466D01*
X176945493Y-70497501D01*
X176948863Y-70501396D01*
X176948896Y-70501469D01*
X176949070Y-70501634D01*
X176950334Y-70503095D01*
X176953109Y-70505486D01*
X176972609Y-70524077D01*
X176975934Y-70527403D01*
X176976598Y-70528099D01*
X176998063Y-70550614D01*
X176998107Y-70550701D01*
X176998332Y-70550896D01*
X176998520Y-70551093D01*
X176998522Y-70551094D01*
X176999711Y-70552340D01*
X177002597Y-70554590D01*
X177022853Y-70572136D01*
X177026306Y-70575273D01*
X177047011Y-70595014D01*
X177049597Y-70597483D01*
X177049638Y-70597555D01*
X177049828Y-70597704D01*
X177051236Y-70599048D01*
X177054221Y-70601156D01*
X177075366Y-70617773D01*
X177079015Y-70620784D01*
X177099464Y-70638498D01*
X177099491Y-70638521D01*
X177103366Y-70641881D01*
X177103408Y-70641947D01*
X177103599Y-70642082D01*
X177105038Y-70643330D01*
X177108033Y-70645236D01*
X177130054Y-70660895D01*
X177133838Y-70663725D01*
X177155350Y-70680630D01*
X177155456Y-70680713D01*
X177159301Y-70683743D01*
X177159325Y-70683777D01*
X177159424Y-70683840D01*
X177160967Y-70685056D01*
X177164090Y-70686831D01*
X177173026Y-70692561D01*
X177186851Y-70701425D01*
X177190785Y-70704082D01*
X177213275Y-70720075D01*
X177215939Y-70722172D01*
X177217312Y-70722961D01*
X177217313Y-70722962D01*
X177245622Y-70739239D01*
X177249669Y-70741697D01*
X177273174Y-70756766D01*
X177277074Y-70759547D01*
X177277232Y-70759638D01*
X177281495Y-70761558D01*
X177306343Y-70774285D01*
X177310483Y-70776533D01*
X177334923Y-70790586D01*
X177340382Y-70793725D01*
X177343138Y-70794806D01*
X177357661Y-70801371D01*
X177368808Y-70806410D01*
X177373137Y-70808495D01*
X177398673Y-70821574D01*
X177398674Y-70821575D01*
X177403774Y-70824187D01*
X177406358Y-70825060D01*
X177422189Y-70831302D01*
X177433060Y-70835589D01*
X177437525Y-70837477D01*
X177464112Y-70849496D01*
X177467187Y-70850886D01*
X177468864Y-70851644D01*
X177471192Y-70852305D01*
X177476266Y-70854022D01*
X177498963Y-70861703D01*
X177503545Y-70863380D01*
X177531216Y-70874291D01*
X177531217Y-70874291D01*
X177533763Y-70875295D01*
X177533763Y-70875294D01*
X177535522Y-70875988D01*
X177537609Y-70876472D01*
X177566397Y-70884647D01*
X177571044Y-70886092D01*
X177601802Y-70896499D01*
X177601803Y-70896498D01*
X177603637Y-70897119D01*
X177605374Y-70897432D01*
X177635259Y-70904328D01*
X177640028Y-70905555D01*
X177671195Y-70914407D01*
X177671195Y-70914406D01*
X177673120Y-70914953D01*
X177674564Y-70915140D01*
X177674570Y-70915141D01*
X177705500Y-70920664D01*
X177710270Y-70921640D01*
X177741851Y-70928929D01*
X177741852Y-70928928D01*
X177743873Y-70929395D01*
X177744910Y-70929476D01*
X177776900Y-70933540D01*
X177781772Y-70934285D01*
X177813646Y-70939978D01*
X177813647Y-70939977D01*
X177814354Y-70940104D01*
X177814353Y-70940104D01*
X177815762Y-70940356D01*
X177816435Y-70940375D01*
X177817215Y-70940434D01*
X177817219Y-70940436D01*
X177849468Y-70942888D01*
X177854402Y-70943389D01*
X177886481Y-70947466D01*
X177886481Y-70947465D01*
X177888215Y-70947686D01*
X177888216Y-70947686D01*
X177888727Y-70947750D01*
X177888902Y-70947747D01*
X177890734Y-70947793D01*
X177890736Y-70947794D01*
X177923025Y-70948609D01*
X177928003Y-70948861D01*
X177960234Y-70951313D01*
X177960236Y-70951312D01*
X177962682Y-70951498D01*
X177965189Y-70951434D01*
X177965193Y-70951436D01*
X177997504Y-70950619D01*
X178002488Y-70950619D01*
X178034799Y-70951436D01*
X178034799Y-70951435D01*
X178037299Y-70951499D01*
X178039756Y-70951312D01*
X178039759Y-70951313D01*
X178071984Y-70948861D01*
X178076970Y-70948609D01*
X178109257Y-70947794D01*
X178109257Y-70947793D01*
X178111103Y-70947747D01*
X178111395Y-70947753D01*
X178111785Y-70947685D01*
X178113510Y-70947465D01*
X178113512Y-70947466D01*
X178145597Y-70943388D01*
X178150526Y-70942888D01*
X178182774Y-70940436D01*
X178182774Y-70940435D01*
X178183571Y-70940375D01*
X178184583Y-70940346D01*
X178185654Y-70940102D01*
X178218192Y-70934290D01*
X178223122Y-70933537D01*
X178226990Y-70933045D01*
X178255076Y-70929477D01*
X178256701Y-70929349D01*
X178258425Y-70928863D01*
X178289690Y-70921647D01*
X178294528Y-70920658D01*
X178325427Y-70915140D01*
X178327651Y-70914852D01*
X178329901Y-70914095D01*
X178360010Y-70905543D01*
X178364771Y-70904320D01*
X178375765Y-70901782D01*
X178394611Y-70897433D01*
X178397316Y-70896946D01*
X178400066Y-70895864D01*
X178428943Y-70886093D01*
X178433583Y-70884650D01*
X178462389Y-70876470D01*
X178465605Y-70875725D01*
X178468762Y-70874297D01*
X178496510Y-70863356D01*
X178501045Y-70861697D01*
X178528794Y-70852309D01*
X178532397Y-70851284D01*
X178535890Y-70849492D01*
X178562478Y-70837471D01*
X178566893Y-70835604D01*
X178593656Y-70825052D01*
X178597612Y-70823716D01*
X178601362Y-70821552D01*
X178626855Y-70808495D01*
X178631162Y-70806420D01*
X178656927Y-70794773D01*
X178661135Y-70793118D01*
X178665045Y-70790600D01*
X178689497Y-70776541D01*
X178693659Y-70774280D01*
X178718272Y-70761675D01*
X178722530Y-70759771D01*
X178723096Y-70759445D01*
X178727006Y-70756645D01*
X178750305Y-70741707D01*
X178754315Y-70739270D01*
X178782682Y-70722962D01*
X178782683Y-70722959D01*
X178784158Y-70722112D01*
X178786871Y-70719967D01*
X178809235Y-70704063D01*
X178813114Y-70701442D01*
X178836090Y-70686713D01*
X178839299Y-70684879D01*
X178844361Y-70680854D01*
X178844437Y-70680825D01*
X178844810Y-70680499D01*
X178866157Y-70663723D01*
X178869900Y-70660924D01*
X178892015Y-70645198D01*
X178895035Y-70643274D01*
X178896444Y-70642049D01*
X178896589Y-70641947D01*
X178896620Y-70641895D01*
X178900240Y-70638750D01*
X178900391Y-70638619D01*
X178900409Y-70638612D01*
X178900493Y-70638531D01*
X178920999Y-70620767D01*
X178924630Y-70617772D01*
X178945859Y-70601089D01*
X178950131Y-70598068D01*
X178950574Y-70597683D01*
X178954212Y-70593841D01*
X178973658Y-70575300D01*
X178977112Y-70572161D01*
X178997351Y-70554629D01*
X179001539Y-70551369D01*
X179002074Y-70550858D01*
X179005539Y-70546832D01*
X179016935Y-70534877D01*
X179024087Y-70527375D01*
X179027401Y-70524062D01*
X179046807Y-70505560D01*
X179050708Y-70502207D01*
X179051455Y-70501423D01*
X179054604Y-70497381D01*
X179072163Y-70477110D01*
X179075297Y-70473662D01*
X179095504Y-70452467D01*
X179097482Y-70450395D01*
X179097560Y-70450352D01*
X179097729Y-70450136D01*
X179099136Y-70448662D01*
X179101263Y-70445637D01*
X179117806Y-70424587D01*
X179120768Y-70420997D01*
X179138718Y-70400275D01*
X179141906Y-70396609D01*
X179141952Y-70396582D01*
X179142043Y-70396452D01*
X179143305Y-70395002D01*
X179145261Y-70391927D01*
X179160939Y-70369880D01*
X179163719Y-70366163D01*
X179180690Y-70344568D01*
X179180801Y-70344428D01*
X179184874Y-70339290D01*
X179186649Y-70336192D01*
X179201451Y-70313103D01*
X179204064Y-70309234D01*
X179219973Y-70286863D01*
X179222120Y-70284148D01*
X179222965Y-70282676D01*
X179222967Y-70282676D01*
X179239258Y-70254342D01*
X179241710Y-70250305D01*
X179256629Y-70227034D01*
X179259429Y-70223129D01*
X179259823Y-70222442D01*
X179261731Y-70218164D01*
X179274279Y-70193664D01*
X179276551Y-70189482D01*
X179292824Y-70161182D01*
X179292824Y-70161179D01*
X179293733Y-70159599D01*
X179294808Y-70156857D01*
X179306436Y-70131133D01*
X179308511Y-70126830D01*
X179323369Y-70097822D01*
X179323369Y-70097816D01*
X179324193Y-70096208D01*
X179325058Y-70093647D01*
X179335612Y-70066880D01*
X179337464Y-70062500D01*
X179350892Y-70032800D01*
X179350892Y-70032797D01*
X179351649Y-70031123D01*
X179352309Y-70028801D01*
X179361705Y-70001030D01*
X179363371Y-69996479D01*
X179375300Y-69966228D01*
X179375299Y-69966225D01*
X179375993Y-69964467D01*
X179376475Y-69962383D01*
X179384654Y-69933579D01*
X179386085Y-69928976D01*
X179396504Y-69898187D01*
X179396503Y-69898185D01*
X179397127Y-69896344D01*
X179397451Y-69894546D01*
X179404327Y-69864753D01*
X179405557Y-69859969D01*
X179405559Y-69859965D01*
X179414412Y-69828791D01*
X179414411Y-69828790D01*
X179414957Y-69826871D01*
X179415142Y-69825442D01*
X179420670Y-69794483D01*
X179421643Y-69789728D01*
X179428934Y-69758140D01*
X179428933Y-69758138D01*
X179429398Y-69756125D01*
X179429482Y-69755059D01*
X179433542Y-69723106D01*
X179434291Y-69718202D01*
X179434293Y-69718189D01*
X179439982Y-69686338D01*
X179439981Y-69686337D01*
X179440102Y-69685664D01*
X179440102Y-69685662D01*
X179440361Y-69684208D01*
X179440379Y-69683587D01*
X179440441Y-69682767D01*
X179440442Y-69682766D01*
X179442892Y-69650528D01*
X179443397Y-69645563D01*
X179443397Y-69645560D01*
X179447471Y-69613510D01*
X179447470Y-69613508D01*
X179447693Y-69611759D01*
X179447754Y-69611269D01*
X179447751Y-69611102D01*
X179448613Y-69576980D01*
X179448614Y-69576971D01*
X179448613Y-69576963D01*
X179448864Y-69571991D01*
X179451317Y-69539752D01*
X179451316Y-69539751D01*
X179451503Y-69537302D01*
X179450623Y-69502489D01*
X179450623Y-69497485D01*
X179451503Y-69462682D01*
X179451317Y-69460232D01*
X179448865Y-69427993D01*
X179448613Y-69423018D01*
X179447798Y-69390731D01*
X179447797Y-69390730D01*
X179447751Y-69388884D01*
X179447757Y-69388593D01*
X179447693Y-69388226D01*
X179447470Y-69386475D01*
X179447471Y-69386474D01*
X179443398Y-69354424D01*
X179443397Y-69354417D01*
X179442892Y-69349444D01*
X179442168Y-69339917D01*
X179440442Y-69317218D01*
X179440441Y-69317217D01*
X179440380Y-69316408D01*
X179440352Y-69315417D01*
X179440104Y-69314330D01*
X179434292Y-69281783D01*
X179433540Y-69276860D01*
X179429482Y-69244923D01*
X179429354Y-69243292D01*
X179428881Y-69241616D01*
X179421646Y-69210269D01*
X179420666Y-69205476D01*
X179415144Y-69174552D01*
X179414858Y-69172343D01*
X179414092Y-69170067D01*
X179405558Y-69140016D01*
X179404328Y-69135235D01*
X179402832Y-69128753D01*
X179397447Y-69105419D01*
X179396953Y-69102677D01*
X179395868Y-69099919D01*
X179386092Y-69071028D01*
X179384647Y-69066376D01*
X179376478Y-69037606D01*
X179376478Y-69037604D01*
X179375732Y-69034390D01*
X179374300Y-69031220D01*
X179374298Y-69031214D01*
X179363367Y-69003492D01*
X179361715Y-68998982D01*
X179352308Y-68971178D01*
X179351291Y-68967601D01*
X179349508Y-68964123D01*
X179337480Y-68937517D01*
X179335593Y-68933053D01*
X179325067Y-68906357D01*
X179323731Y-68902402D01*
X179321579Y-68898667D01*
X179308515Y-68873161D01*
X179306429Y-68868833D01*
X179294807Y-68843125D01*
X179293146Y-68838889D01*
X179290591Y-68834918D01*
X179276557Y-68810510D01*
X179274267Y-68806294D01*
X179268183Y-68794416D01*
X179261692Y-68781743D01*
X179259779Y-68777463D01*
X179259571Y-68777102D01*
X179256778Y-68773180D01*
X179241725Y-68749700D01*
X179239244Y-68745617D01*
X179222245Y-68716052D01*
X179220231Y-68713481D01*
X179204078Y-68690767D01*
X179201438Y-68686859D01*
X179186625Y-68663753D01*
X179184103Y-68659356D01*
X179184077Y-68659318D01*
X179180680Y-68655402D01*
X179163740Y-68633846D01*
X179160920Y-68630075D01*
X179145241Y-68608027D01*
X179142558Y-68603812D01*
X179142021Y-68603129D01*
X179138503Y-68599458D01*
X179120789Y-68579009D01*
X179117778Y-68575360D01*
X179101250Y-68554328D01*
X179098486Y-68550401D01*
X179097469Y-68549227D01*
X179093955Y-68545890D01*
X179081613Y-68532945D01*
X179075299Y-68526322D01*
X179072141Y-68522846D01*
X179054580Y-68502572D01*
X179051567Y-68498710D01*
X179050659Y-68497756D01*
X179046938Y-68494547D01*
X179027387Y-68475907D01*
X179024082Y-68472601D01*
X179005498Y-68453108D01*
X179002202Y-68449281D01*
X179001471Y-68448584D01*
X178997480Y-68445465D01*
X178977133Y-68427840D01*
X178973643Y-68424668D01*
X178954163Y-68406095D01*
X178950721Y-68402463D01*
X178950063Y-68401893D01*
X178946016Y-68399016D01*
X178924631Y-68382211D01*
X178920980Y-68379198D01*
X178900448Y-68361412D01*
X178896900Y-68358019D01*
X178896314Y-68357558D01*
X178892244Y-68354947D01*
X178892077Y-68354828D01*
X178869920Y-68339072D01*
X178866138Y-68336244D01*
X178844719Y-68319411D01*
X178840863Y-68316053D01*
X178836495Y-68313528D01*
X178813148Y-68298561D01*
X178809236Y-68295919D01*
X178786589Y-68279814D01*
X178783982Y-68277769D01*
X178754348Y-68260730D01*
X178750266Y-68258250D01*
X178726848Y-68243237D01*
X178726812Y-68243214D01*
X178722946Y-68240460D01*
X178718772Y-68238565D01*
X178718760Y-68238559D01*
X178693676Y-68225711D01*
X178689478Y-68223430D01*
X178664997Y-68209355D01*
X178664996Y-68209354D01*
X178661188Y-68207165D01*
X178661186Y-68207164D01*
X178659710Y-68206316D01*
X178657046Y-68205264D01*
X178631184Y-68193572D01*
X178626838Y-68191479D01*
X178626828Y-68191474D01*
X178601272Y-68178385D01*
X178596252Y-68175813D01*
X178593706Y-68174951D01*
X178566927Y-68164392D01*
X178562458Y-68162502D01*
X178535869Y-68150481D01*
X178535869Y-68150480D01*
X178531152Y-68148348D01*
X178528841Y-68147690D01*
X178501052Y-68138288D01*
X178496466Y-68136609D01*
X178468760Y-68125684D01*
X178468760Y-68125685D01*
X178464490Y-68124001D01*
X178462407Y-68123518D01*
X178433600Y-68115337D01*
X178428918Y-68113881D01*
X178400062Y-68104118D01*
X178396367Y-68102867D01*
X178394623Y-68102553D01*
X178364743Y-68095656D01*
X178360008Y-68094438D01*
X178329905Y-68085890D01*
X178329891Y-68085886D01*
X178329891Y-68085885D01*
X178326884Y-68085032D01*
X178325440Y-68084845D01*
X178294531Y-68079324D01*
X178289679Y-68078332D01*
X178258412Y-68071117D01*
X178258403Y-68071115D01*
X178256125Y-68070589D01*
X178255080Y-68070507D01*
X178223125Y-68066446D01*
X178218201Y-68065694D01*
X178185635Y-68059878D01*
X178185635Y-68059877D01*
X178184232Y-68059627D01*
X178183585Y-68059609D01*
X178182771Y-68059547D01*
X178179663Y-68059310D01*
X178150543Y-68057095D01*
X178145577Y-68056591D01*
X178111754Y-68052294D01*
X178111754Y-68052293D01*
X178111274Y-68052233D01*
X178111094Y-68052237D01*
X178076988Y-68051375D01*
X178071983Y-68051122D01*
X178037293Y-68048484D01*
X178002499Y-68049364D01*
X177997491Y-68049364D01*
X177962709Y-68048483D01*
X177928007Y-68051122D01*
X177923004Y-68051375D01*
X177888901Y-68052237D01*
X177888602Y-68052230D01*
X177888240Y-68052294D01*
X177854414Y-68056591D01*
X177849447Y-68057095D01*
X177816399Y-68059609D01*
X177815415Y-68059636D01*
X177814354Y-68059879D01*
X177781794Y-68065694D01*
X177776868Y-68066446D01*
X177744908Y-68070507D01*
X177743295Y-68070634D01*
X177741584Y-68071116D01*
X177710313Y-68078332D01*
X177705462Y-68079324D01*
X177674549Y-68084846D01*
X177672342Y-68085131D01*
X177670089Y-68085890D01*
X177640015Y-68094430D01*
X177635235Y-68095659D01*
X177605373Y-68102551D01*
X177602680Y-68103037D01*
X177599950Y-68104110D01*
X177571078Y-68113879D01*
X177566396Y-68115335D01*
X177537585Y-68123518D01*
X177534395Y-68124258D01*
X177531243Y-68125682D01*
X177503541Y-68136604D01*
X177498962Y-68138280D01*
X177471148Y-68147692D01*
X177467597Y-68148703D01*
X177464144Y-68150472D01*
X177437526Y-68162505D01*
X177433063Y-68164393D01*
X177406294Y-68174949D01*
X177402395Y-68176269D01*
X177398714Y-68178388D01*
X177373156Y-68191478D01*
X177368808Y-68193573D01*
X177343014Y-68205234D01*
X177338873Y-68206864D01*
X177334990Y-68209359D01*
X177310513Y-68223431D01*
X177306307Y-68225716D01*
X177292550Y-68232763D01*
X177277278Y-68240586D01*
X177275929Y-68241277D01*
X177273379Y-68243085D01*
X177249691Y-68258271D01*
X177245611Y-68260750D01*
X177216092Y-68277723D01*
X177213541Y-68279718D01*
X177190785Y-68295899D01*
X177186852Y-68298557D01*
X177169546Y-68309653D01*
X177163675Y-68313416D01*
X177159726Y-68315689D01*
X177158948Y-68316241D01*
X177155442Y-68319280D01*
X177133838Y-68336257D01*
X177130041Y-68339097D01*
X177107804Y-68354910D01*
X177103886Y-68357420D01*
X177102940Y-68358162D01*
X177099521Y-68361435D01*
X177079015Y-68379198D01*
X177075367Y-68382209D01*
X177075366Y-68382210D01*
X177054059Y-68398954D01*
X177050112Y-68401753D01*
X177049376Y-68402390D01*
X177046023Y-68405910D01*
X177026340Y-68424677D01*
X177022861Y-68427840D01*
X177002514Y-68445465D01*
X177002448Y-68445522D01*
X176998732Y-68448430D01*
X176997683Y-68449430D01*
X176994582Y-68453020D01*
X176975932Y-68472581D01*
X176972595Y-68475918D01*
X176953025Y-68494575D01*
X176953026Y-68494576D01*
X176949374Y-68498058D01*
X176949290Y-68498101D01*
X176949099Y-68498321D01*
X176948896Y-68498515D01*
X176948894Y-68498517D01*
X176947706Y-68499652D01*
X176945498Y-68502476D01*
X176927850Y-68522850D01*
X176924675Y-68526345D01*
X176905994Y-68545938D01*
X176905993Y-68545937D01*
X176905504Y-68546451D01*
X176902516Y-68549586D01*
X176902436Y-68549632D01*
X176902260Y-68549854D01*
X176902091Y-68550033D01*
X176902081Y-68550056D01*
X176900892Y-68551310D01*
X176898879Y-68554156D01*
X176898745Y-68554328D01*
X176882221Y-68575354D01*
X176879212Y-68579000D01*
X176861382Y-68599582D01*
X176861383Y-68599583D01*
X176861116Y-68599891D01*
X176858117Y-68603354D01*
X176858044Y-68603401D01*
X176857890Y-68603617D01*
X176857777Y-68603748D01*
X176857773Y-68603757D01*
X176856697Y-68605003D01*
X176854863Y-68607872D01*
X176839091Y-68630052D01*
X176836251Y-68633850D01*
X176816264Y-68659284D01*
X176816212Y-68659321D01*
X176816106Y-68659486D01*
X176816041Y-68659569D01*
X176816038Y-68659576D01*
X176815149Y-68660710D01*
X176813564Y-68663449D01*
X176798568Y-68686841D01*
X176795912Y-68690772D01*
X176779559Y-68713768D01*
X176777654Y-68716219D01*
X176760744Y-68745629D01*
X176758264Y-68749712D01*
X176743085Y-68773389D01*
X176740446Y-68777113D01*
X176738620Y-68781124D01*
X176725723Y-68806301D01*
X176723438Y-68810507D01*
X176709319Y-68835066D01*
X176709318Y-68835069D01*
X176706330Y-68840266D01*
X176705288Y-68842902D01*
X176693573Y-68868813D01*
X176691481Y-68873157D01*
X176678394Y-68898710D01*
X176678393Y-68898711D01*
X176675822Y-68903730D01*
X176674956Y-68906288D01*
X176664393Y-68933076D01*
X176662504Y-68937542D01*
X176650477Y-68964146D01*
X176650476Y-68964149D01*
X176648356Y-68968837D01*
X176647698Y-68971148D01*
X176638293Y-68998942D01*
X176636615Y-69003525D01*
X176625683Y-69031250D01*
X176625682Y-69031252D01*
X176624010Y-69035491D01*
X176623526Y-69037578D01*
X176615345Y-69066387D01*
X176613886Y-69071076D01*
X176604124Y-69099921D01*
X176604125Y-69099922D01*
X176602872Y-69103625D01*
X176602550Y-69105411D01*
X176595668Y-69135228D01*
X176594440Y-69140004D01*
X176585585Y-69171190D01*
X176585037Y-69173118D01*
X176584854Y-69174536D01*
X176579336Y-69205434D01*
X176578343Y-69210288D01*
X176571118Y-69241599D01*
X176571117Y-69241605D01*
X176570595Y-69243862D01*
X176570512Y-69244929D01*
X176566453Y-69276870D01*
X176565702Y-69281791D01*
X176559888Y-69314353D01*
X176559888Y-69314354D01*
X176559636Y-69315765D01*
X176559618Y-69316401D01*
X176557103Y-69349455D01*
X176556598Y-69354424D01*
X176552303Y-69388218D01*
X176552304Y-69388219D01*
X176552240Y-69388720D01*
X176552244Y-69388889D01*
X176551381Y-69423012D01*
X176551128Y-69428017D01*
X176548491Y-69462680D01*
X61451505Y-69462680D01*
X61451319Y-69460234D01*
X61451320Y-69460232D01*
X61448867Y-69427991D01*
X61448615Y-69422993D01*
X61447754Y-69388918D01*
X61447761Y-69388597D01*
X61447696Y-69388227D01*
X61447474Y-69386477D01*
X61443397Y-69354397D01*
X61442896Y-69349455D01*
X61440445Y-69317218D01*
X61440444Y-69317216D01*
X61440383Y-69316413D01*
X61440355Y-69315413D01*
X61440110Y-69314341D01*
X61439985Y-69313644D01*
X61439986Y-69313642D01*
X61434295Y-69281780D01*
X61433545Y-69276870D01*
X61429484Y-69244904D01*
X61429358Y-69243291D01*
X61428875Y-69241580D01*
X61421650Y-69210274D01*
X61420670Y-69205482D01*
X61415147Y-69174553D01*
X61414861Y-69172341D01*
X61414101Y-69170085D01*
X61405562Y-69140016D01*
X61404332Y-69135234D01*
X61397451Y-69105419D01*
X61396957Y-69102678D01*
X61395869Y-69099913D01*
X61386092Y-69071017D01*
X61384663Y-69066421D01*
X61377238Y-69040274D01*
X61376480Y-69037604D01*
X61375734Y-69034388D01*
X61374303Y-69031220D01*
X61363380Y-69003517D01*
X61361703Y-68998937D01*
X61361702Y-68998934D01*
X61352312Y-68971181D01*
X61351294Y-68967602D01*
X61349511Y-68964123D01*
X61337483Y-68937517D01*
X61335596Y-68933053D01*
X61325070Y-68906357D01*
X61323734Y-68902402D01*
X61321582Y-68898667D01*
X61308518Y-68873161D01*
X61306432Y-68868833D01*
X61294810Y-68843125D01*
X61293149Y-68838889D01*
X61290594Y-68834918D01*
X61276560Y-68810510D01*
X61274270Y-68806294D01*
X61268186Y-68794416D01*
X61261695Y-68781743D01*
X61259782Y-68777463D01*
X61259574Y-68777102D01*
X61256781Y-68773180D01*
X61241728Y-68749700D01*
X61239247Y-68745617D01*
X61222248Y-68716052D01*
X61220234Y-68713481D01*
X61204081Y-68690767D01*
X61201441Y-68686859D01*
X61186628Y-68663753D01*
X61184106Y-68659356D01*
X61184080Y-68659318D01*
X61180683Y-68655402D01*
X61163743Y-68633846D01*
X61160923Y-68630075D01*
X61145244Y-68608027D01*
X61142561Y-68603812D01*
X61142024Y-68603129D01*
X61138506Y-68599458D01*
X61120792Y-68579009D01*
X61117781Y-68575360D01*
X61101253Y-68554328D01*
X61098489Y-68550401D01*
X61097472Y-68549227D01*
X61093958Y-68545890D01*
X61081616Y-68532945D01*
X61075302Y-68526322D01*
X61072144Y-68522846D01*
X61054583Y-68502572D01*
X61051570Y-68498710D01*
X61050662Y-68497756D01*
X61046941Y-68494547D01*
X61027390Y-68475907D01*
X61024085Y-68472601D01*
X61005500Y-68453107D01*
X61002199Y-68449274D01*
X61001481Y-68448590D01*
X60997483Y-68445465D01*
X60977140Y-68427844D01*
X60973642Y-68424664D01*
X60954179Y-68406107D01*
X60950870Y-68402614D01*
X60949696Y-68401598D01*
X60945792Y-68398839D01*
X60924638Y-68382215D01*
X60920990Y-68379205D01*
X60920982Y-68379198D01*
X60900338Y-68361316D01*
X60896630Y-68358100D01*
X60896591Y-68358037D01*
X60896409Y-68357908D01*
X60895042Y-68356722D01*
X60892088Y-68354835D01*
X60869910Y-68339063D01*
X60866140Y-68336244D01*
X60844436Y-68319187D01*
X60840688Y-68316229D01*
X60840671Y-68316205D01*
X60840596Y-68316157D01*
X60839368Y-68315188D01*
X60836497Y-68313528D01*
X60813150Y-68298561D01*
X60809238Y-68295919D01*
X60786591Y-68279814D01*
X60783984Y-68277769D01*
X60754350Y-68260730D01*
X60750284Y-68258260D01*
X60726838Y-68243229D01*
X60722965Y-68240467D01*
X60718767Y-68238561D01*
X60693679Y-68225711D01*
X60689479Y-68223430D01*
X60665002Y-68209356D01*
X60659718Y-68206319D01*
X60657079Y-68205277D01*
X60644690Y-68199676D01*
X60631165Y-68193562D01*
X60626838Y-68191477D01*
X60601325Y-68178410D01*
X60601321Y-68178408D01*
X60596252Y-68175811D01*
X60593699Y-68174947D01*
X60578331Y-68168888D01*
X60566921Y-68164388D01*
X60562479Y-68162510D01*
X60535878Y-68150485D01*
X60535877Y-68150484D01*
X60531154Y-68148348D01*
X60528853Y-68147693D01*
X60501046Y-68138285D01*
X60496462Y-68136607D01*
X60481172Y-68130578D01*
X60466235Y-68124689D01*
X60464488Y-68124000D01*
X60462417Y-68123520D01*
X60433612Y-68115340D01*
X60428951Y-68113891D01*
X60398195Y-68103485D01*
X60396357Y-68102863D01*
X60394604Y-68102547D01*
X60369624Y-68096782D01*
X60364760Y-68095660D01*
X60360011Y-68094438D01*
X60329908Y-68085890D01*
X60329894Y-68085886D01*
X60329894Y-68085885D01*
X60326887Y-68085032D01*
X60325443Y-68084845D01*
X60294534Y-68079324D01*
X60289682Y-68078332D01*
X60258415Y-68071117D01*
X60258406Y-68071115D01*
X60256128Y-68070589D01*
X60255083Y-68070507D01*
X60223128Y-68066446D01*
X60218204Y-68065694D01*
X60185638Y-68059878D01*
X60185638Y-68059877D01*
X60184234Y-68059627D01*
X60183591Y-68059609D01*
X60150551Y-68057096D01*
X60145581Y-68056591D01*
X60111763Y-68052294D01*
X60111763Y-68052295D01*
X60111275Y-68052233D01*
X60111096Y-68052237D01*
X60076992Y-68051375D01*
X60071987Y-68051122D01*
X60037297Y-68048484D01*
X60002503Y-68049364D01*
X59997497Y-68049364D01*
X59962705Y-68048484D01*
X59928012Y-68051122D01*
X59923008Y-68051375D01*
X59888906Y-68052237D01*
X59888606Y-68052230D01*
X59888238Y-68052295D01*
X59854420Y-68056591D01*
X59849453Y-68057095D01*
X59816403Y-68059609D01*
X59815421Y-68059636D01*
X59814360Y-68059879D01*
X59781797Y-68065694D01*
X59776872Y-68066446D01*
X59744912Y-68070507D01*
X59743299Y-68070634D01*
X59741588Y-68071116D01*
X59710317Y-68078332D01*
X59705465Y-68079324D01*
X59674551Y-68084846D01*
X59672350Y-68085130D01*
X59670103Y-68085887D01*
X59640012Y-68094431D01*
X59635237Y-68095660D01*
X59605404Y-68102546D01*
X59602681Y-68103036D01*
X59599927Y-68104120D01*
X59571080Y-68113880D01*
X59566400Y-68115335D01*
X59537593Y-68123517D01*
X59534398Y-68124258D01*
X59531257Y-68125677D01*
X59503523Y-68136612D01*
X59498940Y-68138289D01*
X59471150Y-68147692D01*
X59467604Y-68148702D01*
X59464148Y-68150472D01*
X59437526Y-68162506D01*
X59433066Y-68164393D01*
X59406302Y-68174947D01*
X59402399Y-68176268D01*
X59398721Y-68178385D01*
X59373165Y-68191474D01*
X59368819Y-68193568D01*
X59343011Y-68205236D01*
X59338879Y-68206863D01*
X59334993Y-68209359D01*
X59310516Y-68223431D01*
X59306307Y-68225717D01*
X59281236Y-68238559D01*
X59277164Y-68240408D01*
X59273400Y-68243075D01*
X59249696Y-68258270D01*
X59245619Y-68260747D01*
X59216224Y-68277649D01*
X59213765Y-68279561D01*
X59190793Y-68295897D01*
X59186851Y-68298560D01*
X59177134Y-68304789D01*
X59163338Y-68313633D01*
X59159455Y-68315887D01*
X59158983Y-68316222D01*
X59155500Y-68319237D01*
X59133853Y-68336248D01*
X59130055Y-68339088D01*
X59107805Y-68354910D01*
X59103890Y-68357418D01*
X59102942Y-68358162D01*
X59099523Y-68361435D01*
X59079017Y-68379198D01*
X59075368Y-68382209D01*
X59054167Y-68398870D01*
X59050452Y-68401497D01*
X59049103Y-68402665D01*
X59045944Y-68405988D01*
X59026351Y-68424668D01*
X59022857Y-68427844D01*
X59022856Y-68427845D01*
X59002443Y-68445527D01*
X58998768Y-68448404D01*
X58997648Y-68449471D01*
X58994587Y-68453015D01*
X58991757Y-68455985D01*
X58975950Y-68472565D01*
X58972607Y-68475907D01*
X58952984Y-68494614D01*
X58951543Y-68495989D01*
X58949373Y-68498059D01*
X58949291Y-68498101D01*
X58949105Y-68498315D01*
X58948898Y-68498513D01*
X58948895Y-68498518D01*
X58947713Y-68499648D01*
X58945507Y-68502468D01*
X58927851Y-68522851D01*
X58924676Y-68526345D01*
X58905995Y-68545938D01*
X58905994Y-68545937D01*
X58905505Y-68546451D01*
X58902517Y-68549586D01*
X58902437Y-68549632D01*
X58902261Y-68549854D01*
X58902092Y-68550033D01*
X58902082Y-68550056D01*
X58900893Y-68551310D01*
X58898880Y-68554156D01*
X58898746Y-68554328D01*
X58882222Y-68575354D01*
X58879213Y-68579000D01*
X58861383Y-68599582D01*
X58861384Y-68599583D01*
X58861117Y-68599891D01*
X58858118Y-68603354D01*
X58858045Y-68603401D01*
X58857891Y-68603617D01*
X58857778Y-68603748D01*
X58857774Y-68603757D01*
X58856698Y-68605003D01*
X58854864Y-68607872D01*
X58839092Y-68630052D01*
X58836252Y-68633850D01*
X58816265Y-68659284D01*
X58816213Y-68659321D01*
X58816107Y-68659486D01*
X58816042Y-68659569D01*
X58816039Y-68659576D01*
X58815150Y-68660710D01*
X58813565Y-68663449D01*
X58798569Y-68686841D01*
X58795913Y-68690772D01*
X58779560Y-68713768D01*
X58777655Y-68716219D01*
X58760745Y-68745629D01*
X58758265Y-68749712D01*
X58743086Y-68773389D01*
X58740447Y-68777113D01*
X58738621Y-68781124D01*
X58725724Y-68806301D01*
X58723439Y-68810507D01*
X58709320Y-68835066D01*
X58709319Y-68835069D01*
X58706331Y-68840266D01*
X58705289Y-68842902D01*
X58693574Y-68868813D01*
X58691482Y-68873157D01*
X58678395Y-68898710D01*
X58678394Y-68898711D01*
X58675823Y-68903730D01*
X58674957Y-68906288D01*
X58664394Y-68933076D01*
X58662505Y-68937542D01*
X58650478Y-68964146D01*
X58650477Y-68964149D01*
X58648357Y-68968837D01*
X58647699Y-68971148D01*
X58638294Y-68998942D01*
X58636617Y-69003524D01*
X58625685Y-69031250D01*
X58625684Y-69031251D01*
X58624008Y-69035499D01*
X58623526Y-69037579D01*
X58615350Y-69066370D01*
X58613894Y-69071055D01*
X58604127Y-69099922D01*
X58604123Y-69099932D01*
X58602873Y-69103624D01*
X58602554Y-69105395D01*
X58595673Y-69135208D01*
X58594443Y-69139989D01*
X58585889Y-69170110D01*
X58585889Y-69170111D01*
X58585041Y-69173094D01*
X58584853Y-69174553D01*
X58579333Y-69205457D01*
X58578340Y-69210309D01*
X58571124Y-69241580D01*
X58570597Y-69243862D01*
X58570515Y-69244904D01*
X58566454Y-69276864D01*
X58565702Y-69281791D01*
X58559886Y-69314356D01*
X58559635Y-69315758D01*
X58559617Y-69316414D01*
X58557103Y-69349456D01*
X58556598Y-69354425D01*
X58552303Y-69388218D01*
X58552304Y-69388219D01*
X58552240Y-69388720D01*
X58552244Y-69388889D01*
X58551381Y-69423012D01*
X58551128Y-69428017D01*
X58548491Y-69462680D01*
X57700500Y-69462680D01*
X57700500Y-43299500D01*
X57719407Y-43241309D01*
X57768907Y-43205345D01*
X57799500Y-43200500D01*
X68951244Y-43200500D01*
X68952710Y-43200511D01*
X68963184Y-43200666D01*
X68965214Y-43201447D01*
X68983894Y-43200972D01*
X68985868Y-43201002D01*
X68986582Y-43201246D01*
X68996290Y-43201707D01*
X69001166Y-43202296D01*
X69001172Y-43202298D01*
X69017553Y-43201049D01*
X69031975Y-43201005D01*
X69036820Y-43201343D01*
X69036826Y-43201345D01*
X69048689Y-43199835D01*
X69058662Y-43199076D01*
X69070660Y-43198772D01*
X69070662Y-43198770D01*
X69071404Y-43198752D01*
X69072130Y-43198622D01*
X69072135Y-43198623D01*
X69084075Y-43196486D01*
X69093962Y-43195228D01*
X69106079Y-43194306D01*
X69106080Y-43194305D01*
X69106357Y-43194284D01*
X69106546Y-43194273D01*
X69106984Y-43194161D01*
X69106986Y-43194162D01*
X69118931Y-43191401D01*
X69128701Y-43189654D01*
X69139985Y-43188218D01*
X69141180Y-43188094D01*
X69142739Y-43187612D01*
X69144787Y-43187029D01*
X69153329Y-43184600D01*
X69162950Y-43182376D01*
X69175261Y-43180175D01*
X69175262Y-43180173D01*
X69175569Y-43180119D01*
X69177997Y-43179228D01*
X69187058Y-43176159D01*
X69196520Y-43173470D01*
X69201820Y-43172244D01*
X69205297Y-43171441D01*
X69208592Y-43170765D01*
X69212075Y-43169294D01*
X69220208Y-43166084D01*
X69229448Y-43162955D01*
X69237260Y-43160734D01*
X69241343Y-43159678D01*
X69245552Y-43157649D01*
X69252595Y-43154462D01*
X69261627Y-43150900D01*
X69268539Y-43148558D01*
X69273167Y-43147116D01*
X69273347Y-43147064D01*
X69273812Y-43146797D01*
X69278065Y-43144483D01*
X69284238Y-43141318D01*
X69293022Y-43137344D01*
X69299143Y-43134928D01*
X69303854Y-43133207D01*
X69304521Y-43132982D01*
X69305222Y-43132529D01*
X69305225Y-43132529D01*
X69305226Y-43132527D01*
X69305440Y-43132390D01*
X69309693Y-43129798D01*
X69315036Y-43126723D01*
X69323594Y-43122336D01*
X69329042Y-43119872D01*
X69333657Y-43117925D01*
X69334846Y-43117458D01*
X69335648Y-43116883D01*
X69335652Y-43116882D01*
X69335654Y-43116879D01*
X69336155Y-43116521D01*
X69340353Y-43113674D01*
X69345024Y-43110678D01*
X69353302Y-43105916D01*
X69358084Y-43103465D01*
X69362677Y-43101260D01*
X69363178Y-43101034D01*
X69363181Y-43101034D01*
X69363182Y-43101032D01*
X69364275Y-43100542D01*
X69365165Y-43099836D01*
X69365170Y-43099834D01*
X69365173Y-43099830D01*
X69365798Y-43099335D01*
X69369904Y-43096249D01*
X69374085Y-43093275D01*
X69382064Y-43088156D01*
X69386397Y-43085663D01*
X69390914Y-43083220D01*
X69391595Y-43082873D01*
X69391602Y-43082872D01*
X69391607Y-43082867D01*
X69392776Y-43082274D01*
X69393711Y-43081455D01*
X69393717Y-43081453D01*
X69393720Y-43081448D01*
X69394516Y-43080753D01*
X69398510Y-43077441D01*
X69402170Y-43074564D01*
X69409881Y-43069078D01*
X69413815Y-43066555D01*
X69418274Y-43063859D01*
X69419082Y-43063398D01*
X69419088Y-43063397D01*
X69419092Y-43063393D01*
X69420300Y-43062706D01*
X69421261Y-43061780D01*
X69421266Y-43061777D01*
X69421269Y-43061772D01*
X69422127Y-43060946D01*
X69425987Y-43057418D01*
X69429319Y-43054532D01*
X69436716Y-43048716D01*
X69440288Y-43046175D01*
X69444630Y-43043258D01*
X69445579Y-43042655D01*
X69445586Y-43042653D01*
X69445591Y-43042647D01*
X69446803Y-43041879D01*
X69447772Y-43040851D01*
X69447779Y-43040847D01*
X69447783Y-43040840D01*
X69448644Y-43039928D01*
X69452330Y-43036221D01*
X69455412Y-43033283D01*
X69462528Y-43027120D01*
X69465836Y-43024520D01*
X69470071Y-43021371D01*
X69472259Y-43019832D01*
X69473201Y-43018731D01*
X69473204Y-43018729D01*
X69473205Y-43018726D01*
X69474030Y-43017763D01*
X69477597Y-43013813D01*
X69480433Y-43010839D01*
X69487241Y-43004350D01*
X69490321Y-43001681D01*
X69494442Y-42998299D01*
X69495440Y-42997523D01*
X69495445Y-42997521D01*
X69495447Y-42997517D01*
X69495450Y-42997516D01*
X69496415Y-42996401D01*
X69497520Y-42995445D01*
X69497898Y-42994689D01*
X69504361Y-42987228D01*
X69510841Y-42980433D01*
X69513830Y-42977582D01*
X69517723Y-42974065D01*
X69518721Y-42973209D01*
X69518724Y-42973208D01*
X69518725Y-42973205D01*
X69518729Y-42973203D01*
X69519640Y-42972042D01*
X69520684Y-42971049D01*
X69521022Y-42970284D01*
X69527130Y-42962512D01*
X69533262Y-42955433D01*
X69536239Y-42952310D01*
X69539954Y-42948619D01*
X69540846Y-42947776D01*
X69540856Y-42947771D01*
X69541697Y-42946588D01*
X69542653Y-42945586D01*
X69542941Y-42944838D01*
X69548714Y-42936721D01*
X69554541Y-42929308D01*
X69557441Y-42925961D01*
X69560976Y-42922094D01*
X69561760Y-42921278D01*
X69561769Y-42921273D01*
X69562525Y-42920094D01*
X69563397Y-42919088D01*
X69563640Y-42918354D01*
X69569067Y-42909895D01*
X69574544Y-42902196D01*
X69577449Y-42898501D01*
X69580752Y-42894520D01*
X69581453Y-42893716D01*
X69581457Y-42893714D01*
X69581459Y-42893709D01*
X69581461Y-42893708D01*
X69582125Y-42892552D01*
X69582869Y-42891608D01*
X69583059Y-42890928D01*
X69588166Y-42882050D01*
X69593300Y-42874045D01*
X69596192Y-42869980D01*
X69599289Y-42865858D01*
X69599835Y-42865167D01*
X69599840Y-42865164D01*
X69600409Y-42864053D01*
X69601039Y-42863168D01*
X69601181Y-42862546D01*
X69605911Y-42853315D01*
X69610673Y-42845035D01*
X69613728Y-42840274D01*
X69616553Y-42836110D01*
X69616870Y-42835665D01*
X69616876Y-42835660D01*
X69617323Y-42834671D01*
X69617851Y-42833849D01*
X69617953Y-42833279D01*
X69622334Y-42823596D01*
X69626711Y-42815053D01*
X69629774Y-42809730D01*
X69632371Y-42805471D01*
X69632529Y-42805223D01*
X69632534Y-42805219D01*
X69632889Y-42804319D01*
X69633281Y-42803638D01*
X69633341Y-42803172D01*
X69637352Y-42793008D01*
X69641335Y-42784202D01*
X69642812Y-42781321D01*
X69644454Y-42778115D01*
X69646729Y-42773939D01*
X69646987Y-42773174D01*
X69647271Y-42772623D01*
X69647300Y-42772250D01*
X69648557Y-42768540D01*
X69650892Y-42761646D01*
X69654453Y-42752621D01*
X69657676Y-42745499D01*
X69659425Y-42741873D01*
X69659606Y-42741234D01*
X69659782Y-42740847D01*
X69659790Y-42740587D01*
X69662962Y-42729430D01*
X69666092Y-42720185D01*
X69669264Y-42712146D01*
X69670577Y-42709042D01*
X69670699Y-42708511D01*
X69670774Y-42708323D01*
X69670771Y-42708198D01*
X69671425Y-42705359D01*
X69671426Y-42705355D01*
X69671429Y-42705337D01*
X69673461Y-42696548D01*
X69676143Y-42687108D01*
X69679265Y-42677895D01*
X69680127Y-42675546D01*
X69682379Y-42662952D01*
X69684607Y-42653301D01*
X69687585Y-42642825D01*
X69688099Y-42641170D01*
X69688242Y-42639783D01*
X69689649Y-42628729D01*
X69691395Y-42618966D01*
X69694163Y-42606993D01*
X69694162Y-42606990D01*
X69694175Y-42606937D01*
X69694279Y-42606487D01*
X69694287Y-42606340D01*
X69695229Y-42593967D01*
X69696490Y-42584050D01*
X69698623Y-42572125D01*
X69698622Y-42572123D01*
X69698756Y-42571378D01*
X69698774Y-42570654D01*
X69698775Y-42570653D01*
X69699078Y-42558668D01*
X69699835Y-42548707D01*
X69701347Y-42536835D01*
X69701345Y-42536830D01*
X69701006Y-42531965D01*
X69701050Y-42517553D01*
X69702299Y-42501171D01*
X69702298Y-42501167D01*
X69701707Y-42496278D01*
X69701001Y-42485850D01*
X69700971Y-42483873D01*
X69701445Y-42465207D01*
X69700665Y-42463181D01*
X69700511Y-42452714D01*
X69700600Y-42452423D01*
X69700500Y-42451250D01*
X69700500Y-36500001D01*
X72000000Y-36500001D01*
X72000000Y-36500002D01*
X72499999Y-38999999D01*
X72500001Y-39000003D01*
X73333332Y-40458332D01*
X73500000Y-40750000D01*
X76000000Y-42500000D01*
X76000005Y-42500001D01*
X78499997Y-43000000D01*
X78500000Y-43000000D01*
X78500003Y-43000000D01*
X80646735Y-42570653D01*
X81000000Y-42500000D01*
X83500000Y-40750000D01*
X84500000Y-39000000D01*
X84611384Y-38443079D01*
X87467470Y-38443079D01*
X87467471Y-38443079D01*
X104742263Y-38443079D01*
X104742264Y-38443079D01*
X104742264Y-36500001D01*
X162500000Y-36500001D01*
X162500000Y-36500002D01*
X162999999Y-38999999D01*
X163000001Y-39000003D01*
X163833332Y-40458332D01*
X164000000Y-40750000D01*
X166500000Y-42500000D01*
X166500005Y-42500001D01*
X168999997Y-43000000D01*
X169000000Y-43000000D01*
X169000003Y-43000000D01*
X171146735Y-42570653D01*
X171500000Y-42500000D01*
X174000000Y-40750000D01*
X175000000Y-39000000D01*
X175500000Y-36500000D01*
X175250000Y-34750000D01*
X174250000Y-32500000D01*
X171833442Y-30566754D01*
X171750000Y-30500000D01*
X171749998Y-30499999D01*
X168999998Y-29999999D01*
X168999997Y-30000000D01*
X166500000Y-30499999D01*
X166499996Y-30500001D01*
X164749998Y-31500001D01*
X163000000Y-33749999D01*
X162500000Y-36500001D01*
X104742264Y-36500001D01*
X104742264Y-34459753D01*
X87467470Y-34459753D01*
X87467470Y-38443079D01*
X84611384Y-38443079D01*
X85000000Y-36500000D01*
X84750000Y-34750000D01*
X83750000Y-32500000D01*
X81333442Y-30566754D01*
X81250000Y-30500000D01*
X81249998Y-30499999D01*
X78499998Y-29999999D01*
X78499997Y-30000000D01*
X76000000Y-30499999D01*
X75999996Y-30500001D01*
X74249998Y-31500001D01*
X72500000Y-33749999D01*
X72000000Y-36500001D01*
X69700500Y-36500001D01*
X69700500Y-30578251D01*
X69700511Y-30576789D01*
X69700665Y-30566323D01*
X69701442Y-30564307D01*
X69700970Y-30545653D01*
X69701000Y-30543689D01*
X69701244Y-30542972D01*
X69701709Y-30533236D01*
X69702294Y-30528400D01*
X69702296Y-30528396D01*
X69701053Y-30512040D01*
X69701014Y-30497610D01*
X69701352Y-30492796D01*
X69699842Y-30480897D01*
X69699086Y-30470930D01*
X69698923Y-30464507D01*
X69698782Y-30458885D01*
X69698781Y-30458883D01*
X69698765Y-30458239D01*
X69698644Y-30457562D01*
X69698645Y-30457559D01*
X69696506Y-30445562D01*
X69695255Y-30435690D01*
X69694342Y-30423659D01*
X69694314Y-30423129D01*
X69694161Y-30422531D01*
X69691438Y-30410715D01*
X69689703Y-30400971D01*
X69688334Y-30390182D01*
X69688169Y-30388574D01*
X69687621Y-30386796D01*
X69684681Y-30376424D01*
X69682470Y-30366825D01*
X69680760Y-30357232D01*
X69680357Y-30354595D01*
X69679339Y-30351789D01*
X69676264Y-30342684D01*
X69673588Y-30333240D01*
X69671651Y-30324835D01*
X69670913Y-30321221D01*
X69669354Y-30317521D01*
X69666249Y-30309632D01*
X69663129Y-30300389D01*
X69660985Y-30292825D01*
X69659874Y-30288505D01*
X69659831Y-30288421D01*
X69657750Y-30284095D01*
X69657674Y-30283927D01*
X69654669Y-30277269D01*
X69651120Y-30268247D01*
X69648858Y-30261550D01*
X69647420Y-30256914D01*
X69647312Y-30256534D01*
X69646958Y-30255919D01*
X69644604Y-30251583D01*
X69641585Y-30245677D01*
X69637615Y-30236875D01*
X69635305Y-30231006D01*
X69633598Y-30226328D01*
X69633598Y-30226325D01*
X69633595Y-30226319D01*
X69633285Y-30225399D01*
X69632576Y-30224295D01*
X69630003Y-30220061D01*
X69627032Y-30214884D01*
X69622665Y-30206339D01*
X69620307Y-30201114D01*
X69618352Y-30196468D01*
X69618234Y-30196167D01*
X69618234Y-30196164D01*
X69618231Y-30196160D01*
X69617816Y-30195097D01*
X69616711Y-30193548D01*
X69613921Y-30189421D01*
X69611069Y-30184964D01*
X69606306Y-30176661D01*
X69603964Y-30172079D01*
X69601740Y-30167435D01*
X69601475Y-30166844D01*
X69601475Y-30166841D01*
X69601472Y-30166838D01*
X69600961Y-30165694D01*
X69599592Y-30163961D01*
X69596533Y-30159877D01*
X69593704Y-30155890D01*
X69588581Y-30147881D01*
X69586260Y-30143837D01*
X69583778Y-30139235D01*
X69582759Y-30137220D01*
X69581118Y-30135339D01*
X69577807Y-30131335D01*
X69575051Y-30127819D01*
X69569572Y-30120096D01*
X69567186Y-30116366D01*
X69564504Y-30111920D01*
X69563960Y-30110962D01*
X69563959Y-30110959D01*
X69563956Y-30110956D01*
X69563247Y-30109707D01*
X69561332Y-30107712D01*
X69557856Y-30103897D01*
X69555097Y-30100704D01*
X69549262Y-30093261D01*
X69546885Y-30089911D01*
X69543966Y-30085558D01*
X69543285Y-30084482D01*
X69543284Y-30084479D01*
X69543281Y-30084476D01*
X69542480Y-30083210D01*
X69540377Y-30081221D01*
X69536675Y-30077529D01*
X69533925Y-30074638D01*
X69527757Y-30067501D01*
X69525288Y-30064352D01*
X69522155Y-30060127D01*
X69520506Y-30057775D01*
X69519359Y-30056790D01*
X69519358Y-30056789D01*
X69519355Y-30056787D01*
X69518296Y-30055878D01*
X69514369Y-30052320D01*
X69511529Y-30049605D01*
X69505035Y-30042776D01*
X69502496Y-30039838D01*
X69499140Y-30035738D01*
X69498275Y-30034621D01*
X69497118Y-30033616D01*
X69496134Y-30032477D01*
X69495356Y-30032086D01*
X69490961Y-30028269D01*
X69490959Y-30028267D01*
X69487996Y-30025694D01*
X69481183Y-30019181D01*
X69478487Y-30016346D01*
X69474932Y-30012401D01*
X69474039Y-30011355D01*
X69474036Y-30011353D01*
X69474036Y-30011352D01*
X69472844Y-30010412D01*
X69471807Y-30009322D01*
X69471014Y-30008970D01*
X69466450Y-30005372D01*
X69466448Y-30005370D01*
X69463358Y-30002934D01*
X69456229Y-29996742D01*
X69453318Y-29993959D01*
X69449606Y-29990216D01*
X69448669Y-29989219D01*
X69447447Y-29988347D01*
X69446405Y-29987351D01*
X69445627Y-29987049D01*
X69440985Y-29983737D01*
X69440984Y-29983736D01*
X69437622Y-29981338D01*
X69430184Y-29975477D01*
X69427038Y-29972744D01*
X69423199Y-29969227D01*
X69422230Y-29968291D01*
X69420999Y-29967499D01*
X69419969Y-29966604D01*
X69419215Y-29966351D01*
X69414532Y-29963339D01*
X69414531Y-29963338D01*
X69411908Y-29961651D01*
X69410876Y-29960987D01*
X69403153Y-29955479D01*
X69399595Y-29952674D01*
X69395623Y-29949370D01*
X69394752Y-29948606D01*
X69393562Y-29947919D01*
X69392556Y-29947126D01*
X69391836Y-29946923D01*
X69383097Y-29941878D01*
X69375097Y-29936732D01*
X69371147Y-29933914D01*
X69367027Y-29930810D01*
X69366268Y-29930206D01*
X69366267Y-29930205D01*
X69365123Y-29929616D01*
X69364186Y-29928948D01*
X69363527Y-29928795D01*
X69361236Y-29927616D01*
X69358975Y-29926453D01*
X69354375Y-29924087D01*
X69346098Y-29919310D01*
X69341629Y-29916435D01*
X69337478Y-29913614D01*
X69336831Y-29913150D01*
X69336829Y-29913148D01*
X69336825Y-29913146D01*
X69335768Y-29912666D01*
X69334917Y-29912118D01*
X69334326Y-29912011D01*
X69329936Y-29910016D01*
X69329928Y-29910012D01*
X69324763Y-29907666D01*
X69316235Y-29903280D01*
X69311063Y-29900295D01*
X69306803Y-29897691D01*
X69306470Y-29897475D01*
X69305532Y-29897103D01*
X69304787Y-29896673D01*
X69304277Y-29896605D01*
X69300090Y-29894945D01*
X69294240Y-29892625D01*
X69285459Y-29888637D01*
X69279571Y-29885609D01*
X69275269Y-29883261D01*
X69275232Y-29883239D01*
X69274430Y-29882966D01*
X69273832Y-29882658D01*
X69273427Y-29882624D01*
X69269583Y-29881316D01*
X69269554Y-29881307D01*
X69262916Y-29879045D01*
X69253905Y-29875473D01*
X69247061Y-29872363D01*
X69243243Y-29870515D01*
X69243176Y-29870495D01*
X69243175Y-29870495D01*
X69242558Y-29870318D01*
X69242115Y-29870117D01*
X69241819Y-29870107D01*
X69238315Y-29869103D01*
X69238314Y-29869102D01*
X69230808Y-29866954D01*
X69221559Y-29863805D01*
X69213703Y-29860690D01*
X69210491Y-29859327D01*
X69209934Y-29859197D01*
X69209669Y-29859092D01*
X69209491Y-29859093D01*
X69206528Y-29858403D01*
X69197971Y-29856408D01*
X69188534Y-29853708D01*
X69179505Y-29850633D01*
X69177009Y-29849717D01*
X69176594Y-29849642D01*
X69176556Y-29849629D01*
X69176528Y-29849630D01*
X69174503Y-29849265D01*
X69174501Y-29849264D01*
X69174470Y-29849259D01*
X69164435Y-29847444D01*
X69154811Y-29845203D01*
X69144505Y-29842253D01*
X69142906Y-29841755D01*
X69142082Y-29841648D01*
X69141295Y-29841546D01*
X69141293Y-29841545D01*
X69130304Y-29840123D01*
X69120540Y-29838358D01*
X69108761Y-29835612D01*
X69108206Y-29835469D01*
X69107727Y-29835431D01*
X69107695Y-29835430D01*
X69095586Y-29834480D01*
X69085706Y-29833202D01*
X69073054Y-29830913D01*
X69060358Y-29830560D01*
X69050402Y-29829779D01*
X69038496Y-29828237D01*
X69033667Y-29828564D01*
X69019246Y-29828485D01*
X69002903Y-29827202D01*
X69002901Y-29827202D01*
X69002899Y-29827202D01*
X69002896Y-29827202D01*
X68998041Y-29827778D01*
X68987606Y-29828458D01*
X68985637Y-29828482D01*
X68966988Y-29827964D01*
X68964969Y-29828735D01*
X68954511Y-29828863D01*
X68954220Y-29828772D01*
X68953046Y-29828870D01*
X57799246Y-29800258D01*
X57741104Y-29781201D01*
X57705267Y-29731609D01*
X57700500Y-29701258D01*
X57700500Y-27462688D01*
X58548491Y-27462688D01*
X58549372Y-27497492D01*
X58549372Y-27502498D01*
X58548491Y-27537306D01*
X58551128Y-27571973D01*
X58551381Y-27576978D01*
X58552244Y-27611113D01*
X58552237Y-27611398D01*
X58552305Y-27611782D01*
X58556598Y-27645568D01*
X58557103Y-27650537D01*
X58559617Y-27683581D01*
X58559645Y-27684583D01*
X58559886Y-27685638D01*
X58565701Y-27718201D01*
X58566453Y-27723123D01*
X58570515Y-27755083D01*
X58570642Y-27756701D01*
X58571125Y-27758414D01*
X58578341Y-27789685D01*
X58579334Y-27794538D01*
X58584854Y-27825443D01*
X58585140Y-27827655D01*
X58585894Y-27829893D01*
X58594446Y-27860010D01*
X58595664Y-27864745D01*
X58602553Y-27894591D01*
X58602561Y-27894625D01*
X58603048Y-27897322D01*
X58604126Y-27900064D01*
X58613889Y-27928920D01*
X58615345Y-27933602D01*
X58623526Y-27962409D01*
X58624269Y-27965612D01*
X58625692Y-27968760D01*
X58636617Y-27996468D01*
X58638296Y-28001054D01*
X58647698Y-28028843D01*
X58648713Y-28032405D01*
X58650489Y-28035871D01*
X58662510Y-28062460D01*
X58664400Y-28066929D01*
X58674959Y-28093708D01*
X58676283Y-28097619D01*
X58678418Y-28101323D01*
X58678446Y-28101377D01*
X58691487Y-28126840D01*
X58693580Y-28131186D01*
X58705272Y-28157048D01*
X58706893Y-28161154D01*
X58709363Y-28164999D01*
X58723438Y-28189480D01*
X58725726Y-28193692D01*
X58738426Y-28218487D01*
X58740350Y-28222759D01*
X58740570Y-28223141D01*
X58743369Y-28227046D01*
X58758270Y-28250288D01*
X58760750Y-28254371D01*
X58777848Y-28284108D01*
X58779973Y-28286801D01*
X58795911Y-28309215D01*
X58798570Y-28313151D01*
X58811610Y-28333489D01*
X58813191Y-28335956D01*
X58813332Y-28336175D01*
X58815074Y-28339215D01*
X58816175Y-28340609D01*
X58816214Y-28340671D01*
X58816234Y-28340685D01*
X58819150Y-28344379D01*
X58819159Y-28344403D01*
X58819276Y-28344539D01*
X58836254Y-28366143D01*
X58836264Y-28366155D01*
X58839095Y-28369942D01*
X58854721Y-28391916D01*
X58854826Y-28392063D01*
X58857533Y-28396302D01*
X58857997Y-28396892D01*
X58861513Y-28400557D01*
X58861642Y-28400706D01*
X58879199Y-28420974D01*
X58882209Y-28424622D01*
X58898905Y-28445867D01*
X58900392Y-28447758D01*
X58902064Y-28449886D01*
X58902092Y-28449958D01*
X58902255Y-28450129D01*
X58902435Y-28450358D01*
X58902436Y-28450358D01*
X58903454Y-28451653D01*
X58906093Y-28454155D01*
X58924692Y-28473662D01*
X58927848Y-28477135D01*
X58945473Y-28497482D01*
X58945492Y-28497505D01*
X58948863Y-28501398D01*
X58948898Y-28501478D01*
X58949088Y-28501659D01*
X58950353Y-28503120D01*
X58953116Y-28505500D01*
X58972609Y-28524084D01*
X58975944Y-28527419D01*
X58996455Y-28548933D01*
X58998067Y-28550625D01*
X58998108Y-28550706D01*
X58998312Y-28550882D01*
X58999697Y-28552336D01*
X59002618Y-28554613D01*
X59022857Y-28572144D01*
X59026335Y-28575306D01*
X59045890Y-28593951D01*
X59045891Y-28593951D01*
X59045952Y-28594009D01*
X59049595Y-28597482D01*
X59049642Y-28597565D01*
X59049871Y-28597745D01*
X59050041Y-28597907D01*
X59050042Y-28597907D01*
X59051302Y-28599108D01*
X59054264Y-28601197D01*
X59075378Y-28617789D01*
X59079008Y-28620785D01*
X59086798Y-28627533D01*
X59099600Y-28638623D01*
X59099703Y-28638712D01*
X59103377Y-28641904D01*
X59103408Y-28641952D01*
X59103541Y-28642046D01*
X59104911Y-28643236D01*
X59107902Y-28645148D01*
X59130084Y-28660922D01*
X59133835Y-28663727D01*
X59155019Y-28680374D01*
X59155200Y-28680516D01*
X59158956Y-28683792D01*
X59160021Y-28684548D01*
X59164246Y-28686940D01*
X59186836Y-28701421D01*
X59190776Y-28704082D01*
X59192949Y-28705627D01*
X59213256Y-28720068D01*
X59214333Y-28720846D01*
X59220975Y-28725711D01*
X59226036Y-28727982D01*
X59245618Y-28739242D01*
X59245623Y-28739245D01*
X59249688Y-28741714D01*
X59277198Y-28759350D01*
X59277199Y-28759350D01*
X59277271Y-28759396D01*
X59277279Y-28759405D01*
X59277309Y-28759420D01*
X59278700Y-28760312D01*
X59281566Y-28761601D01*
X59306313Y-28774275D01*
X59310519Y-28776559D01*
X59335006Y-28790640D01*
X59340324Y-28793698D01*
X59343015Y-28794757D01*
X59368807Y-28806417D01*
X59368820Y-28806423D01*
X59373166Y-28808517D01*
X59398673Y-28821581D01*
X59403780Y-28824197D01*
X59406365Y-28825070D01*
X59433061Y-28835596D01*
X59437525Y-28837483D01*
X59467192Y-28850895D01*
X59467194Y-28850895D01*
X59468867Y-28851651D01*
X59471186Y-28852311D01*
X59498990Y-28861718D01*
X59503500Y-28863370D01*
X59533764Y-28875303D01*
X59533766Y-28875302D01*
X59535528Y-28875997D01*
X59537614Y-28876481D01*
X59566384Y-28884650D01*
X59571036Y-28886095D01*
X59601805Y-28896507D01*
X59601806Y-28896506D01*
X59603646Y-28897129D01*
X59605430Y-28897450D01*
X59628761Y-28902835D01*
X59635243Y-28904331D01*
X59639995Y-28905552D01*
X59671201Y-28914415D01*
X59671203Y-28914414D01*
X59673129Y-28914961D01*
X59674557Y-28915146D01*
X59705492Y-28920670D01*
X59710277Y-28921649D01*
X59741852Y-28928937D01*
X59741853Y-28928936D01*
X59743869Y-28929402D01*
X59744913Y-28929484D01*
X59776898Y-28933548D01*
X59781788Y-28934295D01*
X59813650Y-28939986D01*
X59813652Y-28939985D01*
X59814349Y-28940110D01*
X59814351Y-28940110D01*
X59815778Y-28940365D01*
X59816421Y-28940383D01*
X59817224Y-28940444D01*
X59817226Y-28940445D01*
X59849479Y-28942897D01*
X59854405Y-28943397D01*
X59886485Y-28947474D01*
X59886485Y-28947473D01*
X59888235Y-28947696D01*
X59888241Y-28947697D01*
X59888724Y-28947758D01*
X59888926Y-28947754D01*
X59890735Y-28947799D01*
X59890736Y-28947800D01*
X59923015Y-28948615D01*
X59927995Y-28948867D01*
X59960240Y-28951320D01*
X59960241Y-28951319D01*
X59962696Y-28951506D01*
X59965196Y-28951442D01*
X59965200Y-28951444D01*
X59997511Y-28950626D01*
X60002489Y-28950626D01*
X60034800Y-28951444D01*
X60034803Y-28951442D01*
X60037304Y-28951506D01*
X60039758Y-28951319D01*
X60039760Y-28951320D01*
X60072007Y-28948867D01*
X60076983Y-28948615D01*
X60109264Y-28947800D01*
X60109264Y-28947799D01*
X60111085Y-28947754D01*
X60111396Y-28947760D01*
X60111777Y-28947694D01*
X60113512Y-28947473D01*
X60113515Y-28947474D01*
X60145582Y-28943398D01*
X60150523Y-28942897D01*
X60182774Y-28940445D01*
X60182775Y-28940444D01*
X60183581Y-28940383D01*
X60184580Y-28940355D01*
X60185656Y-28940109D01*
X60186347Y-28939985D01*
X60186350Y-28939986D01*
X60218223Y-28934293D01*
X60223094Y-28933548D01*
X60255089Y-28929483D01*
X60256702Y-28929357D01*
X60258394Y-28928880D01*
X60289736Y-28921646D01*
X60294529Y-28920666D01*
X60325442Y-28915146D01*
X60327655Y-28914860D01*
X60329928Y-28914094D01*
X60359985Y-28905558D01*
X60364753Y-28904331D01*
X60394581Y-28897447D01*
X60397326Y-28896954D01*
X60400093Y-28895864D01*
X60428922Y-28886108D01*
X60433592Y-28884655D01*
X60462406Y-28876474D01*
X60465611Y-28875732D01*
X60468781Y-28874298D01*
X60496472Y-28863379D01*
X60501033Y-28861710D01*
X60528812Y-28852311D01*
X60532403Y-28851290D01*
X60535900Y-28849496D01*
X60562482Y-28837479D01*
X60566898Y-28835611D01*
X60593654Y-28825062D01*
X60597613Y-28823725D01*
X60601359Y-28821564D01*
X60626873Y-28808496D01*
X60631164Y-28806429D01*
X60656929Y-28794782D01*
X60661129Y-28793131D01*
X60665046Y-28790610D01*
X60689506Y-28776544D01*
X60693649Y-28774294D01*
X60718354Y-28761641D01*
X60722614Y-28759732D01*
X60723178Y-28759407D01*
X60727092Y-28756599D01*
X60750329Y-28741702D01*
X60754380Y-28739242D01*
X60777287Y-28726070D01*
X60782344Y-28723562D01*
X60782467Y-28723482D01*
X60787005Y-28719882D01*
X60809207Y-28704093D01*
X60809233Y-28704074D01*
X60813097Y-28701463D01*
X60835748Y-28686943D01*
X60840362Y-28684335D01*
X60840879Y-28683966D01*
X60844967Y-28680383D01*
X60866170Y-28663722D01*
X60869921Y-28660917D01*
X60892521Y-28644846D01*
X60896206Y-28642233D01*
X60896246Y-28642220D01*
X60896339Y-28642138D01*
X60897963Y-28640987D01*
X60900640Y-28638412D01*
X60920988Y-28620785D01*
X60924620Y-28617789D01*
X60945705Y-28601219D01*
X60949939Y-28598237D01*
X60950622Y-28597644D01*
X60954221Y-28593843D01*
X60973665Y-28575305D01*
X60977145Y-28572141D01*
X60997357Y-28554632D01*
X61001492Y-28551412D01*
X61002146Y-28550788D01*
X61005553Y-28546827D01*
X61024050Y-28527425D01*
X61024090Y-28527382D01*
X61027399Y-28524073D01*
X61046852Y-28505527D01*
X61050929Y-28502019D01*
X61051346Y-28501582D01*
X61054636Y-28497354D01*
X61072167Y-28477116D01*
X61075320Y-28473649D01*
X61075330Y-28473639D01*
X61094483Y-28453549D01*
X61097493Y-28450398D01*
X61097565Y-28450359D01*
X61097717Y-28450164D01*
X61099130Y-28448686D01*
X61101272Y-28445639D01*
X61117796Y-28424612D01*
X61120776Y-28421001D01*
X61138381Y-28400676D01*
X61138475Y-28400570D01*
X61141914Y-28396613D01*
X61141955Y-28396589D01*
X61142038Y-28396471D01*
X61143312Y-28395006D01*
X61145277Y-28391916D01*
X61160634Y-28370320D01*
X61160908Y-28369934D01*
X61163744Y-28366143D01*
X61180517Y-28344800D01*
X61180684Y-28344588D01*
X61183769Y-28340682D01*
X61183785Y-28340672D01*
X61183814Y-28340626D01*
X61185005Y-28339119D01*
X61186800Y-28335967D01*
X61201457Y-28313105D01*
X61204087Y-28309215D01*
X61219834Y-28287070D01*
X61222057Y-28284272D01*
X61239241Y-28254384D01*
X61241706Y-28250324D01*
X61256644Y-28227025D01*
X61259434Y-28223133D01*
X61259695Y-28222680D01*
X61261614Y-28218408D01*
X61274279Y-28193678D01*
X61276560Y-28189480D01*
X61292827Y-28161190D01*
X61292827Y-28161186D01*
X61293707Y-28159656D01*
X61294772Y-28156951D01*
X61306423Y-28131177D01*
X61308512Y-28126840D01*
X61323372Y-28097828D01*
X61323372Y-28097824D01*
X61324193Y-28096222D01*
X61325058Y-28093664D01*
X61335623Y-28066866D01*
X61337471Y-28062495D01*
X61350894Y-28032809D01*
X61350894Y-28032806D01*
X61351653Y-28031128D01*
X61352308Y-28028823D01*
X61361717Y-28001011D01*
X61363371Y-27996495D01*
X61375303Y-27966236D01*
X61375302Y-27966233D01*
X61375994Y-27964480D01*
X61376479Y-27962388D01*
X61384663Y-27933569D01*
X61386099Y-27928951D01*
X61396507Y-27898193D01*
X61396506Y-27898190D01*
X61397127Y-27896358D01*
X61397441Y-27894615D01*
X61404337Y-27864729D01*
X61405559Y-27859984D01*
X61414415Y-27828801D01*
X61414414Y-27828798D01*
X61414961Y-27826874D01*
X61415148Y-27825430D01*
X61417516Y-27812169D01*
X61420666Y-27794530D01*
X61421657Y-27789685D01*
X61428937Y-27758144D01*
X61428936Y-27758142D01*
X61429403Y-27756121D01*
X61429486Y-27755071D01*
X61433548Y-27723102D01*
X61434295Y-27718212D01*
X61439986Y-27686350D01*
X61439985Y-27686348D01*
X61440112Y-27685642D01*
X61440113Y-27685636D01*
X61440364Y-27684226D01*
X61440383Y-27683575D01*
X61440443Y-27682775D01*
X61440445Y-27682773D01*
X61442897Y-27650518D01*
X61443400Y-27645570D01*
X61447474Y-27613514D01*
X61447473Y-27613511D01*
X61447694Y-27611776D01*
X61447694Y-27611773D01*
X61447758Y-27611268D01*
X61447754Y-27611084D01*
X61448615Y-27576996D01*
X61448868Y-27571990D01*
X61448869Y-27571978D01*
X61451320Y-27539759D01*
X61451318Y-27539754D01*
X61451506Y-27537288D01*
X61451443Y-27534802D01*
X61451444Y-27534800D01*
X61450627Y-27502486D01*
X61450627Y-27497491D01*
X61451507Y-27462712D01*
X61451505Y-27462688D01*
X176548491Y-27462688D01*
X176549372Y-27497492D01*
X176549372Y-27502498D01*
X176548491Y-27537306D01*
X176551128Y-27571973D01*
X176551381Y-27576978D01*
X176552244Y-27611113D01*
X176552237Y-27611398D01*
X176552305Y-27611782D01*
X176556598Y-27645567D01*
X176557103Y-27650535D01*
X176559617Y-27683576D01*
X176559645Y-27684583D01*
X176559890Y-27685655D01*
X176565701Y-27718196D01*
X176566453Y-27723120D01*
X176570513Y-27755069D01*
X176570641Y-27756697D01*
X176571116Y-27758385D01*
X176578341Y-27789685D01*
X176579334Y-27794541D01*
X176584850Y-27825430D01*
X176584854Y-27825449D01*
X176585138Y-27827649D01*
X176585899Y-27829907D01*
X176594442Y-27859991D01*
X176595671Y-27864772D01*
X176602559Y-27894618D01*
X176603048Y-27897328D01*
X176604124Y-27900064D01*
X176613891Y-27928930D01*
X176615348Y-27933615D01*
X176623526Y-27962412D01*
X176624269Y-27965614D01*
X176625693Y-27968765D01*
X176636616Y-27996468D01*
X176638295Y-28001054D01*
X176647697Y-28028843D01*
X176648712Y-28032405D01*
X176650488Y-28035871D01*
X176662509Y-28062460D01*
X176664399Y-28066929D01*
X176674958Y-28093708D01*
X176676282Y-28097619D01*
X176678417Y-28101323D01*
X176678445Y-28101377D01*
X176691486Y-28126840D01*
X176693579Y-28131186D01*
X176705271Y-28157048D01*
X176706892Y-28161154D01*
X176709362Y-28164999D01*
X176723437Y-28189480D01*
X176725725Y-28193692D01*
X176738425Y-28218487D01*
X176740349Y-28222759D01*
X176740569Y-28223141D01*
X176743368Y-28227046D01*
X176758269Y-28250288D01*
X176760749Y-28254371D01*
X176777847Y-28284108D01*
X176779972Y-28286801D01*
X176795910Y-28309215D01*
X176798569Y-28313151D01*
X176811609Y-28333489D01*
X176813190Y-28335956D01*
X176813331Y-28336175D01*
X176815073Y-28339215D01*
X176816174Y-28340609D01*
X176816213Y-28340671D01*
X176816233Y-28340685D01*
X176819149Y-28344379D01*
X176819158Y-28344403D01*
X176819275Y-28344539D01*
X176836253Y-28366143D01*
X176836263Y-28366155D01*
X176839094Y-28369942D01*
X176854720Y-28391916D01*
X176854825Y-28392063D01*
X176857532Y-28396302D01*
X176857996Y-28396892D01*
X176861512Y-28400557D01*
X176861641Y-28400706D01*
X176879198Y-28420974D01*
X176882208Y-28424622D01*
X176898904Y-28445867D01*
X176900391Y-28447758D01*
X176902063Y-28449886D01*
X176902091Y-28449958D01*
X176902254Y-28450129D01*
X176902434Y-28450358D01*
X176902435Y-28450358D01*
X176903453Y-28451653D01*
X176906092Y-28454155D01*
X176924687Y-28473658D01*
X176927846Y-28477134D01*
X176930262Y-28479923D01*
X176948858Y-28501392D01*
X176948896Y-28501476D01*
X176949099Y-28501670D01*
X176949291Y-28501891D01*
X176949299Y-28501895D01*
X176950411Y-28503177D01*
X176953155Y-28505538D01*
X176972604Y-28524080D01*
X176975940Y-28527416D01*
X176995576Y-28548012D01*
X176998066Y-28550627D01*
X176998106Y-28550706D01*
X176998302Y-28550875D01*
X176999695Y-28552338D01*
X177002627Y-28554622D01*
X177022833Y-28572126D01*
X177026326Y-28575301D01*
X177045939Y-28594000D01*
X177045948Y-28594009D01*
X177049595Y-28597487D01*
X177049640Y-28597565D01*
X177049850Y-28597730D01*
X177051198Y-28599015D01*
X177054107Y-28601075D01*
X177054264Y-28601199D01*
X177075365Y-28617781D01*
X177079014Y-28620792D01*
X177099597Y-28638622D01*
X177099701Y-28638712D01*
X177103375Y-28641904D01*
X177103406Y-28641952D01*
X177103539Y-28642046D01*
X177104910Y-28643237D01*
X177107905Y-28645151D01*
X177130051Y-28660900D01*
X177133847Y-28663739D01*
X177155357Y-28680642D01*
X177155378Y-28680658D01*
X177159288Y-28683732D01*
X177159327Y-28683787D01*
X177159494Y-28683894D01*
X177160933Y-28685025D01*
X177163917Y-28686730D01*
X177186849Y-28701431D01*
X177190789Y-28704093D01*
X177199297Y-28710143D01*
X177212961Y-28719860D01*
X177218027Y-28723880D01*
X177220464Y-28725483D01*
X177226030Y-28727980D01*
X177243822Y-28738211D01*
X177245632Y-28739252D01*
X177249709Y-28741729D01*
X177273174Y-28756772D01*
X177277269Y-28759397D01*
X177277276Y-28759405D01*
X177277303Y-28759419D01*
X177278695Y-28760311D01*
X177281556Y-28761597D01*
X177306312Y-28774276D01*
X177310522Y-28776563D01*
X177338805Y-28792826D01*
X177338806Y-28792826D01*
X177340321Y-28793697D01*
X177343008Y-28794755D01*
X177368848Y-28806436D01*
X177373137Y-28808503D01*
X177398673Y-28821582D01*
X177398674Y-28821583D01*
X177403774Y-28824195D01*
X177406358Y-28825068D01*
X177422189Y-28831310D01*
X177433060Y-28835597D01*
X177437525Y-28837485D01*
X177464112Y-28849504D01*
X177467187Y-28850894D01*
X177467188Y-28850894D01*
X177468861Y-28851650D01*
X177471179Y-28852309D01*
X177498936Y-28861701D01*
X177498963Y-28861710D01*
X177503527Y-28863381D01*
X177533763Y-28875303D01*
X177533764Y-28875302D01*
X177535522Y-28875996D01*
X177537599Y-28876477D01*
X177566388Y-28884652D01*
X177571072Y-28886109D01*
X177599926Y-28895873D01*
X177599927Y-28895873D01*
X177603628Y-28897125D01*
X177605396Y-28897443D01*
X177635250Y-28904334D01*
X177640008Y-28905558D01*
X177670065Y-28914094D01*
X177670066Y-28914094D01*
X177673124Y-28914962D01*
X177674570Y-28915149D01*
X177705428Y-28920659D01*
X177710289Y-28921653D01*
X177723601Y-28924725D01*
X177741847Y-28928937D01*
X177741848Y-28928936D01*
X177743875Y-28929404D01*
X177744933Y-28929487D01*
X177771276Y-28932834D01*
X177776870Y-28933545D01*
X177781784Y-28934295D01*
X177813646Y-28939986D01*
X177813648Y-28939985D01*
X177814345Y-28940110D01*
X177814347Y-28940110D01*
X177815774Y-28940365D01*
X177816418Y-28940383D01*
X177817219Y-28940443D01*
X177817222Y-28940445D01*
X177849478Y-28942897D01*
X177854400Y-28943397D01*
X177886481Y-28947474D01*
X177886481Y-28947473D01*
X177888229Y-28947696D01*
X177888228Y-28947696D01*
X177888717Y-28947758D01*
X177888911Y-28947754D01*
X177893038Y-28947858D01*
X177923008Y-28948615D01*
X177927994Y-28948867D01*
X177960237Y-28951320D01*
X177960238Y-28951319D01*
X177962701Y-28951507D01*
X177965195Y-28951443D01*
X177965196Y-28951444D01*
X177997507Y-28950626D01*
X178002485Y-28950626D01*
X178034796Y-28951444D01*
X178034799Y-28951442D01*
X178037300Y-28951506D01*
X178039754Y-28951319D01*
X178039756Y-28951320D01*
X178072003Y-28948867D01*
X178076979Y-28948615D01*
X178105808Y-28947887D01*
X178111083Y-28947754D01*
X178111393Y-28947760D01*
X178111768Y-28947695D01*
X178113510Y-28947473D01*
X178113512Y-28947474D01*
X178145591Y-28943397D01*
X178150513Y-28942897D01*
X178182771Y-28940445D01*
X178182772Y-28940444D01*
X178183578Y-28940383D01*
X178184577Y-28940355D01*
X178185653Y-28940109D01*
X178186344Y-28939985D01*
X178186347Y-28939986D01*
X178218220Y-28934293D01*
X178223091Y-28933548D01*
X178255086Y-28929483D01*
X178256699Y-28929357D01*
X178258391Y-28928880D01*
X178289733Y-28921646D01*
X178294526Y-28920666D01*
X178325439Y-28915146D01*
X178327652Y-28914860D01*
X178329925Y-28914094D01*
X178359982Y-28905558D01*
X178364757Y-28904330D01*
X178368689Y-28903422D01*
X178394599Y-28897443D01*
X178397321Y-28896952D01*
X178400071Y-28895870D01*
X178428945Y-28886100D01*
X178433580Y-28884659D01*
X178462391Y-28876477D01*
X178465607Y-28875732D01*
X178468769Y-28874302D01*
X178496497Y-28863368D01*
X178501004Y-28861718D01*
X178528804Y-28852313D01*
X178532399Y-28851291D01*
X178535890Y-28849500D01*
X178562478Y-28837479D01*
X178566893Y-28835612D01*
X178593656Y-28825060D01*
X178597612Y-28823724D01*
X178601362Y-28821560D01*
X178626855Y-28808503D01*
X178631144Y-28806436D01*
X178656888Y-28794798D01*
X178661136Y-28793130D01*
X178661169Y-28793113D01*
X178665120Y-28790566D01*
X178689499Y-28776548D01*
X178693664Y-28774285D01*
X178718345Y-28761645D01*
X178722608Y-28759734D01*
X178723131Y-28759433D01*
X178727045Y-28756628D01*
X178750327Y-28741702D01*
X178754378Y-28739242D01*
X178777285Y-28726070D01*
X178782342Y-28723562D01*
X178782465Y-28723482D01*
X178787003Y-28719882D01*
X178809205Y-28704093D01*
X178809231Y-28704074D01*
X178813095Y-28701463D01*
X178835746Y-28686943D01*
X178840360Y-28684335D01*
X178840878Y-28683965D01*
X178844968Y-28680381D01*
X178866174Y-28663717D01*
X178869894Y-28660935D01*
X178891768Y-28645379D01*
X178895995Y-28642703D01*
X178896974Y-28641933D01*
X178900628Y-28638422D01*
X178900649Y-28638404D01*
X178920998Y-28620776D01*
X178924599Y-28617804D01*
X178945638Y-28601271D01*
X178949834Y-28598321D01*
X178950667Y-28597599D01*
X178954236Y-28593824D01*
X178973660Y-28575305D01*
X178977109Y-28572170D01*
X178998088Y-28553997D01*
X179001406Y-28551131D01*
X179001476Y-28551101D01*
X179001632Y-28550936D01*
X179003115Y-28549655D01*
X179005542Y-28546834D01*
X179024087Y-28527382D01*
X179027396Y-28524073D01*
X179046848Y-28505528D01*
X179050926Y-28502019D01*
X179051343Y-28501582D01*
X179054633Y-28497354D01*
X179072164Y-28477116D01*
X179075317Y-28473649D01*
X179075327Y-28473639D01*
X179094480Y-28453549D01*
X179097490Y-28450398D01*
X179097562Y-28450359D01*
X179097714Y-28450164D01*
X179099127Y-28448686D01*
X179101269Y-28445639D01*
X179117793Y-28424612D01*
X179120773Y-28421001D01*
X179138378Y-28400676D01*
X179138472Y-28400570D01*
X179141911Y-28396613D01*
X179141952Y-28396589D01*
X179142035Y-28396471D01*
X179143309Y-28395006D01*
X179145274Y-28391916D01*
X179160631Y-28370320D01*
X179160905Y-28369934D01*
X179163741Y-28366143D01*
X179180514Y-28344800D01*
X179180681Y-28344588D01*
X179183766Y-28340682D01*
X179183782Y-28340672D01*
X179183811Y-28340626D01*
X179185002Y-28339119D01*
X179186797Y-28335967D01*
X179201454Y-28313105D01*
X179204084Y-28309215D01*
X179219831Y-28287070D01*
X179222054Y-28284272D01*
X179239238Y-28254384D01*
X179241703Y-28250324D01*
X179256641Y-28227025D01*
X179259431Y-28223133D01*
X179259692Y-28222680D01*
X179261611Y-28218408D01*
X179274276Y-28193678D01*
X179276557Y-28189480D01*
X179292824Y-28161190D01*
X179292824Y-28161186D01*
X179293704Y-28159656D01*
X179294769Y-28156951D01*
X179306420Y-28131177D01*
X179308509Y-28126840D01*
X179323369Y-28097828D01*
X179323369Y-28097824D01*
X179324190Y-28096222D01*
X179325055Y-28093664D01*
X179335620Y-28066866D01*
X179337468Y-28062495D01*
X179350891Y-28032809D01*
X179350891Y-28032806D01*
X179351650Y-28031128D01*
X179352305Y-28028823D01*
X179361714Y-28001011D01*
X179363364Y-27996505D01*
X179375300Y-27966236D01*
X179375299Y-27966230D01*
X179375992Y-27964474D01*
X179376475Y-27962393D01*
X179384652Y-27933594D01*
X179386091Y-27928966D01*
X179396504Y-27898193D01*
X179396503Y-27898188D01*
X179397123Y-27896357D01*
X179397440Y-27894600D01*
X179404328Y-27864756D01*
X179405553Y-27859991D01*
X179414412Y-27828798D01*
X179414411Y-27828797D01*
X179414958Y-27826873D01*
X179415145Y-27825430D01*
X179420661Y-27794542D01*
X179421656Y-27789680D01*
X179428873Y-27758410D01*
X179429398Y-27756131D01*
X179429482Y-27755067D01*
X179433543Y-27723110D01*
X179434293Y-27718204D01*
X179434294Y-27718196D01*
X179439982Y-27686347D01*
X179439981Y-27686345D01*
X179440102Y-27685672D01*
X179440104Y-27685659D01*
X179440361Y-27684216D01*
X179440379Y-27683602D01*
X179442892Y-27650546D01*
X179443397Y-27645570D01*
X179443397Y-27645567D01*
X179447471Y-27613517D01*
X179447470Y-27613515D01*
X179447693Y-27611766D01*
X179447754Y-27611276D01*
X179447751Y-27611109D01*
X179448613Y-27576986D01*
X179448614Y-27576978D01*
X179448613Y-27576968D01*
X179448864Y-27571998D01*
X179451317Y-27539759D01*
X179451316Y-27539756D01*
X179451503Y-27537301D01*
X179450623Y-27502498D01*
X179450623Y-27497493D01*
X179451503Y-27462690D01*
X179451317Y-27460240D01*
X179448865Y-27428001D01*
X179448613Y-27423026D01*
X179447798Y-27390739D01*
X179447797Y-27390738D01*
X179447751Y-27388892D01*
X179447757Y-27388601D01*
X179447693Y-27388234D01*
X179447470Y-27386483D01*
X179447471Y-27386482D01*
X179443398Y-27354432D01*
X179443397Y-27354425D01*
X179442892Y-27349452D01*
X179442168Y-27339925D01*
X179440442Y-27317226D01*
X179440441Y-27317225D01*
X179440380Y-27316416D01*
X179440352Y-27315425D01*
X179440104Y-27314338D01*
X179434292Y-27281791D01*
X179433540Y-27276868D01*
X179429482Y-27244931D01*
X179429354Y-27243300D01*
X179428881Y-27241624D01*
X179421646Y-27210277D01*
X179420666Y-27205484D01*
X179415144Y-27174560D01*
X179414858Y-27172351D01*
X179414092Y-27170075D01*
X179405558Y-27140024D01*
X179404328Y-27135243D01*
X179402832Y-27128761D01*
X179397447Y-27105427D01*
X179396953Y-27102685D01*
X179395868Y-27099927D01*
X179386092Y-27071036D01*
X179384651Y-27066400D01*
X179376475Y-27037606D01*
X179375731Y-27034396D01*
X179374295Y-27031218D01*
X179363385Y-27003549D01*
X179363384Y-27003547D01*
X179363379Y-27003534D01*
X179361707Y-26998966D01*
X179352306Y-26971182D01*
X179351289Y-26967605D01*
X179349502Y-26964117D01*
X179337482Y-26937528D01*
X179335594Y-26933063D01*
X179325068Y-26906369D01*
X179323731Y-26902410D01*
X179321579Y-26898676D01*
X179308500Y-26873140D01*
X179306418Y-26868818D01*
X179294793Y-26843102D01*
X179293136Y-26838882D01*
X179290585Y-26834917D01*
X179276571Y-26810544D01*
X179274280Y-26806327D01*
X179261617Y-26781603D01*
X179259691Y-26777318D01*
X179259555Y-26777080D01*
X179256770Y-26773174D01*
X179241709Y-26749682D01*
X179239245Y-26745626D01*
X179222968Y-26717316D01*
X179222966Y-26717314D01*
X179222081Y-26715775D01*
X179219888Y-26713008D01*
X179209700Y-26698680D01*
X179204082Y-26690780D01*
X179201428Y-26686851D01*
X179186834Y-26664088D01*
X179185060Y-26660968D01*
X179183846Y-26659427D01*
X179183782Y-26659327D01*
X179183748Y-26659303D01*
X179180718Y-26655458D01*
X179180711Y-26655439D01*
X179180635Y-26655352D01*
X179163730Y-26633840D01*
X179160903Y-26630060D01*
X179145241Y-26608035D01*
X179142558Y-26603820D01*
X179142021Y-26603137D01*
X179138503Y-26599466D01*
X179120789Y-26579017D01*
X179117778Y-26575368D01*
X179101250Y-26554336D01*
X179098486Y-26550409D01*
X179097469Y-26549235D01*
X179093955Y-26545898D01*
X179081614Y-26532954D01*
X179075299Y-26526330D01*
X179072141Y-26522854D01*
X179054580Y-26502580D01*
X179051567Y-26498718D01*
X179050659Y-26497764D01*
X179046938Y-26494555D01*
X179027387Y-26475915D01*
X179024082Y-26472609D01*
X179005498Y-26453116D01*
X179002202Y-26449289D01*
X179001471Y-26448592D01*
X178997480Y-26445473D01*
X178977133Y-26427848D01*
X178973643Y-26424676D01*
X178954163Y-26406103D01*
X178950721Y-26402471D01*
X178950063Y-26401901D01*
X178946016Y-26399024D01*
X178924631Y-26382219D01*
X178920980Y-26379206D01*
X178900448Y-26361420D01*
X178896900Y-26358027D01*
X178896314Y-26357566D01*
X178892244Y-26354955D01*
X178892077Y-26354836D01*
X178869920Y-26339080D01*
X178866138Y-26336252D01*
X178844719Y-26319419D01*
X178840865Y-26316063D01*
X178836499Y-26313539D01*
X178813145Y-26298567D01*
X178809214Y-26295912D01*
X178806516Y-26293994D01*
X178787128Y-26280207D01*
X178784318Y-26277971D01*
X178782641Y-26277007D01*
X178782575Y-26276969D01*
X178781429Y-26276310D01*
X178781428Y-26276309D01*
X178781413Y-26276301D01*
X178754371Y-26260752D01*
X178750288Y-26258271D01*
X178726953Y-26243311D01*
X178724237Y-26241370D01*
X178718782Y-26238576D01*
X178718780Y-26238574D01*
X178693685Y-26225722D01*
X178689465Y-26223430D01*
X178664990Y-26209357D01*
X178662407Y-26207697D01*
X178660861Y-26206998D01*
X178656998Y-26205251D01*
X178656997Y-26205250D01*
X178656993Y-26205249D01*
X178631168Y-26193572D01*
X178626828Y-26191481D01*
X178601343Y-26178429D01*
X178598811Y-26176970D01*
X178593744Y-26174972D01*
X178593736Y-26174969D01*
X178566919Y-26164396D01*
X178562472Y-26162515D01*
X178535845Y-26150477D01*
X178533501Y-26149276D01*
X178528828Y-26147695D01*
X178528827Y-26147694D01*
X178528824Y-26147693D01*
X178501032Y-26138289D01*
X178496464Y-26136616D01*
X178468769Y-26125696D01*
X178466600Y-26124716D01*
X178464843Y-26124217D01*
X178462421Y-26123529D01*
X178462420Y-26123528D01*
X178462414Y-26123527D01*
X178433612Y-26115347D01*
X178428938Y-26113894D01*
X178400071Y-26104127D01*
X178398172Y-26103380D01*
X178394588Y-26102553D01*
X178394587Y-26102552D01*
X178394584Y-26102552D01*
X178364770Y-26095671D01*
X178359991Y-26094442D01*
X178329906Y-26085899D01*
X178328336Y-26085370D01*
X178326422Y-26085028D01*
X178325444Y-26084853D01*
X178294539Y-26079334D01*
X178289687Y-26078341D01*
X178282260Y-26076627D01*
X178258373Y-26071114D01*
X178257207Y-26070785D01*
X178255080Y-26070515D01*
X178255069Y-26070514D01*
X178237502Y-26068281D01*
X178223126Y-26066454D01*
X178218212Y-26065703D01*
X178185657Y-26059891D01*
X178184876Y-26059712D01*
X178183619Y-26059617D01*
X178183611Y-26059617D01*
X178150531Y-26057101D01*
X178145561Y-26056597D01*
X178145553Y-26056596D01*
X178113515Y-26052525D01*
X178113513Y-26052525D01*
X178111763Y-26052303D01*
X178111481Y-26052253D01*
X178111105Y-26052244D01*
X178111104Y-26052243D01*
X178111104Y-26052244D01*
X178076975Y-26051381D01*
X178071972Y-26051128D01*
X178037298Y-26048491D01*
X178002496Y-26049371D01*
X177997497Y-26049371D01*
X177962684Y-26048492D01*
X177928019Y-26051128D01*
X177923016Y-26051381D01*
X177888891Y-26052244D01*
X177888596Y-26052237D01*
X177888234Y-26052301D01*
X177854430Y-26056596D01*
X177849463Y-26057101D01*
X177822900Y-26059122D01*
X177817222Y-26059554D01*
X177817221Y-26059554D01*
X177816396Y-26059617D01*
X177815422Y-26059644D01*
X177814346Y-26059890D01*
X177813650Y-26060014D01*
X177789659Y-26064297D01*
X177781801Y-26065701D01*
X177776881Y-26066452D01*
X177744937Y-26070512D01*
X177743293Y-26070641D01*
X177741601Y-26071118D01*
X177710309Y-26078340D01*
X177705452Y-26079334D01*
X177674545Y-26084854D01*
X177672347Y-26085138D01*
X177670087Y-26085899D01*
X177640030Y-26094434D01*
X177635254Y-26095662D01*
X177605405Y-26102552D01*
X177602677Y-26103044D01*
X177599928Y-26104125D01*
X177571061Y-26113892D01*
X177566379Y-26115348D01*
X177537580Y-26123527D01*
X177534394Y-26124266D01*
X177531235Y-26125693D01*
X177503511Y-26136623D01*
X177498936Y-26138298D01*
X177471186Y-26147689D01*
X177467593Y-26148712D01*
X177464154Y-26150474D01*
X177437540Y-26162506D01*
X177433072Y-26164396D01*
X177406260Y-26174968D01*
X177402390Y-26176279D01*
X177398698Y-26178404D01*
X177373148Y-26191490D01*
X177368803Y-26193583D01*
X177342945Y-26205274D01*
X177338867Y-26206884D01*
X177335071Y-26209319D01*
X177310538Y-26223425D01*
X177306322Y-26225716D01*
X177280909Y-26238732D01*
X177280905Y-26238734D01*
X177275991Y-26241250D01*
X177273450Y-26243048D01*
X177249684Y-26258282D01*
X177245612Y-26260756D01*
X177216093Y-26277731D01*
X177213539Y-26279728D01*
X177190787Y-26295907D01*
X177186849Y-26298567D01*
X177163678Y-26313423D01*
X177159729Y-26315695D01*
X177158948Y-26316249D01*
X177155442Y-26319288D01*
X177133838Y-26336265D01*
X177130041Y-26339105D01*
X177107804Y-26354918D01*
X177103886Y-26357428D01*
X177102940Y-26358170D01*
X177099521Y-26361443D01*
X177079015Y-26379206D01*
X177075367Y-26382217D01*
X177075366Y-26382218D01*
X177054059Y-26398962D01*
X177050112Y-26401761D01*
X177049376Y-26402398D01*
X177046023Y-26405918D01*
X177026340Y-26424685D01*
X177022861Y-26427848D01*
X177002514Y-26445473D01*
X177002448Y-26445530D01*
X176998732Y-26448438D01*
X176997683Y-26449438D01*
X176994582Y-26453028D01*
X176975932Y-26472589D01*
X176972595Y-26475926D01*
X176953025Y-26494583D01*
X176953026Y-26494584D01*
X176949374Y-26498066D01*
X176949290Y-26498109D01*
X176949099Y-26498329D01*
X176948896Y-26498523D01*
X176948894Y-26498525D01*
X176947706Y-26499660D01*
X176945498Y-26502484D01*
X176927850Y-26522858D01*
X176924675Y-26526353D01*
X176905994Y-26545946D01*
X176905993Y-26545945D01*
X176905504Y-26546459D01*
X176902516Y-26549594D01*
X176902436Y-26549640D01*
X176902260Y-26549862D01*
X176902091Y-26550041D01*
X176902081Y-26550064D01*
X176900892Y-26551318D01*
X176898879Y-26554164D01*
X176898745Y-26554336D01*
X176882221Y-26575362D01*
X176879212Y-26579008D01*
X176861382Y-26599590D01*
X176861383Y-26599591D01*
X176861116Y-26599899D01*
X176858117Y-26603362D01*
X176858044Y-26603409D01*
X176857890Y-26603625D01*
X176857777Y-26603756D01*
X176857773Y-26603765D01*
X176856697Y-26605011D01*
X176854863Y-26607880D01*
X176839091Y-26630060D01*
X176836249Y-26633860D01*
X176819413Y-26655281D01*
X176819414Y-26655282D01*
X176819050Y-26655746D01*
X176816265Y-26659291D01*
X176816213Y-26659328D01*
X176816108Y-26659491D01*
X176816041Y-26659577D01*
X176816034Y-26659600D01*
X176815031Y-26660882D01*
X176813423Y-26663678D01*
X176798566Y-26686851D01*
X176795907Y-26690788D01*
X176779919Y-26713273D01*
X176777818Y-26715941D01*
X176760751Y-26745623D01*
X176758271Y-26749706D01*
X176743094Y-26773379D01*
X176740486Y-26777056D01*
X176738671Y-26781031D01*
X176725723Y-26806310D01*
X176723437Y-26810519D01*
X176709369Y-26834990D01*
X176706874Y-26838874D01*
X176705248Y-26843001D01*
X176693576Y-26868818D01*
X176691483Y-26873161D01*
X176678399Y-26898709D01*
X176678397Y-26898715D01*
X176675818Y-26903749D01*
X176674958Y-26906289D01*
X176664404Y-26933056D01*
X176662514Y-26937525D01*
X176650473Y-26964159D01*
X176650472Y-26964161D01*
X176648357Y-26968837D01*
X176647695Y-26971163D01*
X176638285Y-26998970D01*
X176636610Y-27003546D01*
X176625690Y-27031245D01*
X176625688Y-27031251D01*
X176624006Y-27035515D01*
X176623527Y-27037581D01*
X176615344Y-27066396D01*
X176613886Y-27071084D01*
X176604124Y-27099929D01*
X176604125Y-27099930D01*
X176602872Y-27103633D01*
X176602550Y-27105419D01*
X176595668Y-27135236D01*
X176594440Y-27140012D01*
X176585585Y-27171198D01*
X176585037Y-27173126D01*
X176584854Y-27174544D01*
X176579336Y-27205442D01*
X176578343Y-27210296D01*
X176571118Y-27241607D01*
X176571117Y-27241613D01*
X176570595Y-27243870D01*
X176570512Y-27244937D01*
X176566453Y-27276878D01*
X176565702Y-27281799D01*
X176559888Y-27314361D01*
X176559888Y-27314362D01*
X176559636Y-27315773D01*
X176559618Y-27316409D01*
X176557103Y-27349463D01*
X176556598Y-27354432D01*
X176552303Y-27388226D01*
X176552304Y-27388227D01*
X176552240Y-27388728D01*
X176552244Y-27388897D01*
X176551381Y-27423020D01*
X176551128Y-27428025D01*
X176548491Y-27462688D01*
X61451505Y-27462688D01*
X61451319Y-27460242D01*
X61451320Y-27460240D01*
X61448867Y-27427999D01*
X61448615Y-27423001D01*
X61447754Y-27388926D01*
X61447761Y-27388605D01*
X61447696Y-27388235D01*
X61447474Y-27386485D01*
X61443397Y-27354405D01*
X61442896Y-27349463D01*
X61440445Y-27317226D01*
X61440444Y-27317224D01*
X61440383Y-27316421D01*
X61440355Y-27315421D01*
X61440110Y-27314349D01*
X61439985Y-27313652D01*
X61439986Y-27313650D01*
X61434295Y-27281788D01*
X61433545Y-27276878D01*
X61429484Y-27244912D01*
X61429358Y-27243299D01*
X61428875Y-27241588D01*
X61421650Y-27210282D01*
X61420670Y-27205490D01*
X61415147Y-27174561D01*
X61414861Y-27172349D01*
X61414101Y-27170093D01*
X61405562Y-27140024D01*
X61404332Y-27135242D01*
X61397451Y-27105427D01*
X61396957Y-27102686D01*
X61395869Y-27099921D01*
X61386092Y-27071025D01*
X61384665Y-27066437D01*
X61376475Y-27037598D01*
X61375734Y-27034395D01*
X61374300Y-27031222D01*
X61363388Y-27003548D01*
X61361711Y-26998966D01*
X61352315Y-26971199D01*
X61352315Y-26971198D01*
X61351293Y-26967607D01*
X61349505Y-26964117D01*
X61337485Y-26937528D01*
X61335597Y-26933063D01*
X61325071Y-26906369D01*
X61323734Y-26902410D01*
X61321582Y-26898676D01*
X61308503Y-26873140D01*
X61306421Y-26868818D01*
X61294796Y-26843102D01*
X61293139Y-26838882D01*
X61290588Y-26834917D01*
X61276574Y-26810544D01*
X61274283Y-26806327D01*
X61261620Y-26781603D01*
X61259694Y-26777318D01*
X61259558Y-26777080D01*
X61256773Y-26773174D01*
X61241712Y-26749682D01*
X61239248Y-26745626D01*
X61222971Y-26717316D01*
X61222969Y-26717314D01*
X61222084Y-26715775D01*
X61219891Y-26713008D01*
X61209703Y-26698680D01*
X61204085Y-26690780D01*
X61201431Y-26686851D01*
X61186837Y-26664088D01*
X61185063Y-26660968D01*
X61183849Y-26659427D01*
X61183785Y-26659327D01*
X61183751Y-26659303D01*
X61180721Y-26655458D01*
X61180714Y-26655439D01*
X61180638Y-26655352D01*
X61163733Y-26633840D01*
X61160906Y-26630060D01*
X61145244Y-26608035D01*
X61142561Y-26603820D01*
X61142024Y-26603137D01*
X61138506Y-26599466D01*
X61120792Y-26579017D01*
X61117781Y-26575368D01*
X61101253Y-26554336D01*
X61098489Y-26550409D01*
X61097472Y-26549235D01*
X61093958Y-26545898D01*
X61081617Y-26532954D01*
X61075302Y-26526330D01*
X61072144Y-26522854D01*
X61054583Y-26502580D01*
X61051570Y-26498718D01*
X61050662Y-26497764D01*
X61046941Y-26494555D01*
X61027390Y-26475915D01*
X61024085Y-26472609D01*
X61005500Y-26453115D01*
X61002199Y-26449282D01*
X61001481Y-26448598D01*
X60997483Y-26445473D01*
X60977140Y-26427852D01*
X60973642Y-26424672D01*
X60954179Y-26406115D01*
X60950870Y-26402622D01*
X60949696Y-26401606D01*
X60945792Y-26398847D01*
X60924638Y-26382223D01*
X60920990Y-26379213D01*
X60920982Y-26379206D01*
X60900338Y-26361324D01*
X60896630Y-26358108D01*
X60896591Y-26358045D01*
X60896409Y-26357916D01*
X60895042Y-26356730D01*
X60892088Y-26354843D01*
X60869910Y-26339071D01*
X60866140Y-26336252D01*
X60844439Y-26319198D01*
X60840687Y-26316237D01*
X60840671Y-26316213D01*
X60840597Y-26316166D01*
X60839371Y-26315198D01*
X60836501Y-26313539D01*
X60813147Y-26298567D01*
X60809216Y-26295912D01*
X60806518Y-26293994D01*
X60787130Y-26280207D01*
X60784320Y-26277971D01*
X60782643Y-26277007D01*
X60782577Y-26276969D01*
X60781431Y-26276310D01*
X60781430Y-26276309D01*
X60781415Y-26276301D01*
X60754373Y-26260752D01*
X60750292Y-26258273D01*
X60739632Y-26251439D01*
X60726984Y-26243331D01*
X60724256Y-26241379D01*
X60718783Y-26238576D01*
X60718781Y-26238574D01*
X60693689Y-26225723D01*
X60689473Y-26223433D01*
X60665000Y-26209362D01*
X60662402Y-26207693D01*
X60660863Y-26206997D01*
X60657026Y-26205262D01*
X60657025Y-26205261D01*
X60657024Y-26205261D01*
X60631157Y-26193565D01*
X60626818Y-26191475D01*
X60601346Y-26178430D01*
X60598810Y-26176969D01*
X60593730Y-26174966D01*
X60593728Y-26174964D01*
X60566947Y-26164406D01*
X60562475Y-26162515D01*
X60535848Y-26150477D01*
X60533503Y-26149276D01*
X60528827Y-26147693D01*
X60528822Y-26147692D01*
X60508989Y-26140981D01*
X60501042Y-26138292D01*
X60496485Y-26136623D01*
X60468779Y-26125700D01*
X60466590Y-26124711D01*
X60462431Y-26123530D01*
X60462426Y-26123529D01*
X60433632Y-26115353D01*
X60428943Y-26113895D01*
X60400069Y-26104125D01*
X60398180Y-26103382D01*
X60396345Y-26102958D01*
X60394580Y-26102550D01*
X60394578Y-26102549D01*
X60364774Y-26095671D01*
X60359994Y-26094442D01*
X60329909Y-26085899D01*
X60328339Y-26085370D01*
X60326425Y-26085028D01*
X60325447Y-26084853D01*
X60294542Y-26079334D01*
X60289690Y-26078341D01*
X60282263Y-26076627D01*
X60258376Y-26071114D01*
X60257210Y-26070785D01*
X60255083Y-26070515D01*
X60255072Y-26070514D01*
X60237505Y-26068281D01*
X60223129Y-26066454D01*
X60218215Y-26065703D01*
X60185660Y-26059891D01*
X60184889Y-26059715D01*
X60183623Y-26059619D01*
X60183621Y-26059618D01*
X60183613Y-26059618D01*
X60182774Y-26059554D01*
X60150535Y-26057102D01*
X60145567Y-26056597D01*
X60138685Y-26055723D01*
X60111752Y-26052300D01*
X60111486Y-26052253D01*
X60111116Y-26052244D01*
X60111115Y-26052243D01*
X60076980Y-26051381D01*
X60071976Y-26051128D01*
X60037302Y-26048491D01*
X60002501Y-26049371D01*
X59997499Y-26049371D01*
X59962697Y-26048491D01*
X59928021Y-26051128D01*
X59923018Y-26051381D01*
X59888882Y-26052244D01*
X59888601Y-26052237D01*
X59888247Y-26052300D01*
X59854435Y-26056596D01*
X59849468Y-26057101D01*
X59825110Y-26058954D01*
X59817226Y-26059554D01*
X59817225Y-26059554D01*
X59816401Y-26059617D01*
X59815425Y-26059644D01*
X59814349Y-26059890D01*
X59781802Y-26065701D01*
X59776886Y-26066452D01*
X59744930Y-26070514D01*
X59743301Y-26070642D01*
X59741628Y-26071113D01*
X59740721Y-26071323D01*
X59710305Y-26078342D01*
X59705449Y-26079335D01*
X59674541Y-26084855D01*
X59672352Y-26085138D01*
X59670093Y-26085898D01*
X59662740Y-26087986D01*
X59640011Y-26094440D01*
X59635236Y-26095668D01*
X59605415Y-26102551D01*
X59602675Y-26103045D01*
X59599945Y-26104119D01*
X59571064Y-26113891D01*
X59566380Y-26115348D01*
X59537584Y-26123526D01*
X59534399Y-26124265D01*
X59531242Y-26125691D01*
X59503518Y-26136621D01*
X59498944Y-26138295D01*
X59471177Y-26147692D01*
X59467609Y-26148709D01*
X59464178Y-26150465D01*
X59437538Y-26162509D01*
X59433070Y-26164399D01*
X59406279Y-26174963D01*
X59402397Y-26176277D01*
X59398709Y-26178400D01*
X59373151Y-26191489D01*
X59368809Y-26193580D01*
X59342940Y-26205276D01*
X59338873Y-26206883D01*
X59335077Y-26209317D01*
X59310544Y-26223424D01*
X59306324Y-26225716D01*
X59281213Y-26238577D01*
X59277085Y-26240451D01*
X59273242Y-26243185D01*
X59249714Y-26258268D01*
X59245636Y-26260746D01*
X59216044Y-26277761D01*
X59213479Y-26279771D01*
X59190776Y-26295916D01*
X59186852Y-26298567D01*
X59163334Y-26313644D01*
X59159454Y-26315896D01*
X59158983Y-26316230D01*
X59155500Y-26319245D01*
X59133853Y-26336256D01*
X59130055Y-26339096D01*
X59107805Y-26354918D01*
X59103890Y-26357426D01*
X59102942Y-26358170D01*
X59099523Y-26361443D01*
X59079017Y-26379206D01*
X59075368Y-26382217D01*
X59054167Y-26398878D01*
X59050452Y-26401505D01*
X59049103Y-26402673D01*
X59045944Y-26405996D01*
X59026351Y-26424676D01*
X59022857Y-26427852D01*
X59022856Y-26427853D01*
X59002443Y-26445535D01*
X58998768Y-26448412D01*
X58997648Y-26449479D01*
X58994587Y-26453023D01*
X58991758Y-26455992D01*
X58975950Y-26472573D01*
X58972607Y-26475915D01*
X58952984Y-26494622D01*
X58951543Y-26495997D01*
X58949373Y-26498067D01*
X58949291Y-26498109D01*
X58949105Y-26498323D01*
X58948898Y-26498521D01*
X58948895Y-26498526D01*
X58947713Y-26499656D01*
X58945507Y-26502476D01*
X58927851Y-26522859D01*
X58924676Y-26526353D01*
X58905995Y-26545946D01*
X58905994Y-26545945D01*
X58905505Y-26546459D01*
X58902517Y-26549594D01*
X58902437Y-26549640D01*
X58902261Y-26549862D01*
X58902092Y-26550041D01*
X58902082Y-26550064D01*
X58900893Y-26551318D01*
X58898880Y-26554164D01*
X58898746Y-26554336D01*
X58882222Y-26575362D01*
X58879213Y-26579008D01*
X58861383Y-26599590D01*
X58861384Y-26599591D01*
X58861117Y-26599899D01*
X58858118Y-26603362D01*
X58858045Y-26603409D01*
X58857891Y-26603625D01*
X58857778Y-26603756D01*
X58857774Y-26603765D01*
X58856698Y-26605011D01*
X58854864Y-26607880D01*
X58839092Y-26630060D01*
X58836250Y-26633860D01*
X58819414Y-26655281D01*
X58819415Y-26655282D01*
X58819051Y-26655746D01*
X58816266Y-26659291D01*
X58816214Y-26659328D01*
X58816109Y-26659491D01*
X58816042Y-26659577D01*
X58816035Y-26659600D01*
X58815032Y-26660882D01*
X58813424Y-26663678D01*
X58798567Y-26686851D01*
X58795908Y-26690788D01*
X58779920Y-26713273D01*
X58777819Y-26715941D01*
X58760752Y-26745623D01*
X58758272Y-26749706D01*
X58743095Y-26773379D01*
X58740487Y-26777056D01*
X58738672Y-26781031D01*
X58725724Y-26806310D01*
X58723438Y-26810519D01*
X58709370Y-26834990D01*
X58706875Y-26838874D01*
X58705249Y-26843001D01*
X58693577Y-26868818D01*
X58691484Y-26873161D01*
X58678400Y-26898709D01*
X58678398Y-26898715D01*
X58675819Y-26903749D01*
X58674959Y-26906289D01*
X58664405Y-26933056D01*
X58662515Y-26937525D01*
X58650474Y-26964159D01*
X58650473Y-26964161D01*
X58648358Y-26968837D01*
X58647696Y-26971163D01*
X58638286Y-26998970D01*
X58636611Y-27003547D01*
X58625689Y-27031250D01*
X58625686Y-27031256D01*
X58624008Y-27035509D01*
X58623527Y-27037585D01*
X58615350Y-27066379D01*
X58613894Y-27071063D01*
X58604127Y-27099930D01*
X58604123Y-27099940D01*
X58602873Y-27103632D01*
X58602554Y-27105403D01*
X58595673Y-27135216D01*
X58594443Y-27139997D01*
X58585889Y-27170118D01*
X58585889Y-27170119D01*
X58585041Y-27173102D01*
X58584853Y-27174561D01*
X58579333Y-27205465D01*
X58578340Y-27210317D01*
X58571124Y-27241588D01*
X58570597Y-27243870D01*
X58570515Y-27244912D01*
X58566454Y-27276872D01*
X58565702Y-27281799D01*
X58559886Y-27314364D01*
X58559635Y-27315766D01*
X58559617Y-27316422D01*
X58557103Y-27349464D01*
X58556598Y-27354433D01*
X58552303Y-27388226D01*
X58552304Y-27388227D01*
X58552240Y-27388728D01*
X58552244Y-27388897D01*
X58551381Y-27423020D01*
X58551128Y-27428025D01*
X58548491Y-27462688D01*
X57700500Y-27462688D01*
X57700500Y-26003775D01*
X57700532Y-26001269D01*
X57701545Y-25961260D01*
X57701799Y-25956246D01*
X57703158Y-25938417D01*
X57704514Y-25920610D01*
X57705019Y-25915639D01*
X57705290Y-25913516D01*
X57709478Y-25880614D01*
X57710229Y-25875704D01*
X57714507Y-25851784D01*
X57716389Y-25841260D01*
X57717374Y-25836455D01*
X57725184Y-25802663D01*
X57726401Y-25797935D01*
X57735830Y-25764777D01*
X57737279Y-25760124D01*
X57748267Y-25727683D01*
X57749941Y-25723118D01*
X57750157Y-25722570D01*
X57762471Y-25691371D01*
X57764336Y-25686965D01*
X57778361Y-25655970D01*
X57780442Y-25651656D01*
X57780445Y-25651651D01*
X57795924Y-25621450D01*
X57798185Y-25617290D01*
X57815079Y-25587927D01*
X57817541Y-25583876D01*
X57835825Y-25555371D01*
X57838451Y-25551489D01*
X57858045Y-25523945D01*
X57860855Y-25520190D01*
X57881732Y-25493631D01*
X57884710Y-25490023D01*
X57906829Y-25464491D01*
X57909992Y-25461014D01*
X57933265Y-25436605D01*
X57936600Y-25433270D01*
X57942344Y-25427794D01*
X57961024Y-25409983D01*
X57964501Y-25406821D01*
X57990016Y-25384715D01*
X57993602Y-25381755D01*
X58020210Y-25360839D01*
X58023924Y-25358060D01*
X58051496Y-25338445D01*
X58055412Y-25335800D01*
X58083852Y-25317557D01*
X58083872Y-25317543D01*
X58087901Y-25315093D01*
X58117315Y-25298170D01*
X58121440Y-25295928D01*
X58151658Y-25280439D01*
X58155971Y-25278360D01*
X58186961Y-25264336D01*
X58191347Y-25262479D01*
X58223127Y-25249936D01*
X58227663Y-25248274D01*
X58260140Y-25237272D01*
X58264750Y-25235836D01*
X58297949Y-25226397D01*
X58302644Y-25225188D01*
X58336472Y-25217369D01*
X58341247Y-25216391D01*
X58375714Y-25210227D01*
X58380602Y-25209479D01*
X58415672Y-25205015D01*
X58420624Y-25204512D01*
X58456255Y-25201797D01*
X58461255Y-25201544D01*
X58501264Y-25200531D01*
X58503768Y-25200500D01*
X179496227Y-25200500D01*
X179498730Y-25200531D01*
G37*
%TD.AperFunction*%
%TD*%
M02*
