%TF.GenerationSoftware,KiCad,Pcbnew,9.0.4*%
%TF.CreationDate,2026-02-04T08:49:36+09:00*%
%TF.ProjectId,ansicBackplateDrain,616e7369-6342-4616-936b-706c61746544,rev?*%
%TF.SameCoordinates,Original*%
%TF.FileFunction,Legend,Bot*%
%TF.FilePolarity,Positive*%
%FSLAX46Y46*%
G04 Gerber Fmt 4.6, Leading zero omitted, Abs format (unit mm)*
G04 Created by KiCad (PCBNEW 9.0.4) date 2026-02-04 08:49:36*
%MOMM*%
%LPD*%
G01*
G04 APERTURE LIST*
%ADD10C,0.100000*%
%ADD11C,1.000000*%
G04 APERTURE END LIST*
D10*
X93456093Y-82500000D02*
X73206093Y-82500000D01*
X101670380Y-84207419D02*
X101670380Y-83540752D01*
X101670380Y-83731228D02*
X101622761Y-83635990D01*
X101622761Y-83635990D02*
X101575142Y-83588371D01*
X101575142Y-83588371D02*
X101479904Y-83540752D01*
X101479904Y-83540752D02*
X101384666Y-83540752D01*
X100670380Y-84159800D02*
X100765618Y-84207419D01*
X100765618Y-84207419D02*
X100956094Y-84207419D01*
X100956094Y-84207419D02*
X101051332Y-84159800D01*
X101051332Y-84159800D02*
X101098951Y-84064561D01*
X101098951Y-84064561D02*
X101098951Y-83683609D01*
X101098951Y-83683609D02*
X101051332Y-83588371D01*
X101051332Y-83588371D02*
X100956094Y-83540752D01*
X100956094Y-83540752D02*
X100765618Y-83540752D01*
X100765618Y-83540752D02*
X100670380Y-83588371D01*
X100670380Y-83588371D02*
X100622761Y-83683609D01*
X100622761Y-83683609D02*
X100622761Y-83778847D01*
X100622761Y-83778847D02*
X101098951Y-83874085D01*
X100241808Y-84159800D02*
X100146570Y-84207419D01*
X100146570Y-84207419D02*
X99956094Y-84207419D01*
X99956094Y-84207419D02*
X99860856Y-84159800D01*
X99860856Y-84159800D02*
X99813237Y-84064561D01*
X99813237Y-84064561D02*
X99813237Y-84016942D01*
X99813237Y-84016942D02*
X99860856Y-83921704D01*
X99860856Y-83921704D02*
X99956094Y-83874085D01*
X99956094Y-83874085D02*
X100098951Y-83874085D01*
X100098951Y-83874085D02*
X100194189Y-83826466D01*
X100194189Y-83826466D02*
X100241808Y-83731228D01*
X100241808Y-83731228D02*
X100241808Y-83683609D01*
X100241808Y-83683609D02*
X100194189Y-83588371D01*
X100194189Y-83588371D02*
X100098951Y-83540752D01*
X100098951Y-83540752D02*
X99956094Y-83540752D01*
X99956094Y-83540752D02*
X99860856Y-83588371D01*
X99527522Y-83540752D02*
X99146570Y-83540752D01*
X99384665Y-83207419D02*
X99384665Y-84064561D01*
X99384665Y-84064561D02*
X99337046Y-84159800D01*
X99337046Y-84159800D02*
X99241808Y-84207419D01*
X99241808Y-84207419D02*
X99146570Y-84207419D01*
X98813236Y-84112180D02*
X98765617Y-84159800D01*
X98765617Y-84159800D02*
X98813236Y-84207419D01*
X98813236Y-84207419D02*
X98860855Y-84159800D01*
X98860855Y-84159800D02*
X98813236Y-84112180D01*
X98813236Y-84112180D02*
X98813236Y-84207419D01*
X97146570Y-84207419D02*
X97146570Y-83207419D01*
X97146570Y-84159800D02*
X97241808Y-84207419D01*
X97241808Y-84207419D02*
X97432284Y-84207419D01*
X97432284Y-84207419D02*
X97527522Y-84159800D01*
X97527522Y-84159800D02*
X97575141Y-84112180D01*
X97575141Y-84112180D02*
X97622760Y-84016942D01*
X97622760Y-84016942D02*
X97622760Y-83731228D01*
X97622760Y-83731228D02*
X97575141Y-83635990D01*
X97575141Y-83635990D02*
X97527522Y-83588371D01*
X97527522Y-83588371D02*
X97432284Y-83540752D01*
X97432284Y-83540752D02*
X97241808Y-83540752D01*
X97241808Y-83540752D02*
X97146570Y-83588371D01*
X96527522Y-84207419D02*
X96622760Y-84159800D01*
X96622760Y-84159800D02*
X96670379Y-84112180D01*
X96670379Y-84112180D02*
X96717998Y-84016942D01*
X96717998Y-84016942D02*
X96717998Y-83731228D01*
X96717998Y-83731228D02*
X96670379Y-83635990D01*
X96670379Y-83635990D02*
X96622760Y-83588371D01*
X96622760Y-83588371D02*
X96527522Y-83540752D01*
X96527522Y-83540752D02*
X96384665Y-83540752D01*
X96384665Y-83540752D02*
X96289427Y-83588371D01*
X96289427Y-83588371D02*
X96241808Y-83635990D01*
X96241808Y-83635990D02*
X96194189Y-83731228D01*
X96194189Y-83731228D02*
X96194189Y-84016942D01*
X96194189Y-84016942D02*
X96241808Y-84112180D01*
X96241808Y-84112180D02*
X96289427Y-84159800D01*
X96289427Y-84159800D02*
X96384665Y-84207419D01*
X96384665Y-84207419D02*
X96527522Y-84207419D01*
X95765617Y-83540752D02*
X95765617Y-84207419D01*
X95765617Y-83635990D02*
X95717998Y-83588371D01*
X95717998Y-83588371D02*
X95622760Y-83540752D01*
X95622760Y-83540752D02*
X95479903Y-83540752D01*
X95479903Y-83540752D02*
X95384665Y-83588371D01*
X95384665Y-83588371D02*
X95337046Y-83683609D01*
X95337046Y-83683609D02*
X95337046Y-84207419D01*
X94813236Y-83207419D02*
X94908474Y-83397895D01*
X94527522Y-83540752D02*
X94146570Y-83540752D01*
X94384665Y-83207419D02*
X94384665Y-84064561D01*
X94384665Y-84064561D02*
X94337046Y-84159800D01*
X94337046Y-84159800D02*
X94241808Y-84207419D01*
X94241808Y-84207419D02*
X94146570Y-84207419D01*
X93194188Y-83540752D02*
X92813236Y-83540752D01*
X93051331Y-83207419D02*
X93051331Y-84064561D01*
X93051331Y-84064561D02*
X93003712Y-84159800D01*
X93003712Y-84159800D02*
X92908474Y-84207419D01*
X92908474Y-84207419D02*
X92813236Y-84207419D01*
X92479902Y-84207419D02*
X92479902Y-83207419D01*
X92051331Y-84207419D02*
X92051331Y-83683609D01*
X92051331Y-83683609D02*
X92098950Y-83588371D01*
X92098950Y-83588371D02*
X92194188Y-83540752D01*
X92194188Y-83540752D02*
X92337045Y-83540752D01*
X92337045Y-83540752D02*
X92432283Y-83588371D01*
X92432283Y-83588371D02*
X92479902Y-83635990D01*
X91575140Y-84207419D02*
X91575140Y-83540752D01*
X91575140Y-83207419D02*
X91622759Y-83255038D01*
X91622759Y-83255038D02*
X91575140Y-83302657D01*
X91575140Y-83302657D02*
X91527521Y-83255038D01*
X91527521Y-83255038D02*
X91575140Y-83207419D01*
X91575140Y-83207419D02*
X91575140Y-83302657D01*
X91098950Y-83540752D02*
X91098950Y-84207419D01*
X91098950Y-83635990D02*
X91051331Y-83588371D01*
X91051331Y-83588371D02*
X90956093Y-83540752D01*
X90956093Y-83540752D02*
X90813236Y-83540752D01*
X90813236Y-83540752D02*
X90717998Y-83588371D01*
X90717998Y-83588371D02*
X90670379Y-83683609D01*
X90670379Y-83683609D02*
X90670379Y-84207419D01*
X90194188Y-84207419D02*
X90194188Y-83207419D01*
X90098950Y-83826466D02*
X89813236Y-84207419D01*
X89813236Y-83540752D02*
X90194188Y-83921704D01*
X88194188Y-84207419D02*
X88194188Y-83683609D01*
X88194188Y-83683609D02*
X88241807Y-83588371D01*
X88241807Y-83588371D02*
X88337045Y-83540752D01*
X88337045Y-83540752D02*
X88527521Y-83540752D01*
X88527521Y-83540752D02*
X88622759Y-83588371D01*
X88194188Y-84159800D02*
X88289426Y-84207419D01*
X88289426Y-84207419D02*
X88527521Y-84207419D01*
X88527521Y-84207419D02*
X88622759Y-84159800D01*
X88622759Y-84159800D02*
X88670378Y-84064561D01*
X88670378Y-84064561D02*
X88670378Y-83969323D01*
X88670378Y-83969323D02*
X88622759Y-83874085D01*
X88622759Y-83874085D02*
X88527521Y-83826466D01*
X88527521Y-83826466D02*
X88289426Y-83826466D01*
X88289426Y-83826466D02*
X88194188Y-83778847D01*
X87717997Y-84207419D02*
X87717997Y-83207419D01*
X87717997Y-83588371D02*
X87622759Y-83540752D01*
X87622759Y-83540752D02*
X87432283Y-83540752D01*
X87432283Y-83540752D02*
X87337045Y-83588371D01*
X87337045Y-83588371D02*
X87289426Y-83635990D01*
X87289426Y-83635990D02*
X87241807Y-83731228D01*
X87241807Y-83731228D02*
X87241807Y-84016942D01*
X87241807Y-84016942D02*
X87289426Y-84112180D01*
X87289426Y-84112180D02*
X87337045Y-84159800D01*
X87337045Y-84159800D02*
X87432283Y-84207419D01*
X87432283Y-84207419D02*
X87622759Y-84207419D01*
X87622759Y-84207419D02*
X87717997Y-84159800D01*
X86670378Y-84207419D02*
X86765616Y-84159800D01*
X86765616Y-84159800D02*
X86813235Y-84112180D01*
X86813235Y-84112180D02*
X86860854Y-84016942D01*
X86860854Y-84016942D02*
X86860854Y-83731228D01*
X86860854Y-83731228D02*
X86813235Y-83635990D01*
X86813235Y-83635990D02*
X86765616Y-83588371D01*
X86765616Y-83588371D02*
X86670378Y-83540752D01*
X86670378Y-83540752D02*
X86527521Y-83540752D01*
X86527521Y-83540752D02*
X86432283Y-83588371D01*
X86432283Y-83588371D02*
X86384664Y-83635990D01*
X86384664Y-83635990D02*
X86337045Y-83731228D01*
X86337045Y-83731228D02*
X86337045Y-84016942D01*
X86337045Y-84016942D02*
X86384664Y-84112180D01*
X86384664Y-84112180D02*
X86432283Y-84159800D01*
X86432283Y-84159800D02*
X86527521Y-84207419D01*
X86527521Y-84207419D02*
X86670378Y-84207419D01*
X85479902Y-83540752D02*
X85479902Y-84207419D01*
X85908473Y-83540752D02*
X85908473Y-84064561D01*
X85908473Y-84064561D02*
X85860854Y-84159800D01*
X85860854Y-84159800D02*
X85765616Y-84207419D01*
X85765616Y-84207419D02*
X85622759Y-84207419D01*
X85622759Y-84207419D02*
X85527521Y-84159800D01*
X85527521Y-84159800D02*
X85479902Y-84112180D01*
X85146568Y-83540752D02*
X84765616Y-83540752D01*
X85003711Y-83207419D02*
X85003711Y-84064561D01*
X85003711Y-84064561D02*
X84956092Y-84159800D01*
X84956092Y-84159800D02*
X84860854Y-84207419D01*
X84860854Y-84207419D02*
X84765616Y-84207419D01*
X83241806Y-84159800D02*
X83337044Y-84207419D01*
X83337044Y-84207419D02*
X83527520Y-84207419D01*
X83527520Y-84207419D02*
X83622758Y-84159800D01*
X83622758Y-84159800D02*
X83670377Y-84112180D01*
X83670377Y-84112180D02*
X83717996Y-84016942D01*
X83717996Y-84016942D02*
X83717996Y-83731228D01*
X83717996Y-83731228D02*
X83670377Y-83635990D01*
X83670377Y-83635990D02*
X83622758Y-83588371D01*
X83622758Y-83588371D02*
X83527520Y-83540752D01*
X83527520Y-83540752D02*
X83337044Y-83540752D01*
X83337044Y-83540752D02*
X83241806Y-83588371D01*
X82670377Y-84207419D02*
X82765615Y-84159800D01*
X82765615Y-84159800D02*
X82813234Y-84112180D01*
X82813234Y-84112180D02*
X82860853Y-84016942D01*
X82860853Y-84016942D02*
X82860853Y-83731228D01*
X82860853Y-83731228D02*
X82813234Y-83635990D01*
X82813234Y-83635990D02*
X82765615Y-83588371D01*
X82765615Y-83588371D02*
X82670377Y-83540752D01*
X82670377Y-83540752D02*
X82527520Y-83540752D01*
X82527520Y-83540752D02*
X82432282Y-83588371D01*
X82432282Y-83588371D02*
X82384663Y-83635990D01*
X82384663Y-83635990D02*
X82337044Y-83731228D01*
X82337044Y-83731228D02*
X82337044Y-84016942D01*
X82337044Y-84016942D02*
X82384663Y-84112180D01*
X82384663Y-84112180D02*
X82432282Y-84159800D01*
X82432282Y-84159800D02*
X82527520Y-84207419D01*
X82527520Y-84207419D02*
X82670377Y-84207419D01*
X81908472Y-83540752D02*
X81908472Y-84207419D01*
X81908472Y-83635990D02*
X81860853Y-83588371D01*
X81860853Y-83588371D02*
X81765615Y-83540752D01*
X81765615Y-83540752D02*
X81622758Y-83540752D01*
X81622758Y-83540752D02*
X81527520Y-83588371D01*
X81527520Y-83588371D02*
X81479901Y-83683609D01*
X81479901Y-83683609D02*
X81479901Y-84207419D01*
X81051329Y-84159800D02*
X80956091Y-84207419D01*
X80956091Y-84207419D02*
X80765615Y-84207419D01*
X80765615Y-84207419D02*
X80670377Y-84159800D01*
X80670377Y-84159800D02*
X80622758Y-84064561D01*
X80622758Y-84064561D02*
X80622758Y-84016942D01*
X80622758Y-84016942D02*
X80670377Y-83921704D01*
X80670377Y-83921704D02*
X80765615Y-83874085D01*
X80765615Y-83874085D02*
X80908472Y-83874085D01*
X80908472Y-83874085D02*
X81003710Y-83826466D01*
X81003710Y-83826466D02*
X81051329Y-83731228D01*
X81051329Y-83731228D02*
X81051329Y-83683609D01*
X81051329Y-83683609D02*
X81003710Y-83588371D01*
X81003710Y-83588371D02*
X80908472Y-83540752D01*
X80908472Y-83540752D02*
X80765615Y-83540752D01*
X80765615Y-83540752D02*
X80670377Y-83588371D01*
X79813234Y-84159800D02*
X79908472Y-84207419D01*
X79908472Y-84207419D02*
X80098948Y-84207419D01*
X80098948Y-84207419D02*
X80194186Y-84159800D01*
X80194186Y-84159800D02*
X80241805Y-84064561D01*
X80241805Y-84064561D02*
X80241805Y-83683609D01*
X80241805Y-83683609D02*
X80194186Y-83588371D01*
X80194186Y-83588371D02*
X80098948Y-83540752D01*
X80098948Y-83540752D02*
X79908472Y-83540752D01*
X79908472Y-83540752D02*
X79813234Y-83588371D01*
X79813234Y-83588371D02*
X79765615Y-83683609D01*
X79765615Y-83683609D02*
X79765615Y-83778847D01*
X79765615Y-83778847D02*
X80241805Y-83874085D01*
X78908472Y-83540752D02*
X78908472Y-84540752D01*
X78908472Y-84159800D02*
X79003710Y-84207419D01*
X79003710Y-84207419D02*
X79194186Y-84207419D01*
X79194186Y-84207419D02*
X79289424Y-84159800D01*
X79289424Y-84159800D02*
X79337043Y-84112180D01*
X79337043Y-84112180D02*
X79384662Y-84016942D01*
X79384662Y-84016942D02*
X79384662Y-83731228D01*
X79384662Y-83731228D02*
X79337043Y-83635990D01*
X79337043Y-83635990D02*
X79289424Y-83588371D01*
X79289424Y-83588371D02*
X79194186Y-83540752D01*
X79194186Y-83540752D02*
X79003710Y-83540752D01*
X79003710Y-83540752D02*
X78908472Y-83588371D01*
X78003710Y-83540752D02*
X78003710Y-84207419D01*
X78432281Y-83540752D02*
X78432281Y-84064561D01*
X78432281Y-84064561D02*
X78384662Y-84159800D01*
X78384662Y-84159800D02*
X78289424Y-84207419D01*
X78289424Y-84207419D02*
X78146567Y-84207419D01*
X78146567Y-84207419D02*
X78051329Y-84159800D01*
X78051329Y-84159800D02*
X78003710Y-84112180D01*
X77146567Y-84159800D02*
X77241805Y-84207419D01*
X77241805Y-84207419D02*
X77432281Y-84207419D01*
X77432281Y-84207419D02*
X77527519Y-84159800D01*
X77527519Y-84159800D02*
X77575138Y-84064561D01*
X77575138Y-84064561D02*
X77575138Y-83683609D01*
X77575138Y-83683609D02*
X77527519Y-83588371D01*
X77527519Y-83588371D02*
X77432281Y-83540752D01*
X77432281Y-83540752D02*
X77241805Y-83540752D01*
X77241805Y-83540752D02*
X77146567Y-83588371D01*
X77146567Y-83588371D02*
X77098948Y-83683609D01*
X77098948Y-83683609D02*
X77098948Y-83778847D01*
X77098948Y-83778847D02*
X77575138Y-83874085D01*
X76670376Y-83540752D02*
X76670376Y-84207419D01*
X76670376Y-83635990D02*
X76622757Y-83588371D01*
X76622757Y-83588371D02*
X76527519Y-83540752D01*
X76527519Y-83540752D02*
X76384662Y-83540752D01*
X76384662Y-83540752D02*
X76289424Y-83588371D01*
X76289424Y-83588371D02*
X76241805Y-83683609D01*
X76241805Y-83683609D02*
X76241805Y-84207419D01*
X75337043Y-84159800D02*
X75432281Y-84207419D01*
X75432281Y-84207419D02*
X75622757Y-84207419D01*
X75622757Y-84207419D02*
X75717995Y-84159800D01*
X75717995Y-84159800D02*
X75765614Y-84112180D01*
X75765614Y-84112180D02*
X75813233Y-84016942D01*
X75813233Y-84016942D02*
X75813233Y-83731228D01*
X75813233Y-83731228D02*
X75765614Y-83635990D01*
X75765614Y-83635990D02*
X75717995Y-83588371D01*
X75717995Y-83588371D02*
X75622757Y-83540752D01*
X75622757Y-83540752D02*
X75432281Y-83540752D01*
X75432281Y-83540752D02*
X75337043Y-83588371D01*
X74527519Y-84159800D02*
X74622757Y-84207419D01*
X74622757Y-84207419D02*
X74813233Y-84207419D01*
X74813233Y-84207419D02*
X74908471Y-84159800D01*
X74908471Y-84159800D02*
X74956090Y-84064561D01*
X74956090Y-84064561D02*
X74956090Y-83683609D01*
X74956090Y-83683609D02*
X74908471Y-83588371D01*
X74908471Y-83588371D02*
X74813233Y-83540752D01*
X74813233Y-83540752D02*
X74622757Y-83540752D01*
X74622757Y-83540752D02*
X74527519Y-83588371D01*
X74527519Y-83588371D02*
X74479900Y-83683609D01*
X74479900Y-83683609D02*
X74479900Y-83778847D01*
X74479900Y-83778847D02*
X74956090Y-83874085D01*
X74098947Y-84159800D02*
X74003709Y-84207419D01*
X74003709Y-84207419D02*
X73813233Y-84207419D01*
X73813233Y-84207419D02*
X73717995Y-84159800D01*
X73717995Y-84159800D02*
X73670376Y-84064561D01*
X73670376Y-84064561D02*
X73670376Y-84016942D01*
X73670376Y-84016942D02*
X73717995Y-83921704D01*
X73717995Y-83921704D02*
X73813233Y-83874085D01*
X73813233Y-83874085D02*
X73956090Y-83874085D01*
X73956090Y-83874085D02*
X74051328Y-83826466D01*
X74051328Y-83826466D02*
X74098947Y-83731228D01*
X74098947Y-83731228D02*
X74098947Y-83683609D01*
X74098947Y-83683609D02*
X74051328Y-83588371D01*
X74051328Y-83588371D02*
X73956090Y-83540752D01*
X73956090Y-83540752D02*
X73813233Y-83540752D01*
X73813233Y-83540752D02*
X73717995Y-83588371D01*
X73241804Y-84112180D02*
X73194185Y-84159800D01*
X73194185Y-84159800D02*
X73241804Y-84207419D01*
X73241804Y-84207419D02*
X73289423Y-84159800D01*
X73289423Y-84159800D02*
X73241804Y-84112180D01*
X73241804Y-84112180D02*
X73241804Y-84207419D01*
X124142857Y-29790752D02*
X123952381Y-30457419D01*
X123952381Y-30457419D02*
X123761905Y-29981228D01*
X123761905Y-29981228D02*
X123571429Y-30457419D01*
X123571429Y-30457419D02*
X123380953Y-29790752D01*
X122571429Y-30457419D02*
X122571429Y-29933609D01*
X122571429Y-29933609D02*
X122619048Y-29838371D01*
X122619048Y-29838371D02*
X122714286Y-29790752D01*
X122714286Y-29790752D02*
X122904762Y-29790752D01*
X122904762Y-29790752D02*
X123000000Y-29838371D01*
X122571429Y-30409800D02*
X122666667Y-30457419D01*
X122666667Y-30457419D02*
X122904762Y-30457419D01*
X122904762Y-30457419D02*
X123000000Y-30409800D01*
X123000000Y-30409800D02*
X123047619Y-30314561D01*
X123047619Y-30314561D02*
X123047619Y-30219323D01*
X123047619Y-30219323D02*
X123000000Y-30124085D01*
X123000000Y-30124085D02*
X122904762Y-30076466D01*
X122904762Y-30076466D02*
X122666667Y-30076466D01*
X122666667Y-30076466D02*
X122571429Y-30028847D01*
X122238095Y-29790752D02*
X121857143Y-29790752D01*
X122095238Y-29457419D02*
X122095238Y-30314561D01*
X122095238Y-30314561D02*
X122047619Y-30409800D01*
X122047619Y-30409800D02*
X121952381Y-30457419D01*
X121952381Y-30457419D02*
X121857143Y-30457419D01*
X121142857Y-30409800D02*
X121238095Y-30457419D01*
X121238095Y-30457419D02*
X121428571Y-30457419D01*
X121428571Y-30457419D02*
X121523809Y-30409800D01*
X121523809Y-30409800D02*
X121571428Y-30314561D01*
X121571428Y-30314561D02*
X121571428Y-29933609D01*
X121571428Y-29933609D02*
X121523809Y-29838371D01*
X121523809Y-29838371D02*
X121428571Y-29790752D01*
X121428571Y-29790752D02*
X121238095Y-29790752D01*
X121238095Y-29790752D02*
X121142857Y-29838371D01*
X121142857Y-29838371D02*
X121095238Y-29933609D01*
X121095238Y-29933609D02*
X121095238Y-30028847D01*
X121095238Y-30028847D02*
X121571428Y-30124085D01*
X120666666Y-30457419D02*
X120666666Y-29790752D01*
X120666666Y-29981228D02*
X120619047Y-29885990D01*
X120619047Y-29885990D02*
X120571428Y-29838371D01*
X120571428Y-29838371D02*
X120476190Y-29790752D01*
X120476190Y-29790752D02*
X120380952Y-29790752D01*
X118857142Y-30457419D02*
X118857142Y-29457419D01*
X118857142Y-30409800D02*
X118952380Y-30457419D01*
X118952380Y-30457419D02*
X119142856Y-30457419D01*
X119142856Y-30457419D02*
X119238094Y-30409800D01*
X119238094Y-30409800D02*
X119285713Y-30362180D01*
X119285713Y-30362180D02*
X119333332Y-30266942D01*
X119333332Y-30266942D02*
X119333332Y-29981228D01*
X119333332Y-29981228D02*
X119285713Y-29885990D01*
X119285713Y-29885990D02*
X119238094Y-29838371D01*
X119238094Y-29838371D02*
X119142856Y-29790752D01*
X119142856Y-29790752D02*
X118952380Y-29790752D01*
X118952380Y-29790752D02*
X118857142Y-29838371D01*
X118380951Y-30457419D02*
X118380951Y-29790752D01*
X118380951Y-29981228D02*
X118333332Y-29885990D01*
X118333332Y-29885990D02*
X118285713Y-29838371D01*
X118285713Y-29838371D02*
X118190475Y-29790752D01*
X118190475Y-29790752D02*
X118095237Y-29790752D01*
X117333332Y-30457419D02*
X117333332Y-29933609D01*
X117333332Y-29933609D02*
X117380951Y-29838371D01*
X117380951Y-29838371D02*
X117476189Y-29790752D01*
X117476189Y-29790752D02*
X117666665Y-29790752D01*
X117666665Y-29790752D02*
X117761903Y-29838371D01*
X117333332Y-30409800D02*
X117428570Y-30457419D01*
X117428570Y-30457419D02*
X117666665Y-30457419D01*
X117666665Y-30457419D02*
X117761903Y-30409800D01*
X117761903Y-30409800D02*
X117809522Y-30314561D01*
X117809522Y-30314561D02*
X117809522Y-30219323D01*
X117809522Y-30219323D02*
X117761903Y-30124085D01*
X117761903Y-30124085D02*
X117666665Y-30076466D01*
X117666665Y-30076466D02*
X117428570Y-30076466D01*
X117428570Y-30076466D02*
X117333332Y-30028847D01*
X116857141Y-30457419D02*
X116857141Y-29790752D01*
X116857141Y-29457419D02*
X116904760Y-29505038D01*
X116904760Y-29505038D02*
X116857141Y-29552657D01*
X116857141Y-29552657D02*
X116809522Y-29505038D01*
X116809522Y-29505038D02*
X116857141Y-29457419D01*
X116857141Y-29457419D02*
X116857141Y-29552657D01*
X116380951Y-29790752D02*
X116380951Y-30457419D01*
X116380951Y-29885990D02*
X116333332Y-29838371D01*
X116333332Y-29838371D02*
X116238094Y-29790752D01*
X116238094Y-29790752D02*
X116095237Y-29790752D01*
X116095237Y-29790752D02*
X115999999Y-29838371D01*
X115999999Y-29838371D02*
X115952380Y-29933609D01*
X115952380Y-29933609D02*
X115952380Y-30457419D01*
X124142857Y-122290752D02*
X123952381Y-122957419D01*
X123952381Y-122957419D02*
X123761905Y-122481228D01*
X123761905Y-122481228D02*
X123571429Y-122957419D01*
X123571429Y-122957419D02*
X123380953Y-122290752D01*
X122571429Y-122957419D02*
X122571429Y-122433609D01*
X122571429Y-122433609D02*
X122619048Y-122338371D01*
X122619048Y-122338371D02*
X122714286Y-122290752D01*
X122714286Y-122290752D02*
X122904762Y-122290752D01*
X122904762Y-122290752D02*
X123000000Y-122338371D01*
X122571429Y-122909800D02*
X122666667Y-122957419D01*
X122666667Y-122957419D02*
X122904762Y-122957419D01*
X122904762Y-122957419D02*
X123000000Y-122909800D01*
X123000000Y-122909800D02*
X123047619Y-122814561D01*
X123047619Y-122814561D02*
X123047619Y-122719323D01*
X123047619Y-122719323D02*
X123000000Y-122624085D01*
X123000000Y-122624085D02*
X122904762Y-122576466D01*
X122904762Y-122576466D02*
X122666667Y-122576466D01*
X122666667Y-122576466D02*
X122571429Y-122528847D01*
X122238095Y-122290752D02*
X121857143Y-122290752D01*
X122095238Y-121957419D02*
X122095238Y-122814561D01*
X122095238Y-122814561D02*
X122047619Y-122909800D01*
X122047619Y-122909800D02*
X121952381Y-122957419D01*
X121952381Y-122957419D02*
X121857143Y-122957419D01*
X121142857Y-122909800D02*
X121238095Y-122957419D01*
X121238095Y-122957419D02*
X121428571Y-122957419D01*
X121428571Y-122957419D02*
X121523809Y-122909800D01*
X121523809Y-122909800D02*
X121571428Y-122814561D01*
X121571428Y-122814561D02*
X121571428Y-122433609D01*
X121571428Y-122433609D02*
X121523809Y-122338371D01*
X121523809Y-122338371D02*
X121428571Y-122290752D01*
X121428571Y-122290752D02*
X121238095Y-122290752D01*
X121238095Y-122290752D02*
X121142857Y-122338371D01*
X121142857Y-122338371D02*
X121095238Y-122433609D01*
X121095238Y-122433609D02*
X121095238Y-122528847D01*
X121095238Y-122528847D02*
X121571428Y-122624085D01*
X120666666Y-122957419D02*
X120666666Y-122290752D01*
X120666666Y-122481228D02*
X120619047Y-122385990D01*
X120619047Y-122385990D02*
X120571428Y-122338371D01*
X120571428Y-122338371D02*
X120476190Y-122290752D01*
X120476190Y-122290752D02*
X120380952Y-122290752D01*
X118857142Y-122957419D02*
X118857142Y-121957419D01*
X118857142Y-122909800D02*
X118952380Y-122957419D01*
X118952380Y-122957419D02*
X119142856Y-122957419D01*
X119142856Y-122957419D02*
X119238094Y-122909800D01*
X119238094Y-122909800D02*
X119285713Y-122862180D01*
X119285713Y-122862180D02*
X119333332Y-122766942D01*
X119333332Y-122766942D02*
X119333332Y-122481228D01*
X119333332Y-122481228D02*
X119285713Y-122385990D01*
X119285713Y-122385990D02*
X119238094Y-122338371D01*
X119238094Y-122338371D02*
X119142856Y-122290752D01*
X119142856Y-122290752D02*
X118952380Y-122290752D01*
X118952380Y-122290752D02*
X118857142Y-122338371D01*
X118380951Y-122957419D02*
X118380951Y-122290752D01*
X118380951Y-122481228D02*
X118333332Y-122385990D01*
X118333332Y-122385990D02*
X118285713Y-122338371D01*
X118285713Y-122338371D02*
X118190475Y-122290752D01*
X118190475Y-122290752D02*
X118095237Y-122290752D01*
X117333332Y-122957419D02*
X117333332Y-122433609D01*
X117333332Y-122433609D02*
X117380951Y-122338371D01*
X117380951Y-122338371D02*
X117476189Y-122290752D01*
X117476189Y-122290752D02*
X117666665Y-122290752D01*
X117666665Y-122290752D02*
X117761903Y-122338371D01*
X117333332Y-122909800D02*
X117428570Y-122957419D01*
X117428570Y-122957419D02*
X117666665Y-122957419D01*
X117666665Y-122957419D02*
X117761903Y-122909800D01*
X117761903Y-122909800D02*
X117809522Y-122814561D01*
X117809522Y-122814561D02*
X117809522Y-122719323D01*
X117809522Y-122719323D02*
X117761903Y-122624085D01*
X117761903Y-122624085D02*
X117666665Y-122576466D01*
X117666665Y-122576466D02*
X117428570Y-122576466D01*
X117428570Y-122576466D02*
X117333332Y-122528847D01*
X116857141Y-122957419D02*
X116857141Y-122290752D01*
X116857141Y-121957419D02*
X116904760Y-122005038D01*
X116904760Y-122005038D02*
X116857141Y-122052657D01*
X116857141Y-122052657D02*
X116809522Y-122005038D01*
X116809522Y-122005038D02*
X116857141Y-121957419D01*
X116857141Y-121957419D02*
X116857141Y-122052657D01*
X116380951Y-122290752D02*
X116380951Y-122957419D01*
X116380951Y-122385990D02*
X116333332Y-122338371D01*
X116333332Y-122338371D02*
X116238094Y-122290752D01*
X116238094Y-122290752D02*
X116095237Y-122290752D01*
X116095237Y-122290752D02*
X115999999Y-122338371D01*
X115999999Y-122338371D02*
X115952380Y-122433609D01*
X115952380Y-122433609D02*
X115952380Y-122957419D01*
%TO.C,REF\u002A\u002A*%
X115000000Y-30000000D02*
G75*
G02*
X114000000Y-30000000I-500000J0D01*
G01*
X114000000Y-30000000D02*
X114000040Y-29992254D01*
X114000160Y-29984468D01*
X114000360Y-29976642D01*
X114000641Y-29968775D01*
X114001004Y-29960868D01*
X114001448Y-29952918D01*
X114001974Y-29944927D01*
X114002583Y-29936894D01*
X114003276Y-29928817D01*
X114004052Y-29920698D01*
X114004913Y-29912536D01*
X114005858Y-29904330D01*
X114006889Y-29896079D01*
X114008005Y-29887785D01*
X114009209Y-29879445D01*
X114010499Y-29871060D01*
X114011877Y-29862630D01*
X114013343Y-29854154D01*
X114014898Y-29845632D01*
X114016543Y-29837063D01*
X114018278Y-29828448D01*
X114020104Y-29819786D01*
X114022021Y-29811076D01*
X114024030Y-29802319D01*
X114026132Y-29793514D01*
X114028328Y-29784661D01*
X114030617Y-29775760D01*
X114033002Y-29766810D01*
X114035482Y-29757812D01*
X114038058Y-29748764D01*
X114040731Y-29739668D01*
X114043501Y-29730522D01*
X114046370Y-29721327D01*
X114049338Y-29712082D01*
X114052405Y-29702788D01*
X114055572Y-29693444D01*
X114058841Y-29684050D01*
X114062211Y-29674606D01*
X114065684Y-29665112D01*
X114069260Y-29655569D01*
X114072939Y-29645975D01*
X114076723Y-29636332D01*
X114080612Y-29626638D01*
X114084607Y-29616896D01*
X114088708Y-29607103D01*
X114092916Y-29597261D01*
X114097231Y-29587370D01*
X114101655Y-29577430D01*
X114106188Y-29567441D01*
X114110830Y-29557404D01*
X114115582Y-29547318D01*
X114120444Y-29537185D01*
X114125417Y-29527004D01*
X114130502Y-29516777D01*
X114135698Y-29506503D01*
X114141007Y-29496184D01*
X114146428Y-29485819D01*
X114151962Y-29475410D01*
X114157609Y-29464958D01*
X114163369Y-29454462D01*
X114169244Y-29443925D01*
X114175231Y-29433346D01*
X114181333Y-29422728D01*
X114187548Y-29412071D01*
X114193877Y-29401377D01*
X114200320Y-29390646D01*
X114206876Y-29379881D01*
X114213544Y-29369083D01*
X114220325Y-29358253D01*
X114227218Y-29347394D01*
X114234222Y-29336508D01*
X114241337Y-29325596D01*
X114248561Y-29314662D01*
X114255893Y-29303707D01*
X114263332Y-29292734D01*
X114270876Y-29281747D01*
X114278523Y-29270749D01*
X114286272Y-29259743D01*
X114294120Y-29248733D01*
X114302065Y-29237723D01*
X114310103Y-29226719D01*
X114318231Y-29215724D01*
X114326445Y-29204745D01*
X114334741Y-29193788D01*
X114343114Y-29182859D01*
X114351558Y-29171966D01*
X114360067Y-29161118D01*
X114368633Y-29150322D01*
X114377248Y-29139590D01*
X114385903Y-29128934D01*
X114394585Y-29118367D01*
X114403282Y-29107903D01*
X114411979Y-29097560D01*
X114420658Y-29087358D01*
X114429297Y-29077322D01*
X114437871Y-29067478D01*
X114446347Y-29057862D01*
X114454686Y-29048515D01*
X114462837Y-29039490D01*
X114470734Y-29030857D01*
X114478283Y-29022711D01*
X114485348Y-29015189D01*
X114491710Y-29008512D01*
X114496953Y-29003095D01*
X114500000Y-29000000D01*
X115000000Y-30000000D02*
X114999960Y-29992254D01*
X114999840Y-29984468D01*
X114999640Y-29976642D01*
X114999359Y-29968775D01*
X114998996Y-29960868D01*
X114998552Y-29952918D01*
X114998026Y-29944927D01*
X114997417Y-29936894D01*
X114996724Y-29928817D01*
X114995948Y-29920698D01*
X114995087Y-29912536D01*
X114994142Y-29904330D01*
X114993111Y-29896079D01*
X114991995Y-29887785D01*
X114990791Y-29879445D01*
X114989501Y-29871060D01*
X114988123Y-29862630D01*
X114986657Y-29854154D01*
X114985102Y-29845632D01*
X114983457Y-29837063D01*
X114981722Y-29828448D01*
X114979896Y-29819786D01*
X114977979Y-29811076D01*
X114975970Y-29802319D01*
X114973868Y-29793514D01*
X114971672Y-29784661D01*
X114969383Y-29775760D01*
X114966998Y-29766810D01*
X114964518Y-29757812D01*
X114961942Y-29748764D01*
X114959269Y-29739668D01*
X114956499Y-29730522D01*
X114953630Y-29721327D01*
X114950662Y-29712082D01*
X114947595Y-29702788D01*
X114944428Y-29693444D01*
X114941159Y-29684050D01*
X114937789Y-29674606D01*
X114934316Y-29665112D01*
X114930740Y-29655569D01*
X114927061Y-29645975D01*
X114923277Y-29636332D01*
X114919388Y-29626638D01*
X114915393Y-29616896D01*
X114911292Y-29607103D01*
X114907084Y-29597261D01*
X114902769Y-29587370D01*
X114898345Y-29577430D01*
X114893812Y-29567441D01*
X114889170Y-29557404D01*
X114884418Y-29547318D01*
X114879556Y-29537185D01*
X114874583Y-29527004D01*
X114869498Y-29516777D01*
X114864302Y-29506503D01*
X114858993Y-29496184D01*
X114853572Y-29485819D01*
X114848038Y-29475410D01*
X114842391Y-29464958D01*
X114836631Y-29454462D01*
X114830756Y-29443925D01*
X114824769Y-29433346D01*
X114818667Y-29422728D01*
X114812452Y-29412071D01*
X114806123Y-29401377D01*
X114799680Y-29390646D01*
X114793124Y-29379881D01*
X114786456Y-29369083D01*
X114779675Y-29358253D01*
X114772782Y-29347394D01*
X114765778Y-29336508D01*
X114758663Y-29325596D01*
X114751439Y-29314662D01*
X114744107Y-29303707D01*
X114736668Y-29292734D01*
X114729124Y-29281747D01*
X114721477Y-29270749D01*
X114713728Y-29259743D01*
X114705880Y-29248733D01*
X114697935Y-29237723D01*
X114689897Y-29226719D01*
X114681769Y-29215724D01*
X114673555Y-29204745D01*
X114665259Y-29193788D01*
X114656886Y-29182859D01*
X114648442Y-29171966D01*
X114639933Y-29161118D01*
X114631367Y-29150322D01*
X114622752Y-29139590D01*
X114614097Y-29128934D01*
X114605415Y-29118367D01*
X114596718Y-29107903D01*
X114588021Y-29097560D01*
X114579342Y-29087358D01*
X114570703Y-29077322D01*
X114562129Y-29067478D01*
X114553653Y-29057862D01*
X114545314Y-29048515D01*
X114537163Y-29039490D01*
X114529266Y-29030857D01*
X114521717Y-29022711D01*
X114514652Y-29015189D01*
X114508290Y-29008512D01*
X114503047Y-29003095D01*
X114500000Y-29000000D01*
X115000000Y-122500000D02*
G75*
G02*
X114000000Y-122500000I-500000J0D01*
G01*
X114000000Y-122500000D02*
X114000040Y-122492254D01*
X114000160Y-122484468D01*
X114000360Y-122476642D01*
X114000641Y-122468775D01*
X114001004Y-122460868D01*
X114001448Y-122452918D01*
X114001974Y-122444927D01*
X114002583Y-122436894D01*
X114003276Y-122428817D01*
X114004052Y-122420698D01*
X114004913Y-122412536D01*
X114005858Y-122404330D01*
X114006889Y-122396079D01*
X114008005Y-122387785D01*
X114009209Y-122379445D01*
X114010499Y-122371060D01*
X114011877Y-122362630D01*
X114013343Y-122354154D01*
X114014898Y-122345632D01*
X114016543Y-122337063D01*
X114018278Y-122328448D01*
X114020104Y-122319786D01*
X114022021Y-122311076D01*
X114024030Y-122302319D01*
X114026132Y-122293514D01*
X114028328Y-122284661D01*
X114030617Y-122275760D01*
X114033002Y-122266810D01*
X114035482Y-122257812D01*
X114038058Y-122248764D01*
X114040731Y-122239668D01*
X114043501Y-122230522D01*
X114046370Y-122221327D01*
X114049338Y-122212082D01*
X114052405Y-122202788D01*
X114055572Y-122193444D01*
X114058841Y-122184050D01*
X114062211Y-122174606D01*
X114065684Y-122165112D01*
X114069260Y-122155569D01*
X114072939Y-122145975D01*
X114076723Y-122136332D01*
X114080612Y-122126638D01*
X114084607Y-122116896D01*
X114088708Y-122107103D01*
X114092916Y-122097261D01*
X114097231Y-122087370D01*
X114101655Y-122077430D01*
X114106188Y-122067441D01*
X114110830Y-122057404D01*
X114115582Y-122047318D01*
X114120444Y-122037185D01*
X114125417Y-122027004D01*
X114130502Y-122016777D01*
X114135698Y-122006503D01*
X114141007Y-121996184D01*
X114146428Y-121985819D01*
X114151962Y-121975410D01*
X114157609Y-121964958D01*
X114163369Y-121954462D01*
X114169244Y-121943925D01*
X114175231Y-121933346D01*
X114181333Y-121922728D01*
X114187548Y-121912071D01*
X114193877Y-121901377D01*
X114200320Y-121890646D01*
X114206876Y-121879881D01*
X114213544Y-121869083D01*
X114220325Y-121858253D01*
X114227218Y-121847394D01*
X114234222Y-121836508D01*
X114241337Y-121825596D01*
X114248561Y-121814662D01*
X114255893Y-121803707D01*
X114263332Y-121792734D01*
X114270876Y-121781747D01*
X114278523Y-121770749D01*
X114286272Y-121759743D01*
X114294120Y-121748733D01*
X114302065Y-121737723D01*
X114310103Y-121726719D01*
X114318231Y-121715724D01*
X114326445Y-121704745D01*
X114334741Y-121693788D01*
X114343114Y-121682859D01*
X114351558Y-121671966D01*
X114360067Y-121661118D01*
X114368633Y-121650322D01*
X114377248Y-121639590D01*
X114385903Y-121628934D01*
X114394585Y-121618367D01*
X114403282Y-121607903D01*
X114411979Y-121597560D01*
X114420658Y-121587358D01*
X114429297Y-121577322D01*
X114437871Y-121567478D01*
X114446347Y-121557862D01*
X114454686Y-121548515D01*
X114462837Y-121539490D01*
X114470734Y-121530857D01*
X114478283Y-121522711D01*
X114485348Y-121515189D01*
X114491710Y-121508512D01*
X114496953Y-121503095D01*
X114500000Y-121500000D01*
X115000000Y-122500000D02*
X114999960Y-122492254D01*
X114999840Y-122484468D01*
X114999640Y-122476642D01*
X114999359Y-122468775D01*
X114998996Y-122460868D01*
X114998552Y-122452918D01*
X114998026Y-122444927D01*
X114997417Y-122436894D01*
X114996724Y-122428817D01*
X114995948Y-122420698D01*
X114995087Y-122412536D01*
X114994142Y-122404330D01*
X114993111Y-122396079D01*
X114991995Y-122387785D01*
X114990791Y-122379445D01*
X114989501Y-122371060D01*
X114988123Y-122362630D01*
X114986657Y-122354154D01*
X114985102Y-122345632D01*
X114983457Y-122337063D01*
X114981722Y-122328448D01*
X114979896Y-122319786D01*
X114977979Y-122311076D01*
X114975970Y-122302319D01*
X114973868Y-122293514D01*
X114971672Y-122284661D01*
X114969383Y-122275760D01*
X114966998Y-122266810D01*
X114964518Y-122257812D01*
X114961942Y-122248764D01*
X114959269Y-122239668D01*
X114956499Y-122230522D01*
X114953630Y-122221327D01*
X114950662Y-122212082D01*
X114947595Y-122202788D01*
X114944428Y-122193444D01*
X114941159Y-122184050D01*
X114937789Y-122174606D01*
X114934316Y-122165112D01*
X114930740Y-122155569D01*
X114927061Y-122145975D01*
X114923277Y-122136332D01*
X114919388Y-122126638D01*
X114915393Y-122116896D01*
X114911292Y-122107103D01*
X114907084Y-122097261D01*
X114902769Y-122087370D01*
X114898345Y-122077430D01*
X114893812Y-122067441D01*
X114889170Y-122057404D01*
X114884418Y-122047318D01*
X114879556Y-122037185D01*
X114874583Y-122027004D01*
X114869498Y-122016777D01*
X114864302Y-122006503D01*
X114858993Y-121996184D01*
X114853572Y-121985819D01*
X114848038Y-121975410D01*
X114842391Y-121964958D01*
X114836631Y-121954462D01*
X114830756Y-121943925D01*
X114824769Y-121933346D01*
X114818667Y-121922728D01*
X114812452Y-121912071D01*
X114806123Y-121901377D01*
X114799680Y-121890646D01*
X114793124Y-121879881D01*
X114786456Y-121869083D01*
X114779675Y-121858253D01*
X114772782Y-121847394D01*
X114765778Y-121836508D01*
X114758663Y-121825596D01*
X114751439Y-121814662D01*
X114744107Y-121803707D01*
X114736668Y-121792734D01*
X114729124Y-121781747D01*
X114721477Y-121770749D01*
X114713728Y-121759743D01*
X114705880Y-121748733D01*
X114697935Y-121737723D01*
X114689897Y-121726719D01*
X114681769Y-121715724D01*
X114673555Y-121704745D01*
X114665259Y-121693788D01*
X114656886Y-121682859D01*
X114648442Y-121671966D01*
X114639933Y-121661118D01*
X114631367Y-121650322D01*
X114622752Y-121639590D01*
X114614097Y-121628934D01*
X114605415Y-121618367D01*
X114596718Y-121607903D01*
X114588021Y-121597560D01*
X114579342Y-121587358D01*
X114570703Y-121577322D01*
X114562129Y-121567478D01*
X114553653Y-121557862D01*
X114545314Y-121548515D01*
X114537163Y-121539490D01*
X114529266Y-121530857D01*
X114521717Y-121522711D01*
X114514652Y-121515189D01*
X114508290Y-121508512D01*
X114503047Y-121503095D01*
X114500000Y-121500000D01*
%TD*%
%LPC*%
X78706093Y-81250000D02*
X78456093Y-81500000D01*
X78706093Y-81750000D01*
X78456093Y-82000000D01*
X78206093Y-81750000D01*
X77956093Y-82000000D01*
X77706093Y-81750000D01*
X77956093Y-81500000D01*
X77706093Y-81250000D01*
X77956093Y-81000000D01*
X78206093Y-81250000D01*
X78456093Y-81000000D01*
X78706093Y-81250000D01*
G36*
X78706093Y-81250000D02*
G01*
X78456093Y-81500000D01*
X78706093Y-81750000D01*
X78456093Y-82000000D01*
X78206093Y-81750000D01*
X77956093Y-82000000D01*
X77706093Y-81750000D01*
X77956093Y-81500000D01*
X77706093Y-81250000D01*
X77956093Y-81000000D01*
X78206093Y-81250000D01*
X78456093Y-81000000D01*
X78706093Y-81250000D01*
G37*
X74206093Y-78250000D02*
X73956093Y-78500000D01*
X74206093Y-78750000D01*
X73956093Y-79000000D01*
X73706093Y-78750000D01*
X73456093Y-79000000D01*
X73206093Y-78750000D01*
X73456093Y-78500000D01*
X73206093Y-78250000D01*
X73456093Y-78000000D01*
X73706093Y-78250000D01*
X73956093Y-78000000D01*
X74206093Y-78250000D01*
G36*
X74206093Y-78250000D02*
G01*
X73956093Y-78500000D01*
X74206093Y-78750000D01*
X73956093Y-79000000D01*
X73706093Y-78750000D01*
X73456093Y-79000000D01*
X73206093Y-78750000D01*
X73456093Y-78500000D01*
X73206093Y-78250000D01*
X73456093Y-78000000D01*
X73706093Y-78250000D01*
X73956093Y-78000000D01*
X74206093Y-78250000D01*
G37*
X74206093Y-79750000D02*
X73956093Y-80000000D01*
X74206093Y-80250000D01*
X73956093Y-80500000D01*
X73706093Y-80250000D01*
X73456093Y-80500000D01*
X73206093Y-80250000D01*
X73456093Y-80000000D01*
X73206093Y-79750000D01*
X73456093Y-79500000D01*
X73706093Y-79750000D01*
X73956093Y-79500000D01*
X74206093Y-79750000D01*
G36*
X74206093Y-79750000D02*
G01*
X73956093Y-80000000D01*
X74206093Y-80250000D01*
X73956093Y-80500000D01*
X73706093Y-80250000D01*
X73456093Y-80500000D01*
X73206093Y-80250000D01*
X73456093Y-80000000D01*
X73206093Y-79750000D01*
X73456093Y-79500000D01*
X73706093Y-79750000D01*
X73956093Y-79500000D01*
X74206093Y-79750000D01*
G37*
X77206093Y-81250000D02*
X76956093Y-81500000D01*
X77206093Y-81750000D01*
X76956093Y-82000000D01*
X76706093Y-81750000D01*
X76456093Y-82000000D01*
X76206093Y-81750000D01*
X76456093Y-81500000D01*
X76206093Y-81250000D01*
X76456093Y-81000000D01*
X76706093Y-81250000D01*
X76956093Y-81000000D01*
X77206093Y-81250000D01*
G36*
X77206093Y-81250000D02*
G01*
X76956093Y-81500000D01*
X77206093Y-81750000D01*
X76956093Y-82000000D01*
X76706093Y-81750000D01*
X76456093Y-82000000D01*
X76206093Y-81750000D01*
X76456093Y-81500000D01*
X76206093Y-81250000D01*
X76456093Y-81000000D01*
X76706093Y-81250000D01*
X76956093Y-81000000D01*
X77206093Y-81250000D01*
G37*
X75706093Y-79750000D02*
X75456093Y-80000000D01*
X75706093Y-80250000D01*
X75456093Y-80500000D01*
X75206093Y-80250000D01*
X74956093Y-80500000D01*
X74706093Y-80250000D01*
X74956093Y-80000000D01*
X74706093Y-79750000D01*
X74956093Y-79500000D01*
X75206093Y-79750000D01*
X75456093Y-79500000D01*
X75706093Y-79750000D01*
G36*
X75706093Y-79750000D02*
G01*
X75456093Y-80000000D01*
X75706093Y-80250000D01*
X75456093Y-80500000D01*
X75206093Y-80250000D01*
X74956093Y-80500000D01*
X74706093Y-80250000D01*
X74956093Y-80000000D01*
X74706093Y-79750000D01*
X74956093Y-79500000D01*
X75206093Y-79750000D01*
X75456093Y-79500000D01*
X75706093Y-79750000D01*
G37*
X74206093Y-81250000D02*
X73956093Y-81500000D01*
X74206093Y-81750000D01*
X73956093Y-82000000D01*
X73706093Y-81750000D01*
X73456093Y-82000000D01*
X73206093Y-81750000D01*
X73456093Y-81500000D01*
X73206093Y-81250000D01*
X73456093Y-81000000D01*
X73706093Y-81250000D01*
X73956093Y-81000000D01*
X74206093Y-81250000D01*
G36*
X74206093Y-81250000D02*
G01*
X73956093Y-81500000D01*
X74206093Y-81750000D01*
X73956093Y-82000000D01*
X73706093Y-81750000D01*
X73456093Y-82000000D01*
X73206093Y-81750000D01*
X73456093Y-81500000D01*
X73206093Y-81250000D01*
X73456093Y-81000000D01*
X73706093Y-81250000D01*
X73956093Y-81000000D01*
X74206093Y-81250000D01*
G37*
X75706093Y-81250000D02*
X75456093Y-81500000D01*
X75706093Y-81750000D01*
X75456093Y-82000000D01*
X75206093Y-81750000D01*
X74956093Y-82000000D01*
X74706093Y-81750000D01*
X74956093Y-81500000D01*
X74706093Y-81250000D01*
X74956093Y-81000000D01*
X75206093Y-81250000D01*
X75456093Y-81000000D01*
X75706093Y-81250000D01*
G36*
X75706093Y-81250000D02*
G01*
X75456093Y-81500000D01*
X75706093Y-81750000D01*
X75456093Y-82000000D01*
X75206093Y-81750000D01*
X74956093Y-82000000D01*
X74706093Y-81750000D01*
X74956093Y-81500000D01*
X74706093Y-81250000D01*
X74956093Y-81000000D01*
X75206093Y-81250000D01*
X75456093Y-81000000D01*
X75706093Y-81250000D01*
G37*
G36*
X160694578Y-102118527D02*
G01*
X163497717Y-101941892D01*
X166166567Y-101419284D01*
X168725283Y-100552930D01*
X171144742Y-99353052D01*
X173028309Y-98025206D01*
X174460105Y-96576657D01*
X173676086Y-95851256D01*
X172336774Y-97169083D01*
X170580925Y-98402224D01*
X168332052Y-99544207D01*
X165959358Y-100376178D01*
X163441299Y-100881592D01*
X160750754Y-101053628D01*
X157923249Y-100905473D01*
X155630151Y-100498646D01*
X153782506Y-99878820D01*
X152069601Y-98967027D01*
X150746884Y-97913618D01*
X149754941Y-96718318D01*
X149022615Y-95344173D01*
X148586088Y-93888755D01*
X148438472Y-92324389D01*
X148602266Y-90504159D01*
X149059072Y-89025999D01*
X149781808Y-87820551D01*
X151323081Y-86314941D01*
X153364850Y-85133879D01*
X155668824Y-84249277D01*
X158232610Y-83512107D01*
X163520468Y-82195638D01*
X166102472Y-81409088D01*
X168417537Y-80434647D01*
X170445986Y-79127868D01*
X171998137Y-77440230D01*
X172717699Y-76108500D01*
X173176423Y-74472179D01*
X173341473Y-72457676D01*
X173189345Y-70779545D01*
X172736048Y-69184208D01*
X171971270Y-67646092D01*
X170926266Y-66286307D01*
X169527829Y-65075234D01*
X167716560Y-64009316D01*
X165744103Y-63270042D01*
X163287594Y-62786073D01*
X160245171Y-62609804D01*
X157140887Y-62853395D01*
X154063385Y-63589218D01*
X151184839Y-64758884D01*
X148885437Y-66190404D01*
X149500929Y-67086775D01*
X151973018Y-65578979D01*
X154708186Y-64512456D01*
X157547061Y-63875969D01*
X160191438Y-63672260D01*
X162899480Y-63822187D01*
X165130616Y-64237261D01*
X166961850Y-64876378D01*
X168656265Y-65803951D01*
X169961204Y-66866934D01*
X170935681Y-68066189D01*
X171648740Y-69437839D01*
X172077079Y-70910804D01*
X172222841Y-72513852D01*
X172057879Y-74373967D01*
X171599997Y-75869938D01*
X170879505Y-77076308D01*
X169338815Y-78580111D01*
X167298905Y-79760537D01*
X164989514Y-80644755D01*
X162401836Y-81384752D01*
X157113978Y-82728087D01*
X154554941Y-83534821D01*
X152246218Y-84518387D01*
X150211356Y-85814658D01*
X148663176Y-87456629D01*
X147943604Y-88752344D01*
X147484989Y-90350129D01*
X147319840Y-92324389D01*
X147474909Y-94001138D01*
X147937475Y-95597064D01*
X148719351Y-97138415D01*
X149782964Y-98490664D01*
X151216000Y-99693264D01*
X153083971Y-100748325D01*
X155108310Y-101472792D01*
X157612706Y-101946407D01*
X160694578Y-102118527D01*
G37*
G36*
X136617118Y-101950000D02*
G01*
X136617118Y-62778332D01*
X135496044Y-62778332D01*
X135496044Y-101950000D01*
X136617118Y-101950000D01*
G37*
G36*
X104684808Y-102118527D02*
G01*
X107527477Y-101948720D01*
X110176536Y-101451274D01*
X112659337Y-100635973D01*
X115012063Y-99503939D01*
X117131513Y-98116575D01*
X119038961Y-96466748D01*
X120712166Y-94579276D01*
X122117556Y-92496442D01*
X123264362Y-90199476D01*
X124094070Y-87769806D01*
X124600642Y-85167752D01*
X124773783Y-82364166D01*
X124600575Y-79558963D01*
X124093942Y-76956966D01*
X123264362Y-74528855D01*
X122117556Y-72231889D01*
X120712166Y-70149055D01*
X119038961Y-68261584D01*
X117131277Y-66610494D01*
X115011834Y-65223173D01*
X112659337Y-64092358D01*
X110176536Y-63277057D01*
X107527477Y-62779612D01*
X104684808Y-62609804D01*
X102132320Y-62748996D01*
X99694842Y-63160585D01*
X97355081Y-63840788D01*
X95131963Y-64812454D01*
X93143909Y-66059286D01*
X91366246Y-67589916D01*
X92037914Y-68373935D01*
X93918468Y-66800454D01*
X95871322Y-65598076D01*
X97911954Y-64737159D01*
X101174042Y-63942595D01*
X104684808Y-63672260D01*
X107340829Y-63835118D01*
X109831952Y-64313707D01*
X112183064Y-65101081D01*
X114412246Y-66185077D01*
X116420626Y-67507504D01*
X118228074Y-69074912D01*
X119814016Y-70862831D01*
X121144572Y-72833711D01*
X122228772Y-75005129D01*
X123013988Y-77300240D01*
X123492121Y-79744521D01*
X123655150Y-82364166D01*
X123492121Y-84983810D01*
X123013988Y-87428091D01*
X122228772Y-89723203D01*
X121144669Y-91894727D01*
X119814123Y-93866449D01*
X118228074Y-95655861D01*
X116420779Y-97221802D01*
X114412401Y-98543442D01*
X112183064Y-99627250D01*
X109832060Y-100413250D01*
X107340921Y-100891037D01*
X104684808Y-101053628D01*
X101175001Y-100777249D01*
X97911954Y-99964305D01*
X95870502Y-99086870D01*
X93917436Y-97874330D01*
X92037914Y-96298220D01*
X91366246Y-97082240D01*
X93142979Y-98615414D01*
X95131179Y-99872215D01*
X97355081Y-100860676D01*
X99695893Y-101555971D01*
X102133202Y-101976398D01*
X104684808Y-102118527D01*
G37*
D11*
%TO.C,REF\u002A\u002A*%
X138000000Y-32000000D02*
X146000000Y-32000000D01*
X146000000Y-28000000D02*
X138000000Y-28000000D01*
X138000000Y-32000000D02*
G75*
G02*
X138000000Y-28000000I0J2000000D01*
G01*
X146000000Y-28000000D02*
G75*
G02*
X146000000Y-32000000I0J-2000000D01*
G01*
X92000000Y-32000000D02*
X100000000Y-32000000D01*
X100000000Y-28000000D02*
X92000000Y-28000000D01*
X92000000Y-32000000D02*
G75*
G02*
X92000000Y-28000000I0J2000000D01*
G01*
X100000000Y-28000000D02*
G75*
G02*
X100000000Y-32000000I0J-2000000D01*
G01*
X138000000Y-124500000D02*
X146000000Y-124500000D01*
X146000000Y-120500000D02*
X138000000Y-120500000D01*
X138000000Y-124500000D02*
G75*
G02*
X138000000Y-120500000I0J2000000D01*
G01*
X146000000Y-120500000D02*
G75*
G02*
X146000000Y-124500000I0J-2000000D01*
G01*
X92000000Y-124500000D02*
X100000000Y-124500000D01*
X100000000Y-120500000D02*
X92000000Y-120500000D01*
X92000000Y-124500000D02*
G75*
G02*
X92000000Y-120500000I0J2000000D01*
G01*
X100000000Y-120500000D02*
G75*
G02*
X100000000Y-124500000I0J-2000000D01*
G01*
%TD*%
%LPD*%
M02*
