%TF.GenerationSoftware,KiCad,Pcbnew,9.0.4*%
%TF.CreationDate,2026-02-04T08:56:54+09:00*%
%TF.ProjectId,ansicBackplate,616e7369-6342-4616-936b-706c6174652e,rev?*%
%TF.SameCoordinates,Original*%
%TF.FileFunction,Profile,NP*%
%FSLAX46Y46*%
G04 Gerber Fmt 4.6, Leading zero omitted, Abs format (unit mm)*
G04 Created by KiCad (PCBNEW 9.0.4) date 2026-02-04 08:56:54*
%MOMM*%
%LPD*%
G01*
G04 APERTURE LIST*
%TA.AperFunction,Profile*%
%ADD10C,0.047037*%
%TD*%
G04 APERTURE END LIST*
D10*
X60064325Y-68251619D02*
X60127805Y-68256446D01*
X60190362Y-68264395D01*
X60251918Y-68275388D01*
X60312394Y-68289345D01*
X60371711Y-68306190D01*
X60429791Y-68325842D01*
X60486555Y-68348224D01*
X60541926Y-68373256D01*
X60595823Y-68400861D01*
X60648169Y-68430959D01*
X60698886Y-68463473D01*
X60747894Y-68498323D01*
X60795115Y-68535432D01*
X60840471Y-68574720D01*
X60883883Y-68616109D01*
X60925272Y-68659521D01*
X60964560Y-68704877D01*
X61001669Y-68752098D01*
X61036519Y-68801106D01*
X61069033Y-68851823D01*
X61099131Y-68904169D01*
X61126736Y-68958066D01*
X61151768Y-69013437D01*
X61174150Y-69070201D01*
X61193802Y-69128281D01*
X61210647Y-69187598D01*
X61224604Y-69248074D01*
X61235597Y-69309630D01*
X61243546Y-69372187D01*
X61248373Y-69435667D01*
X61250000Y-69499992D01*
X61248373Y-69564317D01*
X61243546Y-69627797D01*
X61235597Y-69690354D01*
X61224604Y-69751910D01*
X61210647Y-69812386D01*
X61193802Y-69871703D01*
X61174150Y-69929783D01*
X61151768Y-69986547D01*
X61126736Y-70041918D01*
X61099131Y-70095815D01*
X61069033Y-70148161D01*
X61036519Y-70198878D01*
X61001669Y-70247886D01*
X60964560Y-70295107D01*
X60925272Y-70340463D01*
X60883883Y-70383875D01*
X60840471Y-70425264D01*
X60795115Y-70464552D01*
X60747894Y-70501661D01*
X60698886Y-70536511D01*
X60648169Y-70569025D01*
X60595823Y-70599123D01*
X60541926Y-70626728D01*
X60486555Y-70651760D01*
X60429791Y-70674142D01*
X60371711Y-70693794D01*
X60312394Y-70710639D01*
X60251918Y-70724596D01*
X60190362Y-70735589D01*
X60127805Y-70743538D01*
X60064325Y-70748366D01*
X60000000Y-70749992D01*
X59935675Y-70748366D01*
X59872195Y-70743538D01*
X59809638Y-70735589D01*
X59748082Y-70724596D01*
X59687606Y-70710639D01*
X59628289Y-70693794D01*
X59570209Y-70674142D01*
X59513445Y-70651760D01*
X59458074Y-70626728D01*
X59404177Y-70599123D01*
X59351831Y-70569025D01*
X59301114Y-70536511D01*
X59252106Y-70501661D01*
X59204885Y-70464552D01*
X59159529Y-70425264D01*
X59116117Y-70383875D01*
X59074728Y-70340463D01*
X59035440Y-70295107D01*
X58998331Y-70247886D01*
X58963481Y-70198878D01*
X58930967Y-70148161D01*
X58900869Y-70095815D01*
X58873264Y-70041918D01*
X58848232Y-69986547D01*
X58825850Y-69929783D01*
X58806198Y-69871703D01*
X58789353Y-69812386D01*
X58775396Y-69751910D01*
X58764403Y-69690354D01*
X58756454Y-69627797D01*
X58751626Y-69564317D01*
X58750000Y-69499992D01*
X58751626Y-69435667D01*
X58756454Y-69372187D01*
X58764403Y-69309630D01*
X58775396Y-69248074D01*
X58789353Y-69187598D01*
X58806198Y-69128281D01*
X58825850Y-69070201D01*
X58848232Y-69013437D01*
X58873264Y-68958066D01*
X58900869Y-68904169D01*
X58930967Y-68851823D01*
X58963481Y-68801106D01*
X58998331Y-68752098D01*
X59035440Y-68704877D01*
X59074728Y-68659521D01*
X59116117Y-68616109D01*
X59159529Y-68574720D01*
X59204885Y-68535432D01*
X59252106Y-68498323D01*
X59301114Y-68463473D01*
X59351831Y-68430959D01*
X59404177Y-68400861D01*
X59458074Y-68373256D01*
X59513445Y-68348224D01*
X59570209Y-68325842D01*
X59628289Y-68306190D01*
X59687606Y-68289345D01*
X59748082Y-68275388D01*
X59809638Y-68264395D01*
X59872195Y-68256446D01*
X59935675Y-68251619D01*
X60000000Y-68249992D01*
X60064325Y-68251619D01*
X178064321Y-68251619D02*
X178127802Y-68256446D01*
X178190359Y-68264395D01*
X178251915Y-68275388D01*
X178312391Y-68289345D01*
X178371708Y-68306190D01*
X178429789Y-68325842D01*
X178486553Y-68348224D01*
X178541923Y-68373256D01*
X178595821Y-68400861D01*
X178648167Y-68430959D01*
X178698884Y-68463473D01*
X178747892Y-68498323D01*
X178795113Y-68535432D01*
X178840468Y-68574720D01*
X178883880Y-68616109D01*
X178925269Y-68659521D01*
X178964557Y-68704877D01*
X179001666Y-68752098D01*
X179036516Y-68801106D01*
X179069030Y-68851823D01*
X179099128Y-68904169D01*
X179126733Y-68958066D01*
X179151765Y-69013437D01*
X179174147Y-69070201D01*
X179193799Y-69128281D01*
X179210643Y-69187598D01*
X179224601Y-69248074D01*
X179235593Y-69309630D01*
X179243543Y-69372187D01*
X179248370Y-69435667D01*
X179249996Y-69499992D01*
X179248370Y-69564317D01*
X179243543Y-69627797D01*
X179235593Y-69690354D01*
X179224601Y-69751910D01*
X179210643Y-69812386D01*
X179193799Y-69871703D01*
X179174147Y-69929783D01*
X179151765Y-69986547D01*
X179126733Y-70041918D01*
X179099128Y-70095815D01*
X179069030Y-70148161D01*
X179036516Y-70198878D01*
X179001666Y-70247886D01*
X178964557Y-70295107D01*
X178925269Y-70340463D01*
X178883880Y-70383875D01*
X178840468Y-70425264D01*
X178795113Y-70464552D01*
X178747892Y-70501661D01*
X178698884Y-70536511D01*
X178648167Y-70569025D01*
X178595821Y-70599123D01*
X178541923Y-70626728D01*
X178486553Y-70651760D01*
X178429789Y-70674142D01*
X178371708Y-70693794D01*
X178312391Y-70710639D01*
X178251915Y-70724596D01*
X178190359Y-70735589D01*
X178127802Y-70743538D01*
X178064321Y-70748366D01*
X177999996Y-70749992D01*
X177935672Y-70748366D01*
X177872191Y-70743538D01*
X177809634Y-70735589D01*
X177748078Y-70724596D01*
X177687603Y-70710639D01*
X177628286Y-70693794D01*
X177570206Y-70674142D01*
X177513441Y-70651760D01*
X177458071Y-70626728D01*
X177404174Y-70599123D01*
X177351828Y-70569025D01*
X177301112Y-70536511D01*
X177252104Y-70501661D01*
X177204883Y-70464552D01*
X177159527Y-70425264D01*
X177116116Y-70383875D01*
X177074727Y-70340463D01*
X177035439Y-70295107D01*
X176998330Y-70247886D01*
X176963480Y-70198878D01*
X176930966Y-70148161D01*
X176900868Y-70095815D01*
X176873263Y-70041918D01*
X176848231Y-69986547D01*
X176825849Y-69929783D01*
X176806197Y-69871703D01*
X176789353Y-69812386D01*
X176775395Y-69751910D01*
X176764403Y-69690354D01*
X176756454Y-69627797D01*
X176751626Y-69564317D01*
X176750000Y-69499992D01*
X176751626Y-69435667D01*
X176756454Y-69372187D01*
X176764403Y-69309630D01*
X176775395Y-69248074D01*
X176789353Y-69187598D01*
X176806197Y-69128281D01*
X176825849Y-69070201D01*
X176848231Y-69013437D01*
X176873263Y-68958066D01*
X176900868Y-68904169D01*
X176930966Y-68851823D01*
X176963480Y-68801106D01*
X176998330Y-68752098D01*
X177035439Y-68704877D01*
X177074727Y-68659521D01*
X177116116Y-68616109D01*
X177159527Y-68574720D01*
X177204883Y-68535432D01*
X177252104Y-68498323D01*
X177301112Y-68463473D01*
X177351828Y-68430959D01*
X177404174Y-68400861D01*
X177458071Y-68373256D01*
X177513441Y-68348224D01*
X177570206Y-68325842D01*
X177628286Y-68306190D01*
X177687603Y-68289345D01*
X177748078Y-68275388D01*
X177809634Y-68264395D01*
X177872191Y-68256446D01*
X177935672Y-68251619D01*
X177999996Y-68249992D01*
X178064321Y-68251619D01*
X178064321Y-123751603D02*
X178127802Y-123756431D01*
X178190359Y-123764380D01*
X178251915Y-123775373D01*
X178312391Y-123789331D01*
X178371708Y-123806176D01*
X178429789Y-123825829D01*
X178486553Y-123848211D01*
X178541923Y-123873244D01*
X178595821Y-123900849D01*
X178648167Y-123930948D01*
X178698884Y-123963463D01*
X178747892Y-123998314D01*
X178795113Y-124035423D01*
X178840468Y-124074712D01*
X178883880Y-124116102D01*
X178925269Y-124159514D01*
X178964557Y-124204871D01*
X179001666Y-124252093D01*
X179036516Y-124301101D01*
X179069030Y-124351818D01*
X179099128Y-124404165D01*
X179126733Y-124458063D01*
X179151765Y-124513434D01*
X179174147Y-124570199D01*
X179193799Y-124628280D01*
X179210643Y-124687597D01*
X179224601Y-124748073D01*
X179235593Y-124809630D01*
X179243543Y-124872187D01*
X179248370Y-124935667D01*
X179249996Y-124999992D01*
X179248370Y-125064317D01*
X179243543Y-125127797D01*
X179235593Y-125190354D01*
X179224601Y-125251911D01*
X179210643Y-125312387D01*
X179193799Y-125371704D01*
X179174147Y-125429785D01*
X179151765Y-125486550D01*
X179126733Y-125541921D01*
X179099128Y-125595819D01*
X179069030Y-125648166D01*
X179036516Y-125698883D01*
X179001666Y-125747891D01*
X178964557Y-125795113D01*
X178925269Y-125840470D01*
X178883880Y-125883882D01*
X178840468Y-125925272D01*
X178795113Y-125964561D01*
X178747892Y-126001670D01*
X178698884Y-126036521D01*
X178648167Y-126069036D01*
X178595821Y-126099135D01*
X178541923Y-126126740D01*
X178486553Y-126151773D01*
X178429789Y-126174155D01*
X178371708Y-126193808D01*
X178312391Y-126210653D01*
X178251915Y-126224611D01*
X178190359Y-126235604D01*
X178127802Y-126243553D01*
X178064321Y-126248381D01*
X177999996Y-126250007D01*
X177935672Y-126248381D01*
X177872191Y-126243553D01*
X177809634Y-126235604D01*
X177748078Y-126224611D01*
X177687603Y-126210653D01*
X177628286Y-126193808D01*
X177570206Y-126174155D01*
X177513441Y-126151773D01*
X177458071Y-126126740D01*
X177404174Y-126099135D01*
X177351828Y-126069036D01*
X177301112Y-126036521D01*
X177252104Y-126001670D01*
X177204883Y-125964561D01*
X177159527Y-125925272D01*
X177116116Y-125883882D01*
X177074727Y-125840470D01*
X177035439Y-125795113D01*
X176998330Y-125747891D01*
X176963480Y-125698883D01*
X176930966Y-125648166D01*
X176900868Y-125595819D01*
X176873263Y-125541921D01*
X176848231Y-125486550D01*
X176825849Y-125429785D01*
X176806197Y-125371704D01*
X176789353Y-125312387D01*
X176775395Y-125251911D01*
X176764403Y-125190354D01*
X176756454Y-125127797D01*
X176751626Y-125064317D01*
X176750000Y-124999992D01*
X176751626Y-124935667D01*
X176756454Y-124872187D01*
X176764403Y-124809630D01*
X176775395Y-124748073D01*
X176789353Y-124687597D01*
X176806197Y-124628280D01*
X176825849Y-124570199D01*
X176848231Y-124513434D01*
X176873263Y-124458063D01*
X176900868Y-124404165D01*
X176930966Y-124351818D01*
X176963480Y-124301101D01*
X176998330Y-124252093D01*
X177035439Y-124204871D01*
X177074727Y-124159514D01*
X177116116Y-124116102D01*
X177159527Y-124074712D01*
X177204883Y-124035423D01*
X177252104Y-123998314D01*
X177301112Y-123963463D01*
X177351828Y-123930948D01*
X177404174Y-123900849D01*
X177458071Y-123873244D01*
X177513441Y-123848211D01*
X177570206Y-123825829D01*
X177628286Y-123806176D01*
X177687603Y-123789331D01*
X177748078Y-123775373D01*
X177809634Y-123764380D01*
X177872191Y-123756431D01*
X177935672Y-123751603D01*
X177999996Y-123749977D01*
X178064321Y-123751603D01*
X179551412Y-25001302D02*
X179602159Y-25005168D01*
X179652172Y-25011534D01*
X179701389Y-25020337D01*
X179749746Y-25031513D01*
X179797182Y-25045001D01*
X179843631Y-25060736D01*
X179889032Y-25078655D01*
X179933322Y-25098696D01*
X179976436Y-25120796D01*
X180018313Y-25144890D01*
X180058889Y-25170917D01*
X180098100Y-25198812D01*
X180135884Y-25228514D01*
X180172178Y-25259958D01*
X180206919Y-25293082D01*
X180240043Y-25327822D01*
X180271487Y-25364116D01*
X180301188Y-25401900D01*
X180329084Y-25441112D01*
X180355110Y-25481687D01*
X180379205Y-25523564D01*
X180401304Y-25566678D01*
X180421345Y-25610967D01*
X180439264Y-25656368D01*
X180454999Y-25702817D01*
X180468486Y-25750252D01*
X180479663Y-25798609D01*
X180488466Y-25847826D01*
X180494832Y-25897838D01*
X180498697Y-25948584D01*
X180500000Y-26000000D01*
X180500000Y-126500007D01*
X180498697Y-126551422D01*
X180494832Y-126602167D01*
X180488466Y-126652179D01*
X180479663Y-126701395D01*
X180468486Y-126749752D01*
X180454999Y-126797187D01*
X180439264Y-126843636D01*
X180421345Y-126889037D01*
X180401304Y-126933326D01*
X180379205Y-126976440D01*
X180355110Y-127018316D01*
X180329084Y-127058892D01*
X180301188Y-127098103D01*
X180271487Y-127135888D01*
X180240043Y-127172182D01*
X180206919Y-127206922D01*
X180172178Y-127240046D01*
X180135884Y-127271491D01*
X180098100Y-127301192D01*
X180058889Y-127329088D01*
X180018313Y-127355115D01*
X179976436Y-127379210D01*
X179933322Y-127401309D01*
X179889032Y-127421350D01*
X179843631Y-127439270D01*
X179797182Y-127455005D01*
X179749746Y-127468493D01*
X179701389Y-127479670D01*
X179652172Y-127488473D01*
X179602159Y-127494839D01*
X179551412Y-127498705D01*
X179499996Y-127500007D01*
X130000000Y-127500007D01*
X129292892Y-126792884D01*
X129256959Y-126758691D01*
X129219541Y-126726458D01*
X129180722Y-126696219D01*
X129140583Y-126668008D01*
X129099206Y-126641859D01*
X129056673Y-126617805D01*
X129013066Y-126595882D01*
X128968467Y-126576122D01*
X128922957Y-126558560D01*
X128876620Y-126543229D01*
X128829536Y-126530164D01*
X128781787Y-126519398D01*
X128733455Y-126510965D01*
X128684623Y-126504900D01*
X128635373Y-126501236D01*
X128585785Y-126500007D01*
X109414207Y-126500007D01*
X109364622Y-126501236D01*
X109315373Y-126504900D01*
X109266543Y-126510965D01*
X109218212Y-126519398D01*
X109170464Y-126530164D01*
X109123379Y-126543229D01*
X109077041Y-126558560D01*
X109031531Y-126576122D01*
X108986931Y-126595882D01*
X108943324Y-126617805D01*
X108900790Y-126641859D01*
X108859412Y-126668008D01*
X108819272Y-126696219D01*
X108780452Y-126726458D01*
X108743034Y-126758691D01*
X108707100Y-126792884D01*
X107999992Y-127500007D01*
X58500000Y-127500007D01*
X58448584Y-127498705D01*
X58397838Y-127494839D01*
X58347824Y-127488473D01*
X58298608Y-127479670D01*
X58250250Y-127468493D01*
X58202815Y-127455005D01*
X58156365Y-127439270D01*
X58110964Y-127421350D01*
X58066675Y-127401309D01*
X58023561Y-127379210D01*
X57981684Y-127355115D01*
X57941109Y-127329088D01*
X57901897Y-127301192D01*
X57864113Y-127271491D01*
X57827820Y-127240046D01*
X57793079Y-127206922D01*
X57759956Y-127172182D01*
X57728512Y-127135888D01*
X57698811Y-127098103D01*
X57670915Y-127058892D01*
X57644889Y-127018316D01*
X57620795Y-126976440D01*
X57598696Y-126933326D01*
X57578655Y-126889037D01*
X57560735Y-126843636D01*
X57545001Y-126797187D01*
X57531513Y-126749752D01*
X57520337Y-126701395D01*
X57511534Y-126652179D01*
X57505168Y-126602167D01*
X57501303Y-126551422D01*
X57500000Y-126500007D01*
X57500000Y-43000000D01*
X69000000Y-43000000D01*
X69025708Y-42999348D01*
X69051081Y-42997415D01*
X69076088Y-42994233D01*
X69100696Y-42989831D01*
X69124875Y-42984243D01*
X69148592Y-42977499D01*
X69171817Y-42969632D01*
X69194518Y-42960672D01*
X69216663Y-42950652D01*
X69238220Y-42939602D01*
X69259158Y-42927555D01*
X69279446Y-42914542D01*
X69299051Y-42900594D01*
X69317943Y-42885744D01*
X69336090Y-42870022D01*
X69353460Y-42853460D01*
X69370022Y-42836090D01*
X69385744Y-42817943D01*
X69400595Y-42799051D01*
X69414542Y-42779445D01*
X69427556Y-42759158D01*
X69439603Y-42738219D01*
X69450652Y-42716662D01*
X69460673Y-42694518D01*
X69469632Y-42671817D01*
X69477500Y-42648592D01*
X69484243Y-42624875D01*
X69489832Y-42600696D01*
X69494233Y-42576087D01*
X69497416Y-42551081D01*
X69499349Y-42525708D01*
X69500000Y-42500000D01*
X69500000Y-30529495D01*
X69499352Y-30503811D01*
X69497427Y-30478463D01*
X69494258Y-30453482D01*
X69489876Y-30428900D01*
X69484311Y-30404748D01*
X69477596Y-30381057D01*
X69469760Y-30357858D01*
X69460836Y-30335183D01*
X69450855Y-30313063D01*
X69439848Y-30291530D01*
X69427845Y-30270614D01*
X69414880Y-30250347D01*
X69400981Y-30230760D01*
X69386182Y-30211885D01*
X69370512Y-30193753D01*
X69354004Y-30176395D01*
X69336688Y-30159842D01*
X69318596Y-30144127D01*
X69299759Y-30129279D01*
X69280208Y-30115331D01*
X69259974Y-30102313D01*
X69239089Y-30090257D01*
X69217584Y-30079195D01*
X69195490Y-30069157D01*
X69172838Y-30060175D01*
X69149660Y-30052280D01*
X69125986Y-30045504D01*
X69101848Y-30039877D01*
X69077278Y-30035432D01*
X69052306Y-30032199D01*
X69026963Y-30030209D01*
X69001282Y-30029495D01*
X57500000Y-29999992D01*
X57500000Y-26000000D01*
X57501303Y-25948584D01*
X57505168Y-25897838D01*
X57511534Y-25847826D01*
X57520337Y-25798609D01*
X57531513Y-25750252D01*
X57545001Y-25702817D01*
X57560735Y-25656368D01*
X57578655Y-25610967D01*
X57598696Y-25566678D01*
X57620795Y-25523564D01*
X57644889Y-25481687D01*
X57670915Y-25441112D01*
X57698811Y-25401900D01*
X57728512Y-25364116D01*
X57759956Y-25327822D01*
X57793079Y-25293082D01*
X57827820Y-25259958D01*
X57864113Y-25228514D01*
X57901897Y-25198812D01*
X57941109Y-25170917D01*
X57981684Y-25144890D01*
X58023561Y-25120796D01*
X58066675Y-25098696D01*
X58110964Y-25078655D01*
X58156365Y-25060736D01*
X58202815Y-25045001D01*
X58250250Y-25031513D01*
X58298608Y-25020337D01*
X58347824Y-25011534D01*
X58397838Y-25005168D01*
X58448584Y-25001302D01*
X58500000Y-25000000D01*
X179499996Y-25000000D01*
X179551412Y-25001302D01*
X60064325Y-123751603D02*
X60127805Y-123756431D01*
X60190362Y-123764380D01*
X60251918Y-123775373D01*
X60312394Y-123789331D01*
X60371711Y-123806176D01*
X60429791Y-123825829D01*
X60486555Y-123848211D01*
X60541926Y-123873244D01*
X60595823Y-123900849D01*
X60648169Y-123930948D01*
X60698886Y-123963463D01*
X60747894Y-123998314D01*
X60795115Y-124035423D01*
X60840471Y-124074712D01*
X60883883Y-124116102D01*
X60925272Y-124159514D01*
X60964560Y-124204871D01*
X61001669Y-124252093D01*
X61036519Y-124301101D01*
X61069033Y-124351818D01*
X61099131Y-124404165D01*
X61126736Y-124458063D01*
X61151768Y-124513434D01*
X61174150Y-124570199D01*
X61193802Y-124628280D01*
X61210647Y-124687597D01*
X61224604Y-124748073D01*
X61235597Y-124809630D01*
X61243546Y-124872187D01*
X61248374Y-124935667D01*
X61250000Y-124999992D01*
X61248374Y-125064317D01*
X61243546Y-125127797D01*
X61235597Y-125190354D01*
X61224604Y-125251911D01*
X61210647Y-125312387D01*
X61193802Y-125371704D01*
X61174150Y-125429785D01*
X61151768Y-125486550D01*
X61126736Y-125541921D01*
X61099131Y-125595819D01*
X61069033Y-125648166D01*
X61036519Y-125698883D01*
X61001669Y-125747891D01*
X60964560Y-125795113D01*
X60925272Y-125840470D01*
X60883883Y-125883882D01*
X60840471Y-125925272D01*
X60795115Y-125964561D01*
X60747894Y-126001670D01*
X60698886Y-126036521D01*
X60648169Y-126069036D01*
X60595823Y-126099135D01*
X60541926Y-126126740D01*
X60486555Y-126151773D01*
X60429791Y-126174155D01*
X60371711Y-126193808D01*
X60312394Y-126210653D01*
X60251918Y-126224611D01*
X60190362Y-126235604D01*
X60127805Y-126243553D01*
X60064325Y-126248381D01*
X60000000Y-126250007D01*
X59935675Y-126248381D01*
X59872195Y-126243553D01*
X59809638Y-126235604D01*
X59748082Y-126224611D01*
X59687606Y-126210653D01*
X59628289Y-126193808D01*
X59570209Y-126174155D01*
X59513445Y-126151773D01*
X59458074Y-126126740D01*
X59404177Y-126099135D01*
X59351831Y-126069036D01*
X59301114Y-126036521D01*
X59252106Y-126001670D01*
X59204885Y-125964561D01*
X59159529Y-125925272D01*
X59116117Y-125883882D01*
X59074728Y-125840470D01*
X59035440Y-125795113D01*
X58998331Y-125747891D01*
X58963481Y-125698883D01*
X58930967Y-125648166D01*
X58900869Y-125595819D01*
X58873264Y-125541921D01*
X58848232Y-125486550D01*
X58825850Y-125429785D01*
X58806198Y-125371704D01*
X58789353Y-125312387D01*
X58775396Y-125251911D01*
X58764403Y-125190354D01*
X58756454Y-125127797D01*
X58751627Y-125064317D01*
X58750000Y-124999992D01*
X58751627Y-124935667D01*
X58756454Y-124872187D01*
X58764403Y-124809630D01*
X58775396Y-124748073D01*
X58789353Y-124687597D01*
X58806198Y-124628280D01*
X58825850Y-124570199D01*
X58848232Y-124513434D01*
X58873264Y-124458063D01*
X58900869Y-124404165D01*
X58930967Y-124351818D01*
X58963481Y-124301101D01*
X58998331Y-124252093D01*
X59035440Y-124204871D01*
X59074728Y-124159514D01*
X59116117Y-124116102D01*
X59159529Y-124074712D01*
X59204885Y-124035423D01*
X59252106Y-123998314D01*
X59301114Y-123963463D01*
X59351831Y-123930948D01*
X59404177Y-123900849D01*
X59458074Y-123873244D01*
X59513445Y-123848211D01*
X59570209Y-123825829D01*
X59628289Y-123806176D01*
X59687606Y-123789331D01*
X59748082Y-123775373D01*
X59809638Y-123764380D01*
X59872195Y-123756431D01*
X59935675Y-123751603D01*
X60000000Y-123749977D01*
X60064325Y-123751603D01*
X178064321Y-26251626D02*
X178127802Y-26256453D01*
X178190359Y-26264403D01*
X178251915Y-26275395D01*
X178312391Y-26289353D01*
X178371708Y-26306197D01*
X178429789Y-26325850D01*
X178486553Y-26348231D01*
X178541923Y-26373264D01*
X178595821Y-26400868D01*
X178648167Y-26430967D01*
X178698884Y-26463481D01*
X178747892Y-26498331D01*
X178795113Y-26535440D01*
X178840468Y-26574728D01*
X178883880Y-26616117D01*
X178925269Y-26659529D01*
X178964557Y-26704885D01*
X179001666Y-26752106D01*
X179036516Y-26801114D01*
X179069030Y-26851830D01*
X179099128Y-26904177D01*
X179126733Y-26958074D01*
X179151765Y-27013444D01*
X179174147Y-27070209D01*
X179193799Y-27128289D01*
X179210643Y-27187606D01*
X179224601Y-27248082D01*
X179235593Y-27309638D01*
X179243543Y-27372195D01*
X179248370Y-27435675D01*
X179249996Y-27500000D01*
X179248370Y-27564324D01*
X179243543Y-27627804D01*
X179235593Y-27690362D01*
X179224601Y-27751917D01*
X179210643Y-27812393D01*
X179193799Y-27871710D01*
X179174147Y-27929791D01*
X179151765Y-27986555D01*
X179126733Y-28041925D01*
X179099128Y-28095823D01*
X179069030Y-28148169D01*
X179036516Y-28198885D01*
X179001666Y-28247893D01*
X178964557Y-28295115D01*
X178925269Y-28340470D01*
X178883880Y-28383882D01*
X178840468Y-28425271D01*
X178795113Y-28464560D01*
X178747892Y-28501668D01*
X178698884Y-28536519D01*
X178648167Y-28569032D01*
X178595821Y-28599131D01*
X178541923Y-28626736D01*
X178486553Y-28651768D01*
X178429789Y-28674150D01*
X178371708Y-28693802D01*
X178312391Y-28710646D01*
X178251915Y-28724604D01*
X178190359Y-28735597D01*
X178127802Y-28743546D01*
X178064321Y-28748373D01*
X177999996Y-28750000D01*
X177935672Y-28748373D01*
X177872191Y-28743546D01*
X177809634Y-28735597D01*
X177748078Y-28724604D01*
X177687603Y-28710646D01*
X177628286Y-28693802D01*
X177570206Y-28674150D01*
X177513441Y-28651768D01*
X177458071Y-28626736D01*
X177404174Y-28599131D01*
X177351828Y-28569032D01*
X177301112Y-28536519D01*
X177252104Y-28501668D01*
X177204883Y-28464560D01*
X177159527Y-28425271D01*
X177116116Y-28383882D01*
X177074727Y-28340470D01*
X177035439Y-28295115D01*
X176998330Y-28247893D01*
X176963480Y-28198885D01*
X176930966Y-28148169D01*
X176900868Y-28095823D01*
X176873263Y-28041925D01*
X176848231Y-27986555D01*
X176825849Y-27929791D01*
X176806197Y-27871710D01*
X176789353Y-27812393D01*
X176775395Y-27751917D01*
X176764403Y-27690362D01*
X176756454Y-27627804D01*
X176751626Y-27564324D01*
X176750000Y-27500000D01*
X176751626Y-27435675D01*
X176756454Y-27372195D01*
X176764403Y-27309638D01*
X176775395Y-27248082D01*
X176789353Y-27187606D01*
X176806197Y-27128289D01*
X176825849Y-27070209D01*
X176848231Y-27013444D01*
X176873263Y-26958074D01*
X176900868Y-26904177D01*
X176930966Y-26851830D01*
X176963480Y-26801114D01*
X176998330Y-26752106D01*
X177035439Y-26704885D01*
X177074727Y-26659529D01*
X177116116Y-26616117D01*
X177159527Y-26574728D01*
X177204883Y-26535440D01*
X177252104Y-26498331D01*
X177301112Y-26463481D01*
X177351828Y-26430967D01*
X177404174Y-26400868D01*
X177458071Y-26373264D01*
X177513441Y-26348231D01*
X177570206Y-26325850D01*
X177628286Y-26306197D01*
X177687603Y-26289353D01*
X177748078Y-26275395D01*
X177809634Y-26264403D01*
X177872191Y-26256453D01*
X177935672Y-26251626D01*
X177999996Y-26250000D01*
X178064321Y-26251626D01*
X60064325Y-26251626D02*
X60127805Y-26256453D01*
X60190362Y-26264403D01*
X60251918Y-26275395D01*
X60312394Y-26289353D01*
X60371711Y-26306197D01*
X60429791Y-26325850D01*
X60486555Y-26348231D01*
X60541926Y-26373264D01*
X60595823Y-26400868D01*
X60648169Y-26430967D01*
X60698886Y-26463481D01*
X60747894Y-26498331D01*
X60795115Y-26535440D01*
X60840471Y-26574728D01*
X60883883Y-26616117D01*
X60925272Y-26659529D01*
X60964560Y-26704885D01*
X61001669Y-26752106D01*
X61036519Y-26801114D01*
X61069033Y-26851830D01*
X61099131Y-26904177D01*
X61126736Y-26958074D01*
X61151768Y-27013444D01*
X61174150Y-27070209D01*
X61193802Y-27128289D01*
X61210647Y-27187606D01*
X61224604Y-27248082D01*
X61235597Y-27309638D01*
X61243546Y-27372195D01*
X61248373Y-27435675D01*
X61250000Y-27500000D01*
X61248373Y-27564324D01*
X61243546Y-27627804D01*
X61235597Y-27690362D01*
X61224604Y-27751917D01*
X61210647Y-27812393D01*
X61193802Y-27871710D01*
X61174150Y-27929791D01*
X61151768Y-27986555D01*
X61126736Y-28041925D01*
X61099131Y-28095823D01*
X61069033Y-28148169D01*
X61036519Y-28198885D01*
X61001669Y-28247893D01*
X60964560Y-28295115D01*
X60925272Y-28340470D01*
X60883883Y-28383882D01*
X60840471Y-28425271D01*
X60795115Y-28464560D01*
X60747894Y-28501668D01*
X60698886Y-28536519D01*
X60648169Y-28569032D01*
X60595823Y-28599131D01*
X60541926Y-28626736D01*
X60486555Y-28651768D01*
X60429791Y-28674150D01*
X60371711Y-28693802D01*
X60312394Y-28710646D01*
X60251918Y-28724604D01*
X60190362Y-28735597D01*
X60127805Y-28743546D01*
X60064325Y-28748373D01*
X60000000Y-28750000D01*
X59935675Y-28748373D01*
X59872195Y-28743546D01*
X59809638Y-28735597D01*
X59748082Y-28724604D01*
X59687606Y-28710646D01*
X59628289Y-28693802D01*
X59570209Y-28674150D01*
X59513445Y-28651768D01*
X59458074Y-28626736D01*
X59404177Y-28599131D01*
X59351831Y-28569032D01*
X59301114Y-28536519D01*
X59252106Y-28501668D01*
X59204885Y-28464560D01*
X59159529Y-28425271D01*
X59116117Y-28383882D01*
X59074728Y-28340470D01*
X59035440Y-28295115D01*
X58998331Y-28247893D01*
X58963481Y-28198885D01*
X58930967Y-28148169D01*
X58900869Y-28095823D01*
X58873264Y-28041925D01*
X58848232Y-27986555D01*
X58825850Y-27929791D01*
X58806198Y-27871710D01*
X58789353Y-27812393D01*
X58775396Y-27751917D01*
X58764403Y-27690362D01*
X58756454Y-27627804D01*
X58751626Y-27564324D01*
X58750000Y-27500000D01*
X58751626Y-27435675D01*
X58756454Y-27372195D01*
X58764403Y-27309638D01*
X58775396Y-27248082D01*
X58789353Y-27187606D01*
X58806198Y-27128289D01*
X58825850Y-27070209D01*
X58848232Y-27013444D01*
X58873264Y-26958074D01*
X58900869Y-26904177D01*
X58930967Y-26851830D01*
X58963481Y-26801114D01*
X58998331Y-26752106D01*
X59035440Y-26704885D01*
X59074728Y-26659529D01*
X59116117Y-26616117D01*
X59159529Y-26574728D01*
X59204885Y-26535440D01*
X59252106Y-26498331D01*
X59301114Y-26463481D01*
X59351831Y-26430967D01*
X59404177Y-26400868D01*
X59458074Y-26373264D01*
X59513445Y-26348231D01*
X59570209Y-26325850D01*
X59628289Y-26306197D01*
X59687606Y-26289353D01*
X59748082Y-26275395D01*
X59809638Y-26264403D01*
X59872195Y-26256453D01*
X59935675Y-26251626D01*
X60000000Y-26250000D01*
X60064325Y-26251626D01*
M02*
