%TF.GenerationSoftware,KiCad,Pcbnew,9.0.4*%
%TF.CreationDate,2026-02-03T23:15:48+09:00*%
%TF.ProjectId,ansicBackplateDrain,616e7369-6342-4616-936b-706c61746544,rev?*%
%TF.SameCoordinates,Original*%
%TF.FileFunction,Legend,Bot*%
%TF.FilePolarity,Positive*%
%FSLAX46Y46*%
G04 Gerber Fmt 4.6, Leading zero omitted, Abs format (unit mm)*
G04 Created by KiCad (PCBNEW 9.0.4) date 2026-02-03 23:15:48*
%MOMM*%
%LPD*%
G01*
G04 APERTURE LIST*
%ADD10C,0.100000*%
%ADD11C,1.000000*%
G04 APERTURE END LIST*
D10*
X92000000Y-117500000D02*
G75*
G02*
X91000000Y-117500000I-500000J0D01*
G01*
X91000000Y-117500000D02*
X91000040Y-117492254D01*
X91000160Y-117484468D01*
X91000360Y-117476642D01*
X91000641Y-117468775D01*
X91001004Y-117460868D01*
X91001448Y-117452918D01*
X91001974Y-117444927D01*
X91002583Y-117436894D01*
X91003276Y-117428817D01*
X91004052Y-117420698D01*
X91004913Y-117412536D01*
X91005858Y-117404330D01*
X91006889Y-117396079D01*
X91008005Y-117387785D01*
X91009209Y-117379445D01*
X91010499Y-117371060D01*
X91011877Y-117362630D01*
X91013343Y-117354154D01*
X91014898Y-117345632D01*
X91016543Y-117337063D01*
X91018278Y-117328448D01*
X91020104Y-117319786D01*
X91022021Y-117311076D01*
X91024030Y-117302319D01*
X91026132Y-117293514D01*
X91028328Y-117284661D01*
X91030617Y-117275760D01*
X91033002Y-117266810D01*
X91035482Y-117257812D01*
X91038058Y-117248764D01*
X91040731Y-117239668D01*
X91043501Y-117230522D01*
X91046370Y-117221327D01*
X91049338Y-117212082D01*
X91052405Y-117202788D01*
X91055572Y-117193444D01*
X91058841Y-117184050D01*
X91062211Y-117174606D01*
X91065684Y-117165112D01*
X91069260Y-117155569D01*
X91072939Y-117145975D01*
X91076723Y-117136332D01*
X91080612Y-117126638D01*
X91084607Y-117116896D01*
X91088708Y-117107103D01*
X91092916Y-117097261D01*
X91097231Y-117087370D01*
X91101655Y-117077430D01*
X91106188Y-117067441D01*
X91110830Y-117057404D01*
X91115582Y-117047318D01*
X91120444Y-117037185D01*
X91125417Y-117027004D01*
X91130502Y-117016777D01*
X91135698Y-117006503D01*
X91141007Y-116996184D01*
X91146428Y-116985819D01*
X91151962Y-116975410D01*
X91157609Y-116964958D01*
X91163369Y-116954462D01*
X91169244Y-116943925D01*
X91175231Y-116933346D01*
X91181333Y-116922728D01*
X91187548Y-116912071D01*
X91193877Y-116901377D01*
X91200320Y-116890646D01*
X91206876Y-116879881D01*
X91213544Y-116869083D01*
X91220325Y-116858253D01*
X91227218Y-116847394D01*
X91234222Y-116836508D01*
X91241337Y-116825596D01*
X91248561Y-116814662D01*
X91255893Y-116803707D01*
X91263332Y-116792734D01*
X91270876Y-116781747D01*
X91278523Y-116770749D01*
X91286272Y-116759743D01*
X91294120Y-116748733D01*
X91302065Y-116737723D01*
X91310103Y-116726719D01*
X91318231Y-116715724D01*
X91326445Y-116704745D01*
X91334741Y-116693788D01*
X91343114Y-116682859D01*
X91351558Y-116671966D01*
X91360067Y-116661118D01*
X91368633Y-116650322D01*
X91377248Y-116639590D01*
X91385903Y-116628934D01*
X91394585Y-116618367D01*
X91403282Y-116607903D01*
X91411979Y-116597560D01*
X91420658Y-116587358D01*
X91429297Y-116577322D01*
X91437871Y-116567478D01*
X91446347Y-116557862D01*
X91454686Y-116548515D01*
X91462837Y-116539490D01*
X91470734Y-116530857D01*
X91478283Y-116522711D01*
X91485348Y-116515189D01*
X91491710Y-116508512D01*
X91496953Y-116503095D01*
X91500000Y-116500000D01*
X92000000Y-117500000D02*
X91999960Y-117492254D01*
X91999840Y-117484468D01*
X91999640Y-117476642D01*
X91999359Y-117468775D01*
X91998996Y-117460868D01*
X91998552Y-117452918D01*
X91998026Y-117444927D01*
X91997417Y-117436894D01*
X91996724Y-117428817D01*
X91995948Y-117420698D01*
X91995087Y-117412536D01*
X91994142Y-117404330D01*
X91993111Y-117396079D01*
X91991995Y-117387785D01*
X91990791Y-117379445D01*
X91989501Y-117371060D01*
X91988123Y-117362630D01*
X91986657Y-117354154D01*
X91985102Y-117345632D01*
X91983457Y-117337063D01*
X91981722Y-117328448D01*
X91979896Y-117319786D01*
X91977979Y-117311076D01*
X91975970Y-117302319D01*
X91973868Y-117293514D01*
X91971672Y-117284661D01*
X91969383Y-117275760D01*
X91966998Y-117266810D01*
X91964518Y-117257812D01*
X91961942Y-117248764D01*
X91959269Y-117239668D01*
X91956499Y-117230522D01*
X91953630Y-117221327D01*
X91950662Y-117212082D01*
X91947595Y-117202788D01*
X91944428Y-117193444D01*
X91941159Y-117184050D01*
X91937789Y-117174606D01*
X91934316Y-117165112D01*
X91930740Y-117155569D01*
X91927061Y-117145975D01*
X91923277Y-117136332D01*
X91919388Y-117126638D01*
X91915393Y-117116896D01*
X91911292Y-117107103D01*
X91907084Y-117097261D01*
X91902769Y-117087370D01*
X91898345Y-117077430D01*
X91893812Y-117067441D01*
X91889170Y-117057404D01*
X91884418Y-117047318D01*
X91879556Y-117037185D01*
X91874583Y-117027004D01*
X91869498Y-117016777D01*
X91864302Y-117006503D01*
X91858993Y-116996184D01*
X91853572Y-116985819D01*
X91848038Y-116975410D01*
X91842391Y-116964958D01*
X91836631Y-116954462D01*
X91830756Y-116943925D01*
X91824769Y-116933346D01*
X91818667Y-116922728D01*
X91812452Y-116912071D01*
X91806123Y-116901377D01*
X91799680Y-116890646D01*
X91793124Y-116879881D01*
X91786456Y-116869083D01*
X91779675Y-116858253D01*
X91772782Y-116847394D01*
X91765778Y-116836508D01*
X91758663Y-116825596D01*
X91751439Y-116814662D01*
X91744107Y-116803707D01*
X91736668Y-116792734D01*
X91729124Y-116781747D01*
X91721477Y-116770749D01*
X91713728Y-116759743D01*
X91705880Y-116748733D01*
X91697935Y-116737723D01*
X91689897Y-116726719D01*
X91681769Y-116715724D01*
X91673555Y-116704745D01*
X91665259Y-116693788D01*
X91656886Y-116682859D01*
X91648442Y-116671966D01*
X91639933Y-116661118D01*
X91631367Y-116650322D01*
X91622752Y-116639590D01*
X91614097Y-116628934D01*
X91605415Y-116618367D01*
X91596718Y-116607903D01*
X91588021Y-116597560D01*
X91579342Y-116587358D01*
X91570703Y-116577322D01*
X91562129Y-116567478D01*
X91553653Y-116557862D01*
X91545314Y-116548515D01*
X91537163Y-116539490D01*
X91529266Y-116530857D01*
X91521717Y-116522711D01*
X91514652Y-116515189D01*
X91508290Y-116508512D01*
X91503047Y-116503095D01*
X91500000Y-116500000D01*
X101142857Y-117290752D02*
X100952381Y-117957419D01*
X100952381Y-117957419D02*
X100761905Y-117481228D01*
X100761905Y-117481228D02*
X100571429Y-117957419D01*
X100571429Y-117957419D02*
X100380953Y-117290752D01*
X99571429Y-117957419D02*
X99571429Y-117433609D01*
X99571429Y-117433609D02*
X99619048Y-117338371D01*
X99619048Y-117338371D02*
X99714286Y-117290752D01*
X99714286Y-117290752D02*
X99904762Y-117290752D01*
X99904762Y-117290752D02*
X100000000Y-117338371D01*
X99571429Y-117909800D02*
X99666667Y-117957419D01*
X99666667Y-117957419D02*
X99904762Y-117957419D01*
X99904762Y-117957419D02*
X100000000Y-117909800D01*
X100000000Y-117909800D02*
X100047619Y-117814561D01*
X100047619Y-117814561D02*
X100047619Y-117719323D01*
X100047619Y-117719323D02*
X100000000Y-117624085D01*
X100000000Y-117624085D02*
X99904762Y-117576466D01*
X99904762Y-117576466D02*
X99666667Y-117576466D01*
X99666667Y-117576466D02*
X99571429Y-117528847D01*
X99238095Y-117290752D02*
X98857143Y-117290752D01*
X99095238Y-116957419D02*
X99095238Y-117814561D01*
X99095238Y-117814561D02*
X99047619Y-117909800D01*
X99047619Y-117909800D02*
X98952381Y-117957419D01*
X98952381Y-117957419D02*
X98857143Y-117957419D01*
X98142857Y-117909800D02*
X98238095Y-117957419D01*
X98238095Y-117957419D02*
X98428571Y-117957419D01*
X98428571Y-117957419D02*
X98523809Y-117909800D01*
X98523809Y-117909800D02*
X98571428Y-117814561D01*
X98571428Y-117814561D02*
X98571428Y-117433609D01*
X98571428Y-117433609D02*
X98523809Y-117338371D01*
X98523809Y-117338371D02*
X98428571Y-117290752D01*
X98428571Y-117290752D02*
X98238095Y-117290752D01*
X98238095Y-117290752D02*
X98142857Y-117338371D01*
X98142857Y-117338371D02*
X98095238Y-117433609D01*
X98095238Y-117433609D02*
X98095238Y-117528847D01*
X98095238Y-117528847D02*
X98571428Y-117624085D01*
X97666666Y-117957419D02*
X97666666Y-117290752D01*
X97666666Y-117481228D02*
X97619047Y-117385990D01*
X97619047Y-117385990D02*
X97571428Y-117338371D01*
X97571428Y-117338371D02*
X97476190Y-117290752D01*
X97476190Y-117290752D02*
X97380952Y-117290752D01*
X95857142Y-117957419D02*
X95857142Y-116957419D01*
X95857142Y-117909800D02*
X95952380Y-117957419D01*
X95952380Y-117957419D02*
X96142856Y-117957419D01*
X96142856Y-117957419D02*
X96238094Y-117909800D01*
X96238094Y-117909800D02*
X96285713Y-117862180D01*
X96285713Y-117862180D02*
X96333332Y-117766942D01*
X96333332Y-117766942D02*
X96333332Y-117481228D01*
X96333332Y-117481228D02*
X96285713Y-117385990D01*
X96285713Y-117385990D02*
X96238094Y-117338371D01*
X96238094Y-117338371D02*
X96142856Y-117290752D01*
X96142856Y-117290752D02*
X95952380Y-117290752D01*
X95952380Y-117290752D02*
X95857142Y-117338371D01*
X95380951Y-117957419D02*
X95380951Y-117290752D01*
X95380951Y-117481228D02*
X95333332Y-117385990D01*
X95333332Y-117385990D02*
X95285713Y-117338371D01*
X95285713Y-117338371D02*
X95190475Y-117290752D01*
X95190475Y-117290752D02*
X95095237Y-117290752D01*
X94333332Y-117957419D02*
X94333332Y-117433609D01*
X94333332Y-117433609D02*
X94380951Y-117338371D01*
X94380951Y-117338371D02*
X94476189Y-117290752D01*
X94476189Y-117290752D02*
X94666665Y-117290752D01*
X94666665Y-117290752D02*
X94761903Y-117338371D01*
X94333332Y-117909800D02*
X94428570Y-117957419D01*
X94428570Y-117957419D02*
X94666665Y-117957419D01*
X94666665Y-117957419D02*
X94761903Y-117909800D01*
X94761903Y-117909800D02*
X94809522Y-117814561D01*
X94809522Y-117814561D02*
X94809522Y-117719323D01*
X94809522Y-117719323D02*
X94761903Y-117624085D01*
X94761903Y-117624085D02*
X94666665Y-117576466D01*
X94666665Y-117576466D02*
X94428570Y-117576466D01*
X94428570Y-117576466D02*
X94333332Y-117528847D01*
X93857141Y-117957419D02*
X93857141Y-117290752D01*
X93857141Y-116957419D02*
X93904760Y-117005038D01*
X93904760Y-117005038D02*
X93857141Y-117052657D01*
X93857141Y-117052657D02*
X93809522Y-117005038D01*
X93809522Y-117005038D02*
X93857141Y-116957419D01*
X93857141Y-116957419D02*
X93857141Y-117052657D01*
X93380951Y-117290752D02*
X93380951Y-117957419D01*
X93380951Y-117385990D02*
X93333332Y-117338371D01*
X93333332Y-117338371D02*
X93238094Y-117290752D01*
X93238094Y-117290752D02*
X93095237Y-117290752D01*
X93095237Y-117290752D02*
X92999999Y-117338371D01*
X92999999Y-117338371D02*
X92952380Y-117433609D01*
X92952380Y-117433609D02*
X92952380Y-117957419D01*
X147142857Y-117290752D02*
X146952381Y-117957419D01*
X146952381Y-117957419D02*
X146761905Y-117481228D01*
X146761905Y-117481228D02*
X146571429Y-117957419D01*
X146571429Y-117957419D02*
X146380953Y-117290752D01*
X145571429Y-117957419D02*
X145571429Y-117433609D01*
X145571429Y-117433609D02*
X145619048Y-117338371D01*
X145619048Y-117338371D02*
X145714286Y-117290752D01*
X145714286Y-117290752D02*
X145904762Y-117290752D01*
X145904762Y-117290752D02*
X146000000Y-117338371D01*
X145571429Y-117909800D02*
X145666667Y-117957419D01*
X145666667Y-117957419D02*
X145904762Y-117957419D01*
X145904762Y-117957419D02*
X146000000Y-117909800D01*
X146000000Y-117909800D02*
X146047619Y-117814561D01*
X146047619Y-117814561D02*
X146047619Y-117719323D01*
X146047619Y-117719323D02*
X146000000Y-117624085D01*
X146000000Y-117624085D02*
X145904762Y-117576466D01*
X145904762Y-117576466D02*
X145666667Y-117576466D01*
X145666667Y-117576466D02*
X145571429Y-117528847D01*
X145238095Y-117290752D02*
X144857143Y-117290752D01*
X145095238Y-116957419D02*
X145095238Y-117814561D01*
X145095238Y-117814561D02*
X145047619Y-117909800D01*
X145047619Y-117909800D02*
X144952381Y-117957419D01*
X144952381Y-117957419D02*
X144857143Y-117957419D01*
X144142857Y-117909800D02*
X144238095Y-117957419D01*
X144238095Y-117957419D02*
X144428571Y-117957419D01*
X144428571Y-117957419D02*
X144523809Y-117909800D01*
X144523809Y-117909800D02*
X144571428Y-117814561D01*
X144571428Y-117814561D02*
X144571428Y-117433609D01*
X144571428Y-117433609D02*
X144523809Y-117338371D01*
X144523809Y-117338371D02*
X144428571Y-117290752D01*
X144428571Y-117290752D02*
X144238095Y-117290752D01*
X144238095Y-117290752D02*
X144142857Y-117338371D01*
X144142857Y-117338371D02*
X144095238Y-117433609D01*
X144095238Y-117433609D02*
X144095238Y-117528847D01*
X144095238Y-117528847D02*
X144571428Y-117624085D01*
X143666666Y-117957419D02*
X143666666Y-117290752D01*
X143666666Y-117481228D02*
X143619047Y-117385990D01*
X143619047Y-117385990D02*
X143571428Y-117338371D01*
X143571428Y-117338371D02*
X143476190Y-117290752D01*
X143476190Y-117290752D02*
X143380952Y-117290752D01*
X141857142Y-117957419D02*
X141857142Y-116957419D01*
X141857142Y-117909800D02*
X141952380Y-117957419D01*
X141952380Y-117957419D02*
X142142856Y-117957419D01*
X142142856Y-117957419D02*
X142238094Y-117909800D01*
X142238094Y-117909800D02*
X142285713Y-117862180D01*
X142285713Y-117862180D02*
X142333332Y-117766942D01*
X142333332Y-117766942D02*
X142333332Y-117481228D01*
X142333332Y-117481228D02*
X142285713Y-117385990D01*
X142285713Y-117385990D02*
X142238094Y-117338371D01*
X142238094Y-117338371D02*
X142142856Y-117290752D01*
X142142856Y-117290752D02*
X141952380Y-117290752D01*
X141952380Y-117290752D02*
X141857142Y-117338371D01*
X141380951Y-117957419D02*
X141380951Y-117290752D01*
X141380951Y-117481228D02*
X141333332Y-117385990D01*
X141333332Y-117385990D02*
X141285713Y-117338371D01*
X141285713Y-117338371D02*
X141190475Y-117290752D01*
X141190475Y-117290752D02*
X141095237Y-117290752D01*
X140333332Y-117957419D02*
X140333332Y-117433609D01*
X140333332Y-117433609D02*
X140380951Y-117338371D01*
X140380951Y-117338371D02*
X140476189Y-117290752D01*
X140476189Y-117290752D02*
X140666665Y-117290752D01*
X140666665Y-117290752D02*
X140761903Y-117338371D01*
X140333332Y-117909800D02*
X140428570Y-117957419D01*
X140428570Y-117957419D02*
X140666665Y-117957419D01*
X140666665Y-117957419D02*
X140761903Y-117909800D01*
X140761903Y-117909800D02*
X140809522Y-117814561D01*
X140809522Y-117814561D02*
X140809522Y-117719323D01*
X140809522Y-117719323D02*
X140761903Y-117624085D01*
X140761903Y-117624085D02*
X140666665Y-117576466D01*
X140666665Y-117576466D02*
X140428570Y-117576466D01*
X140428570Y-117576466D02*
X140333332Y-117528847D01*
X139857141Y-117957419D02*
X139857141Y-117290752D01*
X139857141Y-116957419D02*
X139904760Y-117005038D01*
X139904760Y-117005038D02*
X139857141Y-117052657D01*
X139857141Y-117052657D02*
X139809522Y-117005038D01*
X139809522Y-117005038D02*
X139857141Y-116957419D01*
X139857141Y-116957419D02*
X139857141Y-117052657D01*
X139380951Y-117290752D02*
X139380951Y-117957419D01*
X139380951Y-117385990D02*
X139333332Y-117338371D01*
X139333332Y-117338371D02*
X139238094Y-117290752D01*
X139238094Y-117290752D02*
X139095237Y-117290752D01*
X139095237Y-117290752D02*
X138999999Y-117338371D01*
X138999999Y-117338371D02*
X138952380Y-117433609D01*
X138952380Y-117433609D02*
X138952380Y-117957419D01*
X137000000Y-117500000D02*
X137000040Y-117492254D01*
X137000160Y-117484468D01*
X137000360Y-117476642D01*
X137000641Y-117468775D01*
X137001004Y-117460868D01*
X137001448Y-117452918D01*
X137001974Y-117444927D01*
X137002583Y-117436894D01*
X137003276Y-117428817D01*
X137004052Y-117420698D01*
X137004913Y-117412536D01*
X137005858Y-117404330D01*
X137006889Y-117396079D01*
X137008005Y-117387785D01*
X137009209Y-117379445D01*
X137010499Y-117371060D01*
X137011877Y-117362630D01*
X137013343Y-117354154D01*
X137014898Y-117345632D01*
X137016543Y-117337063D01*
X137018278Y-117328448D01*
X137020104Y-117319786D01*
X137022021Y-117311076D01*
X137024030Y-117302319D01*
X137026132Y-117293514D01*
X137028328Y-117284661D01*
X137030617Y-117275760D01*
X137033002Y-117266810D01*
X137035482Y-117257812D01*
X137038058Y-117248764D01*
X137040731Y-117239668D01*
X137043501Y-117230522D01*
X137046370Y-117221327D01*
X137049338Y-117212082D01*
X137052405Y-117202788D01*
X137055572Y-117193444D01*
X137058841Y-117184050D01*
X137062211Y-117174606D01*
X137065684Y-117165112D01*
X137069260Y-117155569D01*
X137072939Y-117145975D01*
X137076723Y-117136332D01*
X137080612Y-117126638D01*
X137084607Y-117116896D01*
X137088708Y-117107103D01*
X137092916Y-117097261D01*
X137097231Y-117087370D01*
X137101655Y-117077430D01*
X137106188Y-117067441D01*
X137110830Y-117057404D01*
X137115582Y-117047318D01*
X137120444Y-117037185D01*
X137125417Y-117027004D01*
X137130502Y-117016777D01*
X137135698Y-117006503D01*
X137141007Y-116996184D01*
X137146428Y-116985819D01*
X137151962Y-116975410D01*
X137157609Y-116964958D01*
X137163369Y-116954462D01*
X137169244Y-116943925D01*
X137175231Y-116933346D01*
X137181333Y-116922728D01*
X137187548Y-116912071D01*
X137193877Y-116901377D01*
X137200320Y-116890646D01*
X137206876Y-116879881D01*
X137213544Y-116869083D01*
X137220325Y-116858253D01*
X137227218Y-116847394D01*
X137234222Y-116836508D01*
X137241337Y-116825596D01*
X137248561Y-116814662D01*
X137255893Y-116803707D01*
X137263332Y-116792734D01*
X137270876Y-116781747D01*
X137278523Y-116770749D01*
X137286272Y-116759743D01*
X137294120Y-116748733D01*
X137302065Y-116737723D01*
X137310103Y-116726719D01*
X137318231Y-116715724D01*
X137326445Y-116704745D01*
X137334741Y-116693788D01*
X137343114Y-116682859D01*
X137351558Y-116671966D01*
X137360067Y-116661118D01*
X137368633Y-116650322D01*
X137377248Y-116639590D01*
X137385903Y-116628934D01*
X137394585Y-116618367D01*
X137403282Y-116607903D01*
X137411979Y-116597560D01*
X137420658Y-116587358D01*
X137429297Y-116577322D01*
X137437871Y-116567478D01*
X137446347Y-116557862D01*
X137454686Y-116548515D01*
X137462837Y-116539490D01*
X137470734Y-116530857D01*
X137478283Y-116522711D01*
X137485348Y-116515189D01*
X137491710Y-116508512D01*
X137496953Y-116503095D01*
X137500000Y-116500000D01*
X138000000Y-117500000D02*
G75*
G02*
X137000000Y-117500000I-500000J0D01*
G01*
X138000000Y-117500000D02*
X137999960Y-117492254D01*
X137999840Y-117484468D01*
X137999640Y-117476642D01*
X137999359Y-117468775D01*
X137998996Y-117460868D01*
X137998552Y-117452918D01*
X137998026Y-117444927D01*
X137997417Y-117436894D01*
X137996724Y-117428817D01*
X137995948Y-117420698D01*
X137995087Y-117412536D01*
X137994142Y-117404330D01*
X137993111Y-117396079D01*
X137991995Y-117387785D01*
X137990791Y-117379445D01*
X137989501Y-117371060D01*
X137988123Y-117362630D01*
X137986657Y-117354154D01*
X137985102Y-117345632D01*
X137983457Y-117337063D01*
X137981722Y-117328448D01*
X137979896Y-117319786D01*
X137977979Y-117311076D01*
X137975970Y-117302319D01*
X137973868Y-117293514D01*
X137971672Y-117284661D01*
X137969383Y-117275760D01*
X137966998Y-117266810D01*
X137964518Y-117257812D01*
X137961942Y-117248764D01*
X137959269Y-117239668D01*
X137956499Y-117230522D01*
X137953630Y-117221327D01*
X137950662Y-117212082D01*
X137947595Y-117202788D01*
X137944428Y-117193444D01*
X137941159Y-117184050D01*
X137937789Y-117174606D01*
X137934316Y-117165112D01*
X137930740Y-117155569D01*
X137927061Y-117145975D01*
X137923277Y-117136332D01*
X137919388Y-117126638D01*
X137915393Y-117116896D01*
X137911292Y-117107103D01*
X137907084Y-117097261D01*
X137902769Y-117087370D01*
X137898345Y-117077430D01*
X137893812Y-117067441D01*
X137889170Y-117057404D01*
X137884418Y-117047318D01*
X137879556Y-117037185D01*
X137874583Y-117027004D01*
X137869498Y-117016777D01*
X137864302Y-117006503D01*
X137858993Y-116996184D01*
X137853572Y-116985819D01*
X137848038Y-116975410D01*
X137842391Y-116964958D01*
X137836631Y-116954462D01*
X137830756Y-116943925D01*
X137824769Y-116933346D01*
X137818667Y-116922728D01*
X137812452Y-116912071D01*
X137806123Y-116901377D01*
X137799680Y-116890646D01*
X137793124Y-116879881D01*
X137786456Y-116869083D01*
X137779675Y-116858253D01*
X137772782Y-116847394D01*
X137765778Y-116836508D01*
X137758663Y-116825596D01*
X137751439Y-116814662D01*
X137744107Y-116803707D01*
X137736668Y-116792734D01*
X137729124Y-116781747D01*
X137721477Y-116770749D01*
X137713728Y-116759743D01*
X137705880Y-116748733D01*
X137697935Y-116737723D01*
X137689897Y-116726719D01*
X137681769Y-116715724D01*
X137673555Y-116704745D01*
X137665259Y-116693788D01*
X137656886Y-116682859D01*
X137648442Y-116671966D01*
X137639933Y-116661118D01*
X137631367Y-116650322D01*
X137622752Y-116639590D01*
X137614097Y-116628934D01*
X137605415Y-116618367D01*
X137596718Y-116607903D01*
X137588021Y-116597560D01*
X137579342Y-116587358D01*
X137570703Y-116577322D01*
X137562129Y-116567478D01*
X137553653Y-116557862D01*
X137545314Y-116548515D01*
X137537163Y-116539490D01*
X137529266Y-116530857D01*
X137521717Y-116522711D01*
X137514652Y-116515189D01*
X137508290Y-116508512D01*
X137503047Y-116503095D01*
X137500000Y-116500000D01*
X93456093Y-82500000D02*
X73206093Y-82500000D01*
X101670380Y-84207419D02*
X101670380Y-83540752D01*
X101670380Y-83731228D02*
X101622761Y-83635990D01*
X101622761Y-83635990D02*
X101575142Y-83588371D01*
X101575142Y-83588371D02*
X101479904Y-83540752D01*
X101479904Y-83540752D02*
X101384666Y-83540752D01*
X100670380Y-84159800D02*
X100765618Y-84207419D01*
X100765618Y-84207419D02*
X100956094Y-84207419D01*
X100956094Y-84207419D02*
X101051332Y-84159800D01*
X101051332Y-84159800D02*
X101098951Y-84064561D01*
X101098951Y-84064561D02*
X101098951Y-83683609D01*
X101098951Y-83683609D02*
X101051332Y-83588371D01*
X101051332Y-83588371D02*
X100956094Y-83540752D01*
X100956094Y-83540752D02*
X100765618Y-83540752D01*
X100765618Y-83540752D02*
X100670380Y-83588371D01*
X100670380Y-83588371D02*
X100622761Y-83683609D01*
X100622761Y-83683609D02*
X100622761Y-83778847D01*
X100622761Y-83778847D02*
X101098951Y-83874085D01*
X100241808Y-84159800D02*
X100146570Y-84207419D01*
X100146570Y-84207419D02*
X99956094Y-84207419D01*
X99956094Y-84207419D02*
X99860856Y-84159800D01*
X99860856Y-84159800D02*
X99813237Y-84064561D01*
X99813237Y-84064561D02*
X99813237Y-84016942D01*
X99813237Y-84016942D02*
X99860856Y-83921704D01*
X99860856Y-83921704D02*
X99956094Y-83874085D01*
X99956094Y-83874085D02*
X100098951Y-83874085D01*
X100098951Y-83874085D02*
X100194189Y-83826466D01*
X100194189Y-83826466D02*
X100241808Y-83731228D01*
X100241808Y-83731228D02*
X100241808Y-83683609D01*
X100241808Y-83683609D02*
X100194189Y-83588371D01*
X100194189Y-83588371D02*
X100098951Y-83540752D01*
X100098951Y-83540752D02*
X99956094Y-83540752D01*
X99956094Y-83540752D02*
X99860856Y-83588371D01*
X99527522Y-83540752D02*
X99146570Y-83540752D01*
X99384665Y-83207419D02*
X99384665Y-84064561D01*
X99384665Y-84064561D02*
X99337046Y-84159800D01*
X99337046Y-84159800D02*
X99241808Y-84207419D01*
X99241808Y-84207419D02*
X99146570Y-84207419D01*
X98813236Y-84112180D02*
X98765617Y-84159800D01*
X98765617Y-84159800D02*
X98813236Y-84207419D01*
X98813236Y-84207419D02*
X98860855Y-84159800D01*
X98860855Y-84159800D02*
X98813236Y-84112180D01*
X98813236Y-84112180D02*
X98813236Y-84207419D01*
X97146570Y-84207419D02*
X97146570Y-83207419D01*
X97146570Y-84159800D02*
X97241808Y-84207419D01*
X97241808Y-84207419D02*
X97432284Y-84207419D01*
X97432284Y-84207419D02*
X97527522Y-84159800D01*
X97527522Y-84159800D02*
X97575141Y-84112180D01*
X97575141Y-84112180D02*
X97622760Y-84016942D01*
X97622760Y-84016942D02*
X97622760Y-83731228D01*
X97622760Y-83731228D02*
X97575141Y-83635990D01*
X97575141Y-83635990D02*
X97527522Y-83588371D01*
X97527522Y-83588371D02*
X97432284Y-83540752D01*
X97432284Y-83540752D02*
X97241808Y-83540752D01*
X97241808Y-83540752D02*
X97146570Y-83588371D01*
X96527522Y-84207419D02*
X96622760Y-84159800D01*
X96622760Y-84159800D02*
X96670379Y-84112180D01*
X96670379Y-84112180D02*
X96717998Y-84016942D01*
X96717998Y-84016942D02*
X96717998Y-83731228D01*
X96717998Y-83731228D02*
X96670379Y-83635990D01*
X96670379Y-83635990D02*
X96622760Y-83588371D01*
X96622760Y-83588371D02*
X96527522Y-83540752D01*
X96527522Y-83540752D02*
X96384665Y-83540752D01*
X96384665Y-83540752D02*
X96289427Y-83588371D01*
X96289427Y-83588371D02*
X96241808Y-83635990D01*
X96241808Y-83635990D02*
X96194189Y-83731228D01*
X96194189Y-83731228D02*
X96194189Y-84016942D01*
X96194189Y-84016942D02*
X96241808Y-84112180D01*
X96241808Y-84112180D02*
X96289427Y-84159800D01*
X96289427Y-84159800D02*
X96384665Y-84207419D01*
X96384665Y-84207419D02*
X96527522Y-84207419D01*
X95765617Y-83540752D02*
X95765617Y-84207419D01*
X95765617Y-83635990D02*
X95717998Y-83588371D01*
X95717998Y-83588371D02*
X95622760Y-83540752D01*
X95622760Y-83540752D02*
X95479903Y-83540752D01*
X95479903Y-83540752D02*
X95384665Y-83588371D01*
X95384665Y-83588371D02*
X95337046Y-83683609D01*
X95337046Y-83683609D02*
X95337046Y-84207419D01*
X94813236Y-83207419D02*
X94908474Y-83397895D01*
X94527522Y-83540752D02*
X94146570Y-83540752D01*
X94384665Y-83207419D02*
X94384665Y-84064561D01*
X94384665Y-84064561D02*
X94337046Y-84159800D01*
X94337046Y-84159800D02*
X94241808Y-84207419D01*
X94241808Y-84207419D02*
X94146570Y-84207419D01*
X93194188Y-83540752D02*
X92813236Y-83540752D01*
X93051331Y-83207419D02*
X93051331Y-84064561D01*
X93051331Y-84064561D02*
X93003712Y-84159800D01*
X93003712Y-84159800D02*
X92908474Y-84207419D01*
X92908474Y-84207419D02*
X92813236Y-84207419D01*
X92479902Y-84207419D02*
X92479902Y-83207419D01*
X92051331Y-84207419D02*
X92051331Y-83683609D01*
X92051331Y-83683609D02*
X92098950Y-83588371D01*
X92098950Y-83588371D02*
X92194188Y-83540752D01*
X92194188Y-83540752D02*
X92337045Y-83540752D01*
X92337045Y-83540752D02*
X92432283Y-83588371D01*
X92432283Y-83588371D02*
X92479902Y-83635990D01*
X91575140Y-84207419D02*
X91575140Y-83540752D01*
X91575140Y-83207419D02*
X91622759Y-83255038D01*
X91622759Y-83255038D02*
X91575140Y-83302657D01*
X91575140Y-83302657D02*
X91527521Y-83255038D01*
X91527521Y-83255038D02*
X91575140Y-83207419D01*
X91575140Y-83207419D02*
X91575140Y-83302657D01*
X91098950Y-83540752D02*
X91098950Y-84207419D01*
X91098950Y-83635990D02*
X91051331Y-83588371D01*
X91051331Y-83588371D02*
X90956093Y-83540752D01*
X90956093Y-83540752D02*
X90813236Y-83540752D01*
X90813236Y-83540752D02*
X90717998Y-83588371D01*
X90717998Y-83588371D02*
X90670379Y-83683609D01*
X90670379Y-83683609D02*
X90670379Y-84207419D01*
X90194188Y-84207419D02*
X90194188Y-83207419D01*
X90098950Y-83826466D02*
X89813236Y-84207419D01*
X89813236Y-83540752D02*
X90194188Y-83921704D01*
X88194188Y-84207419D02*
X88194188Y-83683609D01*
X88194188Y-83683609D02*
X88241807Y-83588371D01*
X88241807Y-83588371D02*
X88337045Y-83540752D01*
X88337045Y-83540752D02*
X88527521Y-83540752D01*
X88527521Y-83540752D02*
X88622759Y-83588371D01*
X88194188Y-84159800D02*
X88289426Y-84207419D01*
X88289426Y-84207419D02*
X88527521Y-84207419D01*
X88527521Y-84207419D02*
X88622759Y-84159800D01*
X88622759Y-84159800D02*
X88670378Y-84064561D01*
X88670378Y-84064561D02*
X88670378Y-83969323D01*
X88670378Y-83969323D02*
X88622759Y-83874085D01*
X88622759Y-83874085D02*
X88527521Y-83826466D01*
X88527521Y-83826466D02*
X88289426Y-83826466D01*
X88289426Y-83826466D02*
X88194188Y-83778847D01*
X87717997Y-84207419D02*
X87717997Y-83207419D01*
X87717997Y-83588371D02*
X87622759Y-83540752D01*
X87622759Y-83540752D02*
X87432283Y-83540752D01*
X87432283Y-83540752D02*
X87337045Y-83588371D01*
X87337045Y-83588371D02*
X87289426Y-83635990D01*
X87289426Y-83635990D02*
X87241807Y-83731228D01*
X87241807Y-83731228D02*
X87241807Y-84016942D01*
X87241807Y-84016942D02*
X87289426Y-84112180D01*
X87289426Y-84112180D02*
X87337045Y-84159800D01*
X87337045Y-84159800D02*
X87432283Y-84207419D01*
X87432283Y-84207419D02*
X87622759Y-84207419D01*
X87622759Y-84207419D02*
X87717997Y-84159800D01*
X86670378Y-84207419D02*
X86765616Y-84159800D01*
X86765616Y-84159800D02*
X86813235Y-84112180D01*
X86813235Y-84112180D02*
X86860854Y-84016942D01*
X86860854Y-84016942D02*
X86860854Y-83731228D01*
X86860854Y-83731228D02*
X86813235Y-83635990D01*
X86813235Y-83635990D02*
X86765616Y-83588371D01*
X86765616Y-83588371D02*
X86670378Y-83540752D01*
X86670378Y-83540752D02*
X86527521Y-83540752D01*
X86527521Y-83540752D02*
X86432283Y-83588371D01*
X86432283Y-83588371D02*
X86384664Y-83635990D01*
X86384664Y-83635990D02*
X86337045Y-83731228D01*
X86337045Y-83731228D02*
X86337045Y-84016942D01*
X86337045Y-84016942D02*
X86384664Y-84112180D01*
X86384664Y-84112180D02*
X86432283Y-84159800D01*
X86432283Y-84159800D02*
X86527521Y-84207419D01*
X86527521Y-84207419D02*
X86670378Y-84207419D01*
X85479902Y-83540752D02*
X85479902Y-84207419D01*
X85908473Y-83540752D02*
X85908473Y-84064561D01*
X85908473Y-84064561D02*
X85860854Y-84159800D01*
X85860854Y-84159800D02*
X85765616Y-84207419D01*
X85765616Y-84207419D02*
X85622759Y-84207419D01*
X85622759Y-84207419D02*
X85527521Y-84159800D01*
X85527521Y-84159800D02*
X85479902Y-84112180D01*
X85146568Y-83540752D02*
X84765616Y-83540752D01*
X85003711Y-83207419D02*
X85003711Y-84064561D01*
X85003711Y-84064561D02*
X84956092Y-84159800D01*
X84956092Y-84159800D02*
X84860854Y-84207419D01*
X84860854Y-84207419D02*
X84765616Y-84207419D01*
X83241806Y-84159800D02*
X83337044Y-84207419D01*
X83337044Y-84207419D02*
X83527520Y-84207419D01*
X83527520Y-84207419D02*
X83622758Y-84159800D01*
X83622758Y-84159800D02*
X83670377Y-84112180D01*
X83670377Y-84112180D02*
X83717996Y-84016942D01*
X83717996Y-84016942D02*
X83717996Y-83731228D01*
X83717996Y-83731228D02*
X83670377Y-83635990D01*
X83670377Y-83635990D02*
X83622758Y-83588371D01*
X83622758Y-83588371D02*
X83527520Y-83540752D01*
X83527520Y-83540752D02*
X83337044Y-83540752D01*
X83337044Y-83540752D02*
X83241806Y-83588371D01*
X82670377Y-84207419D02*
X82765615Y-84159800D01*
X82765615Y-84159800D02*
X82813234Y-84112180D01*
X82813234Y-84112180D02*
X82860853Y-84016942D01*
X82860853Y-84016942D02*
X82860853Y-83731228D01*
X82860853Y-83731228D02*
X82813234Y-83635990D01*
X82813234Y-83635990D02*
X82765615Y-83588371D01*
X82765615Y-83588371D02*
X82670377Y-83540752D01*
X82670377Y-83540752D02*
X82527520Y-83540752D01*
X82527520Y-83540752D02*
X82432282Y-83588371D01*
X82432282Y-83588371D02*
X82384663Y-83635990D01*
X82384663Y-83635990D02*
X82337044Y-83731228D01*
X82337044Y-83731228D02*
X82337044Y-84016942D01*
X82337044Y-84016942D02*
X82384663Y-84112180D01*
X82384663Y-84112180D02*
X82432282Y-84159800D01*
X82432282Y-84159800D02*
X82527520Y-84207419D01*
X82527520Y-84207419D02*
X82670377Y-84207419D01*
X81908472Y-83540752D02*
X81908472Y-84207419D01*
X81908472Y-83635990D02*
X81860853Y-83588371D01*
X81860853Y-83588371D02*
X81765615Y-83540752D01*
X81765615Y-83540752D02*
X81622758Y-83540752D01*
X81622758Y-83540752D02*
X81527520Y-83588371D01*
X81527520Y-83588371D02*
X81479901Y-83683609D01*
X81479901Y-83683609D02*
X81479901Y-84207419D01*
X81051329Y-84159800D02*
X80956091Y-84207419D01*
X80956091Y-84207419D02*
X80765615Y-84207419D01*
X80765615Y-84207419D02*
X80670377Y-84159800D01*
X80670377Y-84159800D02*
X80622758Y-84064561D01*
X80622758Y-84064561D02*
X80622758Y-84016942D01*
X80622758Y-84016942D02*
X80670377Y-83921704D01*
X80670377Y-83921704D02*
X80765615Y-83874085D01*
X80765615Y-83874085D02*
X80908472Y-83874085D01*
X80908472Y-83874085D02*
X81003710Y-83826466D01*
X81003710Y-83826466D02*
X81051329Y-83731228D01*
X81051329Y-83731228D02*
X81051329Y-83683609D01*
X81051329Y-83683609D02*
X81003710Y-83588371D01*
X81003710Y-83588371D02*
X80908472Y-83540752D01*
X80908472Y-83540752D02*
X80765615Y-83540752D01*
X80765615Y-83540752D02*
X80670377Y-83588371D01*
X79813234Y-84159800D02*
X79908472Y-84207419D01*
X79908472Y-84207419D02*
X80098948Y-84207419D01*
X80098948Y-84207419D02*
X80194186Y-84159800D01*
X80194186Y-84159800D02*
X80241805Y-84064561D01*
X80241805Y-84064561D02*
X80241805Y-83683609D01*
X80241805Y-83683609D02*
X80194186Y-83588371D01*
X80194186Y-83588371D02*
X80098948Y-83540752D01*
X80098948Y-83540752D02*
X79908472Y-83540752D01*
X79908472Y-83540752D02*
X79813234Y-83588371D01*
X79813234Y-83588371D02*
X79765615Y-83683609D01*
X79765615Y-83683609D02*
X79765615Y-83778847D01*
X79765615Y-83778847D02*
X80241805Y-83874085D01*
X78908472Y-83540752D02*
X78908472Y-84540752D01*
X78908472Y-84159800D02*
X79003710Y-84207419D01*
X79003710Y-84207419D02*
X79194186Y-84207419D01*
X79194186Y-84207419D02*
X79289424Y-84159800D01*
X79289424Y-84159800D02*
X79337043Y-84112180D01*
X79337043Y-84112180D02*
X79384662Y-84016942D01*
X79384662Y-84016942D02*
X79384662Y-83731228D01*
X79384662Y-83731228D02*
X79337043Y-83635990D01*
X79337043Y-83635990D02*
X79289424Y-83588371D01*
X79289424Y-83588371D02*
X79194186Y-83540752D01*
X79194186Y-83540752D02*
X79003710Y-83540752D01*
X79003710Y-83540752D02*
X78908472Y-83588371D01*
X78003710Y-83540752D02*
X78003710Y-84207419D01*
X78432281Y-83540752D02*
X78432281Y-84064561D01*
X78432281Y-84064561D02*
X78384662Y-84159800D01*
X78384662Y-84159800D02*
X78289424Y-84207419D01*
X78289424Y-84207419D02*
X78146567Y-84207419D01*
X78146567Y-84207419D02*
X78051329Y-84159800D01*
X78051329Y-84159800D02*
X78003710Y-84112180D01*
X77146567Y-84159800D02*
X77241805Y-84207419D01*
X77241805Y-84207419D02*
X77432281Y-84207419D01*
X77432281Y-84207419D02*
X77527519Y-84159800D01*
X77527519Y-84159800D02*
X77575138Y-84064561D01*
X77575138Y-84064561D02*
X77575138Y-83683609D01*
X77575138Y-83683609D02*
X77527519Y-83588371D01*
X77527519Y-83588371D02*
X77432281Y-83540752D01*
X77432281Y-83540752D02*
X77241805Y-83540752D01*
X77241805Y-83540752D02*
X77146567Y-83588371D01*
X77146567Y-83588371D02*
X77098948Y-83683609D01*
X77098948Y-83683609D02*
X77098948Y-83778847D01*
X77098948Y-83778847D02*
X77575138Y-83874085D01*
X76670376Y-83540752D02*
X76670376Y-84207419D01*
X76670376Y-83635990D02*
X76622757Y-83588371D01*
X76622757Y-83588371D02*
X76527519Y-83540752D01*
X76527519Y-83540752D02*
X76384662Y-83540752D01*
X76384662Y-83540752D02*
X76289424Y-83588371D01*
X76289424Y-83588371D02*
X76241805Y-83683609D01*
X76241805Y-83683609D02*
X76241805Y-84207419D01*
X75337043Y-84159800D02*
X75432281Y-84207419D01*
X75432281Y-84207419D02*
X75622757Y-84207419D01*
X75622757Y-84207419D02*
X75717995Y-84159800D01*
X75717995Y-84159800D02*
X75765614Y-84112180D01*
X75765614Y-84112180D02*
X75813233Y-84016942D01*
X75813233Y-84016942D02*
X75813233Y-83731228D01*
X75813233Y-83731228D02*
X75765614Y-83635990D01*
X75765614Y-83635990D02*
X75717995Y-83588371D01*
X75717995Y-83588371D02*
X75622757Y-83540752D01*
X75622757Y-83540752D02*
X75432281Y-83540752D01*
X75432281Y-83540752D02*
X75337043Y-83588371D01*
X74527519Y-84159800D02*
X74622757Y-84207419D01*
X74622757Y-84207419D02*
X74813233Y-84207419D01*
X74813233Y-84207419D02*
X74908471Y-84159800D01*
X74908471Y-84159800D02*
X74956090Y-84064561D01*
X74956090Y-84064561D02*
X74956090Y-83683609D01*
X74956090Y-83683609D02*
X74908471Y-83588371D01*
X74908471Y-83588371D02*
X74813233Y-83540752D01*
X74813233Y-83540752D02*
X74622757Y-83540752D01*
X74622757Y-83540752D02*
X74527519Y-83588371D01*
X74527519Y-83588371D02*
X74479900Y-83683609D01*
X74479900Y-83683609D02*
X74479900Y-83778847D01*
X74479900Y-83778847D02*
X74956090Y-83874085D01*
X74098947Y-84159800D02*
X74003709Y-84207419D01*
X74003709Y-84207419D02*
X73813233Y-84207419D01*
X73813233Y-84207419D02*
X73717995Y-84159800D01*
X73717995Y-84159800D02*
X73670376Y-84064561D01*
X73670376Y-84064561D02*
X73670376Y-84016942D01*
X73670376Y-84016942D02*
X73717995Y-83921704D01*
X73717995Y-83921704D02*
X73813233Y-83874085D01*
X73813233Y-83874085D02*
X73956090Y-83874085D01*
X73956090Y-83874085D02*
X74051328Y-83826466D01*
X74051328Y-83826466D02*
X74098947Y-83731228D01*
X74098947Y-83731228D02*
X74098947Y-83683609D01*
X74098947Y-83683609D02*
X74051328Y-83588371D01*
X74051328Y-83588371D02*
X73956090Y-83540752D01*
X73956090Y-83540752D02*
X73813233Y-83540752D01*
X73813233Y-83540752D02*
X73717995Y-83588371D01*
X73241804Y-84112180D02*
X73194185Y-84159800D01*
X73194185Y-84159800D02*
X73241804Y-84207419D01*
X73241804Y-84207419D02*
X73289423Y-84159800D01*
X73289423Y-84159800D02*
X73241804Y-84112180D01*
X73241804Y-84112180D02*
X73241804Y-84207419D01*
%LPC*%
D11*
X100000000Y-119500000D02*
X92000000Y-119500000D01*
X92000000Y-123500000D02*
X100000000Y-123500000D01*
X92000000Y-123500000D02*
G75*
G02*
X92000000Y-119500000I0J2000000D01*
G01*
X100000000Y-119500000D02*
G75*
G02*
X100000000Y-123500000I0J-2000000D01*
G01*
D10*
G36*
X160694578Y-102118527D02*
G01*
X163497717Y-101941892D01*
X166166567Y-101419284D01*
X168725283Y-100552930D01*
X171144742Y-99353052D01*
X173028309Y-98025206D01*
X174460105Y-96576657D01*
X173676086Y-95851256D01*
X172336774Y-97169083D01*
X170580925Y-98402224D01*
X168332052Y-99544207D01*
X165959358Y-100376178D01*
X163441299Y-100881592D01*
X160750754Y-101053628D01*
X157923249Y-100905473D01*
X155630151Y-100498646D01*
X153782506Y-99878820D01*
X152069601Y-98967027D01*
X150746884Y-97913618D01*
X149754941Y-96718318D01*
X149022615Y-95344173D01*
X148586088Y-93888755D01*
X148438472Y-92324389D01*
X148602266Y-90504159D01*
X149059072Y-89025999D01*
X149781808Y-87820551D01*
X151323081Y-86314941D01*
X153364850Y-85133879D01*
X155668824Y-84249277D01*
X158232610Y-83512107D01*
X163520468Y-82195638D01*
X166102472Y-81409088D01*
X168417537Y-80434647D01*
X170445986Y-79127868D01*
X171998137Y-77440230D01*
X172717699Y-76108500D01*
X173176423Y-74472179D01*
X173341473Y-72457676D01*
X173189345Y-70779545D01*
X172736048Y-69184208D01*
X171971270Y-67646092D01*
X170926266Y-66286307D01*
X169527829Y-65075234D01*
X167716560Y-64009316D01*
X165744103Y-63270042D01*
X163287594Y-62786073D01*
X160245171Y-62609804D01*
X157140887Y-62853395D01*
X154063385Y-63589218D01*
X151184839Y-64758884D01*
X148885437Y-66190404D01*
X149500929Y-67086775D01*
X151973018Y-65578979D01*
X154708186Y-64512456D01*
X157547061Y-63875969D01*
X160191438Y-63672260D01*
X162899480Y-63822187D01*
X165130616Y-64237261D01*
X166961850Y-64876378D01*
X168656265Y-65803951D01*
X169961204Y-66866934D01*
X170935681Y-68066189D01*
X171648740Y-69437839D01*
X172077079Y-70910804D01*
X172222841Y-72513852D01*
X172057879Y-74373967D01*
X171599997Y-75869938D01*
X170879505Y-77076308D01*
X169338815Y-78580111D01*
X167298905Y-79760537D01*
X164989514Y-80644755D01*
X162401836Y-81384752D01*
X157113978Y-82728087D01*
X154554941Y-83534821D01*
X152246218Y-84518387D01*
X150211356Y-85814658D01*
X148663176Y-87456629D01*
X147943604Y-88752344D01*
X147484989Y-90350129D01*
X147319840Y-92324389D01*
X147474909Y-94001138D01*
X147937475Y-95597064D01*
X148719351Y-97138415D01*
X149782964Y-98490664D01*
X151216000Y-99693264D01*
X153083971Y-100748325D01*
X155108310Y-101472792D01*
X157612706Y-101946407D01*
X160694578Y-102118527D01*
G37*
G36*
X136617118Y-101950000D02*
G01*
X136617118Y-62778332D01*
X135496044Y-62778332D01*
X135496044Y-101950000D01*
X136617118Y-101950000D01*
G37*
G36*
X104684808Y-102118527D02*
G01*
X107527477Y-101948720D01*
X110176536Y-101451274D01*
X112659337Y-100635973D01*
X115012063Y-99503939D01*
X117131513Y-98116575D01*
X119038961Y-96466748D01*
X120712166Y-94579276D01*
X122117556Y-92496442D01*
X123264362Y-90199476D01*
X124094070Y-87769806D01*
X124600642Y-85167752D01*
X124773783Y-82364166D01*
X124600575Y-79558963D01*
X124093942Y-76956966D01*
X123264362Y-74528855D01*
X122117556Y-72231889D01*
X120712166Y-70149055D01*
X119038961Y-68261584D01*
X117131277Y-66610494D01*
X115011834Y-65223173D01*
X112659337Y-64092358D01*
X110176536Y-63277057D01*
X107527477Y-62779612D01*
X104684808Y-62609804D01*
X102132320Y-62748996D01*
X99694842Y-63160585D01*
X97355081Y-63840788D01*
X95131963Y-64812454D01*
X93143909Y-66059286D01*
X91366246Y-67589916D01*
X92037914Y-68373935D01*
X93918468Y-66800454D01*
X95871322Y-65598076D01*
X97911954Y-64737159D01*
X101174042Y-63942595D01*
X104684808Y-63672260D01*
X107340829Y-63835118D01*
X109831952Y-64313707D01*
X112183064Y-65101081D01*
X114412246Y-66185077D01*
X116420626Y-67507504D01*
X118228074Y-69074912D01*
X119814016Y-70862831D01*
X121144572Y-72833711D01*
X122228772Y-75005129D01*
X123013988Y-77300240D01*
X123492121Y-79744521D01*
X123655150Y-82364166D01*
X123492121Y-84983810D01*
X123013988Y-87428091D01*
X122228772Y-89723203D01*
X121144669Y-91894727D01*
X119814123Y-93866449D01*
X118228074Y-95655861D01*
X116420779Y-97221802D01*
X114412401Y-98543442D01*
X112183064Y-99627250D01*
X109832060Y-100413250D01*
X107340921Y-100891037D01*
X104684808Y-101053628D01*
X101175001Y-100777249D01*
X97911954Y-99964305D01*
X95870502Y-99086870D01*
X93917436Y-97874330D01*
X92037914Y-96298220D01*
X91366246Y-97082240D01*
X93142979Y-98615414D01*
X95131179Y-99872215D01*
X97355081Y-100860676D01*
X99695893Y-101555971D01*
X102133202Y-101976398D01*
X104684808Y-102118527D01*
G37*
D11*
X146000000Y-119500000D02*
X138000000Y-119500000D01*
X138000000Y-123500000D02*
X146000000Y-123500000D01*
X146000000Y-119500000D02*
G75*
G02*
X146000000Y-123500000I0J-2000000D01*
G01*
X138000000Y-123500000D02*
G75*
G02*
X138000000Y-119500000I0J2000000D01*
G01*
D10*
X78706093Y-81250000D02*
X78456093Y-81500000D01*
X78706093Y-81750000D01*
X78456093Y-82000000D01*
X78206093Y-81750000D01*
X77956093Y-82000000D01*
X77706093Y-81750000D01*
X77956093Y-81500000D01*
X77706093Y-81250000D01*
X77956093Y-81000000D01*
X78206093Y-81250000D01*
X78456093Y-81000000D01*
X78706093Y-81250000D01*
G36*
X78706093Y-81250000D02*
G01*
X78456093Y-81500000D01*
X78706093Y-81750000D01*
X78456093Y-82000000D01*
X78206093Y-81750000D01*
X77956093Y-82000000D01*
X77706093Y-81750000D01*
X77956093Y-81500000D01*
X77706093Y-81250000D01*
X77956093Y-81000000D01*
X78206093Y-81250000D01*
X78456093Y-81000000D01*
X78706093Y-81250000D01*
G37*
X74206093Y-78250000D02*
X73956093Y-78500000D01*
X74206093Y-78750000D01*
X73956093Y-79000000D01*
X73706093Y-78750000D01*
X73456093Y-79000000D01*
X73206093Y-78750000D01*
X73456093Y-78500000D01*
X73206093Y-78250000D01*
X73456093Y-78000000D01*
X73706093Y-78250000D01*
X73956093Y-78000000D01*
X74206093Y-78250000D01*
G36*
X74206093Y-78250000D02*
G01*
X73956093Y-78500000D01*
X74206093Y-78750000D01*
X73956093Y-79000000D01*
X73706093Y-78750000D01*
X73456093Y-79000000D01*
X73206093Y-78750000D01*
X73456093Y-78500000D01*
X73206093Y-78250000D01*
X73456093Y-78000000D01*
X73706093Y-78250000D01*
X73956093Y-78000000D01*
X74206093Y-78250000D01*
G37*
X74206093Y-79750000D02*
X73956093Y-80000000D01*
X74206093Y-80250000D01*
X73956093Y-80500000D01*
X73706093Y-80250000D01*
X73456093Y-80500000D01*
X73206093Y-80250000D01*
X73456093Y-80000000D01*
X73206093Y-79750000D01*
X73456093Y-79500000D01*
X73706093Y-79750000D01*
X73956093Y-79500000D01*
X74206093Y-79750000D01*
G36*
X74206093Y-79750000D02*
G01*
X73956093Y-80000000D01*
X74206093Y-80250000D01*
X73956093Y-80500000D01*
X73706093Y-80250000D01*
X73456093Y-80500000D01*
X73206093Y-80250000D01*
X73456093Y-80000000D01*
X73206093Y-79750000D01*
X73456093Y-79500000D01*
X73706093Y-79750000D01*
X73956093Y-79500000D01*
X74206093Y-79750000D01*
G37*
X77206093Y-81250000D02*
X76956093Y-81500000D01*
X77206093Y-81750000D01*
X76956093Y-82000000D01*
X76706093Y-81750000D01*
X76456093Y-82000000D01*
X76206093Y-81750000D01*
X76456093Y-81500000D01*
X76206093Y-81250000D01*
X76456093Y-81000000D01*
X76706093Y-81250000D01*
X76956093Y-81000000D01*
X77206093Y-81250000D01*
G36*
X77206093Y-81250000D02*
G01*
X76956093Y-81500000D01*
X77206093Y-81750000D01*
X76956093Y-82000000D01*
X76706093Y-81750000D01*
X76456093Y-82000000D01*
X76206093Y-81750000D01*
X76456093Y-81500000D01*
X76206093Y-81250000D01*
X76456093Y-81000000D01*
X76706093Y-81250000D01*
X76956093Y-81000000D01*
X77206093Y-81250000D01*
G37*
X75706093Y-79750000D02*
X75456093Y-80000000D01*
X75706093Y-80250000D01*
X75456093Y-80500000D01*
X75206093Y-80250000D01*
X74956093Y-80500000D01*
X74706093Y-80250000D01*
X74956093Y-80000000D01*
X74706093Y-79750000D01*
X74956093Y-79500000D01*
X75206093Y-79750000D01*
X75456093Y-79500000D01*
X75706093Y-79750000D01*
G36*
X75706093Y-79750000D02*
G01*
X75456093Y-80000000D01*
X75706093Y-80250000D01*
X75456093Y-80500000D01*
X75206093Y-80250000D01*
X74956093Y-80500000D01*
X74706093Y-80250000D01*
X74956093Y-80000000D01*
X74706093Y-79750000D01*
X74956093Y-79500000D01*
X75206093Y-79750000D01*
X75456093Y-79500000D01*
X75706093Y-79750000D01*
G37*
X74206093Y-81250000D02*
X73956093Y-81500000D01*
X74206093Y-81750000D01*
X73956093Y-82000000D01*
X73706093Y-81750000D01*
X73456093Y-82000000D01*
X73206093Y-81750000D01*
X73456093Y-81500000D01*
X73206093Y-81250000D01*
X73456093Y-81000000D01*
X73706093Y-81250000D01*
X73956093Y-81000000D01*
X74206093Y-81250000D01*
G36*
X74206093Y-81250000D02*
G01*
X73956093Y-81500000D01*
X74206093Y-81750000D01*
X73956093Y-82000000D01*
X73706093Y-81750000D01*
X73456093Y-82000000D01*
X73206093Y-81750000D01*
X73456093Y-81500000D01*
X73206093Y-81250000D01*
X73456093Y-81000000D01*
X73706093Y-81250000D01*
X73956093Y-81000000D01*
X74206093Y-81250000D01*
G37*
X75706093Y-81250000D02*
X75456093Y-81500000D01*
X75706093Y-81750000D01*
X75456093Y-82000000D01*
X75206093Y-81750000D01*
X74956093Y-82000000D01*
X74706093Y-81750000D01*
X74956093Y-81500000D01*
X74706093Y-81250000D01*
X74956093Y-81000000D01*
X75206093Y-81250000D01*
X75456093Y-81000000D01*
X75706093Y-81250000D01*
G36*
X75706093Y-81250000D02*
G01*
X75456093Y-81500000D01*
X75706093Y-81750000D01*
X75456093Y-82000000D01*
X75206093Y-81750000D01*
X74956093Y-82000000D01*
X74706093Y-81750000D01*
X74956093Y-81500000D01*
X74706093Y-81250000D01*
X74956093Y-81000000D01*
X75206093Y-81250000D01*
X75456093Y-81000000D01*
X75706093Y-81250000D01*
G37*
%LPD*%
M02*
