%TF.GenerationSoftware,KiCad,Pcbnew,9.0.4*%
%TF.CreationDate,2026-02-04T08:56:54+09:00*%
%TF.ProjectId,ansicBackplate,616e7369-6342-4616-936b-706c6174652e,rev?*%
%TF.SameCoordinates,Original*%
%TF.FileFunction,Soldermask,Bot*%
%TF.FilePolarity,Negative*%
%FSLAX46Y46*%
G04 Gerber Fmt 4.6, Leading zero omitted, Abs format (unit mm)*
G04 Created by KiCad (PCBNEW 9.0.4) date 2026-02-04 08:56:54*
%MOMM*%
%LPD*%
G01*
G04 APERTURE LIST*
%ADD10C,0.100000*%
G04 APERTURE END LIST*
D10*
X78706093Y-81250000D02*
X78456093Y-81500000D01*
X78706093Y-81750000D01*
X78456093Y-82000000D01*
X78206093Y-81750000D01*
X77956093Y-82000000D01*
X77706093Y-81750000D01*
X77956093Y-81500000D01*
X77706093Y-81250000D01*
X77956093Y-81000000D01*
X78206093Y-81250000D01*
X78456093Y-81000000D01*
X78706093Y-81250000D01*
G36*
X78706093Y-81250000D02*
G01*
X78456093Y-81500000D01*
X78706093Y-81750000D01*
X78456093Y-82000000D01*
X78206093Y-81750000D01*
X77956093Y-82000000D01*
X77706093Y-81750000D01*
X77956093Y-81500000D01*
X77706093Y-81250000D01*
X77956093Y-81000000D01*
X78206093Y-81250000D01*
X78456093Y-81000000D01*
X78706093Y-81250000D01*
G37*
X74206093Y-78250000D02*
X73956093Y-78500000D01*
X74206093Y-78750000D01*
X73956093Y-79000000D01*
X73706093Y-78750000D01*
X73456093Y-79000000D01*
X73206093Y-78750000D01*
X73456093Y-78500000D01*
X73206093Y-78250000D01*
X73456093Y-78000000D01*
X73706093Y-78250000D01*
X73956093Y-78000000D01*
X74206093Y-78250000D01*
G36*
X74206093Y-78250000D02*
G01*
X73956093Y-78500000D01*
X74206093Y-78750000D01*
X73956093Y-79000000D01*
X73706093Y-78750000D01*
X73456093Y-79000000D01*
X73206093Y-78750000D01*
X73456093Y-78500000D01*
X73206093Y-78250000D01*
X73456093Y-78000000D01*
X73706093Y-78250000D01*
X73956093Y-78000000D01*
X74206093Y-78250000D01*
G37*
X74206093Y-79750000D02*
X73956093Y-80000000D01*
X74206093Y-80250000D01*
X73956093Y-80500000D01*
X73706093Y-80250000D01*
X73456093Y-80500000D01*
X73206093Y-80250000D01*
X73456093Y-80000000D01*
X73206093Y-79750000D01*
X73456093Y-79500000D01*
X73706093Y-79750000D01*
X73956093Y-79500000D01*
X74206093Y-79750000D01*
G36*
X74206093Y-79750000D02*
G01*
X73956093Y-80000000D01*
X74206093Y-80250000D01*
X73956093Y-80500000D01*
X73706093Y-80250000D01*
X73456093Y-80500000D01*
X73206093Y-80250000D01*
X73456093Y-80000000D01*
X73206093Y-79750000D01*
X73456093Y-79500000D01*
X73706093Y-79750000D01*
X73956093Y-79500000D01*
X74206093Y-79750000D01*
G37*
X77206093Y-81250000D02*
X76956093Y-81500000D01*
X77206093Y-81750000D01*
X76956093Y-82000000D01*
X76706093Y-81750000D01*
X76456093Y-82000000D01*
X76206093Y-81750000D01*
X76456093Y-81500000D01*
X76206093Y-81250000D01*
X76456093Y-81000000D01*
X76706093Y-81250000D01*
X76956093Y-81000000D01*
X77206093Y-81250000D01*
G36*
X77206093Y-81250000D02*
G01*
X76956093Y-81500000D01*
X77206093Y-81750000D01*
X76956093Y-82000000D01*
X76706093Y-81750000D01*
X76456093Y-82000000D01*
X76206093Y-81750000D01*
X76456093Y-81500000D01*
X76206093Y-81250000D01*
X76456093Y-81000000D01*
X76706093Y-81250000D01*
X76956093Y-81000000D01*
X77206093Y-81250000D01*
G37*
X75706093Y-79750000D02*
X75456093Y-80000000D01*
X75706093Y-80250000D01*
X75456093Y-80500000D01*
X75206093Y-80250000D01*
X74956093Y-80500000D01*
X74706093Y-80250000D01*
X74956093Y-80000000D01*
X74706093Y-79750000D01*
X74956093Y-79500000D01*
X75206093Y-79750000D01*
X75456093Y-79500000D01*
X75706093Y-79750000D01*
G36*
X75706093Y-79750000D02*
G01*
X75456093Y-80000000D01*
X75706093Y-80250000D01*
X75456093Y-80500000D01*
X75206093Y-80250000D01*
X74956093Y-80500000D01*
X74706093Y-80250000D01*
X74956093Y-80000000D01*
X74706093Y-79750000D01*
X74956093Y-79500000D01*
X75206093Y-79750000D01*
X75456093Y-79500000D01*
X75706093Y-79750000D01*
G37*
X74206093Y-81250000D02*
X73956093Y-81500000D01*
X74206093Y-81750000D01*
X73956093Y-82000000D01*
X73706093Y-81750000D01*
X73456093Y-82000000D01*
X73206093Y-81750000D01*
X73456093Y-81500000D01*
X73206093Y-81250000D01*
X73456093Y-81000000D01*
X73706093Y-81250000D01*
X73956093Y-81000000D01*
X74206093Y-81250000D01*
G36*
X74206093Y-81250000D02*
G01*
X73956093Y-81500000D01*
X74206093Y-81750000D01*
X73956093Y-82000000D01*
X73706093Y-81750000D01*
X73456093Y-82000000D01*
X73206093Y-81750000D01*
X73456093Y-81500000D01*
X73206093Y-81250000D01*
X73456093Y-81000000D01*
X73706093Y-81250000D01*
X73956093Y-81000000D01*
X74206093Y-81250000D01*
G37*
X75706093Y-81250000D02*
X75456093Y-81500000D01*
X75706093Y-81750000D01*
X75456093Y-82000000D01*
X75206093Y-81750000D01*
X74956093Y-82000000D01*
X74706093Y-81750000D01*
X74956093Y-81500000D01*
X74706093Y-81250000D01*
X74956093Y-81000000D01*
X75206093Y-81250000D01*
X75456093Y-81000000D01*
X75706093Y-81250000D01*
G36*
X75706093Y-81250000D02*
G01*
X75456093Y-81500000D01*
X75706093Y-81750000D01*
X75456093Y-82000000D01*
X75206093Y-81750000D01*
X74956093Y-82000000D01*
X74706093Y-81750000D01*
X74956093Y-81500000D01*
X74706093Y-81250000D01*
X74956093Y-81000000D01*
X75206093Y-81250000D01*
X75456093Y-81000000D01*
X75706093Y-81250000D01*
G37*
G36*
X160694578Y-102618527D02*
G01*
X163497717Y-102441892D01*
X166166567Y-101919284D01*
X168725283Y-101052930D01*
X171144742Y-99853052D01*
X173028309Y-98525206D01*
X174460105Y-97076657D01*
X173676086Y-96351256D01*
X172336774Y-97669083D01*
X170580925Y-98902224D01*
X168332052Y-100044207D01*
X165959358Y-100876178D01*
X163441299Y-101381592D01*
X160750754Y-101553628D01*
X157923249Y-101405473D01*
X155630151Y-100998646D01*
X153782506Y-100378820D01*
X152069601Y-99467027D01*
X150746884Y-98413618D01*
X149754941Y-97218318D01*
X149022615Y-95844173D01*
X148586088Y-94388755D01*
X148438472Y-92824389D01*
X148602266Y-91004159D01*
X149059072Y-89525999D01*
X149781808Y-88320551D01*
X151323081Y-86814941D01*
X153364850Y-85633879D01*
X155668824Y-84749277D01*
X158232610Y-84012107D01*
X163520468Y-82695638D01*
X166102472Y-81909088D01*
X168417537Y-80934647D01*
X170445986Y-79627868D01*
X171998137Y-77940230D01*
X172717699Y-76608500D01*
X173176423Y-74972179D01*
X173341473Y-72957676D01*
X173189345Y-71279545D01*
X172736048Y-69684208D01*
X171971270Y-68146092D01*
X170926266Y-66786307D01*
X169527829Y-65575234D01*
X167716560Y-64509316D01*
X165744103Y-63770042D01*
X163287594Y-63286073D01*
X160245171Y-63109804D01*
X157140887Y-63353395D01*
X154063385Y-64089218D01*
X151184839Y-65258884D01*
X148885437Y-66690404D01*
X149500929Y-67586775D01*
X151973018Y-66078979D01*
X154708186Y-65012456D01*
X157547061Y-64375969D01*
X160191438Y-64172260D01*
X162899480Y-64322187D01*
X165130616Y-64737261D01*
X166961850Y-65376378D01*
X168656265Y-66303951D01*
X169961204Y-67366934D01*
X170935681Y-68566189D01*
X171648740Y-69937839D01*
X172077079Y-71410804D01*
X172222841Y-73013852D01*
X172057879Y-74873967D01*
X171599997Y-76369938D01*
X170879505Y-77576308D01*
X169338815Y-79080111D01*
X167298905Y-80260537D01*
X164989514Y-81144755D01*
X162401836Y-81884752D01*
X157113978Y-83228087D01*
X154554941Y-84034821D01*
X152246218Y-85018387D01*
X150211356Y-86314658D01*
X148663176Y-87956629D01*
X147943604Y-89252344D01*
X147484989Y-90850129D01*
X147319840Y-92824389D01*
X147474909Y-94501138D01*
X147937475Y-96097064D01*
X148719351Y-97638415D01*
X149782964Y-98990664D01*
X151216000Y-100193264D01*
X153083971Y-101248325D01*
X155108310Y-101972792D01*
X157612706Y-102446407D01*
X160694578Y-102618527D01*
G37*
G36*
X136617118Y-102450000D02*
G01*
X136617118Y-63278332D01*
X135496044Y-63278332D01*
X135496044Y-102450000D01*
X136617118Y-102450000D01*
G37*
G36*
X104684808Y-102618527D02*
G01*
X107527477Y-102448720D01*
X110176536Y-101951274D01*
X112659337Y-101135973D01*
X115012063Y-100003939D01*
X117131513Y-98616575D01*
X119038961Y-96966748D01*
X120712166Y-95079276D01*
X122117556Y-92996442D01*
X123264362Y-90699476D01*
X124094070Y-88269806D01*
X124600642Y-85667752D01*
X124773783Y-82864166D01*
X124600575Y-80058963D01*
X124093942Y-77456966D01*
X123264362Y-75028855D01*
X122117556Y-72731889D01*
X120712166Y-70649055D01*
X119038961Y-68761584D01*
X117131277Y-67110494D01*
X115011834Y-65723173D01*
X112659337Y-64592358D01*
X110176536Y-63777057D01*
X107527477Y-63279612D01*
X104684808Y-63109804D01*
X102132320Y-63248996D01*
X99694842Y-63660585D01*
X97355081Y-64340788D01*
X95131963Y-65312454D01*
X93143909Y-66559286D01*
X91366246Y-68089916D01*
X92037914Y-68873935D01*
X93918468Y-67300454D01*
X95871322Y-66098076D01*
X97911954Y-65237159D01*
X101174042Y-64442595D01*
X104684808Y-64172260D01*
X107340829Y-64335118D01*
X109831952Y-64813707D01*
X112183064Y-65601081D01*
X114412246Y-66685077D01*
X116420626Y-68007504D01*
X118228074Y-69574912D01*
X119814016Y-71362831D01*
X121144572Y-73333711D01*
X122228772Y-75505129D01*
X123013988Y-77800240D01*
X123492121Y-80244521D01*
X123655150Y-82864166D01*
X123492121Y-85483810D01*
X123013988Y-87928091D01*
X122228772Y-90223203D01*
X121144669Y-92394727D01*
X119814123Y-94366449D01*
X118228074Y-96155861D01*
X116420779Y-97721802D01*
X114412401Y-99043442D01*
X112183064Y-100127250D01*
X109832060Y-100913250D01*
X107340921Y-101391037D01*
X104684808Y-101553628D01*
X101175001Y-101277249D01*
X97911954Y-100464305D01*
X95870502Y-99586870D01*
X93917436Y-98374330D01*
X92037914Y-96798220D01*
X91366246Y-97582240D01*
X93142979Y-99115414D01*
X95131179Y-100372215D01*
X97355081Y-101360676D01*
X99695893Y-102055971D01*
X102133202Y-102476398D01*
X104684808Y-102618527D01*
G37*
M02*
