%TF.GenerationSoftware,KiCad,Pcbnew,9.0.4*%
%TF.CreationDate,2026-02-04T08:49:36+09:00*%
%TF.ProjectId,ansicBackplateDrain,616e7369-6342-4616-936b-706c61746544,rev?*%
%TF.SameCoordinates,Original*%
%TF.FileFunction,Soldermask,Bot*%
%TF.FilePolarity,Negative*%
%FSLAX46Y46*%
G04 Gerber Fmt 4.6, Leading zero omitted, Abs format (unit mm)*
G04 Created by KiCad (PCBNEW 9.0.4) date 2026-02-04 08:49:36*
%MOMM*%
%LPD*%
G01*
G04 APERTURE LIST*
%ADD10C,0.100000*%
%ADD11C,1.000000*%
G04 APERTURE END LIST*
D10*
X78706093Y-81250000D02*
X78456093Y-81500000D01*
X78706093Y-81750000D01*
X78456093Y-82000000D01*
X78206093Y-81750000D01*
X77956093Y-82000000D01*
X77706093Y-81750000D01*
X77956093Y-81500000D01*
X77706093Y-81250000D01*
X77956093Y-81000000D01*
X78206093Y-81250000D01*
X78456093Y-81000000D01*
X78706093Y-81250000D01*
G36*
X78706093Y-81250000D02*
G01*
X78456093Y-81500000D01*
X78706093Y-81750000D01*
X78456093Y-82000000D01*
X78206093Y-81750000D01*
X77956093Y-82000000D01*
X77706093Y-81750000D01*
X77956093Y-81500000D01*
X77706093Y-81250000D01*
X77956093Y-81000000D01*
X78206093Y-81250000D01*
X78456093Y-81000000D01*
X78706093Y-81250000D01*
G37*
X74206093Y-78250000D02*
X73956093Y-78500000D01*
X74206093Y-78750000D01*
X73956093Y-79000000D01*
X73706093Y-78750000D01*
X73456093Y-79000000D01*
X73206093Y-78750000D01*
X73456093Y-78500000D01*
X73206093Y-78250000D01*
X73456093Y-78000000D01*
X73706093Y-78250000D01*
X73956093Y-78000000D01*
X74206093Y-78250000D01*
G36*
X74206093Y-78250000D02*
G01*
X73956093Y-78500000D01*
X74206093Y-78750000D01*
X73956093Y-79000000D01*
X73706093Y-78750000D01*
X73456093Y-79000000D01*
X73206093Y-78750000D01*
X73456093Y-78500000D01*
X73206093Y-78250000D01*
X73456093Y-78000000D01*
X73706093Y-78250000D01*
X73956093Y-78000000D01*
X74206093Y-78250000D01*
G37*
X74206093Y-79750000D02*
X73956093Y-80000000D01*
X74206093Y-80250000D01*
X73956093Y-80500000D01*
X73706093Y-80250000D01*
X73456093Y-80500000D01*
X73206093Y-80250000D01*
X73456093Y-80000000D01*
X73206093Y-79750000D01*
X73456093Y-79500000D01*
X73706093Y-79750000D01*
X73956093Y-79500000D01*
X74206093Y-79750000D01*
G36*
X74206093Y-79750000D02*
G01*
X73956093Y-80000000D01*
X74206093Y-80250000D01*
X73956093Y-80500000D01*
X73706093Y-80250000D01*
X73456093Y-80500000D01*
X73206093Y-80250000D01*
X73456093Y-80000000D01*
X73206093Y-79750000D01*
X73456093Y-79500000D01*
X73706093Y-79750000D01*
X73956093Y-79500000D01*
X74206093Y-79750000D01*
G37*
X77206093Y-81250000D02*
X76956093Y-81500000D01*
X77206093Y-81750000D01*
X76956093Y-82000000D01*
X76706093Y-81750000D01*
X76456093Y-82000000D01*
X76206093Y-81750000D01*
X76456093Y-81500000D01*
X76206093Y-81250000D01*
X76456093Y-81000000D01*
X76706093Y-81250000D01*
X76956093Y-81000000D01*
X77206093Y-81250000D01*
G36*
X77206093Y-81250000D02*
G01*
X76956093Y-81500000D01*
X77206093Y-81750000D01*
X76956093Y-82000000D01*
X76706093Y-81750000D01*
X76456093Y-82000000D01*
X76206093Y-81750000D01*
X76456093Y-81500000D01*
X76206093Y-81250000D01*
X76456093Y-81000000D01*
X76706093Y-81250000D01*
X76956093Y-81000000D01*
X77206093Y-81250000D01*
G37*
X75706093Y-79750000D02*
X75456093Y-80000000D01*
X75706093Y-80250000D01*
X75456093Y-80500000D01*
X75206093Y-80250000D01*
X74956093Y-80500000D01*
X74706093Y-80250000D01*
X74956093Y-80000000D01*
X74706093Y-79750000D01*
X74956093Y-79500000D01*
X75206093Y-79750000D01*
X75456093Y-79500000D01*
X75706093Y-79750000D01*
G36*
X75706093Y-79750000D02*
G01*
X75456093Y-80000000D01*
X75706093Y-80250000D01*
X75456093Y-80500000D01*
X75206093Y-80250000D01*
X74956093Y-80500000D01*
X74706093Y-80250000D01*
X74956093Y-80000000D01*
X74706093Y-79750000D01*
X74956093Y-79500000D01*
X75206093Y-79750000D01*
X75456093Y-79500000D01*
X75706093Y-79750000D01*
G37*
X74206093Y-81250000D02*
X73956093Y-81500000D01*
X74206093Y-81750000D01*
X73956093Y-82000000D01*
X73706093Y-81750000D01*
X73456093Y-82000000D01*
X73206093Y-81750000D01*
X73456093Y-81500000D01*
X73206093Y-81250000D01*
X73456093Y-81000000D01*
X73706093Y-81250000D01*
X73956093Y-81000000D01*
X74206093Y-81250000D01*
G36*
X74206093Y-81250000D02*
G01*
X73956093Y-81500000D01*
X74206093Y-81750000D01*
X73956093Y-82000000D01*
X73706093Y-81750000D01*
X73456093Y-82000000D01*
X73206093Y-81750000D01*
X73456093Y-81500000D01*
X73206093Y-81250000D01*
X73456093Y-81000000D01*
X73706093Y-81250000D01*
X73956093Y-81000000D01*
X74206093Y-81250000D01*
G37*
X75706093Y-81250000D02*
X75456093Y-81500000D01*
X75706093Y-81750000D01*
X75456093Y-82000000D01*
X75206093Y-81750000D01*
X74956093Y-82000000D01*
X74706093Y-81750000D01*
X74956093Y-81500000D01*
X74706093Y-81250000D01*
X74956093Y-81000000D01*
X75206093Y-81250000D01*
X75456093Y-81000000D01*
X75706093Y-81250000D01*
G36*
X75706093Y-81250000D02*
G01*
X75456093Y-81500000D01*
X75706093Y-81750000D01*
X75456093Y-82000000D01*
X75206093Y-81750000D01*
X74956093Y-82000000D01*
X74706093Y-81750000D01*
X74956093Y-81500000D01*
X74706093Y-81250000D01*
X74956093Y-81000000D01*
X75206093Y-81250000D01*
X75456093Y-81000000D01*
X75706093Y-81250000D01*
G37*
G36*
X160694578Y-102118527D02*
G01*
X163497717Y-101941892D01*
X166166567Y-101419284D01*
X168725283Y-100552930D01*
X171144742Y-99353052D01*
X173028309Y-98025206D01*
X174460105Y-96576657D01*
X173676086Y-95851256D01*
X172336774Y-97169083D01*
X170580925Y-98402224D01*
X168332052Y-99544207D01*
X165959358Y-100376178D01*
X163441299Y-100881592D01*
X160750754Y-101053628D01*
X157923249Y-100905473D01*
X155630151Y-100498646D01*
X153782506Y-99878820D01*
X152069601Y-98967027D01*
X150746884Y-97913618D01*
X149754941Y-96718318D01*
X149022615Y-95344173D01*
X148586088Y-93888755D01*
X148438472Y-92324389D01*
X148602266Y-90504159D01*
X149059072Y-89025999D01*
X149781808Y-87820551D01*
X151323081Y-86314941D01*
X153364850Y-85133879D01*
X155668824Y-84249277D01*
X158232610Y-83512107D01*
X163520468Y-82195638D01*
X166102472Y-81409088D01*
X168417537Y-80434647D01*
X170445986Y-79127868D01*
X171998137Y-77440230D01*
X172717699Y-76108500D01*
X173176423Y-74472179D01*
X173341473Y-72457676D01*
X173189345Y-70779545D01*
X172736048Y-69184208D01*
X171971270Y-67646092D01*
X170926266Y-66286307D01*
X169527829Y-65075234D01*
X167716560Y-64009316D01*
X165744103Y-63270042D01*
X163287594Y-62786073D01*
X160245171Y-62609804D01*
X157140887Y-62853395D01*
X154063385Y-63589218D01*
X151184839Y-64758884D01*
X148885437Y-66190404D01*
X149500929Y-67086775D01*
X151973018Y-65578979D01*
X154708186Y-64512456D01*
X157547061Y-63875969D01*
X160191438Y-63672260D01*
X162899480Y-63822187D01*
X165130616Y-64237261D01*
X166961850Y-64876378D01*
X168656265Y-65803951D01*
X169961204Y-66866934D01*
X170935681Y-68066189D01*
X171648740Y-69437839D01*
X172077079Y-70910804D01*
X172222841Y-72513852D01*
X172057879Y-74373967D01*
X171599997Y-75869938D01*
X170879505Y-77076308D01*
X169338815Y-78580111D01*
X167298905Y-79760537D01*
X164989514Y-80644755D01*
X162401836Y-81384752D01*
X157113978Y-82728087D01*
X154554941Y-83534821D01*
X152246218Y-84518387D01*
X150211356Y-85814658D01*
X148663176Y-87456629D01*
X147943604Y-88752344D01*
X147484989Y-90350129D01*
X147319840Y-92324389D01*
X147474909Y-94001138D01*
X147937475Y-95597064D01*
X148719351Y-97138415D01*
X149782964Y-98490664D01*
X151216000Y-99693264D01*
X153083971Y-100748325D01*
X155108310Y-101472792D01*
X157612706Y-101946407D01*
X160694578Y-102118527D01*
G37*
G36*
X136617118Y-101950000D02*
G01*
X136617118Y-62778332D01*
X135496044Y-62778332D01*
X135496044Y-101950000D01*
X136617118Y-101950000D01*
G37*
G36*
X104684808Y-102118527D02*
G01*
X107527477Y-101948720D01*
X110176536Y-101451274D01*
X112659337Y-100635973D01*
X115012063Y-99503939D01*
X117131513Y-98116575D01*
X119038961Y-96466748D01*
X120712166Y-94579276D01*
X122117556Y-92496442D01*
X123264362Y-90199476D01*
X124094070Y-87769806D01*
X124600642Y-85167752D01*
X124773783Y-82364166D01*
X124600575Y-79558963D01*
X124093942Y-76956966D01*
X123264362Y-74528855D01*
X122117556Y-72231889D01*
X120712166Y-70149055D01*
X119038961Y-68261584D01*
X117131277Y-66610494D01*
X115011834Y-65223173D01*
X112659337Y-64092358D01*
X110176536Y-63277057D01*
X107527477Y-62779612D01*
X104684808Y-62609804D01*
X102132320Y-62748996D01*
X99694842Y-63160585D01*
X97355081Y-63840788D01*
X95131963Y-64812454D01*
X93143909Y-66059286D01*
X91366246Y-67589916D01*
X92037914Y-68373935D01*
X93918468Y-66800454D01*
X95871322Y-65598076D01*
X97911954Y-64737159D01*
X101174042Y-63942595D01*
X104684808Y-63672260D01*
X107340829Y-63835118D01*
X109831952Y-64313707D01*
X112183064Y-65101081D01*
X114412246Y-66185077D01*
X116420626Y-67507504D01*
X118228074Y-69074912D01*
X119814016Y-70862831D01*
X121144572Y-72833711D01*
X122228772Y-75005129D01*
X123013988Y-77300240D01*
X123492121Y-79744521D01*
X123655150Y-82364166D01*
X123492121Y-84983810D01*
X123013988Y-87428091D01*
X122228772Y-89723203D01*
X121144669Y-91894727D01*
X119814123Y-93866449D01*
X118228074Y-95655861D01*
X116420779Y-97221802D01*
X114412401Y-98543442D01*
X112183064Y-99627250D01*
X109832060Y-100413250D01*
X107340921Y-100891037D01*
X104684808Y-101053628D01*
X101175001Y-100777249D01*
X97911954Y-99964305D01*
X95870502Y-99086870D01*
X93917436Y-97874330D01*
X92037914Y-96298220D01*
X91366246Y-97082240D01*
X93142979Y-98615414D01*
X95131179Y-99872215D01*
X97355081Y-100860676D01*
X99695893Y-101555971D01*
X102133202Y-101976398D01*
X104684808Y-102118527D01*
G37*
D11*
%TO.C,REF\u002A\u002A*%
X138000000Y-32000000D02*
X146000000Y-32000000D01*
X146000000Y-28000000D02*
X138000000Y-28000000D01*
X138000000Y-32000000D02*
G75*
G02*
X138000000Y-28000000I0J2000000D01*
G01*
X146000000Y-28000000D02*
G75*
G02*
X146000000Y-32000000I0J-2000000D01*
G01*
X92000000Y-32000000D02*
X100000000Y-32000000D01*
X100000000Y-28000000D02*
X92000000Y-28000000D01*
X92000000Y-32000000D02*
G75*
G02*
X92000000Y-28000000I0J2000000D01*
G01*
X100000000Y-28000000D02*
G75*
G02*
X100000000Y-32000000I0J-2000000D01*
G01*
X138000000Y-124500000D02*
X146000000Y-124500000D01*
X146000000Y-120500000D02*
X138000000Y-120500000D01*
X138000000Y-124500000D02*
G75*
G02*
X138000000Y-120500000I0J2000000D01*
G01*
X146000000Y-120500000D02*
G75*
G02*
X146000000Y-124500000I0J-2000000D01*
G01*
X92000000Y-124500000D02*
X100000000Y-124500000D01*
X100000000Y-120500000D02*
X92000000Y-120500000D01*
X92000000Y-124500000D02*
G75*
G02*
X92000000Y-120500000I0J2000000D01*
G01*
X100000000Y-120500000D02*
G75*
G02*
X100000000Y-124500000I0J-2000000D01*
G01*
%TD*%
M02*
