%TF.GenerationSoftware,KiCad,Pcbnew,9.0.4*%
%TF.CreationDate,2026-01-29T10:07:03+09:00*%
%TF.ProjectId,ansikBackplate,616e7369-6b42-4616-936b-706c6174652e,rev?*%
%TF.SameCoordinates,Original*%
%TF.FileFunction,Copper,L2,Bot*%
%TF.FilePolarity,Positive*%
%FSLAX46Y46*%
G04 Gerber Fmt 4.6, Leading zero omitted, Abs format (unit mm)*
G04 Created by KiCad (PCBNEW 9.0.4) date 2026-01-29 10:07:03*
%MOMM*%
%LPD*%
G01*
G04 APERTURE LIST*
%ADD10C,0.100000*%
%TA.AperFunction,NonConductor*%
%ADD11C,0.100000*%
%TD*%
G04 APERTURE END LIST*
D10*
G36*
X94052771Y-38566908D02*
G01*
X91999594Y-38566908D01*
X93027880Y-36307335D01*
X94052771Y-38566908D01*
G37*
G36*
X95414157Y-40382531D02*
G01*
X77114906Y-40382531D01*
X77114906Y-39910000D01*
X77559350Y-39910000D01*
X77906419Y-39910000D01*
X79593342Y-37982085D01*
X80469259Y-38879315D01*
X80469259Y-39910000D01*
X80754779Y-39910000D01*
X82118387Y-39910000D01*
X82403907Y-39910000D01*
X82403907Y-38902742D01*
X83371597Y-38902742D01*
X83388342Y-39081276D01*
X83438294Y-39251046D01*
X83522783Y-39414919D01*
X83637137Y-39558738D01*
X83788902Y-39685482D01*
X83984402Y-39795450D01*
X84196449Y-39870850D01*
X84458865Y-39920163D01*
X84781855Y-39938087D01*
X85070031Y-39921324D01*
X85132750Y-39910000D01*
X87178366Y-39910000D01*
X87413327Y-39910000D01*
X90082657Y-36509259D01*
X90082657Y-39910000D01*
X90368177Y-39910000D01*
X91080634Y-39910000D01*
X91388380Y-39910000D01*
X91890112Y-38807487D01*
X94161892Y-38807487D01*
X94661967Y-39910000D01*
X94969713Y-39910000D01*
X93167933Y-35992833D01*
X92882413Y-35992833D01*
X91698416Y-38566908D01*
X91080634Y-39910000D01*
X90368177Y-39910000D01*
X90368177Y-35992833D01*
X90127598Y-35992833D01*
X87463641Y-39393256D01*
X87463641Y-35992833D01*
X87178366Y-35992833D01*
X87178366Y-39910000D01*
X85132750Y-39910000D01*
X85344478Y-39871772D01*
X85607396Y-39789832D01*
X85857723Y-39675430D01*
X86055473Y-39547272D01*
X86208722Y-39406371D01*
X86080250Y-39193635D01*
X85936815Y-39319083D01*
X85755188Y-39436011D01*
X85528994Y-39543635D01*
X85292260Y-39622589D01*
X85045804Y-39670194D01*
X84787473Y-39686273D01*
X84526833Y-39673169D01*
X84316040Y-39637255D01*
X84146824Y-39582714D01*
X83988921Y-39502098D01*
X83867781Y-39409704D01*
X83777528Y-39305743D01*
X83710503Y-39185355D01*
X83670610Y-39057507D01*
X83657117Y-38919595D01*
X83673345Y-38756706D01*
X83718789Y-38624550D01*
X83791450Y-38516594D01*
X83943211Y-38383184D01*
X84143893Y-38276015D01*
X84368531Y-38194509D01*
X84619678Y-38124829D01*
X85139915Y-37993426D01*
X85394901Y-37911709D01*
X85621318Y-37811465D01*
X85818846Y-37678426D01*
X85971073Y-37506650D01*
X86041493Y-37371846D01*
X86086361Y-37207205D01*
X86102476Y-37005708D01*
X86086169Y-36823230D01*
X86037928Y-36652582D01*
X85957152Y-36490844D01*
X85846312Y-36348400D01*
X85697405Y-36221654D01*
X85503837Y-36110314D01*
X85293366Y-36033255D01*
X85033655Y-35982988D01*
X84714688Y-35964745D01*
X84392872Y-35988463D01*
X84074039Y-36060000D01*
X83774831Y-36174700D01*
X83534018Y-36317187D01*
X83640264Y-36546775D01*
X83895983Y-36400458D01*
X84169050Y-36297892D01*
X84450505Y-36236337D01*
X84714688Y-36216559D01*
X84963549Y-36229853D01*
X85168223Y-36266604D01*
X85335798Y-36323049D01*
X85491458Y-36405398D01*
X85610871Y-36499619D01*
X85699720Y-36605638D01*
X85787603Y-36791541D01*
X85817200Y-37000090D01*
X85801281Y-37163196D01*
X85756768Y-37295353D01*
X85685798Y-37403091D01*
X85536093Y-37536247D01*
X85336042Y-37643670D01*
X85110728Y-37724778D01*
X84854639Y-37794612D01*
X84334158Y-37926259D01*
X84084101Y-38007617D01*
X83858617Y-38108220D01*
X83660145Y-38240648D01*
X83505930Y-38410348D01*
X83433765Y-38543442D01*
X83387993Y-38705288D01*
X83371597Y-38902742D01*
X82403907Y-38902742D01*
X82403907Y-35992833D01*
X82118387Y-35992833D01*
X82118387Y-39910000D01*
X80754779Y-39910000D01*
X80754779Y-35992833D01*
X80469259Y-35992833D01*
X80469259Y-38509508D01*
X78023900Y-35992833D01*
X77676831Y-35992833D01*
X79398578Y-37775030D01*
X77559350Y-39910000D01*
X77114906Y-39910000D01*
X77114906Y-35520301D01*
X95414157Y-35520301D01*
X95414157Y-40382531D01*
G37*
D11*
X76750000Y-82750000D02*
X76500000Y-83000000D01*
X76750000Y-83250000D01*
X76500000Y-83500000D01*
X76250000Y-83250000D01*
X76000000Y-83500000D01*
X75750000Y-83250000D01*
X76000000Y-83000000D01*
X75750000Y-82750000D01*
X76000000Y-82500000D01*
X76250000Y-82750000D01*
X76500000Y-82500000D01*
X76750000Y-82750000D01*
%TA.AperFunction,NonConductor*%
G36*
X76750000Y-82750000D02*
G01*
X76500000Y-83000000D01*
X76750000Y-83250000D01*
X76500000Y-83500000D01*
X76250000Y-83250000D01*
X76000000Y-83500000D01*
X75750000Y-83250000D01*
X76000000Y-83000000D01*
X75750000Y-82750000D01*
X76000000Y-82500000D01*
X76250000Y-82750000D01*
X76500000Y-82500000D01*
X76750000Y-82750000D01*
G37*
%TD.AperFunction*%
X76750000Y-81250000D02*
X76500000Y-81500000D01*
X76750000Y-81750000D01*
X76500000Y-82000000D01*
X76250000Y-81750000D01*
X76000000Y-82000000D01*
X75750000Y-81750000D01*
X76000000Y-81500000D01*
X75750000Y-81250000D01*
X76000000Y-81000000D01*
X76250000Y-81250000D01*
X76500000Y-81000000D01*
X76750000Y-81250000D01*
%TA.AperFunction,NonConductor*%
G36*
X76750000Y-81250000D02*
G01*
X76500000Y-81500000D01*
X76750000Y-81750000D01*
X76500000Y-82000000D01*
X76250000Y-81750000D01*
X76000000Y-82000000D01*
X75750000Y-81750000D01*
X76000000Y-81500000D01*
X75750000Y-81250000D01*
X76000000Y-81000000D01*
X76250000Y-81250000D01*
X76500000Y-81000000D01*
X76750000Y-81250000D01*
G37*
%TD.AperFunction*%
X75250000Y-79750000D02*
X75000000Y-80000000D01*
X75250000Y-80250000D01*
X75000000Y-80500000D01*
X74750000Y-80250000D01*
X74500000Y-80500000D01*
X74250000Y-80250000D01*
X74500000Y-80000000D01*
X74250000Y-79750000D01*
X74500000Y-79500000D01*
X74750000Y-79750000D01*
X75000000Y-79500000D01*
X75250000Y-79750000D01*
%TA.AperFunction,NonConductor*%
G36*
X75250000Y-79750000D02*
G01*
X75000000Y-80000000D01*
X75250000Y-80250000D01*
X75000000Y-80500000D01*
X74750000Y-80250000D01*
X74500000Y-80500000D01*
X74250000Y-80250000D01*
X74500000Y-80000000D01*
X74250000Y-79750000D01*
X74500000Y-79500000D01*
X74750000Y-79750000D01*
X75000000Y-79500000D01*
X75250000Y-79750000D01*
G37*
%TD.AperFunction*%
X78250000Y-82750000D02*
X78000000Y-83000000D01*
X78250000Y-83250000D01*
X78000000Y-83500000D01*
X77750000Y-83250000D01*
X77500000Y-83500000D01*
X77250000Y-83250000D01*
X77500000Y-83000000D01*
X77250000Y-82750000D01*
X77500000Y-82500000D01*
X77750000Y-82750000D01*
X78000000Y-82500000D01*
X78250000Y-82750000D01*
%TA.AperFunction,NonConductor*%
G36*
X78250000Y-82750000D02*
G01*
X78000000Y-83000000D01*
X78250000Y-83250000D01*
X78000000Y-83500000D01*
X77750000Y-83250000D01*
X77500000Y-83500000D01*
X77250000Y-83250000D01*
X77500000Y-83000000D01*
X77250000Y-82750000D01*
X77500000Y-82500000D01*
X77750000Y-82750000D01*
X78000000Y-82500000D01*
X78250000Y-82750000D01*
G37*
%TD.AperFunction*%
X75250000Y-82750000D02*
X75000000Y-83000000D01*
X75250000Y-83250000D01*
X75000000Y-83500000D01*
X74750000Y-83250000D01*
X74500000Y-83500000D01*
X74250000Y-83250000D01*
X74500000Y-83000000D01*
X74250000Y-82750000D01*
X74500000Y-82500000D01*
X74750000Y-82750000D01*
X75000000Y-82500000D01*
X75250000Y-82750000D01*
%TA.AperFunction,NonConductor*%
G36*
X75250000Y-82750000D02*
G01*
X75000000Y-83000000D01*
X75250000Y-83250000D01*
X75000000Y-83500000D01*
X74750000Y-83250000D01*
X74500000Y-83500000D01*
X74250000Y-83250000D01*
X74500000Y-83000000D01*
X74250000Y-82750000D01*
X74500000Y-82500000D01*
X74750000Y-82750000D01*
X75000000Y-82500000D01*
X75250000Y-82750000D01*
G37*
%TD.AperFunction*%
X79750000Y-82750000D02*
X79500000Y-83000000D01*
X79750000Y-83250000D01*
X79500000Y-83500000D01*
X79250000Y-83250000D01*
X79000000Y-83500000D01*
X78750000Y-83250000D01*
X79000000Y-83000000D01*
X78750000Y-82750000D01*
X79000000Y-82500000D01*
X79250000Y-82750000D01*
X79500000Y-82500000D01*
X79750000Y-82750000D01*
%TA.AperFunction,NonConductor*%
G36*
X79750000Y-82750000D02*
G01*
X79500000Y-83000000D01*
X79750000Y-83250000D01*
X79500000Y-83500000D01*
X79250000Y-83250000D01*
X79000000Y-83500000D01*
X78750000Y-83250000D01*
X79000000Y-83000000D01*
X78750000Y-82750000D01*
X79000000Y-82500000D01*
X79250000Y-82750000D01*
X79500000Y-82500000D01*
X79750000Y-82750000D01*
G37*
%TD.AperFunction*%
X75250000Y-81250000D02*
X75000000Y-81500000D01*
X75250000Y-81750000D01*
X75000000Y-82000000D01*
X74750000Y-81750000D01*
X74500000Y-82000000D01*
X74250000Y-81750000D01*
X74500000Y-81500000D01*
X74250000Y-81250000D01*
X74500000Y-81000000D01*
X74750000Y-81250000D01*
X75000000Y-81000000D01*
X75250000Y-81250000D01*
%TA.AperFunction,NonConductor*%
G36*
X75250000Y-81250000D02*
G01*
X75000000Y-81500000D01*
X75250000Y-81750000D01*
X75000000Y-82000000D01*
X74750000Y-81750000D01*
X74500000Y-82000000D01*
X74250000Y-81750000D01*
X74500000Y-81500000D01*
X74250000Y-81250000D01*
X74500000Y-81000000D01*
X74750000Y-81250000D01*
X75000000Y-81000000D01*
X75250000Y-81250000D01*
G37*
%TD.AperFunction*%
%TA.AperFunction,Conductor*%
%TO.N,GND*%
G36*
X75544945Y-82054550D02*
G01*
X75570004Y-82072756D01*
X75677244Y-82179996D01*
X75684362Y-82193967D01*
X75695450Y-82205055D01*
X75697902Y-82220542D01*
X75705021Y-82234513D01*
X75702568Y-82250000D01*
X75705021Y-82265487D01*
X75697902Y-82279457D01*
X75695450Y-82294945D01*
X75677245Y-82320003D01*
X75570004Y-82427244D01*
X75515487Y-82455021D01*
X75455055Y-82445450D01*
X75429996Y-82427244D01*
X75322756Y-82320004D01*
X75294979Y-82265487D01*
X75304550Y-82205055D01*
X75322756Y-82179996D01*
X75429996Y-82072756D01*
X75484513Y-82044979D01*
X75544945Y-82054550D01*
G37*
%TD.AperFunction*%
%TA.AperFunction,Conductor*%
G36*
X180542637Y-26700531D02*
G01*
X180582645Y-26701544D01*
X180587647Y-26701797D01*
X180623285Y-26704512D01*
X180628254Y-26705017D01*
X180663284Y-26709476D01*
X180668203Y-26710230D01*
X180702615Y-26716385D01*
X180707477Y-26717381D01*
X180741205Y-26725176D01*
X180745966Y-26726401D01*
X180779114Y-26735826D01*
X180783792Y-26737283D01*
X180816228Y-26748271D01*
X180820809Y-26749950D01*
X180852483Y-26762451D01*
X180856951Y-26764342D01*
X180887937Y-26778363D01*
X180892277Y-26780456D01*
X180904619Y-26786783D01*
X180922427Y-26795912D01*
X180926631Y-26798197D01*
X180946011Y-26809346D01*
X180955960Y-26815070D01*
X180955966Y-26815073D01*
X180960034Y-26817545D01*
X180977592Y-26828808D01*
X180988481Y-26835793D01*
X180992417Y-26838453D01*
X181019942Y-26858035D01*
X181023734Y-26860872D01*
X181050270Y-26881731D01*
X181053900Y-26884729D01*
X181079412Y-26906831D01*
X181082905Y-26910006D01*
X181107306Y-26933272D01*
X181110631Y-26936596D01*
X181133922Y-26961023D01*
X181137072Y-26964489D01*
X181147995Y-26977096D01*
X181159170Y-26989995D01*
X181162177Y-26993638D01*
X181183049Y-27020190D01*
X181185873Y-27023965D01*
X181192148Y-27032785D01*
X181205454Y-27051489D01*
X181208106Y-27055413D01*
X181214026Y-27064643D01*
X181226348Y-27083853D01*
X181228826Y-27087929D01*
X181244346Y-27114903D01*
X181245705Y-27117264D01*
X181247985Y-27121459D01*
X181263464Y-27151656D01*
X181265557Y-27155997D01*
X181279554Y-27186931D01*
X181281445Y-27191398D01*
X181293957Y-27223100D01*
X181295637Y-27227683D01*
X181306626Y-27260124D01*
X181308084Y-27264807D01*
X181317497Y-27297911D01*
X181318719Y-27302655D01*
X181326523Y-27336417D01*
X181326529Y-27336444D01*
X181327524Y-27341305D01*
X181333673Y-27375683D01*
X181334428Y-27380614D01*
X181338886Y-27415640D01*
X181339392Y-27420620D01*
X181342106Y-27456246D01*
X181342360Y-27461255D01*
X181343375Y-27501267D01*
X181343407Y-27503778D01*
X181343407Y-127996226D01*
X181343375Y-127998737D01*
X181342360Y-128038747D01*
X181342106Y-128043755D01*
X181339392Y-128079386D01*
X181338886Y-128084366D01*
X181334431Y-128119371D01*
X181333676Y-128124305D01*
X181327521Y-128158712D01*
X181326526Y-128163567D01*
X181318721Y-128197337D01*
X181317497Y-128202091D01*
X181315440Y-128209327D01*
X181308084Y-128235195D01*
X181306626Y-128239878D01*
X181295637Y-128272319D01*
X181293957Y-128276902D01*
X181281445Y-128308604D01*
X181279554Y-128313071D01*
X181265561Y-128343996D01*
X181263465Y-128348344D01*
X181247993Y-128378527D01*
X181245703Y-128382740D01*
X181228826Y-128412072D01*
X181226347Y-128416150D01*
X181208108Y-128444585D01*
X181205447Y-128448521D01*
X181185869Y-128476042D01*
X181183030Y-128479838D01*
X181162196Y-128506341D01*
X181159190Y-128509982D01*
X181137075Y-128535509D01*
X181133899Y-128539003D01*
X181110639Y-128563397D01*
X181107305Y-128566732D01*
X181082896Y-128590004D01*
X181079409Y-128593173D01*
X181053902Y-128615273D01*
X181050256Y-128618283D01*
X181023718Y-128639144D01*
X181019928Y-128641978D01*
X181019022Y-128642624D01*
X180992439Y-128661536D01*
X180988501Y-128664197D01*
X180960037Y-128682455D01*
X180955957Y-128684935D01*
X180926647Y-128701799D01*
X180922432Y-128704090D01*
X180892256Y-128719557D01*
X180887912Y-128721652D01*
X180856979Y-128735649D01*
X180852515Y-128737539D01*
X180820797Y-128750059D01*
X180816211Y-128751739D01*
X180783791Y-128762721D01*
X180779103Y-128764181D01*
X180745990Y-128773596D01*
X180741212Y-128774826D01*
X180707478Y-128782624D01*
X180702608Y-128783622D01*
X180668195Y-128789776D01*
X180663270Y-128790529D01*
X180628258Y-128794986D01*
X180623277Y-128795493D01*
X180587655Y-128798207D01*
X180582643Y-128798461D01*
X180544814Y-128799419D01*
X180542634Y-128799475D01*
X180540129Y-128799507D01*
X131167967Y-128799507D01*
X131109776Y-128780600D01*
X131097963Y-128770510D01*
X130513053Y-128185588D01*
X130513052Y-128185587D01*
X130504949Y-128177484D01*
X130503905Y-128175129D01*
X130476853Y-128149386D01*
X130476025Y-128148558D01*
X130475986Y-128148520D01*
X130472161Y-128144695D01*
X130464157Y-128135648D01*
X130461940Y-128132811D01*
X130437345Y-128111624D01*
X130433715Y-128108337D01*
X130425070Y-128100111D01*
X130418397Y-128093109D01*
X130418124Y-128092793D01*
X130417880Y-128092603D01*
X130410479Y-128086226D01*
X130410184Y-128085945D01*
X130409719Y-128085651D01*
X130401849Y-128080114D01*
X130392480Y-128072817D01*
X130388700Y-128069720D01*
X130379931Y-128062166D01*
X130372904Y-128055486D01*
X130372548Y-128055113D01*
X130372167Y-128054845D01*
X130364494Y-128048867D01*
X130364090Y-128048519D01*
X130363570Y-128048225D01*
X130355402Y-128043061D01*
X130345938Y-128036410D01*
X130342024Y-128033514D01*
X130333103Y-128026565D01*
X130325727Y-128020213D01*
X130325318Y-128019824D01*
X130325317Y-128019823D01*
X130324826Y-128019513D01*
X130316877Y-128013925D01*
X130316379Y-128013537D01*
X130316378Y-128013536D01*
X130316372Y-128013532D01*
X130315794Y-128013242D01*
X130307367Y-128008479D01*
X130297768Y-128002413D01*
X130293782Y-127999754D01*
X130284670Y-127993350D01*
X130277002Y-127987376D01*
X130276524Y-127986964D01*
X130275938Y-127986633D01*
X130267756Y-127981462D01*
X130267151Y-127981037D01*
X130266509Y-127980753D01*
X130257823Y-127976389D01*
X130248190Y-127970941D01*
X130244038Y-127968457D01*
X130234781Y-127962607D01*
X130226792Y-127956989D01*
X130226274Y-127956585D01*
X130226272Y-127956583D01*
X130226268Y-127956581D01*
X130226267Y-127956580D01*
X130225591Y-127956240D01*
X130217171Y-127951478D01*
X130216510Y-127951060D01*
X130215849Y-127950806D01*
X130206947Y-127946866D01*
X130197165Y-127941948D01*
X130192903Y-127939674D01*
X130183469Y-127934339D01*
X130183458Y-127934332D01*
X130175200Y-127929108D01*
X130174651Y-127928721D01*
X130173921Y-127928398D01*
X130165309Y-127924068D01*
X130164568Y-127923649D01*
X130163873Y-127923420D01*
X130154760Y-127919909D01*
X130144865Y-127915525D01*
X130140495Y-127913460D01*
X130130865Y-127908618D01*
X130122364Y-127903804D01*
X130121763Y-127903423D01*
X130120969Y-127903117D01*
X130112166Y-127899217D01*
X130111399Y-127898832D01*
X130111397Y-127898831D01*
X130110713Y-127898643D01*
X130101423Y-127895575D01*
X130098593Y-127894483D01*
X130091366Y-127891693D01*
X130086919Y-127889851D01*
X130077059Y-127885483D01*
X130068319Y-127881082D01*
X130067707Y-127880735D01*
X130066900Y-127880468D01*
X130066900Y-127880467D01*
X130062310Y-127878948D01*
X130057129Y-127876653D01*
X130055229Y-127876606D01*
X130047017Y-127873889D01*
X130036770Y-127870499D01*
X130032224Y-127868871D01*
X130022138Y-127864979D01*
X130013202Y-127861013D01*
X130012569Y-127860694D01*
X130012567Y-127860693D01*
X130007101Y-127859176D01*
X130001840Y-127857146D01*
X129999950Y-127857192D01*
X129991634Y-127854884D01*
X129991631Y-127854882D01*
X129991629Y-127854882D01*
X129981167Y-127851978D01*
X129976552Y-127850575D01*
X129966187Y-127847146D01*
X129957091Y-127843631D01*
X129956449Y-127843345D01*
X129955665Y-127843169D01*
X129955665Y-127843168D01*
X129950948Y-127842104D01*
X129945643Y-127840350D01*
X129943771Y-127840486D01*
X129935374Y-127838594D01*
X129935373Y-127838593D01*
X129935370Y-127838593D01*
X129924687Y-127836184D01*
X129920000Y-127835006D01*
X129909314Y-127832040D01*
X129900093Y-127828987D01*
X129899446Y-127828737D01*
X129898718Y-127828610D01*
X129898718Y-127828609D01*
X129893940Y-127827775D01*
X129888623Y-127826300D01*
X129886778Y-127826525D01*
X129878345Y-127825054D01*
X129878335Y-127825053D01*
X129867379Y-127823141D01*
X129862617Y-127822189D01*
X129851617Y-127819708D01*
X129842290Y-127817119D01*
X129841653Y-127816908D01*
X129840992Y-127816826D01*
X129840992Y-127816825D01*
X129836167Y-127816225D01*
X129830888Y-127815036D01*
X129829084Y-127815346D01*
X129820642Y-127814298D01*
X129820633Y-127814298D01*
X129817332Y-127813888D01*
X129809386Y-127812901D01*
X129804579Y-127812184D01*
X129793193Y-127810198D01*
X129783727Y-127808064D01*
X129783175Y-127807910D01*
X129782627Y-127807870D01*
X129782627Y-127807869D01*
X129777783Y-127807508D01*
X129772536Y-127806594D01*
X129770774Y-127806987D01*
X129762338Y-127806360D01*
X129762337Y-127806359D01*
X129750777Y-127805500D01*
X129745914Y-127805018D01*
X129734129Y-127803554D01*
X129724630Y-127801901D01*
X129724113Y-127801784D01*
X129723719Y-127801775D01*
X129723719Y-127801776D01*
X129718831Y-127801654D01*
X129713665Y-127801013D01*
X129711955Y-127801484D01*
X129703575Y-127801276D01*
X129703574Y-127801275D01*
X129691640Y-127800980D01*
X129686750Y-127800737D01*
X129654387Y-127798329D01*
X129650800Y-127798770D01*
X129638739Y-127799507D01*
X129633426Y-127799507D01*
X129630974Y-127799477D01*
X129630562Y-127799466D01*
X129594790Y-127798580D01*
X129594789Y-127798580D01*
X129592395Y-127798521D01*
X129580928Y-127799507D01*
X110495421Y-127799507D01*
X110493016Y-127798580D01*
X110455622Y-127799507D01*
X110449068Y-127799507D01*
X110437007Y-127798770D01*
X110433420Y-127798329D01*
X110401060Y-127800737D01*
X110396168Y-127800980D01*
X110384223Y-127801276D01*
X110374588Y-127801045D01*
X110374145Y-127801012D01*
X110373830Y-127801052D01*
X110364095Y-127801775D01*
X110363693Y-127801784D01*
X110363159Y-127801905D01*
X110353683Y-127803553D01*
X110341881Y-127805019D01*
X110337019Y-127805501D01*
X110325468Y-127806360D01*
X110315812Y-127806606D01*
X110315274Y-127806593D01*
X110314806Y-127806675D01*
X110305174Y-127807871D01*
X110304632Y-127807911D01*
X110304057Y-127808071D01*
X110294631Y-127810195D01*
X110283226Y-127812185D01*
X110278408Y-127812904D01*
X110267181Y-127814298D01*
X110257505Y-127815020D01*
X110256926Y-127815034D01*
X110256357Y-127815163D01*
X110246810Y-127816828D01*
X110246159Y-127816908D01*
X110245534Y-127817116D01*
X110236198Y-127819708D01*
X110225192Y-127822190D01*
X110220430Y-127823142D01*
X110209472Y-127825054D01*
X110199806Y-127826254D01*
X110199186Y-127826300D01*
X110198527Y-127826483D01*
X110189122Y-127828604D01*
X110188367Y-127828735D01*
X110187739Y-127828979D01*
X110178490Y-127832043D01*
X110167811Y-127835006D01*
X110163120Y-127836185D01*
X110152437Y-127838594D01*
X110142821Y-127840269D01*
X110142175Y-127840348D01*
X110141666Y-127840516D01*
X110141437Y-127840592D01*
X110132164Y-127843165D01*
X110131362Y-127843345D01*
X110130707Y-127843637D01*
X110121628Y-127847145D01*
X110111262Y-127850575D01*
X110106634Y-127851982D01*
X110096180Y-127854883D01*
X110086642Y-127857029D01*
X110085967Y-127857146D01*
X110085200Y-127857442D01*
X110076073Y-127860461D01*
X110075249Y-127860689D01*
X110074582Y-127861026D01*
X110065686Y-127864972D01*
X110055590Y-127868869D01*
X110051035Y-127870501D01*
X110040788Y-127873891D01*
X110031389Y-127876494D01*
X110030681Y-127876652D01*
X110029906Y-127876995D01*
X110029907Y-127876996D01*
X110025484Y-127878955D01*
X110020106Y-127880735D01*
X110018668Y-127881974D01*
X110010767Y-127885475D01*
X110010764Y-127885477D01*
X110000908Y-127889844D01*
X109996444Y-127891693D01*
X109986371Y-127895580D01*
X109977116Y-127898637D01*
X109976409Y-127898832D01*
X109975649Y-127899214D01*
X109975650Y-127899215D01*
X109971335Y-127901384D01*
X109966047Y-127903425D01*
X109964672Y-127904733D01*
X109956947Y-127908617D01*
X109947313Y-127913460D01*
X109942948Y-127915522D01*
X109933032Y-127919915D01*
X109923940Y-127923419D01*
X109923246Y-127923647D01*
X109922494Y-127924073D01*
X109922493Y-127924072D01*
X109918301Y-127926442D01*
X109913157Y-127928723D01*
X109911857Y-127930086D01*
X109904345Y-127934336D01*
X109904341Y-127934339D01*
X109894903Y-127939676D01*
X109890645Y-127941949D01*
X109880872Y-127946863D01*
X109871949Y-127950811D01*
X109871298Y-127951061D01*
X109870607Y-127951498D01*
X109870606Y-127951497D01*
X109866525Y-127954075D01*
X109861540Y-127956583D01*
X109860316Y-127957998D01*
X109853061Y-127962583D01*
X109853048Y-127962593D01*
X109843773Y-127968455D01*
X109839616Y-127970942D01*
X109829981Y-127976391D01*
X109821280Y-127980761D01*
X109820665Y-127981032D01*
X109820229Y-127981338D01*
X109816090Y-127984247D01*
X109811284Y-127986966D01*
X109810138Y-127988430D01*
X109803136Y-127993352D01*
X109803131Y-127993355D01*
X109803129Y-127993355D01*
X109794045Y-127999740D01*
X109790009Y-128002432D01*
X109780450Y-128008473D01*
X109772014Y-128013242D01*
X109771434Y-128013533D01*
X109770908Y-128013943D01*
X109770907Y-128013942D01*
X109767081Y-128016921D01*
X109762494Y-128019822D01*
X109761436Y-128021318D01*
X109754724Y-128026547D01*
X109754723Y-128026549D01*
X109745774Y-128033520D01*
X109741862Y-128036415D01*
X109732413Y-128043056D01*
X109724250Y-128048218D01*
X109723714Y-128048521D01*
X109723313Y-128048865D01*
X109723314Y-128048866D01*
X109719626Y-128052043D01*
X109719619Y-128052049D01*
X109715261Y-128055113D01*
X109714293Y-128056636D01*
X109707894Y-128062149D01*
X109699105Y-128069720D01*
X109695328Y-128072814D01*
X109685942Y-128080125D01*
X109678062Y-128085669D01*
X109677622Y-128085946D01*
X109677337Y-128086219D01*
X109673795Y-128089589D01*
X109669685Y-128092791D01*
X109668809Y-128094332D01*
X109662736Y-128100111D01*
X109662735Y-128100112D01*
X109654093Y-128108335D01*
X109650466Y-128111619D01*
X109625865Y-128132812D01*
X109623639Y-128135660D01*
X109615646Y-128144693D01*
X109611854Y-128148485D01*
X109610097Y-128150198D01*
X109582179Y-128176765D01*
X109574751Y-128185589D01*
X108989844Y-128770510D01*
X108935328Y-128798288D01*
X108919840Y-128799507D01*
X59547680Y-128799507D01*
X59545174Y-128799475D01*
X59542883Y-128799417D01*
X59505166Y-128798461D01*
X59500155Y-128798207D01*
X59464544Y-128795494D01*
X59459562Y-128794987D01*
X59424519Y-128790526D01*
X59419590Y-128789772D01*
X59385212Y-128783623D01*
X59380349Y-128782627D01*
X59346597Y-128774826D01*
X59341817Y-128773595D01*
X59308691Y-128764177D01*
X59304000Y-128762716D01*
X59271595Y-128751738D01*
X59267015Y-128750060D01*
X59235316Y-128737549D01*
X59230848Y-128735658D01*
X59199893Y-128721651D01*
X59195547Y-128719555D01*
X59165392Y-128704098D01*
X59161179Y-128701808D01*
X59131841Y-128684928D01*
X59127760Y-128682447D01*
X59099319Y-128664203D01*
X59095384Y-128661544D01*
X59067886Y-128641982D01*
X59067885Y-128641981D01*
X59064092Y-128639144D01*
X59037545Y-128618276D01*
X59033900Y-128615267D01*
X59008418Y-128593189D01*
X59004929Y-128590018D01*
X58980507Y-128566733D01*
X58977173Y-128563398D01*
X58953891Y-128538980D01*
X58950715Y-128535486D01*
X58928629Y-128509992D01*
X58925625Y-128506353D01*
X58916177Y-128494334D01*
X58904759Y-128479808D01*
X58901964Y-128476072D01*
X58882359Y-128448515D01*
X58879706Y-128444588D01*
X58861458Y-128416137D01*
X58858981Y-128412064D01*
X58856274Y-128407359D01*
X58842093Y-128382714D01*
X58839818Y-128378527D01*
X58824346Y-128348341D01*
X58822260Y-128344014D01*
X58822252Y-128343996D01*
X58808249Y-128313051D01*
X58806371Y-128308613D01*
X58806367Y-128308604D01*
X58793848Y-128276884D01*
X58792168Y-128272300D01*
X58791720Y-128270977D01*
X58781186Y-128239878D01*
X58779732Y-128235207D01*
X58774986Y-128218517D01*
X58770311Y-128202077D01*
X58769083Y-128197306D01*
X58764503Y-128177487D01*
X58761282Y-128163554D01*
X58760295Y-128158734D01*
X58754131Y-128124275D01*
X58753385Y-128119400D01*
X58748923Y-128084345D01*
X58748420Y-128079386D01*
X58747919Y-128072814D01*
X58745705Y-128043747D01*
X58745452Y-128038743D01*
X58744823Y-128013918D01*
X58744500Y-128001139D01*
X58744439Y-127998735D01*
X58744407Y-127996229D01*
X58744407Y-126462697D01*
X59592399Y-126462697D01*
X59593279Y-126497483D01*
X59593279Y-126502488D01*
X59592399Y-126537285D01*
X59595037Y-126571979D01*
X59595290Y-126576984D01*
X59596152Y-126611088D01*
X59596145Y-126611390D01*
X59596209Y-126611753D01*
X59600506Y-126645573D01*
X59601011Y-126650543D01*
X59603524Y-126683583D01*
X59603552Y-126684573D01*
X59603795Y-126685638D01*
X59609609Y-126718200D01*
X59610360Y-126723117D01*
X59610360Y-126723118D01*
X59614422Y-126755076D01*
X59614549Y-126756693D01*
X59615029Y-126758396D01*
X59622249Y-126789684D01*
X59623242Y-126794536D01*
X59628762Y-126825440D01*
X59629048Y-126827652D01*
X59629801Y-126829887D01*
X59638347Y-126859979D01*
X59639571Y-126864739D01*
X59646460Y-126894585D01*
X59646468Y-126894619D01*
X59646955Y-126897316D01*
X59648033Y-126900058D01*
X59657796Y-126928914D01*
X59659248Y-126933582D01*
X59667435Y-126962409D01*
X59668177Y-126965607D01*
X59669599Y-126968754D01*
X59680524Y-126996462D01*
X59682202Y-127001045D01*
X59691604Y-127028831D01*
X59692620Y-127032397D01*
X59694394Y-127035860D01*
X59706422Y-127062466D01*
X59708312Y-127066935D01*
X59718862Y-127093693D01*
X59720189Y-127097614D01*
X59722323Y-127101317D01*
X59735391Y-127126832D01*
X59737484Y-127131177D01*
X59749094Y-127156857D01*
X59749140Y-127156957D01*
X59750788Y-127161144D01*
X59753312Y-127165067D01*
X59767334Y-127189455D01*
X59769624Y-127193670D01*
X59782380Y-127218575D01*
X59784303Y-127222835D01*
X59784477Y-127223137D01*
X59787281Y-127227049D01*
X59802179Y-127250287D01*
X59804647Y-127254349D01*
X59817593Y-127276865D01*
X59821786Y-127284158D01*
X59823935Y-127286876D01*
X59839831Y-127309231D01*
X59842469Y-127313136D01*
X59856917Y-127335672D01*
X59857298Y-127336266D01*
X59859778Y-127340583D01*
X59860035Y-127340944D01*
X59863349Y-127344747D01*
X59880161Y-127366140D01*
X59882997Y-127369933D01*
X59901665Y-127396185D01*
X59901684Y-127396240D01*
X59901798Y-127396372D01*
X59901952Y-127396588D01*
X59901958Y-127396591D01*
X59902992Y-127398044D01*
X59905538Y-127400688D01*
X59923118Y-127420985D01*
X59926115Y-127424618D01*
X59942907Y-127445986D01*
X59942926Y-127446010D01*
X59945971Y-127449887D01*
X59945999Y-127449958D01*
X59946152Y-127450118D01*
X59947319Y-127451604D01*
X59949942Y-127454095D01*
X59962293Y-127467049D01*
X59968581Y-127473644D01*
X59971758Y-127477140D01*
X59989406Y-127497514D01*
X59992419Y-127501366D01*
X59993342Y-127502334D01*
X59997060Y-127505534D01*
X60016502Y-127524070D01*
X60019841Y-127527409D01*
X60020514Y-127528115D01*
X60038430Y-127546907D01*
X60038483Y-127546962D01*
X60038526Y-127547007D01*
X60041975Y-127550629D01*
X60042015Y-127550707D01*
X60042209Y-127550874D01*
X60043596Y-127552331D01*
X60046533Y-127554620D01*
X60066742Y-127572127D01*
X60070234Y-127575301D01*
X60089846Y-127593999D01*
X60089864Y-127594016D01*
X60093504Y-127597488D01*
X60093547Y-127597564D01*
X60093750Y-127597723D01*
X60095148Y-127599057D01*
X60098104Y-127601145D01*
X60119275Y-127617782D01*
X60122922Y-127620791D01*
X60147271Y-127641884D01*
X60147315Y-127641954D01*
X60147519Y-127642099D01*
X60147661Y-127642222D01*
X60147662Y-127642222D01*
X60148912Y-127643305D01*
X60151862Y-127645188D01*
X60173972Y-127660911D01*
X60177768Y-127663750D01*
X60199098Y-127680512D01*
X60199278Y-127680653D01*
X60203196Y-127683732D01*
X60203234Y-127683787D01*
X60203404Y-127683896D01*
X60203483Y-127683958D01*
X60203486Y-127683958D01*
X60205060Y-127685195D01*
X60208200Y-127686970D01*
X60230751Y-127701428D01*
X60234693Y-127704091D01*
X60257103Y-127720028D01*
X60259793Y-127722150D01*
X60261219Y-127722970D01*
X60261220Y-127722971D01*
X60289530Y-127739248D01*
X60293604Y-127741723D01*
X60316897Y-127756657D01*
X60320812Y-127759461D01*
X60321531Y-127759874D01*
X60325813Y-127761779D01*
X60350238Y-127774288D01*
X60354426Y-127776563D01*
X60382715Y-127792830D01*
X60384232Y-127793702D01*
X60386930Y-127794764D01*
X60412715Y-127806421D01*
X60417056Y-127808512D01*
X60446077Y-127823376D01*
X60446078Y-127823376D01*
X60447681Y-127824197D01*
X60450234Y-127825060D01*
X60476999Y-127835613D01*
X60481440Y-127837492D01*
X60495020Y-127843631D01*
X60511096Y-127850899D01*
X60512767Y-127851654D01*
X60515109Y-127852320D01*
X60542838Y-127861703D01*
X60542847Y-127861706D01*
X60547418Y-127863379D01*
X60577671Y-127875308D01*
X60577672Y-127875307D01*
X60579433Y-127876002D01*
X60581504Y-127876481D01*
X60610313Y-127884662D01*
X60614931Y-127886097D01*
X60645709Y-127896513D01*
X60645711Y-127896512D01*
X60647553Y-127897136D01*
X60649334Y-127897457D01*
X60650473Y-127897719D01*
X60679183Y-127904346D01*
X60683892Y-127905557D01*
X60715105Y-127914421D01*
X60715108Y-127914420D01*
X60717038Y-127914968D01*
X60718457Y-127915151D01*
X60749376Y-127920673D01*
X60754200Y-127921660D01*
X60785759Y-127928944D01*
X60785759Y-127928943D01*
X60787776Y-127929409D01*
X60788820Y-127929491D01*
X60820805Y-127933555D01*
X60825683Y-127934300D01*
X60857557Y-127939993D01*
X60857558Y-127939992D01*
X60858265Y-127940119D01*
X60858264Y-127940119D01*
X60859673Y-127940371D01*
X60860346Y-127940390D01*
X60861126Y-127940449D01*
X60861130Y-127940451D01*
X60893379Y-127942903D01*
X60898317Y-127943404D01*
X60930392Y-127947481D01*
X60930392Y-127947480D01*
X60932125Y-127947701D01*
X60932134Y-127947702D01*
X60932636Y-127947765D01*
X60932812Y-127947762D01*
X60934644Y-127947808D01*
X60934646Y-127947809D01*
X60966935Y-127948624D01*
X60971915Y-127948876D01*
X61004144Y-127951328D01*
X61004146Y-127951327D01*
X61006603Y-127951514D01*
X61009103Y-127951450D01*
X61009104Y-127951451D01*
X61041415Y-127950634D01*
X61046399Y-127950634D01*
X61078710Y-127951451D01*
X61078713Y-127951449D01*
X61081221Y-127951513D01*
X61083666Y-127951326D01*
X61083670Y-127951328D01*
X61115897Y-127948876D01*
X61120885Y-127948624D01*
X61134300Y-127948285D01*
X61155005Y-127947763D01*
X61155300Y-127947769D01*
X61155691Y-127947701D01*
X61157422Y-127947481D01*
X61189507Y-127943403D01*
X61194440Y-127942902D01*
X61226684Y-127940451D01*
X61226684Y-127940450D01*
X61227481Y-127940390D01*
X61228493Y-127940361D01*
X61229564Y-127940117D01*
X61261923Y-127934337D01*
X61262103Y-127934304D01*
X61267001Y-127933555D01*
X61298996Y-127929490D01*
X61300612Y-127929364D01*
X61302315Y-127928884D01*
X61303190Y-127928682D01*
X61333620Y-127921658D01*
X61338406Y-127920678D01*
X61369356Y-127915151D01*
X61371563Y-127914866D01*
X61373824Y-127914105D01*
X61382842Y-127911544D01*
X61403911Y-127905561D01*
X61408663Y-127904338D01*
X61438498Y-127897452D01*
X61441232Y-127896960D01*
X61443991Y-127895874D01*
X61472831Y-127886115D01*
X61472846Y-127886110D01*
X61477535Y-127884652D01*
X61506303Y-127876483D01*
X61509515Y-127875738D01*
X61512687Y-127874304D01*
X61540402Y-127863376D01*
X61544934Y-127861717D01*
X61572712Y-127852317D01*
X61576309Y-127851295D01*
X61579782Y-127849513D01*
X61606392Y-127837482D01*
X61610813Y-127835613D01*
X61637561Y-127825067D01*
X61641518Y-127823730D01*
X61645269Y-127821566D01*
X61670778Y-127808500D01*
X61675062Y-127806437D01*
X61700844Y-127794781D01*
X61705049Y-127793128D01*
X61708976Y-127790601D01*
X61733382Y-127776567D01*
X61737602Y-127774275D01*
X61740470Y-127772805D01*
X61761999Y-127761779D01*
X61766277Y-127759876D01*
X61767208Y-127759341D01*
X61771113Y-127756530D01*
X61794226Y-127741711D01*
X61798283Y-127739248D01*
X61826594Y-127722970D01*
X61826594Y-127722968D01*
X61828186Y-127722054D01*
X61830968Y-127719843D01*
X61853139Y-127704076D01*
X61857039Y-127701442D01*
X61880090Y-127686664D01*
X61883194Y-127684886D01*
X61888216Y-127680904D01*
X61888355Y-127680795D01*
X61888408Y-127680775D01*
X61888661Y-127680554D01*
X61910086Y-127663716D01*
X61913837Y-127660913D01*
X61935743Y-127645335D01*
X61935751Y-127645329D01*
X61939910Y-127642690D01*
X61941034Y-127641807D01*
X61944628Y-127638343D01*
X61964903Y-127620780D01*
X61968503Y-127617808D01*
X61989901Y-127600994D01*
X61993813Y-127597927D01*
X61993868Y-127597907D01*
X61993994Y-127597785D01*
X61995530Y-127596582D01*
X61998077Y-127593893D01*
X62017598Y-127575281D01*
X62021060Y-127572136D01*
X62021070Y-127572127D01*
X62041255Y-127554641D01*
X62045447Y-127551378D01*
X62045981Y-127550868D01*
X62049451Y-127546836D01*
X62049488Y-127546798D01*
X62067992Y-127527388D01*
X62071311Y-127524070D01*
X62090719Y-127505565D01*
X62094619Y-127502213D01*
X62095368Y-127501427D01*
X62098526Y-127497375D01*
X62116073Y-127477118D01*
X62119185Y-127473693D01*
X62137962Y-127453997D01*
X62141413Y-127450389D01*
X62141472Y-127450357D01*
X62141594Y-127450199D01*
X62142943Y-127448790D01*
X62145070Y-127445776D01*
X62161723Y-127424585D01*
X62164678Y-127421004D01*
X62182297Y-127400662D01*
X62186030Y-127396783D01*
X62186394Y-127396321D01*
X62189240Y-127391833D01*
X62204838Y-127369899D01*
X62207624Y-127366174D01*
X62224549Y-127344636D01*
X62227675Y-127340680D01*
X62227694Y-127340668D01*
X62227730Y-127340610D01*
X62229045Y-127338947D01*
X62230889Y-127335681D01*
X62245350Y-127313125D01*
X62247993Y-127309212D01*
X62263683Y-127287149D01*
X62265931Y-127284327D01*
X62270224Y-127276860D01*
X62283170Y-127254341D01*
X62285613Y-127250319D01*
X62300406Y-127227246D01*
X62303219Y-127223342D01*
X62303822Y-127222294D01*
X62305725Y-127218006D01*
X62318196Y-127193657D01*
X62320465Y-127189478D01*
X62336734Y-127161184D01*
X62336734Y-127161182D01*
X62337640Y-127159607D01*
X62338713Y-127156870D01*
X62350342Y-127131146D01*
X62352412Y-127126849D01*
X62367279Y-127097824D01*
X62367279Y-127097819D01*
X62368103Y-127096211D01*
X62368966Y-127093653D01*
X62379513Y-127066904D01*
X62381390Y-127062468D01*
X62389726Y-127044030D01*
X62394802Y-127032803D01*
X62394802Y-127032800D01*
X62395561Y-127031122D01*
X62396222Y-127028798D01*
X62405619Y-127001023D01*
X62407277Y-126996490D01*
X62419210Y-126966228D01*
X62419209Y-126966223D01*
X62419903Y-126964464D01*
X62420389Y-126962372D01*
X62428566Y-126933577D01*
X62430006Y-126928945D01*
X62440414Y-126898187D01*
X62440413Y-126898184D01*
X62441033Y-126896353D01*
X62441348Y-126894609D01*
X62448244Y-126864723D01*
X62449463Y-126859988D01*
X62458322Y-126828795D01*
X62458322Y-126828792D01*
X62458869Y-126826865D01*
X62459056Y-126825421D01*
X62464570Y-126794541D01*
X62465556Y-126789713D01*
X62472844Y-126758138D01*
X62472843Y-126758135D01*
X62473310Y-126756113D01*
X62473392Y-126755072D01*
X62477453Y-126723109D01*
X62478204Y-126718195D01*
X62484016Y-126685652D01*
X62484272Y-126684215D01*
X62484291Y-126683559D01*
X62486801Y-126650544D01*
X62487303Y-126645592D01*
X62491381Y-126613507D01*
X62491380Y-126613506D01*
X62491601Y-126611776D01*
X62491666Y-126611258D01*
X62491663Y-126611090D01*
X62492524Y-126576981D01*
X62492776Y-126571982D01*
X62495228Y-126539755D01*
X62495226Y-126539751D01*
X62495413Y-126537306D01*
X62495349Y-126534798D01*
X62495351Y-126534795D01*
X62494534Y-126502478D01*
X62494534Y-126497484D01*
X62494534Y-126497483D01*
X62495351Y-126465189D01*
X62495349Y-126465185D01*
X62495413Y-126462680D01*
X177592398Y-126462680D01*
X177593279Y-126497483D01*
X177593279Y-126502488D01*
X177592398Y-126537297D01*
X177595035Y-126571967D01*
X177595288Y-126576971D01*
X177596151Y-126611106D01*
X177596144Y-126611391D01*
X177596212Y-126611775D01*
X177600505Y-126645560D01*
X177601010Y-126650529D01*
X177603525Y-126683586D01*
X177603553Y-126684574D01*
X177603797Y-126685644D01*
X177609609Y-126718194D01*
X177610360Y-126723117D01*
X177614419Y-126755061D01*
X177614547Y-126756692D01*
X177615025Y-126758386D01*
X177622247Y-126789677D01*
X177623241Y-126794535D01*
X177628758Y-126825428D01*
X177628762Y-126825447D01*
X177629046Y-126827649D01*
X177629806Y-126829904D01*
X177638348Y-126859988D01*
X177639577Y-126864763D01*
X177646466Y-126894609D01*
X177646956Y-126897323D01*
X177648031Y-126900058D01*
X177657798Y-126928924D01*
X177659255Y-126933609D01*
X177667434Y-126962410D01*
X177668176Y-126965608D01*
X177669603Y-126968765D01*
X177680524Y-126996465D01*
X177682201Y-127001045D01*
X177691603Y-127028831D01*
X177692619Y-127032397D01*
X177694393Y-127035860D01*
X177706421Y-127062466D01*
X177708311Y-127066935D01*
X177718861Y-127093693D01*
X177720188Y-127097614D01*
X177722322Y-127101317D01*
X177735390Y-127126832D01*
X177737483Y-127131177D01*
X177749093Y-127156857D01*
X177749139Y-127156957D01*
X177750787Y-127161144D01*
X177753311Y-127165067D01*
X177767333Y-127189455D01*
X177769623Y-127193670D01*
X177782379Y-127218575D01*
X177784302Y-127222835D01*
X177784476Y-127223137D01*
X177787280Y-127227049D01*
X177802178Y-127250287D01*
X177804646Y-127254349D01*
X177817592Y-127276865D01*
X177821785Y-127284158D01*
X177823934Y-127286876D01*
X177839830Y-127309231D01*
X177842468Y-127313136D01*
X177856916Y-127335672D01*
X177857297Y-127336266D01*
X177859777Y-127340583D01*
X177860034Y-127340944D01*
X177863348Y-127344747D01*
X177880160Y-127366140D01*
X177882996Y-127369933D01*
X177901664Y-127396185D01*
X177901683Y-127396240D01*
X177901797Y-127396372D01*
X177901951Y-127396588D01*
X177901957Y-127396591D01*
X177902991Y-127398044D01*
X177905537Y-127400688D01*
X177923117Y-127420985D01*
X177926114Y-127424618D01*
X177942906Y-127445986D01*
X177942925Y-127446010D01*
X177945970Y-127449887D01*
X177945998Y-127449958D01*
X177946151Y-127450118D01*
X177947318Y-127451604D01*
X177949941Y-127454095D01*
X177962292Y-127467049D01*
X177968582Y-127473646D01*
X177971758Y-127477140D01*
X177989367Y-127497468D01*
X177992522Y-127501507D01*
X177993141Y-127502155D01*
X177997016Y-127505494D01*
X178016513Y-127524083D01*
X178019849Y-127527419D01*
X178041969Y-127550620D01*
X178042013Y-127550707D01*
X178042238Y-127550902D01*
X178042427Y-127551100D01*
X178042429Y-127551101D01*
X178043665Y-127552396D01*
X178046585Y-127554667D01*
X178066765Y-127572148D01*
X178070222Y-127575290D01*
X178089863Y-127594016D01*
X178093500Y-127597485D01*
X178093545Y-127597564D01*
X178093757Y-127597730D01*
X178095109Y-127599020D01*
X178098014Y-127601077D01*
X178119274Y-127617783D01*
X178122914Y-127620786D01*
X178147269Y-127641884D01*
X178147313Y-127641954D01*
X178147517Y-127642099D01*
X178147659Y-127642222D01*
X178147660Y-127642222D01*
X178148909Y-127643304D01*
X178151856Y-127645185D01*
X178173988Y-127660924D01*
X178177740Y-127663730D01*
X178203192Y-127683731D01*
X178203230Y-127683785D01*
X178203397Y-127683892D01*
X178203481Y-127683958D01*
X178203484Y-127683958D01*
X178204886Y-127685060D01*
X178207891Y-127686773D01*
X178230780Y-127701447D01*
X178234678Y-127704081D01*
X178256836Y-127719839D01*
X178257173Y-127720079D01*
X178259839Y-127722178D01*
X178261216Y-127722969D01*
X178261217Y-127722971D01*
X178289558Y-127739267D01*
X178293595Y-127741720D01*
X178317149Y-127756821D01*
X178321058Y-127759603D01*
X178321140Y-127759650D01*
X178325407Y-127761572D01*
X178350209Y-127774275D01*
X178350219Y-127774280D01*
X178354423Y-127776563D01*
X178378903Y-127790640D01*
X178384229Y-127793702D01*
X178386941Y-127794769D01*
X178395239Y-127798521D01*
X178412712Y-127806421D01*
X178417057Y-127808514D01*
X178428350Y-127814298D01*
X178446074Y-127823376D01*
X178446075Y-127823376D01*
X178447681Y-127824198D01*
X178450244Y-127825065D01*
X178467938Y-127832041D01*
X178476962Y-127835599D01*
X178481410Y-127837479D01*
X178511091Y-127850899D01*
X178511092Y-127850899D01*
X178512765Y-127851655D01*
X178515117Y-127852324D01*
X178542860Y-127861711D01*
X178547426Y-127863382D01*
X178577670Y-127875308D01*
X178577672Y-127875307D01*
X178579438Y-127876004D01*
X178581509Y-127876484D01*
X178586777Y-127877979D01*
X178610312Y-127884663D01*
X178614950Y-127886105D01*
X178645706Y-127896513D01*
X178645708Y-127896512D01*
X178647550Y-127897136D01*
X178649325Y-127897455D01*
X178679170Y-127904344D01*
X178683903Y-127905561D01*
X178715102Y-127914421D01*
X178715103Y-127914420D01*
X178717030Y-127914968D01*
X178718456Y-127915152D01*
X178749346Y-127920668D01*
X178754196Y-127921660D01*
X178764647Y-127924072D01*
X178785754Y-127928944D01*
X178785755Y-127928943D01*
X178787782Y-127929411D01*
X178788840Y-127929494D01*
X178808277Y-127931963D01*
X178820776Y-127933552D01*
X178825685Y-127934301D01*
X178857553Y-127939993D01*
X178857554Y-127939992D01*
X178858261Y-127940119D01*
X178858260Y-127940119D01*
X178859669Y-127940371D01*
X178860342Y-127940390D01*
X178861122Y-127940449D01*
X178861126Y-127940451D01*
X178893375Y-127942903D01*
X178898309Y-127943404D01*
X178930388Y-127947481D01*
X178930388Y-127947480D01*
X178932122Y-127947701D01*
X178932123Y-127947701D01*
X178932634Y-127947765D01*
X178932809Y-127947762D01*
X178934641Y-127947808D01*
X178934643Y-127947809D01*
X178966932Y-127948624D01*
X178971910Y-127948876D01*
X179004141Y-127951328D01*
X179004143Y-127951327D01*
X179006589Y-127951513D01*
X179009096Y-127951449D01*
X179009100Y-127951451D01*
X179041411Y-127950634D01*
X179046395Y-127950634D01*
X179078706Y-127951451D01*
X179078706Y-127951450D01*
X179081206Y-127951514D01*
X179083663Y-127951327D01*
X179083666Y-127951328D01*
X179115891Y-127948876D01*
X179120877Y-127948624D01*
X179153164Y-127947809D01*
X179153164Y-127947808D01*
X179155010Y-127947762D01*
X179155302Y-127947768D01*
X179155692Y-127947700D01*
X179157417Y-127947480D01*
X179157419Y-127947481D01*
X179189504Y-127943403D01*
X179194433Y-127942903D01*
X179226681Y-127940451D01*
X179226681Y-127940450D01*
X179227478Y-127940390D01*
X179228490Y-127940361D01*
X179229561Y-127940117D01*
X179261920Y-127934337D01*
X179262100Y-127934304D01*
X179266998Y-127933555D01*
X179298993Y-127929490D01*
X179300609Y-127929364D01*
X179302312Y-127928884D01*
X179303187Y-127928682D01*
X179333617Y-127921658D01*
X179338403Y-127920678D01*
X179369353Y-127915151D01*
X179371560Y-127914866D01*
X179373821Y-127914105D01*
X179382839Y-127911544D01*
X179403908Y-127905561D01*
X179408669Y-127904335D01*
X179438493Y-127897453D01*
X179441224Y-127896961D01*
X179443971Y-127895880D01*
X179472877Y-127886098D01*
X179477498Y-127884661D01*
X179506299Y-127876483D01*
X179509513Y-127875738D01*
X179512676Y-127874307D01*
X179540400Y-127863375D01*
X179544933Y-127861717D01*
X179572691Y-127852325D01*
X179576303Y-127851297D01*
X179579789Y-127849509D01*
X179606383Y-127837485D01*
X179610818Y-127835610D01*
X179637580Y-127825058D01*
X179641522Y-127823726D01*
X179645281Y-127821558D01*
X179670761Y-127808507D01*
X179675045Y-127806443D01*
X179700831Y-127794785D01*
X179705041Y-127793131D01*
X179708953Y-127790612D01*
X179733403Y-127776553D01*
X179737571Y-127774289D01*
X179762009Y-127761773D01*
X179766281Y-127759873D01*
X179767167Y-127759364D01*
X179771086Y-127756547D01*
X179794196Y-127741730D01*
X179798281Y-127739248D01*
X179826592Y-127722970D01*
X179826592Y-127722968D01*
X179828184Y-127722054D01*
X179830966Y-127719843D01*
X179853137Y-127704076D01*
X179857037Y-127701442D01*
X179880088Y-127686664D01*
X179883192Y-127684886D01*
X179888214Y-127680904D01*
X179888353Y-127680795D01*
X179888406Y-127680775D01*
X179888659Y-127680554D01*
X179910084Y-127663717D01*
X179913834Y-127660914D01*
X179916420Y-127659074D01*
X179935749Y-127645329D01*
X179938894Y-127643334D01*
X179940401Y-127642021D01*
X179940497Y-127641954D01*
X179940517Y-127641919D01*
X179944207Y-127638706D01*
X179944336Y-127638595D01*
X179944367Y-127638582D01*
X179944511Y-127638443D01*
X179964904Y-127620777D01*
X179968534Y-127617784D01*
X179969597Y-127616948D01*
X179989615Y-127601216D01*
X179992646Y-127599081D01*
X179994089Y-127597701D01*
X179994265Y-127597564D01*
X179994301Y-127597498D01*
X179997945Y-127594016D01*
X179998023Y-127593941D01*
X179998038Y-127593934D01*
X179998104Y-127593863D01*
X180017590Y-127575285D01*
X180021047Y-127572145D01*
X180021058Y-127572136D01*
X180041246Y-127554649D01*
X180041380Y-127554533D01*
X180045402Y-127551389D01*
X180046150Y-127550676D01*
X180049476Y-127546806D01*
X180067989Y-127527388D01*
X180071308Y-127524070D01*
X180090716Y-127505565D01*
X180094616Y-127502213D01*
X180095365Y-127501427D01*
X180098523Y-127497375D01*
X180116070Y-127477118D01*
X180119182Y-127473693D01*
X180137959Y-127453997D01*
X180141410Y-127450389D01*
X180141469Y-127450357D01*
X180141591Y-127450199D01*
X180142940Y-127448790D01*
X180145067Y-127445776D01*
X180161720Y-127424585D01*
X180164675Y-127421004D01*
X180182294Y-127400662D01*
X180186027Y-127396783D01*
X180186391Y-127396321D01*
X180189237Y-127391833D01*
X180204835Y-127369899D01*
X180207621Y-127366174D01*
X180224546Y-127344636D01*
X180227672Y-127340680D01*
X180227691Y-127340668D01*
X180227727Y-127340610D01*
X180229042Y-127338947D01*
X180230886Y-127335681D01*
X180245347Y-127313125D01*
X180247990Y-127309212D01*
X180263680Y-127287149D01*
X180265928Y-127284327D01*
X180270221Y-127276860D01*
X180283167Y-127254341D01*
X180285610Y-127250319D01*
X180300403Y-127227246D01*
X180303216Y-127223342D01*
X180303819Y-127222294D01*
X180305722Y-127218006D01*
X180318193Y-127193657D01*
X180320462Y-127189478D01*
X180336731Y-127161184D01*
X180336731Y-127161182D01*
X180337637Y-127159607D01*
X180338710Y-127156870D01*
X180350339Y-127131146D01*
X180352409Y-127126849D01*
X180367276Y-127097824D01*
X180367276Y-127097819D01*
X180368100Y-127096211D01*
X180368963Y-127093653D01*
X180379510Y-127066904D01*
X180381387Y-127062468D01*
X180389723Y-127044030D01*
X180394799Y-127032803D01*
X180394799Y-127032800D01*
X180395558Y-127031122D01*
X180396219Y-127028798D01*
X180405616Y-127001023D01*
X180407279Y-126996477D01*
X180419207Y-126966228D01*
X180419206Y-126966224D01*
X180419899Y-126964469D01*
X180420379Y-126962399D01*
X180428566Y-126933562D01*
X180429994Y-126928972D01*
X180440411Y-126898187D01*
X180440410Y-126898182D01*
X180441030Y-126896351D01*
X180441348Y-126894593D01*
X180448235Y-126864750D01*
X180449459Y-126859988D01*
X180458319Y-126828792D01*
X180458318Y-126828789D01*
X180458864Y-126826869D01*
X180459049Y-126825440D01*
X180464570Y-126794520D01*
X180465557Y-126789700D01*
X180471853Y-126762422D01*
X180472841Y-126758141D01*
X180472840Y-126758139D01*
X180473307Y-126756118D01*
X180473392Y-126755037D01*
X180477448Y-126723112D01*
X180478198Y-126718202D01*
X180478199Y-126718195D01*
X180483889Y-126686338D01*
X180483888Y-126686337D01*
X180484009Y-126685664D01*
X180484009Y-126685662D01*
X180484268Y-126684208D01*
X180484286Y-126683587D01*
X180484348Y-126682767D01*
X180484349Y-126682766D01*
X180486799Y-126650528D01*
X180487304Y-126645563D01*
X180487304Y-126645560D01*
X180491378Y-126613510D01*
X180491377Y-126613508D01*
X180491600Y-126611759D01*
X180491661Y-126611269D01*
X180491658Y-126611102D01*
X180492520Y-126576980D01*
X180492521Y-126576971D01*
X180492520Y-126576963D01*
X180492773Y-126571979D01*
X180495224Y-126539752D01*
X180495223Y-126539751D01*
X180495410Y-126537302D01*
X180494530Y-126502488D01*
X180494530Y-126497483D01*
X180495347Y-126465189D01*
X180495345Y-126465185D01*
X180495409Y-126462682D01*
X180495222Y-126460235D01*
X180495224Y-126460232D01*
X180492772Y-126427993D01*
X180492520Y-126423018D01*
X180491705Y-126390731D01*
X180491704Y-126390730D01*
X180491658Y-126388884D01*
X180491664Y-126388593D01*
X180491600Y-126388226D01*
X180491377Y-126386475D01*
X180491378Y-126386474D01*
X180487304Y-126354417D01*
X180486799Y-126349444D01*
X180486799Y-126349439D01*
X180484349Y-126317218D01*
X180484348Y-126317217D01*
X180484287Y-126316408D01*
X180484259Y-126315420D01*
X180484011Y-126314333D01*
X180483888Y-126313647D01*
X180483889Y-126313646D01*
X180478191Y-126281746D01*
X180477454Y-126276920D01*
X180473390Y-126244928D01*
X180473261Y-126243291D01*
X180472786Y-126241604D01*
X180465552Y-126210264D01*
X180464568Y-126205451D01*
X180459048Y-126174541D01*
X180458765Y-126172340D01*
X180458001Y-126170073D01*
X180449465Y-126140015D01*
X180448235Y-126135233D01*
X180441350Y-126105401D01*
X180440858Y-126102673D01*
X180439775Y-126099918D01*
X180430014Y-126071070D01*
X180430012Y-126071065D01*
X180430008Y-126071051D01*
X180428556Y-126066383D01*
X180420381Y-126037593D01*
X180419638Y-126034387D01*
X180418208Y-126031222D01*
X180407282Y-126003511D01*
X180405617Y-125998963D01*
X180396217Y-125971180D01*
X180395199Y-125967601D01*
X180393418Y-125964128D01*
X180381377Y-125937493D01*
X180379502Y-125933057D01*
X180368971Y-125906347D01*
X180367636Y-125902397D01*
X180365488Y-125898670D01*
X180352414Y-125873142D01*
X180350332Y-125868820D01*
X180338705Y-125843101D01*
X180337050Y-125838884D01*
X180334504Y-125834928D01*
X180320455Y-125810493D01*
X180318200Y-125806341D01*
X180305681Y-125781897D01*
X180303777Y-125777618D01*
X180303358Y-125776890D01*
X180300562Y-125772984D01*
X180285627Y-125749689D01*
X180283150Y-125745611D01*
X180266057Y-125715881D01*
X180263931Y-125713187D01*
X180247990Y-125690769D01*
X180245345Y-125686853D01*
X180230873Y-125664280D01*
X180229099Y-125661142D01*
X180227862Y-125659568D01*
X180227862Y-125659565D01*
X180227800Y-125659486D01*
X180227691Y-125659316D01*
X180227636Y-125659278D01*
X180207641Y-125633834D01*
X180204806Y-125630042D01*
X180189227Y-125608135D01*
X180187279Y-125605065D01*
X180185980Y-125603568D01*
X180185859Y-125603397D01*
X180185799Y-125603360D01*
X180182458Y-125599508D01*
X180182454Y-125599499D01*
X180182410Y-125599453D01*
X180164701Y-125579008D01*
X180161703Y-125575376D01*
X180145046Y-125554179D01*
X180142961Y-125551228D01*
X180141631Y-125549834D01*
X180141469Y-125549627D01*
X180141392Y-125549583D01*
X180137918Y-125545941D01*
X180137916Y-125545937D01*
X180137900Y-125545922D01*
X180119224Y-125526333D01*
X180116046Y-125522837D01*
X180108533Y-125514164D01*
X180098489Y-125502568D01*
X180096252Y-125499699D01*
X180095009Y-125498513D01*
X180095007Y-125498508D01*
X180094805Y-125498315D01*
X180094615Y-125498096D01*
X180094530Y-125498053D01*
X180071294Y-125475899D01*
X180067979Y-125472583D01*
X180049444Y-125453141D01*
X180047083Y-125450397D01*
X180045801Y-125449285D01*
X180045798Y-125449278D01*
X180045577Y-125449086D01*
X180045383Y-125448883D01*
X180045299Y-125448845D01*
X180021044Y-125427835D01*
X180017549Y-125424658D01*
X179998075Y-125406091D01*
X179995564Y-125403442D01*
X179994266Y-125402421D01*
X179994265Y-125402420D01*
X179994036Y-125402240D01*
X179993865Y-125402077D01*
X179993793Y-125402049D01*
X179973888Y-125386406D01*
X179968533Y-125382198D01*
X179964888Y-125379190D01*
X179947998Y-125364559D01*
X179944464Y-125361498D01*
X179941847Y-125358988D01*
X179940278Y-125357873D01*
X179940153Y-125357764D01*
X179940100Y-125357746D01*
X179935992Y-125354826D01*
X179935989Y-125354823D01*
X179935974Y-125354813D01*
X179913836Y-125339070D01*
X179910039Y-125336230D01*
X179888600Y-125319382D01*
X179885949Y-125317076D01*
X179884408Y-125316088D01*
X179884328Y-125316025D01*
X179884295Y-125316015D01*
X179880335Y-125313476D01*
X179857064Y-125298557D01*
X179853122Y-125295894D01*
X179830670Y-125279928D01*
X179828001Y-125277824D01*
X179818807Y-125272538D01*
X179798276Y-125260732D01*
X179794209Y-125258261D01*
X179782997Y-125251073D01*
X179770883Y-125243307D01*
X179766966Y-125240504D01*
X179766746Y-125240378D01*
X179762496Y-125238459D01*
X179737616Y-125225716D01*
X179737590Y-125225702D01*
X179733394Y-125223424D01*
X179708904Y-125209342D01*
X179703621Y-125206304D01*
X179700931Y-125205243D01*
X179675076Y-125193553D01*
X179670731Y-125191460D01*
X179645250Y-125178409D01*
X179645250Y-125178408D01*
X179640158Y-125175800D01*
X179637642Y-125174948D01*
X179610835Y-125164379D01*
X179606362Y-125162487D01*
X179579783Y-125150470D01*
X179579783Y-125150471D01*
X179579780Y-125150470D01*
X179575060Y-125148336D01*
X179572746Y-125147677D01*
X179544938Y-125138267D01*
X179540357Y-125136590D01*
X179512677Y-125125676D01*
X179512676Y-125125676D01*
X179512673Y-125125675D01*
X179512133Y-125125461D01*
X179508394Y-125123987D01*
X179506323Y-125123507D01*
X179477533Y-125115331D01*
X179472847Y-125113874D01*
X179443979Y-125104106D01*
X179443975Y-125104105D01*
X179440265Y-125102849D01*
X179438500Y-125102531D01*
X179408680Y-125095649D01*
X179403898Y-125094419D01*
X179373808Y-125085873D01*
X179373808Y-125085874D01*
X179370795Y-125085018D01*
X179369353Y-125084832D01*
X179338442Y-125079311D01*
X179333585Y-125078317D01*
X179302298Y-125071096D01*
X179300038Y-125070574D01*
X179298992Y-125070492D01*
X179267033Y-125066431D01*
X179262107Y-125065679D01*
X179229563Y-125059866D01*
X179229563Y-125059867D01*
X179228136Y-125059612D01*
X179227487Y-125059594D01*
X179194442Y-125057080D01*
X179189472Y-125056575D01*
X179155680Y-125052281D01*
X179155679Y-125052281D01*
X179155178Y-125052217D01*
X179155019Y-125052221D01*
X179120882Y-125051358D01*
X179115877Y-125051105D01*
X179081216Y-125048469D01*
X179046401Y-125049348D01*
X179041405Y-125049348D01*
X179006587Y-125048469D01*
X178971930Y-125051105D01*
X178966924Y-125051358D01*
X178932789Y-125052221D01*
X178932507Y-125052214D01*
X178932130Y-125052281D01*
X178898334Y-125056575D01*
X178893367Y-125057080D01*
X178864871Y-125059248D01*
X178861126Y-125059533D01*
X178861125Y-125059533D01*
X178860325Y-125059594D01*
X178859322Y-125059622D01*
X178858267Y-125059863D01*
X178825702Y-125065679D01*
X178820776Y-125066431D01*
X178788833Y-125070490D01*
X178787204Y-125070618D01*
X178785505Y-125071097D01*
X178769471Y-125074797D01*
X178754200Y-125078322D01*
X178749356Y-125079313D01*
X178718448Y-125084833D01*
X178716250Y-125085117D01*
X178713993Y-125085877D01*
X178683925Y-125094415D01*
X178679149Y-125095643D01*
X178649313Y-125102530D01*
X178646588Y-125103021D01*
X178643842Y-125104101D01*
X178614971Y-125113870D01*
X178610285Y-125115327D01*
X178581474Y-125123509D01*
X178578296Y-125124246D01*
X178575134Y-125125675D01*
X178547425Y-125136600D01*
X178542845Y-125138277D01*
X178515075Y-125147674D01*
X178511509Y-125148690D01*
X178508077Y-125150447D01*
X178481435Y-125162492D01*
X178476965Y-125164382D01*
X178450183Y-125174942D01*
X178446302Y-125176256D01*
X178442614Y-125178379D01*
X178420204Y-125189857D01*
X178417076Y-125191460D01*
X178417066Y-125191465D01*
X178412716Y-125193560D01*
X178386819Y-125205268D01*
X178382770Y-125206868D01*
X178378973Y-125209303D01*
X178354425Y-125223418D01*
X178350219Y-125225702D01*
X178324926Y-125238658D01*
X178324922Y-125238660D01*
X178319877Y-125241243D01*
X178317339Y-125243040D01*
X178293602Y-125258257D01*
X178289523Y-125260736D01*
X178260001Y-125277711D01*
X178257446Y-125279709D01*
X178234692Y-125295891D01*
X178230746Y-125298557D01*
X178207474Y-125313476D01*
X178203742Y-125315629D01*
X178202724Y-125316350D01*
X178199374Y-125319252D01*
X178177770Y-125336230D01*
X178173971Y-125339070D01*
X178151623Y-125354962D01*
X178147775Y-125357433D01*
X178146837Y-125358169D01*
X178143468Y-125361391D01*
X178122927Y-125379185D01*
X178119275Y-125382199D01*
X178097836Y-125399046D01*
X178097439Y-125399357D01*
X178094014Y-125402050D01*
X178093942Y-125402079D01*
X178093768Y-125402244D01*
X178093545Y-125402420D01*
X178093540Y-125402428D01*
X178092314Y-125403394D01*
X178089894Y-125405937D01*
X178070252Y-125424665D01*
X178066754Y-125427843D01*
X178046443Y-125445437D01*
X178042728Y-125448339D01*
X178041584Y-125449429D01*
X178038489Y-125453012D01*
X178019851Y-125472561D01*
X178016513Y-125475899D01*
X177996932Y-125494567D01*
X177996933Y-125494568D01*
X177995870Y-125495581D01*
X177993279Y-125498053D01*
X177993195Y-125498096D01*
X177993004Y-125498316D01*
X177992801Y-125498510D01*
X177992799Y-125498513D01*
X177991613Y-125499646D01*
X177989403Y-125502472D01*
X177971759Y-125522841D01*
X177968582Y-125526336D01*
X177949872Y-125545959D01*
X177949873Y-125545960D01*
X177949718Y-125546122D01*
X177946419Y-125549583D01*
X177946341Y-125549628D01*
X177946170Y-125549845D01*
X177945998Y-125550026D01*
X177945995Y-125550032D01*
X177944936Y-125551145D01*
X177942936Y-125553959D01*
X177926115Y-125575364D01*
X177923106Y-125579009D01*
X177905419Y-125599429D01*
X177902225Y-125602759D01*
X177901311Y-125603925D01*
X177898881Y-125607710D01*
X177883002Y-125630041D01*
X177880162Y-125633839D01*
X177863392Y-125655180D01*
X177860171Y-125659279D01*
X177860119Y-125659316D01*
X177860014Y-125659479D01*
X177859947Y-125659565D01*
X177859939Y-125659589D01*
X177858940Y-125660867D01*
X177857328Y-125663669D01*
X177842481Y-125686828D01*
X177839818Y-125690769D01*
X177823676Y-125713469D01*
X177821659Y-125716043D01*
X177804650Y-125745625D01*
X177802171Y-125749705D01*
X177787123Y-125773178D01*
X177784344Y-125777080D01*
X177782427Y-125781314D01*
X177769623Y-125806313D01*
X177767333Y-125810529D01*
X177753267Y-125834993D01*
X177750207Y-125840314D01*
X177749145Y-125843011D01*
X177737472Y-125868829D01*
X177735379Y-125873174D01*
X177722302Y-125898706D01*
X177719724Y-125903738D01*
X177718863Y-125906283D01*
X177708309Y-125933048D01*
X177706422Y-125937511D01*
X177694382Y-125964146D01*
X177694379Y-125964153D01*
X177692263Y-125968831D01*
X177691603Y-125971150D01*
X177682195Y-125998952D01*
X177680523Y-126003522D01*
X177669592Y-126031245D01*
X177669592Y-126031247D01*
X177667913Y-126035503D01*
X177667431Y-126037582D01*
X177659250Y-126066386D01*
X177657795Y-126071065D01*
X177648024Y-126099946D01*
X177648023Y-126099949D01*
X177646783Y-126103612D01*
X177646463Y-126105387D01*
X177639574Y-126135229D01*
X177638346Y-126140004D01*
X177629802Y-126170089D01*
X177629803Y-126170090D01*
X177628946Y-126173106D01*
X177628761Y-126174541D01*
X177623243Y-126205434D01*
X177622250Y-126210285D01*
X177615023Y-126241605D01*
X177615022Y-126241611D01*
X177614503Y-126243859D01*
X177614419Y-126244928D01*
X177610360Y-126276867D01*
X177609609Y-126281787D01*
X177603794Y-126314356D01*
X177603542Y-126315765D01*
X177603524Y-126316408D01*
X177601010Y-126349454D01*
X177600505Y-126354424D01*
X177596210Y-126388218D01*
X177596211Y-126388219D01*
X177596147Y-126388720D01*
X177596151Y-126388889D01*
X177595288Y-126423012D01*
X177595035Y-126428017D01*
X177592398Y-126462680D01*
X62495413Y-126462680D01*
X62495413Y-126462678D01*
X62495226Y-126460232D01*
X62495228Y-126460229D01*
X62492776Y-126428000D01*
X62492524Y-126423020D01*
X62491709Y-126390731D01*
X62491708Y-126390728D01*
X62491662Y-126388897D01*
X62491668Y-126388595D01*
X62491601Y-126388210D01*
X62491381Y-126386477D01*
X62487304Y-126354402D01*
X62486801Y-126349439D01*
X62486076Y-126339910D01*
X62484351Y-126317215D01*
X62484350Y-126317214D01*
X62484291Y-126316430D01*
X62484262Y-126315413D01*
X62484017Y-126314339D01*
X62479359Y-126288258D01*
X62478202Y-126281781D01*
X62477454Y-126276884D01*
X62473392Y-126244912D01*
X62473265Y-126243293D01*
X62472784Y-126241586D01*
X62465564Y-126210302D01*
X62464574Y-126205469D01*
X62459051Y-126174539D01*
X62458767Y-126172338D01*
X62458010Y-126170090D01*
X62449464Y-126139999D01*
X62448244Y-126135258D01*
X62441346Y-126105369D01*
X62440861Y-126102671D01*
X62439777Y-126099915D01*
X62436949Y-126091556D01*
X62430007Y-126071041D01*
X62428555Y-126066366D01*
X62420389Y-126037610D01*
X62419643Y-126034390D01*
X62418212Y-126031226D01*
X62407280Y-126003498D01*
X62405620Y-125998963D01*
X62396220Y-125971180D01*
X62395202Y-125967601D01*
X62393421Y-125964128D01*
X62381380Y-125937493D01*
X62379505Y-125933057D01*
X62368974Y-125906347D01*
X62367639Y-125902397D01*
X62365491Y-125898670D01*
X62352417Y-125873142D01*
X62350335Y-125868820D01*
X62338708Y-125843101D01*
X62337053Y-125838884D01*
X62334507Y-125834928D01*
X62320458Y-125810493D01*
X62318203Y-125806341D01*
X62305684Y-125781897D01*
X62303780Y-125777618D01*
X62303361Y-125776890D01*
X62300565Y-125772984D01*
X62285630Y-125749689D01*
X62283153Y-125745611D01*
X62266060Y-125715881D01*
X62263934Y-125713187D01*
X62247993Y-125690769D01*
X62245348Y-125686853D01*
X62230876Y-125664280D01*
X62229102Y-125661142D01*
X62227865Y-125659568D01*
X62227865Y-125659565D01*
X62227803Y-125659486D01*
X62227694Y-125659316D01*
X62227639Y-125659278D01*
X62207644Y-125633834D01*
X62204809Y-125630042D01*
X62189230Y-125608135D01*
X62187282Y-125605065D01*
X62185983Y-125603568D01*
X62185862Y-125603397D01*
X62185802Y-125603360D01*
X62182461Y-125599508D01*
X62182457Y-125599499D01*
X62182413Y-125599453D01*
X62164704Y-125579008D01*
X62161706Y-125575376D01*
X62145049Y-125554179D01*
X62142964Y-125551228D01*
X62141634Y-125549834D01*
X62141472Y-125549627D01*
X62141395Y-125549583D01*
X62137921Y-125545941D01*
X62137919Y-125545937D01*
X62137903Y-125545922D01*
X62119227Y-125526333D01*
X62116049Y-125522837D01*
X62108536Y-125514164D01*
X62098492Y-125502568D01*
X62096255Y-125499699D01*
X62095012Y-125498513D01*
X62095010Y-125498508D01*
X62094808Y-125498315D01*
X62094618Y-125498096D01*
X62094533Y-125498053D01*
X62071297Y-125475899D01*
X62067982Y-125472583D01*
X62049407Y-125453099D01*
X62046112Y-125449274D01*
X62045384Y-125448580D01*
X62041392Y-125445459D01*
X62021058Y-125427845D01*
X62017569Y-125424673D01*
X61998050Y-125406064D01*
X61998036Y-125406051D01*
X61997916Y-125405937D01*
X61996895Y-125404963D01*
X61994310Y-125402497D01*
X61994267Y-125402420D01*
X61994052Y-125402251D01*
X61992730Y-125400990D01*
X61989839Y-125398940D01*
X61968527Y-125382192D01*
X61964879Y-125379181D01*
X61944583Y-125361600D01*
X61941216Y-125358360D01*
X61939847Y-125357285D01*
X61935983Y-125354818D01*
X61913838Y-125339070D01*
X61910041Y-125336230D01*
X61888602Y-125319382D01*
X61887723Y-125318691D01*
X61884613Y-125316244D01*
X61884580Y-125316197D01*
X61884433Y-125316103D01*
X61883264Y-125315183D01*
X61880504Y-125313583D01*
X61857066Y-125298557D01*
X61853124Y-125295894D01*
X61830672Y-125279928D01*
X61828003Y-125277824D01*
X61818809Y-125272538D01*
X61798278Y-125260732D01*
X61794211Y-125258261D01*
X61785664Y-125252782D01*
X61766714Y-125240633D01*
X61766713Y-125240632D01*
X61766633Y-125240581D01*
X61766628Y-125240575D01*
X61766604Y-125240562D01*
X61765288Y-125239719D01*
X61762496Y-125238458D01*
X61750906Y-125232522D01*
X61737593Y-125225703D01*
X61733397Y-125223424D01*
X61708904Y-125209341D01*
X61708901Y-125209340D01*
X61705100Y-125207154D01*
X61703628Y-125206307D01*
X61700962Y-125205255D01*
X61687187Y-125199027D01*
X61675077Y-125193552D01*
X61670735Y-125191460D01*
X61645251Y-125178408D01*
X61641737Y-125176608D01*
X61640160Y-125175800D01*
X61637625Y-125174942D01*
X61610830Y-125164376D01*
X61606375Y-125162492D01*
X61579771Y-125150465D01*
X61579765Y-125150462D01*
X61575068Y-125148338D01*
X61572740Y-125147675D01*
X61544962Y-125138275D01*
X61540383Y-125136599D01*
X61512681Y-125125676D01*
X61512681Y-125125677D01*
X61508394Y-125123986D01*
X61506322Y-125123506D01*
X61477542Y-125115333D01*
X61472854Y-125113875D01*
X61443984Y-125104105D01*
X61443984Y-125104106D01*
X61440280Y-125102852D01*
X61438506Y-125102533D01*
X61408681Y-125095649D01*
X61403901Y-125094419D01*
X61373811Y-125085873D01*
X61373811Y-125085874D01*
X61370798Y-125085018D01*
X61369356Y-125084832D01*
X61338445Y-125079311D01*
X61333588Y-125078317D01*
X61302301Y-125071096D01*
X61300041Y-125070574D01*
X61298995Y-125070492D01*
X61267036Y-125066431D01*
X61262110Y-125065679D01*
X61229566Y-125059866D01*
X61229566Y-125059867D01*
X61228139Y-125059612D01*
X61227490Y-125059594D01*
X61194445Y-125057080D01*
X61189476Y-125056575D01*
X61155690Y-125052282D01*
X61155690Y-125052281D01*
X61155182Y-125052217D01*
X61155021Y-125052221D01*
X61120886Y-125051358D01*
X61115881Y-125051105D01*
X61081213Y-125048468D01*
X61046406Y-125049348D01*
X61041408Y-125049348D01*
X61006592Y-125048469D01*
X60971931Y-125051105D01*
X60966927Y-125051358D01*
X60932804Y-125052221D01*
X60932512Y-125052214D01*
X60932139Y-125052280D01*
X60898340Y-125056575D01*
X60893371Y-125057080D01*
X60864875Y-125059248D01*
X60861130Y-125059533D01*
X60861129Y-125059533D01*
X60860329Y-125059594D01*
X60859326Y-125059622D01*
X60858271Y-125059863D01*
X60825706Y-125065679D01*
X60820780Y-125066431D01*
X60788815Y-125070493D01*
X60787207Y-125070619D01*
X60785516Y-125071096D01*
X60754211Y-125078320D01*
X60749357Y-125079313D01*
X60718445Y-125084834D01*
X60716256Y-125085117D01*
X60713997Y-125085877D01*
X60705424Y-125088311D01*
X60683929Y-125094415D01*
X60679154Y-125095643D01*
X60649311Y-125102531D01*
X60646589Y-125103022D01*
X60643847Y-125104100D01*
X60614973Y-125113870D01*
X60610288Y-125115327D01*
X60581481Y-125123508D01*
X60578300Y-125124246D01*
X60575143Y-125125672D01*
X60547423Y-125136601D01*
X60542845Y-125138277D01*
X60515073Y-125147675D01*
X60511516Y-125148688D01*
X60508071Y-125150452D01*
X60481439Y-125162492D01*
X60476990Y-125164373D01*
X60462803Y-125169967D01*
X60450188Y-125174942D01*
X60446302Y-125176258D01*
X60442612Y-125178382D01*
X60417069Y-125191464D01*
X60412724Y-125193557D01*
X60386816Y-125205270D01*
X60382772Y-125206868D01*
X60378978Y-125209301D01*
X60354429Y-125223417D01*
X60350219Y-125225704D01*
X60350197Y-125225716D01*
X60325322Y-125238456D01*
X60321056Y-125240382D01*
X60321019Y-125240403D01*
X60317095Y-125243199D01*
X60293609Y-125258256D01*
X60289526Y-125260736D01*
X60259961Y-125277736D01*
X60257386Y-125279753D01*
X60234693Y-125295891D01*
X60230749Y-125298555D01*
X60207737Y-125313308D01*
X60204041Y-125315424D01*
X60202524Y-125316499D01*
X60199202Y-125319389D01*
X60177767Y-125336233D01*
X60173972Y-125339071D01*
X60151742Y-125354878D01*
X60151743Y-125354879D01*
X60151627Y-125354962D01*
X60147718Y-125357742D01*
X60147661Y-125357762D01*
X60147519Y-125357884D01*
X60147315Y-125358030D01*
X60147306Y-125358043D01*
X60145986Y-125358985D01*
X60143469Y-125361392D01*
X60122925Y-125379188D01*
X60119276Y-125382199D01*
X60119275Y-125382200D01*
X60097932Y-125398972D01*
X60094061Y-125401720D01*
X60093197Y-125402468D01*
X60089898Y-125405934D01*
X60070233Y-125424682D01*
X60066741Y-125427856D01*
X60046393Y-125445483D01*
X60042542Y-125448496D01*
X60041733Y-125449267D01*
X60038531Y-125452969D01*
X60035672Y-125455969D01*
X60019841Y-125472574D01*
X60016502Y-125475912D01*
X59996934Y-125494568D01*
X59993390Y-125497629D01*
X59992317Y-125498755D01*
X59989442Y-125502427D01*
X59971760Y-125522841D01*
X59968587Y-125526333D01*
X59949875Y-125545960D01*
X59949825Y-125546012D01*
X59949824Y-125546011D01*
X59948835Y-125547049D01*
X59946420Y-125549583D01*
X59946342Y-125549628D01*
X59946171Y-125549845D01*
X59945999Y-125550026D01*
X59945996Y-125550031D01*
X59944937Y-125551145D01*
X59942937Y-125553959D01*
X59926116Y-125575364D01*
X59923107Y-125579009D01*
X59905420Y-125599429D01*
X59902226Y-125602759D01*
X59901312Y-125603925D01*
X59898882Y-125607710D01*
X59883003Y-125630041D01*
X59880163Y-125633839D01*
X59863393Y-125655180D01*
X59860172Y-125659279D01*
X59860120Y-125659316D01*
X59860015Y-125659479D01*
X59859948Y-125659565D01*
X59859940Y-125659589D01*
X59858941Y-125660867D01*
X59857329Y-125663669D01*
X59842482Y-125686828D01*
X59839819Y-125690769D01*
X59823677Y-125713469D01*
X59821660Y-125716043D01*
X59804651Y-125745625D01*
X59802172Y-125749705D01*
X59787124Y-125773178D01*
X59784345Y-125777080D01*
X59782428Y-125781314D01*
X59769624Y-125806313D01*
X59767334Y-125810529D01*
X59753268Y-125834993D01*
X59750208Y-125840314D01*
X59749146Y-125843011D01*
X59737473Y-125868829D01*
X59735380Y-125873174D01*
X59722303Y-125898706D01*
X59719725Y-125903738D01*
X59718864Y-125906283D01*
X59708310Y-125933048D01*
X59706423Y-125937511D01*
X59694383Y-125964146D01*
X59694380Y-125964153D01*
X59692264Y-125968831D01*
X59691604Y-125971150D01*
X59682196Y-125998952D01*
X59680519Y-126003533D01*
X59669592Y-126031244D01*
X59669593Y-126031245D01*
X59667917Y-126035495D01*
X59667433Y-126037581D01*
X59659250Y-126066393D01*
X59657794Y-126071073D01*
X59648026Y-126099944D01*
X59648025Y-126099949D01*
X59646782Y-126103619D01*
X59646467Y-126105370D01*
X59639580Y-126135208D01*
X59638351Y-126139985D01*
X59629798Y-126170106D01*
X59629795Y-126170116D01*
X59628948Y-126173094D01*
X59628761Y-126174545D01*
X59623241Y-126205451D01*
X59622249Y-126210302D01*
X59615030Y-126241587D01*
X59615029Y-126241591D01*
X59614503Y-126243867D01*
X59614422Y-126244903D01*
X59610360Y-126276863D01*
X59609609Y-126281782D01*
X59603794Y-126314351D01*
X59603792Y-126314359D01*
X59603541Y-126315763D01*
X59603523Y-126316403D01*
X59601010Y-126349444D01*
X59600506Y-126354412D01*
X59596210Y-126388230D01*
X59596209Y-126388229D01*
X59596147Y-126388713D01*
X59596152Y-126388898D01*
X59595290Y-126423000D01*
X59595037Y-126428004D01*
X59592399Y-126462697D01*
X58744407Y-126462697D01*
X58744407Y-79793971D01*
X73897230Y-79793971D01*
X73897230Y-79793976D01*
X73930619Y-79906129D01*
X73930624Y-79906139D01*
X73954702Y-79939862D01*
X73973128Y-79998207D01*
X73953740Y-80056239D01*
X73952259Y-80058192D01*
X73944605Y-80068026D01*
X73902066Y-80177045D01*
X73897230Y-80293971D01*
X73897230Y-80293976D01*
X73930619Y-80406129D01*
X73930622Y-80406135D01*
X73998623Y-80501375D01*
X74177244Y-80679997D01*
X74205021Y-80734513D01*
X74195450Y-80794945D01*
X74177244Y-80820003D01*
X73998631Y-80998616D01*
X73998616Y-80998633D01*
X73944605Y-81068025D01*
X73902066Y-81177045D01*
X73897230Y-81293971D01*
X73897230Y-81293976D01*
X73930619Y-81406129D01*
X73930624Y-81406139D01*
X73954702Y-81439862D01*
X73973128Y-81498207D01*
X73953740Y-81556239D01*
X73952259Y-81558192D01*
X73944605Y-81568026D01*
X73902066Y-81677045D01*
X73897230Y-81793971D01*
X73897230Y-81793976D01*
X73930619Y-81906129D01*
X73930622Y-81906135D01*
X73998623Y-82001375D01*
X74177244Y-82179997D01*
X74205021Y-82234513D01*
X74195450Y-82294945D01*
X74177244Y-82320003D01*
X73998631Y-82498616D01*
X73998616Y-82498633D01*
X73944605Y-82568025D01*
X73902066Y-82677045D01*
X73897230Y-82793971D01*
X73897230Y-82793976D01*
X73930619Y-82906129D01*
X73930624Y-82906139D01*
X73954702Y-82939862D01*
X73973128Y-82998207D01*
X73953740Y-83056239D01*
X73952259Y-83058192D01*
X73944605Y-83068026D01*
X73902066Y-83177045D01*
X73897230Y-83293971D01*
X73897230Y-83293976D01*
X73930619Y-83406129D01*
X73930622Y-83406135D01*
X73949072Y-83431975D01*
X73998624Y-83501376D01*
X74248624Y-83751376D01*
X74318025Y-83805394D01*
X74427046Y-83847934D01*
X74543973Y-83852770D01*
X74656134Y-83819378D01*
X74689862Y-83795295D01*
X74748203Y-83776870D01*
X74806236Y-83796257D01*
X74808192Y-83797740D01*
X74818025Y-83805394D01*
X74927046Y-83847934D01*
X75043973Y-83852770D01*
X75043976Y-83852769D01*
X75156129Y-83819380D01*
X75156131Y-83819378D01*
X75156134Y-83819378D01*
X75251376Y-83751376D01*
X75429998Y-83572753D01*
X75484513Y-83544978D01*
X75544945Y-83554549D01*
X75570000Y-83572752D01*
X75748624Y-83751376D01*
X75818025Y-83805394D01*
X75927046Y-83847934D01*
X76043973Y-83852770D01*
X76156134Y-83819378D01*
X76189862Y-83795295D01*
X76248203Y-83776870D01*
X76306236Y-83796257D01*
X76308192Y-83797740D01*
X76318025Y-83805394D01*
X76427046Y-83847934D01*
X76543973Y-83852770D01*
X76543976Y-83852769D01*
X76656129Y-83819380D01*
X76656131Y-83819378D01*
X76656134Y-83819378D01*
X76751376Y-83751376D01*
X76929998Y-83572753D01*
X76984513Y-83544978D01*
X77044945Y-83554549D01*
X77070000Y-83572752D01*
X77248624Y-83751376D01*
X77318025Y-83805394D01*
X77427046Y-83847934D01*
X77543973Y-83852770D01*
X77656134Y-83819378D01*
X77689862Y-83795295D01*
X77748203Y-83776870D01*
X77806236Y-83796257D01*
X77808192Y-83797740D01*
X77818025Y-83805394D01*
X77927046Y-83847934D01*
X78043973Y-83852770D01*
X78043976Y-83852769D01*
X78156129Y-83819380D01*
X78156131Y-83819378D01*
X78156134Y-83819378D01*
X78251376Y-83751376D01*
X78429998Y-83572753D01*
X78484513Y-83544978D01*
X78544945Y-83554549D01*
X78570000Y-83572752D01*
X78748624Y-83751376D01*
X78818025Y-83805394D01*
X78927046Y-83847934D01*
X79043973Y-83852770D01*
X79156134Y-83819378D01*
X79189862Y-83795295D01*
X79248203Y-83776870D01*
X79306236Y-83796257D01*
X79308192Y-83797740D01*
X79318025Y-83805394D01*
X79427046Y-83847934D01*
X79543973Y-83852770D01*
X79543976Y-83852769D01*
X79656129Y-83819380D01*
X79656131Y-83819378D01*
X79656134Y-83819378D01*
X79751376Y-83751376D01*
X80001376Y-83501376D01*
X80055394Y-83431975D01*
X80097934Y-83322954D01*
X80102770Y-83206027D01*
X80069378Y-83093866D01*
X80069376Y-83093863D01*
X80045297Y-83060138D01*
X80026871Y-83001793D01*
X80046259Y-82943760D01*
X80047747Y-82941799D01*
X80049255Y-82939862D01*
X80055394Y-82931975D01*
X80097934Y-82822954D01*
X80102770Y-82706027D01*
X80094142Y-82677045D01*
X80069380Y-82593870D01*
X80069377Y-82593864D01*
X80001378Y-82498627D01*
X80001376Y-82498624D01*
X79751376Y-82248624D01*
X79695400Y-82205055D01*
X79681974Y-82194605D01*
X79572954Y-82152066D01*
X79456028Y-82147230D01*
X79456023Y-82147230D01*
X79343869Y-82180620D01*
X79310137Y-82204704D01*
X79251792Y-82223129D01*
X79193759Y-82203740D01*
X79191802Y-82202255D01*
X79181974Y-82194605D01*
X79072954Y-82152066D01*
X78956028Y-82147230D01*
X78956023Y-82147230D01*
X78843870Y-82180619D01*
X78843864Y-82180622D01*
X78748624Y-82248623D01*
X78570002Y-82427244D01*
X78515485Y-82455021D01*
X78455053Y-82445449D01*
X78429998Y-82427246D01*
X78251376Y-82248624D01*
X78195400Y-82205055D01*
X78181974Y-82194605D01*
X78072954Y-82152066D01*
X77956028Y-82147230D01*
X77956023Y-82147230D01*
X77843869Y-82180620D01*
X77810137Y-82204704D01*
X77751792Y-82223129D01*
X77693759Y-82203740D01*
X77691802Y-82202255D01*
X77681974Y-82194605D01*
X77572954Y-82152066D01*
X77456028Y-82147230D01*
X77456023Y-82147230D01*
X77343870Y-82180619D01*
X77343864Y-82180622D01*
X77248624Y-82248623D01*
X77070003Y-82427244D01*
X77056033Y-82434361D01*
X77044945Y-82445450D01*
X77029457Y-82447902D01*
X77015487Y-82455021D01*
X77000000Y-82452568D01*
X76984513Y-82455021D01*
X76970542Y-82447902D01*
X76955055Y-82445450D01*
X76929996Y-82427244D01*
X76822755Y-82320003D01*
X76794978Y-82265486D01*
X76804549Y-82205054D01*
X76822755Y-82179997D01*
X77001376Y-82001376D01*
X77055394Y-81931975D01*
X77097934Y-81822954D01*
X77102770Y-81706027D01*
X77069378Y-81593866D01*
X77069376Y-81593863D01*
X77045297Y-81560138D01*
X77026871Y-81501793D01*
X77046259Y-81443760D01*
X77047747Y-81441799D01*
X77049255Y-81439862D01*
X77055394Y-81431975D01*
X77097934Y-81322954D01*
X77102770Y-81206027D01*
X77094142Y-81177045D01*
X77069380Y-81093870D01*
X77069377Y-81093864D01*
X77001378Y-80998627D01*
X77001376Y-80998624D01*
X76751376Y-80748624D01*
X76718621Y-80723129D01*
X76681974Y-80694605D01*
X76572954Y-80652066D01*
X76456028Y-80647230D01*
X76456023Y-80647230D01*
X76343869Y-80680620D01*
X76310137Y-80704704D01*
X76251792Y-80723129D01*
X76193759Y-80703740D01*
X76191802Y-80702255D01*
X76181974Y-80694605D01*
X76072954Y-80652066D01*
X75956028Y-80647230D01*
X75956023Y-80647230D01*
X75843870Y-80680619D01*
X75843864Y-80680622D01*
X75748624Y-80748623D01*
X75570003Y-80927244D01*
X75556033Y-80934361D01*
X75544945Y-80945450D01*
X75529457Y-80947902D01*
X75515487Y-80955021D01*
X75500000Y-80952568D01*
X75484513Y-80955021D01*
X75470542Y-80947902D01*
X75455055Y-80945450D01*
X75429996Y-80927244D01*
X75322755Y-80820003D01*
X75294978Y-80765486D01*
X75304549Y-80705054D01*
X75322755Y-80679997D01*
X75501376Y-80501376D01*
X75555394Y-80431975D01*
X75597934Y-80322954D01*
X75602770Y-80206027D01*
X75569378Y-80093866D01*
X75569376Y-80093863D01*
X75545297Y-80060138D01*
X75526871Y-80001793D01*
X75546259Y-79943760D01*
X75547747Y-79941799D01*
X75549255Y-79939862D01*
X75555394Y-79931975D01*
X75597934Y-79822954D01*
X75602770Y-79706027D01*
X75594142Y-79677045D01*
X75569380Y-79593870D01*
X75569377Y-79593864D01*
X75501378Y-79498627D01*
X75501376Y-79498624D01*
X75251376Y-79248624D01*
X75193710Y-79203740D01*
X75181974Y-79194605D01*
X75072954Y-79152066D01*
X74956028Y-79147230D01*
X74956023Y-79147230D01*
X74843869Y-79180620D01*
X74810137Y-79204704D01*
X74751792Y-79223129D01*
X74693759Y-79203740D01*
X74691802Y-79202255D01*
X74681974Y-79194605D01*
X74572954Y-79152066D01*
X74456028Y-79147230D01*
X74456023Y-79147230D01*
X74343870Y-79180619D01*
X74343864Y-79180622D01*
X74248627Y-79248621D01*
X73998623Y-79498625D01*
X73998616Y-79498633D01*
X73944605Y-79568025D01*
X73902066Y-79677045D01*
X73897230Y-79793971D01*
X58744407Y-79793971D01*
X58744407Y-70962680D01*
X59592398Y-70962680D01*
X59593279Y-70997484D01*
X59593279Y-71002490D01*
X59592398Y-71037297D01*
X59595035Y-71071967D01*
X59595288Y-71076971D01*
X59596151Y-71111106D01*
X59596144Y-71111391D01*
X59596212Y-71111775D01*
X59600505Y-71145561D01*
X59601010Y-71150529D01*
X59601010Y-71150530D01*
X59603524Y-71183575D01*
X59603552Y-71184576D01*
X59603794Y-71185635D01*
X59609609Y-71218195D01*
X59610361Y-71223119D01*
X59614422Y-71255075D01*
X59614549Y-71256695D01*
X59615032Y-71258407D01*
X59622247Y-71289674D01*
X59623239Y-71294526D01*
X59628760Y-71325435D01*
X59629046Y-71327645D01*
X59629801Y-71329886D01*
X59638349Y-71359986D01*
X59639578Y-71364764D01*
X59646462Y-71394596D01*
X59646951Y-71397310D01*
X59648035Y-71400063D01*
X59657801Y-71428927D01*
X59659255Y-71433604D01*
X59667435Y-71462409D01*
X59668176Y-71465602D01*
X59669605Y-71468765D01*
X59680522Y-71496454D01*
X59682200Y-71501038D01*
X59691608Y-71528845D01*
X59692619Y-71532396D01*
X59694399Y-71535868D01*
X59706425Y-71562471D01*
X59708308Y-71566923D01*
X59718862Y-71593691D01*
X59720189Y-71597609D01*
X59722325Y-71601317D01*
X59735392Y-71626830D01*
X59737477Y-71631157D01*
X59743591Y-71644682D01*
X59749192Y-71657071D01*
X59750804Y-71661153D01*
X59753269Y-71664990D01*
X59767342Y-71689465D01*
X59769626Y-71693671D01*
X59782476Y-71718759D01*
X59784382Y-71722957D01*
X59787144Y-71726830D01*
X59802175Y-71750276D01*
X59804645Y-71754342D01*
X59821684Y-71783976D01*
X59823729Y-71786583D01*
X59839834Y-71809230D01*
X59842476Y-71813142D01*
X59857443Y-71836489D01*
X59859968Y-71840857D01*
X59863326Y-71844713D01*
X59880159Y-71866132D01*
X59882978Y-71869902D01*
X59898750Y-71892080D01*
X59901467Y-71896334D01*
X59901800Y-71896757D01*
X59905348Y-71900465D01*
X59923120Y-71920982D01*
X59926130Y-71924630D01*
X59942754Y-71945784D01*
X59945513Y-71949688D01*
X59946529Y-71950862D01*
X59950022Y-71954171D01*
X59968579Y-71973634D01*
X59971755Y-71977128D01*
X59979272Y-71985806D01*
X59989380Y-71997475D01*
X59989396Y-71997494D01*
X59992769Y-72001391D01*
X59992805Y-72001471D01*
X59992996Y-72001653D01*
X59994262Y-72003115D01*
X59997022Y-72005492D01*
X60016516Y-72024077D01*
X60019823Y-72027383D01*
X60041973Y-72050616D01*
X60042016Y-72050701D01*
X60042235Y-72050891D01*
X60042428Y-72051093D01*
X60042435Y-72051096D01*
X60043623Y-72052341D01*
X60046487Y-72054575D01*
X60066761Y-72072136D01*
X60070237Y-72075294D01*
X60093501Y-72097474D01*
X60093547Y-72097555D01*
X60093769Y-72097730D01*
X60093948Y-72097900D01*
X60093959Y-72097904D01*
X60095271Y-72099153D01*
X60098243Y-72101245D01*
X60119275Y-72117773D01*
X60122924Y-72120784D01*
X60143373Y-72138498D01*
X60143400Y-72138521D01*
X60147275Y-72141881D01*
X60147317Y-72141947D01*
X60147508Y-72142082D01*
X60148947Y-72143330D01*
X60151942Y-72145236D01*
X60173990Y-72160915D01*
X60177748Y-72163725D01*
X60199508Y-72180825D01*
X60203208Y-72183740D01*
X60203236Y-72183779D01*
X60203351Y-72183852D01*
X60204710Y-72184923D01*
X60207668Y-72186620D01*
X60230762Y-72201425D01*
X60234682Y-72204073D01*
X60257396Y-72220226D01*
X60259967Y-72222240D01*
X60289532Y-72239239D01*
X60293615Y-72241720D01*
X60317095Y-72256773D01*
X60321017Y-72259566D01*
X60321378Y-72259774D01*
X60325655Y-72261686D01*
X60350220Y-72274268D01*
X60354425Y-72276552D01*
X60378833Y-72290586D01*
X60378832Y-72290586D01*
X60384292Y-72293724D01*
X60387040Y-72294802D01*
X60412748Y-72306424D01*
X60417076Y-72308510D01*
X60442580Y-72321573D01*
X60447687Y-72324189D01*
X60450272Y-72325062D01*
X60476968Y-72335588D01*
X60481432Y-72337475D01*
X60511099Y-72350887D01*
X60511100Y-72350887D01*
X60512775Y-72351644D01*
X60515096Y-72352304D01*
X60542857Y-72361697D01*
X60547432Y-72363372D01*
X60551777Y-72365085D01*
X60577671Y-72375295D01*
X60577674Y-72375294D01*
X60579433Y-72375988D01*
X60581519Y-72376472D01*
X60584189Y-72377230D01*
X60610336Y-72384655D01*
X60614932Y-72386084D01*
X60645712Y-72396499D01*
X60645714Y-72396498D01*
X60647561Y-72397123D01*
X60649329Y-72397442D01*
X60662109Y-72400391D01*
X60679149Y-72404324D01*
X60683934Y-72405554D01*
X60715105Y-72414407D01*
X60715106Y-72414406D01*
X60717030Y-72414953D01*
X60718469Y-72415138D01*
X60749397Y-72420662D01*
X60754189Y-72421642D01*
X60785762Y-72428929D01*
X60785763Y-72428928D01*
X60787784Y-72429395D01*
X60788821Y-72429476D01*
X60820811Y-72433540D01*
X60825683Y-72434285D01*
X60857557Y-72439978D01*
X60857558Y-72439977D01*
X60858265Y-72440104D01*
X60858264Y-72440104D01*
X60859673Y-72440356D01*
X60860346Y-72440375D01*
X60861126Y-72440434D01*
X60861130Y-72440436D01*
X60893379Y-72442888D01*
X60898317Y-72443389D01*
X60930392Y-72447466D01*
X60930392Y-72447465D01*
X60932125Y-72447686D01*
X60932134Y-72447687D01*
X60932636Y-72447750D01*
X60932812Y-72447747D01*
X60934644Y-72447793D01*
X60934646Y-72447794D01*
X60966935Y-72448609D01*
X60971915Y-72448861D01*
X61004144Y-72451313D01*
X61004146Y-72451312D01*
X61006603Y-72451499D01*
X61009103Y-72451435D01*
X61009104Y-72451436D01*
X61041415Y-72450619D01*
X61046399Y-72450619D01*
X61078710Y-72451436D01*
X61078713Y-72451434D01*
X61081221Y-72451498D01*
X61083666Y-72451311D01*
X61083670Y-72451313D01*
X61115897Y-72448861D01*
X61120885Y-72448609D01*
X61134300Y-72448270D01*
X61155005Y-72447748D01*
X61155300Y-72447754D01*
X61155691Y-72447686D01*
X61157422Y-72447466D01*
X61189507Y-72443388D01*
X61194440Y-72442887D01*
X61226684Y-72440436D01*
X61226684Y-72440435D01*
X61227481Y-72440375D01*
X61228493Y-72440346D01*
X61229564Y-72440102D01*
X61262102Y-72434290D01*
X61267032Y-72433537D01*
X61270900Y-72433045D01*
X61298986Y-72429477D01*
X61300611Y-72429349D01*
X61302335Y-72428863D01*
X61333600Y-72421647D01*
X61338438Y-72420658D01*
X61369337Y-72415140D01*
X61371563Y-72414852D01*
X61373818Y-72414093D01*
X61373836Y-72414088D01*
X61403929Y-72405540D01*
X61408652Y-72404326D01*
X61438491Y-72397440D01*
X61441227Y-72396948D01*
X61444002Y-72395856D01*
X61444008Y-72395854D01*
X61472855Y-72386092D01*
X61477494Y-72384649D01*
X61506306Y-72376468D01*
X61509515Y-72375725D01*
X61512671Y-72374297D01*
X61540401Y-72363362D01*
X61544934Y-72361703D01*
X61572719Y-72352303D01*
X61576310Y-72351282D01*
X61579807Y-72349488D01*
X61606389Y-72337471D01*
X61610805Y-72335603D01*
X61637561Y-72325054D01*
X61641520Y-72323717D01*
X61645266Y-72321556D01*
X61670780Y-72308487D01*
X61675053Y-72306429D01*
X61700870Y-72294758D01*
X61705048Y-72293115D01*
X61708960Y-72290597D01*
X61733411Y-72276538D01*
X61737589Y-72274270D01*
X61762164Y-72261683D01*
X61766435Y-72259773D01*
X61767045Y-72259422D01*
X61770954Y-72256620D01*
X61794214Y-72241707D01*
X61798224Y-72239270D01*
X61826591Y-72222962D01*
X61826592Y-72222959D01*
X61828067Y-72222112D01*
X61830780Y-72219967D01*
X61853144Y-72204063D01*
X61857023Y-72201442D01*
X61879999Y-72186713D01*
X61883208Y-72184879D01*
X61888270Y-72180854D01*
X61888344Y-72180826D01*
X61888707Y-72180508D01*
X61910093Y-72163702D01*
X61913789Y-72160938D01*
X61935760Y-72145314D01*
X61938897Y-72143325D01*
X61940398Y-72142017D01*
X61940498Y-72141947D01*
X61940520Y-72141910D01*
X61944131Y-72138765D01*
X61944226Y-72138683D01*
X61944261Y-72138668D01*
X61944427Y-72138508D01*
X61964921Y-72120756D01*
X61968518Y-72117788D01*
X61989538Y-72101269D01*
X61992574Y-72099135D01*
X61994056Y-72097720D01*
X61994267Y-72097555D01*
X61994309Y-72097478D01*
X61996843Y-72095060D01*
X61998098Y-72093864D01*
X61998100Y-72093863D01*
X61998107Y-72093854D01*
X62017593Y-72075276D01*
X62021020Y-72072162D01*
X62041261Y-72054628D01*
X62044240Y-72052309D01*
X62045638Y-72050837D01*
X62045798Y-72050701D01*
X62045829Y-72050637D01*
X62049355Y-72046930D01*
X62049372Y-72046920D01*
X62049448Y-72046833D01*
X62060828Y-72034895D01*
X62067997Y-72027375D01*
X62071311Y-72024062D01*
X62090717Y-72005560D01*
X62094618Y-72002207D01*
X62095365Y-72001423D01*
X62098514Y-71997381D01*
X62116073Y-71977110D01*
X62119207Y-71973662D01*
X62139414Y-71952467D01*
X62141392Y-71950395D01*
X62141470Y-71950352D01*
X62141639Y-71950136D01*
X62143046Y-71948662D01*
X62145173Y-71945637D01*
X62161716Y-71924587D01*
X62164678Y-71920997D01*
X62182628Y-71900275D01*
X62185816Y-71896609D01*
X62185862Y-71896582D01*
X62185953Y-71896452D01*
X62187215Y-71895002D01*
X62189171Y-71891927D01*
X62204849Y-71869880D01*
X62207629Y-71866163D01*
X62224600Y-71844568D01*
X62224711Y-71844428D01*
X62228784Y-71839290D01*
X62230559Y-71836192D01*
X62245361Y-71813103D01*
X62247974Y-71809234D01*
X62263883Y-71786863D01*
X62266030Y-71784148D01*
X62266875Y-71782676D01*
X62266877Y-71782676D01*
X62283168Y-71754342D01*
X62285620Y-71750305D01*
X62300539Y-71727034D01*
X62303339Y-71723129D01*
X62303733Y-71722442D01*
X62305641Y-71718164D01*
X62318189Y-71693664D01*
X62320461Y-71689482D01*
X62336734Y-71661182D01*
X62336734Y-71661179D01*
X62337643Y-71659599D01*
X62338718Y-71656857D01*
X62350346Y-71631133D01*
X62352421Y-71626830D01*
X62367279Y-71597822D01*
X62367279Y-71597816D01*
X62368103Y-71596208D01*
X62368968Y-71593647D01*
X62379522Y-71566880D01*
X62381374Y-71562500D01*
X62394802Y-71532800D01*
X62394802Y-71532797D01*
X62395559Y-71531123D01*
X62396219Y-71528801D01*
X62405615Y-71501030D01*
X62407281Y-71496479D01*
X62419210Y-71466228D01*
X62419209Y-71466226D01*
X62419902Y-71464471D01*
X62420389Y-71462371D01*
X62428568Y-71433568D01*
X62430005Y-71428948D01*
X62440414Y-71398187D01*
X62440413Y-71398185D01*
X62441037Y-71396342D01*
X62441355Y-71394576D01*
X62448242Y-71364732D01*
X62449469Y-71359965D01*
X62458002Y-71329920D01*
X62458322Y-71328794D01*
X62458321Y-71328791D01*
X62458868Y-71326865D01*
X62459055Y-71325425D01*
X62464571Y-71294534D01*
X62465565Y-71289675D01*
X62472844Y-71258137D01*
X62472843Y-71258134D01*
X62473310Y-71256111D01*
X62473393Y-71255063D01*
X62473396Y-71255045D01*
X62477453Y-71223112D01*
X62478202Y-71218202D01*
X62483893Y-71186342D01*
X62483892Y-71186339D01*
X62484016Y-71185648D01*
X62484017Y-71185642D01*
X62484272Y-71184214D01*
X62484290Y-71183573D01*
X62484351Y-71182767D01*
X62484352Y-71182766D01*
X62486804Y-71150515D01*
X62487307Y-71145563D01*
X62491381Y-71113507D01*
X62491380Y-71113504D01*
X62491601Y-71111769D01*
X62491601Y-71111766D01*
X62491665Y-71111261D01*
X62491661Y-71111077D01*
X62492522Y-71076990D01*
X62492775Y-71071983D01*
X62492776Y-71071971D01*
X62495227Y-71039752D01*
X62495226Y-71039749D01*
X62495414Y-71037280D01*
X62494534Y-71002491D01*
X62494534Y-70997483D01*
X62495414Y-70962704D01*
X62495412Y-70962680D01*
X177592398Y-70962680D01*
X177593279Y-70997484D01*
X177593279Y-71002490D01*
X177592398Y-71037297D01*
X177595035Y-71071967D01*
X177595288Y-71076971D01*
X177596151Y-71111106D01*
X177596144Y-71111391D01*
X177596212Y-71111775D01*
X177600505Y-71145560D01*
X177601010Y-71150529D01*
X177603525Y-71183586D01*
X177603553Y-71184576D01*
X177603795Y-71185637D01*
X177609608Y-71218189D01*
X177610360Y-71223112D01*
X177614420Y-71255059D01*
X177614548Y-71256695D01*
X177615027Y-71258392D01*
X177615035Y-71258425D01*
X177622246Y-71289673D01*
X177622247Y-71289675D01*
X177623241Y-71294534D01*
X177628757Y-71325423D01*
X177628761Y-71325442D01*
X177629045Y-71327644D01*
X177629806Y-71329901D01*
X177638349Y-71359986D01*
X177639577Y-71364764D01*
X177639578Y-71364766D01*
X177646458Y-71394577D01*
X177646952Y-71397316D01*
X177648036Y-71400071D01*
X177657797Y-71428918D01*
X177659254Y-71433604D01*
X177667434Y-71462409D01*
X177668175Y-71465605D01*
X177669602Y-71468762D01*
X177680520Y-71496452D01*
X177682199Y-71501038D01*
X177691607Y-71528845D01*
X177692618Y-71532396D01*
X177694398Y-71535868D01*
X177706424Y-71562471D01*
X177708307Y-71566923D01*
X177718861Y-71593691D01*
X177720188Y-71597609D01*
X177722324Y-71601317D01*
X177735391Y-71626830D01*
X177737476Y-71631157D01*
X177743590Y-71644682D01*
X177749191Y-71657071D01*
X177750803Y-71661153D01*
X177753268Y-71664990D01*
X177767341Y-71689465D01*
X177769625Y-71693671D01*
X177782475Y-71718759D01*
X177784381Y-71722957D01*
X177787143Y-71726830D01*
X177802174Y-71750276D01*
X177804644Y-71754342D01*
X177821683Y-71783976D01*
X177823728Y-71786583D01*
X177839833Y-71809230D01*
X177842475Y-71813142D01*
X177857442Y-71836489D01*
X177859967Y-71840857D01*
X177863325Y-71844713D01*
X177880158Y-71866132D01*
X177882977Y-71869902D01*
X177898749Y-71892080D01*
X177901466Y-71896334D01*
X177901799Y-71896757D01*
X177905347Y-71900465D01*
X177923119Y-71920982D01*
X177926129Y-71924630D01*
X177942753Y-71945784D01*
X177945512Y-71949688D01*
X177946528Y-71950862D01*
X177950021Y-71954171D01*
X177968578Y-71973634D01*
X177971758Y-71977133D01*
X177989370Y-71997466D01*
X177989400Y-71997501D01*
X177992770Y-72001396D01*
X177992803Y-72001469D01*
X177992977Y-72001634D01*
X177994241Y-72003095D01*
X177997016Y-72005486D01*
X178016516Y-72024077D01*
X178019841Y-72027403D01*
X178020505Y-72028099D01*
X178041970Y-72050614D01*
X178042014Y-72050701D01*
X178042239Y-72050896D01*
X178042427Y-72051093D01*
X178042429Y-72051094D01*
X178043618Y-72052340D01*
X178046504Y-72054590D01*
X178066760Y-72072136D01*
X178070213Y-72075273D01*
X178090918Y-72095014D01*
X178093504Y-72097483D01*
X178093545Y-72097555D01*
X178093735Y-72097704D01*
X178095143Y-72099048D01*
X178098128Y-72101156D01*
X178119273Y-72117773D01*
X178122922Y-72120784D01*
X178143371Y-72138498D01*
X178143398Y-72138521D01*
X178147273Y-72141881D01*
X178147315Y-72141947D01*
X178147506Y-72142082D01*
X178148945Y-72143330D01*
X178151940Y-72145236D01*
X178173961Y-72160895D01*
X178177745Y-72163725D01*
X178199257Y-72180630D01*
X178199363Y-72180713D01*
X178203208Y-72183743D01*
X178203232Y-72183777D01*
X178203331Y-72183840D01*
X178204874Y-72185056D01*
X178207997Y-72186831D01*
X178216933Y-72192561D01*
X178230758Y-72201425D01*
X178234692Y-72204082D01*
X178257182Y-72220075D01*
X178259846Y-72222172D01*
X178261219Y-72222961D01*
X178261220Y-72222962D01*
X178289529Y-72239239D01*
X178293576Y-72241697D01*
X178317081Y-72256766D01*
X178320981Y-72259547D01*
X178321139Y-72259638D01*
X178325402Y-72261558D01*
X178350250Y-72274285D01*
X178354390Y-72276533D01*
X178378830Y-72290586D01*
X178384289Y-72293725D01*
X178387045Y-72294806D01*
X178401568Y-72301371D01*
X178412715Y-72306410D01*
X178417044Y-72308495D01*
X178442580Y-72321574D01*
X178442581Y-72321575D01*
X178447681Y-72324187D01*
X178450265Y-72325060D01*
X178466096Y-72331302D01*
X178476967Y-72335589D01*
X178481432Y-72337477D01*
X178508019Y-72349496D01*
X178511094Y-72350886D01*
X178512771Y-72351644D01*
X178515099Y-72352305D01*
X178520173Y-72354022D01*
X178542870Y-72361703D01*
X178547452Y-72363380D01*
X178575123Y-72374291D01*
X178575124Y-72374291D01*
X178577670Y-72375295D01*
X178577670Y-72375294D01*
X178579429Y-72375988D01*
X178581516Y-72376472D01*
X178610304Y-72384647D01*
X178614951Y-72386092D01*
X178645709Y-72396499D01*
X178645710Y-72396498D01*
X178647544Y-72397119D01*
X178649281Y-72397432D01*
X178679166Y-72404328D01*
X178683935Y-72405555D01*
X178715102Y-72414407D01*
X178715102Y-72414406D01*
X178717027Y-72414953D01*
X178718471Y-72415140D01*
X178718477Y-72415141D01*
X178749407Y-72420664D01*
X178754177Y-72421640D01*
X178785758Y-72428929D01*
X178785759Y-72428928D01*
X178787780Y-72429395D01*
X178788817Y-72429476D01*
X178820807Y-72433540D01*
X178825679Y-72434285D01*
X178857553Y-72439978D01*
X178857554Y-72439977D01*
X178858261Y-72440104D01*
X178858260Y-72440104D01*
X178859669Y-72440356D01*
X178860342Y-72440375D01*
X178861122Y-72440434D01*
X178861126Y-72440436D01*
X178893375Y-72442888D01*
X178898309Y-72443389D01*
X178930388Y-72447466D01*
X178930388Y-72447465D01*
X178932122Y-72447686D01*
X178932123Y-72447686D01*
X178932634Y-72447750D01*
X178932809Y-72447747D01*
X178934641Y-72447793D01*
X178934643Y-72447794D01*
X178966932Y-72448609D01*
X178971910Y-72448861D01*
X179004141Y-72451313D01*
X179004143Y-72451312D01*
X179006589Y-72451498D01*
X179009096Y-72451434D01*
X179009100Y-72451436D01*
X179041411Y-72450619D01*
X179046395Y-72450619D01*
X179078706Y-72451436D01*
X179078706Y-72451435D01*
X179081206Y-72451499D01*
X179083663Y-72451312D01*
X179083666Y-72451313D01*
X179115891Y-72448861D01*
X179120877Y-72448609D01*
X179153164Y-72447794D01*
X179153164Y-72447793D01*
X179155010Y-72447747D01*
X179155302Y-72447753D01*
X179155692Y-72447685D01*
X179157417Y-72447465D01*
X179157419Y-72447466D01*
X179189504Y-72443388D01*
X179194433Y-72442888D01*
X179226681Y-72440436D01*
X179226681Y-72440435D01*
X179227478Y-72440375D01*
X179228490Y-72440346D01*
X179229561Y-72440102D01*
X179262099Y-72434290D01*
X179267029Y-72433537D01*
X179270897Y-72433045D01*
X179298983Y-72429477D01*
X179300608Y-72429349D01*
X179302332Y-72428863D01*
X179333597Y-72421647D01*
X179338435Y-72420658D01*
X179369334Y-72415140D01*
X179371558Y-72414852D01*
X179373808Y-72414095D01*
X179403917Y-72405543D01*
X179408678Y-72404320D01*
X179419672Y-72401782D01*
X179438518Y-72397433D01*
X179441223Y-72396946D01*
X179443973Y-72395864D01*
X179472850Y-72386093D01*
X179477490Y-72384650D01*
X179506296Y-72376470D01*
X179509512Y-72375725D01*
X179512669Y-72374297D01*
X179540417Y-72363356D01*
X179544952Y-72361697D01*
X179572701Y-72352309D01*
X179576304Y-72351284D01*
X179579797Y-72349492D01*
X179606385Y-72337471D01*
X179610800Y-72335604D01*
X179637563Y-72325052D01*
X179641519Y-72323716D01*
X179645269Y-72321552D01*
X179670762Y-72308495D01*
X179675069Y-72306420D01*
X179700834Y-72294773D01*
X179705042Y-72293118D01*
X179708952Y-72290600D01*
X179733404Y-72276541D01*
X179737566Y-72274280D01*
X179762179Y-72261675D01*
X179766437Y-72259771D01*
X179767003Y-72259445D01*
X179770913Y-72256645D01*
X179794212Y-72241707D01*
X179798222Y-72239270D01*
X179826589Y-72222962D01*
X179826590Y-72222959D01*
X179828065Y-72222112D01*
X179830778Y-72219967D01*
X179853142Y-72204063D01*
X179857021Y-72201442D01*
X179879997Y-72186713D01*
X179883206Y-72184879D01*
X179888268Y-72180854D01*
X179888344Y-72180825D01*
X179888717Y-72180499D01*
X179910064Y-72163723D01*
X179913807Y-72160924D01*
X179935922Y-72145198D01*
X179938942Y-72143274D01*
X179940351Y-72142049D01*
X179940496Y-72141947D01*
X179940527Y-72141895D01*
X179944147Y-72138750D01*
X179944298Y-72138619D01*
X179944316Y-72138612D01*
X179944400Y-72138531D01*
X179964906Y-72120767D01*
X179968537Y-72117772D01*
X179989766Y-72101089D01*
X179994038Y-72098068D01*
X179994481Y-72097683D01*
X179998119Y-72093841D01*
X180017565Y-72075300D01*
X180021019Y-72072161D01*
X180041258Y-72054629D01*
X180045446Y-72051369D01*
X180045981Y-72050858D01*
X180049446Y-72046832D01*
X180060842Y-72034877D01*
X180067994Y-72027375D01*
X180071308Y-72024062D01*
X180090714Y-72005560D01*
X180094615Y-72002207D01*
X180095362Y-72001423D01*
X180098511Y-71997381D01*
X180116070Y-71977110D01*
X180119204Y-71973662D01*
X180139411Y-71952467D01*
X180141389Y-71950395D01*
X180141467Y-71950352D01*
X180141636Y-71950136D01*
X180143043Y-71948662D01*
X180145170Y-71945637D01*
X180161713Y-71924587D01*
X180164675Y-71920997D01*
X180182625Y-71900275D01*
X180185813Y-71896609D01*
X180185859Y-71896582D01*
X180185950Y-71896452D01*
X180187212Y-71895002D01*
X180189168Y-71891927D01*
X180204846Y-71869880D01*
X180207626Y-71866163D01*
X180224597Y-71844568D01*
X180224708Y-71844428D01*
X180228781Y-71839290D01*
X180230556Y-71836192D01*
X180245358Y-71813103D01*
X180247971Y-71809234D01*
X180263880Y-71786863D01*
X180266027Y-71784148D01*
X180266872Y-71782676D01*
X180266874Y-71782676D01*
X180283165Y-71754342D01*
X180285617Y-71750305D01*
X180300536Y-71727034D01*
X180303336Y-71723129D01*
X180303730Y-71722442D01*
X180305638Y-71718164D01*
X180318186Y-71693664D01*
X180320458Y-71689482D01*
X180336731Y-71661182D01*
X180336731Y-71661179D01*
X180337640Y-71659599D01*
X180338715Y-71656857D01*
X180350343Y-71631133D01*
X180352418Y-71626830D01*
X180367276Y-71597822D01*
X180367276Y-71597816D01*
X180368100Y-71596208D01*
X180368965Y-71593647D01*
X180379519Y-71566880D01*
X180381371Y-71562500D01*
X180394799Y-71532800D01*
X180394799Y-71532797D01*
X180395556Y-71531123D01*
X180396216Y-71528801D01*
X180405612Y-71501030D01*
X180407278Y-71496479D01*
X180419207Y-71466228D01*
X180419206Y-71466225D01*
X180419900Y-71464467D01*
X180420382Y-71462383D01*
X180428561Y-71433579D01*
X180429992Y-71428976D01*
X180440411Y-71398187D01*
X180440410Y-71398185D01*
X180441034Y-71396344D01*
X180441358Y-71394546D01*
X180448234Y-71364753D01*
X180449464Y-71359969D01*
X180449466Y-71359965D01*
X180458319Y-71328791D01*
X180458318Y-71328790D01*
X180458864Y-71326871D01*
X180459049Y-71325442D01*
X180464577Y-71294483D01*
X180465550Y-71289728D01*
X180472841Y-71258140D01*
X180472840Y-71258138D01*
X180473305Y-71256125D01*
X180473389Y-71255059D01*
X180477449Y-71223106D01*
X180478198Y-71218202D01*
X180478200Y-71218189D01*
X180483889Y-71186338D01*
X180483888Y-71186337D01*
X180484009Y-71185664D01*
X180484009Y-71185662D01*
X180484268Y-71184208D01*
X180484286Y-71183587D01*
X180484348Y-71182767D01*
X180484349Y-71182766D01*
X180486799Y-71150528D01*
X180487304Y-71145563D01*
X180487304Y-71145560D01*
X180491378Y-71113510D01*
X180491377Y-71113508D01*
X180491600Y-71111759D01*
X180491661Y-71111269D01*
X180491658Y-71111102D01*
X180492520Y-71076980D01*
X180492521Y-71076971D01*
X180492520Y-71076963D01*
X180492771Y-71071991D01*
X180495224Y-71039752D01*
X180495223Y-71039751D01*
X180495410Y-71037302D01*
X180494530Y-71002489D01*
X180494530Y-70997485D01*
X180495410Y-70962682D01*
X180495224Y-70960232D01*
X180492772Y-70927993D01*
X180492520Y-70923018D01*
X180491705Y-70890731D01*
X180491704Y-70890730D01*
X180491658Y-70888884D01*
X180491664Y-70888593D01*
X180491600Y-70888226D01*
X180491377Y-70886475D01*
X180491378Y-70886474D01*
X180487305Y-70854424D01*
X180487304Y-70854417D01*
X180486799Y-70849444D01*
X180486075Y-70839917D01*
X180484349Y-70817218D01*
X180484348Y-70817217D01*
X180484287Y-70816408D01*
X180484259Y-70815417D01*
X180484011Y-70814330D01*
X180478199Y-70781783D01*
X180477447Y-70776860D01*
X180473389Y-70744923D01*
X180473261Y-70743292D01*
X180472788Y-70741616D01*
X180465553Y-70710269D01*
X180464573Y-70705476D01*
X180459051Y-70674552D01*
X180458765Y-70672343D01*
X180457999Y-70670067D01*
X180449465Y-70640016D01*
X180448235Y-70635235D01*
X180446739Y-70628753D01*
X180441354Y-70605419D01*
X180440860Y-70602677D01*
X180439775Y-70599919D01*
X180429999Y-70571028D01*
X180428554Y-70566376D01*
X180420385Y-70537606D01*
X180420385Y-70537604D01*
X180419639Y-70534390D01*
X180418207Y-70531220D01*
X180418205Y-70531214D01*
X180407274Y-70503492D01*
X180405622Y-70498982D01*
X180396215Y-70471178D01*
X180395198Y-70467601D01*
X180393415Y-70464123D01*
X180381387Y-70437517D01*
X180379500Y-70433053D01*
X180368974Y-70406357D01*
X180367638Y-70402402D01*
X180365486Y-70398667D01*
X180352422Y-70373161D01*
X180350336Y-70368833D01*
X180338714Y-70343125D01*
X180337053Y-70338889D01*
X180334498Y-70334918D01*
X180320464Y-70310510D01*
X180318174Y-70306294D01*
X180312090Y-70294416D01*
X180305599Y-70281743D01*
X180303686Y-70277463D01*
X180303478Y-70277102D01*
X180300685Y-70273180D01*
X180285632Y-70249700D01*
X180283151Y-70245617D01*
X180266152Y-70216052D01*
X180264138Y-70213481D01*
X180247985Y-70190767D01*
X180245345Y-70186859D01*
X180230532Y-70163753D01*
X180228010Y-70159356D01*
X180227984Y-70159318D01*
X180224587Y-70155402D01*
X180207647Y-70133846D01*
X180204827Y-70130075D01*
X180189148Y-70108027D01*
X180186465Y-70103812D01*
X180185928Y-70103129D01*
X180182410Y-70099458D01*
X180164696Y-70079009D01*
X180161685Y-70075360D01*
X180145157Y-70054328D01*
X180142393Y-70050401D01*
X180141376Y-70049227D01*
X180137862Y-70045890D01*
X180125520Y-70032945D01*
X180119206Y-70026322D01*
X180116048Y-70022846D01*
X180098487Y-70002572D01*
X180095474Y-69998710D01*
X180094566Y-69997756D01*
X180090845Y-69994547D01*
X180071294Y-69975907D01*
X180067989Y-69972601D01*
X180049405Y-69953108D01*
X180046109Y-69949281D01*
X180045378Y-69948584D01*
X180041387Y-69945465D01*
X180021040Y-69927840D01*
X180017550Y-69924668D01*
X179998070Y-69906095D01*
X179994628Y-69902463D01*
X179993970Y-69901893D01*
X179989923Y-69899016D01*
X179968538Y-69882211D01*
X179964887Y-69879198D01*
X179944355Y-69861412D01*
X179940807Y-69858019D01*
X179940221Y-69857558D01*
X179936151Y-69854947D01*
X179935984Y-69854828D01*
X179913827Y-69839072D01*
X179910045Y-69836244D01*
X179888626Y-69819411D01*
X179884770Y-69816053D01*
X179880402Y-69813528D01*
X179857055Y-69798561D01*
X179853143Y-69795919D01*
X179830496Y-69779814D01*
X179827889Y-69777769D01*
X179798255Y-69760730D01*
X179794173Y-69758250D01*
X179770755Y-69743237D01*
X179770719Y-69743214D01*
X179766853Y-69740460D01*
X179762679Y-69738565D01*
X179762667Y-69738559D01*
X179737583Y-69725711D01*
X179733385Y-69723430D01*
X179708904Y-69709355D01*
X179708903Y-69709354D01*
X179705095Y-69707165D01*
X179705093Y-69707164D01*
X179703617Y-69706316D01*
X179700953Y-69705264D01*
X179675091Y-69693572D01*
X179670745Y-69691479D01*
X179670735Y-69691474D01*
X179645179Y-69678385D01*
X179640159Y-69675813D01*
X179637613Y-69674951D01*
X179610834Y-69664392D01*
X179606365Y-69662502D01*
X179579776Y-69650481D01*
X179579776Y-69650480D01*
X179575059Y-69648348D01*
X179572748Y-69647690D01*
X179544959Y-69638288D01*
X179540373Y-69636609D01*
X179512667Y-69625684D01*
X179512667Y-69625685D01*
X179508397Y-69624001D01*
X179506314Y-69623518D01*
X179477507Y-69615337D01*
X179472825Y-69613881D01*
X179443969Y-69604118D01*
X179440274Y-69602867D01*
X179438530Y-69602553D01*
X179408650Y-69595656D01*
X179403915Y-69594438D01*
X179373812Y-69585890D01*
X179373798Y-69585886D01*
X179373798Y-69585885D01*
X179370791Y-69585032D01*
X179369347Y-69584845D01*
X179338438Y-69579324D01*
X179333586Y-69578332D01*
X179302319Y-69571117D01*
X179302310Y-69571115D01*
X179300032Y-69570589D01*
X179298987Y-69570507D01*
X179267032Y-69566446D01*
X179262108Y-69565694D01*
X179229542Y-69559878D01*
X179229542Y-69559877D01*
X179228139Y-69559627D01*
X179227492Y-69559609D01*
X179226678Y-69559547D01*
X179223570Y-69559310D01*
X179194450Y-69557095D01*
X179189484Y-69556591D01*
X179155661Y-69552294D01*
X179155661Y-69552293D01*
X179155181Y-69552233D01*
X179155001Y-69552237D01*
X179120895Y-69551375D01*
X179115890Y-69551122D01*
X179081200Y-69548484D01*
X179046406Y-69549364D01*
X179041398Y-69549364D01*
X179006616Y-69548483D01*
X178971914Y-69551122D01*
X178966911Y-69551375D01*
X178932808Y-69552237D01*
X178932509Y-69552230D01*
X178932147Y-69552294D01*
X178898321Y-69556591D01*
X178893354Y-69557095D01*
X178860306Y-69559609D01*
X178859322Y-69559636D01*
X178858261Y-69559879D01*
X178825701Y-69565694D01*
X178820775Y-69566446D01*
X178788815Y-69570507D01*
X178787202Y-69570634D01*
X178785491Y-69571116D01*
X178754220Y-69578332D01*
X178749369Y-69579324D01*
X178718456Y-69584846D01*
X178716249Y-69585131D01*
X178713996Y-69585890D01*
X178683922Y-69594430D01*
X178679142Y-69595659D01*
X178649280Y-69602551D01*
X178646587Y-69603037D01*
X178643857Y-69604110D01*
X178614985Y-69613879D01*
X178610303Y-69615335D01*
X178581492Y-69623518D01*
X178578302Y-69624258D01*
X178575150Y-69625682D01*
X178547448Y-69636604D01*
X178542869Y-69638280D01*
X178515055Y-69647692D01*
X178511504Y-69648703D01*
X178508051Y-69650472D01*
X178481433Y-69662505D01*
X178476970Y-69664393D01*
X178450201Y-69674949D01*
X178446302Y-69676269D01*
X178442621Y-69678388D01*
X178417063Y-69691478D01*
X178412715Y-69693573D01*
X178386921Y-69705234D01*
X178382780Y-69706864D01*
X178378897Y-69709359D01*
X178354420Y-69723431D01*
X178350214Y-69725716D01*
X178336457Y-69732763D01*
X178321185Y-69740586D01*
X178319836Y-69741277D01*
X178317286Y-69743085D01*
X178293598Y-69758271D01*
X178289518Y-69760750D01*
X178259999Y-69777723D01*
X178257448Y-69779718D01*
X178234692Y-69795899D01*
X178230759Y-69798557D01*
X178213453Y-69809653D01*
X178207582Y-69813416D01*
X178203633Y-69815689D01*
X178202855Y-69816241D01*
X178199349Y-69819280D01*
X178177745Y-69836257D01*
X178173948Y-69839097D01*
X178151711Y-69854910D01*
X178147793Y-69857420D01*
X178146847Y-69858162D01*
X178143428Y-69861435D01*
X178122922Y-69879198D01*
X178119274Y-69882209D01*
X178119273Y-69882210D01*
X178097966Y-69898954D01*
X178094019Y-69901753D01*
X178093283Y-69902390D01*
X178089930Y-69905910D01*
X178070247Y-69924677D01*
X178066768Y-69927840D01*
X178046421Y-69945465D01*
X178046355Y-69945522D01*
X178042639Y-69948430D01*
X178041590Y-69949430D01*
X178038489Y-69953020D01*
X178019839Y-69972581D01*
X178016502Y-69975918D01*
X177996932Y-69994575D01*
X177996933Y-69994576D01*
X177993281Y-69998058D01*
X177993197Y-69998101D01*
X177993006Y-69998321D01*
X177992803Y-69998515D01*
X177992801Y-69998517D01*
X177991613Y-69999652D01*
X177989405Y-70002476D01*
X177971757Y-70022850D01*
X177968582Y-70026345D01*
X177949901Y-70045938D01*
X177949900Y-70045937D01*
X177949411Y-70046451D01*
X177946423Y-70049586D01*
X177946343Y-70049632D01*
X177946167Y-70049854D01*
X177945998Y-70050033D01*
X177945988Y-70050056D01*
X177944799Y-70051310D01*
X177942786Y-70054156D01*
X177942652Y-70054328D01*
X177926128Y-70075354D01*
X177923119Y-70079000D01*
X177905289Y-70099582D01*
X177905290Y-70099583D01*
X177905023Y-70099891D01*
X177902024Y-70103354D01*
X177901951Y-70103401D01*
X177901797Y-70103617D01*
X177901684Y-70103748D01*
X177901680Y-70103757D01*
X177900604Y-70105003D01*
X177898770Y-70107872D01*
X177882998Y-70130052D01*
X177880158Y-70133850D01*
X177860171Y-70159284D01*
X177860119Y-70159321D01*
X177860013Y-70159486D01*
X177859948Y-70159569D01*
X177859945Y-70159576D01*
X177859056Y-70160710D01*
X177857471Y-70163449D01*
X177842475Y-70186841D01*
X177839819Y-70190772D01*
X177823466Y-70213768D01*
X177821561Y-70216219D01*
X177804651Y-70245629D01*
X177802171Y-70249712D01*
X177786992Y-70273389D01*
X177784353Y-70277113D01*
X177782527Y-70281124D01*
X177769630Y-70306301D01*
X177767345Y-70310507D01*
X177753226Y-70335066D01*
X177753225Y-70335069D01*
X177750237Y-70340266D01*
X177749195Y-70342902D01*
X177737480Y-70368813D01*
X177735388Y-70373157D01*
X177722301Y-70398710D01*
X177722300Y-70398711D01*
X177719729Y-70403730D01*
X177718863Y-70406288D01*
X177708300Y-70433076D01*
X177706411Y-70437542D01*
X177694384Y-70464146D01*
X177694383Y-70464149D01*
X177692263Y-70468837D01*
X177691605Y-70471148D01*
X177682200Y-70498942D01*
X177680522Y-70503525D01*
X177669590Y-70531250D01*
X177669589Y-70531252D01*
X177667917Y-70535491D01*
X177667433Y-70537578D01*
X177659252Y-70566387D01*
X177657793Y-70571076D01*
X177648031Y-70599921D01*
X177648032Y-70599922D01*
X177646779Y-70603625D01*
X177646457Y-70605411D01*
X177639575Y-70635228D01*
X177638347Y-70640004D01*
X177629492Y-70671190D01*
X177628944Y-70673118D01*
X177628761Y-70674536D01*
X177623243Y-70705434D01*
X177622250Y-70710288D01*
X177615025Y-70741599D01*
X177615024Y-70741605D01*
X177614502Y-70743862D01*
X177614419Y-70744929D01*
X177610360Y-70776870D01*
X177609609Y-70781791D01*
X177603795Y-70814353D01*
X177603795Y-70814354D01*
X177603543Y-70815765D01*
X177603525Y-70816401D01*
X177601010Y-70849455D01*
X177600505Y-70854424D01*
X177596210Y-70888218D01*
X177596211Y-70888219D01*
X177596147Y-70888720D01*
X177596151Y-70888889D01*
X177595288Y-70923012D01*
X177595035Y-70928017D01*
X177592398Y-70962680D01*
X62495412Y-70962680D01*
X62495226Y-70960234D01*
X62495227Y-70960232D01*
X62492774Y-70927991D01*
X62492522Y-70922993D01*
X62491661Y-70888918D01*
X62491668Y-70888597D01*
X62491603Y-70888227D01*
X62491381Y-70886477D01*
X62487304Y-70854397D01*
X62486803Y-70849455D01*
X62484352Y-70817218D01*
X62484351Y-70817216D01*
X62484290Y-70816413D01*
X62484262Y-70815413D01*
X62484017Y-70814341D01*
X62483892Y-70813644D01*
X62483893Y-70813642D01*
X62478202Y-70781780D01*
X62477452Y-70776870D01*
X62473391Y-70744904D01*
X62473265Y-70743291D01*
X62472782Y-70741580D01*
X62465557Y-70710274D01*
X62464577Y-70705482D01*
X62459054Y-70674553D01*
X62458768Y-70672341D01*
X62458008Y-70670085D01*
X62449469Y-70640016D01*
X62448239Y-70635234D01*
X62441358Y-70605419D01*
X62440864Y-70602678D01*
X62439776Y-70599913D01*
X62429999Y-70571017D01*
X62428570Y-70566421D01*
X62421145Y-70540274D01*
X62420387Y-70537604D01*
X62419641Y-70534388D01*
X62418210Y-70531220D01*
X62407287Y-70503517D01*
X62405610Y-70498937D01*
X62405609Y-70498934D01*
X62396219Y-70471181D01*
X62395201Y-70467602D01*
X62393418Y-70464123D01*
X62381390Y-70437517D01*
X62379503Y-70433053D01*
X62368977Y-70406357D01*
X62367641Y-70402402D01*
X62365489Y-70398667D01*
X62352425Y-70373161D01*
X62350339Y-70368833D01*
X62338717Y-70343125D01*
X62337056Y-70338889D01*
X62334501Y-70334918D01*
X62320467Y-70310510D01*
X62318177Y-70306294D01*
X62312093Y-70294416D01*
X62305602Y-70281743D01*
X62303689Y-70277463D01*
X62303481Y-70277102D01*
X62300688Y-70273180D01*
X62285635Y-70249700D01*
X62283154Y-70245617D01*
X62266155Y-70216052D01*
X62264141Y-70213481D01*
X62247988Y-70190767D01*
X62245348Y-70186859D01*
X62230535Y-70163753D01*
X62228013Y-70159356D01*
X62227987Y-70159318D01*
X62224590Y-70155402D01*
X62207650Y-70133846D01*
X62204830Y-70130075D01*
X62189151Y-70108027D01*
X62186468Y-70103812D01*
X62185931Y-70103129D01*
X62182413Y-70099458D01*
X62164699Y-70079009D01*
X62161688Y-70075360D01*
X62145160Y-70054328D01*
X62142396Y-70050401D01*
X62141379Y-70049227D01*
X62137865Y-70045890D01*
X62125523Y-70032945D01*
X62119209Y-70026322D01*
X62116051Y-70022846D01*
X62098490Y-70002572D01*
X62095477Y-69998710D01*
X62094569Y-69997756D01*
X62090848Y-69994547D01*
X62071297Y-69975907D01*
X62067992Y-69972601D01*
X62049407Y-69953107D01*
X62046106Y-69949274D01*
X62045388Y-69948590D01*
X62041390Y-69945465D01*
X62021047Y-69927844D01*
X62017549Y-69924664D01*
X61998086Y-69906107D01*
X61994777Y-69902614D01*
X61993603Y-69901598D01*
X61989699Y-69898839D01*
X61968545Y-69882215D01*
X61964897Y-69879205D01*
X61964889Y-69879198D01*
X61944245Y-69861316D01*
X61940537Y-69858100D01*
X61940498Y-69858037D01*
X61940316Y-69857908D01*
X61938949Y-69856722D01*
X61935995Y-69854835D01*
X61913817Y-69839063D01*
X61910047Y-69836244D01*
X61888343Y-69819187D01*
X61884595Y-69816229D01*
X61884578Y-69816205D01*
X61884503Y-69816157D01*
X61883275Y-69815188D01*
X61880404Y-69813528D01*
X61857057Y-69798561D01*
X61853145Y-69795919D01*
X61830498Y-69779814D01*
X61827891Y-69777769D01*
X61798257Y-69760730D01*
X61794191Y-69758260D01*
X61770745Y-69743229D01*
X61766872Y-69740467D01*
X61762674Y-69738561D01*
X61737586Y-69725711D01*
X61733386Y-69723430D01*
X61708909Y-69709356D01*
X61703625Y-69706319D01*
X61700986Y-69705277D01*
X61688597Y-69699676D01*
X61675072Y-69693562D01*
X61670745Y-69691477D01*
X61645232Y-69678410D01*
X61645228Y-69678408D01*
X61640159Y-69675811D01*
X61637606Y-69674947D01*
X61622238Y-69668888D01*
X61610828Y-69664388D01*
X61606386Y-69662510D01*
X61579785Y-69650485D01*
X61579784Y-69650484D01*
X61575061Y-69648348D01*
X61572760Y-69647693D01*
X61544953Y-69638285D01*
X61540369Y-69636607D01*
X61525079Y-69630578D01*
X61510142Y-69624689D01*
X61508395Y-69624000D01*
X61506324Y-69623520D01*
X61477519Y-69615340D01*
X61472858Y-69613891D01*
X61442102Y-69603485D01*
X61440264Y-69602863D01*
X61438511Y-69602547D01*
X61413531Y-69596782D01*
X61408667Y-69595660D01*
X61403918Y-69594438D01*
X61373815Y-69585890D01*
X61373801Y-69585886D01*
X61373801Y-69585885D01*
X61370794Y-69585032D01*
X61369350Y-69584845D01*
X61338441Y-69579324D01*
X61333589Y-69578332D01*
X61302322Y-69571117D01*
X61302313Y-69571115D01*
X61300035Y-69570589D01*
X61298990Y-69570507D01*
X61267035Y-69566446D01*
X61262111Y-69565694D01*
X61229545Y-69559878D01*
X61229545Y-69559877D01*
X61228141Y-69559627D01*
X61227498Y-69559609D01*
X61194458Y-69557096D01*
X61189488Y-69556591D01*
X61155670Y-69552294D01*
X61155670Y-69552295D01*
X61155182Y-69552233D01*
X61155003Y-69552237D01*
X61120899Y-69551375D01*
X61115894Y-69551122D01*
X61081204Y-69548484D01*
X61046410Y-69549364D01*
X61041404Y-69549364D01*
X61006612Y-69548484D01*
X60971919Y-69551122D01*
X60966915Y-69551375D01*
X60932813Y-69552237D01*
X60932513Y-69552230D01*
X60932145Y-69552295D01*
X60898327Y-69556591D01*
X60893360Y-69557095D01*
X60860310Y-69559609D01*
X60859328Y-69559636D01*
X60858267Y-69559879D01*
X60825704Y-69565694D01*
X60820779Y-69566446D01*
X60788819Y-69570507D01*
X60787206Y-69570634D01*
X60785495Y-69571116D01*
X60754224Y-69578332D01*
X60749372Y-69579324D01*
X60718458Y-69584846D01*
X60716257Y-69585130D01*
X60714010Y-69585887D01*
X60683919Y-69594431D01*
X60679144Y-69595660D01*
X60649311Y-69602546D01*
X60646588Y-69603036D01*
X60643834Y-69604120D01*
X60614987Y-69613880D01*
X60610307Y-69615335D01*
X60581500Y-69623517D01*
X60578305Y-69624258D01*
X60575164Y-69625677D01*
X60547430Y-69636612D01*
X60542847Y-69638289D01*
X60515057Y-69647692D01*
X60511511Y-69648702D01*
X60508055Y-69650472D01*
X60481433Y-69662506D01*
X60476973Y-69664393D01*
X60450209Y-69674947D01*
X60446306Y-69676268D01*
X60442628Y-69678385D01*
X60417072Y-69691474D01*
X60412726Y-69693568D01*
X60386918Y-69705236D01*
X60382786Y-69706863D01*
X60378900Y-69709359D01*
X60354423Y-69723431D01*
X60350214Y-69725717D01*
X60325143Y-69738559D01*
X60321071Y-69740408D01*
X60317307Y-69743075D01*
X60293603Y-69758270D01*
X60289526Y-69760747D01*
X60260131Y-69777649D01*
X60257672Y-69779561D01*
X60234700Y-69795897D01*
X60230758Y-69798560D01*
X60221041Y-69804789D01*
X60207245Y-69813633D01*
X60203362Y-69815887D01*
X60202890Y-69816222D01*
X60199407Y-69819237D01*
X60177760Y-69836248D01*
X60173962Y-69839088D01*
X60151712Y-69854910D01*
X60147797Y-69857418D01*
X60146849Y-69858162D01*
X60143430Y-69861435D01*
X60122924Y-69879198D01*
X60119275Y-69882209D01*
X60098074Y-69898870D01*
X60094359Y-69901497D01*
X60093010Y-69902665D01*
X60089851Y-69905988D01*
X60070258Y-69924668D01*
X60066764Y-69927844D01*
X60066763Y-69927845D01*
X60046350Y-69945527D01*
X60042675Y-69948404D01*
X60041555Y-69949471D01*
X60038494Y-69953015D01*
X60035664Y-69955985D01*
X60019857Y-69972565D01*
X60016514Y-69975907D01*
X59996891Y-69994614D01*
X59995450Y-69995989D01*
X59993280Y-69998059D01*
X59993198Y-69998101D01*
X59993012Y-69998315D01*
X59992805Y-69998513D01*
X59992802Y-69998518D01*
X59991620Y-69999648D01*
X59989414Y-70002468D01*
X59971758Y-70022851D01*
X59968583Y-70026345D01*
X59949902Y-70045938D01*
X59949901Y-70045937D01*
X59949412Y-70046451D01*
X59946424Y-70049586D01*
X59946344Y-70049632D01*
X59946168Y-70049854D01*
X59945999Y-70050033D01*
X59945989Y-70050056D01*
X59944800Y-70051310D01*
X59942787Y-70054156D01*
X59942653Y-70054328D01*
X59926129Y-70075354D01*
X59923120Y-70079000D01*
X59905290Y-70099582D01*
X59905291Y-70099583D01*
X59905024Y-70099891D01*
X59902025Y-70103354D01*
X59901952Y-70103401D01*
X59901798Y-70103617D01*
X59901685Y-70103748D01*
X59901681Y-70103757D01*
X59900605Y-70105003D01*
X59898771Y-70107872D01*
X59882999Y-70130052D01*
X59880159Y-70133850D01*
X59860172Y-70159284D01*
X59860120Y-70159321D01*
X59860014Y-70159486D01*
X59859949Y-70159569D01*
X59859946Y-70159576D01*
X59859057Y-70160710D01*
X59857472Y-70163449D01*
X59842476Y-70186841D01*
X59839820Y-70190772D01*
X59823467Y-70213768D01*
X59821562Y-70216219D01*
X59804652Y-70245629D01*
X59802172Y-70249712D01*
X59786993Y-70273389D01*
X59784354Y-70277113D01*
X59782528Y-70281124D01*
X59769631Y-70306301D01*
X59767346Y-70310507D01*
X59753227Y-70335066D01*
X59753226Y-70335069D01*
X59750238Y-70340266D01*
X59749196Y-70342902D01*
X59737481Y-70368813D01*
X59735389Y-70373157D01*
X59722302Y-70398710D01*
X59722301Y-70398711D01*
X59719730Y-70403730D01*
X59718864Y-70406288D01*
X59708301Y-70433076D01*
X59706412Y-70437542D01*
X59694385Y-70464146D01*
X59694384Y-70464149D01*
X59692264Y-70468837D01*
X59691606Y-70471148D01*
X59682201Y-70498942D01*
X59680524Y-70503524D01*
X59669592Y-70531250D01*
X59669591Y-70531251D01*
X59667915Y-70535499D01*
X59667433Y-70537579D01*
X59659257Y-70566370D01*
X59657801Y-70571055D01*
X59648034Y-70599922D01*
X59648030Y-70599932D01*
X59646780Y-70603624D01*
X59646461Y-70605395D01*
X59639580Y-70635208D01*
X59638350Y-70639989D01*
X59629796Y-70670110D01*
X59629796Y-70670111D01*
X59628948Y-70673094D01*
X59628760Y-70674553D01*
X59623240Y-70705457D01*
X59622247Y-70710309D01*
X59615031Y-70741580D01*
X59614504Y-70743862D01*
X59614422Y-70744904D01*
X59610361Y-70776864D01*
X59609609Y-70781791D01*
X59603793Y-70814356D01*
X59603542Y-70815758D01*
X59603524Y-70816414D01*
X59601010Y-70849456D01*
X59600505Y-70854425D01*
X59596210Y-70888218D01*
X59596211Y-70888219D01*
X59596147Y-70888720D01*
X59596151Y-70888889D01*
X59595288Y-70923012D01*
X59595035Y-70928017D01*
X59592398Y-70962680D01*
X58744407Y-70962680D01*
X58744407Y-44799500D01*
X58763314Y-44741309D01*
X58812814Y-44705345D01*
X58843407Y-44700500D01*
X69995151Y-44700500D01*
X69996617Y-44700511D01*
X70007091Y-44700666D01*
X70009121Y-44701447D01*
X70027801Y-44700972D01*
X70029775Y-44701002D01*
X70030489Y-44701246D01*
X70040197Y-44701707D01*
X70045073Y-44702296D01*
X70045079Y-44702298D01*
X70061460Y-44701049D01*
X70075882Y-44701005D01*
X70080727Y-44701343D01*
X70080733Y-44701345D01*
X70092596Y-44699835D01*
X70102569Y-44699076D01*
X70114567Y-44698772D01*
X70114569Y-44698770D01*
X70115311Y-44698752D01*
X70116037Y-44698622D01*
X70116042Y-44698623D01*
X70127982Y-44696486D01*
X70137869Y-44695228D01*
X70149986Y-44694306D01*
X70149987Y-44694305D01*
X70150264Y-44694284D01*
X70150453Y-44694273D01*
X70150891Y-44694161D01*
X70150893Y-44694162D01*
X70162838Y-44691401D01*
X70172608Y-44689654D01*
X70183892Y-44688218D01*
X70185087Y-44688094D01*
X70186646Y-44687612D01*
X70188694Y-44687029D01*
X70197236Y-44684600D01*
X70206857Y-44682376D01*
X70219168Y-44680175D01*
X70219169Y-44680173D01*
X70219476Y-44680119D01*
X70221904Y-44679228D01*
X70230965Y-44676159D01*
X70240427Y-44673470D01*
X70245727Y-44672244D01*
X70249204Y-44671441D01*
X70252499Y-44670765D01*
X70255982Y-44669294D01*
X70264115Y-44666084D01*
X70273355Y-44662955D01*
X70281167Y-44660734D01*
X70285250Y-44659678D01*
X70289459Y-44657649D01*
X70296502Y-44654462D01*
X70305534Y-44650900D01*
X70312446Y-44648558D01*
X70317074Y-44647116D01*
X70317254Y-44647064D01*
X70317719Y-44646797D01*
X70321972Y-44644483D01*
X70328145Y-44641318D01*
X70336929Y-44637344D01*
X70343050Y-44634928D01*
X70347761Y-44633207D01*
X70348428Y-44632982D01*
X70349129Y-44632529D01*
X70349132Y-44632529D01*
X70349133Y-44632527D01*
X70349347Y-44632390D01*
X70353600Y-44629798D01*
X70358943Y-44626723D01*
X70367501Y-44622336D01*
X70372949Y-44619872D01*
X70377564Y-44617925D01*
X70378753Y-44617458D01*
X70379555Y-44616883D01*
X70379559Y-44616882D01*
X70379561Y-44616879D01*
X70380062Y-44616521D01*
X70384260Y-44613674D01*
X70388931Y-44610678D01*
X70397209Y-44605916D01*
X70401991Y-44603465D01*
X70406584Y-44601260D01*
X70407085Y-44601034D01*
X70407088Y-44601034D01*
X70407089Y-44601032D01*
X70408182Y-44600542D01*
X70409072Y-44599836D01*
X70409077Y-44599834D01*
X70409080Y-44599830D01*
X70409705Y-44599335D01*
X70413811Y-44596249D01*
X70417992Y-44593275D01*
X70425971Y-44588156D01*
X70430304Y-44585663D01*
X70434821Y-44583220D01*
X70435502Y-44582873D01*
X70435509Y-44582872D01*
X70435514Y-44582867D01*
X70436683Y-44582274D01*
X70437618Y-44581455D01*
X70437624Y-44581453D01*
X70437627Y-44581448D01*
X70438423Y-44580753D01*
X70442417Y-44577441D01*
X70446077Y-44574564D01*
X70453788Y-44569078D01*
X70457722Y-44566555D01*
X70462181Y-44563859D01*
X70462989Y-44563398D01*
X70462995Y-44563397D01*
X70462999Y-44563393D01*
X70464207Y-44562706D01*
X70465168Y-44561780D01*
X70465173Y-44561777D01*
X70465176Y-44561772D01*
X70466034Y-44560946D01*
X70469894Y-44557418D01*
X70473226Y-44554532D01*
X70480623Y-44548716D01*
X70484195Y-44546175D01*
X70488537Y-44543258D01*
X70489486Y-44542655D01*
X70489493Y-44542653D01*
X70489498Y-44542647D01*
X70490710Y-44541879D01*
X70491679Y-44540851D01*
X70491686Y-44540847D01*
X70491690Y-44540840D01*
X70492551Y-44539928D01*
X70496237Y-44536221D01*
X70499319Y-44533283D01*
X70506435Y-44527120D01*
X70509743Y-44524520D01*
X70513978Y-44521371D01*
X70516166Y-44519832D01*
X70517108Y-44518731D01*
X70517111Y-44518729D01*
X70517112Y-44518726D01*
X70517937Y-44517763D01*
X70521504Y-44513813D01*
X70524340Y-44510839D01*
X70531148Y-44504350D01*
X70534228Y-44501681D01*
X70538349Y-44498299D01*
X70539347Y-44497523D01*
X70539352Y-44497521D01*
X70539354Y-44497517D01*
X70539357Y-44497516D01*
X70540322Y-44496401D01*
X70541427Y-44495445D01*
X70541805Y-44494689D01*
X70548268Y-44487228D01*
X70554748Y-44480433D01*
X70557737Y-44477582D01*
X70561630Y-44474065D01*
X70562628Y-44473209D01*
X70562631Y-44473208D01*
X70562632Y-44473205D01*
X70562636Y-44473203D01*
X70563547Y-44472042D01*
X70564591Y-44471049D01*
X70564929Y-44470284D01*
X70571037Y-44462512D01*
X70577169Y-44455433D01*
X70580146Y-44452310D01*
X70583861Y-44448619D01*
X70584753Y-44447776D01*
X70584763Y-44447771D01*
X70585604Y-44446588D01*
X70586560Y-44445586D01*
X70586848Y-44444838D01*
X70592621Y-44436721D01*
X70598448Y-44429308D01*
X70601348Y-44425961D01*
X70604883Y-44422094D01*
X70605667Y-44421278D01*
X70605676Y-44421273D01*
X70606432Y-44420094D01*
X70607304Y-44419088D01*
X70607547Y-44418354D01*
X70612974Y-44409895D01*
X70618451Y-44402196D01*
X70621356Y-44398501D01*
X70624659Y-44394520D01*
X70625360Y-44393716D01*
X70625364Y-44393714D01*
X70625366Y-44393709D01*
X70625368Y-44393708D01*
X70626032Y-44392552D01*
X70626776Y-44391608D01*
X70626966Y-44390928D01*
X70632073Y-44382050D01*
X70637207Y-44374045D01*
X70640099Y-44369980D01*
X70643196Y-44365858D01*
X70643742Y-44365167D01*
X70643747Y-44365164D01*
X70644316Y-44364053D01*
X70644946Y-44363168D01*
X70645088Y-44362546D01*
X70649818Y-44353315D01*
X70654580Y-44345035D01*
X70657635Y-44340274D01*
X70660460Y-44336110D01*
X70660777Y-44335665D01*
X70660783Y-44335660D01*
X70661230Y-44334671D01*
X70661758Y-44333849D01*
X70661860Y-44333279D01*
X70666241Y-44323596D01*
X70670618Y-44315053D01*
X70673681Y-44309730D01*
X70676278Y-44305471D01*
X70676436Y-44305223D01*
X70676441Y-44305219D01*
X70676796Y-44304319D01*
X70677188Y-44303638D01*
X70677248Y-44303172D01*
X70681259Y-44293008D01*
X70685242Y-44284202D01*
X70686719Y-44281321D01*
X70688361Y-44278115D01*
X70690636Y-44273939D01*
X70690894Y-44273174D01*
X70691178Y-44272623D01*
X70691207Y-44272250D01*
X70692464Y-44268540D01*
X70694799Y-44261646D01*
X70698360Y-44252621D01*
X70701583Y-44245499D01*
X70703332Y-44241873D01*
X70703513Y-44241234D01*
X70703689Y-44240847D01*
X70703697Y-44240587D01*
X70706869Y-44229430D01*
X70709999Y-44220185D01*
X70713171Y-44212146D01*
X70714484Y-44209042D01*
X70714606Y-44208511D01*
X70714681Y-44208323D01*
X70714678Y-44208198D01*
X70715332Y-44205359D01*
X70715333Y-44205355D01*
X70715336Y-44205337D01*
X70717368Y-44196548D01*
X70720050Y-44187108D01*
X70723172Y-44177895D01*
X70724034Y-44175546D01*
X70726286Y-44162952D01*
X70728514Y-44153301D01*
X70731492Y-44142825D01*
X70732006Y-44141170D01*
X70732149Y-44139783D01*
X70733556Y-44128729D01*
X70735302Y-44118966D01*
X70738070Y-44106993D01*
X70738069Y-44106990D01*
X70738082Y-44106937D01*
X70738186Y-44106487D01*
X70738194Y-44106340D01*
X70739136Y-44093967D01*
X70740397Y-44084050D01*
X70742530Y-44072125D01*
X70742529Y-44072123D01*
X70742663Y-44071378D01*
X70742681Y-44070654D01*
X70742682Y-44070653D01*
X70742985Y-44058668D01*
X70743742Y-44048707D01*
X70745254Y-44036835D01*
X70745252Y-44036830D01*
X70744913Y-44031965D01*
X70744957Y-44017553D01*
X70746206Y-44001171D01*
X70746205Y-44001167D01*
X70745614Y-43996278D01*
X70744908Y-43985850D01*
X70744878Y-43983873D01*
X70745352Y-43965207D01*
X70744572Y-43963181D01*
X70744418Y-43952714D01*
X70744507Y-43952423D01*
X70744407Y-43951250D01*
X70744407Y-39943079D01*
X77554350Y-39943079D01*
X77554351Y-39943079D01*
X94974401Y-39943079D01*
X94974402Y-39943079D01*
X94974402Y-35959753D01*
X77554350Y-35959753D01*
X77554350Y-39943079D01*
X70744407Y-39943079D01*
X70744407Y-32078251D01*
X70744418Y-32076789D01*
X70744572Y-32066323D01*
X70745349Y-32064307D01*
X70744877Y-32045653D01*
X70744907Y-32043689D01*
X70745151Y-32042972D01*
X70745616Y-32033236D01*
X70746201Y-32028400D01*
X70746203Y-32028396D01*
X70744960Y-32012040D01*
X70744921Y-31997610D01*
X70745259Y-31992796D01*
X70743749Y-31980897D01*
X70742993Y-31970930D01*
X70742830Y-31964507D01*
X70742689Y-31958885D01*
X70742688Y-31958883D01*
X70742672Y-31958239D01*
X70742551Y-31957562D01*
X70742552Y-31957559D01*
X70740413Y-31945562D01*
X70739162Y-31935690D01*
X70738249Y-31923659D01*
X70738221Y-31923129D01*
X70738068Y-31922531D01*
X70735345Y-31910715D01*
X70733610Y-31900971D01*
X70732241Y-31890182D01*
X70732076Y-31888574D01*
X70731528Y-31886796D01*
X70728588Y-31876424D01*
X70726377Y-31866825D01*
X70724667Y-31857232D01*
X70724264Y-31854595D01*
X70723246Y-31851789D01*
X70720171Y-31842684D01*
X70717495Y-31833240D01*
X70715558Y-31824835D01*
X70714820Y-31821221D01*
X70713261Y-31817521D01*
X70710156Y-31809632D01*
X70707036Y-31800389D01*
X70704892Y-31792825D01*
X70703781Y-31788505D01*
X70703738Y-31788421D01*
X70701657Y-31784095D01*
X70701581Y-31783927D01*
X70698576Y-31777269D01*
X70695027Y-31768247D01*
X70692765Y-31761550D01*
X70691327Y-31756914D01*
X70691219Y-31756534D01*
X70690865Y-31755919D01*
X70688511Y-31751583D01*
X70685492Y-31745677D01*
X70681522Y-31736875D01*
X70679212Y-31731006D01*
X70677505Y-31726328D01*
X70677505Y-31726325D01*
X70677502Y-31726319D01*
X70677192Y-31725399D01*
X70676483Y-31724295D01*
X70673910Y-31720061D01*
X70670939Y-31714884D01*
X70666572Y-31706339D01*
X70664214Y-31701114D01*
X70662259Y-31696468D01*
X70662141Y-31696167D01*
X70662141Y-31696164D01*
X70662138Y-31696160D01*
X70661723Y-31695097D01*
X70660618Y-31693548D01*
X70657828Y-31689421D01*
X70654976Y-31684964D01*
X70650213Y-31676661D01*
X70647871Y-31672079D01*
X70645647Y-31667435D01*
X70645382Y-31666844D01*
X70645382Y-31666841D01*
X70645379Y-31666838D01*
X70644868Y-31665694D01*
X70643499Y-31663961D01*
X70640440Y-31659877D01*
X70637611Y-31655890D01*
X70632488Y-31647881D01*
X70630167Y-31643837D01*
X70627685Y-31639235D01*
X70626666Y-31637220D01*
X70625025Y-31635339D01*
X70621714Y-31631335D01*
X70618958Y-31627819D01*
X70613479Y-31620096D01*
X70611093Y-31616366D01*
X70608411Y-31611920D01*
X70607867Y-31610962D01*
X70607866Y-31610959D01*
X70607863Y-31610956D01*
X70607154Y-31609707D01*
X70605239Y-31607712D01*
X70601763Y-31603897D01*
X70599004Y-31600704D01*
X70593169Y-31593261D01*
X70590792Y-31589911D01*
X70587873Y-31585558D01*
X70587192Y-31584482D01*
X70587191Y-31584479D01*
X70587188Y-31584476D01*
X70586387Y-31583210D01*
X70584284Y-31581221D01*
X70580582Y-31577529D01*
X70577832Y-31574638D01*
X70571664Y-31567501D01*
X70569195Y-31564352D01*
X70566062Y-31560127D01*
X70564413Y-31557775D01*
X70563266Y-31556790D01*
X70563265Y-31556789D01*
X70563262Y-31556787D01*
X70562203Y-31555878D01*
X70558276Y-31552320D01*
X70555436Y-31549605D01*
X70548942Y-31542776D01*
X70546403Y-31539838D01*
X70543047Y-31535738D01*
X70542182Y-31534621D01*
X70541025Y-31533616D01*
X70540041Y-31532477D01*
X70539263Y-31532086D01*
X70534868Y-31528269D01*
X70534866Y-31528267D01*
X70531903Y-31525694D01*
X70525090Y-31519181D01*
X70522394Y-31516346D01*
X70518839Y-31512401D01*
X70517946Y-31511355D01*
X70517943Y-31511353D01*
X70517943Y-31511352D01*
X70516751Y-31510412D01*
X70515714Y-31509322D01*
X70514921Y-31508970D01*
X70510357Y-31505372D01*
X70510355Y-31505370D01*
X70507265Y-31502934D01*
X70500136Y-31496742D01*
X70497225Y-31493959D01*
X70493513Y-31490216D01*
X70492576Y-31489219D01*
X70491354Y-31488347D01*
X70490312Y-31487351D01*
X70489534Y-31487049D01*
X70484892Y-31483737D01*
X70484891Y-31483736D01*
X70481529Y-31481338D01*
X70474091Y-31475477D01*
X70470945Y-31472744D01*
X70467106Y-31469227D01*
X70466137Y-31468291D01*
X70464906Y-31467499D01*
X70463876Y-31466604D01*
X70463122Y-31466351D01*
X70458439Y-31463339D01*
X70458438Y-31463338D01*
X70455815Y-31461651D01*
X70454783Y-31460987D01*
X70447060Y-31455479D01*
X70443502Y-31452674D01*
X70439530Y-31449370D01*
X70438659Y-31448606D01*
X70437469Y-31447919D01*
X70436463Y-31447126D01*
X70435743Y-31446923D01*
X70427004Y-31441878D01*
X70419004Y-31436732D01*
X70415054Y-31433914D01*
X70410934Y-31430810D01*
X70410175Y-31430206D01*
X70410174Y-31430205D01*
X70409030Y-31429616D01*
X70408093Y-31428948D01*
X70407434Y-31428795D01*
X70405143Y-31427616D01*
X70402882Y-31426453D01*
X70398282Y-31424087D01*
X70390005Y-31419310D01*
X70385536Y-31416435D01*
X70381385Y-31413614D01*
X70380738Y-31413150D01*
X70380736Y-31413148D01*
X70380732Y-31413146D01*
X70379675Y-31412666D01*
X70378824Y-31412118D01*
X70378233Y-31412011D01*
X70373843Y-31410016D01*
X70373835Y-31410012D01*
X70368670Y-31407666D01*
X70360142Y-31403280D01*
X70354970Y-31400295D01*
X70350710Y-31397691D01*
X70350377Y-31397475D01*
X70349439Y-31397103D01*
X70348694Y-31396673D01*
X70348184Y-31396605D01*
X70343997Y-31394945D01*
X70338147Y-31392625D01*
X70329366Y-31388637D01*
X70323478Y-31385609D01*
X70319176Y-31383261D01*
X70319139Y-31383239D01*
X70318337Y-31382966D01*
X70317739Y-31382658D01*
X70317334Y-31382624D01*
X70313490Y-31381316D01*
X70313461Y-31381307D01*
X70306823Y-31379045D01*
X70297812Y-31375473D01*
X70290968Y-31372363D01*
X70287150Y-31370515D01*
X70287083Y-31370495D01*
X70287082Y-31370495D01*
X70286465Y-31370318D01*
X70286022Y-31370117D01*
X70285726Y-31370107D01*
X70282222Y-31369103D01*
X70282221Y-31369102D01*
X70274715Y-31366954D01*
X70265466Y-31363805D01*
X70257610Y-31360690D01*
X70254398Y-31359327D01*
X70253841Y-31359197D01*
X70253576Y-31359092D01*
X70253398Y-31359093D01*
X70250435Y-31358403D01*
X70241878Y-31356408D01*
X70232441Y-31353708D01*
X70223412Y-31350633D01*
X70220916Y-31349717D01*
X70220501Y-31349642D01*
X70220463Y-31349629D01*
X70220435Y-31349630D01*
X70218410Y-31349265D01*
X70218408Y-31349264D01*
X70218377Y-31349259D01*
X70208342Y-31347444D01*
X70198718Y-31345203D01*
X70188412Y-31342253D01*
X70186813Y-31341755D01*
X70185989Y-31341648D01*
X70185202Y-31341546D01*
X70185200Y-31341545D01*
X70174211Y-31340123D01*
X70164447Y-31338358D01*
X70152668Y-31335612D01*
X70152113Y-31335469D01*
X70151634Y-31335431D01*
X70151602Y-31335430D01*
X70139493Y-31334480D01*
X70129613Y-31333202D01*
X70116961Y-31330913D01*
X70104265Y-31330560D01*
X70094309Y-31329779D01*
X70082403Y-31328237D01*
X70077574Y-31328564D01*
X70063153Y-31328485D01*
X70046810Y-31327202D01*
X70046808Y-31327202D01*
X70046806Y-31327202D01*
X70046803Y-31327202D01*
X70041948Y-31327778D01*
X70031513Y-31328458D01*
X70029544Y-31328482D01*
X70010895Y-31327964D01*
X70008876Y-31328735D01*
X69998418Y-31328863D01*
X69998127Y-31328772D01*
X69996953Y-31328870D01*
X58843153Y-31300258D01*
X58785011Y-31281201D01*
X58749174Y-31231609D01*
X58744407Y-31201258D01*
X58744407Y-28962688D01*
X59592398Y-28962688D01*
X59593279Y-28997492D01*
X59593279Y-29002498D01*
X59592398Y-29037306D01*
X59595035Y-29071973D01*
X59595288Y-29076978D01*
X59596151Y-29111113D01*
X59596144Y-29111398D01*
X59596212Y-29111782D01*
X59600505Y-29145568D01*
X59601010Y-29150537D01*
X59603524Y-29183581D01*
X59603552Y-29184583D01*
X59603793Y-29185638D01*
X59609608Y-29218201D01*
X59610360Y-29223123D01*
X59614422Y-29255083D01*
X59614549Y-29256701D01*
X59615032Y-29258414D01*
X59622248Y-29289685D01*
X59623241Y-29294538D01*
X59628761Y-29325443D01*
X59629047Y-29327655D01*
X59629801Y-29329893D01*
X59638353Y-29360010D01*
X59639571Y-29364745D01*
X59646460Y-29394591D01*
X59646468Y-29394625D01*
X59646955Y-29397322D01*
X59648033Y-29400064D01*
X59657796Y-29428920D01*
X59659252Y-29433602D01*
X59667433Y-29462409D01*
X59668176Y-29465612D01*
X59669599Y-29468760D01*
X59680524Y-29496468D01*
X59682203Y-29501054D01*
X59691605Y-29528843D01*
X59692620Y-29532405D01*
X59694396Y-29535871D01*
X59706417Y-29562460D01*
X59708307Y-29566929D01*
X59718866Y-29593708D01*
X59720190Y-29597619D01*
X59722325Y-29601323D01*
X59722353Y-29601377D01*
X59735394Y-29626840D01*
X59737487Y-29631186D01*
X59749179Y-29657048D01*
X59750800Y-29661154D01*
X59753270Y-29664999D01*
X59767345Y-29689480D01*
X59769633Y-29693692D01*
X59782333Y-29718487D01*
X59784257Y-29722759D01*
X59784477Y-29723141D01*
X59787276Y-29727046D01*
X59802177Y-29750288D01*
X59804657Y-29754371D01*
X59821755Y-29784108D01*
X59823880Y-29786801D01*
X59839818Y-29809215D01*
X59842477Y-29813151D01*
X59855517Y-29833489D01*
X59857098Y-29835956D01*
X59857239Y-29836175D01*
X59858981Y-29839215D01*
X59860082Y-29840609D01*
X59860121Y-29840671D01*
X59860141Y-29840685D01*
X59863057Y-29844379D01*
X59863066Y-29844403D01*
X59863183Y-29844539D01*
X59880161Y-29866143D01*
X59880171Y-29866155D01*
X59883002Y-29869942D01*
X59898628Y-29891916D01*
X59898733Y-29892063D01*
X59901440Y-29896302D01*
X59901904Y-29896892D01*
X59905420Y-29900557D01*
X59905549Y-29900706D01*
X59923106Y-29920974D01*
X59926116Y-29924622D01*
X59942812Y-29945867D01*
X59944299Y-29947758D01*
X59945971Y-29949886D01*
X59945999Y-29949958D01*
X59946162Y-29950129D01*
X59946342Y-29950358D01*
X59946343Y-29950358D01*
X59947361Y-29951653D01*
X59950000Y-29954155D01*
X59968599Y-29973662D01*
X59971755Y-29977135D01*
X59989380Y-29997482D01*
X59989399Y-29997505D01*
X59992770Y-30001398D01*
X59992805Y-30001478D01*
X59992995Y-30001659D01*
X59994260Y-30003120D01*
X59997023Y-30005500D01*
X60016516Y-30024084D01*
X60019851Y-30027419D01*
X60040362Y-30048933D01*
X60041974Y-30050625D01*
X60042015Y-30050706D01*
X60042219Y-30050882D01*
X60043604Y-30052336D01*
X60046525Y-30054613D01*
X60066764Y-30072144D01*
X60070242Y-30075306D01*
X60089797Y-30093951D01*
X60089798Y-30093951D01*
X60089859Y-30094009D01*
X60093502Y-30097482D01*
X60093549Y-30097565D01*
X60093778Y-30097745D01*
X60093948Y-30097907D01*
X60093949Y-30097907D01*
X60095209Y-30099108D01*
X60098171Y-30101197D01*
X60119285Y-30117789D01*
X60122915Y-30120785D01*
X60130705Y-30127533D01*
X60143507Y-30138623D01*
X60143610Y-30138712D01*
X60147284Y-30141904D01*
X60147315Y-30141952D01*
X60147448Y-30142046D01*
X60148818Y-30143236D01*
X60151809Y-30145148D01*
X60173991Y-30160922D01*
X60177742Y-30163727D01*
X60198926Y-30180374D01*
X60199107Y-30180516D01*
X60202863Y-30183792D01*
X60203928Y-30184548D01*
X60208153Y-30186940D01*
X60230743Y-30201421D01*
X60234683Y-30204082D01*
X60236856Y-30205627D01*
X60257163Y-30220068D01*
X60258240Y-30220846D01*
X60264882Y-30225711D01*
X60269943Y-30227982D01*
X60289525Y-30239242D01*
X60289530Y-30239245D01*
X60293595Y-30241714D01*
X60321105Y-30259350D01*
X60321106Y-30259350D01*
X60321178Y-30259396D01*
X60321186Y-30259405D01*
X60321216Y-30259420D01*
X60322607Y-30260312D01*
X60325473Y-30261601D01*
X60350220Y-30274275D01*
X60354426Y-30276559D01*
X60378913Y-30290640D01*
X60384231Y-30293698D01*
X60386922Y-30294757D01*
X60412714Y-30306417D01*
X60412727Y-30306423D01*
X60417073Y-30308517D01*
X60442580Y-30321581D01*
X60447687Y-30324197D01*
X60450272Y-30325070D01*
X60476968Y-30335596D01*
X60481432Y-30337483D01*
X60511099Y-30350895D01*
X60511101Y-30350895D01*
X60512774Y-30351651D01*
X60515093Y-30352311D01*
X60542897Y-30361718D01*
X60547407Y-30363370D01*
X60577671Y-30375303D01*
X60577673Y-30375302D01*
X60579435Y-30375997D01*
X60581521Y-30376481D01*
X60610291Y-30384650D01*
X60614943Y-30386095D01*
X60645712Y-30396507D01*
X60645713Y-30396506D01*
X60647553Y-30397129D01*
X60649337Y-30397450D01*
X60672668Y-30402835D01*
X60679150Y-30404331D01*
X60683902Y-30405552D01*
X60715108Y-30414415D01*
X60715110Y-30414414D01*
X60717036Y-30414961D01*
X60718464Y-30415146D01*
X60749399Y-30420670D01*
X60754184Y-30421649D01*
X60785759Y-30428937D01*
X60785760Y-30428936D01*
X60787776Y-30429402D01*
X60788820Y-30429484D01*
X60820805Y-30433548D01*
X60825695Y-30434295D01*
X60857557Y-30439986D01*
X60857559Y-30439985D01*
X60858256Y-30440110D01*
X60858258Y-30440110D01*
X60859685Y-30440365D01*
X60860328Y-30440383D01*
X60861131Y-30440444D01*
X60861133Y-30440445D01*
X60893386Y-30442897D01*
X60898312Y-30443397D01*
X60930392Y-30447474D01*
X60930392Y-30447473D01*
X60932142Y-30447696D01*
X60932148Y-30447697D01*
X60932631Y-30447758D01*
X60932833Y-30447754D01*
X60934642Y-30447799D01*
X60934643Y-30447800D01*
X60966922Y-30448615D01*
X60971902Y-30448867D01*
X61004147Y-30451320D01*
X61004148Y-30451319D01*
X61006603Y-30451506D01*
X61009103Y-30451442D01*
X61009107Y-30451444D01*
X61041418Y-30450626D01*
X61046396Y-30450626D01*
X61078707Y-30451444D01*
X61078710Y-30451442D01*
X61081211Y-30451506D01*
X61083665Y-30451319D01*
X61083667Y-30451320D01*
X61115914Y-30448867D01*
X61120890Y-30448615D01*
X61153171Y-30447800D01*
X61153171Y-30447799D01*
X61154992Y-30447754D01*
X61155303Y-30447760D01*
X61155684Y-30447694D01*
X61157419Y-30447473D01*
X61157422Y-30447474D01*
X61189489Y-30443398D01*
X61194430Y-30442897D01*
X61226681Y-30440445D01*
X61226682Y-30440444D01*
X61227488Y-30440383D01*
X61228487Y-30440355D01*
X61229563Y-30440109D01*
X61230254Y-30439985D01*
X61230257Y-30439986D01*
X61262130Y-30434293D01*
X61267001Y-30433548D01*
X61298996Y-30429483D01*
X61300609Y-30429357D01*
X61302301Y-30428880D01*
X61333643Y-30421646D01*
X61338436Y-30420666D01*
X61369349Y-30415146D01*
X61371562Y-30414860D01*
X61373835Y-30414094D01*
X61403892Y-30405558D01*
X61408660Y-30404331D01*
X61438488Y-30397447D01*
X61441233Y-30396954D01*
X61444000Y-30395864D01*
X61472829Y-30386108D01*
X61477499Y-30384655D01*
X61506313Y-30376474D01*
X61509518Y-30375732D01*
X61512688Y-30374298D01*
X61540379Y-30363379D01*
X61544940Y-30361710D01*
X61572719Y-30352311D01*
X61576310Y-30351290D01*
X61579807Y-30349496D01*
X61606389Y-30337479D01*
X61610805Y-30335611D01*
X61637561Y-30325062D01*
X61641520Y-30323725D01*
X61645266Y-30321564D01*
X61670780Y-30308496D01*
X61675071Y-30306429D01*
X61700836Y-30294782D01*
X61705036Y-30293131D01*
X61708953Y-30290610D01*
X61733413Y-30276544D01*
X61737556Y-30274294D01*
X61762261Y-30261641D01*
X61766521Y-30259732D01*
X61767085Y-30259407D01*
X61770999Y-30256599D01*
X61794236Y-30241702D01*
X61798287Y-30239242D01*
X61821194Y-30226070D01*
X61826251Y-30223562D01*
X61826374Y-30223482D01*
X61830912Y-30219882D01*
X61853114Y-30204093D01*
X61853140Y-30204074D01*
X61857004Y-30201463D01*
X61879655Y-30186943D01*
X61884269Y-30184335D01*
X61884786Y-30183966D01*
X61888874Y-30180383D01*
X61910077Y-30163722D01*
X61913828Y-30160917D01*
X61936428Y-30144846D01*
X61940113Y-30142233D01*
X61940153Y-30142220D01*
X61940246Y-30142138D01*
X61941870Y-30140987D01*
X61944547Y-30138412D01*
X61964895Y-30120785D01*
X61968527Y-30117789D01*
X61989612Y-30101219D01*
X61993846Y-30098237D01*
X61994529Y-30097644D01*
X61998128Y-30093843D01*
X62017572Y-30075305D01*
X62021052Y-30072141D01*
X62041264Y-30054632D01*
X62045399Y-30051412D01*
X62046053Y-30050788D01*
X62049460Y-30046827D01*
X62067957Y-30027425D01*
X62067997Y-30027382D01*
X62071306Y-30024073D01*
X62090759Y-30005527D01*
X62094836Y-30002019D01*
X62095253Y-30001582D01*
X62098543Y-29997354D01*
X62116074Y-29977116D01*
X62119227Y-29973649D01*
X62119237Y-29973639D01*
X62138390Y-29953549D01*
X62141400Y-29950398D01*
X62141472Y-29950359D01*
X62141624Y-29950164D01*
X62143037Y-29948686D01*
X62145179Y-29945639D01*
X62161703Y-29924612D01*
X62164683Y-29921001D01*
X62182288Y-29900676D01*
X62182382Y-29900570D01*
X62185821Y-29896613D01*
X62185862Y-29896589D01*
X62185945Y-29896471D01*
X62187219Y-29895006D01*
X62189184Y-29891916D01*
X62204541Y-29870320D01*
X62204815Y-29869934D01*
X62207651Y-29866143D01*
X62224424Y-29844800D01*
X62224591Y-29844588D01*
X62227676Y-29840682D01*
X62227692Y-29840672D01*
X62227721Y-29840626D01*
X62228912Y-29839119D01*
X62230707Y-29835967D01*
X62245364Y-29813105D01*
X62247994Y-29809215D01*
X62263741Y-29787070D01*
X62265964Y-29784272D01*
X62283148Y-29754384D01*
X62285613Y-29750324D01*
X62300551Y-29727025D01*
X62303341Y-29723133D01*
X62303602Y-29722680D01*
X62305521Y-29718408D01*
X62318186Y-29693678D01*
X62320467Y-29689480D01*
X62336734Y-29661190D01*
X62336734Y-29661186D01*
X62337614Y-29659656D01*
X62338679Y-29656951D01*
X62350330Y-29631177D01*
X62352419Y-29626840D01*
X62367279Y-29597828D01*
X62367279Y-29597824D01*
X62368100Y-29596222D01*
X62368965Y-29593664D01*
X62379530Y-29566866D01*
X62381378Y-29562495D01*
X62394801Y-29532809D01*
X62394801Y-29532806D01*
X62395560Y-29531128D01*
X62396215Y-29528823D01*
X62405624Y-29501011D01*
X62407278Y-29496495D01*
X62419210Y-29466236D01*
X62419209Y-29466233D01*
X62419901Y-29464480D01*
X62420386Y-29462388D01*
X62428570Y-29433569D01*
X62430006Y-29428951D01*
X62440414Y-29398193D01*
X62440413Y-29398190D01*
X62441034Y-29396358D01*
X62441348Y-29394615D01*
X62448244Y-29364729D01*
X62449466Y-29359984D01*
X62458322Y-29328801D01*
X62458321Y-29328798D01*
X62458868Y-29326874D01*
X62459055Y-29325430D01*
X62461423Y-29312169D01*
X62464573Y-29294530D01*
X62465564Y-29289685D01*
X62472844Y-29258144D01*
X62472843Y-29258142D01*
X62473310Y-29256121D01*
X62473393Y-29255071D01*
X62477455Y-29223102D01*
X62478202Y-29218212D01*
X62483893Y-29186350D01*
X62483892Y-29186348D01*
X62484019Y-29185642D01*
X62484020Y-29185636D01*
X62484271Y-29184226D01*
X62484290Y-29183575D01*
X62484350Y-29182775D01*
X62484352Y-29182773D01*
X62486804Y-29150518D01*
X62487307Y-29145570D01*
X62491381Y-29113514D01*
X62491380Y-29113511D01*
X62491601Y-29111776D01*
X62491601Y-29111773D01*
X62491665Y-29111268D01*
X62491661Y-29111084D01*
X62492522Y-29076996D01*
X62492775Y-29071990D01*
X62492776Y-29071978D01*
X62495227Y-29039759D01*
X62495225Y-29039754D01*
X62495413Y-29037288D01*
X62495350Y-29034802D01*
X62495351Y-29034800D01*
X62494534Y-29002486D01*
X62494534Y-28997491D01*
X62495414Y-28962712D01*
X62495412Y-28962688D01*
X177592398Y-28962688D01*
X177593279Y-28997492D01*
X177593279Y-29002498D01*
X177592398Y-29037306D01*
X177595035Y-29071973D01*
X177595288Y-29076978D01*
X177596151Y-29111113D01*
X177596144Y-29111398D01*
X177596212Y-29111782D01*
X177600505Y-29145567D01*
X177601010Y-29150535D01*
X177603524Y-29183576D01*
X177603552Y-29184583D01*
X177603797Y-29185655D01*
X177609608Y-29218196D01*
X177610360Y-29223120D01*
X177614420Y-29255069D01*
X177614548Y-29256697D01*
X177615023Y-29258385D01*
X177622248Y-29289685D01*
X177623241Y-29294541D01*
X177628757Y-29325430D01*
X177628761Y-29325449D01*
X177629045Y-29327649D01*
X177629806Y-29329907D01*
X177638349Y-29359991D01*
X177639578Y-29364772D01*
X177646466Y-29394618D01*
X177646955Y-29397328D01*
X177648031Y-29400064D01*
X177657798Y-29428930D01*
X177659255Y-29433615D01*
X177667433Y-29462412D01*
X177668176Y-29465614D01*
X177669600Y-29468765D01*
X177680523Y-29496468D01*
X177682202Y-29501054D01*
X177691604Y-29528843D01*
X177692619Y-29532405D01*
X177694395Y-29535871D01*
X177706416Y-29562460D01*
X177708306Y-29566929D01*
X177718865Y-29593708D01*
X177720189Y-29597619D01*
X177722324Y-29601323D01*
X177722352Y-29601377D01*
X177735393Y-29626840D01*
X177737486Y-29631186D01*
X177749178Y-29657048D01*
X177750799Y-29661154D01*
X177753269Y-29664999D01*
X177767344Y-29689480D01*
X177769632Y-29693692D01*
X177782332Y-29718487D01*
X177784256Y-29722759D01*
X177784476Y-29723141D01*
X177787275Y-29727046D01*
X177802176Y-29750288D01*
X177804656Y-29754371D01*
X177821754Y-29784108D01*
X177823879Y-29786801D01*
X177839817Y-29809215D01*
X177842476Y-29813151D01*
X177855516Y-29833489D01*
X177857097Y-29835956D01*
X177857238Y-29836175D01*
X177858980Y-29839215D01*
X177860081Y-29840609D01*
X177860120Y-29840671D01*
X177860140Y-29840685D01*
X177863056Y-29844379D01*
X177863065Y-29844403D01*
X177863182Y-29844539D01*
X177880160Y-29866143D01*
X177880170Y-29866155D01*
X177883001Y-29869942D01*
X177898627Y-29891916D01*
X177898732Y-29892063D01*
X177901439Y-29896302D01*
X177901903Y-29896892D01*
X177905419Y-29900557D01*
X177905548Y-29900706D01*
X177923105Y-29920974D01*
X177926115Y-29924622D01*
X177942811Y-29945867D01*
X177944298Y-29947758D01*
X177945970Y-29949886D01*
X177945998Y-29949958D01*
X177946161Y-29950129D01*
X177946341Y-29950358D01*
X177946342Y-29950358D01*
X177947360Y-29951653D01*
X177949999Y-29954155D01*
X177968594Y-29973658D01*
X177971753Y-29977134D01*
X177974169Y-29979923D01*
X177992765Y-30001392D01*
X177992803Y-30001476D01*
X177993006Y-30001670D01*
X177993198Y-30001891D01*
X177993206Y-30001895D01*
X177994318Y-30003177D01*
X177997062Y-30005538D01*
X178016511Y-30024080D01*
X178019847Y-30027416D01*
X178039483Y-30048012D01*
X178041973Y-30050627D01*
X178042013Y-30050706D01*
X178042209Y-30050875D01*
X178043602Y-30052338D01*
X178046534Y-30054622D01*
X178066740Y-30072126D01*
X178070233Y-30075301D01*
X178089846Y-30094000D01*
X178089855Y-30094009D01*
X178093502Y-30097487D01*
X178093547Y-30097565D01*
X178093757Y-30097730D01*
X178095105Y-30099015D01*
X178098014Y-30101075D01*
X178098171Y-30101199D01*
X178119272Y-30117781D01*
X178122921Y-30120792D01*
X178143504Y-30138622D01*
X178143608Y-30138712D01*
X178147282Y-30141904D01*
X178147313Y-30141952D01*
X178147446Y-30142046D01*
X178148817Y-30143237D01*
X178151812Y-30145151D01*
X178173958Y-30160900D01*
X178177754Y-30163739D01*
X178199264Y-30180642D01*
X178199285Y-30180658D01*
X178203195Y-30183732D01*
X178203234Y-30183787D01*
X178203401Y-30183894D01*
X178204840Y-30185025D01*
X178207824Y-30186730D01*
X178230756Y-30201431D01*
X178234696Y-30204093D01*
X178243204Y-30210143D01*
X178256868Y-30219860D01*
X178261934Y-30223880D01*
X178264371Y-30225483D01*
X178269937Y-30227980D01*
X178287729Y-30238211D01*
X178289539Y-30239252D01*
X178293616Y-30241729D01*
X178317081Y-30256772D01*
X178321176Y-30259397D01*
X178321183Y-30259405D01*
X178321210Y-30259419D01*
X178322602Y-30260311D01*
X178325463Y-30261597D01*
X178350219Y-30274276D01*
X178354429Y-30276563D01*
X178382712Y-30292826D01*
X178382713Y-30292826D01*
X178384228Y-30293697D01*
X178386915Y-30294755D01*
X178412755Y-30306436D01*
X178417044Y-30308503D01*
X178442580Y-30321582D01*
X178442581Y-30321583D01*
X178447681Y-30324195D01*
X178450265Y-30325068D01*
X178466096Y-30331310D01*
X178476967Y-30335597D01*
X178481432Y-30337485D01*
X178508019Y-30349504D01*
X178511094Y-30350894D01*
X178511095Y-30350894D01*
X178512768Y-30351650D01*
X178515086Y-30352309D01*
X178542843Y-30361701D01*
X178542870Y-30361710D01*
X178547434Y-30363381D01*
X178577670Y-30375303D01*
X178577671Y-30375302D01*
X178579429Y-30375996D01*
X178581506Y-30376477D01*
X178610295Y-30384652D01*
X178614979Y-30386109D01*
X178643833Y-30395873D01*
X178643834Y-30395873D01*
X178647535Y-30397125D01*
X178649303Y-30397443D01*
X178679157Y-30404334D01*
X178683915Y-30405558D01*
X178713972Y-30414094D01*
X178713973Y-30414094D01*
X178717031Y-30414962D01*
X178718477Y-30415149D01*
X178749335Y-30420659D01*
X178754196Y-30421653D01*
X178767508Y-30424725D01*
X178785754Y-30428937D01*
X178785755Y-30428936D01*
X178787782Y-30429404D01*
X178788840Y-30429487D01*
X178815183Y-30432834D01*
X178820777Y-30433545D01*
X178825691Y-30434295D01*
X178857553Y-30439986D01*
X178857555Y-30439985D01*
X178858252Y-30440110D01*
X178858254Y-30440110D01*
X178859681Y-30440365D01*
X178860325Y-30440383D01*
X178861126Y-30440443D01*
X178861129Y-30440445D01*
X178893385Y-30442897D01*
X178898307Y-30443397D01*
X178930388Y-30447474D01*
X178930388Y-30447473D01*
X178932136Y-30447696D01*
X178932135Y-30447696D01*
X178932624Y-30447758D01*
X178932818Y-30447754D01*
X178936945Y-30447858D01*
X178966915Y-30448615D01*
X178971901Y-30448867D01*
X179004144Y-30451320D01*
X179004145Y-30451319D01*
X179006608Y-30451507D01*
X179009102Y-30451443D01*
X179009103Y-30451444D01*
X179041414Y-30450626D01*
X179046392Y-30450626D01*
X179078703Y-30451444D01*
X179078706Y-30451442D01*
X179081207Y-30451506D01*
X179083661Y-30451319D01*
X179083663Y-30451320D01*
X179115910Y-30448867D01*
X179120886Y-30448615D01*
X179149715Y-30447887D01*
X179154990Y-30447754D01*
X179155300Y-30447760D01*
X179155675Y-30447695D01*
X179157417Y-30447473D01*
X179157419Y-30447474D01*
X179189498Y-30443397D01*
X179194420Y-30442897D01*
X179226678Y-30440445D01*
X179226679Y-30440444D01*
X179227485Y-30440383D01*
X179228484Y-30440355D01*
X179229560Y-30440109D01*
X179230251Y-30439985D01*
X179230254Y-30439986D01*
X179262127Y-30434293D01*
X179266998Y-30433548D01*
X179298993Y-30429483D01*
X179300606Y-30429357D01*
X179302298Y-30428880D01*
X179333640Y-30421646D01*
X179338433Y-30420666D01*
X179369346Y-30415146D01*
X179371559Y-30414860D01*
X179373832Y-30414094D01*
X179403889Y-30405558D01*
X179408664Y-30404330D01*
X179412596Y-30403422D01*
X179438506Y-30397443D01*
X179441228Y-30396952D01*
X179443978Y-30395870D01*
X179472852Y-30386100D01*
X179477487Y-30384659D01*
X179506298Y-30376477D01*
X179509514Y-30375732D01*
X179512676Y-30374302D01*
X179540404Y-30363368D01*
X179544911Y-30361718D01*
X179572711Y-30352313D01*
X179576306Y-30351291D01*
X179579797Y-30349500D01*
X179606385Y-30337479D01*
X179610800Y-30335612D01*
X179637563Y-30325060D01*
X179641519Y-30323724D01*
X179645269Y-30321560D01*
X179670762Y-30308503D01*
X179675051Y-30306436D01*
X179700795Y-30294798D01*
X179705043Y-30293130D01*
X179705076Y-30293113D01*
X179709027Y-30290566D01*
X179733406Y-30276548D01*
X179737571Y-30274285D01*
X179762252Y-30261645D01*
X179766515Y-30259734D01*
X179767038Y-30259433D01*
X179770952Y-30256628D01*
X179794234Y-30241702D01*
X179798285Y-30239242D01*
X179821192Y-30226070D01*
X179826249Y-30223562D01*
X179826372Y-30223482D01*
X179830910Y-30219882D01*
X179853112Y-30204093D01*
X179853138Y-30204074D01*
X179857002Y-30201463D01*
X179879653Y-30186943D01*
X179884267Y-30184335D01*
X179884785Y-30183965D01*
X179888875Y-30180381D01*
X179910081Y-30163717D01*
X179913801Y-30160935D01*
X179935675Y-30145379D01*
X179939902Y-30142703D01*
X179940881Y-30141933D01*
X179944535Y-30138422D01*
X179944556Y-30138404D01*
X179964905Y-30120776D01*
X179968506Y-30117804D01*
X179989545Y-30101271D01*
X179993741Y-30098321D01*
X179994574Y-30097599D01*
X179998143Y-30093824D01*
X180017567Y-30075305D01*
X180021016Y-30072170D01*
X180041995Y-30053997D01*
X180045313Y-30051131D01*
X180045383Y-30051101D01*
X180045539Y-30050936D01*
X180047022Y-30049655D01*
X180049449Y-30046834D01*
X180067994Y-30027382D01*
X180071303Y-30024073D01*
X180090755Y-30005528D01*
X180094833Y-30002019D01*
X180095250Y-30001582D01*
X180098540Y-29997354D01*
X180116071Y-29977116D01*
X180119224Y-29973649D01*
X180119234Y-29973639D01*
X180138387Y-29953549D01*
X180141397Y-29950398D01*
X180141469Y-29950359D01*
X180141621Y-29950164D01*
X180143034Y-29948686D01*
X180145176Y-29945639D01*
X180161700Y-29924612D01*
X180164680Y-29921001D01*
X180182285Y-29900676D01*
X180182379Y-29900570D01*
X180185818Y-29896613D01*
X180185859Y-29896589D01*
X180185942Y-29896471D01*
X180187216Y-29895006D01*
X180189181Y-29891916D01*
X180204538Y-29870320D01*
X180204812Y-29869934D01*
X180207648Y-29866143D01*
X180224421Y-29844800D01*
X180224588Y-29844588D01*
X180227673Y-29840682D01*
X180227689Y-29840672D01*
X180227718Y-29840626D01*
X180228909Y-29839119D01*
X180230704Y-29835967D01*
X180245361Y-29813105D01*
X180247991Y-29809215D01*
X180263738Y-29787070D01*
X180265961Y-29784272D01*
X180283145Y-29754384D01*
X180285610Y-29750324D01*
X180300548Y-29727025D01*
X180303338Y-29723133D01*
X180303599Y-29722680D01*
X180305518Y-29718408D01*
X180318183Y-29693678D01*
X180320464Y-29689480D01*
X180336731Y-29661190D01*
X180336731Y-29661186D01*
X180337611Y-29659656D01*
X180338676Y-29656951D01*
X180350327Y-29631177D01*
X180352416Y-29626840D01*
X180367276Y-29597828D01*
X180367276Y-29597824D01*
X180368097Y-29596222D01*
X180368962Y-29593664D01*
X180379527Y-29566866D01*
X180381375Y-29562495D01*
X180394798Y-29532809D01*
X180394798Y-29532806D01*
X180395557Y-29531128D01*
X180396212Y-29528823D01*
X180405621Y-29501011D01*
X180407271Y-29496505D01*
X180419207Y-29466236D01*
X180419206Y-29466230D01*
X180419899Y-29464474D01*
X180420382Y-29462393D01*
X180428559Y-29433594D01*
X180429998Y-29428966D01*
X180440411Y-29398193D01*
X180440410Y-29398188D01*
X180441030Y-29396357D01*
X180441347Y-29394600D01*
X180448235Y-29364756D01*
X180449460Y-29359991D01*
X180458319Y-29328798D01*
X180458318Y-29328797D01*
X180458865Y-29326873D01*
X180459052Y-29325430D01*
X180464568Y-29294542D01*
X180465563Y-29289680D01*
X180472780Y-29258410D01*
X180473305Y-29256131D01*
X180473389Y-29255067D01*
X180477450Y-29223110D01*
X180478200Y-29218204D01*
X180478201Y-29218196D01*
X180483889Y-29186347D01*
X180483888Y-29186345D01*
X180484009Y-29185672D01*
X180484011Y-29185659D01*
X180484268Y-29184216D01*
X180484286Y-29183602D01*
X180486799Y-29150546D01*
X180487304Y-29145570D01*
X180487304Y-29145567D01*
X180491378Y-29113517D01*
X180491377Y-29113515D01*
X180491600Y-29111766D01*
X180491661Y-29111276D01*
X180491658Y-29111109D01*
X180492520Y-29076986D01*
X180492521Y-29076978D01*
X180492520Y-29076968D01*
X180492771Y-29071998D01*
X180495224Y-29039759D01*
X180495223Y-29039756D01*
X180495410Y-29037301D01*
X180494530Y-29002498D01*
X180494530Y-28997493D01*
X180495410Y-28962690D01*
X180495224Y-28960240D01*
X180492772Y-28928001D01*
X180492520Y-28923026D01*
X180491705Y-28890739D01*
X180491704Y-28890738D01*
X180491658Y-28888892D01*
X180491664Y-28888601D01*
X180491600Y-28888234D01*
X180491377Y-28886483D01*
X180491378Y-28886482D01*
X180487305Y-28854432D01*
X180487304Y-28854425D01*
X180486799Y-28849452D01*
X180486075Y-28839925D01*
X180484349Y-28817226D01*
X180484348Y-28817225D01*
X180484287Y-28816416D01*
X180484259Y-28815425D01*
X180484011Y-28814338D01*
X180478199Y-28781791D01*
X180477447Y-28776868D01*
X180473389Y-28744931D01*
X180473261Y-28743300D01*
X180472788Y-28741624D01*
X180465553Y-28710277D01*
X180464573Y-28705484D01*
X180459051Y-28674560D01*
X180458765Y-28672351D01*
X180457999Y-28670075D01*
X180449465Y-28640024D01*
X180448235Y-28635243D01*
X180446739Y-28628761D01*
X180441354Y-28605427D01*
X180440860Y-28602685D01*
X180439775Y-28599927D01*
X180429999Y-28571036D01*
X180428558Y-28566400D01*
X180420382Y-28537606D01*
X180419638Y-28534396D01*
X180418202Y-28531218D01*
X180407292Y-28503549D01*
X180407291Y-28503547D01*
X180407286Y-28503534D01*
X180405614Y-28498966D01*
X180396213Y-28471182D01*
X180395196Y-28467605D01*
X180393409Y-28464117D01*
X180381389Y-28437528D01*
X180379501Y-28433063D01*
X180368975Y-28406369D01*
X180367638Y-28402410D01*
X180365486Y-28398676D01*
X180352407Y-28373140D01*
X180350325Y-28368818D01*
X180338700Y-28343102D01*
X180337043Y-28338882D01*
X180334492Y-28334917D01*
X180320478Y-28310544D01*
X180318187Y-28306327D01*
X180305524Y-28281603D01*
X180303598Y-28277318D01*
X180303462Y-28277080D01*
X180300677Y-28273174D01*
X180285616Y-28249682D01*
X180283152Y-28245626D01*
X180266875Y-28217316D01*
X180266873Y-28217314D01*
X180265988Y-28215775D01*
X180263795Y-28213008D01*
X180253607Y-28198680D01*
X180247989Y-28190780D01*
X180245335Y-28186851D01*
X180230741Y-28164088D01*
X180228967Y-28160968D01*
X180227753Y-28159427D01*
X180227689Y-28159327D01*
X180227655Y-28159303D01*
X180224625Y-28155458D01*
X180224618Y-28155439D01*
X180224542Y-28155352D01*
X180207637Y-28133840D01*
X180204810Y-28130060D01*
X180189148Y-28108035D01*
X180186465Y-28103820D01*
X180185928Y-28103137D01*
X180182410Y-28099466D01*
X180164696Y-28079017D01*
X180161685Y-28075368D01*
X180145157Y-28054336D01*
X180142393Y-28050409D01*
X180141376Y-28049235D01*
X180137862Y-28045898D01*
X180125521Y-28032954D01*
X180119206Y-28026330D01*
X180116048Y-28022854D01*
X180098487Y-28002580D01*
X180095474Y-27998718D01*
X180094566Y-27997764D01*
X180090845Y-27994555D01*
X180071294Y-27975915D01*
X180067989Y-27972609D01*
X180049405Y-27953116D01*
X180046109Y-27949289D01*
X180045378Y-27948592D01*
X180041387Y-27945473D01*
X180021040Y-27927848D01*
X180017550Y-27924676D01*
X179998070Y-27906103D01*
X179994628Y-27902471D01*
X179993970Y-27901901D01*
X179989923Y-27899024D01*
X179968538Y-27882219D01*
X179964887Y-27879206D01*
X179944355Y-27861420D01*
X179940807Y-27858027D01*
X179940221Y-27857566D01*
X179936151Y-27854955D01*
X179935984Y-27854836D01*
X179913827Y-27839080D01*
X179910045Y-27836252D01*
X179888626Y-27819419D01*
X179884772Y-27816063D01*
X179880406Y-27813539D01*
X179857052Y-27798567D01*
X179853121Y-27795912D01*
X179850423Y-27793994D01*
X179831035Y-27780207D01*
X179828225Y-27777971D01*
X179826548Y-27777007D01*
X179826482Y-27776969D01*
X179825336Y-27776310D01*
X179825335Y-27776309D01*
X179825320Y-27776301D01*
X179798278Y-27760752D01*
X179794195Y-27758271D01*
X179770860Y-27743311D01*
X179768144Y-27741370D01*
X179762689Y-27738576D01*
X179762687Y-27738574D01*
X179737592Y-27725722D01*
X179733372Y-27723430D01*
X179708897Y-27709357D01*
X179706314Y-27707697D01*
X179704768Y-27706998D01*
X179700905Y-27705251D01*
X179700904Y-27705250D01*
X179700900Y-27705249D01*
X179675075Y-27693572D01*
X179670735Y-27691481D01*
X179645250Y-27678429D01*
X179642718Y-27676970D01*
X179637651Y-27674972D01*
X179637643Y-27674969D01*
X179610826Y-27664396D01*
X179606379Y-27662515D01*
X179579752Y-27650477D01*
X179577408Y-27649276D01*
X179572735Y-27647695D01*
X179572734Y-27647694D01*
X179572731Y-27647693D01*
X179544939Y-27638289D01*
X179540371Y-27636616D01*
X179512676Y-27625696D01*
X179510507Y-27624716D01*
X179508750Y-27624217D01*
X179506328Y-27623529D01*
X179506327Y-27623528D01*
X179506321Y-27623527D01*
X179477519Y-27615347D01*
X179472845Y-27613894D01*
X179443978Y-27604127D01*
X179442079Y-27603380D01*
X179438495Y-27602553D01*
X179438494Y-27602552D01*
X179438491Y-27602552D01*
X179408677Y-27595671D01*
X179403898Y-27594442D01*
X179373813Y-27585899D01*
X179372243Y-27585370D01*
X179370329Y-27585028D01*
X179369351Y-27584853D01*
X179338446Y-27579334D01*
X179333594Y-27578341D01*
X179326167Y-27576627D01*
X179302280Y-27571114D01*
X179301114Y-27570785D01*
X179298987Y-27570515D01*
X179298976Y-27570514D01*
X179281409Y-27568281D01*
X179267033Y-27566454D01*
X179262119Y-27565703D01*
X179229564Y-27559891D01*
X179228783Y-27559712D01*
X179227526Y-27559617D01*
X179227518Y-27559617D01*
X179194438Y-27557101D01*
X179189468Y-27556597D01*
X179189460Y-27556596D01*
X179157422Y-27552525D01*
X179157420Y-27552525D01*
X179155670Y-27552303D01*
X179155388Y-27552253D01*
X179155012Y-27552244D01*
X179155011Y-27552243D01*
X179155011Y-27552244D01*
X179120882Y-27551381D01*
X179115879Y-27551128D01*
X179081205Y-27548491D01*
X179046403Y-27549371D01*
X179041404Y-27549371D01*
X179006591Y-27548492D01*
X178971926Y-27551128D01*
X178966923Y-27551381D01*
X178932798Y-27552244D01*
X178932503Y-27552237D01*
X178932141Y-27552301D01*
X178898337Y-27556596D01*
X178893370Y-27557101D01*
X178866807Y-27559122D01*
X178861129Y-27559554D01*
X178861128Y-27559554D01*
X178860303Y-27559617D01*
X178859329Y-27559644D01*
X178858253Y-27559890D01*
X178857557Y-27560014D01*
X178833566Y-27564297D01*
X178825708Y-27565701D01*
X178820788Y-27566452D01*
X178788844Y-27570512D01*
X178787200Y-27570641D01*
X178785508Y-27571118D01*
X178754216Y-27578340D01*
X178749359Y-27579334D01*
X178718452Y-27584854D01*
X178716254Y-27585138D01*
X178713994Y-27585899D01*
X178683937Y-27594434D01*
X178679161Y-27595662D01*
X178649312Y-27602552D01*
X178646584Y-27603044D01*
X178643835Y-27604125D01*
X178614968Y-27613892D01*
X178610286Y-27615348D01*
X178581487Y-27623527D01*
X178578301Y-27624266D01*
X178575142Y-27625693D01*
X178547418Y-27636623D01*
X178542843Y-27638298D01*
X178515093Y-27647689D01*
X178511500Y-27648712D01*
X178508061Y-27650474D01*
X178481447Y-27662506D01*
X178476979Y-27664396D01*
X178450167Y-27674968D01*
X178446297Y-27676279D01*
X178442605Y-27678404D01*
X178417055Y-27691490D01*
X178412710Y-27693583D01*
X178386852Y-27705274D01*
X178382774Y-27706884D01*
X178378978Y-27709319D01*
X178354445Y-27723425D01*
X178350229Y-27725716D01*
X178324816Y-27738732D01*
X178324812Y-27738734D01*
X178319898Y-27741250D01*
X178317357Y-27743048D01*
X178293591Y-27758282D01*
X178289519Y-27760756D01*
X178260000Y-27777731D01*
X178257446Y-27779728D01*
X178234694Y-27795907D01*
X178230756Y-27798567D01*
X178207585Y-27813423D01*
X178203636Y-27815695D01*
X178202855Y-27816249D01*
X178199349Y-27819288D01*
X178177745Y-27836265D01*
X178173948Y-27839105D01*
X178151711Y-27854918D01*
X178147793Y-27857428D01*
X178146847Y-27858170D01*
X178143428Y-27861443D01*
X178122922Y-27879206D01*
X178119274Y-27882217D01*
X178119273Y-27882218D01*
X178097966Y-27898962D01*
X178094019Y-27901761D01*
X178093283Y-27902398D01*
X178089930Y-27905918D01*
X178070247Y-27924685D01*
X178066768Y-27927848D01*
X178046421Y-27945473D01*
X178046355Y-27945530D01*
X178042639Y-27948438D01*
X178041590Y-27949438D01*
X178038489Y-27953028D01*
X178019839Y-27972589D01*
X178016502Y-27975926D01*
X177996932Y-27994583D01*
X177996933Y-27994584D01*
X177993281Y-27998066D01*
X177993197Y-27998109D01*
X177993006Y-27998329D01*
X177992803Y-27998523D01*
X177992801Y-27998525D01*
X177991613Y-27999660D01*
X177989405Y-28002484D01*
X177971757Y-28022858D01*
X177968582Y-28026353D01*
X177949901Y-28045946D01*
X177949900Y-28045945D01*
X177949411Y-28046459D01*
X177946423Y-28049594D01*
X177946343Y-28049640D01*
X177946167Y-28049862D01*
X177945998Y-28050041D01*
X177945988Y-28050064D01*
X177944799Y-28051318D01*
X177942786Y-28054164D01*
X177942652Y-28054336D01*
X177926128Y-28075362D01*
X177923119Y-28079008D01*
X177905289Y-28099590D01*
X177905290Y-28099591D01*
X177905023Y-28099899D01*
X177902024Y-28103362D01*
X177901951Y-28103409D01*
X177901797Y-28103625D01*
X177901684Y-28103756D01*
X177901680Y-28103765D01*
X177900604Y-28105011D01*
X177898770Y-28107880D01*
X177882998Y-28130060D01*
X177880156Y-28133860D01*
X177863320Y-28155281D01*
X177863321Y-28155282D01*
X177862957Y-28155746D01*
X177860172Y-28159291D01*
X177860120Y-28159328D01*
X177860015Y-28159491D01*
X177859948Y-28159577D01*
X177859941Y-28159600D01*
X177858938Y-28160882D01*
X177857330Y-28163678D01*
X177842473Y-28186851D01*
X177839814Y-28190788D01*
X177823826Y-28213273D01*
X177821725Y-28215941D01*
X177804658Y-28245623D01*
X177802178Y-28249706D01*
X177787001Y-28273379D01*
X177784393Y-28277056D01*
X177782578Y-28281031D01*
X177769630Y-28306310D01*
X177767344Y-28310519D01*
X177753276Y-28334990D01*
X177750781Y-28338874D01*
X177749155Y-28343001D01*
X177737483Y-28368818D01*
X177735390Y-28373161D01*
X177722306Y-28398709D01*
X177722304Y-28398715D01*
X177719725Y-28403749D01*
X177718865Y-28406289D01*
X177708311Y-28433056D01*
X177706421Y-28437525D01*
X177694380Y-28464159D01*
X177694379Y-28464161D01*
X177692264Y-28468837D01*
X177691602Y-28471163D01*
X177682192Y-28498970D01*
X177680517Y-28503546D01*
X177669597Y-28531245D01*
X177669595Y-28531251D01*
X177667913Y-28535515D01*
X177667434Y-28537581D01*
X177659251Y-28566396D01*
X177657793Y-28571084D01*
X177648031Y-28599929D01*
X177648032Y-28599930D01*
X177646779Y-28603633D01*
X177646457Y-28605419D01*
X177639575Y-28635236D01*
X177638347Y-28640012D01*
X177629492Y-28671198D01*
X177628944Y-28673126D01*
X177628761Y-28674544D01*
X177623243Y-28705442D01*
X177622250Y-28710296D01*
X177615025Y-28741607D01*
X177615024Y-28741613D01*
X177614502Y-28743870D01*
X177614419Y-28744937D01*
X177610360Y-28776878D01*
X177609609Y-28781799D01*
X177603795Y-28814361D01*
X177603795Y-28814362D01*
X177603543Y-28815773D01*
X177603525Y-28816409D01*
X177601010Y-28849463D01*
X177600505Y-28854432D01*
X177596210Y-28888226D01*
X177596211Y-28888227D01*
X177596147Y-28888728D01*
X177596151Y-28888897D01*
X177595288Y-28923020D01*
X177595035Y-28928025D01*
X177592398Y-28962688D01*
X62495412Y-28962688D01*
X62495226Y-28960242D01*
X62495227Y-28960240D01*
X62492774Y-28927999D01*
X62492522Y-28923001D01*
X62491661Y-28888926D01*
X62491668Y-28888605D01*
X62491603Y-28888235D01*
X62491381Y-28886485D01*
X62487304Y-28854405D01*
X62486803Y-28849463D01*
X62484352Y-28817226D01*
X62484351Y-28817224D01*
X62484290Y-28816421D01*
X62484262Y-28815421D01*
X62484017Y-28814349D01*
X62483892Y-28813652D01*
X62483893Y-28813650D01*
X62478202Y-28781788D01*
X62477452Y-28776878D01*
X62473391Y-28744912D01*
X62473265Y-28743299D01*
X62472782Y-28741588D01*
X62465557Y-28710282D01*
X62464577Y-28705490D01*
X62459054Y-28674561D01*
X62458768Y-28672349D01*
X62458008Y-28670093D01*
X62449469Y-28640024D01*
X62448239Y-28635242D01*
X62441358Y-28605427D01*
X62440864Y-28602686D01*
X62439776Y-28599921D01*
X62429999Y-28571025D01*
X62428572Y-28566437D01*
X62420382Y-28537598D01*
X62419641Y-28534395D01*
X62418207Y-28531222D01*
X62407295Y-28503548D01*
X62405618Y-28498966D01*
X62396222Y-28471199D01*
X62396222Y-28471198D01*
X62395200Y-28467607D01*
X62393412Y-28464117D01*
X62381392Y-28437528D01*
X62379504Y-28433063D01*
X62368978Y-28406369D01*
X62367641Y-28402410D01*
X62365489Y-28398676D01*
X62352410Y-28373140D01*
X62350328Y-28368818D01*
X62338703Y-28343102D01*
X62337046Y-28338882D01*
X62334495Y-28334917D01*
X62320481Y-28310544D01*
X62318190Y-28306327D01*
X62305527Y-28281603D01*
X62303601Y-28277318D01*
X62303465Y-28277080D01*
X62300680Y-28273174D01*
X62285619Y-28249682D01*
X62283155Y-28245626D01*
X62266878Y-28217316D01*
X62266876Y-28217314D01*
X62265991Y-28215775D01*
X62263798Y-28213008D01*
X62253610Y-28198680D01*
X62247992Y-28190780D01*
X62245338Y-28186851D01*
X62230744Y-28164088D01*
X62228970Y-28160968D01*
X62227756Y-28159427D01*
X62227692Y-28159327D01*
X62227658Y-28159303D01*
X62224628Y-28155458D01*
X62224621Y-28155439D01*
X62224545Y-28155352D01*
X62207640Y-28133840D01*
X62204813Y-28130060D01*
X62189151Y-28108035D01*
X62186468Y-28103820D01*
X62185931Y-28103137D01*
X62182413Y-28099466D01*
X62164699Y-28079017D01*
X62161688Y-28075368D01*
X62145160Y-28054336D01*
X62142396Y-28050409D01*
X62141379Y-28049235D01*
X62137865Y-28045898D01*
X62125524Y-28032954D01*
X62119209Y-28026330D01*
X62116051Y-28022854D01*
X62098490Y-28002580D01*
X62095477Y-27998718D01*
X62094569Y-27997764D01*
X62090848Y-27994555D01*
X62071297Y-27975915D01*
X62067992Y-27972609D01*
X62049407Y-27953115D01*
X62046106Y-27949282D01*
X62045388Y-27948598D01*
X62041390Y-27945473D01*
X62021047Y-27927852D01*
X62017549Y-27924672D01*
X61998086Y-27906115D01*
X61994777Y-27902622D01*
X61993603Y-27901606D01*
X61989699Y-27898847D01*
X61968545Y-27882223D01*
X61964897Y-27879213D01*
X61964889Y-27879206D01*
X61944245Y-27861324D01*
X61940537Y-27858108D01*
X61940498Y-27858045D01*
X61940316Y-27857916D01*
X61938949Y-27856730D01*
X61935995Y-27854843D01*
X61913817Y-27839071D01*
X61910047Y-27836252D01*
X61888346Y-27819198D01*
X61884594Y-27816237D01*
X61884578Y-27816213D01*
X61884504Y-27816166D01*
X61883278Y-27815198D01*
X61880408Y-27813539D01*
X61857054Y-27798567D01*
X61853123Y-27795912D01*
X61850425Y-27793994D01*
X61831037Y-27780207D01*
X61828227Y-27777971D01*
X61826550Y-27777007D01*
X61826484Y-27776969D01*
X61825338Y-27776310D01*
X61825337Y-27776309D01*
X61825322Y-27776301D01*
X61798280Y-27760752D01*
X61794199Y-27758273D01*
X61783539Y-27751439D01*
X61770891Y-27743331D01*
X61768163Y-27741379D01*
X61762690Y-27738576D01*
X61762688Y-27738574D01*
X61737596Y-27725723D01*
X61733380Y-27723433D01*
X61708907Y-27709362D01*
X61706309Y-27707693D01*
X61704770Y-27706997D01*
X61700933Y-27705262D01*
X61700932Y-27705261D01*
X61700931Y-27705261D01*
X61675064Y-27693565D01*
X61670725Y-27691475D01*
X61645253Y-27678430D01*
X61642717Y-27676969D01*
X61637637Y-27674966D01*
X61637635Y-27674964D01*
X61610854Y-27664406D01*
X61606382Y-27662515D01*
X61579755Y-27650477D01*
X61577410Y-27649276D01*
X61572734Y-27647693D01*
X61572729Y-27647692D01*
X61552896Y-27640981D01*
X61544949Y-27638292D01*
X61540392Y-27636623D01*
X61512686Y-27625700D01*
X61510497Y-27624711D01*
X61506338Y-27623530D01*
X61506333Y-27623529D01*
X61477539Y-27615353D01*
X61472850Y-27613895D01*
X61443976Y-27604125D01*
X61442087Y-27603382D01*
X61440252Y-27602958D01*
X61438487Y-27602550D01*
X61438485Y-27602549D01*
X61408681Y-27595671D01*
X61403901Y-27594442D01*
X61373816Y-27585899D01*
X61372246Y-27585370D01*
X61370332Y-27585028D01*
X61369354Y-27584853D01*
X61338449Y-27579334D01*
X61333597Y-27578341D01*
X61326170Y-27576627D01*
X61302283Y-27571114D01*
X61301117Y-27570785D01*
X61298990Y-27570515D01*
X61298979Y-27570514D01*
X61281412Y-27568281D01*
X61267036Y-27566454D01*
X61262122Y-27565703D01*
X61229567Y-27559891D01*
X61228796Y-27559715D01*
X61227530Y-27559619D01*
X61227528Y-27559618D01*
X61227520Y-27559618D01*
X61226681Y-27559554D01*
X61194442Y-27557102D01*
X61189474Y-27556597D01*
X61182592Y-27555723D01*
X61155659Y-27552300D01*
X61155393Y-27552253D01*
X61155023Y-27552244D01*
X61155022Y-27552243D01*
X61120887Y-27551381D01*
X61115883Y-27551128D01*
X61081209Y-27548491D01*
X61046408Y-27549371D01*
X61041406Y-27549371D01*
X61006604Y-27548491D01*
X60971928Y-27551128D01*
X60966925Y-27551381D01*
X60932789Y-27552244D01*
X60932508Y-27552237D01*
X60932154Y-27552300D01*
X60898342Y-27556596D01*
X60893375Y-27557101D01*
X60869017Y-27558954D01*
X60861133Y-27559554D01*
X60861132Y-27559554D01*
X60860308Y-27559617D01*
X60859332Y-27559644D01*
X60858256Y-27559890D01*
X60825709Y-27565701D01*
X60820793Y-27566452D01*
X60788837Y-27570514D01*
X60787208Y-27570642D01*
X60785535Y-27571113D01*
X60784628Y-27571323D01*
X60754212Y-27578342D01*
X60749356Y-27579335D01*
X60718448Y-27584855D01*
X60716259Y-27585138D01*
X60714000Y-27585898D01*
X60706647Y-27587986D01*
X60683918Y-27594440D01*
X60679143Y-27595668D01*
X60649322Y-27602551D01*
X60646582Y-27603045D01*
X60643852Y-27604119D01*
X60614971Y-27613891D01*
X60610287Y-27615348D01*
X60581491Y-27623526D01*
X60578306Y-27624265D01*
X60575149Y-27625691D01*
X60547425Y-27636621D01*
X60542851Y-27638295D01*
X60515084Y-27647692D01*
X60511516Y-27648709D01*
X60508085Y-27650465D01*
X60481445Y-27662509D01*
X60476977Y-27664399D01*
X60450186Y-27674963D01*
X60446304Y-27676277D01*
X60442616Y-27678400D01*
X60417058Y-27691489D01*
X60412716Y-27693580D01*
X60386847Y-27705276D01*
X60382780Y-27706883D01*
X60378984Y-27709317D01*
X60354451Y-27723424D01*
X60350231Y-27725716D01*
X60325120Y-27738577D01*
X60320992Y-27740451D01*
X60317149Y-27743185D01*
X60293621Y-27758268D01*
X60289543Y-27760746D01*
X60259951Y-27777761D01*
X60257386Y-27779771D01*
X60234683Y-27795916D01*
X60230759Y-27798567D01*
X60207241Y-27813644D01*
X60203361Y-27815896D01*
X60202890Y-27816230D01*
X60199407Y-27819245D01*
X60177760Y-27836256D01*
X60173962Y-27839096D01*
X60151712Y-27854918D01*
X60147797Y-27857426D01*
X60146849Y-27858170D01*
X60143430Y-27861443D01*
X60122924Y-27879206D01*
X60119275Y-27882217D01*
X60098074Y-27898878D01*
X60094359Y-27901505D01*
X60093010Y-27902673D01*
X60089851Y-27905996D01*
X60070258Y-27924676D01*
X60066764Y-27927852D01*
X60066763Y-27927853D01*
X60046350Y-27945535D01*
X60042675Y-27948412D01*
X60041555Y-27949479D01*
X60038494Y-27953023D01*
X60035665Y-27955992D01*
X60019857Y-27972573D01*
X60016514Y-27975915D01*
X59996891Y-27994622D01*
X59995450Y-27995997D01*
X59993280Y-27998067D01*
X59993198Y-27998109D01*
X59993012Y-27998323D01*
X59992805Y-27998521D01*
X59992802Y-27998526D01*
X59991620Y-27999656D01*
X59989414Y-28002476D01*
X59971758Y-28022859D01*
X59968583Y-28026353D01*
X59949902Y-28045946D01*
X59949901Y-28045945D01*
X59949412Y-28046459D01*
X59946424Y-28049594D01*
X59946344Y-28049640D01*
X59946168Y-28049862D01*
X59945999Y-28050041D01*
X59945989Y-28050064D01*
X59944800Y-28051318D01*
X59942787Y-28054164D01*
X59942653Y-28054336D01*
X59926129Y-28075362D01*
X59923120Y-28079008D01*
X59905290Y-28099590D01*
X59905291Y-28099591D01*
X59905024Y-28099899D01*
X59902025Y-28103362D01*
X59901952Y-28103409D01*
X59901798Y-28103625D01*
X59901685Y-28103756D01*
X59901681Y-28103765D01*
X59900605Y-28105011D01*
X59898771Y-28107880D01*
X59882999Y-28130060D01*
X59880157Y-28133860D01*
X59863321Y-28155281D01*
X59863322Y-28155282D01*
X59862958Y-28155746D01*
X59860173Y-28159291D01*
X59860121Y-28159328D01*
X59860016Y-28159491D01*
X59859949Y-28159577D01*
X59859942Y-28159600D01*
X59858939Y-28160882D01*
X59857331Y-28163678D01*
X59842474Y-28186851D01*
X59839815Y-28190788D01*
X59823827Y-28213273D01*
X59821726Y-28215941D01*
X59804659Y-28245623D01*
X59802179Y-28249706D01*
X59787002Y-28273379D01*
X59784394Y-28277056D01*
X59782579Y-28281031D01*
X59769631Y-28306310D01*
X59767345Y-28310519D01*
X59753277Y-28334990D01*
X59750782Y-28338874D01*
X59749156Y-28343001D01*
X59737484Y-28368818D01*
X59735391Y-28373161D01*
X59722307Y-28398709D01*
X59722305Y-28398715D01*
X59719726Y-28403749D01*
X59718866Y-28406289D01*
X59708312Y-28433056D01*
X59706422Y-28437525D01*
X59694381Y-28464159D01*
X59694380Y-28464161D01*
X59692265Y-28468837D01*
X59691603Y-28471163D01*
X59682193Y-28498970D01*
X59680518Y-28503547D01*
X59669596Y-28531250D01*
X59669593Y-28531256D01*
X59667915Y-28535509D01*
X59667434Y-28537585D01*
X59659257Y-28566379D01*
X59657801Y-28571063D01*
X59648034Y-28599930D01*
X59648030Y-28599940D01*
X59646780Y-28603632D01*
X59646461Y-28605403D01*
X59639580Y-28635216D01*
X59638350Y-28639997D01*
X59629796Y-28670118D01*
X59629796Y-28670119D01*
X59628948Y-28673102D01*
X59628760Y-28674561D01*
X59623240Y-28705465D01*
X59622247Y-28710317D01*
X59615031Y-28741588D01*
X59614504Y-28743870D01*
X59614422Y-28744912D01*
X59610361Y-28776872D01*
X59609609Y-28781799D01*
X59603793Y-28814364D01*
X59603542Y-28815766D01*
X59603524Y-28816422D01*
X59601010Y-28849464D01*
X59600505Y-28854433D01*
X59596210Y-28888226D01*
X59596211Y-28888227D01*
X59596147Y-28888728D01*
X59596151Y-28888897D01*
X59595288Y-28923020D01*
X59595035Y-28928025D01*
X59592398Y-28962688D01*
X58744407Y-28962688D01*
X58744407Y-27503775D01*
X58744439Y-27501269D01*
X58745452Y-27461260D01*
X58745706Y-27456246D01*
X58747065Y-27438417D01*
X58748421Y-27420610D01*
X58748926Y-27415639D01*
X58749197Y-27413516D01*
X58753385Y-27380614D01*
X58754136Y-27375704D01*
X58758414Y-27351784D01*
X58760296Y-27341260D01*
X58761281Y-27336455D01*
X58769091Y-27302663D01*
X58770308Y-27297935D01*
X58779737Y-27264777D01*
X58781186Y-27260124D01*
X58792174Y-27227683D01*
X58793848Y-27223118D01*
X58794064Y-27222570D01*
X58806378Y-27191371D01*
X58808243Y-27186965D01*
X58822268Y-27155970D01*
X58824349Y-27151656D01*
X58824352Y-27151651D01*
X58839831Y-27121450D01*
X58842092Y-27117290D01*
X58858986Y-27087927D01*
X58861448Y-27083876D01*
X58879732Y-27055371D01*
X58882358Y-27051489D01*
X58901952Y-27023945D01*
X58904762Y-27020190D01*
X58925639Y-26993631D01*
X58928617Y-26990023D01*
X58950736Y-26964491D01*
X58953899Y-26961014D01*
X58977172Y-26936605D01*
X58980507Y-26933270D01*
X58986251Y-26927794D01*
X59004931Y-26909983D01*
X59008408Y-26906821D01*
X59033923Y-26884715D01*
X59037509Y-26881755D01*
X59064117Y-26860839D01*
X59067831Y-26858060D01*
X59095403Y-26838445D01*
X59099319Y-26835800D01*
X59127759Y-26817557D01*
X59127779Y-26817543D01*
X59131808Y-26815093D01*
X59161222Y-26798170D01*
X59165347Y-26795928D01*
X59195565Y-26780439D01*
X59199878Y-26778360D01*
X59230868Y-26764336D01*
X59235254Y-26762479D01*
X59267034Y-26749936D01*
X59271570Y-26748274D01*
X59304047Y-26737272D01*
X59308657Y-26735836D01*
X59341856Y-26726397D01*
X59346551Y-26725188D01*
X59380379Y-26717369D01*
X59385154Y-26716391D01*
X59419621Y-26710227D01*
X59424509Y-26709479D01*
X59459579Y-26705015D01*
X59464531Y-26704512D01*
X59500162Y-26701797D01*
X59505162Y-26701544D01*
X59545171Y-26700531D01*
X59547675Y-26700500D01*
X180540134Y-26700500D01*
X180542637Y-26700531D01*
G37*
%TD.AperFunction*%
%TD*%
M02*
