%TF.GenerationSoftware,KiCad,Pcbnew,9.0.4*%
%TF.CreationDate,2026-01-29T10:07:03+09:00*%
%TF.ProjectId,ansikBackplate,616e7369-6b42-4616-936b-706c6174652e,rev?*%
%TF.SameCoordinates,Original*%
%TF.FileFunction,Profile,NP*%
%FSLAX46Y46*%
G04 Gerber Fmt 4.6, Leading zero omitted, Abs format (unit mm)*
G04 Created by KiCad (PCBNEW 9.0.4) date 2026-01-29 10:07:03*
%MOMM*%
%LPD*%
G01*
G04 APERTURE LIST*
%TA.AperFunction,Profile*%
%ADD10C,0.047037*%
%TD*%
G04 APERTURE END LIST*
D10*
X61108232Y-69751619D02*
X61171712Y-69756446D01*
X61234269Y-69764395D01*
X61295825Y-69775388D01*
X61356301Y-69789345D01*
X61415618Y-69806190D01*
X61473698Y-69825842D01*
X61530462Y-69848224D01*
X61585833Y-69873256D01*
X61639730Y-69900861D01*
X61692076Y-69930959D01*
X61742793Y-69963473D01*
X61791801Y-69998323D01*
X61839022Y-70035432D01*
X61884378Y-70074720D01*
X61927790Y-70116109D01*
X61969179Y-70159521D01*
X62008467Y-70204877D01*
X62045576Y-70252098D01*
X62080426Y-70301106D01*
X62112940Y-70351823D01*
X62143038Y-70404169D01*
X62170643Y-70458066D01*
X62195675Y-70513437D01*
X62218057Y-70570201D01*
X62237709Y-70628281D01*
X62254554Y-70687598D01*
X62268511Y-70748074D01*
X62279504Y-70809630D01*
X62287453Y-70872187D01*
X62292280Y-70935667D01*
X62293907Y-70999992D01*
X62292280Y-71064317D01*
X62287453Y-71127797D01*
X62279504Y-71190354D01*
X62268511Y-71251910D01*
X62254554Y-71312386D01*
X62237709Y-71371703D01*
X62218057Y-71429783D01*
X62195675Y-71486547D01*
X62170643Y-71541918D01*
X62143038Y-71595815D01*
X62112940Y-71648161D01*
X62080426Y-71698878D01*
X62045576Y-71747886D01*
X62008467Y-71795107D01*
X61969179Y-71840463D01*
X61927790Y-71883875D01*
X61884378Y-71925264D01*
X61839022Y-71964552D01*
X61791801Y-72001661D01*
X61742793Y-72036511D01*
X61692076Y-72069025D01*
X61639730Y-72099123D01*
X61585833Y-72126728D01*
X61530462Y-72151760D01*
X61473698Y-72174142D01*
X61415618Y-72193794D01*
X61356301Y-72210639D01*
X61295825Y-72224596D01*
X61234269Y-72235589D01*
X61171712Y-72243538D01*
X61108232Y-72248366D01*
X61043907Y-72249992D01*
X60979582Y-72248366D01*
X60916102Y-72243538D01*
X60853545Y-72235589D01*
X60791989Y-72224596D01*
X60731513Y-72210639D01*
X60672196Y-72193794D01*
X60614116Y-72174142D01*
X60557352Y-72151760D01*
X60501981Y-72126728D01*
X60448084Y-72099123D01*
X60395738Y-72069025D01*
X60345021Y-72036511D01*
X60296013Y-72001661D01*
X60248792Y-71964552D01*
X60203436Y-71925264D01*
X60160024Y-71883875D01*
X60118635Y-71840463D01*
X60079347Y-71795107D01*
X60042238Y-71747886D01*
X60007388Y-71698878D01*
X59974874Y-71648161D01*
X59944776Y-71595815D01*
X59917171Y-71541918D01*
X59892139Y-71486547D01*
X59869757Y-71429783D01*
X59850105Y-71371703D01*
X59833260Y-71312386D01*
X59819303Y-71251910D01*
X59808310Y-71190354D01*
X59800361Y-71127797D01*
X59795533Y-71064317D01*
X59793907Y-70999992D01*
X59795533Y-70935667D01*
X59800361Y-70872187D01*
X59808310Y-70809630D01*
X59819303Y-70748074D01*
X59833260Y-70687598D01*
X59850105Y-70628281D01*
X59869757Y-70570201D01*
X59892139Y-70513437D01*
X59917171Y-70458066D01*
X59944776Y-70404169D01*
X59974874Y-70351823D01*
X60007388Y-70301106D01*
X60042238Y-70252098D01*
X60079347Y-70204877D01*
X60118635Y-70159521D01*
X60160024Y-70116109D01*
X60203436Y-70074720D01*
X60248792Y-70035432D01*
X60296013Y-69998323D01*
X60345021Y-69963473D01*
X60395738Y-69930959D01*
X60448084Y-69900861D01*
X60501981Y-69873256D01*
X60557352Y-69848224D01*
X60614116Y-69825842D01*
X60672196Y-69806190D01*
X60731513Y-69789345D01*
X60791989Y-69775388D01*
X60853545Y-69764395D01*
X60916102Y-69756446D01*
X60979582Y-69751619D01*
X61043907Y-69749992D01*
X61108232Y-69751619D01*
X179108228Y-69751619D02*
X179171709Y-69756446D01*
X179234266Y-69764395D01*
X179295822Y-69775388D01*
X179356298Y-69789345D01*
X179415615Y-69806190D01*
X179473696Y-69825842D01*
X179530460Y-69848224D01*
X179585830Y-69873256D01*
X179639728Y-69900861D01*
X179692074Y-69930959D01*
X179742791Y-69963473D01*
X179791799Y-69998323D01*
X179839020Y-70035432D01*
X179884375Y-70074720D01*
X179927787Y-70116109D01*
X179969176Y-70159521D01*
X180008464Y-70204877D01*
X180045573Y-70252098D01*
X180080423Y-70301106D01*
X180112937Y-70351823D01*
X180143035Y-70404169D01*
X180170640Y-70458066D01*
X180195672Y-70513437D01*
X180218054Y-70570201D01*
X180237706Y-70628281D01*
X180254550Y-70687598D01*
X180268508Y-70748074D01*
X180279500Y-70809630D01*
X180287450Y-70872187D01*
X180292277Y-70935667D01*
X180293903Y-70999992D01*
X180292277Y-71064317D01*
X180287450Y-71127797D01*
X180279500Y-71190354D01*
X180268508Y-71251910D01*
X180254550Y-71312386D01*
X180237706Y-71371703D01*
X180218054Y-71429783D01*
X180195672Y-71486547D01*
X180170640Y-71541918D01*
X180143035Y-71595815D01*
X180112937Y-71648161D01*
X180080423Y-71698878D01*
X180045573Y-71747886D01*
X180008464Y-71795107D01*
X179969176Y-71840463D01*
X179927787Y-71883875D01*
X179884375Y-71925264D01*
X179839020Y-71964552D01*
X179791799Y-72001661D01*
X179742791Y-72036511D01*
X179692074Y-72069025D01*
X179639728Y-72099123D01*
X179585830Y-72126728D01*
X179530460Y-72151760D01*
X179473696Y-72174142D01*
X179415615Y-72193794D01*
X179356298Y-72210639D01*
X179295822Y-72224596D01*
X179234266Y-72235589D01*
X179171709Y-72243538D01*
X179108228Y-72248366D01*
X179043903Y-72249992D01*
X178979579Y-72248366D01*
X178916098Y-72243538D01*
X178853541Y-72235589D01*
X178791985Y-72224596D01*
X178731510Y-72210639D01*
X178672193Y-72193794D01*
X178614113Y-72174142D01*
X178557348Y-72151760D01*
X178501978Y-72126728D01*
X178448081Y-72099123D01*
X178395735Y-72069025D01*
X178345019Y-72036511D01*
X178296011Y-72001661D01*
X178248790Y-71964552D01*
X178203434Y-71925264D01*
X178160023Y-71883875D01*
X178118634Y-71840463D01*
X178079346Y-71795107D01*
X178042237Y-71747886D01*
X178007387Y-71698878D01*
X177974873Y-71648161D01*
X177944775Y-71595815D01*
X177917170Y-71541918D01*
X177892138Y-71486547D01*
X177869756Y-71429783D01*
X177850104Y-71371703D01*
X177833260Y-71312386D01*
X177819302Y-71251910D01*
X177808310Y-71190354D01*
X177800361Y-71127797D01*
X177795533Y-71064317D01*
X177793907Y-70999992D01*
X177795533Y-70935667D01*
X177800361Y-70872187D01*
X177808310Y-70809630D01*
X177819302Y-70748074D01*
X177833260Y-70687598D01*
X177850104Y-70628281D01*
X177869756Y-70570201D01*
X177892138Y-70513437D01*
X177917170Y-70458066D01*
X177944775Y-70404169D01*
X177974873Y-70351823D01*
X178007387Y-70301106D01*
X178042237Y-70252098D01*
X178079346Y-70204877D01*
X178118634Y-70159521D01*
X178160023Y-70116109D01*
X178203434Y-70074720D01*
X178248790Y-70035432D01*
X178296011Y-69998323D01*
X178345019Y-69963473D01*
X178395735Y-69930959D01*
X178448081Y-69900861D01*
X178501978Y-69873256D01*
X178557348Y-69848224D01*
X178614113Y-69825842D01*
X178672193Y-69806190D01*
X178731510Y-69789345D01*
X178791985Y-69775388D01*
X178853541Y-69764395D01*
X178916098Y-69756446D01*
X178979579Y-69751619D01*
X179043903Y-69749992D01*
X179108228Y-69751619D01*
X179108228Y-125251603D02*
X179171709Y-125256431D01*
X179234266Y-125264380D01*
X179295822Y-125275373D01*
X179356298Y-125289331D01*
X179415615Y-125306176D01*
X179473696Y-125325829D01*
X179530460Y-125348211D01*
X179585830Y-125373244D01*
X179639728Y-125400849D01*
X179692074Y-125430948D01*
X179742791Y-125463463D01*
X179791799Y-125498314D01*
X179839020Y-125535423D01*
X179884375Y-125574712D01*
X179927787Y-125616102D01*
X179969176Y-125659514D01*
X180008464Y-125704871D01*
X180045573Y-125752093D01*
X180080423Y-125801101D01*
X180112937Y-125851818D01*
X180143035Y-125904165D01*
X180170640Y-125958063D01*
X180195672Y-126013434D01*
X180218054Y-126070199D01*
X180237706Y-126128280D01*
X180254550Y-126187597D01*
X180268508Y-126248073D01*
X180279500Y-126309630D01*
X180287450Y-126372187D01*
X180292277Y-126435667D01*
X180293903Y-126499992D01*
X180292277Y-126564317D01*
X180287450Y-126627797D01*
X180279500Y-126690354D01*
X180268508Y-126751911D01*
X180254550Y-126812387D01*
X180237706Y-126871704D01*
X180218054Y-126929785D01*
X180195672Y-126986550D01*
X180170640Y-127041921D01*
X180143035Y-127095819D01*
X180112937Y-127148166D01*
X180080423Y-127198883D01*
X180045573Y-127247891D01*
X180008464Y-127295113D01*
X179969176Y-127340470D01*
X179927787Y-127383882D01*
X179884375Y-127425272D01*
X179839020Y-127464561D01*
X179791799Y-127501670D01*
X179742791Y-127536521D01*
X179692074Y-127569036D01*
X179639728Y-127599135D01*
X179585830Y-127626740D01*
X179530460Y-127651773D01*
X179473696Y-127674155D01*
X179415615Y-127693808D01*
X179356298Y-127710653D01*
X179295822Y-127724611D01*
X179234266Y-127735604D01*
X179171709Y-127743553D01*
X179108228Y-127748381D01*
X179043903Y-127750007D01*
X178979579Y-127748381D01*
X178916098Y-127743553D01*
X178853541Y-127735604D01*
X178791985Y-127724611D01*
X178731510Y-127710653D01*
X178672193Y-127693808D01*
X178614113Y-127674155D01*
X178557348Y-127651773D01*
X178501978Y-127626740D01*
X178448081Y-127599135D01*
X178395735Y-127569036D01*
X178345019Y-127536521D01*
X178296011Y-127501670D01*
X178248790Y-127464561D01*
X178203434Y-127425272D01*
X178160023Y-127383882D01*
X178118634Y-127340470D01*
X178079346Y-127295113D01*
X178042237Y-127247891D01*
X178007387Y-127198883D01*
X177974873Y-127148166D01*
X177944775Y-127095819D01*
X177917170Y-127041921D01*
X177892138Y-126986550D01*
X177869756Y-126929785D01*
X177850104Y-126871704D01*
X177833260Y-126812387D01*
X177819302Y-126751911D01*
X177808310Y-126690354D01*
X177800361Y-126627797D01*
X177795533Y-126564317D01*
X177793907Y-126499992D01*
X177795533Y-126435667D01*
X177800361Y-126372187D01*
X177808310Y-126309630D01*
X177819302Y-126248073D01*
X177833260Y-126187597D01*
X177850104Y-126128280D01*
X177869756Y-126070199D01*
X177892138Y-126013434D01*
X177917170Y-125958063D01*
X177944775Y-125904165D01*
X177974873Y-125851818D01*
X178007387Y-125801101D01*
X178042237Y-125752093D01*
X178079346Y-125704871D01*
X178118634Y-125659514D01*
X178160023Y-125616102D01*
X178203434Y-125574712D01*
X178248790Y-125535423D01*
X178296011Y-125498314D01*
X178345019Y-125463463D01*
X178395735Y-125430948D01*
X178448081Y-125400849D01*
X178501978Y-125373244D01*
X178557348Y-125348211D01*
X178614113Y-125325829D01*
X178672193Y-125306176D01*
X178731510Y-125289331D01*
X178791985Y-125275373D01*
X178853541Y-125264380D01*
X178916098Y-125256431D01*
X178979579Y-125251603D01*
X179043903Y-125249977D01*
X179108228Y-125251603D01*
X180595319Y-26501302D02*
X180646066Y-26505168D01*
X180696079Y-26511534D01*
X180745296Y-26520337D01*
X180793653Y-26531513D01*
X180841089Y-26545001D01*
X180887538Y-26560736D01*
X180932939Y-26578655D01*
X180977229Y-26598696D01*
X181020343Y-26620796D01*
X181062220Y-26644890D01*
X181102796Y-26670917D01*
X181142007Y-26698812D01*
X181179791Y-26728514D01*
X181216085Y-26759958D01*
X181250826Y-26793082D01*
X181283950Y-26827822D01*
X181315394Y-26864116D01*
X181345095Y-26901900D01*
X181372991Y-26941112D01*
X181399017Y-26981687D01*
X181423112Y-27023564D01*
X181445211Y-27066678D01*
X181465252Y-27110967D01*
X181483171Y-27156368D01*
X181498906Y-27202817D01*
X181512393Y-27250252D01*
X181523570Y-27298609D01*
X181532373Y-27347826D01*
X181538739Y-27397838D01*
X181542604Y-27448584D01*
X181543907Y-27500000D01*
X181543907Y-128000007D01*
X181542604Y-128051422D01*
X181538739Y-128102167D01*
X181532373Y-128152179D01*
X181523570Y-128201395D01*
X181512393Y-128249752D01*
X181498906Y-128297187D01*
X181483171Y-128343636D01*
X181465252Y-128389037D01*
X181445211Y-128433326D01*
X181423112Y-128476440D01*
X181399017Y-128518316D01*
X181372991Y-128558892D01*
X181345095Y-128598103D01*
X181315394Y-128635888D01*
X181283950Y-128672182D01*
X181250826Y-128706922D01*
X181216085Y-128740046D01*
X181179791Y-128771491D01*
X181142007Y-128801192D01*
X181102796Y-128829088D01*
X181062220Y-128855115D01*
X181020343Y-128879210D01*
X180977229Y-128901309D01*
X180932939Y-128921350D01*
X180887538Y-128939270D01*
X180841089Y-128955005D01*
X180793653Y-128968493D01*
X180745296Y-128979670D01*
X180696079Y-128988473D01*
X180646066Y-128994839D01*
X180595319Y-128998705D01*
X180543903Y-129000007D01*
X131043907Y-129000007D01*
X130336799Y-128292884D01*
X130300866Y-128258691D01*
X130263448Y-128226458D01*
X130224629Y-128196219D01*
X130184490Y-128168008D01*
X130143113Y-128141859D01*
X130100580Y-128117805D01*
X130056973Y-128095882D01*
X130012374Y-128076122D01*
X129966864Y-128058560D01*
X129920527Y-128043229D01*
X129873443Y-128030164D01*
X129825694Y-128019398D01*
X129777362Y-128010965D01*
X129728530Y-128004900D01*
X129679280Y-128001236D01*
X129629692Y-128000007D01*
X110458114Y-128000007D01*
X110408529Y-128001236D01*
X110359280Y-128004900D01*
X110310450Y-128010965D01*
X110262119Y-128019398D01*
X110214371Y-128030164D01*
X110167286Y-128043229D01*
X110120948Y-128058560D01*
X110075438Y-128076122D01*
X110030838Y-128095882D01*
X109987231Y-128117805D01*
X109944697Y-128141859D01*
X109903319Y-128168008D01*
X109863179Y-128196219D01*
X109824359Y-128226458D01*
X109786941Y-128258691D01*
X109751007Y-128292884D01*
X109043899Y-129000007D01*
X59543907Y-129000007D01*
X59492491Y-128998705D01*
X59441745Y-128994839D01*
X59391731Y-128988473D01*
X59342515Y-128979670D01*
X59294157Y-128968493D01*
X59246722Y-128955005D01*
X59200272Y-128939270D01*
X59154871Y-128921350D01*
X59110582Y-128901309D01*
X59067468Y-128879210D01*
X59025591Y-128855115D01*
X58985016Y-128829088D01*
X58945804Y-128801192D01*
X58908020Y-128771491D01*
X58871727Y-128740046D01*
X58836986Y-128706922D01*
X58803863Y-128672182D01*
X58772419Y-128635888D01*
X58742718Y-128598103D01*
X58714822Y-128558892D01*
X58688796Y-128518316D01*
X58664702Y-128476440D01*
X58642603Y-128433326D01*
X58622562Y-128389037D01*
X58604642Y-128343636D01*
X58588908Y-128297187D01*
X58575420Y-128249752D01*
X58564244Y-128201395D01*
X58555441Y-128152179D01*
X58549075Y-128102167D01*
X58545210Y-128051422D01*
X58543907Y-128000007D01*
X58543907Y-44500000D01*
X70043907Y-44500000D01*
X70069615Y-44499348D01*
X70094988Y-44497415D01*
X70119995Y-44494233D01*
X70144603Y-44489831D01*
X70168782Y-44484243D01*
X70192499Y-44477499D01*
X70215724Y-44469632D01*
X70238425Y-44460672D01*
X70260570Y-44450652D01*
X70282127Y-44439602D01*
X70303065Y-44427555D01*
X70323353Y-44414542D01*
X70342958Y-44400594D01*
X70361850Y-44385744D01*
X70379997Y-44370022D01*
X70397367Y-44353460D01*
X70413929Y-44336090D01*
X70429651Y-44317943D01*
X70444502Y-44299051D01*
X70458449Y-44279445D01*
X70471463Y-44259158D01*
X70483510Y-44238219D01*
X70494559Y-44216662D01*
X70504580Y-44194518D01*
X70513539Y-44171817D01*
X70521407Y-44148592D01*
X70528150Y-44124875D01*
X70533739Y-44100696D01*
X70538140Y-44076087D01*
X70541323Y-44051081D01*
X70543256Y-44025708D01*
X70543907Y-44000000D01*
X70543907Y-32029495D01*
X70543259Y-32003811D01*
X70541334Y-31978463D01*
X70538165Y-31953482D01*
X70533783Y-31928900D01*
X70528218Y-31904748D01*
X70521503Y-31881057D01*
X70513667Y-31857858D01*
X70504743Y-31835183D01*
X70494762Y-31813063D01*
X70483755Y-31791530D01*
X70471752Y-31770614D01*
X70458787Y-31750347D01*
X70444888Y-31730760D01*
X70430089Y-31711885D01*
X70414419Y-31693753D01*
X70397911Y-31676395D01*
X70380595Y-31659842D01*
X70362503Y-31644127D01*
X70343666Y-31629279D01*
X70324115Y-31615331D01*
X70303881Y-31602313D01*
X70282996Y-31590257D01*
X70261491Y-31579195D01*
X70239397Y-31569157D01*
X70216745Y-31560175D01*
X70193567Y-31552280D01*
X70169893Y-31545504D01*
X70145755Y-31539877D01*
X70121185Y-31535432D01*
X70096213Y-31532199D01*
X70070870Y-31530209D01*
X70045189Y-31529495D01*
X58543907Y-31499992D01*
X58543907Y-27500000D01*
X58545210Y-27448584D01*
X58549075Y-27397838D01*
X58555441Y-27347826D01*
X58564244Y-27298609D01*
X58575420Y-27250252D01*
X58588908Y-27202817D01*
X58604642Y-27156368D01*
X58622562Y-27110967D01*
X58642603Y-27066678D01*
X58664702Y-27023564D01*
X58688796Y-26981687D01*
X58714822Y-26941112D01*
X58742718Y-26901900D01*
X58772419Y-26864116D01*
X58803863Y-26827822D01*
X58836986Y-26793082D01*
X58871727Y-26759958D01*
X58908020Y-26728514D01*
X58945804Y-26698812D01*
X58985016Y-26670917D01*
X59025591Y-26644890D01*
X59067468Y-26620796D01*
X59110582Y-26598696D01*
X59154871Y-26578655D01*
X59200272Y-26560736D01*
X59246722Y-26545001D01*
X59294157Y-26531513D01*
X59342515Y-26520337D01*
X59391731Y-26511534D01*
X59441745Y-26505168D01*
X59492491Y-26501302D01*
X59543907Y-26500000D01*
X180543903Y-26500000D01*
X180595319Y-26501302D01*
X61108232Y-125251603D02*
X61171712Y-125256431D01*
X61234269Y-125264380D01*
X61295825Y-125275373D01*
X61356301Y-125289331D01*
X61415618Y-125306176D01*
X61473698Y-125325829D01*
X61530462Y-125348211D01*
X61585833Y-125373244D01*
X61639730Y-125400849D01*
X61692076Y-125430948D01*
X61742793Y-125463463D01*
X61791801Y-125498314D01*
X61839022Y-125535423D01*
X61884378Y-125574712D01*
X61927790Y-125616102D01*
X61969179Y-125659514D01*
X62008467Y-125704871D01*
X62045576Y-125752093D01*
X62080426Y-125801101D01*
X62112940Y-125851818D01*
X62143038Y-125904165D01*
X62170643Y-125958063D01*
X62195675Y-126013434D01*
X62218057Y-126070199D01*
X62237709Y-126128280D01*
X62254554Y-126187597D01*
X62268511Y-126248073D01*
X62279504Y-126309630D01*
X62287453Y-126372187D01*
X62292281Y-126435667D01*
X62293907Y-126499992D01*
X62292281Y-126564317D01*
X62287453Y-126627797D01*
X62279504Y-126690354D01*
X62268511Y-126751911D01*
X62254554Y-126812387D01*
X62237709Y-126871704D01*
X62218057Y-126929785D01*
X62195675Y-126986550D01*
X62170643Y-127041921D01*
X62143038Y-127095819D01*
X62112940Y-127148166D01*
X62080426Y-127198883D01*
X62045576Y-127247891D01*
X62008467Y-127295113D01*
X61969179Y-127340470D01*
X61927790Y-127383882D01*
X61884378Y-127425272D01*
X61839022Y-127464561D01*
X61791801Y-127501670D01*
X61742793Y-127536521D01*
X61692076Y-127569036D01*
X61639730Y-127599135D01*
X61585833Y-127626740D01*
X61530462Y-127651773D01*
X61473698Y-127674155D01*
X61415618Y-127693808D01*
X61356301Y-127710653D01*
X61295825Y-127724611D01*
X61234269Y-127735604D01*
X61171712Y-127743553D01*
X61108232Y-127748381D01*
X61043907Y-127750007D01*
X60979582Y-127748381D01*
X60916102Y-127743553D01*
X60853545Y-127735604D01*
X60791989Y-127724611D01*
X60731513Y-127710653D01*
X60672196Y-127693808D01*
X60614116Y-127674155D01*
X60557352Y-127651773D01*
X60501981Y-127626740D01*
X60448084Y-127599135D01*
X60395738Y-127569036D01*
X60345021Y-127536521D01*
X60296013Y-127501670D01*
X60248792Y-127464561D01*
X60203436Y-127425272D01*
X60160024Y-127383882D01*
X60118635Y-127340470D01*
X60079347Y-127295113D01*
X60042238Y-127247891D01*
X60007388Y-127198883D01*
X59974874Y-127148166D01*
X59944776Y-127095819D01*
X59917171Y-127041921D01*
X59892139Y-126986550D01*
X59869757Y-126929785D01*
X59850105Y-126871704D01*
X59833260Y-126812387D01*
X59819303Y-126751911D01*
X59808310Y-126690354D01*
X59800361Y-126627797D01*
X59795534Y-126564317D01*
X59793907Y-126499992D01*
X59795534Y-126435667D01*
X59800361Y-126372187D01*
X59808310Y-126309630D01*
X59819303Y-126248073D01*
X59833260Y-126187597D01*
X59850105Y-126128280D01*
X59869757Y-126070199D01*
X59892139Y-126013434D01*
X59917171Y-125958063D01*
X59944776Y-125904165D01*
X59974874Y-125851818D01*
X60007388Y-125801101D01*
X60042238Y-125752093D01*
X60079347Y-125704871D01*
X60118635Y-125659514D01*
X60160024Y-125616102D01*
X60203436Y-125574712D01*
X60248792Y-125535423D01*
X60296013Y-125498314D01*
X60345021Y-125463463D01*
X60395738Y-125430948D01*
X60448084Y-125400849D01*
X60501981Y-125373244D01*
X60557352Y-125348211D01*
X60614116Y-125325829D01*
X60672196Y-125306176D01*
X60731513Y-125289331D01*
X60791989Y-125275373D01*
X60853545Y-125264380D01*
X60916102Y-125256431D01*
X60979582Y-125251603D01*
X61043907Y-125249977D01*
X61108232Y-125251603D01*
X179108228Y-27751626D02*
X179171709Y-27756453D01*
X179234266Y-27764403D01*
X179295822Y-27775395D01*
X179356298Y-27789353D01*
X179415615Y-27806197D01*
X179473696Y-27825850D01*
X179530460Y-27848231D01*
X179585830Y-27873264D01*
X179639728Y-27900868D01*
X179692074Y-27930967D01*
X179742791Y-27963481D01*
X179791799Y-27998331D01*
X179839020Y-28035440D01*
X179884375Y-28074728D01*
X179927787Y-28116117D01*
X179969176Y-28159529D01*
X180008464Y-28204885D01*
X180045573Y-28252106D01*
X180080423Y-28301114D01*
X180112937Y-28351830D01*
X180143035Y-28404177D01*
X180170640Y-28458074D01*
X180195672Y-28513444D01*
X180218054Y-28570209D01*
X180237706Y-28628289D01*
X180254550Y-28687606D01*
X180268508Y-28748082D01*
X180279500Y-28809638D01*
X180287450Y-28872195D01*
X180292277Y-28935675D01*
X180293903Y-29000000D01*
X180292277Y-29064324D01*
X180287450Y-29127804D01*
X180279500Y-29190362D01*
X180268508Y-29251917D01*
X180254550Y-29312393D01*
X180237706Y-29371710D01*
X180218054Y-29429791D01*
X180195672Y-29486555D01*
X180170640Y-29541925D01*
X180143035Y-29595823D01*
X180112937Y-29648169D01*
X180080423Y-29698885D01*
X180045573Y-29747893D01*
X180008464Y-29795115D01*
X179969176Y-29840470D01*
X179927787Y-29883882D01*
X179884375Y-29925271D01*
X179839020Y-29964560D01*
X179791799Y-30001668D01*
X179742791Y-30036519D01*
X179692074Y-30069032D01*
X179639728Y-30099131D01*
X179585830Y-30126736D01*
X179530460Y-30151768D01*
X179473696Y-30174150D01*
X179415615Y-30193802D01*
X179356298Y-30210646D01*
X179295822Y-30224604D01*
X179234266Y-30235597D01*
X179171709Y-30243546D01*
X179108228Y-30248373D01*
X179043903Y-30250000D01*
X178979579Y-30248373D01*
X178916098Y-30243546D01*
X178853541Y-30235597D01*
X178791985Y-30224604D01*
X178731510Y-30210646D01*
X178672193Y-30193802D01*
X178614113Y-30174150D01*
X178557348Y-30151768D01*
X178501978Y-30126736D01*
X178448081Y-30099131D01*
X178395735Y-30069032D01*
X178345019Y-30036519D01*
X178296011Y-30001668D01*
X178248790Y-29964560D01*
X178203434Y-29925271D01*
X178160023Y-29883882D01*
X178118634Y-29840470D01*
X178079346Y-29795115D01*
X178042237Y-29747893D01*
X178007387Y-29698885D01*
X177974873Y-29648169D01*
X177944775Y-29595823D01*
X177917170Y-29541925D01*
X177892138Y-29486555D01*
X177869756Y-29429791D01*
X177850104Y-29371710D01*
X177833260Y-29312393D01*
X177819302Y-29251917D01*
X177808310Y-29190362D01*
X177800361Y-29127804D01*
X177795533Y-29064324D01*
X177793907Y-29000000D01*
X177795533Y-28935675D01*
X177800361Y-28872195D01*
X177808310Y-28809638D01*
X177819302Y-28748082D01*
X177833260Y-28687606D01*
X177850104Y-28628289D01*
X177869756Y-28570209D01*
X177892138Y-28513444D01*
X177917170Y-28458074D01*
X177944775Y-28404177D01*
X177974873Y-28351830D01*
X178007387Y-28301114D01*
X178042237Y-28252106D01*
X178079346Y-28204885D01*
X178118634Y-28159529D01*
X178160023Y-28116117D01*
X178203434Y-28074728D01*
X178248790Y-28035440D01*
X178296011Y-27998331D01*
X178345019Y-27963481D01*
X178395735Y-27930967D01*
X178448081Y-27900868D01*
X178501978Y-27873264D01*
X178557348Y-27848231D01*
X178614113Y-27825850D01*
X178672193Y-27806197D01*
X178731510Y-27789353D01*
X178791985Y-27775395D01*
X178853541Y-27764403D01*
X178916098Y-27756453D01*
X178979579Y-27751626D01*
X179043903Y-27750000D01*
X179108228Y-27751626D01*
X61108232Y-27751626D02*
X61171712Y-27756453D01*
X61234269Y-27764403D01*
X61295825Y-27775395D01*
X61356301Y-27789353D01*
X61415618Y-27806197D01*
X61473698Y-27825850D01*
X61530462Y-27848231D01*
X61585833Y-27873264D01*
X61639730Y-27900868D01*
X61692076Y-27930967D01*
X61742793Y-27963481D01*
X61791801Y-27998331D01*
X61839022Y-28035440D01*
X61884378Y-28074728D01*
X61927790Y-28116117D01*
X61969179Y-28159529D01*
X62008467Y-28204885D01*
X62045576Y-28252106D01*
X62080426Y-28301114D01*
X62112940Y-28351830D01*
X62143038Y-28404177D01*
X62170643Y-28458074D01*
X62195675Y-28513444D01*
X62218057Y-28570209D01*
X62237709Y-28628289D01*
X62254554Y-28687606D01*
X62268511Y-28748082D01*
X62279504Y-28809638D01*
X62287453Y-28872195D01*
X62292280Y-28935675D01*
X62293907Y-29000000D01*
X62292280Y-29064324D01*
X62287453Y-29127804D01*
X62279504Y-29190362D01*
X62268511Y-29251917D01*
X62254554Y-29312393D01*
X62237709Y-29371710D01*
X62218057Y-29429791D01*
X62195675Y-29486555D01*
X62170643Y-29541925D01*
X62143038Y-29595823D01*
X62112940Y-29648169D01*
X62080426Y-29698885D01*
X62045576Y-29747893D01*
X62008467Y-29795115D01*
X61969179Y-29840470D01*
X61927790Y-29883882D01*
X61884378Y-29925271D01*
X61839022Y-29964560D01*
X61791801Y-30001668D01*
X61742793Y-30036519D01*
X61692076Y-30069032D01*
X61639730Y-30099131D01*
X61585833Y-30126736D01*
X61530462Y-30151768D01*
X61473698Y-30174150D01*
X61415618Y-30193802D01*
X61356301Y-30210646D01*
X61295825Y-30224604D01*
X61234269Y-30235597D01*
X61171712Y-30243546D01*
X61108232Y-30248373D01*
X61043907Y-30250000D01*
X60979582Y-30248373D01*
X60916102Y-30243546D01*
X60853545Y-30235597D01*
X60791989Y-30224604D01*
X60731513Y-30210646D01*
X60672196Y-30193802D01*
X60614116Y-30174150D01*
X60557352Y-30151768D01*
X60501981Y-30126736D01*
X60448084Y-30099131D01*
X60395738Y-30069032D01*
X60345021Y-30036519D01*
X60296013Y-30001668D01*
X60248792Y-29964560D01*
X60203436Y-29925271D01*
X60160024Y-29883882D01*
X60118635Y-29840470D01*
X60079347Y-29795115D01*
X60042238Y-29747893D01*
X60007388Y-29698885D01*
X59974874Y-29648169D01*
X59944776Y-29595823D01*
X59917171Y-29541925D01*
X59892139Y-29486555D01*
X59869757Y-29429791D01*
X59850105Y-29371710D01*
X59833260Y-29312393D01*
X59819303Y-29251917D01*
X59808310Y-29190362D01*
X59800361Y-29127804D01*
X59795533Y-29064324D01*
X59793907Y-29000000D01*
X59795533Y-28935675D01*
X59800361Y-28872195D01*
X59808310Y-28809638D01*
X59819303Y-28748082D01*
X59833260Y-28687606D01*
X59850105Y-28628289D01*
X59869757Y-28570209D01*
X59892139Y-28513444D01*
X59917171Y-28458074D01*
X59944776Y-28404177D01*
X59974874Y-28351830D01*
X60007388Y-28301114D01*
X60042238Y-28252106D01*
X60079347Y-28204885D01*
X60118635Y-28159529D01*
X60160024Y-28116117D01*
X60203436Y-28074728D01*
X60248792Y-28035440D01*
X60296013Y-27998331D01*
X60345021Y-27963481D01*
X60395738Y-27930967D01*
X60448084Y-27900868D01*
X60501981Y-27873264D01*
X60557352Y-27848231D01*
X60614116Y-27825850D01*
X60672196Y-27806197D01*
X60731513Y-27789353D01*
X60791989Y-27775395D01*
X60853545Y-27764403D01*
X60916102Y-27756453D01*
X60979582Y-27751626D01*
X61043907Y-27750000D01*
X61108232Y-27751626D01*
M02*
