%TF.GenerationSoftware,KiCad,Pcbnew,9.0.4*%
%TF.CreationDate,2026-02-04T08:56:54+09:00*%
%TF.ProjectId,ansicBackplate,616e7369-6342-4616-936b-706c6174652e,rev?*%
%TF.SameCoordinates,Original*%
%TF.FileFunction,Soldermask,Top*%
%TF.FilePolarity,Negative*%
%FSLAX46Y46*%
G04 Gerber Fmt 4.6, Leading zero omitted, Abs format (unit mm)*
G04 Created by KiCad (PCBNEW 9.0.4) date 2026-02-04 08:56:54*
%MOMM*%
%LPD*%
G01*
G04 APERTURE LIST*
%ADD10C,0.100000*%
G04 APERTURE END LIST*
D10*
X78706093Y-81250000D02*
X78456093Y-81500000D01*
X78706093Y-81750000D01*
X78456093Y-82000000D01*
X78206093Y-81750000D01*
X77956093Y-82000000D01*
X77706093Y-81750000D01*
X77956093Y-81500000D01*
X77706093Y-81250000D01*
X77956093Y-81000000D01*
X78206093Y-81250000D01*
X78456093Y-81000000D01*
X78706093Y-81250000D01*
G36*
X78706093Y-81250000D02*
G01*
X78456093Y-81500000D01*
X78706093Y-81750000D01*
X78456093Y-82000000D01*
X78206093Y-81750000D01*
X77956093Y-82000000D01*
X77706093Y-81750000D01*
X77956093Y-81500000D01*
X77706093Y-81250000D01*
X77956093Y-81000000D01*
X78206093Y-81250000D01*
X78456093Y-81000000D01*
X78706093Y-81250000D01*
G37*
X74206093Y-78250000D02*
X73956093Y-78500000D01*
X74206093Y-78750000D01*
X73956093Y-79000000D01*
X73706093Y-78750000D01*
X73456093Y-79000000D01*
X73206093Y-78750000D01*
X73456093Y-78500000D01*
X73206093Y-78250000D01*
X73456093Y-78000000D01*
X73706093Y-78250000D01*
X73956093Y-78000000D01*
X74206093Y-78250000D01*
G36*
X74206093Y-78250000D02*
G01*
X73956093Y-78500000D01*
X74206093Y-78750000D01*
X73956093Y-79000000D01*
X73706093Y-78750000D01*
X73456093Y-79000000D01*
X73206093Y-78750000D01*
X73456093Y-78500000D01*
X73206093Y-78250000D01*
X73456093Y-78000000D01*
X73706093Y-78250000D01*
X73956093Y-78000000D01*
X74206093Y-78250000D01*
G37*
X75706093Y-81250000D02*
X75456093Y-81500000D01*
X75706093Y-81750000D01*
X75456093Y-82000000D01*
X75206093Y-81750000D01*
X74956093Y-82000000D01*
X74706093Y-81750000D01*
X74956093Y-81500000D01*
X74706093Y-81250000D01*
X74956093Y-81000000D01*
X75206093Y-81250000D01*
X75456093Y-81000000D01*
X75706093Y-81250000D01*
G36*
X75706093Y-81250000D02*
G01*
X75456093Y-81500000D01*
X75706093Y-81750000D01*
X75456093Y-82000000D01*
X75206093Y-81750000D01*
X74956093Y-82000000D01*
X74706093Y-81750000D01*
X74956093Y-81500000D01*
X74706093Y-81250000D01*
X74956093Y-81000000D01*
X75206093Y-81250000D01*
X75456093Y-81000000D01*
X75706093Y-81250000D01*
G37*
X74206093Y-79750000D02*
X73956093Y-80000000D01*
X74206093Y-80250000D01*
X73956093Y-80500000D01*
X73706093Y-80250000D01*
X73456093Y-80500000D01*
X73206093Y-80250000D01*
X73456093Y-80000000D01*
X73206093Y-79750000D01*
X73456093Y-79500000D01*
X73706093Y-79750000D01*
X73956093Y-79500000D01*
X74206093Y-79750000D01*
G36*
X74206093Y-79750000D02*
G01*
X73956093Y-80000000D01*
X74206093Y-80250000D01*
X73956093Y-80500000D01*
X73706093Y-80250000D01*
X73456093Y-80500000D01*
X73206093Y-80250000D01*
X73456093Y-80000000D01*
X73206093Y-79750000D01*
X73456093Y-79500000D01*
X73706093Y-79750000D01*
X73956093Y-79500000D01*
X74206093Y-79750000D01*
G37*
X77206093Y-81250000D02*
X76956093Y-81500000D01*
X77206093Y-81750000D01*
X76956093Y-82000000D01*
X76706093Y-81750000D01*
X76456093Y-82000000D01*
X76206093Y-81750000D01*
X76456093Y-81500000D01*
X76206093Y-81250000D01*
X76456093Y-81000000D01*
X76706093Y-81250000D01*
X76956093Y-81000000D01*
X77206093Y-81250000D01*
G36*
X77206093Y-81250000D02*
G01*
X76956093Y-81500000D01*
X77206093Y-81750000D01*
X76956093Y-82000000D01*
X76706093Y-81750000D01*
X76456093Y-82000000D01*
X76206093Y-81750000D01*
X76456093Y-81500000D01*
X76206093Y-81250000D01*
X76456093Y-81000000D01*
X76706093Y-81250000D01*
X76956093Y-81000000D01*
X77206093Y-81250000D01*
G37*
X74206093Y-81250000D02*
X73956093Y-81500000D01*
X74206093Y-81750000D01*
X73956093Y-82000000D01*
X73706093Y-81750000D01*
X73456093Y-82000000D01*
X73206093Y-81750000D01*
X73456093Y-81500000D01*
X73206093Y-81250000D01*
X73456093Y-81000000D01*
X73706093Y-81250000D01*
X73956093Y-81000000D01*
X74206093Y-81250000D01*
G36*
X74206093Y-81250000D02*
G01*
X73956093Y-81500000D01*
X74206093Y-81750000D01*
X73956093Y-82000000D01*
X73706093Y-81750000D01*
X73456093Y-82000000D01*
X73206093Y-81750000D01*
X73456093Y-81500000D01*
X73206093Y-81250000D01*
X73456093Y-81000000D01*
X73706093Y-81250000D01*
X73956093Y-81000000D01*
X74206093Y-81250000D01*
G37*
X75706093Y-79750000D02*
X75456093Y-80000000D01*
X75706093Y-80250000D01*
X75456093Y-80500000D01*
X75206093Y-80250000D01*
X74956093Y-80500000D01*
X74706093Y-80250000D01*
X74956093Y-80000000D01*
X74706093Y-79750000D01*
X74956093Y-79500000D01*
X75206093Y-79750000D01*
X75456093Y-79500000D01*
X75706093Y-79750000D01*
G36*
X75706093Y-79750000D02*
G01*
X75456093Y-80000000D01*
X75706093Y-80250000D01*
X75456093Y-80500000D01*
X75206093Y-80250000D01*
X74956093Y-80500000D01*
X74706093Y-80250000D01*
X74956093Y-80000000D01*
X74706093Y-79750000D01*
X74956093Y-79500000D01*
X75206093Y-79750000D01*
X75456093Y-79500000D01*
X75706093Y-79750000D01*
G37*
G36*
X97959233Y-102450000D02*
G01*
X116147998Y-63278332D01*
X117266630Y-63278332D01*
X135452952Y-102450000D01*
X134165792Y-102450000D01*
X116426434Y-64172260D01*
X116985751Y-64172260D01*
X99246393Y-102450000D01*
X97959233Y-102450000D01*
G37*
G36*
X103948067Y-90643300D02*
G01*
X104507383Y-89578401D01*
X128851068Y-89578401D01*
X129410384Y-90643300D01*
X103948067Y-90643300D01*
G37*
G36*
X143390845Y-102450000D02*
G01*
X143390845Y-63278332D01*
X144343392Y-63278332D01*
X173667188Y-101162840D01*
X173051696Y-101162840D01*
X173051696Y-63278332D01*
X174170328Y-63278332D01*
X174170328Y-102450000D01*
X173217781Y-102450000D01*
X143896427Y-64565491D01*
X144511919Y-64565491D01*
X144511919Y-102450000D01*
X143390845Y-102450000D01*
G37*
M02*
