%TF.GenerationSoftware,KiCad,Pcbnew,9.0.4*%
%TF.CreationDate,2026-01-29T10:07:03+09:00*%
%TF.ProjectId,ansikBackplate,616e7369-6b42-4616-936b-706c6174652e,rev?*%
%TF.SameCoordinates,Original*%
%TF.FileFunction,Soldermask,Top*%
%TF.FilePolarity,Negative*%
%FSLAX46Y46*%
G04 Gerber Fmt 4.6, Leading zero omitted, Abs format (unit mm)*
G04 Created by KiCad (PCBNEW 9.0.4) date 2026-01-29 10:07:03*
%MOMM*%
%LPD*%
G01*
G04 APERTURE LIST*
%ADD10C,0.100000*%
G04 APERTURE END LIST*
D10*
G36*
X99003140Y-103950000D02*
G01*
X117191905Y-64778332D01*
X118310537Y-64778332D01*
X136496859Y-103950000D01*
X135209699Y-103950000D01*
X117470341Y-65672260D01*
X118029658Y-65672260D01*
X100290300Y-103950000D01*
X99003140Y-103950000D01*
G37*
G36*
X104991974Y-92143300D02*
G01*
X105551290Y-91078401D01*
X129894975Y-91078401D01*
X130454291Y-92143300D01*
X104991974Y-92143300D01*
G37*
G36*
X144434752Y-103950000D02*
G01*
X144434752Y-64778332D01*
X145387299Y-64778332D01*
X174711095Y-102662840D01*
X174095603Y-102662840D01*
X174095603Y-64778332D01*
X175214235Y-64778332D01*
X175214235Y-103950000D01*
X174261688Y-103950000D01*
X144940334Y-66065491D01*
X145555826Y-66065491D01*
X145555826Y-103950000D01*
X144434752Y-103950000D01*
G37*
X79750000Y-82750000D02*
X79500000Y-83000000D01*
X79750000Y-83250000D01*
X79500000Y-83500000D01*
X79250000Y-83250000D01*
X79000000Y-83500000D01*
X78750000Y-83250000D01*
X79000000Y-83000000D01*
X78750000Y-82750000D01*
X79000000Y-82500000D01*
X79250000Y-82750000D01*
X79500000Y-82500000D01*
X79750000Y-82750000D01*
G36*
X79750000Y-82750000D02*
G01*
X79500000Y-83000000D01*
X79750000Y-83250000D01*
X79500000Y-83500000D01*
X79250000Y-83250000D01*
X79000000Y-83500000D01*
X78750000Y-83250000D01*
X79000000Y-83000000D01*
X78750000Y-82750000D01*
X79000000Y-82500000D01*
X79250000Y-82750000D01*
X79500000Y-82500000D01*
X79750000Y-82750000D01*
G37*
X75250000Y-79750000D02*
X75000000Y-80000000D01*
X75250000Y-80250000D01*
X75000000Y-80500000D01*
X74750000Y-80250000D01*
X74500000Y-80500000D01*
X74250000Y-80250000D01*
X74500000Y-80000000D01*
X74250000Y-79750000D01*
X74500000Y-79500000D01*
X74750000Y-79750000D01*
X75000000Y-79500000D01*
X75250000Y-79750000D01*
G36*
X75250000Y-79750000D02*
G01*
X75000000Y-80000000D01*
X75250000Y-80250000D01*
X75000000Y-80500000D01*
X74750000Y-80250000D01*
X74500000Y-80500000D01*
X74250000Y-80250000D01*
X74500000Y-80000000D01*
X74250000Y-79750000D01*
X74500000Y-79500000D01*
X74750000Y-79750000D01*
X75000000Y-79500000D01*
X75250000Y-79750000D01*
G37*
X76750000Y-82750000D02*
X76500000Y-83000000D01*
X76750000Y-83250000D01*
X76500000Y-83500000D01*
X76250000Y-83250000D01*
X76000000Y-83500000D01*
X75750000Y-83250000D01*
X76000000Y-83000000D01*
X75750000Y-82750000D01*
X76000000Y-82500000D01*
X76250000Y-82750000D01*
X76500000Y-82500000D01*
X76750000Y-82750000D01*
G36*
X76750000Y-82750000D02*
G01*
X76500000Y-83000000D01*
X76750000Y-83250000D01*
X76500000Y-83500000D01*
X76250000Y-83250000D01*
X76000000Y-83500000D01*
X75750000Y-83250000D01*
X76000000Y-83000000D01*
X75750000Y-82750000D01*
X76000000Y-82500000D01*
X76250000Y-82750000D01*
X76500000Y-82500000D01*
X76750000Y-82750000D01*
G37*
X75250000Y-81250000D02*
X75000000Y-81500000D01*
X75250000Y-81750000D01*
X75000000Y-82000000D01*
X74750000Y-81750000D01*
X74500000Y-82000000D01*
X74250000Y-81750000D01*
X74500000Y-81500000D01*
X74250000Y-81250000D01*
X74500000Y-81000000D01*
X74750000Y-81250000D01*
X75000000Y-81000000D01*
X75250000Y-81250000D01*
G36*
X75250000Y-81250000D02*
G01*
X75000000Y-81500000D01*
X75250000Y-81750000D01*
X75000000Y-82000000D01*
X74750000Y-81750000D01*
X74500000Y-82000000D01*
X74250000Y-81750000D01*
X74500000Y-81500000D01*
X74250000Y-81250000D01*
X74500000Y-81000000D01*
X74750000Y-81250000D01*
X75000000Y-81000000D01*
X75250000Y-81250000D01*
G37*
X78250000Y-82750000D02*
X78000000Y-83000000D01*
X78250000Y-83250000D01*
X78000000Y-83500000D01*
X77750000Y-83250000D01*
X77500000Y-83500000D01*
X77250000Y-83250000D01*
X77500000Y-83000000D01*
X77250000Y-82750000D01*
X77500000Y-82500000D01*
X77750000Y-82750000D01*
X78000000Y-82500000D01*
X78250000Y-82750000D01*
G36*
X78250000Y-82750000D02*
G01*
X78000000Y-83000000D01*
X78250000Y-83250000D01*
X78000000Y-83500000D01*
X77750000Y-83250000D01*
X77500000Y-83500000D01*
X77250000Y-83250000D01*
X77500000Y-83000000D01*
X77250000Y-82750000D01*
X77500000Y-82500000D01*
X77750000Y-82750000D01*
X78000000Y-82500000D01*
X78250000Y-82750000D01*
G37*
X75250000Y-82750000D02*
X75000000Y-83000000D01*
X75250000Y-83250000D01*
X75000000Y-83500000D01*
X74750000Y-83250000D01*
X74500000Y-83500000D01*
X74250000Y-83250000D01*
X74500000Y-83000000D01*
X74250000Y-82750000D01*
X74500000Y-82500000D01*
X74750000Y-82750000D01*
X75000000Y-82500000D01*
X75250000Y-82750000D01*
G36*
X75250000Y-82750000D02*
G01*
X75000000Y-83000000D01*
X75250000Y-83250000D01*
X75000000Y-83500000D01*
X74750000Y-83250000D01*
X74500000Y-83500000D01*
X74250000Y-83250000D01*
X74500000Y-83000000D01*
X74250000Y-82750000D01*
X74500000Y-82500000D01*
X74750000Y-82750000D01*
X75000000Y-82500000D01*
X75250000Y-82750000D01*
G37*
X76750000Y-81250000D02*
X76500000Y-81500000D01*
X76750000Y-81750000D01*
X76500000Y-82000000D01*
X76250000Y-81750000D01*
X76000000Y-82000000D01*
X75750000Y-81750000D01*
X76000000Y-81500000D01*
X75750000Y-81250000D01*
X76000000Y-81000000D01*
X76250000Y-81250000D01*
X76500000Y-81000000D01*
X76750000Y-81250000D01*
G36*
X76750000Y-81250000D02*
G01*
X76500000Y-81500000D01*
X76750000Y-81750000D01*
X76500000Y-82000000D01*
X76250000Y-81750000D01*
X76000000Y-82000000D01*
X75750000Y-81750000D01*
X76000000Y-81500000D01*
X75750000Y-81250000D01*
X76000000Y-81000000D01*
X76250000Y-81250000D01*
X76500000Y-81000000D01*
X76750000Y-81250000D01*
G37*
M02*
